# Blender v2.93.4 OBJ File: ''
# www.blender.org
mtllib reverberation_furnace.mtl


o default
v 6.000671 3.000001 0.000003
v 3.000672 3.000000 0.000002
v 3.000671 6.000000 0.000002
v 6.000671 6.000001 0.000003
v 0.125670 2.000000 5.750002
v 0.125672 2.000000 5.000002
v 0.125672 1.000000 5.000002
v 0.125671 1.000000 5.750002
v 1.000672 0.000000 0.250002
v 1.000672 0.000000 1.000002
v 0.125672 -0.000000 1.000002
v 0.125672 -0.000000 0.250002
v 0.125672 1.000000 4.000002
v 0.125672 2.000000 4.000002
v 0.125672 2.000000 3.000002
v 0.125672 1.000000 3.000002
v 0.125672 -0.000000 2.000002
v 0.125672 1.000000 2.000002
v 0.000672 1.000000 2.000002
v 0.000672 -0.000000 2.000002
v 0.000672 1.000000 4.000002
v 0.000672 1.000000 5.000002
v 0.125672 2.000000 2.000002
v 0.125672 2.000000 1.000002
v 0.125672 1.000000 1.000002
v 0.000672 -0.000000 5.000002
v 0.000672 -0.000000 4.000002
v 0.000672 1.000000 1.000002
v 0.000672 -0.000000 1.000002
v 0.125672 -0.000000 4.000002
v 0.125672 -0.000000 5.000002
v 2.000672 2.000000 2.000002
v 3.000672 2.000000 2.000002
v 3.000672 2.000000 1.000002
v 2.000672 2.000000 1.000002
v 2.000671 2.000000 5.000002
v 3.000672 2.000000 5.000002
v 3.000672 2.000000 4.000002
v 2.000671 2.000000 4.000002
v 1.000672 2.000000 5.000002
v 0.125671 2.500000 5.000002
v 1.000671 2.500000 5.000002
v 3.000672 2.000000 0.000002
v 2.000672 2.000000 0.250002
v 2.000672 2.500000 0.250002
v 3.000672 2.500000 0.000002
v 2.000671 2.500000 3.000002
v 3.000672 2.500000 3.000002
v 3.000672 2.500000 2.000002
v 2.000671 2.500000 2.000002
v 2.000671 2.500000 5.750002
v 3.000671 2.500000 6.000002
v 3.000672 2.500000 5.000002
v 2.000671 2.500000 5.000002
v 2.000672 2.500000 1.000002
v 3.000672 2.500000 1.000002
v 1.000672 2.000000 0.250002
v 1.000672 2.500000 0.250002
v 0.125672 2.000000 0.250002
v 0.125672 2.500000 1.000002
v 0.125672 2.500000 0.250002
v 0.125671 2.500000 4.000002
v 0.125672 2.500000 3.000002
v 2.000671 2.000000 5.750002
v 3.000672 2.000000 6.000002
v 0.125670 2.500000 5.750002
v 5.500670 8.000001 0.500002
v 3.500671 8.000000 0.500002
v 3.500671 9.000000 0.500002
v 5.500670 9.000001 0.500002
v 3.000672 3.000000 3.000002
v 3.000671 6.000000 3.000002
v 6.000672 0.000001 0.000003
v 3.000672 0.000000 0.000002
v 6.000671 6.000001 3.000003
v 6.000671 3.000001 3.000003
v 6.000670 3.000001 6.000003
v 6.000669 6.000001 6.000003
v 3.500671 8.000000 3.500002
v 3.500671 8.000000 5.500002
v 3.500670 9.000000 5.500002
v 3.500670 9.000000 3.500002
v 3.500671 6.000000 0.500002
v 5.500671 6.000001 0.500002
v 5.500671 6.000001 2.500002
v 3.500671 6.000000 2.500002
v 5.500671 6.000001 3.500002
v 5.500671 6.000001 5.500002
v 3.500671 6.000000 5.500002
v 3.000671 6.000000 6.000002
v 3.500671 6.000000 3.500002
v 5.500670 8.000001 5.500002
v 5.500670 9.000001 5.500002
v 3.500671 8.000000 2.500002
v 3.500671 9.000000 2.500002
v 5.500670 8.000001 2.500002
v 5.500670 9.000001 2.500002
v 5.500670 8.000001 3.500002
v 5.500670 9.000001 3.500002
v 4.000670 9.000001 1.000002
v 5.000670 9.000001 1.000003
v 5.000670 9.000001 2.000003
v 4.000670 9.000001 2.000002
v 5.000670 9.000001 4.000002
v 5.000670 9.000001 5.000002
v 4.000670 9.000001 5.000002
v 4.000670 9.000001 4.000002
v 3.938170 11.875001 0.937502
v 3.938170 12.000001 0.937502
v 5.063170 12.000001 0.937502
v 5.063170 11.875001 0.937502
v 5.000670 11.875001 5.000002
v 5.000670 11.875001 4.000002
v 5.063170 11.875001 3.937502
v 5.063170 11.875001 5.062502
v 5.000670 11.875001 2.000003
v 5.000670 11.875001 1.000003
v 5.063170 11.875001 2.062503
v 3.000671 3.000000 6.000002
v 3.000672 0.000000 6.000002
v 6.000671 0.000001 6.000003
v 6.000672 0.000001 3.000003
v 1.000672 1.000000 5.750002
v 0.125671 -0.000000 5.750002
v 1.000672 0.000000 5.750002
v 2.000672 1.000000 0.250002
v 3.000672 1.000000 0.000002
v 2.000672 0.000000 0.250002
v 3.000672 2.000000 3.000002
v 5.500671 7.000001 0.500002
v 5.500670 7.000001 2.500002
v 5.500670 7.000001 3.500002
v 5.500670 7.000001 5.500002
v 3.500671 7.000000 3.500002
v 3.500671 7.000000 2.500002
v 3.500671 7.000000 0.500002
v 3.500671 7.000000 5.500002
v 5.000670 10.000001 5.000002
v 4.000670 10.000001 5.000002
v 5.000670 11.000001 5.000002
v 4.000670 11.000001 5.000002
v 4.000670 10.000001 4.000002
v 4.000670 11.000001 4.000002
v 5.000670 10.000001 4.000002
v 5.000670 11.000001 4.000002
v 4.000670 10.000001 2.000002
v 4.000670 10.000001 1.000002
v 4.000670 11.000001 2.000002
v 4.000670 11.000001 1.000002
v 5.000670 10.000001 1.000003
v 5.000670 11.000001 1.000003
v 5.000670 10.000001 2.000003
v 5.000670 11.000001 2.000003
v 1.000672 2.500000 3.000002
v 1.000672 2.500000 2.000002
v 0.125672 2.500000 2.000002
v 1.000672 2.500000 1.000002
v 0.125672 1.000000 0.250002
v 1.000672 1.000000 0.250002
v 1.875672 0.125000 0.250002
v 1.125672 0.125000 0.250002
v 1.125672 0.125000 0.187502
v 1.875672 0.125000 0.187502
v 3.000672 1.000000 6.000002
v 2.000672 1.000000 5.750002
v 2.000672 0.000000 5.750002
v 1.875672 0.875000 5.750002
v 1.125672 0.875000 5.750002
v 1.125672 0.875000 5.812502
v 1.875672 0.875000 5.812502
v 1.000672 2.000000 5.750002
v 1.000671 2.500000 5.750002
v 1.000672 2.000000 4.000002
v 1.000672 2.000000 2.000002
v 1.000672 2.000000 1.000002
v 2.000672 0.000000 5.000002
v 1.000672 0.000000 5.000002
v 1.000672 2.500000 4.000002
v 2.000671 2.500000 4.000002
v 3.000672 2.500000 4.000002
v 2.000672 0.000000 1.000002
v 2.000672 0.000000 2.000002
v 1.000672 0.000000 2.000002
v 2.000672 0.000000 3.000002
v 1.000672 0.000000 3.000002
v 2.000672 0.000000 4.000002
v 1.000672 0.000000 4.000002
v 0.125672 -0.000000 3.000002
v 3.000672 0.000000 1.000002
v 3.000672 0.000000 2.000002
v 3.000672 0.000000 3.000002
v 3.000672 0.000000 4.000002
v 3.000672 0.000000 5.000002
v 5.000671 0.000001 6.000002
v 5.000672 0.000001 5.000002
v 6.000672 0.000001 5.000003
v 4.000672 0.000000 6.000002
v 4.000672 0.000000 5.000002
v 4.000672 0.000000 4.000002
v 5.000672 0.000001 4.000002
v 6.000672 0.000001 4.000002
v 5.000672 0.000001 3.000002
v 4.000672 0.000000 3.000002
v 6.000672 0.000001 1.000003
v 5.000672 0.000001 1.000003
v 5.000672 0.000001 0.000002
v 4.000672 0.000000 1.000002
v 4.000672 0.000000 0.000002
v 4.000672 0.000000 2.000002
v 5.000672 0.000001 2.000003
v 6.000672 0.000001 2.000002
v 4.000670 11.875001 2.000002
v 4.000670 11.875001 1.000002
v 4.000670 11.875001 5.000002
v 4.000670 11.875001 4.000002
v 3.938170 11.875001 2.062502
v 3.938170 12.000001 2.062502
v 5.063170 12.000001 2.062503
v 3.938170 11.875001 5.062502
v 3.938170 11.875001 3.937502
v 5.063170 12.000001 5.062502
v 3.938170 12.000001 5.062502
v 5.063170 12.000001 3.937502
v 3.938170 12.000001 3.937502
v 1.125672 0.875000 0.250002
v 1.875672 0.875000 0.250002
v 1.875672 0.125000 5.750002
v 1.125672 0.125000 5.750002
v 1.125672 0.875000 0.187502
v 1.875672 0.875000 0.187502
v 1.125672 0.125000 5.812502
v 1.875672 0.125000 5.812502
vt 0.375000 0.500000
vt 0.000000 0.500000
vt 0.000000 0.875000
vt 0.375000 0.875000
vt 0.343750 0.500000
vt 0.250000 0.500000
vt 0.250000 0.375000
vt 0.343750 0.375000
vt 0.250000 0.875000
vt 0.250000 0.968750
vt 0.140625 0.968750
vt 0.140625 0.875000
vt 0.125000 0.375000
vt 0.125000 0.500000
vt -0.000000 0.500000
vt -0.000000 0.375000
vt 0.125000 0.351562
vt 0.250000 0.351562
vt 0.250000 0.367188
vt 0.125000 0.367188
vt 0.375000 0.375000
vt 0.125000 0.250000
vt 0.250000 0.250000
vt 0.125000 0.359375
vt 0.250000 0.359375
vt 0.250000 1.000000
vt 0.125000 1.000000
vt 0.125000 0.875000
vt 0.234375 0.875000
vt 0.234375 0.937500
vt 0.125000 0.937500
vt 0.250000 0.937500
vt 0.218750 0.875000
vt 0.156250 0.875000
vt 0.156250 0.937500
vt 0.500000 0.875000
vt 0.500000 1.000000
vt -0.000000 0.875000
vt 0.562500 0.937500
vt 0.812500 0.937500
vt 0.875000 1.000000
vt 0.812500 0.687500
vt 0.562500 0.687500
vt 0.500000 0.625000
vt 0.875000 0.625000
vt 0.625000 0.875000
vt 0.750000 0.875000
vt 0.750000 0.750000
vt 0.625000 0.750000
vt 0.375000 0.734375
vt 0.375000 0.718750
vt 0.515625 0.718750
vt 0.515625 0.734375
vt 0.382812 0.710938
vt 0.507812 0.710938
vt 0.507812 0.718750
vt 0.382812 0.718750
vt 0.375000 0.710938
vt 0.515625 0.710938
vt 0.140625 1.000000
vt 0.375000 0.750000
vt 0.000000 0.750000
vt 0.000000 1.000000
vt -0.000000 1.000000
vt 0.250000 0.890625
vt 0.125000 0.890625
vt 0.234375 1.000000
vt 0.390625 0.390625
vt 0.484375 0.390625
vt 0.484375 0.398438
vt 0.390625 0.398438
vt 0.484375 0.476562
vt 0.390625 0.476562
vt 0.390625 0.484375
vt 0.484375 0.484375
vt 0.500000 0.250000
vt 0.500000 0.375000
vt 0.375000 0.250000
vt 0.125000 0.906250
vt 0.250000 0.906250
vt 0.023438 0.500000
vt 0.023438 0.375000
vt 0.117188 0.375000
vt 0.117188 0.500000
vt 0.125000 0.968750
vt 0.140625 0.906250
vt 0.343750 0.250000
vt -0.000000 0.250000
vt 0.023438 0.250000
vt 0.117188 0.250000
vt 0.250000 0.750000
vt 0.125000 0.750000
vt 0.000000 0.625000
vt 0.125000 0.625000
vt 0.250000 0.625000
vt 0.375000 0.625000
vt 0.812500 0.859375
vt 0.562500 0.859375
vt 0.562500 0.851562
vt 0.812500 0.851562
vt 0.750000 0.710938
vt 0.625000 0.710938
vt 0.000000 0.984375
vt 0.125000 0.984375
vt 0.515625 0.875000
vt 0.367188 0.710938
vt 0.500000 0.500000
vt 0.476562 0.484375
vt 0.476562 0.390625
vt 0.398438 0.390625
vt 0.398438 0.484375
vn 0.0000 0.0000 -1.0000
vn -1.0000 -0.0000 -0.0000
vn 0.0000 -1.0000 0.0000
vn 0.0000 0.0000 1.0000
vn -0.0000 1.0000 -0.0000
vn -0.2425 -0.0000 -0.9701
vn -0.2425 -0.0000 0.9701
vn 1.0000 0.0000 0.0000
vn -0.8944 0.4472 0.0000
vn 0.0000 0.4472 -0.8944
vn -0.0000 0.4472 0.8944
vn 0.8944 0.4472 0.0000
usemtl reverberation_furnace
f 1/1/1 2/2/1 3/3/1 4/4/1
f 5/5/2 6/6/2 7/7/2 8/8/2
f 9/9/3 10/10/3 11/11/3 12/12/3
f 13/13/2 14/14/2 15/15/2 16/16/2
f 7/7/2 6/6/2 14/14/2 13/13/2
f 17/17/4 18/18/4 19/19/4 20/20/4
f 7/17/5 13/18/5 21/19/5 22/20/5
f 18/7/2 23/6/2 24/14/2 25/13/2
f 18/7/2 16/21/2 15/1/2 23/6/2
f 26/13/2 22/22/2 21/23/2 27/7/2
f 20/13/2 19/22/2 28/23/2 29/7/2
f 13/24/1 30/25/1 27/7/1 21/13/1
f 11/17/3 17/18/3 20/19/3 29/20/3
f 18/17/5 25/18/5 28/19/5 19/20/5
f 25/17/1 11/18/1 29/19/1 28/20/1
f 30/17/3 31/18/3 26/19/3 27/20/3
f 31/24/4 7/25/4 22/7/4 26/13/4
f 32/9/5 33/26/5 34/27/5 35/28/5
f 36/9/5 37/26/5 38/27/5 39/28/5
f 40/28/1 6/29/1 41/30/1 42/31/1
f 43/28/6 44/9/6 45/32/6 46/31/6
f 47/9/5 48/26/5 49/27/5 50/28/5
f 51/33/5 52/26/5 53/27/5 54/28/5
f 55/9/5 56/26/5 46/27/5 45/34/5
f 45/31/1 44/28/1 57/9/1 58/32/1
f 59/34/2 24/9/2 60/32/2 61/35/2
f 59/29/1 61/30/1 58/31/1 57/28/1
f 15/28/2 14/9/2 62/32/2 63/31/2
f 64/9/7 65/28/7 52/31/7 51/32/7
f 6/9/2 5/34/2 66/35/2 41/32/2
f 67/36/1 68/9/1 69/26/1 70/37/1
f 3/3/2 2/2/2 71/1/2 72/4/2
f 73/1/1 74/2/1 2/3/1 1/4/1
f 1/2/8 4/3/8 75/4/8 76/1/8
f 77/1/8 76/15/8 75/38/8 78/4/8
f 79/36/2 80/9/2 81/26/2 82/37/2
f 83/39/5 84/40/5 4/41/5 3/37/5
f 85/42/5 86/43/5 72/44/5 75/45/5
f 84/40/5 85/42/5 75/45/5 4/41/5
f 86/43/5 83/39/5 3/37/5 72/44/5
f 87/43/5 88/39/5 78/37/5 75/44/5
f 88/39/5 89/40/5 90/41/5 78/37/5
f 91/42/5 87/43/5 75/44/5 72/45/5
f 89/40/5 91/42/5 72/45/5 90/41/5
f 80/36/4 92/9/4 93/26/4 81/37/4
f 68/36/2 94/9/2 95/26/2 69/37/2
f 94/37/4 96/26/4 97/9/4 95/36/4
f 98/36/1 79/9/1 82/26/1 99/37/1
f 92/36/8 98/9/8 99/26/8 93/37/8
f 96/36/8 67/9/8 70/26/8 97/37/8
f 100/46/5 101/47/5 70/40/5 69/39/5
f 102/48/5 103/49/5 95/43/5 97/42/5
f 101/47/5 102/48/5 97/42/5 70/40/5
f 103/49/5 100/46/5 69/39/5 95/43/5
f 104/48/5 105/49/5 93/43/5 99/42/5
f 105/49/5 106/46/5 81/39/5 93/43/5
f 107/47/5 104/48/5 99/42/5 82/40/5
f 106/46/5 107/47/5 82/40/5 81/39/5
f 108/50/1 109/51/1 110/52/1 111/53/1
f 112/54/3 113/55/3 114/52/3 115/51/3
f 116/56/3 117/57/3 111/58/3 118/59/3
f 119/4/4 120/1/4 121/2/4 77/3/4
f 73/2/8 1/3/8 76/4/8 122/1/8
f 76/3/8 77/4/8 121/1/8 122/2/8
f 90/4/4 119/1/4 77/2/4 78/3/4
f 123/26/4 8/60/4 124/12/4 125/9/4
f 126/26/6 127/27/6 74/28/6 128/9/6
f 119/1/2 90/4/2 72/3/2 71/2/2
f 71/3/2 2/4/2 43/61/2 129/62/2
f 71/4/2 129/61/2 65/62/2 119/3/2
f 85/36/8 84/9/8 130/26/8 131/37/8
f 131/36/8 130/9/8 67/26/8 96/37/8
f 88/36/8 87/9/8 132/26/8 133/37/8
f 133/36/8 132/9/8 98/26/8 92/37/8
f 87/36/1 91/9/1 134/26/1 132/37/1
f 132/36/1 134/9/1 79/26/1 98/37/1
f 86/37/4 85/26/4 131/9/4 135/36/4
f 135/37/4 131/26/4 96/9/4 94/36/4
f 83/36/2 86/9/2 135/26/2 136/37/2
f 136/36/2 135/9/2 94/26/2 68/37/2
f 89/36/4 88/9/4 133/26/4 137/37/4
f 137/36/4 133/9/4 92/26/4 80/37/4
f 91/36/2 89/9/2 137/26/2 134/37/2
f 134/36/2 137/9/2 80/26/2 79/37/2
f 84/36/1 83/9/1 136/26/1 130/37/1
f 130/36/1 136/9/1 68/26/1 67/37/1
f 106/28/4 105/3/4 138/63/4 139/27/4
f 139/28/4 138/3/4 140/63/4 141/27/4
f 107/28/2 106/3/2 139/63/2 142/27/2
f 142/28/2 139/3/2 141/63/2 143/27/2
f 105/28/8 104/3/8 144/63/8 138/27/8
f 138/28/8 144/3/8 145/63/8 140/27/8
f 104/27/1 107/63/1 142/3/1 144/28/1
f 144/27/1 142/64/1 143/38/1 145/28/1
f 100/28/2 103/3/2 146/63/2 147/27/2
f 147/28/2 146/3/2 148/63/2 149/27/2
f 101/27/1 100/63/1 147/3/1 150/28/1
f 150/27/1 147/64/1 149/38/1 151/28/1
f 102/28/8 101/3/8 150/63/8 152/27/8
f 152/28/8 150/3/8 151/63/8 153/27/8
f 103/28/4 102/3/4 152/63/4 146/27/4
f 146/28/4 152/3/4 153/63/4 148/27/4
f 63/65/5 154/26/5 155/27/5 156/66/5
f 154/9/5 47/26/5 50/27/5 155/28/5
f 60/66/5 157/27/5 58/26/5 61/65/5
f 157/9/5 55/26/5 45/27/5 58/28/5
f 158/67/1 159/27/1 9/28/1 12/29/1
f 160/68/3 161/69/3 162/70/3 163/71/3
f 164/26/7 165/27/7 166/28/7 120/9/7
f 167/72/5 168/73/5 169/74/5 170/75/5
f 5/29/4 171/28/4 172/31/4 66/30/4
f 171/9/4 64/28/4 51/31/4 172/32/4
f 66/65/5 172/26/5 42/27/5 41/66/5
f 172/9/5 51/26/5 54/27/5 42/28/5
f 37/28/1 36/9/1 54/32/1 53/31/1
f 36/28/1 40/9/1 42/32/1 54/31/1
f 6/65/5 40/26/5 173/27/5 14/66/5
f 40/76/5 36/77/5 39/21/5 173/78/5
f 23/65/5 174/26/5 175/27/5 24/66/5
f 174/76/5 32/77/5 35/21/5 175/78/5
f 176/27/3 166/79/3 125/80/3 177/26/3
f 34/31/4 56/28/4 55/9/4 35/32/4
f 157/31/4 175/28/4 35/9/4 55/32/4
f 24/29/4 175/28/4 157/31/4 60/30/4
f 33/28/1 32/9/1 50/32/1 49/31/1
f 155/32/1 50/31/1 32/28/1 174/9/1
f 23/29/1 156/30/1 155/31/1 174/28/1
f 14/29/4 173/28/4 178/31/4 62/30/4
f 178/32/4 173/9/4 39/28/4 179/31/4
f 38/28/4 180/31/4 179/32/4 39/9/4
f 178/9/5 179/26/5 47/27/5 154/28/5
f 62/65/5 178/26/5 154/27/5 63/66/5
f 23/28/2 15/9/2 63/32/2 156/31/2
f 179/9/5 180/26/5 48/27/5 47/28/5
f 59/81/2 158/82/2 25/83/2 24/84/2
f 128/9/3 181/10/3 10/85/3 9/28/3
f 181/9/3 182/26/3 183/27/3 10/28/3
f 182/9/3 184/26/3 185/27/3 183/28/3
f 184/9/3 186/26/3 187/27/3 185/28/3
f 186/9/3 176/26/3 177/27/3 187/28/3
f 11/28/3 10/29/3 183/67/3 17/27/3
f 17/28/3 183/29/3 185/67/3 188/27/3
f 188/28/3 185/29/3 187/67/3 30/27/3
f 30/28/3 187/29/3 177/67/3 31/27/3
f 31/60/3 177/26/3 125/80/3 124/86/3
f 64/26/4 171/27/4 123/28/4 165/9/4
f 65/26/7 64/27/7 165/28/7 164/9/7
f 57/26/1 44/27/1 126/28/1 159/9/1
f 59/67/1 57/27/1 159/28/1 158/29/1
f 44/26/6 43/27/6 127/28/6 126/9/6
f 171/26/4 5/60/4 8/12/4 123/9/4
f 124/87/2 8/8/2 7/7/2 31/23/2
f 188/88/2 30/22/2 13/13/2 16/16/2
f 17/23/2 188/78/2 16/21/2 18/7/2
f 12/89/2 11/90/2 25/83/2 158/82/2
f 74/28/3 189/27/3 181/26/3 128/80/3
f 181/28/3 189/9/3 190/26/3 182/27/3
f 182/28/3 190/9/3 191/26/3 184/27/3
f 184/28/3 191/9/3 192/26/3 186/27/3
f 186/28/3 192/9/3 193/26/3 176/27/3
f 120/9/3 166/79/3 176/27/3 193/26/3
f 194/9/3 195/91/3 196/61/3 121/4/3
f 194/9/3 197/28/3 198/92/3 195/91/3
f 193/62/3 198/92/3 197/28/3 120/3/3
f 192/93/3 199/94/3 198/92/3 193/62/3
f 199/94/3 200/95/3 195/91/3 198/92/3
f 201/96/3 196/61/3 195/91/3 200/95/3
f 122/1/3 201/96/3 200/95/3 202/6/3
f 203/14/3 202/6/3 200/95/3 199/94/3
f 191/2/3 203/14/3 199/94/3 192/93/3
f 73/1/3 204/96/3 205/95/3 206/6/3
f 206/6/3 205/95/3 207/94/3 208/14/3
f 74/2/3 208/14/3 207/94/3 189/93/3
f 189/93/3 207/94/3 209/92/3 190/62/3
f 207/94/3 205/95/3 210/91/3 209/92/3
f 204/96/3 211/61/3 210/91/3 205/95/3
f 190/62/3 209/92/3 203/28/3 191/3/3
f 209/92/3 210/91/3 202/9/3 203/28/3
f 211/61/3 122/4/3 202/9/3 210/91/3
f 72/41/9 135/97/9 136/98/9 3/37/9
f 3/41/10 136/97/10 130/98/10 4/37/10
f 72/41/11 75/37/11 131/98/11 135/97/11
f 75/37/10 72/41/10 134/97/10 132/98/10
f 72/37/9 90/41/9 137/97/9 134/98/9
f 90/41/11 78/37/11 133/98/11 137/97/11
f 78/41/12 75/37/12 132/98/12 133/97/12
f 75/41/12 4/37/12 130/98/12 131/97/12
f 93/99/12 99/100/12 144/101/12 138/102/12
f 81/100/11 93/99/11 138/102/11 139/101/11
f 82/99/9 81/100/9 139/101/9 142/102/9
f 99/99/10 82/100/10 142/101/10 144/102/10
f 97/100/12 70/99/12 150/102/12 152/101/12
f 95/100/11 97/99/11 152/102/11 146/101/11
f 69/99/9 95/100/9 146/101/9 147/102/9
f 70/99/10 69/100/10 147/101/10 150/102/10
f 149/28/2 148/3/2 212/103/2 213/104/2
f 151/28/1 149/38/1 213/103/1 117/104/1
f 153/3/8 151/28/8 117/104/8 116/103/8
f 148/28/4 153/3/4 116/103/4 212/104/4
f 141/28/4 140/3/4 112/103/4 214/104/4
f 143/28/2 141/3/2 214/103/2 215/104/2
f 140/3/8 145/28/8 113/104/8 112/103/8
f 145/28/1 143/38/1 215/103/1 113/104/1
f 109/52/2 108/53/2 216/50/2 217/51/2
f 109/50/5 217/53/5 218/105/5 110/4/5
f 213/57/3 108/58/3 111/59/3 117/56/3
f 212/55/3 216/52/3 108/51/3 213/54/3
f 218/52/8 118/53/8 111/50/8 110/51/8
f 118/50/4 218/51/4 217/52/4 216/53/4
f 116/55/3 118/52/3 216/51/3 212/54/3
f 214/51/3 219/106/3 220/59/3 215/56/3
f 112/55/3 115/52/3 219/51/3 214/54/3
f 114/106/3 113/51/3 215/56/3 220/59/3
f 219/50/4 115/53/4 221/52/4 222/51/4
f 114/53/8 223/52/8 221/51/8 115/50/8
f 224/53/5 222/50/5 221/4/5 223/105/5
f 220/53/1 224/52/1 223/51/1 114/50/1
f 224/51/2 220/50/2 219/53/2 222/52/2
f 161/68/1 160/69/1 128/77/1 9/21/1
f 225/74/1 161/68/1 9/21/1 159/1/1
f 160/69/1 226/75/1 126/107/1 128/77/1
f 226/75/1 225/74/1 159/1/1 126/107/1
f 227/69/4 228/68/4 125/21/4 166/77/4
f 167/75/4 227/69/4 166/77/4 165/107/4
f 228/68/4 168/74/4 123/1/4 125/21/4
f 168/74/4 167/75/4 165/107/4 123/1/4
f 229/74/1 230/75/1 163/69/1 162/68/1
f 225/73/5 226/72/5 230/75/5 229/74/5
f 161/108/2 225/109/2 229/69/2 162/75/2
f 226/110/8 160/111/8 163/74/8 230/68/8
f 170/75/4 169/74/4 231/68/4 232/69/4
f 227/109/8 167/108/8 170/75/8 232/69/8
f 168/111/2 228/110/2 231/68/2 169/74/2
f 228/71/3 227/70/3 232/69/3 231/68/3
