# Blender 4.2.3 LTS
# www.blender.org
mtllib small_chemical_reactor.mtl
o cube
v 2.367106 1.125000 0.921487
v 2.921487 1.125000 0.632894
v 2.367106 0.500000 0.921487
v 2.921487 0.500000 0.632894
v 2.078513 1.125000 0.367105
v 2.632895 1.125000 0.078513
v 2.078513 0.500000 0.367105
v 2.632895 0.500000 0.078513
v -1.000000 2.000000 -0.000000
v 0.000000 2.000000 -0.000000
v -1.000000 0.500000 -0.000000
v 0.000000 0.500000 -0.000000
v -1.000000 2.000000 -1.000000
v 0.000000 2.000000 -1.000000
v -1.000000 0.500000 -1.000000
v 0.000000 0.500000 -1.000000
v 0.000000 2.000000 -1.000000
v 0.000000 2.000000 -0.000000
v -1.000000 2.000000 -1.000000
v -1.000000 2.000000 -0.000000
v -0.125000 2.000000 -0.875000
v -0.125000 2.000000 -0.125000
v -0.875000 2.000000 -0.125000
v -0.875000 2.000000 -0.875000
v -0.125000 1.937500 -0.125000
v -0.125000 1.937500 -0.875000
v -0.875000 1.937500 -0.125000
v -0.875000 1.937500 -0.875000
v -0.750000 1.937500 -0.750000
v -0.750000 1.937500 -0.250000
v -0.250000 1.937500 -0.250000
v -0.250000 1.937500 -0.750000
v -0.750000 2.000000 -0.750000
v -0.750000 2.000000 -0.250000
v -0.250000 2.000000 -0.250000
v -0.250000 2.000000 -0.750000
v -0.875000 1.937500 -0.125000
v -0.875000 1.937500 -0.875000
v -0.750000 1.937500 -0.750000
v -0.750000 1.937500 -0.250000
v -0.125000 1.937500 -0.125000
v -0.125000 1.937500 -0.875000
v -0.250000 1.937500 -0.750000
v -0.250000 1.937500 -0.250000
v -0.250000 1.937500 -0.250000
v -0.250000 1.937500 -0.750000
v -0.250000 2.000000 -0.250000
v -0.250000 2.000000 -0.750000
v -0.124999 1.000000 1.875000
v -0.125000 1.000000 1.625000
v -0.125000 0.500000 1.875000
v -0.125000 0.500000 1.625000
v -0.250000 1.000000 1.875000
v -0.250000 1.000000 1.625000
v -0.250000 0.500000 1.875000
v -0.250000 0.500000 1.625000
v -0.750000 1.000000 1.875000
v -0.750000 1.000000 1.625000
v -0.750000 0.500000 1.875000
v -0.750000 0.500000 1.625000
v -0.875000 1.000000 1.875000
v -0.875000 1.000000 1.625000
v -0.875000 0.500000 1.875000
v -0.875000 0.500000 1.625000
v 0.000000 2.000000 2.000000
v 0.000000 2.000000 1.500000
v 0.000000 1.000000 2.000000
v 0.000000 1.000000 1.500000
v -1.000000 2.000000 2.000000
v -1.000000 2.000000 1.500000
v -1.000000 1.000000 2.000000
v -1.000000 1.000000 1.500000
v -1.000000 1.000000 1.000000
v 0.000000 1.000000 1.000000
v -1.000000 0.000000 1.000000
v 0.000000 0.000000 1.000000
v -1.000000 1.000000 -0.000000
v 0.000000 1.000000 -0.000000
v -1.000000 0.000000 0.000000
v 0.000000 0.000000 0.000000
v -1.000000 1.000000 -0.000000
v -1.000000 1.000000 1.000000
v -1.000000 0.000000 0.000000
v -1.000000 0.000000 1.000000
v -1.000000 0.875000 0.125000
v -1.000000 0.875000 0.875000
v -1.000000 0.125000 0.875000
v -1.000000 0.125000 0.125000
v -0.937500 0.875000 0.875000
v -0.937500 0.875000 0.125000
v -0.937500 0.125000 0.875000
v -0.937500 0.125000 0.125000
v -0.937500 0.250000 0.250000
v -0.937500 0.250000 0.750000
v -0.937500 0.750000 0.750000
v -0.937500 0.750000 0.250000
v -1.000000 0.250000 0.250000
v -1.000000 0.250000 0.750000
v -1.000000 0.750000 0.750000
v -1.000000 0.750000 0.250000
v -0.937500 0.875000 0.625000
v -0.937500 0.750000 0.625000
v -0.937500 0.750000 0.375000
v -0.937500 0.875000 0.375000
v -0.937500 0.750000 0.375000
v -1.000000 0.875000 0.375000
v -1.000000 0.750000 0.375000
v -1.000000 0.875000 0.625000
v -1.000000 0.750000 0.625000
v -1.000000 0.750000 0.375000
v 3.000000 1.000000 2.000000
v 2.000000 1.000000 2.000000
v 3.000000 0.000000 2.000000
v 2.000000 0.000000 2.000000
v 3.000000 1.000000 1.000000
v 2.000000 1.000000 1.000000
v 3.000000 0.000000 1.000000
v 2.000000 0.000000 1.000000
v 3.000000 1.000000 1.000000
v 3.000000 1.000000 2.000000
v 3.000000 0.000000 1.000000
v 3.000000 0.000000 2.000000
v 3.000000 0.875000 1.125000
v 3.000000 0.875000 1.875000
v 3.000000 0.125000 1.875000
v 3.000000 0.125000 1.125000
v 2.937500 0.875000 1.875000
v 2.937500 0.875000 1.125000
v 2.937500 0.125000 1.875000
v 2.937500 0.125000 1.125000
v 2.937500 0.250000 1.250000
v 2.937500 0.250000 1.750000
v 2.937500 0.750000 1.750000
v 2.937500 0.750000 1.250000
v 3.000000 0.250000 1.250000
v 3.000000 0.250000 1.750000
v 3.000000 0.750000 1.750000
v 3.000000 0.750000 1.250000
v 2.937500 0.875000 1.625000
v 2.937500 0.750000 1.625000
v 2.937500 0.750000 1.375000
v 2.937500 0.875000 1.375000
v 2.937500 0.750000 1.375000
v 3.000000 0.875000 1.375000
v 3.000000 0.750000 1.375000
v 3.000000 0.875000 1.625000
v 3.000000 0.750000 1.625000
v 3.000000 0.750000 1.375000
v 3.000000 1.000000 -0.000000
v 2.000000 1.000000 -0.000000
v 3.000000 0.000000 0.000000
v 2.000000 0.000000 0.000000
v 3.000000 1.000000 -1.000000
v 2.000000 1.000000 -1.000000
v 3.000000 -0.000000 -1.000000
v 2.000000 -0.000000 -1.000000
v 3.000000 1.000000 -1.000000
v 3.000000 1.000000 -0.000000
v 3.000000 -0.000000 -1.000000
v 3.000000 0.000000 0.000000
v 3.000000 0.875000 -0.875000
v 3.000000 0.875000 -0.125000
v 3.000000 0.125000 -0.125000
v 3.000000 0.125000 -0.875000
v 2.937500 0.875000 -0.125000
v 2.937500 0.875000 -0.875000
v 2.937500 0.125000 -0.125000
v 2.937500 0.125000 -0.875000
v 2.937500 0.250000 -0.750000
v 2.937500 0.250000 -0.250000
v 2.937500 0.750000 -0.250000
v 2.937500 0.750000 -0.750000
v 3.000000 0.250000 -0.750000
v 3.000000 0.250000 -0.250000
v 3.000000 0.750000 -0.250000
v 3.000000 0.750000 -0.750000
v 2.937500 0.875000 -0.375000
v 2.937500 0.750000 -0.375000
v 2.937500 0.750000 -0.625000
v 2.937500 0.875000 -0.625000
v 2.937500 0.750000 -0.625000
v 3.000000 0.875000 -0.625000
v 3.000000 0.750000 -0.625000
v 3.000000 0.875000 -0.375000
v 3.000000 0.750000 -0.375000
v 3.000000 0.750000 -0.625000
v 2.000000 1.000000 -1.000000
v 2.000000 1.000000 -0.000000
v 2.000000 -0.000000 -1.000000
v 2.000000 0.000000 0.000000
v 1.000000 1.000000 -1.000000
v 1.000000 1.000000 -0.000000
v 1.000000 -0.000000 -1.000000
v 1.000000 0.000000 0.000000
v 1.000000 1.000000 -1.000000
v 2.000000 1.000000 -1.000000
v 1.000000 -0.000000 -1.000000
v 2.000000 -0.000000 -1.000000
v 1.125000 0.875000 -1.000000
v 1.875000 0.875000 -1.000000
v 1.875000 0.125000 -1.000000
v 1.125000 0.125000 -1.000000
v 1.875000 0.875000 -0.937500
v 1.125000 0.875000 -0.937500
v 1.875000 0.125000 -0.937500
v 1.125000 0.125000 -0.937500
v 1.250000 0.250000 -0.937500
v 1.750000 0.250000 -0.937500
v 1.750000 0.750000 -0.937500
v 1.250000 0.750000 -0.937500
v 1.250000 0.250000 -1.000000
v 1.750000 0.250000 -1.000000
v 1.750000 0.750000 -1.000000
v 1.250000 0.750000 -1.000000
v 1.625000 0.875000 -0.937500
v 1.625000 0.750000 -0.937500
v 1.375000 0.750000 -0.937500
v 1.375000 0.875000 -0.937500
v 1.375000 0.750000 -0.937500
v 1.375000 0.875000 -1.000000
v 1.375000 0.750000 -1.000000
v 1.625000 0.875000 -1.000000
v 1.625000 0.750000 -1.000000
v 1.375000 0.750000 -1.000000
v 2.000000 1.000000 2.000000
v 2.000000 1.000000 1.000000
v 2.000000 0.000000 2.000000
v 2.000000 0.000000 1.000000
v 1.000000 1.000000 2.000000
v 1.000000 1.000000 1.000000
v 1.000000 0.000000 2.000000
v 1.000000 0.000000 1.000000
v 1.000000 1.000000 2.000000
v 2.000000 1.000000 2.000000
v 1.000000 0.000000 2.000000
v 2.000000 0.000000 2.000000
v 1.125000 0.875000 2.000000
v 1.875000 0.875000 2.000000
v 1.875000 0.125000 2.000000
v 1.125000 0.125000 2.000000
v 1.875000 0.875000 1.937500
v 1.125000 0.875000 1.937500
v 1.875000 0.125000 1.937500
v 1.125000 0.125000 1.937500
v 1.250000 0.250000 1.937500
v 1.750000 0.250000 1.937500
v 1.750000 0.750000 1.937500
v 1.250000 0.750000 1.937500
v 1.250000 0.250000 2.000000
v 1.750000 0.250000 2.000000
v 1.750000 0.750000 2.000000
v 1.250000 0.750000 2.000000
v 1.625000 0.875000 1.937500
v 1.625000 0.750000 1.937500
v 1.375000 0.750000 1.937500
v 1.375000 0.875000 1.937500
v 1.375000 0.750000 1.937500
v 1.375000 0.875000 2.000000
v 1.375000 0.750000 2.000000
v 1.625000 0.875000 2.000000
v 1.625000 0.750000 2.000000
v 1.375000 0.750000 2.000000
v 0.125000 2.750000 0.875000
v 0.875000 2.750000 0.875000
v 0.125000 2.625000 0.875000
v 0.875000 2.625000 0.875000
v 0.125000 2.750000 0.125000
v 0.875000 2.750000 0.125000
v 0.125000 2.625000 0.125000
v 0.875000 2.625000 0.125000
v 0.250000 2.437500 0.750000
v 0.750000 2.437500 0.750000
v 0.250000 2.625000 0.750000
v 0.750000 2.625000 0.750000
v 0.250000 2.437500 0.250000
v 0.750000 2.437500 0.250000
v 0.250000 2.625000 0.250000
v 0.750000 2.625000 0.250000
v 0.125000 2.312500 0.875000
v 0.875000 2.312500 0.875000
v 0.125000 2.437500 0.875000
v 0.875000 2.437500 0.875000
v 0.125000 2.312500 0.125000
v 0.875000 2.312500 0.125000
v 0.125000 2.437500 0.125000
v 0.875000 2.437500 0.125000
v 1.125000 0.937500 0.875000
v 1.875000 0.937500 0.875000
v 1.125000 0.812500 0.875000
v 1.875000 0.812500 0.875000
v 1.125000 0.937500 0.125000
v 1.875000 0.937500 0.125000
v 1.125000 0.812500 0.125000
v 1.875000 0.812500 0.125000
v 1.250000 0.625000 0.750000
v 1.750000 0.625000 0.750000
v 1.250000 0.812500 0.750000
v 1.750000 0.812500 0.750000
v 1.250000 0.625000 0.250000
v 1.750000 0.625000 0.250000
v 1.250000 0.812500 0.250000
v 1.750000 0.812500 0.250000
v 1.125000 0.500000 0.875000
v 1.875000 0.500000 0.875000
v 1.125000 0.625000 0.875000
v 1.875000 0.625000 0.875000
v 1.125000 0.500000 0.125000
v 1.875000 0.500000 0.125000
v 1.125000 0.625000 0.125000
v 1.875000 0.625000 0.125000
v 1.125000 2.750000 1.375000
v 1.875000 2.750000 1.375000
v 1.125000 2.625000 1.375000
v 1.875000 2.625000 1.375000
v 1.125000 2.750000 0.625000
v 1.875000 2.750000 0.625000
v 1.125000 2.625000 0.625000
v 1.875000 2.625000 0.625000
v 1.250000 2.437500 1.250000
v 1.750000 2.437500 1.250000
v 1.250000 2.625000 1.250000
v 1.750000 2.625000 1.250000
v 1.250000 2.437500 0.750000
v 1.750000 2.437500 0.750000
v 1.250000 2.625000 0.750000
v 1.750000 2.625000 0.750000
v 1.125000 2.312500 1.375000
v 1.875000 2.312500 1.375000
v 1.125000 2.437500 1.375000
v 1.875000 2.437500 1.375000
v 1.125000 2.312500 0.625000
v 1.875000 2.312500 0.625000
v 1.125000 2.437500 0.625000
v 1.875000 2.437500 0.625000
v 1.125000 2.750000 0.375000
v 1.875000 2.750000 0.375000
v 1.125000 2.625000 0.375000
v 1.875000 2.625000 0.375000
v 1.125000 2.750000 -0.375000
v 1.875000 2.750000 -0.375000
v 1.125000 2.625000 -0.375000
v 1.875000 2.625000 -0.375000
v 1.250000 2.437500 0.250000
v 1.750000 2.437500 0.250000
v 1.250000 2.625000 0.250000
v 1.750000 2.625000 0.250000
v 1.250000 2.437500 -0.250000
v 1.750000 2.437500 -0.250000
v 1.250000 2.625000 -0.250000
v 1.750000 2.625000 -0.250000
v 1.125000 2.312500 0.375000
v 1.875000 2.312500 0.375000
v 1.125000 2.437500 0.375000
v 1.875000 2.437500 0.375000
v 1.125000 2.312500 -0.375000
v 1.875000 2.312500 -0.375000
v 1.125000 2.437500 -0.375000
v 1.875000 2.437500 -0.375000
v 0.125000 0.937500 0.375000
v 0.875000 0.937500 0.375000
v 0.125000 0.812500 0.375000
v 0.875000 0.812500 0.375000
v 0.125000 0.937500 -0.375000
v 0.875000 0.937500 -0.375000
v 0.125000 0.812500 -0.375000
v 0.875000 0.812500 -0.375000
v 0.250000 0.625000 0.250000
v 0.750000 0.625000 0.250000
v 0.250000 0.812500 0.250000
v 0.750000 0.812500 0.250000
v 0.250000 0.625000 -0.250000
v 0.750000 0.625000 -0.250000
v 0.250000 0.812500 -0.250000
v 0.750000 0.812500 -0.250000
v 0.125000 0.500000 0.375000
v 0.875000 0.500000 0.375000
v 0.125000 0.625000 0.375000
v 0.875000 0.625000 0.375000
v 0.125000 0.500000 -0.375000
v 0.875000 0.500000 -0.375000
v 0.125000 0.625000 -0.375000
v 0.875000 0.625000 -0.375000
v 0.125000 0.937500 1.375000
v 0.875000 0.937500 1.375000
v 0.125000 0.812500 1.375000
v 0.875000 0.812500 1.375000
v 0.125000 0.937500 0.625000
v 0.875000 0.937500 0.625000
v 0.125000 0.812500 0.625000
v 0.875000 0.812500 0.625000
v 0.250000 0.625000 1.250000
v 0.750000 0.625000 1.250000
v 0.250000 0.812500 1.250000
v 0.750000 0.812500 1.250000
v 0.250000 0.625000 0.750000
v 0.750000 0.625000 0.750000
v 0.250000 0.812500 0.750000
v 0.750000 0.812500 0.750000
v 0.125000 0.500000 1.375000
v 0.875000 0.500000 1.375000
v 0.125000 0.625000 1.375000
v 0.875000 0.625000 1.375000
v 0.125000 0.500000 0.625000
v 0.875000 0.500000 0.625000
v 0.125000 0.625000 0.625000
v 0.875000 0.625000 0.625000
v 0.062500 2.312500 1.437500
v 1.937500 2.312500 1.437500
v 0.062500 2.312500 -0.437500
v 1.937500 2.312500 -0.437500
v 0.062500 0.937500 1.437500
v 1.937500 0.937500 1.437500
v 0.062500 0.937500 -0.437500
v 1.937500 0.937500 -0.437500
v 0.062501 5.500000 1.437500
v 1.937500 5.500000 1.437500
v 0.062501 5.500000 -0.437500
v 1.937500 5.500000 -0.437500
v 0.062500 2.750000 1.437500
v 1.937500 2.750000 1.437500
v 0.062500 2.750000 -0.437500
v 1.937500 2.750000 -0.437500
v 2.750000 4.750000 1.250000
v 2.250000 4.750000 1.250000
v 2.250000 4.750000 1.750000
v 2.750000 4.750000 1.750000
v 2.750000 4.187500 1.250000
v 2.250000 4.187500 1.250000
v 2.250000 4.187500 1.750000
v 2.750000 4.187500 1.750000
v 1.250000 6.375000 0.250000
v 1.250000 5.875000 0.250000
v 1.250000 5.875000 0.750000
v 1.250000 6.375000 0.750000
v 0.750001 6.375000 0.250000
v 0.750000 5.875000 0.250000
v 0.750000 5.875000 0.750000
v 0.750000 6.375000 0.750000
v 0.750000 5.625000 0.750000
v 0.750000 5.625000 0.250000
v 1.250000 5.625000 0.250000
v 1.250000 5.625000 0.750000
v 1.375000 5.500000 0.125000
v 0.625001 5.500000 0.125000
v 1.375001 5.625000 0.125000
v 0.625001 5.625000 0.125000
v 1.375000 5.500000 0.875000
v 0.625000 5.500000 0.875000
v 1.375000 5.625000 0.875000
v 0.625000 5.625000 0.875000
v 2.750000 3.625000 1.250000
v 2.250000 3.625000 1.250000
v 2.750000 3.625000 1.750000
v 2.250000 3.625000 1.750000
v 2.750000 4.187500 1.250000
v 2.250000 4.187500 1.250000
v 2.250000 4.187500 1.750000
v 2.750000 4.187500 1.750000
v 2.250000 2.625000 1.750000
v 2.750000 2.625000 1.750000
v 2.250000 2.625000 1.250000
v 2.750000 2.625000 1.250000
v 2.750000 2.125000 1.250000
v 2.250000 2.125000 1.250000
v 2.750000 2.125000 1.750000
v 2.250000 2.125000 1.750000
v 2.750000 2.625000 1.250000
v 2.250000 2.625000 1.250000
v 2.250000 2.625000 1.750000
v 2.750000 2.625000 1.750000
v 2.750000 5.875000 1.250000
v 2.250000 5.875000 1.250000
v 2.750000 5.875000 1.750000
v 2.250000 5.875000 1.750000
v 2.750000 4.750000 1.250000
v 2.250000 4.750000 1.250000
v 2.250000 4.750000 1.750000
v 2.750000 4.750000 1.750000
v 2.250000 6.375000 1.250000
v 2.250000 6.375000 1.750000
v 2.750000 6.375000 1.250000
v 2.750000 6.375000 1.750000
v 2.750001 5.875000 1.062500
v 2.250000 5.875000 1.062500
v 2.250000 6.375000 1.062500
v 2.750001 6.375000 1.062500
v 2.250000 6.375000 0.750000
v 2.750001 6.375000 0.750000
v 2.750001 5.875000 0.750000
v 2.250000 5.875000 0.750000
v 2.250000 6.375000 0.250000
v 2.750000 6.375000 0.250000
v 2.750000 5.875000 0.250000
v 2.250000 5.875000 0.250000
v 1.250000 6.375000 0.250000
v 1.250000 5.875000 0.250000
v 1.250000 5.875000 0.750000
v 1.250000 6.375000 0.750000
v 2.250000 6.375000 1.250000
v 2.750000 6.375000 1.250000
v 2.750000 5.875000 1.250000
v 2.250000 5.875000 1.250000
v 2.750000 2.125000 1.250000
v 2.250000 2.125000 1.250000
v 2.750000 2.125000 1.750000
v 2.250000 2.125000 1.750000
v 2.250000 1.125000 1.750000
v 2.750000 1.125000 1.750000
v 2.250000 1.125000 1.250000
v 2.750000 1.125000 1.250000
v -0.250000 2.125000 0.250000
v -0.750000 2.125000 0.250000
v -0.250000 2.125000 0.750000
v -0.750000 2.125000 0.750000
v -0.750000 1.125000 0.750000
v -0.250000 1.125000 0.750000
v -0.750000 1.125000 0.250000
v -0.250000 1.125000 0.250000
v -0.250000 2.937500 0.750000
v -0.250000 2.937500 0.250000
v -0.750000 2.937500 0.750000
v -0.750000 2.937500 0.250000
v -0.250000 3.375000 0.750000
v -0.250000 3.375000 0.250000
v -0.750000 3.375000 0.750000
v -0.750000 3.375000 0.250000
v -0.250000 3.875000 0.750000
v -0.250000 3.875000 0.250000
v -0.750000 3.875000 0.750000
v -0.750000 3.875000 0.250000
v -0.062500 3.875000 0.250000
v -0.062500 3.875000 0.750000
v -0.062500 3.375000 0.750000
v -0.062500 3.375000 0.250000
v 2.875000 1.000000 1.125000
v 2.125000 1.000000 1.125000
v 2.875000 1.125000 1.125000
v 2.125000 1.125000 1.125000
v 2.875000 1.000000 1.875000
v 2.125000 1.000000 1.875000
v 2.875000 1.125000 1.875000
v 2.125000 1.125000 1.875000
v -0.125000 1.000000 0.125000
v -0.875000 1.000000 0.125000
v -0.125000 1.125000 0.125000
v -0.875000 1.125000 0.125000
v -0.125000 1.000000 0.875000
v -0.875000 1.000000 0.875000
v -0.125000 1.125000 0.875000
v -0.875000 1.125000 0.875000
v 0.062500 4.000000 0.125000
v 0.062500 3.250000 0.125000
v -0.062500 4.000000 0.125000
v -0.062500 3.250000 0.125000
v 0.062501 4.000000 0.875000
v 0.062501 3.250000 0.875000
v -0.062500 4.000000 0.875000
v -0.062500 3.250000 0.875000
v 1.937500 1.437500 0.125000
v 1.937500 2.187500 0.125000
v 2.062500 1.437500 0.124999
v 2.062500 2.187500 0.124999
v 1.937500 1.437500 0.875000
v 1.937500 2.187500 0.875000
v 2.062500 1.437500 0.875000
v 2.062500 2.187500 0.875000
v 2.750000 1.562500 -0.250001
v 2.250000 1.562500 -0.250000
v 2.750000 1.562500 -0.750000
v 2.250000 1.562500 -0.750000
v 2.750000 1.062500 -0.250001
v 2.250000 1.062500 -0.250000
v 2.250000 1.062500 -0.750000
v 2.750000 1.062500 -0.750000
v 2.250000 2.062500 -0.250000
v 2.250000 2.062500 -0.750000
v 2.750000 2.062500 -0.250001
v 2.750000 2.062500 -0.750000
v 2.750000 1.562500 -0.062500
v 2.250000 1.562500 -0.062500
v 2.250000 2.062500 -0.062500
v 2.750000 2.062500 -0.062500
v 2.250000 2.062500 0.250000
v 2.750000 2.062500 0.250000
v 2.750000 1.562500 0.250000
v 2.250000 1.562500 0.250000
v 2.250000 2.062500 0.750000
v 2.750000 2.062500 0.750000
v 2.750000 1.562500 0.750000
v 2.250000 1.562500 0.750000
v 2.062500 2.062500 0.750000
v 2.062500 1.562500 0.750000
v 2.062500 1.562500 0.250000
v 2.062500 2.062500 0.250000
v 2.250000 2.062500 -0.250000
v 2.750000 2.062500 -0.250001
v 2.750000 1.562500 -0.250001
v 2.250000 1.562500 -0.250000
v 2.875000 1.000000 -0.875000
v 2.125000 1.000000 -0.875000
v 2.875000 1.125000 -0.875000
v 2.125000 1.125000 -0.875000
v 2.875000 1.000000 -0.125000
v 2.125000 1.000000 -0.125000
v 2.875000 1.125000 -0.125000
v 2.125000 1.125000 -0.125000
v -1.000000 0.500000 2.000000
v 1.000000 0.500000 2.000000
v -1.000000 0.000000 2.000000
v 1.000000 0.000000 2.000000
v -1.000000 0.500000 1.000000
v 1.000000 0.500000 1.000000
v -1.000000 0.000000 1.000000
v 1.000000 0.000000 1.000000
v -1.000000 0.500000 -1.000000
v 1.000000 0.500000 -1.000000
v -1.000000 -0.000000 -1.000000
v 1.000000 -0.000000 -1.000000
v -1.000000 0.500000 -0.000000
v 1.000000 0.500000 -0.000000
v -1.000000 0.000000 0.000000
v 1.000000 0.000000 0.000000
v 0.000000 0.500000 1.000000
v 3.000000 0.500000 1.000000
v 0.000000 0.000000 1.000000
v 3.000000 0.000000 1.000000
v 0.000000 0.500000 -0.000000
v 3.000000 0.500000 -0.000000
v 0.000000 0.000000 0.000000
v 3.000000 0.000000 0.000000
v 0.562500 1.937500 -0.437500
v 1.437500 1.937500 -0.437500
v 0.562500 1.312500 -0.437500
v 1.437500 1.312500 -0.437500
v 0.562500 1.937500 -0.500000
v 1.437500 1.937500 -0.500000
v 0.562500 1.312500 -0.500000
v 1.437500 1.312500 -0.500000
v 1.437500 1.937500 1.437500
v 0.562500 1.937500 1.437500
v 1.437500 1.312500 1.437500
v 0.562500 1.312500 1.437500
v 1.437500 1.937500 1.500000
v 0.562501 1.937500 1.500000
v 1.437500 1.312500 1.500000
v 0.562500 1.312500 1.500000
vn 0.4617 -0.0000 0.8870
vn -0.4617 -0.0000 -0.8870
vn -0.0000 1.0000 -0.0000
vn -0.0000 -1.0000 -0.0000
vn -0.8870 -0.0000 0.4617
vn 0.8870 -0.0000 -0.4617
vn -0.0000 -0.0000 1.0000
vn -0.0000 -0.0000 -1.0000
vn -1.0000 -0.0000 -0.0000
vn 1.0000 -0.0000 -0.0000
vt 0.979167 0.020833
vt 0.979167 0.090278
vt 0.909722 0.090278
vt 0.909722 0.020833
vt 0.618056 0.826389
vt 0.618056 0.993056
vt 0.506944 0.993056
vt 0.506944 0.826389
vt 0.972222 0.826389
vt 0.972222 0.993056
vt 0.861111 0.993056
vt 0.861111 0.826389
vt 0.500000 0.826389
vt 0.500000 0.993056
vt 0.388889 0.993056
vt 0.388889 0.826389
vt 0.736111 0.708333
vt 0.736111 0.819444
vt 0.722222 0.805556
vt 0.722222 0.722222
vt 0.625000 0.819444
vt 0.638889 0.805556
vt 0.625000 0.708333
vt 0.638889 0.722222
vt 0.326389 0.604167
vt 0.326389 0.520833
vt 0.333333 0.520833
vt 0.333333 0.604167
vt 0.333333 0.527778
vt 0.333333 0.611111
vt 0.326389 0.611111
vt 0.326389 0.527778
vt 0.333333 0.444444
vt 0.326389 0.444444
vt 0.333333 0.472222
vt 0.333333 0.555556
vt 0.326389 0.555556
vt 0.326389 0.472222
vt 0.708333 0.736111
vt 0.708333 0.791667
vt 0.652778 0.736111
vt 0.652778 0.791667
vt 0.625000 0.826389
vt 0.680556 0.826389
vt 0.680556 0.881944
vt 0.625000 0.881944
vt 0.625000 0.833333
vt 0.680556 0.833333
vt 0.673611 0.881944
vt 0.673611 0.826389
vt 0.631944 0.826389
vt 0.631944 0.881944
vt 0.680556 0.875000
vt 0.625000 0.875000
vt 0.652778 0.652778
vt 0.652778 0.708333
vt 0.625000 0.652778
vt 0.673611 0.652778
vt 0.673611 0.708333
vt 0.659722 0.708333
vt 0.659722 0.652778
vt 0.326389 0.777778
vt 0.326389 0.666667
vt 0.381944 0.666667
vt 0.381944 0.777778
vt 0.736111 0.881944
vt 0.736111 0.993056
vt 0.625000 0.993056
vt 0.437500 0.666667
vt 0.437500 0.777778
vt 0.222222 0.555556
vt 0.222222 0.666667
vt 0.111111 0.666667
vt 0.111111 0.555556
vt 0.326389 0.590278
vt 0.326389 0.506944
vt 0.333333 0.506944
vt 0.333333 0.590278
vt 0.333333 0.513889
vt 0.333333 0.597222
vt 0.326389 0.597222
vt 0.326389 0.513889
vt 0.333333 0.430556
vt 0.326389 0.430556
vt 0.333333 0.458333
vt 0.333333 0.541667
vt 0.326389 0.541667
vt 0.326389 0.458333
vt 0.506944 0.743056
vt 0.562500 0.743056
vt 0.562500 0.798611
vt 0.506944 0.798611
vt 0.618056 0.659722
vt 0.562500 0.659722
vt 0.562500 0.666667
vt 0.618056 0.666667
vt 0.611111 0.715278
vt 0.611111 0.659722
vt 0.618056 0.715278
vt 0.562500 0.715278
vt 0.618056 0.708333
vt 0.562500 0.708333
vt 0.569444 0.659722
vt 0.569444 0.715278
vt 0.666667 0.791667
vt 0.694444 0.805556
vt 0.694444 0.791667
vt 0.548611 0.798611
vt 0.548611 0.812500
vt 0.520833 0.798611
vt 0.520833 0.812500
vt 0.666667 0.805556
vt 0.583333 0.715278
vt 0.583333 0.729167
vt 0.576389 0.729167
vt 0.576389 0.715278
vt 0.597222 0.729167
vt 0.597222 0.715278
vt 0.604167 0.715278
vt 0.604167 0.729167
vt 0.083333 0.916667
vt 0.083333 0.944444
vt 0.076389 0.944444
vt 0.076389 0.916667
vt 0.972222 0.819444
vt 0.861111 0.819444
vt 0.861111 0.708333
vt 0.972222 0.708333
vt 0.618056 0.798611
vt 0.618056 0.743056
vt 0.604167 0.812500
vt 0.604167 0.798611
vt 0.576389 0.798611
vt 0.576389 0.812500
vt 0.618056 0.715278
vt 0.618056 0.659722
vt 0.562500 0.659722
vt 0.562500 0.715278
vt 0.506944 0.659722
vt 0.506944 0.715278
vt 0.840278 0.770833
vt 0.854167 0.770833
vt 0.854167 0.854167
vt 0.840278 0.854167
vt 0.500000 0.736111
vt 0.500000 0.819444
vt 0.416667 0.819444
vt 0.416667 0.736111
vt 0.798611 0.791667
vt 0.854167 0.791667
vt 0.854167 0.812500
vt 0.798611 0.812500
vt 0.006944 0.993056
vt 0.215278 0.993056
vt 0.215278 0.784722
vt 0.006944 0.784722
vt 0.229167 0.993056
vt 0.381944 0.993056
vt 0.381944 0.784722
vt 0.229167 0.784722
vt 0.312500 0.548611
vt 0.006944 0.548611
vt 0.006944 0.340278
vt 0.312500 0.340278
vt 0.312500 0.770833
vt 0.006944 0.770833
vt 0.006944 0.562500
vt 0.312500 0.562500
vt 0.798611 0.868056
vt 0.798611 0.805556
vt 0.854167 0.805556
vt 0.854167 0.868056
vt 0.798611 0.881944
vt 0.798611 0.937500
vt 0.743056 0.937500
vt 0.743056 0.881944
vt 0.798611 0.854167
vt 0.798611 0.798611
vt 0.854167 0.798611
vt 0.798611 0.819444
vt 0.854167 0.819444
vt 0.854167 0.847222
vt 0.798611 0.847222
vt 0.743056 0.777778
vt 0.798611 0.777778
vt 0.743056 0.805556
vt 0.854167 0.833333
vt 0.798611 0.833333
vt 0.798611 0.770833
vt 0.743056 0.770833
vt 0.854167 0.826389
vt 0.798611 0.826389
vt 0.854167 0.875000
vt 0.798611 0.875000
vt 0.743056 0.895833
vt 0.798611 0.895833
vt 0.743056 0.840278
vt 0.798611 0.840278
vt 0.854167 0.881944
vt 0.743056 0.854167
vt 0.743056 0.875000
vt 0.854167 0.861111
vt 0.798611 0.861111
vt 0.743056 0.861111
vt 0.743056 0.812500
vt 0.854167 0.840278
vt 0.798611 0.784722
vt 0.854167 0.784722
vt 1.000000 0.631944
vt 1.000000 0.687500
vt 0.777778 0.687500
vt 0.777778 0.631944
vt 0.770833 0.652778
vt 0.548611 0.652778
vt 0.548611 0.541667
vt 0.770833 0.541667
vt 0.500000 0.673611
vt 0.500000 0.729167
vt 0.388889 0.729167
vt 0.388889 0.673611
vt 0.548611 0.430556
vt 0.548611 0.319444
vt 0.770833 0.319444
vt 0.770833 0.430556
vt 0.659722 0.541667
vt 0.659722 0.430556
vt 0.847222 0.694444
vt 0.847222 0.763889
vt 0.750000 0.763889
vt 0.750000 0.694444
vt 0.847222 0.756944
vt 0.750000 0.756944
vt 0.847222 0.701389
vt 0.750000 0.701389
vt 0.840278 0.763889
vt 0.840278 0.694444
vt 0.756944 0.694444
vt 0.756944 0.763889
s 0
usemtl material
f 4/1/1 2/2/1 1/3/1 3/4/1
f 7/1/2 5/2/2 6/3/2 8/4/2
f 1/1/3 2/2/3 6/3/3 5/4/3
f 4/1/4 3/2/4 7/3/4 8/4/4
f 3/1/5 1/2/5 5/3/5 7/4/5
f 8/1/6 6/2/6 2/3/6 4/4/6
f 12/5/7 10/6/7 9/7/7 11/8/7
f 15/9/8 13/10/8 14/11/8 16/12/8
f 11/13/9 9/14/9 13/15/9 15/16/9
f 16/5/10 14/6/10 10/7/10 12/8/10
f 20/17/3 18/18/3 22/19/3 23/20/3
f 18/18/3 17/21/3 21/22/3 22/19/3
f 21/22/3 17/21/3 19/23/3 24/24/3
f 19/23/3 20/17/3 23/20/3 24/24/3
f 25/25/8 27/26/8 23/27/8 22/28/8
f 26/29/9 25/30/9 22/31/9 21/32/9
f 28/33/7 26/29/7 21/32/7 24/34/7
f 27/35/10 28/36/10 24/37/10 23/38/10
f 30/39/3 27/20/3 25/19/3 31/40/3
f 26/22/3 28/24/3 29/41/3 32/42/3
f 33/43/3 34/44/3 35/45/3 36/46/3
f 34/44/9 33/43/9 29/47/9 30/48/9
f 35/49/7 34/50/7 30/44/7 31/45/7
f 33/51/8 36/52/8 32/46/8 29/43/8
f 39/41/3 38/24/3 37/20/3 40/39/3
f 41/19/3 42/22/3 43/42/3 44/40/3
f 48/46/10 47/45/10 45/53/10 46/54/10
f 52/55/10 50/56/10 49/23/10 51/57/10
f 55/55/9 53/56/9 54/23/9 56/57/9
f 51/58/7 49/59/7 53/60/7 55/61/7
f 56/58/8 54/59/8 50/60/8 52/61/8
f 60/55/10 58/56/10 57/23/10 59/57/10
f 63/55/9 61/56/9 62/23/9 64/57/9
f 59/58/7 57/59/7 61/60/7 63/61/7
f 64/58/8 62/59/8 58/60/8 60/61/8
f 68/62/10 66/63/10 65/64/10 67/65/10
f 71/62/9 69/63/9 70/64/9 72/65/9
f 65/63/3 66/64/3 70/65/3 69/62/3
f 68/63/4 67/64/4 71/65/4 72/62/4
f 67/17/7 65/18/7 69/21/7 71/23/7
f 72/66/8 70/67/8 66/68/8 68/46/8
f 76/69/7 74/63/7 73/62/7 75/70/7
f 79/71/8 77/72/8 78/73/8 80/74/8
f 73/66/3 74/67/3 78/68/3 77/46/3
f 80/69/10 78/63/10 74/62/10 76/70/10
f 84/17/9 82/18/9 86/19/9 87/20/9
f 82/18/9 81/21/9 85/22/9 86/19/9
f 85/22/9 81/21/9 83/23/9 88/24/9
f 83/23/9 84/17/9 87/20/9 88/24/9
f 89/75/8 91/76/8 87/77/8 86/78/8
f 90/79/4 89/80/4 86/81/4 85/82/4
f 92/83/7 90/79/7 85/82/7 88/84/7
f 91/85/3 92/86/3 88/87/3 87/88/3
f 94/39/9 91/20/9 89/19/9 95/40/9
f 90/22/9 92/24/9 93/41/9 96/42/9
f 93/41/9 92/24/9 91/20/9 94/39/9
f 97/89/9 98/90/9 99/91/9 100/92/9
f 98/93/4 97/94/4 93/95/4 94/96/4
f 99/97/7 98/98/7 94/93/7 95/99/7
f 100/100/3 99/99/3 95/101/3 96/102/3
f 97/103/8 100/104/8 96/100/8 93/94/8
f 90/22/9 96/42/9 103/105/9
f 95/40/9 89/19/9 101/106/9 102/107/9
f 109/108/9 108/109/9 110/110/9
f 106/111/9 107/110/9 108/109/9
f 105/105/9 104/112/9 90/22/9
f 107/113/8 106/114/8 104/115/8 105/116/8
f 108/117/7 109/118/7 102/119/7 101/120/7
f 109/121/4 110/122/4 103/123/4 102/124/4
f 76/66/4 84/67/4 83/68/4 80/46/4
f 111/67/7 112/68/7 114/46/7 113/66/7
f 116/63/8 115/62/8 117/70/8 118/69/8
f 116/68/3 112/67/3 111/66/3 115/46/3
f 112/62/9 116/63/9 118/69/9 114/70/9
f 124/19/10 120/18/10 122/17/10 125/20/10
f 123/22/10 119/21/10 120/18/10 124/19/10
f 121/23/10 119/21/10 123/22/10 126/24/10
f 125/20/10 122/17/10 121/23/10 126/24/10
f 125/77/8 129/76/8 127/75/8 124/78/8
f 124/81/4 127/80/4 128/79/4 123/82/4
f 123/82/7 128/79/7 130/83/7 126/84/7
f 126/87/3 130/86/3 129/85/3 125/88/3
f 127/19/10 129/20/10 132/39/10 133/40/10
f 131/41/10 130/24/10 128/22/10 134/42/10
f 129/20/10 130/24/10 131/41/10 132/39/10
f 137/91/10 136/90/10 135/89/10 138/92/10
f 131/95/4 135/94/4 136/93/4 132/96/4
f 132/93/7 136/98/7 137/97/7 133/99/7
f 133/101/3 137/99/3 138/100/3 134/102/3
f 134/100/8 138/104/8 135/103/8 131/94/8
f 134/42/10 128/22/10 141/105/10
f 139/106/10 127/19/10 133/40/10 140/107/10
f 146/109/10 147/108/10 148/110/10
f 145/110/10 144/111/10 146/109/10
f 142/112/10 143/105/10 128/22/10
f 142/115/8 144/114/8 145/113/8 143/116/8
f 140/119/7 147/118/7 146/117/7 139/120/7
f 141/123/4 148/122/4 147/121/4 140/124/4
f 121/68/4 122/67/4 114/66/4 118/46/4
f 149/67/7 150/68/7 152/46/7 151/66/7
f 154/125/8 153/126/8 155/127/8 156/128/8
f 154/68/3 150/67/3 149/66/3 153/46/3
f 150/62/9 154/63/9 156/69/9 152/70/9
f 162/19/10 158/18/10 160/17/10 163/20/10
f 161/22/10 157/21/10 158/18/10 162/19/10
f 159/23/10 157/21/10 161/22/10 164/24/10
f 163/20/10 160/17/10 159/23/10 164/24/10
f 163/77/8 167/76/8 165/75/8 162/78/8
f 162/81/4 165/80/4 166/79/4 161/82/4
f 161/82/7 166/79/7 168/83/7 164/84/7
f 164/87/3 168/86/3 167/85/3 163/88/3
f 165/19/10 167/20/10 170/39/10 171/40/10
f 169/41/10 168/24/10 166/22/10 172/42/10
f 167/20/10 168/24/10 169/41/10 170/39/10
f 175/129/10 174/130/10 173/90/10 176/91/10
f 169/95/4 173/94/4 174/93/4 170/96/4
f 170/93/7 174/98/7 175/97/7 171/99/7
f 171/101/3 175/99/3 176/100/3 172/102/3
f 172/100/8 176/104/8 173/103/8 169/94/8
f 172/42/10 166/22/10 179/105/10
f 177/106/10 165/19/10 171/40/10 178/107/10
f 184/131/10 185/132/10 186/133/10
f 183/133/10 182/134/10 184/131/10
f 180/112/10 181/105/10 166/22/10
f 180/115/8 182/114/8 183/113/8 181/116/8
f 178/119/7 185/118/7 184/117/7 177/120/7
f 179/123/4 186/122/4 185/121/4 178/124/4
f 159/68/4 160/67/4 152/66/4 156/46/4
f 187/67/10 188/68/10 190/46/10 189/66/10
f 192/67/9 191/68/9 193/46/9 194/66/9
f 192/68/3 188/67/3 187/66/3 191/46/3
f 188/62/7 192/63/7 194/69/7 190/70/7
f 200/19/8 196/18/8 198/17/8 201/20/8
f 199/22/8 195/21/8 196/18/8 200/19/8
f 197/23/8 195/21/8 199/22/8 202/24/8
f 201/20/8 198/17/8 197/23/8 202/24/8
f 201/77/9 205/76/9 203/75/9 200/78/9
f 200/81/4 203/80/4 204/79/4 199/82/4
f 199/82/10 204/79/10 206/83/10 202/84/10
f 202/87/3 206/86/3 205/85/3 201/88/3
f 203/19/8 205/20/8 208/39/8 209/40/8
f 207/41/8 206/24/8 204/22/8 210/42/8
f 205/20/8 206/24/8 207/41/8 208/39/8
f 213/135/8 212/136/8 211/137/8 214/138/8
f 207/95/4 211/94/4 212/93/4 208/96/4
f 208/93/10 212/98/10 213/97/10 209/99/10
f 209/101/3 213/99/3 214/100/3 210/102/3
f 210/100/9 214/104/9 211/103/9 207/94/9
f 210/42/8 204/22/8 217/105/8
f 215/106/8 203/19/8 209/40/8 216/107/8
f 222/109/8 223/108/8 224/110/8
f 221/110/8 220/111/8 222/109/8
f 218/112/8 219/105/8 204/22/8
f 218/115/9 220/114/9 221/113/9 219/116/9
f 216/119/10 223/118/10 222/117/10 215/120/10
f 217/123/4 224/122/4 223/121/4 216/124/4
f 197/68/4 198/67/4 190/66/4 194/46/4
f 228/46/10 226/68/10 225/67/10 227/66/10
f 231/46/9 229/68/9 230/67/9 232/66/9
f 225/66/3 226/67/3 230/68/3 229/46/3
f 232/69/8 230/63/8 226/62/8 228/70/8
f 236/17/7 234/18/7 238/19/7 239/20/7
f 234/18/7 233/21/7 237/22/7 238/19/7
f 237/22/7 233/21/7 235/23/7 240/24/7
f 235/23/7 236/17/7 239/20/7 240/24/7
f 241/75/9 243/76/9 239/77/9 238/78/9
f 242/79/4 241/80/4 238/81/4 237/82/4
f 244/83/10 242/79/10 237/82/10 240/84/10
f 243/85/3 244/86/3 240/87/3 239/88/3
f 246/39/7 243/20/7 241/19/7 247/40/7
f 242/22/7 244/24/7 245/41/7 248/42/7
f 245/41/7 244/24/7 243/20/7 246/39/7
f 249/139/7 250/94/7 251/100/7 252/140/7
f 250/93/4 249/94/4 245/95/4 246/96/4
f 251/97/10 250/98/10 246/93/10 247/99/10
f 252/100/3 251/99/3 247/101/3 248/102/3
f 249/103/9 252/104/9 248/100/9 245/94/9
f 242/22/7 248/42/7 255/105/7
f 247/40/7 241/19/7 253/106/7 254/107/7
f 261/132/7 260/131/7 262/133/7
f 258/134/7 259/133/7 260/131/7
f 257/105/7 256/112/7 242/22/7
f 259/113/9 258/114/9 256/115/9 257/116/9
f 260/117/10 261/118/10 254/119/10 253/120/10
f 261/121/4 262/122/4 255/123/4 254/124/4
f 228/66/4 236/67/4 235/68/4 232/46/4
f 266/141/7 264/142/7 263/143/7 265/144/7
f 269/141/8 267/142/8 268/143/8 270/144/8
f 266/145/4 265/146/4 269/147/4 270/148/4
f 265/141/9 263/142/9 267/143/9 269/144/9
f 270/141/10 268/142/10 264/143/10 266/144/10
f 271/149/7 272/150/7 274/151/7 273/152/7
f 276/149/8 275/150/8 277/151/8 278/152/8
f 275/149/9 271/150/9 273/151/9 277/152/9
f 272/149/10 276/150/10 278/151/10 274/152/10
f 279/143/7 280/142/7 282/141/7 281/144/7
f 284/143/8 283/142/8 285/141/8 286/144/8
f 285/147/3 281/146/3 282/145/3 286/148/3
f 283/143/9 279/142/9 281/141/9 285/144/9
f 280/143/10 284/142/10 286/141/10 282/144/10
f 290/141/7 288/142/7 287/143/7 289/144/7
f 293/141/8 291/142/8 292/143/8 294/144/8
f 290/145/4 289/146/4 293/147/4 294/148/4
f 289/141/9 287/142/9 291/143/9 293/144/9
f 294/141/10 292/142/10 288/143/10 290/144/10
f 295/149/7 296/150/7 298/151/7 297/152/7
f 300/149/8 299/150/8 301/151/8 302/152/8
f 299/149/9 295/150/9 297/151/9 301/152/9
f 296/149/10 300/150/10 302/151/10 298/152/10
f 303/143/7 304/142/7 306/141/7 305/144/7
f 308/143/8 307/142/8 309/141/8 310/144/8
f 309/147/3 305/146/3 306/145/3 310/148/3
f 307/143/9 303/142/9 305/141/9 309/144/9
f 304/143/10 308/142/10 310/141/10 306/144/10
f 314/141/7 312/142/7 311/143/7 313/144/7
f 317/141/8 315/142/8 316/143/8 318/144/8
f 314/145/4 313/146/4 317/147/4 318/148/4
f 313/141/9 311/142/9 315/143/9 317/144/9
f 318/141/10 316/142/10 312/143/10 314/144/10
f 319/149/7 320/150/7 322/151/7 321/152/7
f 324/149/8 323/150/8 325/151/8 326/152/8
f 323/149/9 319/150/9 321/151/9 325/152/9
f 320/149/10 324/150/10 326/151/10 322/152/10
f 327/143/7 328/142/7 330/141/7 329/144/7
f 332/143/8 331/142/8 333/141/8 334/144/8
f 333/147/3 329/146/3 330/145/3 334/148/3
f 331/143/9 327/142/9 329/141/9 333/144/9
f 328/143/10 332/142/10 334/141/10 330/144/10
f 338/141/7 336/142/7 335/143/7 337/144/7
f 341/141/8 339/142/8 340/143/8 342/144/8
f 338/145/4 337/146/4 341/147/4 342/148/4
f 337/141/9 335/142/9 339/143/9 341/144/9
f 342/141/10 340/142/10 336/143/10 338/144/10
f 343/149/7 344/150/7 346/151/7 345/152/7
f 348/149/8 347/150/8 349/151/8 350/152/8
f 347/149/9 343/150/9 345/151/9 349/152/9
f 344/149/10 348/150/10 350/151/10 346/152/10
f 351/143/7 352/142/7 354/141/7 353/144/7
f 356/143/8 355/142/8 357/141/8 358/144/8
f 357/147/3 353/146/3 354/145/3 358/148/3
f 355/143/9 351/142/9 353/141/9 357/144/9
f 352/143/10 356/142/10 358/141/10 354/144/10
f 362/141/7 360/142/7 359/143/7 361/144/7
f 365/141/8 363/142/8 364/143/8 366/144/8
f 362/145/4 361/146/4 365/147/4 366/148/4
f 361/141/9 359/142/9 363/143/9 365/144/9
f 366/141/10 364/142/10 360/143/10 362/144/10
f 367/149/7 368/150/7 370/151/7 369/152/7
f 372/149/8 371/150/8 373/151/8 374/152/8
f 371/149/9 367/150/9 369/151/9 373/152/9
f 368/149/10 372/150/10 374/151/10 370/152/10
f 375/143/7 376/142/7 378/141/7 377/144/7
f 380/143/8 379/142/8 381/141/8 382/144/8
f 381/147/3 377/146/3 378/145/3 382/148/3
f 379/143/9 375/142/9 377/141/9 381/144/9
f 376/143/10 380/142/10 382/141/10 378/144/10
f 386/141/7 384/142/7 383/143/7 385/144/7
f 389/141/8 387/142/8 388/143/8 390/144/8
f 386/145/4 385/146/4 389/147/4 390/148/4
f 385/141/9 383/142/9 387/143/9 389/144/9
f 390/141/10 388/142/10 384/143/10 386/144/10
f 391/149/7 392/150/7 394/151/7 393/152/7
f 396/149/8 395/150/8 397/151/8 398/152/8
f 395/149/9 391/150/9 393/151/9 397/152/9
f 392/149/10 396/150/10 398/151/10 394/152/10
f 399/143/7 400/142/7 402/141/7 401/144/7
f 404/143/8 403/142/8 405/141/8 406/144/8
f 405/147/3 401/146/3 402/145/3 406/148/3
f 403/143/9 399/142/9 401/141/9 405/144/9
f 400/143/10 404/142/10 406/141/10 402/144/10
f 407/153/3 408/154/3 410/155/3 409/156/3
f 412/153/4 411/154/4 413/155/4 414/156/4
f 412/157/7 408/158/7 407/159/7 411/160/7
f 411/157/9 407/158/9 409/159/9 413/160/9
f 413/157/8 409/158/8 410/159/8 414/160/8
f 408/158/10 412/157/10 414/160/10 410/159/10
f 415/154/3 416/153/3 418/156/3 417/155/3
f 420/154/4 419/153/4 421/156/4 422/155/4
f 420/161/7 416/162/7 415/163/7 419/164/7
f 419/165/9 415/166/9 417/167/9 421/168/9
f 421/161/8 417/162/8 418/163/8 422/164/8
f 416/166/10 420/165/10 422/168/10 418/167/10
f 423/169/8 427/170/8 428/171/8 424/172/8
f 424/169/9 428/170/9 429/171/9 425/172/9
f 425/169/7 429/170/7 430/171/7 426/172/7
f 426/169/10 430/170/10 427/171/10 423/172/10
f 435/169/9 436/152/9 437/151/9 438/172/9
f 436/173/8 435/174/8 431/175/8 432/176/8
f 438/174/7 437/173/7 433/176/7 434/175/7
f 435/143/3 438/177/3 434/178/3 431/179/3
f 440/180/9 439/181/9 437/182/9 436/183/9
f 441/149/8 440/150/8 436/181/8 432/180/8
f 442/184/10 441/185/10 432/170/10 433/186/10
f 439/170/7 442/171/7 433/187/7 437/188/7
f 443/143/8 444/142/8 446/141/8 445/144/8
f 448/143/7 447/142/7 449/141/7 450/144/7
f 449/147/3 445/146/3 446/145/3 450/148/3
f 447/143/10 443/142/10 445/141/10 449/144/10
f 444/143/9 448/142/9 450/141/9 446/144/9
f 452/142/8 456/187/8 455/188/8 451/189/8
f 453/142/7 458/187/7 457/188/7 454/189/7
f 451/142/10 455/187/10 458/188/10 453/189/10
f 454/142/9 457/187/9 456/188/9 452/189/9
f 454/176/7 459/190/7 460/189/7 453/173/7
f 452/176/9 461/190/9 459/189/9 454/173/9
f 451/176/8 462/190/8 461/189/8 452/173/8
f 453/176/10 460/190/10 462/189/10 451/173/10
f 464/142/8 468/191/8 467/192/8 463/189/8
f 465/142/7 470/191/7 469/192/7 466/189/7
f 463/142/10 467/191/10 470/192/10 465/189/10
f 466/142/9 469/191/9 468/192/9 464/189/9
f 481/180/3 479/181/3 480/193/3 482/194/3
f 471/195/8 475/190/8 476/189/8 472/196/8
f 472/195/9 476/190/9 477/189/9 474/196/9
f 474/195/7 477/190/7 478/189/7 473/196/7
f 473/195/10 478/190/10 475/189/10 471/196/10
f 480/174/9 479/175/9 472/176/9 474/173/9
f 482/193/7 480/194/7 474/180/7 473/181/7
f 481/175/10 482/174/10 473/173/10 471/176/10
f 491/151/8 492/172/8 493/169/8 494/152/8
f 488/197/3 487/198/3 485/170/3 486/186/3
f 489/197/10 488/198/10 486/170/10 483/186/10
f 490/197/4 489/198/4 483/170/4 484/186/4
f 487/198/9 490/197/9 484/186/9 485/170/9
f 492/174/3 491/173/3 487/176/3 488/175/3
f 493/192/10 492/191/10 488/199/10 489/173/10
f 494/173/4 493/174/4 489/175/4 490/176/4
f 496/190/8 495/189/8 491/173/8 494/176/8
f 497/190/4 496/189/4 494/173/4 490/176/4
f 498/173/7 497/176/7 490/190/7 487/189/7
f 495/173/3 498/176/3 487/190/3 491/189/3
f 485/200/3 499/201/3 500/194/3 486/177/3
f 483/200/4 501/201/4 502/194/4 484/177/4
f 486/194/10 500/177/10 501/200/10 483/201/10
f 484/200/9 502/201/9 499/194/9 485/177/9
f 506/176/7 507/190/7 508/189/7 505/173/7
f 504/176/9 509/190/9 507/189/9 506/173/9
f 503/176/8 510/190/8 509/189/8 504/173/8
f 505/176/10 508/190/10 510/189/10 503/173/10
f 514/176/7 515/190/7 516/189/7 513/173/7
f 512/176/9 517/190/9 515/189/9 514/173/9
f 511/176/8 518/190/8 517/189/8 512/173/8
f 513/176/10 516/190/10 518/189/10 511/173/10
f 529/179/3 527/143/3 528/177/3 530/178/3
f 519/202/7 521/203/7 514/189/7 513/142/7
f 520/202/10 519/203/10 513/189/10 511/142/10
f 522/202/8 520/203/8 511/189/8 512/142/8
f 521/202/9 522/203/9 512/189/9 514/142/9
f 523/203/7 525/204/7 521/205/7 519/152/7
f 524/203/10 523/204/10 519/205/10 520/152/10
f 526/203/8 524/204/8 520/205/8 522/152/8
f 525/203/9 526/204/9 522/205/9 521/152/9
f 527/175/7 529/174/7 525/173/7 523/176/7
f 530/174/8 528/175/8 524/176/8 526/173/8
f 529/206/9 530/198/9 526/207/9 525/208/9
f 532/152/3 531/151/3 528/187/3 527/188/3
f 533/183/7 532/182/7 527/172/7 523/169/7
f 534/171/4 533/170/4 523/207/4 524/208/4
f 531/198/8 534/206/8 524/181/8 528/180/8
f 535/143/8 536/142/8 538/141/8 537/144/8
f 540/143/7 539/142/7 541/141/7 542/144/7
f 540/147/4 536/146/4 535/145/4 539/148/4
f 541/147/3 537/146/3 538/145/3 542/148/3
f 539/143/10 535/142/10 537/141/10 541/144/10
f 536/143/9 540/142/9 542/141/9 538/144/9
f 543/143/8 544/142/8 546/141/8 545/144/8
f 548/143/7 547/142/7 549/141/7 550/144/7
f 548/147/4 544/146/4 543/145/4 547/148/4
f 549/147/3 545/146/3 546/145/3 550/148/3
f 547/143/10 543/142/10 545/141/10 549/144/10
f 544/143/9 548/142/9 550/141/9 546/144/9
f 551/143/8 552/142/8 554/141/8 553/144/8
f 556/143/7 555/142/7 557/141/7 558/144/7
f 556/147/10 552/146/10 551/145/10 555/148/10
f 557/147/9 553/146/9 554/145/9 558/148/9
f 555/143/3 551/142/3 553/141/3 557/144/3
f 552/143/4 556/142/4 558/141/4 554/144/4
f 559/143/8 560/142/8 562/141/8 561/144/8
f 564/143/7 563/142/7 565/141/7 566/144/7
f 564/147/9 560/146/9 559/145/9 563/148/9
f 565/147/10 561/146/10 562/145/10 566/148/10
f 563/143/4 559/142/4 561/141/4 565/144/4
f 560/143/3 564/142/3 566/141/3 562/144/3
f 576/193/3 575/181/3 577/180/3 578/194/3
f 572/189/7 571/142/7 567/191/7 568/192/7
f 573/189/9 572/142/9 568/191/9 570/192/9
f 574/189/8 573/142/8 570/191/8 569/192/8
f 571/189/10 574/142/10 569/191/10 567/192/10
f 568/176/9 575/175/9 576/174/9 570/173/9
f 570/180/8 576/194/8 578/193/8 569/181/8
f 569/173/10 578/174/10 577/175/10 567/176/10
f 589/169/7 588/172/7 587/151/7 590/152/7
f 581/170/3 583/198/3 584/197/3 582/186/3
f 582/170/10 584/198/10 585/197/10 579/186/10
f 579/170/4 585/198/4 586/197/4 580/186/4
f 580/186/9 586/197/9 583/198/9 581/170/9
f 583/176/3 587/173/3 588/174/3 584/175/3
f 584/199/10 588/191/10 589/192/10 585/173/10
f 585/175/4 589/174/4 590/173/4 586/176/4
f 587/170/7 591/207/7 592/208/7 590/171/7
f 590/170/4 592/207/4 593/208/4 586/171/4
f 586/208/8 593/171/8 594/170/8 583/207/8
f 583/208/3 594/171/3 591/170/3 587/207/3
f 596/194/3 595/201/3 581/200/3 582/177/3
f 598/194/4 597/201/4 579/200/4 580/177/4
f 597/200/10 596/177/10 582/194/10 579/201/10
f 595/194/9 598/201/9 580/200/9 581/177/9
f 599/143/8 600/142/8 602/141/8 601/144/8
f 604/143/7 603/142/7 605/141/7 606/144/7
f 604/147/4 600/146/4 599/145/4 603/148/4
f 605/147/3 601/146/3 602/145/3 606/148/3
f 603/143/10 599/142/10 601/141/10 605/144/10
f 600/143/9 604/142/9 606/141/9 602/144/9
f 610/209/7 608/210/7 607/211/7 609/212/7
f 607/213/3 608/214/3 612/215/3 611/216/3
f 610/214/4 609/213/4 613/216/4 614/215/4
f 609/217/9 607/218/9 611/219/9 613/220/9
f 615/211/8 616/210/8 618/209/8 617/212/8
f 620/221/3 616/222/3 615/223/3 619/224/3
f 621/224/4 617/223/4 618/222/4 622/221/4
f 619/219/9 615/218/9 617/217/9 621/220/9
f 623/225/3 624/87/3 628/84/3 627/226/3
f 626/87/4 625/225/4 629/226/4 630/84/4
f 630/217/10 628/218/10 624/219/10 626/220/10
f 637/227/8 635/228/8 636/229/8 638/230/8
f 631/231/3 632/232/3 636/229/3 635/228/3
f 634/230/4 633/227/4 637/233/4 638/234/4
f 633/227/9 631/228/9 635/235/9 637/236/9
f 638/237/10 636/238/10 632/229/10 634/230/10
f 645/227/7 643/228/7 644/229/7 646/230/7
f 639/231/3 640/232/3 644/229/3 643/228/3
f 642/230/4 641/227/4 645/233/4 646/234/4
f 641/227/10 639/228/10 643/235/10 645/236/10
f 646/237/9 644/238/9 640/229/9 642/230/9
