# Blender 4.2.3 LTS
# www.blender.org
mtllib small_chemical_reactor_mirrored.mtl
o cube
v -0.367106 1.125000 0.921487
v -0.921487 1.125000 0.632894
v -0.367105 0.500000 0.921487
v -0.921487 0.500000 0.632894
v -0.078513 1.125000 0.367105
v -0.632895 1.125000 0.078512
v -0.078512 0.500000 0.367105
v -0.632894 0.500000 0.078512
v 3.000000 2.000000 0.000000
v 2.000000 2.000000 0.000000
v 3.000000 0.500000 0.000000
v 2.000000 0.500000 0.000000
v 3.000000 2.000000 -1.000000
v 2.000000 2.000000 -1.000000
v 3.000000 0.500000 -1.000000
v 2.000000 0.500000 -1.000000
v 2.000000 2.000000 -1.000000
v 2.000000 2.000000 0.000000
v 3.000000 2.000000 -1.000000
v 3.000000 2.000000 0.000000
v 2.125000 2.000000 -0.875000
v 2.125000 2.000000 -0.125000
v 2.875000 2.000000 -0.125000
v 2.875000 2.000000 -0.875000
v 2.125000 1.937500 -0.125000
v 2.125000 1.937500 -0.875000
v 2.875000 1.937500 -0.125000
v 2.875000 1.937500 -0.875000
v 2.750000 1.937500 -0.750000
v 2.750000 1.937500 -0.250000
v 2.250000 1.937500 -0.250000
v 2.250000 1.937500 -0.750000
v 2.750000 2.000000 -0.750000
v 2.750000 2.000000 -0.250000
v 2.250000 2.000000 -0.250000
v 2.250000 2.000000 -0.750000
v 2.875000 1.937500 -0.125000
v 2.875000 1.937500 -0.875000
v 2.750000 1.937500 -0.750000
v 2.750000 1.937500 -0.250000
v 2.125000 1.937500 -0.125000
v 2.125000 1.937500 -0.875000
v 2.250000 1.937500 -0.750000
v 2.250000 1.937500 -0.250000
v 2.250000 1.937500 -0.250000
v 2.250000 1.937500 -0.750000
v 2.250000 2.000000 -0.250000
v 2.250000 2.000000 -0.750000
v 2.125000 1.000000 1.875000
v 2.125000 1.000000 1.625000
v 2.125000 0.500000 1.875000
v 2.125000 0.500000 1.625000
v 2.250000 1.000000 1.875000
v 2.250000 1.000000 1.625000
v 2.250000 0.500000 1.875000
v 2.250000 0.500000 1.625000
v 2.750000 1.000000 1.875000
v 2.750000 1.000000 1.625000
v 2.750000 0.500000 1.875000
v 2.750000 0.500000 1.625000
v 2.875000 1.000000 1.875000
v 2.875000 1.000000 1.625000
v 2.875000 0.500000 1.875000
v 2.875000 0.500000 1.625000
v 2.000000 2.000000 2.000000
v 2.000000 2.000000 1.500000
v 2.000000 1.000000 2.000000
v 2.000000 1.000000 1.500000
v 3.000000 2.000000 2.000000
v 3.000000 2.000000 1.500000
v 3.000000 1.000000 2.000000
v 3.000000 1.000000 1.500000
v 3.000000 1.000000 1.000000
v 2.000000 1.000000 1.000000
v 3.000000 0.000000 1.000000
v 2.000000 0.000000 1.000000
v 3.000000 1.000000 0.000000
v 2.000000 1.000000 0.000000
v 3.000001 0.000000 0.000000
v 2.000000 0.000000 0.000000
v 3.000000 1.000000 0.000000
v 3.000000 1.000000 1.000000
v 3.000001 0.000000 0.000000
v 3.000000 0.000000 1.000000
v 3.000000 0.875000 0.125000
v 3.000000 0.875000 0.875000
v 3.000000 0.125000 0.875000
v 3.000000 0.125000 0.125000
v 2.937500 0.875000 0.875000
v 2.937500 0.875000 0.125000
v 2.937500 0.125000 0.875000
v 2.937500 0.125000 0.125000
v 2.937500 0.250000 0.250000
v 2.937500 0.250000 0.750000
v 2.937500 0.750000 0.750000
v 2.937500 0.750000 0.250000
v 3.000000 0.250000 0.250000
v 3.000000 0.250000 0.750000
v 3.000000 0.750000 0.750000
v 3.000000 0.750000 0.250000
v 2.937500 0.875000 0.625000
v 2.937500 0.750000 0.625000
v 2.937500 0.750000 0.375000
v 2.937500 0.875000 0.375000
v 2.937500 0.750000 0.375000
v 3.000000 0.875000 0.375000
v 3.000000 0.750000 0.375000
v 3.000000 0.875000 0.625000
v 3.000000 0.750000 0.625000
v 3.000000 0.750000 0.375000
v -1.000000 1.000000 2.000000
v -0.000000 1.000000 2.000000
v -1.000000 -0.000000 2.000000
v -0.000000 -0.000000 2.000000
v -1.000000 1.000000 1.000000
v 0.000000 1.000000 1.000000
v -1.000000 -0.000000 1.000000
v 0.000000 -0.000000 1.000000
v -1.000000 1.000000 1.000000
v -1.000000 1.000000 2.000000
v -1.000000 -0.000000 1.000000
v -1.000000 -0.000000 2.000000
v -1.000000 0.875000 1.125000
v -1.000000 0.875000 1.875000
v -1.000000 0.125000 1.875000
v -1.000000 0.125000 1.125000
v -0.937500 0.875000 1.875000
v -0.937500 0.875000 1.125000
v -0.937500 0.125000 1.875000
v -0.937500 0.125000 1.125000
v -0.937499 0.250000 1.250000
v -0.937500 0.250000 1.750000
v -0.937500 0.750000 1.750000
v -0.937500 0.750000 1.250000
v -0.999999 0.250000 1.250000
v -1.000000 0.250000 1.750000
v -1.000000 0.750000 1.750000
v -1.000000 0.750000 1.250000
v -0.937500 0.875000 1.625000
v -0.937500 0.750000 1.625000
v -0.937500 0.750000 1.375000
v -0.937500 0.875000 1.375000
v -0.937500 0.750000 1.375000
v -1.000000 0.875000 1.375000
v -1.000000 0.750000 1.375000
v -1.000000 0.875000 1.625000
v -1.000000 0.750000 1.625000
v -1.000000 0.750000 1.375000
v -1.000000 1.000000 -0.000000
v 0.000000 1.000000 -0.000000
v -1.000000 -0.000000 -0.000000
v 0.000001 -0.000000 -0.000000
v -1.000000 1.000000 -1.000000
v 0.000000 1.000000 -1.000000
v -0.999999 -0.000000 -1.000000
v 0.000000 -0.000000 -1.000000
v -1.000000 1.000000 -1.000000
v -1.000000 1.000000 -0.000000
v -0.999999 -0.000000 -1.000000
v -1.000000 -0.000000 -0.000000
v -1.000000 0.875000 -0.875000
v -1.000000 0.875000 -0.125000
v -1.000000 0.125000 -0.125000
v -1.000000 0.125000 -0.875000
v -0.937500 0.875000 -0.125000
v -0.937500 0.875000 -0.875000
v -0.937500 0.125000 -0.125000
v -0.937500 0.125000 -0.875000
v -0.937500 0.250000 -0.750000
v -0.937500 0.250000 -0.250000
v -0.937500 0.750000 -0.250000
v -0.937500 0.750000 -0.750000
v -1.000000 0.250000 -0.750000
v -1.000000 0.250000 -0.250000
v -1.000000 0.750000 -0.250000
v -1.000000 0.750000 -0.750000
v -0.937500 0.875000 -0.375000
v -0.937500 0.750000 -0.375000
v -0.937500 0.750000 -0.625000
v -0.937500 0.875000 -0.625000
v -0.937500 0.750000 -0.625000
v -0.999999 0.875000 -0.625000
v -0.999999 0.750000 -0.625000
v -1.000000 0.875000 -0.375000
v -1.000000 0.750000 -0.375000
v -0.999999 0.750000 -0.625000
v 0.000000 1.000000 -1.000000
v 0.000000 1.000000 -0.000000
v 0.000000 -0.000000 -1.000000
v 0.000001 -0.000000 -0.000000
v 1.000000 1.000000 -1.000000
v 1.000000 1.000000 0.000000
v 1.000000 -0.000000 -1.000000
v 1.000000 -0.000000 0.000000
v 1.000000 1.000000 -1.000000
v 0.000000 1.000000 -1.000000
v 1.000000 -0.000000 -1.000000
v 0.000000 -0.000000 -1.000000
v 0.875000 0.875000 -1.000000
v 0.125000 0.875000 -1.000000
v 0.125000 0.125000 -1.000000
v 0.875000 0.125000 -1.000000
v 0.125000 0.875000 -0.937500
v 0.875000 0.875000 -0.937500
v 0.125000 0.125000 -0.937500
v 0.875000 0.125000 -0.937500
v 0.750000 0.250000 -0.937500
v 0.250000 0.250000 -0.937500
v 0.250000 0.750000 -0.937500
v 0.750000 0.750000 -0.937500
v 0.750000 0.250000 -1.000000
v 0.250000 0.250000 -1.000000
v 0.250000 0.750000 -1.000000
v 0.750000 0.750000 -1.000000
v 0.375000 0.875000 -0.937500
v 0.375000 0.750000 -0.937500
v 0.625000 0.750000 -0.937500
v 0.625000 0.875000 -0.937500
v 0.625000 0.750000 -0.937500
v 0.625000 0.875000 -1.000000
v 0.625000 0.750000 -1.000000
v 0.375000 0.875000 -1.000000
v 0.375000 0.750000 -1.000000
v 0.625000 0.750000 -1.000000
v -0.000000 1.000000 2.000000
v 0.000000 1.000000 1.000000
v -0.000000 -0.000000 2.000000
v 0.000000 -0.000000 1.000000
v 1.000000 1.000000 2.000000
v 1.000000 1.000000 1.000000
v 1.000000 -0.000000 2.000000
v 1.000000 -0.000000 1.000000
v 1.000000 1.000000 2.000000
v -0.000000 1.000000 2.000000
v 1.000000 -0.000000 2.000000
v -0.000000 -0.000000 2.000000
v 0.875000 0.875000 2.000000
v 0.125000 0.875000 2.000000
v 0.125000 0.125000 2.000000
v 0.875000 0.125000 2.000000
v 0.125000 0.875000 1.937500
v 0.875000 0.875000 1.937500
v 0.125000 0.125000 1.937500
v 0.875000 0.125000 1.937500
v 0.750000 0.250000 1.937500
v 0.250000 0.250000 1.937500
v 0.250000 0.750000 1.937500
v 0.750000 0.750000 1.937500
v 0.750000 0.250000 2.000000
v 0.250000 0.250000 2.000000
v 0.250000 0.750000 2.000000
v 0.750000 0.750000 2.000000
v 0.375000 0.875000 1.937500
v 0.375000 0.750000 1.937500
v 0.625000 0.750000 1.937500
v 0.625000 0.875000 1.937500
v 0.625000 0.750000 1.937500
v 0.625000 0.875000 2.000000
v 0.625000 0.750000 2.000000
v 0.375000 0.875000 2.000000
v 0.375000 0.750000 2.000000
v 0.625000 0.750000 2.000000
v 1.875000 2.750000 0.875000
v 1.125000 2.750000 0.875000
v 1.875000 2.625000 0.875000
v 1.125000 2.625000 0.875000
v 1.875000 2.750000 0.125000
v 1.125000 2.750000 0.125000
v 1.875000 2.625000 0.125000
v 1.125000 2.625000 0.125000
v 1.750000 2.437500 0.750000
v 1.250000 2.437500 0.750000
v 1.750000 2.625000 0.750000
v 1.250000 2.625000 0.750000
v 1.750000 2.437500 0.250000
v 1.250000 2.437500 0.250000
v 1.750000 2.625000 0.250000
v 1.250000 2.625000 0.250000
v 1.875000 2.312500 0.875000
v 1.125000 2.312500 0.875000
v 1.875000 2.437500 0.875000
v 1.125000 2.437500 0.875000
v 1.875000 2.312500 0.125000
v 1.125000 2.312500 0.125000
v 1.875000 2.437500 0.125000
v 1.125000 2.437500 0.125000
v 0.875000 0.937500 0.875000
v 0.125000 0.937500 0.875000
v 0.875000 0.812500 0.875000
v 0.125000 0.812500 0.875000
v 0.875000 0.937500 0.125000
v 0.125000 0.937500 0.125000
v 0.875000 0.812500 0.125000
v 0.125000 0.812500 0.125000
v 0.750000 0.625000 0.750000
v 0.250000 0.625000 0.750000
v 0.750000 0.812500 0.750000
v 0.250000 0.812500 0.750000
v 0.750000 0.625000 0.250000
v 0.250001 0.625000 0.250000
v 0.750000 0.812500 0.250000
v 0.250001 0.812500 0.250000
v 0.875000 0.500000 0.875000
v 0.125000 0.500000 0.875000
v 0.875000 0.625000 0.875000
v 0.125000 0.625000 0.875000
v 0.875000 0.500000 0.125000
v 0.125000 0.500000 0.125000
v 0.875000 0.625000 0.125000
v 0.125000 0.625000 0.125000
v 0.875000 2.750000 1.375000
v 0.125000 2.750000 1.375000
v 0.875000 2.625000 1.375000
v 0.125000 2.625000 1.375000
v 0.875000 2.750000 0.625000
v 0.125000 2.750000 0.625000
v 0.875000 2.625000 0.625000
v 0.125000 2.625000 0.625000
v 0.750000 2.437500 1.250000
v 0.250000 2.437500 1.250000
v 0.750000 2.625000 1.250000
v 0.250000 2.625000 1.250000
v 0.750000 2.437500 0.750000
v 0.250000 2.437500 0.750000
v 0.750000 2.625000 0.750000
v 0.250000 2.625000 0.750000
v 0.875000 2.312500 1.375000
v 0.125000 2.312500 1.375000
v 0.875000 2.437500 1.375000
v 0.125000 2.437500 1.375000
v 0.875000 2.312500 0.625000
v 0.125000 2.312500 0.625000
v 0.875000 2.437500 0.625000
v 0.125000 2.437500 0.625000
v 0.875000 2.750000 0.375000
v 0.125000 2.750000 0.375000
v 0.875000 2.625000 0.375000
v 0.125000 2.625000 0.375000
v 0.875000 2.750000 -0.375000
v 0.125000 2.750000 -0.375000
v 0.875000 2.625000 -0.375000
v 0.125000 2.625000 -0.375000
v 0.750000 2.437500 0.250000
v 0.250000 2.437500 0.250000
v 0.750000 2.625000 0.250000
v 0.250000 2.625000 0.250000
v 0.750000 2.437500 -0.250000
v 0.250000 2.437500 -0.250000
v 0.750000 2.625000 -0.250000
v 0.250000 2.625000 -0.250000
v 0.875000 2.312500 0.375000
v 0.125000 2.312500 0.375000
v 0.875000 2.437500 0.375000
v 0.125000 2.437500 0.375000
v 0.875000 2.312500 -0.375000
v 0.125000 2.312500 -0.375000
v 0.875000 2.437500 -0.375000
v 0.125000 2.437500 -0.375000
v 1.875000 0.937500 0.375000
v 1.125000 0.937500 0.375000
v 1.875000 0.812500 0.375000
v 1.125000 0.812500 0.375000
v 1.875000 0.937500 -0.375000
v 1.125000 0.937500 -0.375000
v 1.875000 0.812500 -0.375000
v 1.125000 0.812500 -0.375000
v 1.750000 0.625000 0.250000
v 1.250000 0.625000 0.250000
v 1.750000 0.812500 0.250000
v 1.250000 0.812500 0.250000
v 1.750000 0.625000 -0.250000
v 1.250000 0.625000 -0.250000
v 1.750000 0.812500 -0.250000
v 1.250000 0.812500 -0.250000
v 1.875000 0.500000 0.375000
v 1.125000 0.500000 0.375000
v 1.875000 0.625000 0.375000
v 1.125000 0.625000 0.375000
v 1.875000 0.500000 -0.375000
v 1.125000 0.500000 -0.375000
v 1.875000 0.625000 -0.375000
v 1.125000 0.625000 -0.375000
v 1.875000 0.937500 1.375000
v 1.125000 0.937500 1.375000
v 1.875000 0.812500 1.375000
v 1.125000 0.812500 1.375000
v 1.875000 0.937500 0.625000
v 1.125000 0.937500 0.625000
v 1.875001 0.812500 0.625000
v 1.125000 0.812500 0.625000
v 1.750000 0.625000 1.250000
v 1.250000 0.625000 1.250000
v 1.750000 0.812500 1.250000
v 1.250000 0.812500 1.250000
v 1.750000 0.625000 0.750000
v 1.250000 0.625000 0.750000
v 1.750000 0.812500 0.750000
v 1.250000 0.812500 0.750000
v 1.875000 0.500000 1.375000
v 1.125000 0.500000 1.375000
v 1.875000 0.625000 1.375000
v 1.125000 0.625000 1.375000
v 1.875000 0.500000 0.625000
v 1.125000 0.500000 0.625000
v 1.875000 0.625000 0.625000
v 1.125000 0.625000 0.625000
v 1.937500 2.312500 1.437500
v 0.062500 2.312500 1.437500
v 1.937500 2.312500 -0.437500
v 0.062500 2.312500 -0.437500
v 1.937500 0.937500 1.437500
v 0.062500 0.937500 1.437500
v 1.937500 0.937500 -0.437500
v 0.062500 0.937500 -0.437500
v 1.937500 5.500000 1.437500
v 0.062500 5.500000 1.437500
v 1.937500 5.500000 -0.437500
v 0.062500 5.500000 -0.437500
v 1.937500 2.750000 1.437500
v 0.062500 2.750000 1.437500
v 1.937500 2.750000 -0.437500
v 0.062500 2.750000 -0.437500
v -0.750000 4.750000 1.250000
v -0.250000 4.750000 1.250000
v -0.250000 4.750000 1.750000
v -0.750000 4.750000 1.750000
v -0.750000 4.187500 1.250000
v -0.250000 4.187500 1.250000
v -0.250000 4.187500 1.750000
v -0.750000 4.187500 1.750000
v 0.750000 6.375000 0.250000
v 0.750000 5.875000 0.250000
v 0.750000 5.875000 0.750000
v 0.750000 6.375000 0.750000
v 1.250000 6.375000 0.250000
v 1.250000 5.875000 0.250000
v 1.250000 5.875000 0.750000
v 1.250000 6.375000 0.750000
v 1.250000 5.625000 0.750000
v 1.250000 5.625000 0.250000
v 0.750000 5.625000 0.250000
v 0.750000 5.625000 0.750000
v 0.625000 5.500000 0.125000
v 1.375000 5.500000 0.125000
v 0.625000 5.625000 0.125000
v 1.375000 5.625000 0.125000
v 0.625000 5.500000 0.875000
v 1.375000 5.500000 0.875000
v 0.625000 5.625000 0.875000
v 1.375000 5.625000 0.875000
v -0.750000 3.625000 1.250000
v -0.250000 3.625000 1.250000
v -0.750000 3.625000 1.750000
v -0.250000 3.625000 1.750000
v -0.750000 4.187500 1.250000
v -0.250000 4.187500 1.250000
v -0.250000 4.187500 1.750000
v -0.750000 4.187500 1.750000
v -0.250000 2.625000 1.750000
v -0.750000 2.625000 1.750000
v -0.250000 2.625000 1.250000
v -0.750000 2.625000 1.250000
v -0.750000 2.125000 1.250000
v -0.250000 2.125000 1.250000
v -0.750000 2.125000 1.750000
v -0.250000 2.125000 1.750000
v -0.750000 2.625000 1.250000
v -0.250000 2.625000 1.250000
v -0.250000 2.625000 1.750000
v -0.750000 2.625000 1.750000
v -0.750000 5.875000 1.250000
v -0.250000 5.875000 1.250000
v -0.750000 5.875000 1.750000
v -0.250000 5.875000 1.750000
v -0.750000 4.750000 1.250000
v -0.250000 4.750000 1.250000
v -0.250000 4.750000 1.750000
v -0.750000 4.750000 1.750000
v -0.250000 6.375000 1.250000
v -0.250000 6.375000 1.750000
v -0.750000 6.375000 1.250000
v -0.750000 6.375000 1.750000
v -0.750001 5.875000 1.062500
v -0.250000 5.875000 1.062500
v -0.250000 6.375000 1.062500
v -0.750000 6.375000 1.062500
v -0.250000 6.375000 0.750000
v -0.750001 6.375000 0.750000
v -0.750001 5.875000 0.750000
v -0.250000 5.875000 0.750000
v -0.250000 6.375000 0.250000
v -0.750000 6.375000 0.250000
v -0.750000 5.875000 0.250000
v -0.250000 5.875000 0.250000
v 0.750000 6.375000 0.250000
v 0.750000 5.875000 0.250000
v 0.750000 5.875000 0.750000
v 0.750000 6.375000 0.750000
v -0.250000 6.375000 1.250000
v -0.750000 6.375000 1.250000
v -0.750000 5.875000 1.250000
v -0.250000 5.875000 1.250000
v -0.750000 2.125000 1.250000
v -0.250000 2.125000 1.250000
v -0.750000 2.125000 1.750000
v -0.250000 2.125000 1.750000
v -0.250000 1.125000 1.750000
v -0.750000 1.125000 1.750000
v -0.250000 1.125000 1.250000
v -0.750000 1.125000 1.250000
v 2.250000 2.125000 0.250000
v 2.750000 2.125000 0.250000
v 2.250000 2.125000 0.750000
v 2.750000 2.125000 0.750000
v 2.750000 1.125000 0.750000
v 2.250000 1.125000 0.750000
v 2.750000 1.125000 0.250000
v 2.250000 1.125000 0.250000
v 2.250000 2.937500 0.750000
v 2.250000 2.937500 0.250000
v 2.750000 2.937500 0.750000
v 2.750000 2.937500 0.250000
v 2.250000 3.375000 0.750000
v 2.250000 3.375000 0.250000
v 2.750000 3.375000 0.750000
v 2.750000 3.375000 0.250000
v 2.250000 3.875000 0.750000
v 2.250000 3.875000 0.250000
v 2.750000 3.875000 0.750000
v 2.750000 3.875000 0.250000
v 2.062500 3.875000 0.250000
v 2.062500 3.875000 0.750000
v 2.062500 3.375000 0.750000
v 2.062500 3.375000 0.250000
v -0.875000 1.000000 1.125000
v -0.125000 1.000000 1.125000
v -0.875000 1.125000 1.125000
v -0.125000 1.125000 1.125000
v -0.875000 1.000000 1.875000
v -0.125000 1.000000 1.875000
v -0.875000 1.125000 1.875000
v -0.125000 1.125000 1.875000
v 2.125000 1.000000 0.125000
v 2.875000 1.000000 0.125000
v 2.125000 1.125000 0.125000
v 2.875000 1.125000 0.125000
v 2.125000 1.000000 0.875000
v 2.875000 1.000000 0.875000
v 2.125000 1.125000 0.875000
v 2.875000 1.125000 0.875000
v 1.937500 4.000000 0.125000
v 1.937500 3.250000 0.125000
v 2.062500 4.000000 0.125000
v 2.062500 3.250000 0.125000
v 1.937500 4.000000 0.875000
v 1.937500 3.250000 0.875000
v 2.062500 4.000000 0.875000
v 2.062500 3.250000 0.875000
v 0.062500 1.437500 0.125000
v 0.062500 2.187500 0.125000
v -0.062500 1.437500 0.124999
v -0.062500 2.187500 0.124999
v 0.062500 1.437500 0.875000
v 0.062500 2.187500 0.875000
v -0.062500 1.437500 0.875000
v -0.062500 2.187500 0.875000
v -0.750000 1.562500 -0.250001
v -0.250000 1.562500 -0.250000
v -0.750000 1.562500 -0.750000
v -0.250000 1.562500 -0.750000
v -0.750000 1.062500 -0.250001
v -0.250000 1.062500 -0.250000
v -0.250000 1.062500 -0.750000
v -0.750000 1.062500 -0.750000
v -0.250000 2.062500 -0.250000
v -0.250000 2.062500 -0.750000
v -0.750000 2.062500 -0.250001
v -0.750000 2.062500 -0.750000
v -0.750000 1.562500 -0.062500
v -0.250000 1.562500 -0.062500
v -0.250000 2.062500 -0.062500
v -0.750000 2.062500 -0.062500
v -0.250000 2.062500 0.250000
v -0.750000 2.062500 0.250000
v -0.750000 1.562500 0.250000
v -0.250000 1.562500 0.250000
v -0.250000 2.062500 0.750000
v -0.750000 2.062500 0.750000
v -0.750000 1.562500 0.750000
v -0.250000 1.562500 0.750000
v -0.062500 2.062500 0.750000
v -0.062500 1.562500 0.750000
v -0.062500 1.562500 0.250000
v -0.062500 2.062500 0.250000
v -0.250000 2.062500 -0.250000
v -0.750000 2.062500 -0.250001
v -0.750000 1.562500 -0.250001
v -0.250000 1.562500 -0.250000
v -0.875000 1.000000 -0.875000
v -0.124999 1.000000 -0.875000
v -0.875000 1.125000 -0.875000
v -0.124999 1.125000 -0.875000
v -0.875000 1.000000 -0.125000
v -0.125000 1.000000 -0.125000
v -0.875000 1.125000 -0.125000
v -0.125000 1.125000 -0.125000
v 3.000000 0.500000 2.000000
v 1.000000 0.500000 2.000000
v 3.000000 0.000000 2.000000
v 1.000000 -0.000000 2.000000
v 3.000000 0.500000 1.000000
v 1.000000 0.500000 1.000000
v 3.000000 0.000000 1.000000
v 1.000000 -0.000000 1.000000
v 3.000000 0.500000 -1.000000
v 1.000000 0.500000 -1.000000
v 3.000000 0.000000 -1.000000
v 1.000000 -0.000000 -1.000000
v 3.000000 0.500000 0.000000
v 1.000000 0.500000 0.000000
v 3.000001 0.000000 0.000000
v 1.000000 -0.000000 0.000000
v 2.000000 0.500000 1.000000
v -1.000000 0.500000 1.000000
v 2.000000 0.000000 1.000000
v -1.000000 -0.000000 1.000000
v 2.000000 0.500000 0.000000
v -1.000000 0.500000 -0.000000
v 2.000000 0.000000 0.000000
v -1.000000 -0.000000 -0.000000
v 1.437500 1.937500 -0.437500
v 0.562500 1.937500 -0.437500
v 1.437500 1.312500 -0.437500
v 0.562500 1.312500 -0.437500
v 1.437500 1.937500 -0.500000
v 0.562500 1.937500 -0.500000
v 1.437500 1.312500 -0.500000
v 0.562500 1.312500 -0.500000
v 0.562500 1.937500 1.437500
v 1.437500 1.937500 1.437500
v 0.562500 1.312500 1.437500
v 1.437500 1.312500 1.437500
v 0.562500 1.937500 1.500000
v 1.437500 1.937500 1.500000
v 0.562500 1.312500 1.500000
v 1.437500 1.312500 1.500000
vn -0.4617 -0.0000 0.8870
vn 0.4617 -0.0000 -0.8870
vn -0.0000 1.0000 -0.0000
vn -0.0000 -1.0000 -0.0000
vn 0.8870 -0.0000 0.4617
vn -0.8870 -0.0000 -0.4617
vn -0.0000 -0.0000 1.0000
vn -0.0000 -0.0000 -1.0000
vn 1.0000 -0.0000 -0.0000
vn -1.0000 -0.0000 -0.0000
vt 0.979167 0.020833
vt 0.909722 0.020833
vt 0.909722 0.090278
vt 0.979167 0.090278
vt 0.618056 0.826389
vt 0.506944 0.826389
vt 0.506944 0.993056
vt 0.618056 0.993056
vt 0.972222 0.826389
vt 0.861111 0.826389
vt 0.861111 0.993056
vt 0.972222 0.993056
vt 0.500000 0.826389
vt 0.388889 0.826389
vt 0.388889 0.993056
vt 0.500000 0.993056
vt 0.736111 0.708333
vt 0.722222 0.722222
vt 0.722222 0.805556
vt 0.736111 0.819444
vt 0.638889 0.805556
vt 0.625000 0.819444
vt 0.638889 0.722222
vt 0.625000 0.708333
vt 0.326389 0.604167
vt 0.333333 0.604167
vt 0.333333 0.520833
vt 0.326389 0.520833
vt 0.333333 0.527778
vt 0.326389 0.527778
vt 0.326389 0.611111
vt 0.333333 0.611111
vt 0.333333 0.444444
vt 0.326389 0.444444
vt 0.333333 0.472222
vt 0.326389 0.472222
vt 0.326389 0.555556
vt 0.333333 0.555556
vt 0.708333 0.736111
vt 0.708333 0.791667
vt 0.652778 0.791667
vt 0.652778 0.736111
vt 0.625000 0.826389
vt 0.625000 0.881944
vt 0.680556 0.881944
vt 0.680556 0.826389
vt 0.680556 0.833333
vt 0.625000 0.833333
vt 0.673611 0.881944
vt 0.673611 0.826389
vt 0.631944 0.826389
vt 0.631944 0.881944
vt 0.680556 0.875000
vt 0.625000 0.875000
vt 0.652778 0.652778
vt 0.625000 0.652778
vt 0.652778 0.708333
vt 0.673611 0.652778
vt 0.659722 0.652778
vt 0.659722 0.708333
vt 0.673611 0.708333
vt 0.326389 0.777778
vt 0.381944 0.777778
vt 0.381944 0.666667
vt 0.326389 0.666667
vt 0.736111 0.881944
vt 0.625000 0.993056
vt 0.736111 0.993056
vt 0.437500 0.666667
vt 0.437500 0.777778
vt 0.222222 0.555556
vt 0.111111 0.555556
vt 0.111111 0.666667
vt 0.222222 0.666667
vt 0.326389 0.590278
vt 0.333333 0.590278
vt 0.333333 0.506944
vt 0.326389 0.506944
vt 0.333333 0.513889
vt 0.326389 0.513889
vt 0.326389 0.597222
vt 0.333333 0.597222
vt 0.333333 0.430556
vt 0.326389 0.430556
vt 0.333333 0.458333
vt 0.326389 0.458333
vt 0.326389 0.541667
vt 0.333333 0.541667
vt 0.562500 0.659722
vt 0.562500 0.715278
vt 0.618056 0.715278
vt 0.618056 0.659722
vt 0.618056 0.666667
vt 0.562500 0.666667
vt 0.611111 0.715278
vt 0.611111 0.659722
vt 0.562500 0.708333
vt 0.618056 0.708333
vt 0.569444 0.659722
vt 0.569444 0.715278
vt 0.666667 0.791667
vt 0.694444 0.791667
vt 0.694444 0.805556
vt 0.604167 0.715278
vt 0.576389 0.715278
vt 0.604167 0.729167
vt 0.576389 0.729167
vt 0.666667 0.805556
vt 0.583333 0.715278
vt 0.583333 0.729167
vt 0.597222 0.729167
vt 0.597222 0.715278
vt 0.083333 0.916667
vt 0.076389 0.916667
vt 0.076389 0.944444
vt 0.083333 0.944444
vt 0.618056 0.798611
vt 0.562500 0.798611
vt 0.562500 0.743056
vt 0.618056 0.743056
vt 0.548611 0.729167
vt 0.520833 0.715278
vt 0.548611 0.715278
vt 0.520833 0.729167
vt 0.972222 0.819444
vt 0.972222 0.708333
vt 0.861111 0.708333
vt 0.861111 0.819444
vt 0.506944 0.715278
vt 0.506944 0.659722
vt 0.604167 0.812500
vt 0.576389 0.798611
vt 0.604167 0.798611
vt 0.576389 0.812500
vt 0.840278 0.770833
vt 0.840278 0.854167
vt 0.854167 0.854167
vt 0.854167 0.770833
vt 0.500000 0.736111
vt 0.416667 0.736111
vt 0.416667 0.819444
vt 0.500000 0.819444
vt 0.798611 0.791667
vt 0.798611 0.812500
vt 0.854167 0.812500
vt 0.854167 0.791667
vt 0.006944 0.993056
vt 0.006944 0.784722
vt 0.215278 0.784722
vt 0.215278 0.993056
vt 0.229167 0.993056
vt 0.229167 0.784722
vt 0.381944 0.784722
vt 0.381944 0.993056
vt 0.312500 0.548611
vt 0.312500 0.340278
vt 0.006944 0.340278
vt 0.006944 0.548611
vt 0.312500 0.770833
vt 0.312500 0.562500
vt 0.006944 0.562500
vt 0.006944 0.770833
vt 0.798611 0.868056
vt 0.854167 0.868056
vt 0.854167 0.805556
vt 0.798611 0.805556
vt 0.798611 0.881944
vt 0.743056 0.881944
vt 0.743056 0.937500
vt 0.798611 0.937500
vt 0.854167 0.798611
vt 0.798611 0.798611
vt 0.798611 0.854167
vt 0.798611 0.819444
vt 0.798611 0.847222
vt 0.854167 0.847222
vt 0.854167 0.819444
vt 0.743056 0.777778
vt 0.743056 0.805556
vt 0.798611 0.777778
vt 0.798611 0.833333
vt 0.854167 0.833333
vt 0.798611 0.770833
vt 0.743056 0.770833
vt 0.798611 0.826389
vt 0.854167 0.826389
vt 0.798611 0.875000
vt 0.854167 0.875000
vt 0.743056 0.895833
vt 0.798611 0.895833
vt 0.743056 0.840278
vt 0.798611 0.840278
vt 0.854167 0.881944
vt 0.743056 0.854167
vt 0.743056 0.875000
vt 0.854167 0.861111
vt 0.798611 0.861111
vt 0.743056 0.812500
vt 0.743056 0.861111
vt 0.854167 0.840278
vt 0.854167 0.784722
vt 0.798611 0.784722
vt 1.000000 0.631944
vt 0.777778 0.631944
vt 0.777778 0.687500
vt 1.000000 0.687500
vt 0.770833 0.652778
vt 0.770833 0.541667
vt 0.548611 0.541667
vt 0.548611 0.652778
vt 0.500000 0.673611
vt 0.388889 0.673611
vt 0.388889 0.729167
vt 0.500000 0.729167
vt 0.548611 0.430556
vt 0.770833 0.430556
vt 0.770833 0.319444
vt 0.548611 0.319444
vt 0.659722 0.541667
vt 0.659722 0.430556
vt 0.847222 0.694444
vt 0.750000 0.694444
vt 0.750000 0.763889
vt 0.847222 0.763889
vt 0.847222 0.756944
vt 0.750000 0.756944
vt 0.750000 0.701389
vt 0.847222 0.701389
vt 0.840278 0.694444
vt 0.840278 0.763889
vt 0.756944 0.694444
vt 0.756944 0.763889
s 0
usemtl material
f 4/1/1 3/2/1 1/3/1 2/4/1
f 7/1/2 8/2/2 6/3/2 5/4/2
f 1/1/3 5/2/3 6/3/3 2/4/3
f 4/1/4 8/2/4 7/3/4 3/4/4
f 3/1/5 7/2/5 5/3/5 1/4/5
f 8/1/6 4/2/6 2/3/6 6/4/6
f 12/5/7 11/6/7 9/7/7 10/8/7
f 15/9/8 16/10/8 14/11/8 13/12/8
f 11/13/9 15/14/9 13/15/9 9/16/9
f 16/5/10 12/6/10 10/7/10 14/8/10
f 20/17/3 23/18/3 22/19/3 18/20/3
f 18/20/3 22/19/3 21/21/3 17/22/3
f 21/21/3 24/23/3 19/24/3 17/22/3
f 19/24/3 24/23/3 23/18/3 20/17/3
f 25/25/8 22/26/8 23/27/8 27/28/8
f 26/29/9 21/30/9 22/31/9 25/32/9
f 28/33/7 24/34/7 21/30/7 26/29/7
f 27/35/10 23/36/10 24/37/10 28/38/10
f 30/39/3 31/40/3 25/19/3 27/18/3
f 26/21/3 32/41/3 29/42/3 28/23/3
f 33/43/3 36/44/3 35/45/3 34/46/3
f 34/46/9 30/47/9 29/48/9 33/43/9
f 35/49/7 31/45/7 30/46/7 34/50/7
f 33/51/8 29/43/8 32/44/8 36/52/8
f 39/42/4 38/23/4 37/18/4 40/39/4
f 41/19/4 42/21/4 43/41/4 44/40/4
f 48/44/9 47/45/9 45/53/9 46/54/9
f 52/55/10 51/56/10 49/24/10 50/57/10
f 55/55/9 56/56/9 54/24/9 53/57/9
f 51/58/7 55/59/7 53/60/7 49/61/7
f 56/58/8 52/59/8 50/60/8 54/61/8
f 60/55/10 59/56/10 57/24/10 58/57/10
f 63/55/9 64/56/9 62/24/9 61/57/9
f 59/58/7 63/59/7 61/60/7 57/61/7
f 64/58/8 60/59/8 58/60/8 62/61/8
f 68/62/10 67/63/10 65/64/10 66/65/10
f 71/62/9 72/63/9 70/64/9 69/65/9
f 65/65/3 69/62/3 70/63/3 66/64/3
f 68/65/4 72/62/4 71/63/4 67/64/4
f 67/17/7 71/24/7 69/22/7 65/20/7
f 72/66/8 68/44/8 66/67/8 70/68/8
f 76/69/7 75/70/7 73/62/7 74/65/7
f 79/71/8 80/72/8 78/73/8 77/74/8
f 73/66/3 77/44/3 78/67/3 74/68/3
f 80/69/10 76/70/10 74/62/10 78/65/10
f 84/17/9 87/18/9 86/19/9 82/20/9
f 82/20/9 86/19/9 85/21/9 81/22/9
f 85/21/9 88/23/9 83/24/9 81/22/9
f 83/24/9 88/23/9 87/18/9 84/17/9
f 89/75/8 86/76/8 87/77/8 91/78/8
f 90/79/4 85/80/4 86/81/4 89/82/4
f 92/83/7 88/84/7 85/80/7 90/79/7
f 91/85/3 87/86/3 88/87/3 92/88/3
f 94/39/9 95/40/9 89/19/9 91/18/9
f 90/21/9 96/41/9 93/42/9 92/23/9
f 93/42/9 94/39/9 91/18/9 92/23/9
f 97/89/9 100/90/9 99/91/9 98/92/9
f 98/92/4 94/93/4 93/94/4 97/89/4
f 99/95/7 95/91/7 94/92/7 98/96/7
f 100/90/3 96/97/3 95/98/3 99/91/3
f 97/99/8 93/89/8 96/90/8 100/100/8
f 90/21/9 103/101/9 96/41/9
f 95/40/9 102/102/9 101/103/9 89/19/9
f 109/104/9 110/105/9 108/106/9
f 106/107/9 108/106/9 107/105/9
f 105/101/9 90/21/9 104/108/9
f 107/109/8 105/105/8 104/107/8 106/110/8
f 108/111/7 101/106/7 102/104/7 109/112/7
f 109/113/4 102/114/4 103/115/4 110/116/4
f 76/66/4 80/44/4 83/67/4 84/68/4
f 111/68/7 113/66/7 114/44/7 112/67/7
f 116/65/8 118/69/8 117/70/8 115/62/8
f 116/67/3 115/44/3 111/66/3 112/68/3
f 112/62/9 114/70/9 118/69/9 116/65/9
f 124/19/10 125/18/10 122/17/10 120/20/10
f 123/21/10 124/19/10 120/20/10 119/22/10
f 121/24/10 126/23/10 123/21/10 119/22/10
f 125/18/10 126/23/10 121/24/10 122/17/10
f 125/77/8 124/76/8 127/75/8 129/78/8
f 124/81/4 123/80/4 128/79/4 127/82/4
f 123/80/7 126/84/7 130/83/7 128/79/7
f 126/87/3 125/86/3 129/85/3 130/88/3
f 127/19/10 133/40/10 132/39/10 129/18/10
f 131/42/10 134/41/10 128/21/10 130/23/10
f 129/18/10 132/39/10 131/42/10 130/23/10
f 137/117/10 138/118/10 135/119/10 136/120/10
f 131/94/4 132/93/4 136/92/4 135/89/4
f 132/92/7 133/91/7 137/95/7 136/96/7
f 133/98/3 134/97/3 138/90/3 137/91/3
f 134/90/8 131/89/8 135/99/8 138/100/8
f 134/41/10 141/101/10 128/21/10
f 139/103/10 140/102/10 133/40/10 127/19/10
f 146/121/10 148/122/10 147/123/10
f 145/122/10 146/121/10 144/124/10
f 142/108/10 128/21/10 143/101/10
f 142/107/8 143/105/8 145/109/8 144/110/8
f 140/104/7 139/106/7 146/111/7 147/112/7
f 141/115/4 140/114/4 147/113/4 148/116/4
f 121/67/4 118/44/4 114/66/4 122/68/4
f 149/68/7 151/66/7 152/44/7 150/67/7
f 154/125/8 156/126/8 155/127/8 153/128/8
f 154/67/3 153/44/3 149/66/3 150/68/3
f 150/62/9 152/70/9 156/69/9 154/65/9
f 162/19/10 163/18/10 160/17/10 158/20/10
f 161/21/10 162/19/10 158/20/10 157/22/10
f 159/24/10 164/23/10 161/21/10 157/22/10
f 163/18/10 164/23/10 159/24/10 160/17/10
f 163/77/8 162/76/8 165/75/8 167/78/8
f 162/81/4 161/80/4 166/79/4 165/82/4
f 161/80/7 164/84/7 168/83/7 166/79/7
f 164/87/3 163/86/3 167/85/3 168/88/3
f 165/19/10 171/40/10 170/39/10 167/18/10
f 169/42/10 172/41/10 166/21/10 168/23/10
f 167/18/10 170/39/10 169/42/10 168/23/10
f 175/90/10 176/129/10 173/130/10 174/89/10
f 169/94/4 170/93/4 174/92/4 173/89/4
f 170/92/7 171/91/7 175/95/7 174/96/7
f 171/98/3 172/97/3 176/90/3 175/91/3
f 172/90/8 169/89/8 173/99/8 176/100/8
f 172/41/10 179/101/10 166/21/10
f 177/103/10 178/102/10 171/40/10 165/19/10
f 184/121/10 186/122/10 185/123/10
f 183/122/10 184/121/10 182/124/10
f 180/108/10 166/21/10 181/101/10
f 180/107/8 181/105/8 183/109/8 182/110/8
f 178/104/7 177/106/7 184/111/7 185/112/7
f 179/115/4 178/114/4 185/113/4 186/116/4
f 159/67/4 156/44/4 152/66/4 160/68/4
f 187/68/10 189/66/10 190/44/10 188/67/10
f 192/68/9 194/66/9 193/44/9 191/67/9
f 192/67/3 191/44/3 187/66/3 188/68/3
f 188/62/7 190/70/7 194/69/7 192/65/7
f 200/19/8 201/18/8 198/17/8 196/20/8
f 199/21/8 200/19/8 196/20/8 195/22/8
f 197/24/8 202/23/8 199/21/8 195/22/8
f 201/18/8 202/23/8 197/24/8 198/17/8
f 201/77/9 200/76/9 203/75/9 205/78/9
f 200/81/4 199/80/4 204/79/4 203/82/4
f 199/80/10 202/84/10 206/83/10 204/79/10
f 202/87/3 201/86/3 205/85/3 206/88/3
f 203/19/8 209/40/8 208/39/8 205/18/8
f 207/42/8 210/41/8 204/21/8 206/23/8
f 205/18/8 208/39/8 207/42/8 206/23/8
f 213/117/8 214/118/8 211/119/8 212/120/8
f 207/94/4 208/93/4 212/92/4 211/89/4
f 208/92/10 209/91/10 213/95/10 212/96/10
f 209/98/3 210/97/3 214/90/3 213/91/3
f 210/90/9 207/89/9 211/99/9 214/100/9
f 210/41/8 217/101/8 204/21/8
f 215/103/8 216/102/8 209/40/8 203/19/8
f 222/131/8 224/132/8 223/133/8
f 221/132/8 222/131/8 220/134/8
f 218/108/8 204/21/8 219/101/8
f 218/107/9 219/105/9 221/109/9 220/110/9
f 216/104/10 215/106/10 222/111/10 223/112/10
f 217/115/4 216/114/4 223/113/4 224/116/4
f 197/67/4 194/44/4 190/66/4 198/68/4
f 228/44/10 227/66/10 225/68/10 226/67/10
f 231/44/9 232/66/9 230/68/9 229/67/9
f 225/66/3 229/44/3 230/67/3 226/68/3
f 232/69/8 228/70/8 226/62/8 230/65/8
f 236/17/7 239/18/7 238/19/7 234/20/7
f 234/20/7 238/19/7 237/21/7 233/22/7
f 237/21/7 240/23/7 235/24/7 233/22/7
f 235/24/7 240/23/7 239/18/7 236/17/7
f 241/75/9 238/76/9 239/77/9 243/78/9
f 242/79/4 237/80/4 238/81/4 241/82/4
f 244/83/10 240/84/10 237/80/10 242/79/10
f 243/85/3 239/86/3 240/87/3 244/88/3
f 246/39/7 247/40/7 241/19/7 243/18/7
f 242/21/7 248/41/7 245/42/7 244/23/7
f 245/42/7 246/39/7 243/18/7 244/23/7
f 249/119/7 252/118/7 251/117/7 250/120/7
f 250/92/4 246/93/4 245/94/4 249/89/4
f 251/95/10 247/91/10 246/92/10 250/96/10
f 252/90/3 248/97/3 247/98/3 251/91/3
f 249/99/9 245/89/9 248/90/9 252/100/9
f 242/21/7 255/101/7 248/41/7
f 247/40/7 254/102/7 253/103/7 241/19/7
f 261/133/7 262/132/7 260/131/7
f 258/134/7 260/131/7 259/132/7
f 257/101/7 242/21/7 256/108/7
f 259/109/9 257/105/9 256/107/9 258/110/9
f 260/111/10 253/106/10 254/104/10 261/112/10
f 261/113/4 254/114/4 255/115/4 262/116/4
f 228/66/4 232/44/4 235/67/4 236/68/4
f 266/135/7 265/136/7 263/137/7 264/138/7
f 269/135/8 270/136/8 268/137/8 267/138/8
f 266/139/4 270/140/4 269/141/4 265/142/4
f 265/135/9 269/136/9 267/137/9 263/138/9
f 270/135/10 266/136/10 264/137/10 268/138/10
f 271/143/7 273/144/7 274/145/7 272/146/7
f 276/143/8 278/144/8 277/145/8 275/146/8
f 275/143/9 277/144/9 273/145/9 271/146/9
f 272/143/10 274/144/10 278/145/10 276/146/10
f 279/137/7 281/136/7 282/135/7 280/138/7
f 284/137/8 286/136/8 285/135/8 283/138/8
f 285/141/3 286/140/3 282/139/3 281/142/3
f 283/137/9 285/136/9 281/135/9 279/138/9
f 280/137/10 282/136/10 286/135/10 284/138/10
f 290/135/7 289/136/7 287/137/7 288/138/7
f 293/135/8 294/136/8 292/137/8 291/138/8
f 290/139/4 294/140/4 293/141/4 289/142/4
f 289/135/9 293/136/9 291/137/9 287/138/9
f 294/135/10 290/136/10 288/137/10 292/138/10
f 295/143/7 297/144/7 298/145/7 296/146/7
f 300/143/8 302/144/8 301/145/8 299/146/8
f 299/143/9 301/144/9 297/145/9 295/146/9
f 296/143/10 298/144/10 302/145/10 300/146/10
f 303/137/7 305/136/7 306/135/7 304/138/7
f 308/137/8 310/136/8 309/135/8 307/138/8
f 309/141/3 310/140/3 306/139/3 305/142/3
f 307/137/9 309/136/9 305/135/9 303/138/9
f 304/137/10 306/136/10 310/135/10 308/138/10
f 314/135/7 313/136/7 311/137/7 312/138/7
f 317/135/8 318/136/8 316/137/8 315/138/8
f 314/139/4 318/140/4 317/141/4 313/142/4
f 313/135/9 317/136/9 315/137/9 311/138/9
f 318/135/10 314/136/10 312/137/10 316/138/10
f 319/143/7 321/144/7 322/145/7 320/146/7
f 324/143/8 326/144/8 325/145/8 323/146/8
f 323/143/9 325/144/9 321/145/9 319/146/9
f 320/143/10 322/144/10 326/145/10 324/146/10
f 327/137/7 329/136/7 330/135/7 328/138/7
f 332/137/8 334/136/8 333/135/8 331/138/8
f 333/141/3 334/140/3 330/139/3 329/142/3
f 331/137/9 333/136/9 329/135/9 327/138/9
f 328/137/10 330/136/10 334/135/10 332/138/10
f 338/135/7 337/136/7 335/137/7 336/138/7
f 341/135/8 342/136/8 340/137/8 339/138/8
f 338/139/4 342/140/4 341/141/4 337/142/4
f 337/135/9 341/136/9 339/137/9 335/138/9
f 342/135/10 338/136/10 336/137/10 340/138/10
f 343/143/7 345/144/7 346/145/7 344/146/7
f 348/143/8 350/144/8 349/145/8 347/146/8
f 347/143/9 349/144/9 345/145/9 343/146/9
f 344/143/10 346/144/10 350/145/10 348/146/10
f 351/137/7 353/136/7 354/135/7 352/138/7
f 356/137/8 358/136/8 357/135/8 355/138/8
f 357/141/3 358/140/3 354/139/3 353/142/3
f 355/137/9 357/136/9 353/135/9 351/138/9
f 352/137/10 354/136/10 358/135/10 356/138/10
f 362/135/7 361/136/7 359/137/7 360/138/7
f 365/135/8 366/136/8 364/137/8 363/138/8
f 362/139/4 366/140/4 365/141/4 361/142/4
f 361/135/9 365/136/9 363/137/9 359/138/9
f 366/135/10 362/136/10 360/137/10 364/138/10
f 367/143/7 369/144/7 370/145/7 368/146/7
f 372/143/8 374/144/8 373/145/8 371/146/8
f 371/143/9 373/144/9 369/145/9 367/146/9
f 368/143/10 370/144/10 374/145/10 372/146/10
f 375/137/7 377/136/7 378/135/7 376/138/7
f 380/137/8 382/136/8 381/135/8 379/138/8
f 381/141/3 382/140/3 378/139/3 377/142/3
f 379/137/9 381/136/9 377/135/9 375/138/9
f 376/137/10 378/136/10 382/135/10 380/138/10
f 386/135/7 385/136/7 383/137/7 384/138/7
f 389/135/8 390/136/8 388/137/8 387/138/8
f 386/139/4 390/140/4 389/141/4 385/142/4
f 385/135/9 389/136/9 387/137/9 383/138/9
f 390/135/10 386/136/10 384/137/10 388/138/10
f 391/143/7 393/144/7 394/145/7 392/146/7
f 396/143/8 398/144/8 397/145/8 395/146/8
f 395/143/9 397/144/9 393/145/9 391/146/9
f 392/143/10 394/144/10 398/145/10 396/146/10
f 399/137/7 401/136/7 402/135/7 400/138/7
f 404/137/8 406/136/8 405/135/8 403/138/8
f 405/141/3 406/140/3 402/139/3 401/142/3
f 403/137/9 405/136/9 401/135/9 399/138/9
f 400/137/10 402/136/10 406/135/10 404/138/10
f 407/147/3 409/148/3 410/149/3 408/150/3
f 412/147/4 414/148/4 413/149/4 411/150/4
f 412/151/7 411/152/7 407/153/7 408/154/7
f 411/151/9 413/152/9 409/153/9 407/154/9
f 413/151/8 414/152/8 410/153/8 409/154/8
f 408/154/10 410/153/10 414/152/10 412/151/10
f 415/150/3 417/149/3 418/148/3 416/147/3
f 420/150/4 422/149/4 421/148/4 419/147/4
f 420/155/7 419/156/7 415/157/7 416/158/7
f 419/159/9 421/160/9 417/161/9 415/162/9
f 421/155/8 422/156/8 418/157/8 417/158/8
f 416/162/10 418/161/10 422/160/10 420/159/10
f 423/163/8 424/164/8 428/165/8 427/166/8
f 424/163/9 425/164/9 429/165/9 428/166/9
f 425/163/7 426/164/7 430/165/7 429/166/7
f 426/163/10 423/164/10 427/165/10 430/166/10
f 435/163/9 438/164/9 437/145/9 436/144/9
f 436/167/8 432/168/8 431/169/8 435/170/8
f 438/170/7 434/169/7 433/168/7 437/167/7
f 435/137/3 431/171/3 434/172/3 438/173/3
f 440/174/9 436/175/9 437/176/9 439/177/9
f 441/143/8 432/174/8 436/177/8 440/146/8
f 442/178/10 433/179/10 432/166/10 441/180/10
f 439/166/7 437/181/7 433/182/7 442/165/7
f 443/137/8 445/136/8 446/135/8 444/138/8
f 448/137/7 450/136/7 449/135/7 447/138/7
f 449/141/3 450/140/3 446/139/3 445/142/3
f 447/137/10 449/136/10 445/135/10 443/138/10
f 444/137/9 446/136/9 450/135/9 448/138/9
f 452/138/8 451/183/8 455/181/8 456/182/8
f 453/138/7 454/183/7 457/181/7 458/182/7
f 451/138/10 453/183/10 458/181/10 455/182/10
f 454/138/9 452/183/9 456/181/9 457/182/9
f 454/168/7 453/167/7 460/183/7 459/184/7
f 452/168/9 454/167/9 459/183/9 461/184/9
f 451/168/8 452/167/8 461/183/8 462/184/8
f 453/168/10 451/167/10 462/183/10 460/184/10
f 464/138/8 463/183/8 467/185/8 468/186/8
f 465/138/7 466/183/7 469/185/7 470/186/7
f 463/138/10 465/183/10 470/185/10 467/186/10
f 466/138/9 464/183/9 468/185/9 469/186/9
f 481/174/3 482/187/3 480/188/3 479/177/3
f 471/189/8 472/190/8 476/183/8 475/184/8
f 472/189/9 474/190/9 477/183/9 476/184/9
f 474/189/7 473/190/7 478/183/7 477/184/7
f 473/189/10 471/190/10 475/183/10 478/184/10
f 480/170/9 474/167/9 472/168/9 479/169/9
f 482/188/7 473/177/7 474/174/7 480/187/7
f 481/169/10 471/168/10 473/167/10 482/170/10
f 491/145/8 494/144/8 493/163/8 492/164/8
f 488/191/3 486/179/3 485/166/3 487/192/3
f 489/191/10 483/179/10 486/166/10 488/192/10
f 490/191/4 484/179/4 483/166/4 489/192/4
f 487/192/9 485/166/9 484/179/9 490/191/9
f 492/170/3 488/169/3 487/168/3 491/167/3
f 493/185/10 489/167/10 488/193/10 492/186/10
f 494/167/4 490/168/4 489/169/4 493/170/4
f 496/184/8 494/168/8 491/167/8 495/183/8
f 497/184/4 490/168/4 494/167/4 496/183/4
f 498/167/7 487/183/7 490/184/7 497/168/7
f 495/167/3 491/183/3 487/184/3 498/168/3
f 485/194/3 486/173/3 500/187/3 499/195/3
f 483/194/4 484/173/4 502/187/4 501/195/4
f 486/187/10 483/195/10 501/194/10 500/173/10
f 484/194/9 485/173/9 499/187/9 502/195/9
f 506/168/7 505/167/7 508/183/7 507/184/7
f 504/168/9 506/167/9 507/183/9 509/184/9
f 503/168/8 504/167/8 509/183/8 510/184/8
f 505/168/10 503/167/10 510/183/10 508/184/10
f 514/168/7 513/167/7 516/183/7 515/184/7
f 512/168/9 514/167/9 515/183/9 517/184/9
f 511/168/8 512/167/8 517/183/8 518/184/8
f 513/168/10 511/167/10 518/183/10 516/184/10
f 529/171/3 530/172/3 528/173/3 527/137/3
f 519/196/7 513/138/7 514/183/7 521/197/7
f 520/196/10 511/138/10 513/183/10 519/197/10
f 522/196/8 512/138/8 511/183/8 520/197/8
f 521/196/9 514/138/9 512/183/9 522/197/9
f 523/197/7 519/144/7 521/198/7 525/199/7
f 524/197/10 520/144/10 519/198/10 523/199/10
f 526/197/8 522/144/8 520/198/8 524/199/8
f 525/197/9 521/144/9 522/198/9 526/199/9
f 527/169/7 523/168/7 525/167/7 529/170/7
f 530/170/8 526/167/8 524/168/8 528/169/8
f 529/200/9 525/201/9 526/202/9 530/192/9
f 532/144/3 527/181/3 528/182/3 531/145/3
f 533/175/7 523/163/7 527/164/7 532/176/7
f 534/165/4 524/201/4 523/202/4 533/166/4
f 531/192/8 528/174/8 524/177/8 534/200/8
f 535/137/8 537/136/8 538/135/8 536/138/8
f 540/137/7 542/136/7 541/135/7 539/138/7
f 540/141/4 539/140/4 535/139/4 536/142/4
f 541/141/3 542/140/3 538/139/3 537/142/3
f 539/137/10 541/136/10 537/135/10 535/138/10
f 536/137/9 538/136/9 542/135/9 540/138/9
f 543/137/8 545/136/8 546/135/8 544/138/8
f 548/137/7 550/136/7 549/135/7 547/138/7
f 548/141/4 547/140/4 543/139/4 544/142/4
f 549/141/3 550/140/3 546/139/3 545/142/3
f 547/137/10 549/136/10 545/135/10 543/138/10
f 544/137/9 546/136/9 550/135/9 548/138/9
f 551/137/8 553/136/8 554/135/8 552/138/8
f 556/137/7 558/136/7 557/135/7 555/138/7
f 556/141/10 555/140/10 551/139/10 552/142/10
f 557/141/9 558/140/9 554/139/9 553/142/9
f 555/137/3 557/136/3 553/135/3 551/138/3
f 552/137/4 554/136/4 558/135/4 556/138/4
f 559/137/8 561/136/8 562/135/8 560/138/8
f 564/137/7 566/136/7 565/135/7 563/138/7
f 564/141/9 563/140/9 559/139/9 560/142/9
f 565/141/10 566/140/10 562/139/10 561/142/10
f 563/137/4 565/136/4 561/135/4 559/138/4
f 560/137/3 562/136/3 566/135/3 564/138/3
f 576/188/3 578/187/3 577/174/3 575/177/3
f 572/183/7 568/185/7 567/186/7 571/138/7
f 573/183/9 570/185/9 568/186/9 572/138/9
f 574/183/8 569/185/8 570/186/8 573/138/8
f 571/183/10 567/185/10 569/186/10 574/138/10
f 568/168/9 570/167/9 576/170/9 575/169/9
f 570/174/8 569/177/8 578/188/8 576/187/8
f 569/167/10 567/168/10 577/169/10 578/170/10
f 589/163/7 590/144/7 587/145/7 588/164/7
f 581/166/3 582/179/3 584/191/3 583/192/3
f 582/166/10 579/179/10 585/191/10 584/192/10
f 579/166/4 580/179/4 586/191/4 585/192/4
f 580/179/9 581/166/9 583/192/9 586/191/9
f 583/168/3 584/169/3 588/170/3 587/167/3
f 584/193/10 585/167/10 589/185/10 588/186/10
f 585/169/4 586/168/4 590/167/4 589/170/4
f 587/166/7 590/165/7 592/201/7 591/202/7
f 590/166/4 586/165/4 593/201/4 592/202/4
f 586/201/8 583/202/8 594/166/8 593/165/8
f 583/201/3 587/202/3 591/166/3 594/165/3
f 596/187/3 582/173/3 581/194/3 595/195/3
f 598/187/4 580/173/4 579/194/4 597/195/4
f 597/194/10 579/195/10 582/187/10 596/173/10
f 595/187/9 581/173/9 580/194/9 598/195/9
f 599/137/8 601/136/8 602/135/8 600/138/8
f 604/137/7 606/136/7 605/135/7 603/138/7
f 604/141/4 603/140/4 599/139/4 600/142/4
f 605/141/3 606/140/3 602/139/3 601/142/3
f 603/137/10 605/136/10 601/135/10 599/138/10
f 600/137/9 602/136/9 606/135/9 604/138/9
f 610/203/7 609/204/7 607/205/7 608/206/7
f 607/207/3 611/208/3 612/209/3 608/210/3
f 610/210/4 614/209/4 613/208/4 609/207/4
f 609/211/9 613/212/9 611/213/9 607/214/9
f 615/205/8 617/204/8 618/203/8 616/206/8
f 620/215/3 619/216/3 615/217/3 616/218/3
f 621/216/4 622/215/4 618/218/4 617/217/4
f 619/213/9 621/212/9 617/211/9 615/214/9
f 623/219/3 627/220/3 628/84/3 624/87/3
f 626/87/4 630/84/4 629/220/4 625/219/4
f 630/211/10 626/212/10 624/213/10 628/214/10
f 637/221/8 638/222/8 636/223/8 635/224/8
f 631/225/3 635/224/3 636/223/3 632/226/3
f 634/222/4 638/227/4 637/228/4 633/221/4
f 633/221/9 637/229/9 635/230/9 631/224/9
f 638/231/10 634/222/10 632/223/10 636/232/10
f 645/221/7 646/222/7 644/223/7 643/224/7
f 639/225/3 643/224/3 644/223/3 640/226/3
f 642/222/4 646/227/4 645/228/4 641/221/4
f 641/221/10 645/229/10 643/230/10 639/224/10
f 646/231/9 642/222/9 640/223/9 644/232/9
