# Blender 4.2.3 LTS
# www.blender.org
mtllib energy_cable_centre.mtl
o elec_zMax
v 0.812500 0.187500 0.750000
v 0.812500 0.812500 0.750000
v 0.812500 0.812500 1.000000
v 0.812500 0.187500 1.000000
v 0.187500 0.187500 1.000000
v 0.187500 0.812500 1.000000
v 0.187500 0.812500 0.750000
v 0.187500 0.187500 0.750000
vn 1.0000 -0.0000 -0.0000
vn -1.0000 -0.0000 -0.0000
vn -0.0000 1.0000 -0.0000
vn -0.0000 -1.0000 -0.0000
vn -0.0000 -0.0000 1.0000
vn -0.0000 -0.0000 -1.0000
vt 1.000000 0.687500
vt 1.000000 1.000000
vt 0.875000 1.000000
vt 0.875000 0.687500
vt 0.812500 0.687500
vt 0.812500 1.000000
vt 0.500000 1.000000
vt 0.500000 0.687500
s 0
usemtl cable
f 1/1/1 2/2/1 3/3/1 4/4/1
f 5/1/2 6/2/2 7/3/2 8/4/2
f 3/4/3 2/1/3 7/2/3 6/3/3
f 1/1/4 4/4/4 5/3/4 8/2/4
f 4/5/5 3/6/5 6/7/5 5/8/5
f 8/5/6 7/6/6 2/7/6 1/8/6
o elec_zMin
v 0.812500 0.812500 -0.000000
v 0.812500 0.812500 0.250000
v 0.812500 0.187500 0.250000
v 0.812500 0.187500 -0.000000
v 0.187500 0.812500 0.250000
v 0.187500 0.812500 -0.000000
v 0.187500 0.187500 -0.000000
v 0.187500 0.187500 0.250000
vn 1.0000 -0.0000 -0.0000
vn -1.0000 -0.0000 -0.0000
vn -0.0000 1.0000 -0.0000
vn -0.0000 -1.0000 -0.0000
vn -0.0000 -0.0000 -1.0000
vn -0.0000 -0.0000 1.0000
vt 0.875000 1.000000
vt 1.000000 1.000000
vt 1.000000 0.687500
vt 0.875000 0.687500
vt 0.500000 1.000000
vt 0.812500 1.000000
vt 0.812500 0.687500
vt 0.500000 0.687500
s 0
usemtl cable
f 9/9/7 10/10/7 11/11/7 12/12/7
f 13/9/8 14/10/8 15/11/8 16/12/8
f 13/10/9 10/11/9 9/12/9 14/9/9
f 15/9/10 12/12/10 11/11/10 16/10/10
f 14/13/11 9/14/11 12/15/11 15/16/11
f 10/13/12 13/14/12 16/15/12 11/16/12
o pipe_z
v 0.750000 0.750000 -0.000000
v 0.750000 0.750000 1.000000
v 0.750000 0.250000 1.000000
v 0.750000 0.250000 -0.000000
v 0.250000 0.750000 -0.000000
v 0.250000 0.750000 1.000000
v 0.250000 0.250000 -0.000000
v 0.250000 0.250000 1.000000
vn 1.0000 -0.0000 -0.0000
vn -0.0000 1.0000 -0.0000
vn -1.0000 -0.0000 -0.0000
vn -0.0000 -1.0000 -0.0000
vt 0.250000 0.031250
vt 0.250000 0.531250
vt 0.000000 0.531250
vt 0.000000 0.031250
s 0
usemtl cable
f 17/17/13 18/18/13 19/19/13 20/20/13
f 17/20/14 21/17/14 22/18/14 18/19/14
f 21/20/15 23/17/15 24/18/15 22/19/15
f 20/17/16 19/18/16 24/19/16 23/20/16
