# Blender 4.2.3 LTS
# www.blender.org
mtllib energy_cable.mtl
o center
v 0.250000 0.250000 0.750000
v 0.750000 0.250000 0.750000
v 0.750000 0.750000 0.750000
v 0.250000 0.750000 0.750000
v 0.750000 0.250000 0.250000
v 0.250000 0.250000 0.250000
v 0.250000 0.750000 0.250000
v 0.750000 0.750000 0.250000
vn -0.0000 -0.0000 1.0000
vn -0.0000 -0.0000 -1.0000
vn 1.0000 -0.0000 -0.0000
vn -0.0000 1.0000 -0.0000
vn -0.0000 -1.0000 -0.0000
vn -1.0000 -0.0000 -0.0000
vt 0.750000 0.312500
vt 1.000000 0.312500
vt 1.000000 0.562500
vt 0.750000 0.562500
s 0
usemtl cable
f 1/1/1 2/2/1 3/3/1 4/4/1
f 5/2/2 6/3/2 7/4/2 8/1/2
f 2/1/3 5/2/3 8/3/3 3/4/3
f 7/2/4 4/3/4 3/4/4 8/1/4
f 2/4/5 1/1/5 6/2/5 5/3/5
f 6/2/6 1/3/6 4/4/6 7/1/6
o center_frame
v 0.750000 0.750000 0.312500
v 0.750000 0.750000 0.250000
v 0.750000 0.687500 0.312500
v 0.750000 0.687500 0.250000
v 0.250000 0.750000 0.312500
v 0.250000 0.750000 0.250000
v 0.250000 0.687500 0.312500
v 0.250000 0.687500 0.250000
v 0.750000 0.750000 0.750000
v 0.750000 0.750000 0.687500
v 0.750000 0.687500 0.750000
v 0.750000 0.687500 0.687500
v 0.250000 0.750000 0.750000
v 0.250000 0.750000 0.687500
v 0.250000 0.687500 0.750000
v 0.250000 0.687500 0.687500
v 0.750000 0.750000 0.687500
v 0.750000 0.750000 0.312500
v 0.750000 0.687500 0.687500
v 0.750000 0.687500 0.312500
v 0.687500 0.750000 0.687500
v 0.687500 0.750000 0.312500
v 0.687500 0.687500 0.687500
v 0.687500 0.687500 0.312500
v 0.312500 0.750000 0.687500
v 0.312500 0.750000 0.312500
v 0.312500 0.687500 0.687500
v 0.312500 0.687500 0.312500
v 0.250000 0.750000 0.687500
v 0.250000 0.750000 0.312500
v 0.250000 0.687500 0.687500
v 0.250000 0.687500 0.312500
v 0.312500 0.687500 0.312500
v 0.312500 0.687500 0.250000
v 0.312500 0.312500 0.312500
v 0.312500 0.312500 0.250000
v 0.250000 0.687500 0.312500
v 0.250000 0.687500 0.250000
v 0.250000 0.312500 0.312500
v 0.250000 0.312500 0.250000
v 0.312500 0.687500 0.750000
v 0.312500 0.687500 0.687500
v 0.312500 0.312500 0.750000
v 0.312500 0.312500 0.687500
v 0.250000 0.687500 0.750000
v 0.250000 0.687500 0.687500
v 0.250000 0.312500 0.750000
v 0.250000 0.312500 0.687500
v 0.750000 0.687500 0.312500
v 0.750000 0.687500 0.250000
v 0.750000 0.312500 0.312500
v 0.750000 0.312500 0.250000
v 0.687500 0.687500 0.312500
v 0.687500 0.687500 0.250000
v 0.687500 0.312500 0.312500
v 0.687500 0.312500 0.250000
v 0.750000 0.687500 0.750000
v 0.750000 0.687500 0.687500
v 0.750000 0.312500 0.750000
v 0.750000 0.312500 0.687500
v 0.687500 0.687500 0.750000
v 0.687500 0.687500 0.687500
v 0.687500 0.312500 0.750000
v 0.687500 0.312500 0.687500
v 0.750000 0.312500 0.750000
v 0.750000 0.312500 0.687500
v 0.750000 0.250000 0.750000
v 0.750000 0.250000 0.687500
v 0.250000 0.312500 0.750000
v 0.250000 0.312500 0.687500
v 0.250000 0.250000 0.750000
v 0.250000 0.250000 0.687500
v 0.750000 0.312500 0.687500
v 0.750000 0.312500 0.312500
v 0.750000 0.250000 0.687500
v 0.750000 0.250000 0.312500
v 0.687500 0.312500 0.687500
v 0.687500 0.312500 0.312500
v 0.687500 0.250000 0.687500
v 0.687500 0.250000 0.312500
v 0.750000 0.312500 0.312500
v 0.750000 0.312500 0.250000
v 0.750000 0.250000 0.312500
v 0.750000 0.250000 0.250000
v 0.250000 0.312500 0.312500
v 0.250000 0.312500 0.250000
v 0.250000 0.250000 0.312500
v 0.250000 0.250000 0.250000
v 0.312500 0.312500 0.687500
v 0.312500 0.312500 0.312500
v 0.312500 0.250000 0.687500
v 0.312500 0.250000 0.312500
v 0.250000 0.312500 0.687500
v 0.250000 0.312500 0.312500
v 0.250000 0.250000 0.687500
v 0.250000 0.250000 0.312500
v 0.687500 0.687500 0.687500
v 0.687500 0.687500 0.312500
v 0.687500 0.312500 0.687500
v 0.687500 0.312500 0.312500
v 0.312500 0.687500 0.687500
v 0.312500 0.687500 0.312500
v 0.312500 0.312500 0.687500
v 0.312500 0.312500 0.312500
vn 1.0000 -0.0000 -0.0000
vn -1.0000 -0.0000 -0.0000
vn -0.0000 1.0000 -0.0000
vn -0.0000 -1.0000 -0.0000
vn -0.0000 -0.0000 1.0000
vn -0.0000 -0.0000 -1.0000
vt 0.781250 0.500000
vt 0.781250 0.531250
vt 0.750000 0.531250
vt 0.750000 0.500000
vt 1.000000 0.312500
vt 1.000000 0.343750
vt 0.750000 0.343750
vt 0.750000 0.312500
vt 1.000000 0.531250
vt 1.000000 0.562500
vt 0.750000 0.562500
vt 0.968750 0.531250
vt 0.968750 0.562500
vt 0.781250 0.562500
vt 0.968750 0.343750
vt 0.968750 0.375000
vt 0.781250 0.375000
vt 0.781250 0.343750
vt 0.968750 0.312500
vt 0.781250 0.312500
vt 0.218750 0.781250
vt 0.218750 0.968750
vt 0.031250 0.968750
vt 0.031250 0.781250
s 0
usemtl cable
f 12/5/7 10/6/7 9/7/7 11/8/7
f 15/5/8 13/6/8 14/7/8 16/8/8
f 9/9/9 10/10/9 14/11/9 13/12/9
f 12/9/10 11/10/10 15/11/10 16/12/10
f 11/9/11 9/10/11 13/11/11 15/12/11
f 16/9/12 14/10/12 10/11/12 12/12/12
f 20/5/7 18/6/7 17/7/7 19/8/7
f 23/5/8 21/6/8 22/7/8 24/8/8
f 17/9/9 18/10/9 22/11/9 21/12/9
f 20/13/10 19/14/10 23/15/10 24/7/10
f 19/9/11 17/10/11 21/11/11 23/12/11
f 24/13/12 22/14/12 18/15/12 20/7/12
f 28/16/7 26/17/7 25/18/7 27/6/7
f 31/19/8 29/20/8 30/21/8 32/22/8
f 25/22/9 26/6/9 30/7/9 29/11/9
f 28/22/10 27/6/10 31/7/10 32/11/10
f 27/5/11 25/6/11 29/7/11 31/8/11
f 32/5/12 30/6/12 26/7/12 28/8/12
f 36/23/7 34/19/7 33/22/7 35/24/7
f 39/16/8 37/17/8 38/18/8 40/6/8
f 33/22/9 34/6/9 38/7/9 37/11/9
f 36/22/10 35/6/10 39/7/10 40/11/10
f 35/5/11 33/6/11 37/7/11 39/8/11
f 40/5/12 38/6/12 34/7/12 36/8/12
f 44/22/7 42/6/7 41/7/7 43/11/7
f 47/22/8 45/6/8 46/7/8 48/11/8
f 41/5/9 42/6/9 46/7/9 45/8/9
f 44/5/10 43/6/10 47/7/10 48/8/10
f 43/22/11 41/6/11 45/7/11 47/11/11
f 48/22/12 46/6/12 42/7/12 44/11/12
f 52/22/7 50/6/7 49/7/7 51/11/7
f 55/22/8 53/6/8 54/7/8 56/11/8
f 49/5/9 50/6/9 54/7/9 53/8/9
f 52/5/10 51/6/10 55/7/10 56/8/10
f 51/22/11 49/6/11 53/7/11 55/11/11
f 56/22/12 54/6/12 50/7/12 52/11/12
f 60/22/7 58/6/7 57/7/7 59/11/7
f 63/22/8 61/6/8 62/7/8 64/11/8
f 57/5/9 58/6/9 62/7/9 61/8/9
f 60/5/10 59/6/10 63/7/10 64/8/10
f 59/22/11 57/6/11 61/7/11 63/11/11
f 64/22/12 62/6/12 58/7/12 60/11/12
f 68/22/7 66/6/7 65/7/7 67/11/7
f 71/22/8 69/6/8 70/7/8 72/11/8
f 65/5/9 66/6/9 70/7/9 69/8/9
f 68/5/10 67/6/10 71/7/10 72/8/10
f 67/22/11 65/6/11 69/7/11 71/11/11
f 72/22/12 70/6/12 66/7/12 68/11/12
f 76/5/7 74/6/7 73/7/7 75/8/7
f 79/5/8 77/6/8 78/7/8 80/8/8
f 73/9/9 74/10/9 78/11/9 77/12/9
f 76/9/10 75/10/10 79/11/10 80/12/10
f 75/13/11 73/14/11 77/15/11 79/7/11
f 80/13/12 78/14/12 74/15/12 76/7/12
f 84/16/7 82/17/7 81/18/7 83/6/7
f 87/16/8 85/17/8 86/18/8 88/6/8
f 81/22/9 82/6/9 86/7/9 85/11/9
f 84/22/10 83/6/10 87/7/10 88/11/10
f 83/5/11 81/6/11 85/7/11 87/8/11
f 88/5/12 86/6/12 82/7/12 84/8/12
f 92/5/7 90/6/7 89/7/7 91/8/7
f 95/5/8 93/6/8 94/7/8 96/8/8
f 89/13/9 90/14/9 94/15/9 93/7/9
f 92/13/10 91/14/10 95/15/10 96/7/10
f 91/13/11 89/14/11 93/15/11 95/7/11
f 96/9/12 94/10/12 90/11/12 92/12/12
f 100/23/7 98/19/7 97/22/7 99/24/7
f 103/23/8 101/19/8 102/22/8 104/24/8
f 97/22/9 98/6/9 102/7/9 101/11/9
f 100/22/10 99/6/10 103/7/10 104/11/10
f 99/5/11 97/6/11 101/7/11 103/8/11
f 104/5/12 102/6/12 98/7/12 100/8/12
f 108/25/7 106/26/7 105/27/7 107/28/7
f 111/25/8 109/26/8 110/27/8 112/28/8
f 105/25/9 106/26/9 110/27/9 109/28/9
f 108/25/10 107/26/10 111/27/10 112/28/10
f 107/25/11 105/26/11 109/27/11 111/28/11
f 112/25/12 110/26/12 106/27/12 108/28/12
o con_xMax
v 0.875000 0.751875 0.248125
v 1.000000 0.751875 0.248125
v 1.000000 0.248125 0.248125
v 0.875000 0.248125 0.248125
v 1.000000 0.751875 0.751875
v 0.875000 0.751875 0.751875
v 0.875000 0.248125 0.751875
v 1.000000 0.248125 0.751875
v 1.000000 0.751875 0.248125
v 1.000000 0.751875 0.751875
v 1.000000 0.701500 0.701500
v 1.000000 0.701500 0.298500
v 1.000000 0.248125 0.751875
v 1.000000 0.298500 0.701500
v 1.000000 0.248125 0.248125
v 1.000000 0.298500 0.298500
v 0.875000 0.701500 0.701500
v 0.875000 0.751875 0.751875
v 0.875000 0.751875 0.248125
v 0.875000 0.701500 0.298500
v 0.875000 0.248125 0.751875
v 0.875000 0.298500 0.701500
v 0.875000 0.298500 0.298500
v 0.875000 0.248125 0.248125
vn -0.0000 -0.0000 -1.0000
vn -0.0000 -0.0000 1.0000
vn -0.0000 1.0000 -0.0000
vn -0.0000 -1.0000 -0.0000
vn 1.0000 -0.0000 -0.0000
vn -1.0000 -0.0000 -0.0000
vt 1.000000 0.000000
vt 1.000000 0.062500
vt 0.750000 0.062500
vt 0.750000 0.000000
vt 1.000000 0.125000
vt 0.750000 0.125000
vt 0.775000 0.093750
vt 0.975000 0.093750
s 0
usemtl cable
f 113/29/13 114/30/13 115/31/13 116/32/13
f 117/30/14 118/29/14 119/32/14 120/31/14
f 117/31/15 114/30/15 113/29/15 118/32/15
f 119/32/16 116/29/16 115/30/16 120/31/16
f 121/33/17 122/34/17 123/35/17 124/36/17
f 123/36/17 122/33/17 125/34/17 126/35/17
f 125/33/17 127/34/17 128/35/17 126/36/17
f 127/33/17 121/34/17 124/35/17 128/36/17
f 129/35/18 130/34/18 131/33/18 132/36/18
f 133/34/18 130/33/18 129/36/18 134/35/18
f 135/35/18 136/34/18 133/33/18 134/36/18
f 132/35/18 131/34/18 136/33/18 135/36/18
o con_xMin
v 0.000000 0.248125 0.248125
v 0.000000 0.751875 0.248125
v 0.125000 0.751875 0.248125
v 0.125000 0.248125 0.248125
v 0.125000 0.248125 0.751875
v 0.125000 0.751875 0.751875
v 0.000000 0.751875 0.751875
v 0.000000 0.248125 0.751875
v 0.000000 0.701500 0.701500
v 0.000000 0.751875 0.751875
v 0.000000 0.751875 0.248125
v 0.000000 0.701500 0.298500
v 0.000000 0.248125 0.751875
v 0.000000 0.298500 0.701500
v 0.000000 0.298500 0.298500
v 0.000000 0.248125 0.248125
v 0.125000 0.751875 0.248125
v 0.125000 0.751875 0.751875
v 0.125000 0.701500 0.701500
v 0.125000 0.701500 0.298500
v 0.125000 0.248125 0.751875
v 0.125000 0.298500 0.701500
v 0.125000 0.248125 0.248125
v 0.125000 0.298500 0.298500
vn -0.0000 -0.0000 -1.0000
vn -0.0000 -0.0000 1.0000
vn -0.0000 1.0000 -0.0000
vn -0.0000 -1.0000 -0.0000
vn -1.0000 -0.0000 -0.0000
vn 1.0000 -0.0000 -0.0000
vt 0.750000 0.062500
vt 1.000000 0.062500
vt 1.000000 0.125000
vt 0.750000 0.125000
vt 0.775000 0.093750
vt 0.975000 0.093750
s 0
usemtl cable
f 137/37/19 138/38/19 139/39/19 140/40/19
f 141/40/20 142/39/20 143/38/20 144/37/20
f 139/39/21 138/38/21 143/37/21 142/40/21
f 137/38/22 140/39/22 141/40/22 144/37/22
f 145/41/23 146/40/23 147/39/23 148/42/23
f 149/40/23 146/39/23 145/42/23 150/41/23
f 151/41/23 152/40/23 149/39/23 150/42/23
f 148/41/23 147/40/23 152/39/23 151/42/23
f 153/39/24 154/40/24 155/41/24 156/42/24
f 155/42/24 154/39/24 157/40/24 158/41/24
f 157/39/24 159/40/24 160/41/24 158/42/24
f 159/39/24 153/40/24 156/41/24 160/42/24
o con_yMax
v 0.751875 0.875000 0.248125
v 0.751875 1.000000 0.248125
v 0.751875 1.000000 0.751875
v 0.751875 0.875000 0.751875
v 0.248125 1.000000 0.248125
v 0.248125 0.875000 0.248125
v 0.248125 0.875000 0.751875
v 0.248125 1.000000 0.751875
v 0.751875 1.000000 0.248125
v 0.248125 1.000000 0.248125
v 0.298500 1.000000 0.298500
v 0.701500 1.000000 0.298500
v 0.248125 1.000000 0.751875
v 0.298500 1.000000 0.701500
v 0.751875 1.000000 0.751875
v 0.701500 1.000000 0.701500
v 0.298500 0.875000 0.298500
v 0.248125 0.875000 0.248125
v 0.751875 0.875000 0.248125
v 0.701500 0.875000 0.298500
v 0.248125 0.875000 0.751875
v 0.298500 0.875000 0.701500
v 0.701500 0.875000 0.701500
v 0.751875 0.875000 0.751875
vn 1.0000 -0.0000 -0.0000
vn -1.0000 -0.0000 -0.0000
vn -0.0000 -0.0000 -1.0000
vn -0.0000 -0.0000 1.0000
vn -0.0000 1.0000 -0.0000
vn -0.0000 -1.0000 -0.0000
vt 1.000000 0.000000
vt 1.000000 0.062500
vt 0.750000 0.062500
vt 0.750000 0.000000
vt 1.000000 0.125000
vt 0.750000 0.125000
vt 0.775000 0.093750
vt 0.975000 0.093750
s 0
usemtl cable
f 161/43/25 162/44/25 163/45/25 164/46/25
f 165/44/26 166/43/26 167/46/26 168/45/26
f 165/45/27 162/44/27 161/43/27 166/46/27
f 167/46/28 164/43/28 163/44/28 168/45/28
f 169/47/29 170/48/29 171/49/29 172/50/29
f 171/50/29 170/47/29 173/48/29 174/49/29
f 173/47/29 175/48/29 176/49/29 174/50/29
f 175/47/29 169/48/29 172/49/29 176/50/29
f 177/49/30 178/48/30 179/47/30 180/50/30
f 181/48/30 178/47/30 177/50/30 182/49/30
f 183/49/30 184/48/30 181/47/30 182/50/30
f 180/49/30 179/48/30 184/47/30 183/50/30
o con_yMin
v 0.751875 0.125000 0.751875
v 0.751875 0.000000 0.751875
v 0.751875 0.000000 0.248125
v 0.751875 0.125000 0.248125
v 0.248125 0.000000 0.751875
v 0.248125 0.125000 0.751875
v 0.248125 0.125000 0.248125
v 0.248125 0.000000 0.248125
v 0.751875 0.000000 0.751875
v 0.248125 0.000000 0.751875
v 0.298500 0.000000 0.701500
v 0.701500 0.000000 0.701500
v 0.248125 0.000000 0.248125
v 0.298500 0.000000 0.298500
v 0.751875 0.000000 0.248125
v 0.701500 0.000000 0.298500
v 0.298500 0.125000 0.701500
v 0.248125 0.125000 0.751875
v 0.751875 0.125000 0.751875
v 0.701500 0.125000 0.701500
v 0.248125 0.125000 0.248125
v 0.298500 0.125000 0.298500
v 0.701500 0.125000 0.298500
v 0.751875 0.125000 0.248125
vn 1.0000 -0.0000 -0.0000
vn -1.0000 -0.0000 -0.0000
vn -0.0000 -0.0000 1.0000
vn -0.0000 -0.0000 -1.0000
vn -0.0000 -1.0000 -0.0000
vn -0.0000 1.0000 -0.0000
vt 1.000000 0.125000
vt 1.000000 0.062500
vt 0.750000 0.062500
vt 0.750000 0.125000
vt 0.775000 0.093750
vt 0.975000 0.093750
s 0
usemtl cable
f 185/51/31 186/52/31 187/53/31 188/54/31
f 189/52/32 190/51/32 191/54/32 192/53/32
f 189/53/33 186/52/33 185/51/33 190/54/33
f 191/54/34 188/51/34 187/52/34 192/53/34
f 193/51/35 194/54/35 195/55/35 196/56/35
f 195/56/35 194/51/35 197/54/35 198/55/35
f 197/51/35 199/54/35 200/55/35 198/56/35
f 199/51/35 193/54/35 196/55/35 200/56/35
f 201/55/36 202/54/36 203/51/36 204/56/36
f 205/54/36 202/51/36 201/56/36 206/55/36
f 207/55/36 208/54/36 205/51/36 206/56/36
f 204/55/36 203/54/36 208/51/36 207/56/36
o con_zMax
v 0.751875 0.751875 0.875000
v 0.751875 0.751875 1.000000
v 0.751875 0.248125 1.000000
v 0.751875 0.248125 0.875000
v 0.248125 0.751875 1.000000
v 0.248125 0.751875 0.875000
v 0.248125 0.248125 0.875000
v 0.248125 0.248125 1.000000
v 0.751875 0.751875 1.000000
v 0.248125 0.751875 1.000000
v 0.298500 0.701500 1.000000
v 0.701500 0.701500 1.000000
v 0.248125 0.248125 1.000000
v 0.298500 0.298500 1.000000
v 0.751875 0.248125 1.000000
v 0.701500 0.298500 1.000000
v 0.298500 0.701500 0.875000
v 0.248125 0.751875 0.875000
v 0.751875 0.751875 0.875000
v 0.701500 0.701500 0.875000
v 0.248125 0.248125 0.875000
v 0.298500 0.298500 0.875000
v 0.701500 0.298500 0.875000
v 0.751875 0.248125 0.875000
vn 1.0000 -0.0000 -0.0000
vn -1.0000 -0.0000 -0.0000
vn -0.0000 1.0000 -0.0000
vn -0.0000 -1.0000 -0.0000
vn -0.0000 -0.0000 1.0000
vn -0.0000 -0.0000 -1.0000
vt 1.000000 0.000000
vt 1.000000 0.062500
vt 0.750000 0.062500
vt 0.750000 0.000000
vt 1.000000 0.125000
vt 0.750000 0.125000
vt 0.775000 0.093750
vt 0.975000 0.093750
s 0
usemtl cable
f 209/57/37 210/58/37 211/59/37 212/60/37
f 213/58/38 214/57/38 215/60/38 216/59/38
f 213/59/39 210/58/39 209/57/39 214/60/39
f 215/60/40 212/57/40 211/58/40 216/59/40
f 217/61/41 218/62/41 219/63/41 220/64/41
f 219/64/41 218/61/41 221/62/41 222/63/41
f 221/61/41 223/62/41 224/63/41 222/64/41
f 223/61/41 217/62/41 220/63/41 224/64/41
f 225/63/42 226/62/42 227/61/42 228/64/42
f 229/62/42 226/61/42 225/64/42 230/63/42
f 231/63/42 232/62/42 229/61/42 230/64/42
f 228/63/42 227/62/42 232/61/42 231/64/42
o con_zMin
v 0.751875 0.248125 -0.000000
v 0.751875 0.751875 -0.000000
v 0.751875 0.751875 0.125000
v 0.751875 0.248125 0.125000
v 0.248125 0.248125 0.125000
v 0.248125 0.751875 0.125000
v 0.248125 0.751875 -0.000000
v 0.248125 0.248125 -0.000000
v 0.298500 0.701500 -0.000000
v 0.248125 0.751875 -0.000000
v 0.751875 0.751875 -0.000000
v 0.701500 0.701500 -0.000000
v 0.248125 0.248125 -0.000000
v 0.298500 0.298500 -0.000000
v 0.701500 0.298500 -0.000000
v 0.751875 0.248125 -0.000000
v 0.751875 0.751875 0.125000
v 0.248125 0.751875 0.125000
v 0.298500 0.701500 0.125000
v 0.701500 0.701500 0.125000
v 0.248125 0.248125 0.125000
v 0.298500 0.298500 0.125000
v 0.751875 0.248125 0.125000
v 0.701500 0.298500 0.125000
vn 1.0000 -0.0000 -0.0000
vn -1.0000 -0.0000 -0.0000
vn -0.0000 1.0000 -0.0000
vn -0.0000 -1.0000 -0.0000
vn -0.0000 -0.0000 -1.0000
vn -0.0000 -0.0000 1.0000
vt 0.750000 0.062500
vt 1.000000 0.062500
vt 1.000000 0.125000
vt 0.750000 0.125000
vt 0.775000 0.093750
vt 0.975000 0.093750
s 0
usemtl cable
f 233/65/43 234/66/43 235/67/43 236/68/43
f 237/68/44 238/67/44 239/66/44 240/65/44
f 235/67/45 234/66/45 239/65/45 238/68/45
f 233/66/46 236/67/46 237/68/46 240/65/46
f 241/69/47 242/68/47 243/67/47 244/70/47
f 245/68/47 242/67/47 241/70/47 246/69/47
f 247/69/47 248/68/47 245/67/47 246/70/47
f 244/69/47 243/68/47 248/67/47 247/70/47
f 249/67/48 250/68/48 251/69/48 252/70/48
f 251/70/48 250/67/48 253/68/48 254/69/48
f 253/67/48 255/68/48 256/69/48 254/70/48
f 255/67/48 249/68/48 252/69/48 256/70/48
o down_centre_plug
v 0.687500 0.312500 0.687500
v 0.687500 0.312500 0.312500
v 0.687500 0.250000 0.687500
v 0.687500 0.250000 0.312500
v 0.312500 0.312500 0.687500
v 0.312500 0.312500 0.312500
v 0.312500 0.250000 0.687500
v 0.312500 0.250000 0.312500
vn 1.0000 -0.0000 -0.0000
vn -1.0000 -0.0000 -0.0000
vn -0.0000 1.0000 -0.0000
vn -0.0000 -1.0000 -0.0000
vn -0.0000 -0.0000 1.0000
vn -0.0000 -0.0000 -1.0000
vt 0.968750 0.312500
vt 0.968750 0.343750
vt 0.781250 0.343750
vt 0.781250 0.312500
vt 0.968750 0.531250
vt 0.968750 0.562500
vt 0.781250 0.562500
vt 0.781250 0.531250
s 0
usemtl cable
f 260/71/49 258/72/49 257/73/49 259/74/49
f 263/75/50 261/76/50 262/77/50 264/78/50
f 257/72/51 258/75/51 262/78/51 261/73/51
f 260/72/52 259/75/52 263/78/52 264/73/52
f 259/75/53 257/76/53 261/77/53 263/78/53
f 264/71/54 262/72/54 258/73/54 260/74/54
o east_centre_plug
v 0.750000 0.687500 0.687500
v 0.750000 0.687500 0.312500
v 0.750000 0.312500 0.687500
v 0.750000 0.312500 0.312500
v 0.687500 0.687500 0.687500
v 0.687500 0.687500 0.312500
v 0.687500 0.312500 0.687500
v 0.687500 0.312500 0.312500
vn 1.0000 -0.0000 -0.0000
vn -1.0000 -0.0000 -0.0000
vn -0.0000 1.0000 -0.0000
vn -0.0000 -1.0000 -0.0000
vn -0.0000 -0.0000 1.0000
vn -0.0000 -0.0000 -1.0000
vt 0.968750 0.343750
vt 0.968750 0.531250
vt 0.781250 0.531250
vt 0.781250 0.343750
vt 1.000000 0.343750
vt 1.000000 0.531250
s 0
usemtl cable
f 268/79/55 266/80/55 265/81/55 267/82/55
f 271/79/56 269/80/56 270/81/56 272/82/56
f 265/83/57 266/84/57 270/80/57 269/79/57
f 268/83/58 267/84/58 271/80/58 272/79/58
f 267/83/59 265/84/59 269/80/59 271/79/59
f 272/83/60 270/84/60 266/80/60 268/79/60
o elec_xMax
v 0.750000 0.187500 0.187500
v 0.750000 0.812500 0.187500
v 1.031250 0.812500 0.187500
v 1.031250 0.187500 0.187500
v 1.031250 0.187500 0.812500
v 1.031250 0.812500 0.812500
v 0.750000 0.812500 0.812500
v 0.750000 0.187500 0.812500
vn -0.0000 -0.0000 -1.0000
vn -0.0000 -0.0000 1.0000
vn -0.0000 1.0000 -0.0000
vn -0.0000 -1.0000 -0.0000
vn 1.0000 -0.0000 -0.0000
vn -1.0000 -0.0000 -0.0000
vt 1.000000 0.687500
vt 1.000000 1.000000
vt 0.875000 1.000000
vt 0.875000 0.687500
vt 0.812500 0.687500
vt 0.812500 1.000000
vt 0.500000 1.000000
vt 0.500000 0.687500
s 0
usemtl cable
f 273/85/61 274/86/61 275/87/61 276/88/61
f 277/85/62 278/86/62 279/87/62 280/88/62
f 275/88/63 274/85/63 279/86/63 278/87/63
f 273/85/64 276/88/64 277/87/64 280/86/64
f 276/89/65 275/90/65 278/91/65 277/92/65
f 280/89/66 279/90/66 274/91/66 273/92/66
o elec_xMin
v -0.031250 0.812500 0.187500
v 0.250000 0.812500 0.187500
v 0.250000 0.187500 0.187500
v -0.031250 0.187500 0.187500
v 0.250000 0.812500 0.812500
v -0.031250 0.812500 0.812500
v -0.031250 0.187500 0.812500
v 0.250000 0.187500 0.812500
vn -0.0000 -0.0000 -1.0000
vn -0.0000 -0.0000 1.0000
vn -0.0000 1.0000 -0.0000
vn -0.0000 -1.0000 -0.0000
vn -1.0000 -0.0000 -0.0000
vn 1.0000 -0.0000 -0.0000
vt 0.875000 1.000000
vt 1.000000 1.000000
vt 1.000000 0.687500
vt 0.875000 0.687500
vt 0.500000 1.000000
vt 0.812500 1.000000
vt 0.812500 0.687500
vt 0.500000 0.687500
s 0
usemtl cable
f 281/93/67 282/94/67 283/95/67 284/96/67
f 285/93/68 286/94/68 287/95/68 288/96/68
f 285/94/69 282/95/69 281/96/69 286/93/69
f 287/93/70 284/96/70 283/95/70 288/94/70
f 286/97/71 281/98/71 284/99/71 287/100/71
f 282/97/72 285/98/72 288/99/72 283/100/72
o elec_yMax
v 0.812500 0.750000 0.187500
v 0.187500 0.750000 0.187500
v 0.187500 1.031250 0.187500
v 0.812500 1.031250 0.187500
v 0.812500 1.031250 0.812500
v 0.187500 1.031250 0.812500
v 0.187500 0.750000 0.812500
v 0.812500 0.750000 0.812500
vn -0.0000 -0.0000 -1.0000
vn -0.0000 -0.0000 1.0000
vn -1.0000 -0.0000 -0.0000
vn 1.0000 -0.0000 -0.0000
vn -0.0000 1.0000 -0.0000
vn -0.0000 -1.0000 -0.0000
vt 1.000000 0.687500
vt 1.000000 1.000000
vt 0.875000 1.000000
vt 0.875000 0.687500
vt 0.812500 0.687500
vt 0.812500 1.000000
vt 0.500000 1.000000
vt 0.500000 0.687500
s 0
usemtl cable
f 289/101/73 290/102/73 291/103/73 292/104/73
f 293/101/74 294/102/74 295/103/74 296/104/74
f 291/104/75 290/101/75 295/102/75 294/103/75
f 289/101/76 292/104/76 293/103/76 296/102/76
f 292/105/77 291/106/77 294/107/77 293/108/77
f 296/105/78 295/106/78 290/107/78 289/108/78
o elec_yMin
v 0.187500 -0.031250 0.187500
v 0.187500 0.250000 0.187500
v 0.812500 0.250000 0.187500
v 0.812500 -0.031250 0.187500
v 0.187500 0.250000 0.812500
v 0.187500 -0.031250 0.812500
v 0.812500 -0.031250 0.812500
v 0.812500 0.250000 0.812500
vn -0.0000 -0.0000 -1.0000
vn -0.0000 -0.0000 1.0000
vn -1.0000 -0.0000 -0.0000
vn 1.0000 -0.0000 -0.0000
vn -0.0000 -1.0000 -0.0000
vn -0.0000 1.0000 -0.0000
vt 0.875000 1.000000
vt 1.000000 1.000000
vt 1.000000 0.687500
vt 0.875000 0.687500
vt 0.500000 1.000000
vt 0.812500 1.000000
vt 0.812500 0.687500
vt 0.500000 0.687500
s 0
usemtl cable
f 297/109/79 298/110/79 299/111/79 300/112/79
f 301/109/80 302/110/80 303/111/80 304/112/80
f 301/110/81 298/111/81 297/112/81 302/109/81
f 303/109/82 300/112/82 299/111/82 304/110/82
f 302/113/83 297/114/83 300/115/83 303/116/83
f 298/113/84 301/114/84 304/115/84 299/116/84
o elec_zMax
v 0.812500 0.187500 0.750000
v 0.812500 0.812500 0.750000
v 0.812500 0.812500 1.031250
v 0.812500 0.187500 1.031250
v 0.187500 0.187500 1.031250
v 0.187500 0.812500 1.031250
v 0.187500 0.812500 0.750000
v 0.187500 0.187500 0.750000
vn 1.0000 -0.0000 -0.0000
vn -1.0000 -0.0000 -0.0000
vn -0.0000 1.0000 -0.0000
vn -0.0000 -1.0000 -0.0000
vn -0.0000 -0.0000 1.0000
vn -0.0000 -0.0000 -1.0000
vt 1.000000 0.687500
vt 1.000000 1.000000
vt 0.875000 1.000000
vt 0.875000 0.687500
vt 0.812500 0.687500
vt 0.812500 1.000000
vt 0.500000 1.000000
vt 0.500000 0.687500
s 0
usemtl cable
f 305/117/85 306/118/85 307/119/85 308/120/85
f 309/117/86 310/118/86 311/119/86 312/120/86
f 307/120/87 306/117/87 311/118/87 310/119/87
f 305/117/88 308/120/88 309/119/88 312/118/88
f 308/121/89 307/122/89 310/123/89 309/124/89
f 312/121/90 311/122/90 306/123/90 305/124/90
o elec_zMin
v 0.812500 0.812500 -0.031250
v 0.812500 0.812500 0.250000
v 0.812500 0.187500 0.250000
v 0.812500 0.187500 -0.031250
v 0.187500 0.812500 0.250000
v 0.187500 0.812500 -0.031250
v 0.187500 0.187500 -0.031250
v 0.187500 0.187500 0.250000
vn 1.0000 -0.0000 -0.0000
vn -1.0000 -0.0000 -0.0000
vn -0.0000 1.0000 -0.0000
vn -0.0000 -1.0000 -0.0000
vn -0.0000 -0.0000 -1.0000
vn -0.0000 -0.0000 1.0000
vt 0.875000 1.000000
vt 1.000000 1.000000
vt 1.000000 0.687500
vt 0.875000 0.687500
vt 0.500000 1.000000
vt 0.812500 1.000000
vt 0.812500 0.687500
vt 0.500000 0.687500
s 0
usemtl cable
f 313/125/91 314/126/91 315/127/91 316/128/91
f 317/125/92 318/126/92 319/127/92 320/128/92
f 317/126/93 314/127/93 313/128/93 318/125/93
f 319/125/94 316/128/94 315/127/94 320/126/94
f 318/129/95 313/130/95 316/131/95 319/132/95
f 314/129/96 317/130/96 320/131/96 315/132/96
o north_centre_plug
v 0.687500 0.687500 0.312500
v 0.687500 0.687500 0.250000
v 0.687500 0.312500 0.312500
v 0.687500 0.312500 0.250000
v 0.312500 0.687500 0.312500
v 0.312500 0.687500 0.250000
v 0.312500 0.312500 0.312500
v 0.312500 0.312500 0.250000
vn 1.0000 -0.0000 -0.0000
vn -1.0000 -0.0000 -0.0000
vn -0.0000 1.0000 -0.0000
vn -0.0000 -1.0000 -0.0000
vn -0.0000 -0.0000 1.0000
vn -0.0000 -0.0000 -1.0000
vt 0.781250 0.343750
vt 0.781250 0.531250
vt 0.750000 0.531250
vt 0.750000 0.343750
vt 0.968750 0.531250
vt 0.968750 0.562500
vt 0.781250 0.562500
vt 0.968750 0.343750
s 0
usemtl cable
f 324/133/97 322/134/97 321/135/97 323/136/97
f 327/133/98 325/134/98 326/135/98 328/136/98
f 321/137/99 322/138/99 326/139/99 325/134/99
f 324/137/100 323/138/100 327/139/100 328/134/100
f 323/140/101 321/137/101 325/134/101 327/133/101
f 328/140/102 326/137/102 322/134/102 324/133/102
o pipe_down
v 0.250000 -0.000125 0.250000
v 0.250000 -0.000125 0.750000
v 0.750000 -0.000125 0.750000
v 0.750000 -0.000125 0.250000
v 0.250000 0.250000 0.250000
v 0.250000 0.250000 0.750000
v 0.750000 0.250000 0.750000
v 0.750000 0.250000 0.250000
vn 1.0000 -0.0000 -0.0000
vn -0.0000 -0.0000 -1.0000
vn -0.0000 -0.0000 1.0000
vn -1.0000 -0.0000 -0.0000
vt 0.250000 0.093750
vt 0.250000 0.218812
vt 0.000000 0.218812
vt 0.000000 0.093750
s 0
usemtl cable
f 332/141/103 336/142/103 335/143/103 331/144/103
f 332/144/104 329/141/104 333/142/104 336/143/104
f 331/141/105 335/142/105 334/143/105 330/144/105
f 329/144/106 330/141/106 334/142/106 333/143/106
o pipe_east
v -0.000126 0.750000 0.750000
v -0.000125 0.250000 0.750000
v -0.000125 0.250000 0.250000
v -0.000126 0.750000 0.250000
v 0.249999 0.750000 0.750000
v 0.250000 0.250000 0.750000
v 0.250000 0.250000 0.250000
v 0.249999 0.750000 0.250000
vn -0.0000 -0.0000 -1.0000
vn -0.0000 1.0000 -0.0000
vn -0.0000 -1.0000 -0.0000
vn -0.0000 -0.0000 1.0000
vt 0.250000 0.093750
vt 0.250000 0.218812
vt 0.000000 0.218813
vt 0.000000 0.093750
vt 0.000000 0.218812
s 0
usemtl cable
f 340/145/107 344/146/107 343/147/107 339/148/107
f 340/148/108 337/145/108 341/146/108 344/149/108
f 339/145/109 343/146/109 342/149/109 338/148/109
f 337/148/110 338/145/110 342/146/110 341/149/110
o pipe_north
v 0.250000 0.250000 1.000125
v 0.250000 0.750000 1.000125
v 0.750000 0.750000 1.000125
v 0.750000 0.250000 1.000125
v 0.250000 0.250000 0.750000
v 0.250000 0.750000 0.750000
v 0.750000 0.750000 0.750000
v 0.750000 0.250000 0.750000
vn 1.0000 -0.0000 -0.0000
vn -0.0000 -1.0000 -0.0000
vn -0.0000 1.0000 -0.0000
vn -1.0000 -0.0000 -0.0000
vt 0.250000 0.093750
vt 0.250000 0.218812
vt 0.000000 0.218812
vt 0.000000 0.093750
s 0
usemtl cable
f 348/150/111 352/151/111 351/152/111 347/153/111
f 348/153/112 345/150/112 349/151/112 352/152/112
f 347/150/113 351/151/113 350/152/113 346/153/113
f 345/153/114 346/150/114 350/151/114 349/152/114
o pipe_south
v 0.250000 0.750000 -0.000000
v 0.250000 0.250000 -0.000000
v 0.750000 0.250000 -0.000000
v 0.750000 0.750000 -0.000000
v 0.250000 0.750000 0.250000
v 0.250000 0.250000 0.250000
v 0.750000 0.250000 0.250000
v 0.750000 0.750000 0.250000
vn 1.0000 -0.0000 -0.0000
vn -0.0000 1.0000 -0.0000
vn -0.0000 -1.0000 -0.0000
vn -1.0000 -0.0000 -0.0000
vt 0.250000 0.093750
vt 0.250000 0.217938
vt 0.000000 0.217938
vt 0.000000 0.093750
s 0
usemtl cable
f 356/154/115 360/155/115 359/156/115 355/157/115
f 356/157/116 353/154/116 357/155/116 360/156/116
f 355/154/117 359/155/117 358/156/117 354/157/117
f 353/157/118 354/154/118 358/155/118 357/156/118
o pipe_up
v 0.250000 1.000125 0.750000
v 0.250000 1.000125 0.250000
v 0.750000 1.000125 0.250000
v 0.750000 1.000125 0.750000
v 0.250000 0.750000 0.750000
v 0.250000 0.750000 0.250000
v 0.750000 0.750000 0.250000
v 0.750000 0.750000 0.750000
vn 1.0000 -0.0000 -0.0000
vn -0.0000 -0.0000 1.0000
vn -0.0000 -0.0000 -1.0000
vn -1.0000 -0.0000 -0.0000
vt 0.250000 0.093750
vt 0.250000 0.218812
vt 0.000000 0.218812
vt 0.000000 0.093750
s 0
usemtl cable
f 364/158/119 368/159/119 367/160/119 363/161/119
f 364/161/120 361/158/120 365/159/120 368/160/120
f 363/158/121 367/159/121 366/160/121 362/161/121
f 361/161/122 362/158/122 366/159/122 365/160/122
o pipe_west
v 1.000125 0.750000 0.250000
v 1.000125 0.250000 0.250000
v 1.000125 0.250000 0.750000
v 1.000125 0.750000 0.750000
v 0.750000 0.750000 0.250000
v 0.750000 0.250000 0.250000
v 0.750000 0.250000 0.750000
v 0.750000 0.750000 0.750000
vn -0.0000 -0.0000 1.0000
vn -0.0000 1.0000 -0.0000
vn -0.0000 -1.0000 -0.0000
vn -0.0000 -0.0000 -1.0000
vt 0.250000 0.093750
vt 0.250000 0.218812
vt 0.000000 0.218812
vt 0.000000 0.093750
s 0
usemtl cable
f 372/162/123 376/163/123 375/164/123 371/165/123
f 372/165/124 369/162/124 373/163/124 376/164/124
f 371/162/125 375/163/125 374/164/125 370/165/125
f 369/165/126 370/162/126 374/163/126 373/164/126
o pipe_x
v 0.000000 0.750000 0.750000
v 0.000000 0.250000 0.750000
v 1.000000 0.250000 0.750000
v 1.000000 0.750000 0.750000
v 0.000000 0.250000 0.250000
v 1.000000 0.250000 0.250000
v 0.000000 0.750000 0.250000
v 1.000000 0.750000 0.250000
vn -0.0000 -0.0000 1.0000
vn -0.0000 -1.0000 -0.0000
vn -0.0000 1.0000 -0.0000
vn -0.0000 -0.0000 -1.0000
vt 0.000000 0.062500
vt 0.250000 0.062500
vt 0.250000 0.562500
vt 0.000000 0.562500
s 0
usemtl cable
f 377/166/127 378/167/127 379/168/127 380/169/127
f 381/167/128 382/168/128 379/169/128 378/166/128
f 383/166/129 377/167/129 380/168/129 384/169/129
f 383/167/130 384/168/130 382/169/130 381/166/130
o pipe_y
v 0.250000 0.000000 0.250000
v 0.250000 0.000000 0.750000
v 0.250000 1.000000 0.750000
v 0.250000 1.000000 0.250000
v 0.750000 0.000000 0.750000
v 0.750000 1.000000 0.750000
v 0.750000 0.000000 0.250000
v 0.750000 1.000000 0.250000
vn -1.0000 -0.0000 -0.0000
vn -0.0000 -0.0000 1.0000
vn -0.0000 -0.0000 -1.0000
vn 1.0000 -0.0000 -0.0000
vt 0.000000 0.062500
vt 0.250000 0.062500
vt 0.250000 0.562500
vt 0.000000 0.562500
s 0
usemtl cable
f 385/170/131 386/171/131 387/172/131 388/173/131
f 389/171/132 390/172/132 387/173/132 386/170/132
f 391/170/133 385/171/133 388/172/133 392/173/133
f 391/171/134 392/172/134 390/173/134 389/170/134
o pipe_z
v 0.750000 0.750000 -0.000000
v 0.750000 0.750000 1.000000
v 0.750000 0.250000 1.000000
v 0.750000 0.250000 -0.000000
v 0.250000 0.750000 -0.000000
v 0.250000 0.750000 1.000000
v 0.250000 0.250000 -0.000000
v 0.250000 0.250000 1.000000
vn 1.0000 -0.0000 -0.0000
vn -0.0000 1.0000 -0.0000
vn -1.0000 -0.0000 -0.0000
vn -0.0000 -1.0000 -0.0000
vt 0.250000 0.031250
vt 0.250000 0.531250
vt 0.000000 0.531250
vt 0.000000 0.031250
s 0
usemtl cable
f 393/174/135 394/175/135 395/176/135 396/177/135
f 393/177/136 397/174/136 398/175/136 394/176/136
f 397/177/137 399/174/137 400/175/137 398/176/137
f 396/174/138 395/175/138 400/176/138 399/177/138
o south_centre_plug
v 0.687500 0.687500 0.750000
v 0.687500 0.687500 0.687500
v 0.687500 0.312500 0.750000
v 0.687500 0.312500 0.687500
v 0.312500 0.687500 0.750000
v 0.312500 0.687500 0.687500
v 0.312500 0.312500 0.750000
v 0.312500 0.312500 0.687500
vn 1.0000 -0.0000 -0.0000
vn -1.0000 -0.0000 -0.0000
vn -0.0000 1.0000 -0.0000
vn -0.0000 -1.0000 -0.0000
vn -0.0000 -0.0000 1.0000
vn -0.0000 -0.0000 -1.0000
vt 0.781250 0.343750
vt 0.781250 0.531250
vt 0.750000 0.531250
vt 0.750000 0.343750
vt 0.968750 0.531250
vt 0.968750 0.562500
vt 0.781250 0.562500
vt 0.968750 0.343750
s 0
usemtl cable
f 404/178/139 402/179/139 401/180/139 403/181/139
f 407/178/140 405/179/140 406/180/140 408/181/140
f 401/182/141 402/183/141 406/184/141 405/179/141
f 404/182/142 403/183/142 407/184/142 408/179/142
f 403/185/143 401/182/143 405/179/143 407/178/143
f 408/185/144 406/182/144 402/179/144 404/178/144
o stopper
v 0.250000 0.000000 0.250000
v 0.250000 0.000000 0.750000
v 0.250000 0.750000 0.750000
v 0.250000 0.750000 0.250000
v 0.750000 0.000000 0.750000
v 0.750000 0.750000 0.750000
v 0.750000 0.000000 0.250000
v 0.750000 0.750000 0.250000
vn -1.0000 -0.0000 -0.0000
vn -0.0000 -0.0000 1.0000
vn -0.0000 -0.0000 -1.0000
vn 1.0000 -0.0000 -0.0000
vn -0.0000 1.0000 -0.0000
vt 0.000000 0.093750
vt 0.250000 0.093750
vt 0.250000 0.468750
vt 0.000000 0.468750
vt 0.250000 1.000000
vt 0.000000 1.000000
vt 0.000000 0.750000
vt 0.250000 0.750000
s 0
usemtl cable
f 409/186/145 410/187/145 411/188/145 412/189/145
f 413/187/146 414/188/146 411/189/146 410/186/146
f 415/186/147 409/187/147 412/188/147 416/189/147
f 415/187/148 416/188/148 414/189/148 413/186/148
f 416/190/149 412/191/149 411/192/149 414/193/149
o tcross
v 0.750000 0.000000 0.750000
v 0.750000 0.250000 0.750000
v 0.250000 0.250000 0.750000
v 0.250000 0.000000 0.750000
v 0.750000 0.750000 0.750000
v 0.750000 0.750000 0.250000
v 0.250000 0.750000 0.250000
v 0.250000 0.750000 0.750000
v 0.250000 0.000000 0.250000
v 0.250000 0.250000 0.250000
v 0.750000 0.000000 0.250000
v 0.750000 0.250000 0.250000
v 0.750000 0.750000 -0.000000
v 0.750000 0.250000 -0.000000
v 0.250000 0.750000 -0.000000
v 0.250000 0.250000 -0.000000
v 0.750000 0.750000 1.000000
v 0.750000 0.250000 1.000000
v 0.250000 0.750000 1.000000
v 0.250000 0.250000 1.000000
vn -0.0000 -0.0000 1.0000
vn -0.0000 1.0000 -0.0000
vn -1.0000 -0.0000 -0.0000
vn -0.0000 -0.0000 -1.0000
vn 1.0000 -0.0000 -0.0000
vn -0.0000 -1.0000 -0.0000
vt 0.250000 0.000000
vt 0.250000 0.125000
vt 0.000000 0.125000
vt 0.000000 0.000000
vt 0.250000 0.250000
vt 0.500000 0.000000
vt 0.500000 0.250000
vt 0.500000 0.750000
vt 0.500000 1.000000
vt 0.250000 1.000000
vt 0.250000 0.750000
vt 0.500000 0.375000
vt 0.500000 0.500000
vt 0.250000 0.500000
vt 0.250000 0.375000
s 0
usemtl cable
f 417/194/150 418/195/150 419/196/150 420/197/150
f 421/198/151 422/194/151 423/199/151 424/200/151
f 425/197/152 420/194/152 419/195/152 426/196/152
f 427/197/153 425/194/153 426/195/153 428/196/153
f 418/196/154 417/197/154 427/194/154 428/195/154
f 419/201/152 424/202/152 423/203/152 426/204/152
f 418/201/154 428/204/154 422/203/154 421/202/154
f 429/194/154 422/195/154 428/196/154 430/197/154
f 429/197/151 431/194/151 423/195/151 422/196/151
f 431/197/152 432/194/152 426/195/152 423/196/152
f 430/194/155 428/195/155 426/196/155 432/197/155
f 421/205/154 433/206/154 434/207/154 418/208/154
f 421/208/151 424/205/151 435/206/151 433/207/151
f 424/208/152 419/205/152 436/206/152 435/207/152
f 418/205/155 434/206/155 436/207/155 419/208/155
o tcross2
v 0.750000 0.000000 0.750000
v 0.750000 0.250000 0.750000
v 0.250000 0.250000 0.750000
v 0.250000 0.000000 0.750000
v 0.250000 0.000000 0.250000
v 0.250000 0.250000 0.250000
v 0.750000 0.000000 0.250000
v 0.750000 0.250000 0.250000
v 0.250000 0.750000 0.750000
v 0.250000 0.750000 0.250000
v 0.750000 0.750000 -0.000000
v 0.750000 0.750000 0.250000
v 0.750000 0.250000 -0.000000
v 0.250000 0.750000 -0.000000
v 0.250000 0.250000 -0.000000
v 0.250000 0.250000 1.000000
v 0.250000 0.750000 1.000000
v 0.750000 0.250000 1.000000
v 0.750000 0.750000 0.750000
v 1.000000 0.250000 0.750000
v 1.000000 0.750000 0.750000
v 1.000000 0.250000 0.250000
v 1.000000 0.750000 0.250000
v 0.750000 0.750000 1.000000
vn -0.0000 -0.0000 1.0000
vn -1.0000 -0.0000 -0.0000
vn -0.0000 -0.0000 -1.0000
vn 1.0000 -0.0000 -0.0000
vn -0.0000 1.0000 -0.0000
vn -0.0000 -1.0000 -0.0000
vt 0.500000 0.000000
vt 0.500000 0.125000
vt 0.250000 0.125000
vt 0.250000 0.000000
vt 0.500000 0.750000
vt 0.500000 1.000000
vt 0.250000 1.000000
vt 0.250000 0.750000
vt 0.250000 0.281250
vt 0.500000 0.281250
vt 0.500000 0.406250
vt 0.250000 0.406250
s 0
usemtl cable
f 437/209/156 438/210/156 439/211/156 440/212/156
f 441/212/157 440/209/157 439/210/157 442/211/157
f 443/212/158 441/209/158 442/210/158 444/211/158
f 438/211/159 437/212/159 443/209/159 444/210/159
f 439/213/157 445/214/157 446/215/157 442/216/157
f 447/209/159 448/210/159 444/211/159 449/212/159
f 447/212/160 450/209/160 446/210/160 448/211/160
f 450/212/157 451/209/157 442/210/157 446/211/157
f 449/209/161 444/210/161 442/211/161 451/212/161
f 445/217/157 439/218/157 452/219/157 453/220/157
f 438/218/161 454/219/161 452/220/161 439/217/161
f 455/217/156 438/218/156 456/219/156 457/220/156
f 444/218/161 458/219/161 456/220/161 438/217/161
f 448/217/160 455/218/160 457/219/160 459/220/160
f 448/218/158 459/219/158 458/220/158 444/217/158
f 455/216/160 448/213/160 446/214/160 445/215/160
f 455/218/159 460/219/159 454/220/159 438/217/159
f 455/217/160 445/218/160 453/219/160 460/220/160
o tcross3
v 0.750000 0.000000 0.750000
v 0.750000 0.250000 0.750000
v 0.250000 0.250000 0.750000
v 0.250000 0.000000 0.750000
v 0.250000 0.000000 0.250000
v 0.250000 0.250000 0.250000
v 0.750000 0.000000 0.250000
v 0.750000 0.250000 0.250000
v 0.250000 0.750000 0.750000
v 0.250000 0.750000 0.250000
v 0.750000 0.750000 -0.000000
v 0.750000 0.750000 0.250000
v 0.750000 0.250000 -0.000000
v 0.250000 0.750000 -0.000000
v 0.250000 0.250000 -0.000000
v 0.250000 0.250000 1.000000
v 0.250000 0.750000 1.000000
v 0.750000 0.250000 1.000000
v 0.250000 1.000000 0.250000
v 0.250000 1.000000 0.750000
v 0.750000 1.000000 0.250000
v 0.750000 0.750000 0.750000
v 1.000000 0.250000 0.750000
v 1.000000 0.750000 0.750000
v 1.000000 0.250000 0.250000
v 1.000000 0.750000 0.250000
v 0.750000 0.750000 1.000000
v 0.750000 1.000000 0.750000
vn -0.0000 -0.0000 1.0000
vn -1.0000 -0.0000 -0.0000
vn -0.0000 -0.0000 -1.0000
vn 1.0000 -0.0000 -0.0000
vn -0.0000 1.0000 -0.0000
vn -0.0000 -1.0000 -0.0000
vt 0.500000 0.000000
vt 0.500000 0.125000
vt 0.250000 0.125000
vt 0.250000 0.000000
vt 0.500000 0.500000
vt 0.500000 0.750000
vt 0.250000 0.750000
vt 0.250000 0.500000
vt 0.250000 0.187500
vt 0.500000 0.187500
vt 0.500000 0.312500
vt 0.250000 0.312500
s 0
usemtl cable
f 461/221/162 462/222/162 463/223/162 464/224/162
f 465/224/163 464/221/163 463/222/163 466/223/163
f 467/224/164 465/221/164 466/222/164 468/223/164
f 462/223/165 461/224/165 467/221/165 468/222/165
f 463/225/163 469/226/163 470/227/163 466/228/163
f 471/221/165 472/222/165 468/223/165 473/224/165
f 471/224/166 474/221/166 470/222/166 472/223/166
f 474/224/163 475/221/163 466/222/163 470/223/163
f 473/221/167 468/222/167 466/223/167 475/224/167
f 469/229/163 463/230/163 476/231/163 477/232/163
f 462/230/167 478/231/167 476/232/167 463/229/167
f 479/232/163 470/229/163 469/230/163 480/231/163
f 481/232/164 472/229/164 470/230/164 479/231/164
f 482/229/162 462/230/162 483/231/162 484/232/162
f 468/230/167 485/231/167 483/232/167 462/229/167
f 472/229/166 482/230/166 484/231/166 486/232/166
f 472/230/164 486/231/164 485/232/164 468/229/164
f 482/229/166 469/230/166 477/231/166 487/232/166
f 482/230/165 487/231/165 478/232/165 462/229/165
f 488/231/162 480/232/162 469/229/162 482/230/162
f 481/231/165 488/232/165 482/229/165 472/230/165
o tcurve
v 0.250000 0.000000 0.250000
v 0.250000 0.000000 0.750000
v 0.250000 0.250000 0.750000
v 0.250000 0.250000 0.250000
v 0.750000 0.000000 0.250000
v 0.750000 0.250000 0.250000
v 0.750000 0.000000 0.750000
v 0.750000 0.250000 0.750000
v 0.250000 0.750000 -0.000000
v 0.250000 0.250000 -0.000000
v 0.250000 0.750000 0.250000
v 0.750000 0.250000 -0.000000
v 0.250000 0.750000 0.750000
v 0.750000 0.750000 0.750000
v 0.750000 0.750000 0.250000
v 1.000000 0.750000 0.750000
v 1.000000 0.750000 0.250000
v 1.000000 0.250000 0.750000
v 0.750000 0.750000 -0.000000
v 1.000000 0.250000 0.250000
vn -1.0000 -0.0000 -0.0000
vn -0.0000 -0.0000 -1.0000
vn -0.0000 -0.0000 1.0000
vn -0.0000 -1.0000 -0.0000
vn 1.0000 -0.0000 -0.0000
vn -0.0000 1.0000 -0.0000
vt 0.250000 0.000000
vt 0.500000 0.000000
vt 0.500000 0.125000
vt 0.250000 0.125000
vt 0.250000 0.500000
vt 0.250000 0.750000
vt 0.000000 0.750000
vt 0.000000 0.500000
vt 0.250000 0.375000
vt 0.000000 0.375000
vt 0.500000 0.281250
vt 0.250000 0.281250
vt 0.250000 0.406250
vt 0.500000 0.406250
s 0
usemtl cable
f 489/233/168 490/234/168 491/235/168 492/236/168
f 493/233/169 489/234/169 492/235/169 494/236/169
f 495/234/170 496/235/170 491/236/170 490/233/170
f 497/233/168 498/234/168 492/235/168 499/236/168
f 500/234/171 494/235/171 492/236/171 498/233/171
f 491/237/168 501/238/168 499/239/168 492/240/168
f 493/234/172 494/235/172 496/236/172 495/233/172
f 502/239/173 503/240/173 499/237/173 501/238/173
f 503/241/173 502/242/173 504/240/173 505/237/173
f 502/243/170 496/244/170 506/245/170 504/246/170
f 507/234/172 503/235/172 494/236/172 500/233/172
f 507/233/173 497/234/173 499/235/173 503/236/173
f 491/237/170 496/240/170 502/239/170 501/238/170
f 503/244/169 505/245/169 508/246/169 494/243/169
f 494/244/171 508/245/171 506/246/171 496/243/171
o up_centre_plug
v 0.687500 0.750000 0.687500
v 0.687500 0.750000 0.312500
v 0.687500 0.687500 0.687500
v 0.687500 0.687500 0.312500
v 0.312500 0.750000 0.687500
v 0.312500 0.750000 0.312500
v 0.312500 0.687500 0.687500
v 0.312500 0.687500 0.312500
vn 1.0000 -0.0000 -0.0000
vn -1.0000 -0.0000 -0.0000
vn -0.0000 1.0000 -0.0000
vn -0.0000 -1.0000 -0.0000
vn -0.0000 -0.0000 1.0000
vn -0.0000 -0.0000 -1.0000
vt 0.968750 0.312500
vt 0.968750 0.343750
vt 0.781250 0.343750
vt 0.781250 0.312500
vt 0.968750 0.531250
vt 0.781250 0.531250
vt 0.968750 0.562500
vt 0.781250 0.562500
s 0
usemtl cable
f 512/247/174 510/248/174 509/249/174 511/250/174
f 515/247/175 513/248/175 514/249/175 516/250/175
f 509/248/176 510/251/176 514/252/176 513/249/176
f 512/248/177 511/251/177 515/252/177 516/249/177
f 511/247/178 509/248/178 513/249/178 515/250/178
f 516/251/179 514/253/179 510/254/179 512/252/179
o west_centre_plug
v 0.312500 0.687500 0.687500
v 0.312500 0.687500 0.312500
v 0.312500 0.312500 0.687500
v 0.312500 0.312500 0.312500
v 0.250000 0.687500 0.687500
v 0.250000 0.687500 0.312500
v 0.250000 0.312500 0.687500
v 0.250000 0.312500 0.312500
vn 1.0000 -0.0000 -0.0000
vn -1.0000 -0.0000 -0.0000
vn -0.0000 1.0000 -0.0000
vn -0.0000 -1.0000 -0.0000
vn -0.0000 -0.0000 1.0000
vn -0.0000 -0.0000 -1.0000
vt 0.968750 0.343750
vt 0.968750 0.531250
vt 0.781250 0.531250
vt 0.781250 0.343750
vt 1.000000 0.343750
vt 1.000000 0.531250
s 0
usemtl cable
f 520/255/180 518/256/180 517/257/180 519/258/180
f 523/255/181 521/256/181 522/257/181 524/258/181
f 517/259/182 518/260/182 522/256/182 521/255/182
f 520/259/183 519/260/183 523/256/183 524/255/183
f 519/259/184 517/260/184 521/256/184 523/255/184
f 524/259/185 522/260/185 518/256/185 520/255/185
