# Made in Blockbench 4.11.1
mtllib metal_detector.mtl

o drill_base
v 0.3125 0.6875 1
v 0.3125 0.6875 0.875
v 0.3125 0.3125 0.875
v 0.3125 0.3125 1
v 0.6875 0.6875 1
v 0.6875 0.3125 1
v 0.6875 0.6875 0.875
v 0.6875 0.3125 0.875
v 0.6875 0.3125 0
v 0.6875 0.6875 0
v 0.6875 0.6875 0.125
v 0.6875 0.3125 0.125
v 0.3125 0.6875 0.125
v 0.3125 0.6875 0
v 0.3125 0.3125 0
v 0.3125 0.3125 0.125
v 0 0.6875 0.6875
v 0 0.6875 0.3125
v 0 0.3125 0.3125
v 0 0.3125 0.6875
v 0.125 0.6875 0.3125
v 0.125 0.3125 0.3125
v 0.125 0.6875 0.6875
v 0.125 0.3125 0.6875
v 0 0.25 1
v 0 0.25 0
v 0 0 0
v 0 0 1
v 1 0.25 0
v 1 0 0
v 1 0.25 1
v 1 0 1
v 0.125 0.75 0.875
v 0.125 0.75 0.125
v 0.125 0.25 0.125
v 0.125 0.25 0.875
v 0.875 0.75 0.125
v 0.875 0.25 0.125
v 0.875 0.75 0.875
v 0.875 0.25 0.875
v 1 1 0
v 1 0.999999 1
v 1 0.75 1
v 1 0.75 0
v 0 0.75 1
v 0 0.75 0
v 0 1 0
v 0 0.999999 1
v 0.875 0.6875 0.3125
v 1 0.6875 0.3125
v 1 0.3125 0.3125
v 0.875 0.3125 0.3125
v 1 0.6875 0.6875
v 0.875 0.6875 0.6875
v 0.875 0.3125 0.6875
v 1 0.3125 0.6875
v 1 1.75 1
v 1 1.75 0
v 1 1 1
v 1 1 0
v 0 1.75 1
v 0 1.75 0
v 0 1 1
v 0 1 0
v 1.1875 1.5625 1.1875
v 1.1875 1.5625 -0.1875
v 1.1875 1.0625 1.1875
v 1.1875 1.0625 -0.1875
v -0.1875 1.5625 1.1875
v -0.1875 1.5625 -0.1875
v -0.1875 1.0625 1.1875
v -0.1875 1.0625 -0.1875
vt 0.125 1
vt 0.09375 1
vt 0.09375 0.90625
vt 0.125 0.90625
vt 0.09375 1
vt 0 1
vt 0 0.90625
vt 0.09375 0.90625
vt 0.09375 1
vt 0.09375 0.90625
vt 0.125 0.90625
vt 0.125 1
vt 0.125 1
vt 0.09375 1
vt 0.09375 0.90625
vt 0.125 0.90625
vt 0.125 0.90625
vt 0.125 1
vt 0.09375 1
vt 0.09375 0.90625
vt 0.125 1
vt 0.09375 1
vt 0.09375 0.90625
vt 0.125 0.90625
vt 0.09375 1
vt 0.09375 0.90625
vt 0.125 0.90625
vt 0.125 1
vt 0.125 1
vt 0.09375 1
vt 0.09375 0.90625
vt 0.125 0.90625
vt 0.09375 1
vt 0 1
vt 0 0.90625
vt 0.09375 0.90625
vt 0.125 1
vt 0.09375 1
vt 0.09375 0.90625
vt 0.125 0.90625
vt 0.125 1
vt 0.09375 1
vt 0.09375 0.90625
vt 0.125 0.90625
vt 0.09375 0.90625
vt 0.125 0.90625
vt 0.125 1
vt 0.09375 1
vt 0.09375 1
vt 0.09375 0.90625
vt 0.125 0.90625
vt 0.125 1
vt 0.25 0.828125
vt 0 0.828125
vt 0 0.765625
vt 0.25 0.765625
vt 0.25 0.828125
vt 0 0.828125
vt 0 0.765625
vt 0.25 0.765625
vt 0.25 0.828125
vt 0 0.828125
vt 0 0.765625
vt 0.25 0.765625
vt 0.25 0.828125
vt 0 0.828125
vt 0 0.765625
vt 0.25 0.765625
vt 0 0.5
vt 0 0.25
vt 0.25 0.25
vt 0.25 0.5
vt 0.25 0.5
vt 0.25 0.75
vt 0 0.75
vt 0 0.5
vt 0.328125 1
vt 0.140625 1
vt 0.140625 0.875
vt 0.328125 0.875
vt 0.328125 1
vt 0.140625 1
vt 0.140625 0.875
vt 0.328125 0.875
vt 0.328125 1
vt 0.140625 1
vt 0.140625 0.875
vt 0.328125 0.875
vt 0.328125 1
vt 0.140625 1
vt 0.140625 0.875
vt 0.328125 0.875
vt 1 0
vt 1 0.1875
vt 0.8125 0.1875
vt 0.8125 0
vt 0.25 0.828125
vt 0 0.828125
vt 0 0.765625
vt 0.25 0.765625
vt 0 0.75
vt 0 0.5
vt 0.25 0.5
vt 0.25 0.75
vt 0.125 0.90625
vt 0.125 1
vt 0.09375 1
vt 0.09375 0.90625
vt 0.09375 0.90625
vt 0.09375 1
vt 0 1
vt 0 0.90625
vt 0.25 0.828125
vt 0 0.828125
vt 0 0.765625
vt 0.25 0.765625
vt 0.25 0.828125
vt 0 0.828125
vt 0 0.765625
vt 0.25 0.765625
vt 0.25 0.828125
vt 0 0.828125
vt 0 0.765625
vt 0.25 0.765625
vt 0.25 0.5
vt 0.25 0.75
vt 0 0.75
vt 0 0.5
vt 0.125 1
vt 0.09375 1
vt 0.09375 0.90625
vt 0.125 0.90625
vt 0.125 1
vt 0.09375 1
vt 0.09375 0.90625
vt 0.125 0.90625
vt 0.125 1
vt 0.09375 1
vt 0.09375 0.90625
vt 0.125 0.90625
vt 0.09375 1
vt 0.09375 0.90625
vt 0.125 0.90625
vt 0.125 1
vt 0.359375 0.765625
vt 0.359375 0.859375
vt 0.265625 0.859375
vt 0.265625 0.765625
vt 0.34375 0.03125
vt 0.34375 0.21875
vt 0.09375 0.21875
vt 0.09375 0.03125
vt 0.34375 0.03125
vt 0.34375 0.21875
vt 0.09375 0.21875
vt 0.09375 0.03125
vt 0 0.5
vt 0.25 0.5
vt 0.25 0.75
vt 0 0.75
vt 0.4375 0
vt 0.4375 0.25
vt 0.1875 0.25
vt 0.1875 0
vt 0.34375 0.03125
vt 0.34375 0.21875
vt 0.09375 0.21875
vt 0.09375 0.03125
vt 0.34375 0.03125
vt 0.34375 0.21875
vt 0.09375 0.21875
vt 0.09375 0.03125
vt 0.59375 0.625
vt 0.59375 0.75
vt 0.25 0.75
vt 0.25 0.625
vt 0.59375 0.625
vt 0.59375 0.75
vt 0.25 0.75
vt 0.25 0.625
vt 0.59375 0.265625
vt 0.59375 0.609375
vt 0.25 0.609375
vt 0.25 0.265625
vt 0.25 0.265625
vt 0.59375 0.265625
vt 0.59375 0.609375
vt 0.25 0.609375
vt 0.25 0.625
vt 0.25 0.75
vt 0.59375 0.75
vt 0.59375 0.625
vt 0.25 0.625
vt 0.25 0.75
vt 0.59375 0.75
vt 0.59375 0.625
vn -1 0 0
vn 0 0 1
vn 0 1 0
vn 0 -1 0
vn 1 0 0
vn -1 0 0
vn 0 1 0
vn 0 -1 0
vn -1 0 0
vn 0 0 -1
vn 0 0 1
vn 0 1 0
vn 0 -1 0
vn -1 0 0
vn 0 0 -1
vn 1 0 0
vn 0 0 1
vn 0 -1 0
vn 0 1 0
vn -1 0 0
vn 0 0 -1
vn 1 0 0
vn 0 0 1
vn 0 1 0
vn 1 0 0
vn 0 -1 0
vn 1 0 0
vn 0 0 -1
vn -1 0 0
vn 0 0 -1
vn 0 0 1
vn 0 0.9999999999992188 0.0000012499999999517014
vn 0 0 -1
vn 0 0 1
vn 0 1 0
vn 0 -1 0
vn 1 0 0
vn 1 0 0
vn -1 0 0
vn 0 1 0
vn 0 -1 0
vn 0 0 1
vn 0 0 -1
vn 1 0 0
vn -1 0 0
vn 0 1 0
vn 0 -1 0
vn 0 0 1
vn 0 0 -1
usemtl m_7eba529e-3e2e-674e-b9a0-3b051702c54e
f 1/1/1 2/2/1 3/3/1 4/4/1
f 5/5/2 1/6/2 4/7/2 6/8/2
f 1/9/3 5/10/3 7/11/3 2/12/3
f 4/13/4 3/14/4 8/15/4 6/16/4
f 9/17/5 10/18/5 11/19/5 12/20/5
f 13/21/6 14/22/6 15/23/6 16/24/6
f 13/25/7 11/26/7 10/27/7 14/28/7
f 16/29/8 15/30/8 9/31/8 12/32/8
f 17/33/9 18/34/9 19/35/9 20/36/9
f 18/37/10 21/38/10 22/39/10 19/40/10
f 23/41/11 17/42/11 20/43/11 24/44/11
f 17/45/12 23/46/12 21/47/12 18/48/12
f 20/49/13 19/50/13 22/51/13 24/52/13
f 25/53/14 26/54/14 27/55/14 28/56/14
f 26/57/15 29/58/15 30/59/15 27/60/15
f 29/61/16 31/62/16 32/63/16 30/64/16
f 31/65/17 25/66/17 28/67/17 32/68/17
f 28/69/18 27/70/18 30/71/18 32/72/18
f 31/73/19 29/74/19 26/75/19 25/76/19
f 33/77/20 34/78/20 35/79/20 36/80/20
f 34/81/21 37/82/21 38/83/21 35/84/21
f 37/85/22 39/86/22 40/87/22 38/88/22
f 39/89/23 33/90/23 36/91/23 40/92/23
f 39/93/24 37/94/24 34/95/24 33/96/24
f 41/97/25 42/98/25 43/99/25 44/100/25
f 45/101/26 46/102/26 44/103/26 43/104/26
f 8/105/27 7/106/27 5/107/27 6/108/27
f 15/109/28 14/110/28 10/111/28 9/112/28
f 48/113/29 47/114/29 46/115/29 45/116/29
f 47/117/30 41/118/30 44/119/30 46/120/30
f 42/121/31 48/122/31 45/123/31 43/124/31
f 42/125/32 41/126/32 47/127/32 48/128/32
f 49/129/33 50/130/33 51/131/33 52/132/33
f 53/133/34 54/134/34 55/135/34 56/136/34
f 50/137/35 49/138/35 54/139/35 53/140/35
f 55/141/36 52/142/36 51/143/36 56/144/36
f 51/145/37 50/146/37 53/147/37 56/148/37
f 60/149/38 58/150/38 57/151/38 59/152/38
f 63/153/39 61/154/39 62/155/39 64/156/39
f 57/157/40 58/158/40 62/159/40 61/160/40
f 60/161/41 59/162/41 63/163/41 64/164/41
f 59/165/42 57/166/42 61/167/42 63/168/42
f 64/169/43 62/170/43 58/171/43 60/172/43
f 68/173/44 66/174/44 65/175/44 67/176/44
f 71/177/45 69/178/45 70/179/45 72/180/45
f 65/181/46 66/182/46 70/183/46 69/184/46
f 68/185/47 67/186/47 71/187/47 72/188/47
f 67/189/48 65/190/48 69/191/48 71/192/48
f 72/193/49 70/194/49 66/195/49 68/196/49