# Blender 4.2.3 LTS
# www.blender.org
mtllib gravity_separator.mtl
o cube_selection
v 1.000000 1.000000 1.500000
v 0.000000 1.000000 -0.500000
v 1.500000 3.250000 1.500000
v 2.000000 4.500000 2.000000
v 2.000000 4.500000 1.500000
v 2.000000 0.500000 2.000000
v 2.000000 0.500000 1.500000
v 1.500000 4.500000 2.000000
v 1.500000 4.500000 1.500000
v 1.500000 0.500000 2.000000
v 1.500000 0.500000 1.500000
v 1.500000 5.750000 1.000000
v 1.000000 5.750000 1.000000
v 1.500000 5.750000 1.500000
v 1.000000 5.750000 1.500000
v 2.000000 3.250000 1.500000
v 2.000000 3.250000 2.000000
v 1.500000 3.250000 2.000000
v 1.500000 3.250000 -0.500000
v 2.000000 4.500000 -1.000000
v 1.500000 4.500000 -1.000000
v 2.000000 0.500000 -1.000000
v 1.500000 0.500000 -1.000000
v 2.000000 4.500000 -0.500000
v 1.500000 4.500000 -0.500000
v 2.000000 0.500000 -0.500000
v 1.500000 0.500000 -0.500000
v 1.000000 5.750000 -0.500000
v 1.000000 5.750000 -0.000000
v 1.500000 5.750000 -0.500000
v 1.500000 5.750000 -0.000000
v 1.500000 3.250000 -1.000000
v 2.000000 3.250000 -1.000000
v 2.000000 3.250000 -0.500000
v -0.500000 3.250000 -0.500000
v -1.000000 4.500000 -1.000000
v -1.000000 4.500000 -0.500000
v -1.000000 0.500000 -1.000000
v -1.000000 0.500000 -0.500000
v -0.500000 4.500000 -1.000000
v -0.500000 4.500000 -0.500000
v -0.500000 0.500000 -1.000000
v -0.500000 0.500000 -0.500000
v -0.500000 5.750000 -0.000000
v 0.000000 5.750000 -0.000000
v -0.500000 5.750000 -0.500000
v 0.000000 5.750000 -0.500000
v -1.000000 3.250000 -0.500000
v -1.000000 3.250000 -1.000000
v -0.500000 3.250000 -1.000000
v -0.500000 3.250000 1.500000
v -1.000000 4.500000 2.000000
v -0.500000 4.500000 2.000000
v -1.000000 0.500000 2.000000
v -0.500000 0.500000 2.000000
v -1.000000 4.500000 1.500000
v -0.500000 4.500000 1.500000
v -1.000000 0.500000 1.500000
v -0.500000 0.500000 1.500000
v 0.000000 5.750000 1.500000
v 0.000000 5.750000 1.000000
v -0.500000 5.750000 1.500000
v -0.500000 5.750000 1.000000
v -0.500000 3.250000 2.000000
v -1.000000 3.250000 2.000000
v -1.000000 3.250000 1.500000
v 1.500000 6.000000 -0.500000
v -0.500000 6.000000 -0.500000
v -0.500000 6.000000 1.500000
v 1.500000 5.875000 -0.500000
v 1.500000 5.875000 1.500000
v -0.500000 5.875000 1.500000
v -0.500000 5.875000 -0.500000
v 0.125000 6.000000 0.125000
v 0.125000 6.000000 0.875000
v 0.125000 5.937500 0.125000
v 0.125000 5.937500 0.875000
v 0.875000 5.937500 0.875000
v 0.875000 5.937500 0.125000
v 0.875000 5.937500 0.250000
v 0.125000 5.937500 0.250000
v 0.875000 5.937500 0.750000
v 0.125000 5.937500 0.750000
v 0.250000 5.937500 0.250000
v 0.250000 5.937500 0.750000
v 0.750000 5.937500 0.250000
v 0.750000 5.937500 0.750000
v 0.250000 5.937500 0.625000
v 0.125000 5.937500 0.625000
v 0.250000 5.937500 0.375000
v 0.125000 5.937500 0.375000
v 0.250000 6.000000 0.250000
v 0.250000 6.000000 0.750000
v 0.750000 6.000000 0.750000
v 0.750000 6.000000 0.250000
v 0.125000 6.000000 0.625000
v 0.250000 6.000000 0.625000
v 0.250000 6.000000 0.375000
v 0.125000 6.000000 0.375000
v 2.000000 1.000000 1.000000
v 2.000000 0.500000 1.000000
v 1.000000 0.500000 2.000000
v 1.000000 1.000000 2.000000
v 1.500000 1.000000 1.500000
v 2.000000 0.750000 1.000000
v 1.500000 0.750000 1.500000
v 1.000000 0.750000 2.000000
v 1.000000 0.000000 2.000000
v 0.000000 1.000000 2.000000
v 0.000000 0.000000 2.000000
v -1.000000 0.000000 2.000000
v 2.000000 0.000000 2.000000
v 0.000000 0.500000 2.000000
v 0.000000 -0.000000 -1.000000
v 0.000000 1.000000 -1.000000
v 1.000000 1.000000 -1.000000
v 1.000000 -0.000000 -1.000000
v 2.000000 -0.000000 -1.000000
v -1.000000 -0.000000 -1.000000
v 1.000000 0.500000 -1.000000
v 0.000000 0.500000 -1.000000
v 2.000000 1.000000 -0.000000
v -1.000000 0.500000 -0.000000
v -1.000000 0.500000 1.000000
v -1.000000 1.000000 -0.000000
v -1.000000 1.000000 1.000000
v -1.000000 0.000000 0.000000
v -1.000000 0.000000 1.000000
v 2.000000 0.000000 1.000000
v 2.000000 0.500000 -0.000000
v 2.000000 0.000000 0.000000
v -0.500000 1.000000 -0.500000
v 0.000000 0.750000 -1.000000
v -0.500000 0.750000 -0.500000
v -1.000000 0.750000 -0.000000
v 1.500000 1.000000 -0.500000
v 1.000000 0.750000 -1.000000
v 1.500000 0.750000 -0.500000
v 2.000000 0.750000 -0.000000
v -0.500000 1.000000 1.500000
v -1.000000 0.750000 1.000000
v -0.500000 0.750000 1.500000
v 0.000000 0.750000 2.000000
v 0.000000 1.000000 1.500000
v 1.000000 1.000000 -0.500000
v 1.500000 6.000000 1.500000
v 1.500000 6.000000 0.125000
v -0.500000 6.000000 0.125000
v 1.500000 6.000000 0.875000
v -0.500000 6.000000 0.875000
v 0.875000 6.000000 0.125000
v 0.875000 6.000000 0.875000
v 1.500000 6.000000 0.500000
v 0.875000 6.000000 0.500000
v 0.875000 5.937500 0.500000
v -0.500000 6.000000 0.500000
v 0.125000 6.000000 0.500000
v 0.125000 5.937500 0.500000
v 0.875000 5.937500 0.500000
v 0.750000 5.937500 0.500000
v 0.750000 6.000000 0.500000
v 0.250000 6.000000 0.500000
v 0.250000 5.937500 0.500000
v 1.000000 1.000000 1.000000
v 2.000000 1.000000 1.000000
v 1.000000 1.000000 2.000000
v 0.000000 1.000000 1.000000
v -1.000000 1.000000 1.000000
v 0.000000 1.000000 2.000000
v 1.000000 1.000000 -0.000000
v 2.000000 1.000000 -0.000000
v 1.000000 1.000000 -1.000000
v 0.000000 1.000000 -0.000000
v -1.000000 1.000000 -0.000000
v 0.000000 1.000000 -1.000000
v 1.000000 1.000000 2.000000
v 0.062500 0.125000 2.000000
v 0.937500 0.125000 2.000000
v 0.062500 0.000000 2.000000
v 0.937500 0.000000 2.000000
v 1.000000 0.000000 2.000000
v 0.062500 0.875000 2.000000
v 0.062500 1.000000 2.000000
v 0.937500 0.875000 2.000000
v 0.937500 1.000000 2.000000
v 0.937500 0.125000 1.937500
v 0.062500 0.125000 1.937500
v 0.062500 0.875000 1.937500
v 0.937500 0.875000 1.937500
v 0.937500 0.187500 1.937500
v 0.062500 0.187500 1.937500
v 0.062500 0.812500 1.937500
v 0.937500 0.812500 1.937500
v 0.062500 0.812500 2.000000
v 0.937500 0.812500 2.000000
v 0.937500 0.187500 2.000000
v 0.062500 0.187500 2.000000
v 0.000000 1.000000 2.000000
v 0.000000 0.000000 2.000000
v 0.000000 1.000000 -1.000000
v 0.937500 0.125000 -1.000000
v 0.062500 0.125000 -1.000000
v 0.937500 -0.000000 -1.000000
v 0.062500 -0.000000 -1.000000
v 0.000000 -0.000000 -1.000000
v 0.937500 0.875000 -1.000000
v 0.937500 1.000000 -1.000000
v 0.062500 0.875000 -1.000000
v 0.062500 1.000000 -1.000000
v 0.062500 0.125000 -0.937500
v 0.937500 0.125000 -0.937500
v 0.937500 0.875000 -0.937500
v 0.062500 0.875000 -0.937500
v 0.062500 0.187500 -0.937500
v 0.937500 0.187500 -0.937500
v 0.937500 0.812500 -0.937500
v 0.062500 0.812500 -0.937500
v 0.937500 0.812500 -1.000000
v 0.062500 0.812500 -1.000000
v 0.062500 0.187500 -1.000000
v 0.937500 0.187500 -1.000000
v 1.000000 1.000000 -1.000000
v 1.000000 -0.000000 -1.000000
v 2.000000 1.000000 1.000000
v 2.000000 1.000000 -0.000000
v 2.000000 0.000000 1.000000
v 2.000000 0.000000 0.000000
v 1.937500 0.750000 0.625000
v 1.937500 0.875000 0.625000
v 1.937500 0.750000 0.375000
v 1.937500 0.875000 0.375000
v 2.000000 0.875000 0.625000
v 2.000000 0.750000 0.625000
v 2.000000 0.750000 0.375000
v 2.000000 0.875000 0.375000
v 2.000000 1.000000 0.875000
v 2.000000 0.000000 0.875000
v 2.000000 0.000000 0.125000
v 2.000000 1.000000 0.125000
v 2.000000 0.875000 0.125000
v 2.000000 0.875000 0.875000
v 2.000000 0.125000 0.875000
v 2.000000 0.125000 0.125000
v 1.937500 0.875000 0.125000
v 1.937500 0.875000 0.875000
v 1.937500 0.125000 0.875000
v 1.937500 0.125000 0.125000
v 1.937500 0.875000 0.750000
v 1.937500 0.125000 0.750000
v 1.937500 0.125000 0.250000
v 1.937500 0.875000 0.250000
v 1.937500 0.750000 0.750000
v 1.937500 0.750000 0.250000
v 1.937500 0.250000 0.250000
v 1.937500 0.250000 0.750000
v 2.000000 0.750000 0.250000
v 2.000000 0.750000 0.750000
v 2.000000 0.250000 0.250000
v 2.000000 0.250000 0.750000
v -1.000000 1.000000 -0.000000
v -1.000000 1.000000 1.000000
v -1.000000 0.000000 0.000000
v -1.000000 0.000000 1.000000
v -0.937500 0.750000 0.375000
v -0.937500 0.875000 0.375000
v -0.937500 0.750000 0.625000
v -0.937500 0.875000 0.625000
v -1.000000 0.875000 0.375000
v -1.000000 0.750000 0.375000
v -1.000000 0.750000 0.625000
v -1.000000 0.875000 0.625000
v -1.000000 1.000000 0.125000
v -1.000000 0.000000 0.125000
v -1.000000 0.000000 0.875000
v -1.000000 1.000000 0.875000
v -1.000000 0.875000 0.875000
v -1.000000 0.875000 0.125000
v -1.000000 0.125000 0.125000
v -1.000000 0.125000 0.875000
v -0.937500 0.875000 0.875000
v -0.937500 0.875000 0.125000
v -0.937500 0.125000 0.125000
v -0.937500 0.125000 0.875000
v -0.937500 0.875000 0.250000
v -0.937500 0.125000 0.250000
v -0.937500 0.125000 0.750000
v -0.937500 0.875000 0.750000
v -0.937500 0.750000 0.250000
v -0.937500 0.750000 0.750000
v -0.937500 0.250000 0.750000
v -0.937500 0.250000 0.250000
v -1.000000 0.750000 0.750000
v -1.000000 0.750000 0.250000
v -1.000000 0.250000 0.750000
v -1.000000 0.250000 0.250000
v 2.000000 -0.000000 -1.000000
v -1.000000 -0.000000 -1.000000
v 2.000000 0.000000 2.000000
v -1.000000 0.000000 2.000000
v 0.000000 5.750000 -0.000000
v 0.000000 5.750000 1.000000
v -0.500000 5.750000 -0.000000
v -0.500000 5.750000 1.000000
v 0.000000 5.750000 0.500000
v -0.500000 5.750000 0.500000
v 1.000000 5.750000 -0.000000
v 0.000000 5.750000 -0.000000
v 1.000000 5.750000 -0.500000
v 0.000000 5.750000 -0.500000
v 0.500000 5.750000 -0.000000
v 0.500000 5.750000 -0.500000
v 1.000000 5.750000 -0.000000
v 1.000000 5.750000 1.000000
v 1.500000 5.750000 -0.000000
v 1.500000 5.750000 1.000000
v 1.000000 5.750000 0.500000
v 1.500000 5.750000 0.500000
v 1.000000 5.750000 1.000000
v 0.000000 5.750000 1.000000
v 1.000000 5.750000 1.500000
v 0.000000 5.750000 1.500000
v 0.500000 5.750000 1.000000
v 0.500000 5.750000 1.500000
v 1.000000 4.750000 -0.000000
v 1.000000 5.750000 -0.000000
v 1.000000 4.750000 1.000000
v 1.000000 5.750000 1.000000
v 1.000000 5.750000 0.875000
v 1.000000 4.750000 0.875000
v 1.000000 4.750000 0.125000
v 1.000000 5.750000 0.125000
v 1.000000 4.875000 0.875000
v 1.000000 4.875000 0.125000
v 1.000000 5.625000 0.875000
v 1.000000 5.625000 0.125000
v 0.937500 4.875000 0.875000
v 0.937500 4.875000 0.125000
v 0.937500 5.625000 0.875000
v 0.937500 5.625000 0.125000
v 0.937500 5.625000 0.750000
v 0.937500 4.875000 0.750000
v 0.937500 4.875000 0.250000
v 0.937500 5.625000 0.250000
v 0.937500 5.000000 0.750000
v 0.937500 5.000000 0.250000
v 0.937500 5.500000 0.750000
v 0.937500 5.500000 0.250000
v 1.000000 5.000000 0.750000
v 1.000000 5.000000 0.250000
v 1.000000 5.500000 0.750000
v 1.000000 5.500000 0.250000
v 1.000000 5.625000 0.875000
v 1.000000 5.625000 0.125000
v 0.937500 5.625000 0.875000
v 0.937500 5.625000 0.125000
v 0.000000 4.750000 1.000000
v 0.000000 5.750000 1.000000
v 0.000000 4.750000 -0.000000
v 0.000000 5.750000 -0.000000
v 0.000000 5.750000 0.125000
v 0.000000 4.750000 0.125000
v 0.000000 4.750000 0.875000
v 0.000000 5.750000 0.875000
v 0.000000 4.875000 0.125000
v 0.000000 4.875000 0.875000
v 0.000000 5.625000 0.125000
v 0.000000 5.625000 0.875000
v 0.062500 4.875000 0.125000
v 0.062500 4.875000 0.875000
v 0.062500 5.625000 0.125000
v 0.062500 5.625000 0.875000
v 0.062500 5.625000 0.250000
v 0.062500 4.875000 0.250000
v 0.062500 4.875000 0.750000
v 0.062500 5.625000 0.750000
v 0.062500 5.000000 0.250000
v 0.062500 5.000000 0.750000
v 0.062500 5.500000 0.250000
v 0.062500 5.500000 0.750000
v 0.000000 5.000000 0.250000
v 0.000000 5.000000 0.750000
v 0.000000 5.500000 0.250000
v 0.000000 5.500000 0.750000
v 0.000000 5.625000 0.125000
v 0.000000 5.625000 0.875000
v 0.062500 5.625000 0.125000
v 0.062500 5.625000 0.875000
v 1.000000 2.500000 -0.000000
v 0.000000 4.750000 1.000000
v 1.000000 4.750000 1.000000
v 1.000000 4.750000 -0.000000
v 0.000000 4.750000 -0.000000
v 1.000000 1.000000 -0.000000
v 0.000000 1.000000 -0.000000
v 1.000000 1.000000 1.000000
v 0.000000 1.000000 1.000000
v 1.000000 4.500000 -0.000000
v 1.000000 4.500000 1.000000
v 0.000000 4.500000 1.000000
v 0.000000 4.500000 -0.000000
v 1.000000 3.500000 -0.000000
v 1.000000 3.500000 1.000000
v 0.000000 3.500000 1.000000
v 0.000000 3.500000 -0.000000
v 0.000000 2.500000 -0.000000
v 1.000000 2.500000 1.000000
v 0.000000 2.500000 1.000000
v 0.000000 1.500000 -0.000000
v 1.000000 1.500000 -0.000000
v 1.000000 1.500000 1.000000
v 0.000000 1.500000 1.000000
v 0.500000 1.000000 -1.000000
v 0.500000 1.000000 -0.500000
v 2.000000 1.000000 -0.000000
v 1.000000 1.000000 -0.000000
v 2.000000 1.000000 1.000000
v 1.000000 1.000000 1.000000
v 0.000000 1.000000 -0.000000
v -1.000000 1.000000 -0.000000
v 0.000000 1.000000 1.000000
v -1.000000 1.000000 1.000000
v 0.500000 1.000000 -0.500000
v 0.000000 1.000000 -0.500000
v 0.500000 1.000000 -0.000000
v 0.000000 1.000000 -0.000000
v 1.000000 1.000000 1.000000
v 0.500000 1.000000 1.000000
v 1.000000 1.000000 1.500000
v 0.500000 1.000000 1.500000
v -0.562500 4.187500 1.000000
v -0.562500 4.000000 1.000000
v 0.000000 4.187500 1.562500
v 0.000000 4.000000 1.562500
v -0.562500 4.187500 1.000000
v 0.000000 4.187500 1.000000
v 0.000000 4.187500 1.562500
v -0.562500 4.000000 1.000000
v 0.000000 4.000000 1.000000
v 0.000000 4.000000 1.562500
v -0.562500 4.500000 -0.000000
v -0.562500 4.000000 1.000000
v 0.000000 4.500000 -0.000000
v 0.000000 4.000000 1.000000
v -0.562500 4.687500 -0.000000
v -0.562500 4.187500 1.000000
v 0.000000 4.687500 -0.000000
v 0.000000 4.187500 1.000000
v -0.562500 4.437500 0.500000
v 0.000000 4.437500 0.500000
v -0.562500 4.250000 0.500000
v 0.000000 4.250000 0.500000
v 1.562500 1.187500 -0.000000
v 1.562500 1.000000 -0.000000
v 1.000000 1.187500 -0.562500
v 1.000000 1.000000 -0.562500
v 1.562500 1.187500 -0.000000
v 1.000000 1.187500 -0.000000
v 1.000000 1.187500 -0.562500
v 1.562500 1.000000 -0.000000
v 1.000000 1.000000 -0.000000
v 1.000000 1.000000 -0.562500
v 1.562500 1.500000 1.000000
v 1.562500 1.000000 -0.000000
v 1.000000 1.500000 1.000000
v 1.000000 1.000000 -0.000000
v 1.562500 1.687500 1.000000
v 1.562500 1.187500 -0.000000
v 1.000000 1.687500 1.000000
v 1.000000 1.187500 -0.000000
v 1.562500 1.437500 0.500000
v 1.000000 1.437500 0.500000
v 1.562500 1.250000 0.500000
v 1.000000 1.250000 0.500000
v 1.000000 1.687500 1.562500
v 1.000000 1.500000 1.562500
v 1.562500 1.687500 1.000000
v 1.562500 1.500000 1.000000
v 1.000000 1.687500 1.562500
v 1.000000 1.687500 1.000000
v 1.562500 1.687500 1.000000
v 1.000000 1.500000 1.562500
v 1.000000 1.500000 1.000000
v 1.562500 1.500000 1.000000
v 0.000000 2.000000 1.562500
v 1.000000 1.500000 1.562500
v 0.000000 2.000000 1.000000
v 1.000000 1.500000 1.000000
v 0.000000 2.187500 1.562500
v 1.000000 1.687500 1.562500
v 0.000000 2.187500 1.000000
v 1.000000 1.687500 1.000000
v 0.500000 1.937500 1.562500
v 0.500000 1.937500 1.000000
v 0.500000 1.750000 1.562500
v 0.500000 1.750000 1.000000
v 0.000000 2.687500 -0.562500
v 0.000000 2.500000 -0.562500
v -0.562500 2.687500 -0.000000
v -0.562500 2.500000 -0.000000
v 0.000000 2.687500 -0.562500
v 0.000000 2.687500 -0.000000
v -0.562500 2.687500 -0.000000
v 0.000000 2.500000 -0.562500
v 0.000000 2.500000 -0.000000
v -0.562500 2.500000 -0.000000
v 1.000000 3.000000 -0.562500
v 0.000000 2.500000 -0.562500
v 1.000000 3.000000 -0.000000
v 0.000000 2.500000 -0.000000
v 1.000000 3.187500 -0.562500
v 0.000000 2.687500 -0.562500
v 1.000000 3.187500 -0.000000
v 0.000000 2.687500 -0.000000
v 0.500000 2.937500 -0.562500
v 0.500000 2.937500 -0.000000
v 0.500000 2.750000 -0.562500
v 0.500000 2.750000 -0.000000
v -0.562500 2.187500 1.000000
v -0.562500 2.000000 1.000000
v 0.000000 2.187500 1.562500
v 0.000000 2.000000 1.562500
v -0.562500 2.187500 1.000000
v 0.000000 2.187500 1.000000
v 0.000000 2.187500 1.562500
v -0.562500 2.000000 1.000000
v 0.000000 2.000000 1.000000
v 0.000000 2.000000 1.562500
v -0.562500 2.500000 -0.000000
v -0.562500 2.000000 1.000000
v 0.000000 2.500000 -0.000000
v 0.000000 2.000000 1.000000
v -0.562500 2.687500 -0.000000
v -0.562500 2.187500 1.000000
v 0.000000 2.687500 -0.000000
v 0.000000 2.187500 1.000000
v -0.562500 2.437500 0.500000
v 0.000000 2.437500 0.500000
v -0.562500 2.250000 0.500000
v 0.000000 2.250000 0.500000
v 1.562500 3.187500 -0.000000
v 1.562500 3.000000 -0.000000
v 1.000000 3.187500 -0.562500
v 1.000000 3.000000 -0.562500
v 1.562500 3.187500 -0.000000
v 1.000000 3.187500 -0.000000
v 1.000000 3.187500 -0.562500
v 1.562500 3.000000 -0.000000
v 1.000000 3.000000 -0.000000
v 1.000000 3.000000 -0.562500
v 1.562500 3.500000 1.000000
v 1.562500 3.000000 -0.000000
v 1.000000 3.500000 1.000000
v 1.000000 3.000000 -0.000000
v 1.562500 3.687500 1.000000
v 1.562500 3.187500 -0.000000
v 1.000000 3.687500 1.000000
v 1.000000 3.187500 -0.000000
v 1.562500 3.437500 0.500000
v 1.000000 3.437500 0.500000
v 1.562500 3.250000 0.500000
v 1.000000 3.250000 0.500000
v 1.000000 3.687500 1.562500
v 1.000000 3.500000 1.562500
v 1.562500 3.687500 1.000000
v 1.562500 3.500000 1.000000
v 1.000000 3.687500 1.562500
v 1.000000 3.687500 1.000000
v 1.562500 3.687500 1.000000
v 1.000000 3.500000 1.562500
v 1.000000 3.500000 1.000000
v 1.562500 3.500000 1.000000
v 0.000000 4.000000 1.562500
v 1.000000 3.500000 1.562500
v 0.000000 4.000000 1.000000
v 1.000000 3.500000 1.000000
v 0.000000 4.187500 1.562500
v 1.000000 3.687500 1.562500
v 0.000000 4.187500 1.000000
v 1.000000 3.687500 1.000000
v 0.500000 3.937500 1.562500
v 0.500000 3.937500 1.000000
v 0.500000 3.750000 1.562500
v 0.500000 3.750000 1.000000
v 1.000000 1.000000 -0.562500
v 1.000000 1.187500 -0.000000
v 1.000000 1.187500 -0.562500
v 0.500000 1.000000 -0.000000
v 0.500000 1.000000 -0.562500
v -0.562500 1.187500 1.000000
v -0.562500 1.000000 1.000000
v 0.000000 1.187500 1.562500
v 0.000000 1.000000 1.562500
v -0.562500 1.187500 1.000000
v 0.000000 1.187500 1.000000
v 0.000000 1.187500 1.562500
v -0.562500 1.000000 1.000000
v 0.000000 1.000000 1.000000
v 0.000000 1.000000 1.562500
v -0.562500 1.500000 -0.000000
v -0.562500 1.000000 1.000000
v 0.000000 1.500000 -0.000000
v 0.000000 1.000000 1.000000
v -0.562500 1.687500 -0.000000
v -0.562500 1.187500 1.000000
v 0.000000 1.687500 -0.000000
v 0.000000 1.187500 1.000000
v -0.562500 1.437500 0.500000
v 0.000000 1.437500 0.500000
v -0.562500 1.250000 0.500000
v 0.000000 1.250000 0.500000
v 0.000000 1.687500 -0.562500
v 0.000000 1.500000 -0.562500
v -0.562500 1.687500 -0.000000
v -0.562500 1.500000 -0.000000
v 0.000000 1.687500 -0.562500
v 0.000000 1.687500 -0.000000
v -0.562500 1.687500 -0.000000
v 0.000000 1.500000 -0.562500
v 0.000000 1.500000 -0.000000
v -0.562500 1.500000 -0.000000
v 1.000000 2.000000 -0.562500
v 0.000000 1.500000 -0.562500
v 1.000000 2.000000 -0.000000
v 0.000000 1.500000 -0.000000
v 1.000000 2.187500 -0.562500
v 0.000000 1.687500 -0.562500
v 1.000000 2.187500 -0.000000
v 0.000000 1.687500 -0.000000
v 0.500000 1.937500 -0.562500
v 0.500000 1.937500 -0.000000
v 0.500000 1.750000 -0.562500
v 0.500000 1.750000 -0.000000
v 1.000000 2.687500 1.562500
v 1.000000 2.500000 1.562500
v 1.562500 2.687500 1.000000
v 1.562500 2.500000 1.000000
v 1.000000 2.687500 1.562500
v 1.000000 2.687500 1.000000
v 1.562500 2.687500 1.000000
v 1.000000 2.500000 1.562500
v 1.000000 2.500000 1.000000
v 1.562500 2.500000 1.000000
v 0.000000 3.000000 1.562500
v 1.000000 2.500000 1.562500
v 0.000000 3.000000 1.000000
v 1.000000 2.500000 1.000000
v 0.000000 3.187500 1.562500
v 1.000000 2.687500 1.562500
v 0.000000 3.187500 1.000000
v 1.000000 2.687500 1.000000
v 0.500000 2.937500 1.562500
v 0.500000 2.937500 1.000000
v 0.500000 2.750000 1.562500
v 0.500000 2.750000 1.000000
v 1.562500 2.187500 -0.000000
v 1.562500 2.000000 -0.000000
v 1.000000 2.187500 -0.562500
v 1.000000 2.000000 -0.562500
v 1.562500 2.187500 -0.000000
v 1.000000 2.187500 -0.000000
v 1.000000 2.187500 -0.562500
v 1.562500 2.000000 -0.000000
v 1.000000 2.000000 -0.000000
v 1.000000 2.000000 -0.562500
v 1.562500 2.500000 1.000000
v 1.562500 2.000000 -0.000000
v 1.000000 2.500000 1.000000
v 1.000000 2.000000 -0.000000
v 1.562500 2.687500 1.000000
v 1.562500 2.187500 -0.000000
v 1.000000 2.687500 1.000000
v 1.000000 2.187500 -0.000000
v 1.562500 2.437500 0.500000
v 1.000000 2.437500 0.500000
v 1.562500 2.250000 0.500000
v 1.000000 2.250000 0.500000
v -0.562500 3.187500 1.000000
v -0.562500 3.000000 1.000000
v 0.000000 3.187500 1.562500
v 0.000000 3.000000 1.562500
v -0.562500 3.187500 1.000000
v 0.000000 3.187500 1.000000
v 0.000000 3.187500 1.562500
v -0.562500 3.000000 1.000000
v 0.000000 3.000000 1.000000
v 0.000000 3.000000 1.562500
v -0.562500 3.500000 -0.000000
v -0.562500 3.000000 1.000000
v 0.000000 3.500000 -0.000000
v 0.000000 3.000000 1.000000
v -0.562500 3.687500 -0.000000
v -0.562500 3.187500 1.000000
v 0.000000 3.687500 -0.000000
v 0.000000 3.187500 1.000000
v -0.562500 3.437500 0.500000
v 0.000000 3.437500 0.500000
v -0.562500 3.250000 0.500000
v 0.000000 3.250000 0.500000
v 0.000000 3.687500 -0.562500
v 0.000000 3.500000 -0.562500
v -0.562500 3.687500 -0.000000
v -0.562500 3.500000 -0.000000
v 0.000000 3.687500 -0.562500
v 0.000000 3.687500 -0.000000
v -0.562500 3.687500 -0.000000
v 0.000000 3.500000 -0.562500
v 0.000000 3.500000 -0.000000
v -0.562500 3.500000 -0.000000
v 1.000000 4.000000 -0.562500
v 0.000000 3.500000 -0.562500
v 1.000000 4.000000 -0.000000
v 0.000000 3.500000 -0.000000
v 1.000000 4.187500 -0.562500
v 0.000000 3.687500 -0.562500
v 1.000000 4.187500 -0.000000
v 0.000000 3.687500 -0.000000
v 0.500000 3.937500 -0.562500
v 0.500000 3.937500 -0.000000
v 0.500000 3.750000 -0.562500
v 0.500000 3.750000 -0.000000
v 0.000000 1.000000 1.562500
v 0.000000 1.187500 1.000000
v 0.000000 1.187500 1.562500
v 0.500000 1.000000 1.000000
v 0.500000 1.000000 1.562500
v 1.562500 4.187500 -0.000000
v 1.562500 4.000000 -0.000000
v 1.000000 4.187500 -0.562500
v 1.000000 4.000000 -0.562500
v 1.562500 4.187500 -0.000000
v 1.000000 4.187500 -0.000000
v 1.000000 4.187500 -0.562500
v 1.562500 4.000000 -0.000000
v 1.000000 4.000000 -0.000000
v 1.000000 4.000000 -0.562500
v 1.562500 4.500000 1.000000
v 1.562500 4.000000 -0.000000
v 1.000000 4.500000 1.000000
v 1.000000 4.000000 -0.000000
v 1.562500 4.687500 1.000000
v 1.562500 4.187500 -0.000000
v 1.000000 4.687500 1.000000
v 1.000000 4.187500 -0.000000
v 1.562500 4.437500 0.500000
v 1.000000 4.437500 0.500000
v 1.562500 4.250000 0.500000
v 1.000000 4.250000 0.500000
v 1.500000 4.500000 1.812500
v 1.500000 4.500000 1.687500
v 1.500000 4.375000 1.812500
v 1.500000 4.375000 1.687500
v -0.500000 4.500000 1.812500
v -0.500000 4.500000 1.687500
v -0.500000 4.375000 1.812500
v -0.500000 4.375000 1.687500
v 0.500000 4.375000 1.750000
v 1.500000 4.375000 1.750000
v 0.500000 1.000000 1.750000
v 1.500000 1.000000 1.750000
v 0.500000 1.500000 1.750000
v 1.500000 1.500000 1.750000
v 0.500000 2.500000 1.750000
v 1.500000 2.500000 1.750000
v 0.500000 3.562500 1.750000
v 1.500000 3.562500 1.750000
v -0.500000 4.375000 1.750000
v 0.500000 4.375000 1.750000
v -0.500000 1.000000 1.750000
v 0.500000 1.000000 1.750000
v -0.500000 1.500000 1.750000
v 0.500000 1.500000 1.750000
v -0.500000 2.500000 1.750000
v 0.500000 2.500000 1.750000
v -0.500000 3.562500 1.750000
v 0.500000 3.562500 1.750000
v -0.812500 4.500000 1.500000
v -0.687500 4.500000 1.500000
v -0.812500 4.375000 1.500000
v -0.687500 4.375000 1.500000
v -0.812500 4.500000 -0.500000
v -0.687500 4.500000 -0.500000
v -0.812500 4.375000 -0.500000
v -0.687500 4.375000 -0.500000
v -0.750000 4.375000 0.500000
v -0.750000 4.375000 1.500000
v -0.750000 1.000000 0.500000
v -0.750000 1.000000 1.500000
v -0.750000 1.500000 0.500000
v -0.750000 1.500000 1.500000
v -0.750000 2.500000 0.500000
v -0.750000 2.500000 1.500000
v -0.750000 3.562500 0.500000
v -0.750000 3.562500 1.500000
v -0.750000 4.375000 -0.500000
v -0.750000 4.375000 0.500000
v -0.750000 1.000000 -0.500000
v -0.750000 1.000000 0.500000
v -0.750000 1.500000 -0.500000
v -0.750000 1.500000 0.500000
v -0.750000 2.500000 -0.500000
v -0.750000 2.500000 0.500000
v -0.750000 3.562500 -0.500000
v -0.750000 3.562500 0.500000
v -0.500000 4.500000 -0.812500
v -0.500000 4.500000 -0.687500
v -0.500000 4.375000 -0.812500
v -0.500000 4.375000 -0.687500
v 1.500000 4.500000 -0.812500
v 1.500000 4.500000 -0.687500
v 1.500000 4.375000 -0.812500
v 1.500000 4.375000 -0.687500
v 0.500000 4.375000 -0.750000
v -0.500000 4.375000 -0.750000
v 0.500000 1.000000 -0.750000
v -0.500000 1.000000 -0.750000
v 0.500000 1.500000 -0.750000
v -0.500000 1.500000 -0.750000
v 0.500000 2.500000 -0.750000
v -0.500000 2.500000 -0.750000
v 0.500000 3.562500 -0.750000
v -0.500000 3.562500 -0.750000
v 1.500000 4.375000 -0.750000
v 0.500000 4.375000 -0.750000
v 1.500000 1.000000 -0.750000
v 0.500000 1.000000 -0.750000
v 1.500000 1.500000 -0.750000
v 0.500000 1.500000 -0.750000
v 1.500000 2.500000 -0.750000
v 0.500000 2.500000 -0.750000
v 1.500000 3.562500 -0.750000
v 0.500000 3.562500 -0.750000
v 1.812500 4.500000 -0.500000
v 1.687500 4.500000 -0.500000
v 1.812500 4.375000 -0.500000
v 1.687500 4.375000 -0.500000
v 1.812500 4.500000 1.500000
v 1.687500 4.500000 1.500000
v 1.812500 4.375000 1.500000
v 1.687500 4.375000 1.500000
v 1.750000 4.375000 0.500000
v 1.750000 4.375000 -0.500000
v 1.750000 1.000000 0.500000
v 1.750000 1.000000 -0.500000
v 1.750000 1.500000 0.500000
v 1.750000 1.500000 -0.500000
v 1.750000 2.500000 0.500000
v 1.750000 2.500000 -0.500000
v 1.750000 3.562500 0.500000
v 1.750000 3.562500 -0.500000
v 1.750000 4.375000 1.500000
v 1.750000 4.375000 0.500000
v 1.750000 1.000000 1.500000
v 1.750000 1.000000 0.500000
v 1.750000 1.500000 1.500000
v 1.750000 1.500000 0.500000
v 1.750000 2.500000 1.500000
v 1.750000 2.500000 0.500000
v 1.750000 3.562500 1.500000
v 1.750000 3.562500 0.500000
v 0.500000 1.000000 1.734375
v 1.500000 1.000000 1.734375
v 1.500000 1.500000 1.734375
v 0.500000 1.500000 1.734375
v 1.500000 2.500000 1.734375
v 0.500000 2.500000 1.734375
v 1.500000 3.562500 1.734375
v 0.500000 3.562500 1.734375
v 0.500000 4.375000 1.734375
v 1.500000 4.375000 1.734375
v -0.500000 1.000000 1.734375
v 0.500000 1.000000 1.734375
v 0.500000 1.500000 1.734375
v -0.500000 1.500000 1.734375
v 0.500000 2.500000 1.734375
v -0.500000 2.500000 1.734375
v 0.500000 3.562500 1.734375
v -0.500000 3.562500 1.734375
v -0.500000 4.375000 1.734375
v 0.500000 4.375000 1.734375
v 1.734375 1.000000 0.500000
v 1.734375 1.000000 -0.500000
v 1.734375 1.500000 -0.500000
v 1.734375 1.500000 0.500000
v 1.734375 2.500000 -0.500000
v 1.734375 2.500000 0.500000
v 1.734375 3.562500 -0.500000
v 1.734375 3.562500 0.500000
v 1.734375 4.375000 0.500000
v 1.734375 4.375000 -0.500000
v 1.734375 1.000000 1.500000
v 1.734375 1.000000 0.500000
v 1.734375 1.500000 0.500000
v 1.734375 1.500000 1.500000
v 1.734375 2.500000 0.500000
v 1.734375 2.500000 1.500000
v 1.734375 3.562500 0.500000
v 1.734375 3.562500 1.500000
v 1.734375 4.375000 1.500000
v 1.734375 4.375000 0.500000
v 0.500000 1.000000 -0.734375
v -0.500000 1.000000 -0.734375
v -0.500000 1.500000 -0.734375
v 0.500000 1.500000 -0.734375
v -0.500000 2.500000 -0.734375
v 0.500000 2.500000 -0.734375
v -0.500000 3.562500 -0.734375
v 0.500000 3.562500 -0.734375
v 0.500000 4.375000 -0.734375
v -0.500000 4.375000 -0.734375
v 1.500000 1.000000 -0.734375
v 0.500000 1.000000 -0.734375
v 0.500000 1.500000 -0.734375
v 1.500000 1.500000 -0.734375
v 0.500000 2.500000 -0.734375
v 1.500000 2.500000 -0.734375
v 0.500000 3.562500 -0.734375
v 1.500000 3.562500 -0.734375
v 1.500000 4.375000 -0.734375
v 0.500000 4.375000 -0.734375
v -0.734375 1.000000 0.500000
v -0.734375 1.000000 1.500000
v -0.734375 1.500000 1.500000
v -0.734375 1.500000 0.500000
v -0.734375 2.500000 1.500000
v -0.734375 2.500000 0.500000
v -0.734375 3.562500 1.500000
v -0.734375 3.562500 0.500000
v -0.734375 4.375000 0.500000
v -0.734375 4.375000 1.500000
v -0.734375 1.000000 -0.500000
v -0.734375 1.000000 0.500000
v -0.734375 1.500000 0.500000
v -0.734375 1.500000 -0.500000
v -0.734375 2.500000 0.500000
v -0.734375 2.500000 -0.500000
v -0.734375 3.562500 0.500000
v -0.734375 3.562500 -0.500000
v -0.734375 4.375000 -0.500000
v -0.734375 4.375000 0.500000
vn 1.0000 -0.0000 -0.0000
vn -1.0000 -0.0000 -0.0000
vn -0.0000 -0.0000 1.0000
vn -0.0000 -0.0000 -1.0000
vn 0.9285 0.3714 -0.0000
vn -0.0000 -0.3714 -0.9285
vn -0.9285 -0.3714 -0.0000
vn -0.0000 0.3714 0.9285
vn -0.0000 0.3714 -0.9285
vn -0.0000 -0.3714 0.9285
vn -0.9285 0.3714 -0.0000
vn 0.9285 -0.3714 -0.0000
vn -0.0000 1.0000 -0.0000
vn 0.7071 -0.0000 0.7071
vn -0.7071 -0.0000 -0.7071
vn 0.7071 -0.0000 -0.7071
vn -0.7071 -0.0000 0.7071
vn -0.0000 -1.0000 -0.0000
vn -0.0000 -0.8944 -0.4472
vn -0.0000 0.8944 0.4472
vn -0.0000 -0.8944 0.4472
vn -0.0000 0.8944 -0.4472
vn -0.4472 -0.8944 -0.0000
vn 0.4472 0.8944 -0.0000
vn 0.4472 -0.8944 -0.0000
vn -0.4472 0.8944 -0.0000
vn -0.3511 0.9363 -0.0000
vn 0.3511 0.9363 -0.0000
vt 0.666667 0.895833
vt 0.666667 0.687500
vt 0.750000 0.687500
vt 0.750000 0.895833
vt 0.750000 0.812500
vt 0.666667 0.783221
vt 0.666667 0.541667
vt 0.750000 0.570946
vt 0.750000 0.843750
vt 0.666667 0.814471
vt 0.666667 0.572917
vt 0.750000 0.602196
vt 0.750000 0.468750
vt 0.750000 0.927083
vt 0.666667 0.927083
vt 0.666667 0.468750
vt 0.000000 0.322917
vt 0.000000 0.302083
vt 0.333333 0.302083
vt 0.333333 0.322917
vt 0.333333 0.281250
vt 0.000000 0.281250
vt 0.937500 0.562500
vt 1.000000 0.562500
vt 1.000000 0.666667
vt 0.937500 0.666667
vt 0.104167 0.989583
vt 0.166667 0.989583
vt 0.166667 1.000000
vt 0.104167 1.000000
vt 0.229167 0.989583
vt 0.229167 1.000000
vt 0.895833 0.770833
vt 0.895833 0.895833
vt 0.875000 0.895833
vt 0.875000 0.770833
vt 0.958333 0.562500
vt 0.937500 0.437500
vt 0.958333 0.437500
vt 0.083333 0.250000
vt 0.041667 0.250000
vt 0.041667 0.166667
vt 0.083333 0.166667
vt 0.875000 0.791667
vt 0.833333 0.791667
vt 0.833333 0.770833
vt 0.979167 0.562500
vt 0.958333 0.541667
vt 0.979167 0.541667
vt 0.854167 0.875000
vt 0.875000 0.875000
vt 0.854167 0.895833
vt 0.208333 0.270833
vt 0.208333 0.250000
vt 0.250000 0.250000
vt 0.250000 0.270833
vt 0.083333 0.239583
vt 0.041667 0.239583
vt 0.000000 0.166667
vt 0.000000 0.250000
vt 0.010417 0.250000
vt 0.010417 0.166667
vt 0.083333 0.177083
vt 0.041667 0.177083
vt 0.072917 0.166667
vt 0.072917 0.250000
vt 0.218750 0.250000
vt 0.218750 0.270833
vt 0.104167 0.937500
vt 0.062500 0.937500
vt 0.062500 0.927083
vt 0.104167 0.927083
vt 0.239583 0.270833
vt 0.239583 0.250000
vt 0.104167 0.947917
vt 0.062500 0.947917
vt 0.625000 0.958333
vt 0.625000 0.916667
vt 0.510417 0.916667
vt 0.510417 0.958333
vt 0.510417 1.000000
vt 0.625000 1.000000
vt 0.156250 0.489583
vt 0.156250 0.406250
vt 0.322917 0.406250
vt 0.322917 0.489583
vt 0.500000 0.583333
vt 0.500000 0.666667
vt 0.583333 0.666667
vt 0.333333 0.333333
vt 0.333333 0.416667
vt 0.500000 0.416667
vt 0.500000 0.333333
vt 0.593750 0.916667
vt 0.593750 1.000000
vt 0.895833 0.666667
vt 1.000000 1.000000
vt 0.895833 1.000000
vt 0.833333 0.666667
vt 0.833333 0.333333
vt 0.937500 0.333333
vt 1.000000 0.333333
vt 1.000000 0.437500
vt 0.833333 1.000000
vt 0.833333 0.895833
vt 1.000000 0.458333
vt 0.958333 0.458333
vt 0.000000 0.177083
vt 0.000000 0.239583
vt 0.333333 0.166667
vt 0.656250 0.520833
vt 0.656250 0.500000
vt 0.510417 0.500000
vt 0.510417 0.520833
vt 0.510417 0.645833
vt 0.656250 0.645833
vt 0.656250 0.666667
vt 0.510417 0.666667
vt 0.010417 1.000000
vt 0.000000 1.000000
vt 0.000000 0.854167
vt 0.010417 0.854167
vt 0.656250 0.541667
vt 0.656250 0.552083
vt 0.510417 0.552083
vt 0.510417 0.541667
vt 0.145833 0.385417
vt 0.145833 0.489583
vt 0.000000 0.489583
vt 0.000000 0.385417
vt 0.145833 0.395833
vt 0.000000 0.395833
vt 0.145833 0.479167
vt 0.000000 0.479167
vt 0.000000 0.989583
vt 0.010417 0.989583
vt 0.500000 0.500000
vt 0.666667 0.500000
vt 0.666667 0.666667
vt 0.427083 0.541667
vt 0.427083 0.520833
vt 0.437500 0.520833
vt 0.437500 0.541667
vt 0.833333 0.166667
vt 0.854167 0.166667
vt 0.854167 0.333333
vt 0.979167 0.166667
vt 1.000000 0.166667
vt 0.979167 0.333333
vt 0.979167 0.312500
vt 0.854167 0.312500
vt 0.979167 0.187500
vt 0.854167 0.187500
vt 0.979167 0.322917
vt 0.854167 0.322917
vt 0.843750 0.312500
vt 0.843750 0.187500
vt 0.854167 0.177083
vt 0.979167 0.177083
vt 0.989583 0.187500
vt 0.989583 0.312500
vt 0.875000 0.312500
vt 0.875000 0.187500
vt 0.958333 0.187500
vt 0.958333 0.312500
vt 0.958333 0.208333
vt 0.875000 0.208333
vt 0.895833 0.312500
vt 0.875000 0.291667
vt 0.895833 0.291667
vt 0.958333 0.291667
vt 0.937500 0.312500
vt 0.937500 0.291667
vt 0.114583 0.270833
vt 0.114583 0.250000
vt 0.156250 0.250000
vt 0.156250 0.270833
vt 0.260417 0.250000
vt 0.260417 0.166667
vt 0.270833 0.166667
vt 0.270833 0.250000
vt 0.187500 0.250000
vt 0.270833 0.239583
vt 0.187500 0.239583
vt 0.197917 0.166667
vt 0.197917 0.250000
vt 0.187500 0.166667
vt 0.187500 0.177083
vt 0.270833 0.177083
vt 0.406250 0.520833
vt 0.406250 0.541667
vt 0.395833 0.541667
vt 0.395833 0.520833
vt 0.500000 1.000000
vt 0.000000 0.500000
vt 0.093750 0.250000
vt 0.093750 0.166667
vt 0.177083 0.166667
vt 0.177083 0.250000
vt 0.833333 0.000000
vt 1.000000 0.000000
vt 0.500000 0.875000
vt 0.500000 0.833333
vt 0.666667 0.833333
vt 0.666667 0.875000
vt 0.666667 0.791667
vt 0.500000 0.791667
vt 0.104167 0.020833
vt 0.135417 0.020833
vt 0.135417 0.135417
vt 0.104167 0.135417
vt 0.000000 0.010417
vt 0.000000 0.125000
vt 0.083333 0.067708
vt 0.000000 0.135417
vt 0.000000 0.020833
vt 0.083333 0.078125
vt 0.000000 0.093750
vt 0.000000 0.000000
vt 0.083333 0.000000
vt 0.083333 0.093750
vt 0.135417 0.013808
vt 0.135417 0.105862
vt 0.104167 0.092054
vt 0.104167 0.000000
vt 0.000000 0.156250
vt 0.000000 0.062500
vt 0.083333 0.062500
vt 0.083333 0.156250
vt 0.104167 0.142442
vt 0.104167 0.050388
vt 0.135417 0.064196
vt 0.135417 0.156250
vt 0.083334 0.062500
vt 0.083334 0.156250
vt 0.000000 0.062501
vt 0.135418 0.000000
vt 0.135417 0.093750
vt 0.104167 0.093749
vt 0.083333 0.114583
vt 0.083333 0.031250
vt 0.000000 0.031250
vt 0.000000 0.114583
vt 0.135416 0.104167
vt 0.104167 0.104167
vt 0.020833 0.333333
vt 0.020833 0.354167
vt 0.000000 0.354167
vt 0.000000 0.333333
vt 0.395833 1.000000
vt 0.395833 0.979167
vt 0.062500 0.979167
vt 0.062500 1.000000
vt 0.135417 1.000000
vt 0.135417 0.979167
vt 0.468750 0.979167
vt 0.468750 1.000000
vt 0.364583 0.979167
vt 0.364583 1.000000
vt 0.031250 1.000000
vt 0.031250 0.979167
vt 0.718750 0.333333
vt 0.552083 0.333333
vt 0.552083 0.416667
vt 0.718750 0.416667
vt 0.718750 0.291667
vt 0.552083 0.291667
vt 0.552083 0.458333
vt 0.718750 0.458333
vt 0.718750 0.270833
vt 0.552083 0.270833
vt 0.552083 0.447917
vt 0.718750 0.447917
vt 0.718750 0.322917
vt 0.552083 0.322917
vt 0.677083 0.333333
vt 0.510417 0.333333
vt 0.510417 0.416667
vt 0.677083 0.416667
vt 0.677083 0.291667
vt 0.510417 0.291667
vt 0.510417 0.458333
vt 0.677083 0.458333
vt 0.677083 0.270833
vt 0.510417 0.270833
vt 0.510417 0.447917
vt 0.677083 0.447917
vt 0.677083 0.322917
vt 0.510417 0.322917
s 0
usemtl m_64f8c99c-4d8f-9f9a-ea69-3c4cd517692e
f 4/1/1 17/2/1 16/3/1 5/4/1
f 9/1/2 3/2/2 18/3/2 8/4/2
f 8/1/3 18/2/3 17/3/3 4/4/3
f 5/1/4 16/2/4 3/3/4 9/4/4
f 12/5/5 14/6/5 4/7/5 5/8/5
f 13/9/6 12/10/6 5/11/6 9/12/6
f 15/10/7 13/9/7 9/12/7 8/11/7
f 14/6/8 15/5/8 8/8/8 4/7/8
f 7/13/1 16/14/1 17/15/1 6/16/1
f 6/13/3 17/14/3 18/15/3 10/16/3
f 10/13/2 18/14/2 3/15/2 11/16/2
f 11/13/4 3/14/4 16/15/4 7/16/4
f 20/1/4 33/2/4 32/3/4 21/4/4
f 25/1/3 19/2/3 34/3/3 24/4/3
f 24/1/1 34/2/1 33/3/1 20/4/1
f 21/1/2 32/2/2 19/3/2 25/4/2
f 28/5/9 30/6/9 20/7/9 21/8/9
f 29/9/7 28/10/7 21/11/7 25/12/7
f 31/10/10 29/9/10 25/12/10 24/11/10
f 30/6/5 31/5/5 24/8/5 20/7/5
f 23/13/4 32/14/4 33/15/4 22/16/4
f 22/13/1 33/14/1 34/15/1 26/16/1
f 26/13/3 34/14/3 19/15/3 27/16/3
f 27/13/2 19/14/2 32/15/2 23/16/2
f 36/1/2 49/2/2 48/3/2 37/4/2
f 41/1/1 35/2/1 50/3/1 40/4/1
f 40/1/4 50/2/4 49/3/4 36/4/4
f 37/1/3 48/2/3 35/3/3 41/4/3
f 44/5/11 46/6/11 36/7/11 37/8/11
f 45/9/10 44/10/10 37/11/10 41/12/10
f 47/10/12 45/9/12 41/12/12 40/11/12
f 46/6/9 47/5/9 40/8/9 36/7/9
f 39/13/2 48/14/2 49/15/2 38/16/2
f 38/13/4 49/14/4 50/15/4 42/16/4
f 42/13/1 50/14/1 35/15/1 43/16/1
f 43/13/3 35/14/3 48/15/3 39/16/3
f 52/1/3 65/2/3 64/3/3 53/4/3
f 57/1/4 51/2/4 66/3/4 56/4/4
f 56/1/2 66/2/2 65/3/2 52/4/2
f 53/1/1 64/2/1 51/3/1 57/4/1
f 60/5/8 62/6/8 52/7/8 53/8/8
f 61/9/12 60/10/12 53/11/12 57/12/12
f 63/10/6 61/9/6 57/12/6 56/11/6
f 62/6/11 63/5/11 56/8/11 52/7/11
f 55/13/3 64/14/3 65/15/3 54/16/3
f 54/13/2 65/14/2 66/15/2 58/16/2
f 58/13/4 66/14/4 51/15/4 59/16/4
f 59/13/1 51/14/1 64/15/1 55/16/1
f 67/17/4 70/18/4 73/19/4 68/20/4
f 69/17/3 72/18/3 71/19/3 146/20/3
f 146/17/1 71/18/1 70/19/1 67/20/1
f 68/17/2 73/18/2 72/19/2 69/20/2
f 30/21/1 70/19/1 71/18/1 14/22/1
f 14/21/3 71/19/3 72/18/3 62/22/3
f 62/21/2 72/19/2 73/18/2 46/22/2
f 46/21/4 73/19/4 70/18/4 30/22/4
f 75/23/13 157/24/13 156/25/13 150/26/13
f 77/27/1 158/28/1 157/29/1 75/30/1
f 78/27/4 77/31/4 75/32/4 152/30/4
f 79/27/2 155/28/2 154/29/2 151/30/2
f 76/27/3 79/31/3 151/32/3 74/30/3
f 79/33/13 76/34/13 81/35/13 80/36/13
f 83/37/13 77/23/13 78/38/13 82/39/13
f 92/40/13 162/41/13 161/42/13 95/43/13
f 86/44/13 160/45/13 159/46/13 80/36/13
f 89/47/13 83/37/13 85/48/13 88/49/13
f 90/50/13 84/51/13 81/35/13 91/52/13
f 96/53/13 97/54/13 98/55/13 99/56/13
f 84/57/2 163/58/2 162/41/2 92/40/2
f 94/59/3 93/60/3 85/61/3 87/62/3
f 95/63/1 161/64/1 160/42/1 86/43/1
f 92/40/4 95/43/4 86/65/4 84/66/4
f 97/67/3 96/68/3 89/53/3 88/54/3
f 98/69/1 97/70/1 88/71/1 90/72/1
f 99/55/4 98/56/4 90/73/4 91/74/4
f 96/75/2 99/76/2 91/70/2 89/69/2
f 106/77/14 11/78/14 101/79/14 105/80/14
f 100/81/14 104/82/14 106/77/14 105/80/14
f 102/79/14 11/78/14 106/77/14 107/80/14
f 106/77/14 104/82/14 103/81/14 107/80/14
f 54/83/3 111/84/3 110/85/3 113/86/3
f 102/83/3 108/84/3 112/85/3 6/86/3
f 22/83/4 118/84/4 117/85/4 120/86/4
f 121/83/4 114/84/4 119/85/4 38/86/4
f 123/86/2 38/83/2 119/84/2 127/85/2
f 54/86/2 124/83/2 128/84/2 111/85/2
f 101/86/1 6/83/1 112/84/1 129/85/1
f 118/85/1 22/86/1 130/83/1 131/84/1
f 121/79/15 43/78/15 134/77/15 133/80/15
f 134/77/15 132/82/15 115/81/15 133/80/15
f 134/77/15 43/78/15 123/79/15 135/80/15
f 125/81/15 132/82/15 134/77/15 135/80/15
f 138/77/16 27/78/16 120/79/16 137/80/16
f 116/81/16 136/82/16 138/77/16 137/80/16
f 130/79/16 27/78/16 138/77/16 139/80/16
f 138/77/16 136/82/16 122/81/16 139/80/16
f 124/79/17 59/78/17 142/77/17 141/80/17
f 142/77/17 140/82/17 126/81/17 141/80/17
f 142/77/17 59/78/17 113/79/17 143/80/17
f 109/81/17 140/82/17 142/77/17 143/80/17
f 59/87/13 55/88/13 113/89/13
f 58/88/13 59/89/13 124/87/13
f 10/88/13 11/87/13 102/89/13
f 11/89/13 7/88/13 101/87/13
f 26/88/13 27/89/13 130/87/13
f 27/87/13 23/88/13 120/89/13
f 43/87/13 121/89/13 42/88/13
f 43/89/13 39/88/13 123/87/13
f 144/90/13 109/91/13 103/92/13 1/93/13
f 2/79/13 413/94/13 412/95/13 115/81/13
f 147/96/13 67/25/13 68/97/13 148/98/13
f 69/99/13 146/100/13 149/101/13 150/26/13
f 151/33/13 154/46/13 153/99/13 147/96/13
f 149/101/13 153/102/13 154/103/13 152/38/13
f 152/32/2 154/29/2 155/28/2 78/31/2
f 148/98/13 156/104/13 157/105/13 74/34/13
f 74/32/1 157/29/1 158/28/1 76/31/1
f 82/39/13 159/103/13 160/106/13 87/107/13
f 87/59/1 160/42/1 161/64/1 94/108/1
f 94/59/13 161/42/13 162/41/13 93/60/13
f 93/60/2 162/41/2 163/58/2 85/109/2
f 166/93/13 165/110/13 164/90/13
f 168/110/13 169/93/13 167/90/13
f 171/110/13 172/93/13 170/90/13
f 175/93/13 174/110/13 173/90/13
f 180/111/3 178/112/3 177/113/3 179/114/3
f 182/115/3 184/116/3 185/117/3 183/118/3
f 178/119/13 186/120/13 187/121/13 177/122/13
f 182/119/18 188/120/18 189/121/18 184/122/18
f 186/123/3 190/124/3 191/125/3 187/126/3
f 188/123/3 192/124/3 193/125/3 189/126/3
f 196/127/3 195/128/3 194/129/3 197/130/3
f 190/127/18 196/131/18 197/132/18 191/130/18
f 195/133/13 193/128/13 192/129/13 194/134/13
f 188/119/1 182/120/1 194/135/1 192/136/1
f 197/120/1 177/135/1 187/136/1 191/119/1
f 186/135/2 178/136/2 196/119/2 190/120/2
f 193/135/2 195/136/2 184/119/2 189/120/2
f 179/113/3 183/118/3 198/88/3 199/137/3
f 185/117/3 180/112/3 181/138/3 176/139/3
f 204/111/4 202/112/4 201/113/4 203/114/4
f 206/115/4 208/116/4 209/117/4 207/118/4
f 202/119/13 210/120/13 211/121/13 201/122/13
f 206/119/18 212/120/18 213/121/18 208/122/18
f 210/123/4 214/124/4 215/125/4 211/126/4
f 212/123/4 216/124/4 217/125/4 213/126/4
f 220/127/4 219/128/4 218/129/4 221/130/4
f 214/127/18 220/131/18 221/132/18 215/130/18
f 219/133/13 217/128/13 216/129/13 218/134/13
f 212/119/2 206/120/2 218/135/2 216/136/2
f 221/120/2 201/135/2 211/136/2 215/119/2
f 210/135/1 202/136/1 220/119/1 214/120/1
f 217/135/1 219/136/1 208/119/1 213/120/1
f 203/113/4 207/118/4 222/88/4 223/137/4
f 209/117/4 204/112/4 205/138/4 200/139/4
f 235/140/4 234/141/4 230/142/4 231/143/4
f 224/100/1 226/144/1 237/145/1 236/146/1
f 238/147/1 227/148/1 225/102/1 239/149/1
f 240/150/1 239/149/1 236/146/1 241/151/1
f 237/145/1 238/147/1 243/152/1 242/153/1
f 245/154/18 244/155/18 240/151/18 241/150/18
f 246/153/4 245/151/4 241/156/4 242/157/4
f 247/152/13 246/153/13 242/158/13 243/159/13
f 244/150/3 247/152/3 243/160/3 240/161/3
f 248/162/1 245/151/1 246/153/1 249/163/1
f 250/164/1 247/152/1 244/150/1 251/165/1
f 249/163/1 250/164/1 254/166/1 255/167/1
f 258/43/1 256/40/1 257/60/1 259/59/1
f 229/168/1 248/162/1 252/169/1 228/170/1
f 253/171/1 251/165/1 231/172/1 230/173/1
f 232/174/1 233/175/1 234/176/1 235/177/1
f 256/178/4 258/179/4 254/180/4 253/181/4
f 257/182/13 256/181/13 253/183/13 252/184/13
f 259/185/3 257/186/3 252/182/3 255/187/3
f 258/180/18 259/187/18 255/188/18 254/189/18
f 233/190/3 232/191/3 229/192/3 228/193/3
f 271/140/3 270/141/3 266/142/3 267/143/3
f 260/100/2 262/144/2 273/145/2 272/146/2
f 274/147/2 263/148/2 261/102/2 275/149/2
f 276/150/2 275/149/2 272/146/2 277/151/2
f 273/145/2 274/147/2 279/152/2 278/153/2
f 281/154/18 280/155/18 276/151/18 277/150/18
f 282/153/3 281/151/3 277/156/3 278/157/3
f 283/152/13 282/153/13 278/158/13 279/159/13
f 280/150/4 283/152/4 279/160/4 276/161/4
f 284/162/2 281/151/2 282/153/2 285/163/2
f 286/164/2 283/152/2 280/150/2 287/165/2
f 285/163/2 286/164/2 290/166/2 291/167/2
f 294/43/2 292/40/2 293/60/2 295/59/2
f 265/168/2 284/162/2 288/169/2 264/170/2
f 289/171/2 287/165/2 267/172/2 266/173/2
f 268/174/2 269/175/2 270/176/2 271/177/2
f 292/178/3 294/179/3 290/180/3 289/181/3
f 293/182/13 292/181/13 289/183/13 288/184/13
f 295/185/4 293/186/4 288/182/4 291/187/4
f 294/180/18 295/187/18 291/188/18 290/189/18
f 269/190/4 268/191/4 265/192/4 264/193/4
f 297/137/18 296/194/18 298/120/18 299/195/18
f 304/95/18 305/94/18 302/79/18 300/81/18
f 305/94/18 304/95/18 301/81/18 303/79/18
f 310/95/18 311/94/18 308/79/18 306/81/18
f 311/94/18 310/95/18 307/81/18 309/79/18
f 314/79/18 317/94/18 316/95/18 312/81/18
f 313/81/18 316/95/18 317/94/18 315/79/18
f 320/79/18 323/94/18 322/95/18 318/81/18
f 319/81/18 322/95/18 323/94/18 321/79/18
f 328/146/1 327/100/1 326/144/1 329/145/1
f 324/148/1 325/102/1 331/149/1 330/147/1
f 329/145/1 330/147/1 333/152/1 332/153/1
f 335/150/1 331/149/1 328/146/1 334/151/1
f 336/153/4 338/151/4 334/156/4 332/157/4
f 337/156/13 336/157/13 332/153/13 333/151/13
f 339/156/3 337/157/3 333/153/3 335/151/3
f 340/162/1 338/151/1 336/153/1 341/163/1
f 342/164/1 337/152/1 339/150/1 343/165/1
f 344/167/1 341/163/1 342/164/1 345/166/1
f 347/171/1 343/165/1 340/162/1 346/169/1
f 350/196/1 348/197/1 349/198/1 351/199/1
f 348/62/3 350/61/3 346/60/3 344/59/3
f 349/43/18 348/59/18 344/108/18 345/63/18
f 351/66/4 349/65/4 345/43/4 347/40/4
f 350/109/13 351/57/13 347/40/13 346/60/13
f 354/153/18 355/151/18 353/156/18 352/157/18
f 360/146/2 359/100/2 358/144/2 361/145/2
f 356/148/2 357/102/2 363/149/2 362/147/2
f 361/145/2 362/147/2 365/152/2 364/153/2
f 367/150/2 363/149/2 360/146/2 366/151/2
f 368/153/3 370/151/3 366/156/3 364/157/3
f 369/156/13 368/157/13 364/153/13 365/151/13
f 371/156/4 369/157/4 365/153/4 367/151/4
f 372/162/2 370/151/2 368/153/2 373/163/2
f 374/164/2 369/152/2 371/150/2 375/165/2
f 376/167/2 373/163/2 374/164/2 377/166/2
f 379/171/2 375/165/2 372/162/2 378/169/2
f 382/196/2 380/197/2 381/198/2 383/199/2
f 380/62/4 382/61/4 378/60/4 376/59/4
f 381/43/18 380/59/18 376/108/18 377/63/18
f 383/66/3 381/65/3 377/43/3 379/40/3
f 382/109/13 383/57/13 379/40/13 378/60/13
f 386/153/18 387/151/18 385/156/18 384/157/18
f 327/148/3 357/144/3 356/200/3 326/201/3
f 324/200/4 358/201/4 359/148/4 325/144/4
f 391/202/4 397/203/4 400/204/4 392/205/4
f 389/202/3 399/203/3 398/204/3 390/205/3
f 390/202/1 398/203/1 397/204/1 391/205/1
f 392/202/2 400/203/2 399/204/2 389/205/2
f 398/88/1 402/203/1 401/204/1 397/139/1
f 399/88/3 403/203/3 402/204/3 398/139/3
f 400/88/2 404/203/2 403/204/2 399/139/2
f 397/88/4 401/203/4 404/204/4 400/139/4
f 402/203/1 406/88/1 388/139/1 401/204/1
f 403/203/3 407/88/3 406/139/3 402/204/3
f 404/203/2 405/88/2 407/139/2 403/204/2
f 401/203/4 388/88/4 405/139/4 404/204/4
f 388/88/4 409/203/4 408/204/4 405/139/4
f 406/88/1 410/203/1 409/204/1 388/139/1
f 407/88/3 411/203/3 410/204/3 406/139/3
f 405/88/2 408/203/2 411/204/2 407/139/2
f 394/205/4 408/206/4 409/207/4 393/202/4
f 393/205/1 409/206/1 410/207/1 395/202/1
f 395/205/3 410/206/3 411/207/3 396/202/3
f 396/205/2 411/206/2 408/207/2 394/202/2
f 116/81/13 412/95/13 413/94/13 145/79/13
f 414/138/13 415/139/13 417/88/13 416/137/13
f 418/138/13 419/139/13 421/88/13 420/137/13
f 422/43/13 423/40/13 425/60/13 424/59/13
f 426/43/13 427/40/13 429/60/13 428/59/13
f 433/208/17 432/209/17 430/210/17 431/211/17
f 434/212/13 436/213/13 435/214/13
f 439/215/18 437/216/18 438/217/18
f 441/218/19 450/219/19 451/220/19 443/221/19
f 447/220/20 449/221/20 448/218/20 445/219/20
f 445/222/2 448/223/2 450/224/2 441/225/2
f 444/226/20 448/227/20 449/228/20 446/229/20
f 440/230/2 450/231/2 448/232/2 444/233/2
f 442/234/19 451/235/19 450/226/19 440/236/19
f 440/225/4 444/237/4 446/238/4 442/239/4
f 455/208/16 454/209/16 452/210/16 453/211/16
f 456/212/13 458/213/13 457/214/13
f 461/215/18 459/216/18 460/217/18
f 463/218/21 472/219/21 473/220/21 465/221/21
f 469/220/22 471/221/22 470/218/22 467/219/22
f 467/222/1 470/223/1 472/224/1 463/225/1
f 466/226/22 470/227/22 471/228/22 468/229/22
f 462/230/1 472/231/1 470/232/1 466/233/1
f 464/234/21 473/235/21 472/226/21 462/236/21
f 462/225/3 466/237/3 468/238/3 464/239/3
f 477/208/14 476/209/14 474/210/14 475/211/14
f 478/212/13 480/213/13 479/214/13
f 483/215/18 481/216/18 482/217/18
f 485/218/23 494/219/23 495/220/23 487/221/23
f 491/220/24 493/221/24 492/218/24 489/219/24
f 489/222/3 492/223/3 494/224/3 485/225/3
f 488/226/24 492/227/24 493/228/24 490/229/24
f 484/230/3 494/231/3 492/232/3 488/233/3
f 486/234/23 495/235/23 494/226/23 484/236/23
f 484/225/2 488/237/2 490/238/2 486/239/2
f 499/208/15 498/209/15 496/210/15 497/211/15
f 500/212/13 502/213/13 501/214/13
f 505/215/18 503/216/18 504/217/18
f 507/218/25 516/219/25 517/220/25 509/221/25
f 513/220/26 515/221/26 514/218/26 511/219/26
f 511/222/4 514/223/4 516/224/4 507/225/4
f 510/226/26 514/227/26 515/228/26 512/229/26
f 506/230/4 516/231/4 514/232/4 510/233/4
f 508/234/25 517/235/25 516/226/25 506/236/25
f 506/225/1 510/237/1 512/238/1 508/239/1
f 521/208/17 520/209/17 518/210/17 519/211/17
f 522/212/13 524/213/13 523/214/13
f 527/215/18 525/216/18 526/217/18
f 529/218/19 538/219/19 539/220/19 531/221/19
f 535/220/20 537/221/20 536/218/20 533/219/20
f 533/222/2 536/223/2 538/224/2 529/225/2
f 532/226/20 536/227/20 537/228/20 534/229/20
f 528/230/2 538/231/2 536/232/2 532/233/2
f 530/234/19 539/235/19 538/226/19 528/236/19
f 528/225/4 532/237/4 534/238/4 530/239/4
f 543/208/16 542/209/16 540/210/16 541/211/16
f 544/212/13 546/213/13 545/214/13
f 549/215/18 547/216/18 548/217/18
f 551/218/21 560/219/21 561/220/21 553/221/21
f 557/220/22 559/221/22 558/218/22 555/219/22
f 555/222/1 558/223/1 560/224/1 551/225/1
f 554/226/22 558/227/22 559/228/22 556/229/22
f 550/230/1 560/231/1 558/232/1 554/233/1
f 552/234/21 561/235/21 560/226/21 550/236/21
f 550/225/3 554/237/3 556/238/3 552/239/3
f 565/208/14 564/209/14 562/210/14 563/211/14
f 566/212/13 568/213/13 567/214/13
f 571/215/18 569/216/18 570/217/18
f 573/218/23 582/219/23 583/220/23 575/221/23
f 579/220/24 581/221/24 580/218/24 577/219/24
f 577/222/3 580/223/3 582/224/3 573/225/3
f 576/226/24 580/227/24 581/228/24 578/229/24
f 572/230/3 582/231/3 580/232/3 576/233/3
f 574/234/23 583/235/23 582/226/23 572/236/23
f 572/225/2 576/237/2 578/238/2 574/239/2
f 587/240/27 585/241/27 586/242/27 588/243/27
f 588/208/4 586/244/4 584/245/4
f 592/208/17 591/209/17 589/210/17 590/211/17
f 593/212/13 595/213/13 594/214/13
f 598/215/18 596/216/18 597/217/18
f 600/218/19 609/219/19 610/220/19 602/221/19
f 606/220/20 608/221/20 607/218/20 604/219/20
f 604/222/2 607/223/2 609/224/2 600/225/2
f 603/226/20 607/227/20 608/228/20 605/229/20
f 599/230/2 609/231/2 607/232/2 603/233/2
f 601/234/19 610/235/19 609/226/19 599/236/19
f 599/225/4 603/237/4 605/238/4 601/239/4
f 614/208/15 613/209/15 611/210/15 612/211/15
f 615/212/13 617/213/13 616/214/13
f 620/215/18 618/216/18 619/217/18
f 622/218/25 631/219/25 632/220/25 624/221/25
f 628/220/26 630/221/26 629/218/26 626/219/26
f 626/222/4 629/223/4 631/224/4 622/225/4
f 625/226/26 629/227/26 630/228/26 627/229/26
f 621/230/4 631/231/4 629/232/4 625/233/4
f 623/234/25 632/235/25 631/226/25 621/236/25
f 621/225/1 625/237/1 627/238/1 623/239/1
f 636/208/14 635/209/14 633/210/14 634/211/14
f 637/212/13 639/213/13 638/214/13
f 642/215/18 640/216/18 641/217/18
f 644/218/23 653/219/23 654/220/23 646/221/23
f 650/220/24 652/221/24 651/218/24 648/219/24
f 648/222/3 651/223/3 653/224/3 644/225/3
f 647/226/24 651/227/24 652/228/24 649/229/24
f 643/230/3 653/231/3 651/232/3 647/233/3
f 645/234/23 654/235/23 653/226/23 643/236/23
f 643/225/2 647/237/2 649/238/2 645/239/2
f 658/208/16 657/209/16 655/210/16 656/211/16
f 659/212/13 661/213/13 660/214/13
f 664/215/18 662/216/18 663/217/18
f 666/218/21 675/219/21 676/220/21 668/221/21
f 672/220/22 674/221/22 673/218/22 670/219/22
f 670/222/1 673/223/1 675/224/1 666/225/1
f 669/226/22 673/227/22 674/228/22 671/229/22
f 665/230/1 675/231/1 673/232/1 669/233/1
f 667/234/21 676/235/21 675/226/21 665/236/21
f 665/225/3 669/237/3 671/238/3 667/239/3
f 680/208/17 679/209/17 677/210/17 678/211/17
f 681/212/13 683/213/13 682/214/13
f 686/215/18 684/216/18 685/217/18
f 688/218/19 697/219/19 698/220/19 690/221/19
f 694/220/20 696/221/20 695/218/20 692/219/20
f 692/222/2 695/223/2 697/224/2 688/225/2
f 691/226/20 695/227/20 696/228/20 693/229/20
f 687/230/2 697/231/2 695/232/2 691/233/2
f 689/234/19 698/235/19 697/226/19 687/236/19
f 687/225/4 691/237/4 693/238/4 689/239/4
f 702/208/15 701/209/15 699/210/15 700/211/15
f 703/212/13 705/213/13 704/214/13
f 708/215/18 706/216/18 707/217/18
f 710/218/25 719/219/25 720/220/25 712/221/25
f 716/220/26 718/221/26 717/218/26 714/219/26
f 714/222/4 717/223/4 719/224/4 710/225/4
f 713/226/26 717/227/26 718/228/26 715/229/26
f 709/230/4 719/231/4 717/232/4 713/233/4
f 711/234/25 720/235/25 719/226/25 709/236/25
f 709/225/1 713/237/1 715/238/1 711/239/1
f 724/240/28 722/241/28 723/242/28 725/243/28
f 725/208/3 723/244/3 721/245/3
f 729/208/16 728/209/16 726/210/16 727/211/16
f 730/212/13 732/213/13 731/214/13
f 735/215/18 733/216/18 734/217/18
f 737/218/21 746/219/21 747/220/21 739/221/21
f 743/220/22 745/221/22 744/218/22 741/219/22
f 741/222/1 744/223/1 746/224/1 737/225/1
f 740/226/22 744/227/22 745/228/22 742/229/22
f 736/230/1 746/231/1 744/232/1 740/233/1
f 738/234/21 747/235/21 746/226/21 736/236/21
f 736/225/3 740/237/3 742/238/3 738/239/3
f 751/246/1 749/247/1 748/248/1 750/249/1
f 754/246/2 752/247/2 753/248/2 755/249/2
f 748/250/13 749/251/13 753/252/13 752/253/13
f 751/254/18 750/255/18 754/256/18 755/257/18
f 750/251/3 748/250/3 752/253/3 754/252/3
f 755/258/4 753/259/4 749/260/4 751/261/4
f 759/262/4 758/263/4 760/264/4 761/265/4
f 761/266/4 760/267/4 762/268/4 763/269/4
f 763/270/4 762/271/4 764/272/4 765/273/4
f 756/268/4 757/269/4 765/274/4 764/275/4
f 769/276/4 768/277/4 770/278/4 771/279/4
f 771/280/4 770/281/4 772/282/4 773/283/4
f 773/284/4 772/285/4 774/286/4 775/287/4
f 766/282/4 767/283/4 775/288/4 774/289/4
f 779/246/3 777/247/3 776/248/3 778/249/3
f 782/246/4 780/247/4 781/248/4 783/249/4
f 776/250/13 777/251/13 781/252/13 780/253/13
f 779/254/18 778/255/18 782/256/18 783/257/18
f 778/251/2 776/250/2 780/253/2 782/252/2
f 783/258/1 781/259/1 777/260/1 779/261/1
f 787/262/1 786/263/1 788/264/1 789/265/1
f 789/266/1 788/267/1 790/268/1 791/269/1
f 791/270/1 790/271/1 792/272/1 793/273/1
f 784/268/1 785/269/1 793/274/1 792/275/1
f 797/276/1 796/277/1 798/278/1 799/279/1
f 799/280/1 798/281/1 800/282/1 801/283/1
f 801/284/1 800/285/1 802/286/1 803/287/1
f 794/282/1 795/283/1 803/288/1 802/289/1
f 807/246/2 805/247/2 804/248/2 806/249/2
f 810/246/1 808/247/1 809/248/1 811/249/1
f 804/250/13 805/251/13 809/252/13 808/253/13
f 807/254/18 806/255/18 810/256/18 811/257/18
f 806/251/4 804/250/4 808/253/4 810/252/4
f 811/258/3 809/259/3 805/260/3 807/261/3
f 815/262/3 814/263/3 816/264/3 817/265/3
f 817/266/3 816/267/3 818/268/3 819/269/3
f 819/270/3 818/271/3 820/272/3 821/273/3
f 812/268/3 813/269/3 821/274/3 820/275/3
f 825/276/3 824/277/3 826/278/3 827/279/3
f 827/280/3 826/281/3 828/282/3 829/283/3
f 829/284/3 828/285/3 830/286/3 831/287/3
f 822/282/3 823/283/3 831/288/3 830/289/3
f 835/246/4 833/247/4 832/248/4 834/249/4
f 838/246/3 836/247/3 837/248/3 839/249/3
f 832/250/13 833/251/13 837/252/13 836/253/13
f 835/254/18 834/255/18 838/256/18 839/257/18
f 834/251/1 832/250/1 836/253/1 838/252/1
f 839/258/2 837/259/2 833/260/2 835/261/2
f 843/262/2 842/263/2 844/264/2 845/265/2
f 845/266/2 844/267/2 846/268/2 847/269/2
f 847/270/2 846/271/2 848/272/2 849/273/2
f 840/268/2 841/269/2 849/274/2 848/275/2
f 853/276/2 852/277/2 854/278/2 855/279/2
f 855/280/2 854/281/2 856/282/2 857/283/2
f 857/284/2 856/285/2 858/286/2 859/287/2
f 850/282/2 851/283/2 859/288/2 858/289/2
f 861/262/3 862/265/3 863/264/3 860/263/3
f 862/266/3 864/269/3 865/268/3 863/267/3
f 864/270/3 866/273/3 867/272/3 865/271/3
f 868/268/3 867/275/3 866/274/3 869/269/3
f 871/276/3 872/279/3 873/278/3 870/277/3
f 872/280/3 874/283/3 875/282/3 873/281/3
f 874/284/3 876/287/3 877/286/3 875/285/3
f 878/282/3 877/289/3 876/288/3 879/283/3
f 766/282/1 774/289/1 877/289/1 878/282/1
f 771/280/2 773/283/2 874/283/2 872/280/2
f 757/269/18 756/268/18 868/268/18 869/269/18
f 775/288/2 767/283/2 879/283/2 876/288/2
f 760/264/1 758/263/1 860/263/1 863/264/1
f 756/268/1 764/275/1 867/275/1 868/268/1
f 761/266/2 763/269/2 864/269/2 862/266/2
f 772/282/1 770/281/1 873/281/1 875/282/1
f 765/274/2 757/269/2 869/269/2 866/274/2
f 773/284/2 775/287/2 876/287/2 874/284/2
f 768/277/13 769/276/13 871/276/13 870/277/13
f 762/268/1 760/267/1 863/267/1 865/268/1
f 769/276/2 771/279/2 872/279/2 871/276/2
f 763/270/2 765/273/2 866/273/2 864/270/2
f 774/286/1 772/285/1 875/285/1 877/286/1
f 758/263/13 759/262/13 861/262/13 860/263/13
f 767/283/18 766/282/18 878/282/18 879/283/18
f 759/262/2 761/265/2 862/265/2 861/262/2
f 770/278/1 768/277/1 870/277/1 873/278/1
f 764/272/1 762/271/1 865/271/1 867/272/1
f 881/262/1 882/265/1 883/264/1 880/263/1
f 882/266/1 884/269/1 885/268/1 883/267/1
f 884/270/1 886/273/1 887/272/1 885/271/1
f 888/268/1 887/275/1 886/274/1 889/269/1
f 891/276/1 892/279/1 893/278/1 890/277/1
f 892/280/1 894/283/1 895/282/1 893/281/1
f 894/284/1 896/287/1 897/286/1 895/285/1
f 898/282/1 897/289/1 896/288/1 899/283/1
f 840/268/4 848/275/4 887/275/4 888/268/4
f 845/266/3 847/269/3 884/269/3 882/266/3
f 856/282/4 854/281/4 893/281/4 895/282/4
f 849/274/3 841/269/3 889/269/3 886/274/3
f 857/284/3 859/287/3 896/287/3 894/284/3
f 852/277/13 853/276/13 891/276/13 890/277/13
f 846/268/4 844/267/4 883/267/4 885/268/4
f 853/276/3 855/279/3 892/279/3 891/276/3
f 847/270/3 849/273/3 886/273/3 884/270/3
f 858/286/4 856/285/4 895/285/4 897/286/4
f 842/263/13 843/262/13 881/262/13 880/263/13
f 851/283/18 850/282/18 898/282/18 899/283/18
f 843/262/3 845/265/3 882/265/3 881/262/3
f 854/278/4 852/277/4 890/277/4 893/278/4
f 848/272/4 846/271/4 885/271/4 887/272/4
f 850/282/4 858/289/4 897/289/4 898/282/4
f 855/280/3 857/283/3 894/283/3 892/280/3
f 841/269/18 840/268/18 888/268/18 889/269/18
f 859/288/3 851/283/3 899/283/3 896/288/3
f 844/264/4 842/263/4 880/263/4 883/264/4
f 901/262/4 902/265/4 903/264/4 900/263/4
f 902/266/4 904/269/4 905/268/4 903/267/4
f 904/270/4 906/273/4 907/272/4 905/271/4
f 908/268/4 907/275/4 906/274/4 909/269/4
f 911/276/4 912/279/4 913/278/4 910/277/4
f 912/280/4 914/283/4 915/282/4 913/281/4
f 914/284/4 916/287/4 917/286/4 915/285/4
f 918/282/4 917/289/4 916/288/4 919/283/4
f 819/270/1 821/273/1 906/273/1 904/270/1
f 830/286/2 828/285/2 915/285/2 917/286/2
f 814/263/13 815/262/13 901/262/13 900/263/13
f 823/283/18 822/282/18 918/282/18 919/283/18
f 815/262/1 817/265/1 902/265/1 901/262/1
f 826/278/2 824/277/2 910/277/2 913/278/2
f 820/272/2 818/271/2 905/271/2 907/272/2
f 822/282/2 830/289/2 917/289/2 918/282/2
f 827/280/1 829/283/1 914/283/1 912/280/1
f 813/269/18 812/268/18 908/268/18 909/269/18
f 831/288/1 823/283/1 919/283/1 916/288/1
f 816/264/2 814/263/2 900/263/2 903/264/2
f 812/268/2 820/275/2 907/275/2 908/268/2
f 817/266/1 819/269/1 904/269/1 902/266/1
f 828/282/2 826/281/2 913/281/2 915/282/2
f 821/274/1 813/269/1 909/269/1 906/274/1
f 829/284/1 831/287/1 916/287/1 914/284/1
f 824/277/13 825/276/13 911/276/13 910/277/13
f 818/268/2 816/267/2 903/267/2 905/268/2
f 825/276/1 827/279/1 912/279/1 911/276/1
f 921/262/2 922/265/2 923/264/2 920/263/2
f 922/266/2 924/269/2 925/268/2 923/267/2
f 924/270/2 926/273/2 927/272/2 925/271/2
f 928/268/2 927/275/2 926/274/2 929/269/2
f 931/276/2 932/279/2 933/278/2 930/277/2
f 932/280/2 934/283/2 935/282/2 933/281/2
f 934/284/2 936/287/2 937/286/2 935/285/2
f 938/282/2 937/289/2 936/288/2 939/283/2
f 784/268/3 792/275/3 927/275/3 928/268/3
f 789/266/4 791/269/4 924/269/4 922/266/4
f 800/282/3 798/281/3 933/281/3 935/282/3
f 793/274/4 785/269/4 929/269/4 926/274/4
f 801/284/4 803/287/4 936/287/4 934/284/4
f 796/277/13 797/276/13 931/276/13 930/277/13
f 790/268/3 788/267/3 923/267/3 925/268/3
f 797/276/4 799/279/4 932/279/4 931/276/4
f 791/270/4 793/273/4 926/273/4 924/270/4
f 802/286/3 800/285/3 935/285/3 937/286/3
f 786/263/13 787/262/13 921/262/13 920/263/13
f 795/283/18 794/282/18 938/282/18 939/283/18
f 787/262/4 789/265/4 922/265/4 921/262/4
f 798/278/3 796/277/3 930/277/3 933/278/3
f 792/272/3 790/271/3 925/271/3 927/272/3
f 794/282/3 802/289/3 937/289/3 938/282/3
f 799/280/4 801/283/4 934/283/4 932/280/4
f 785/269/18 784/268/18 928/268/18 929/269/18
f 803/288/4 795/283/4 939/283/4 936/288/4
f 788/264/3 786/263/3 920/263/3 923/264/3
