# Blender 4.2.3 LTS
# www.blender.org
mtllib axle.mtl
o axle
v 0.848214 0.044194 0.044194
v 0.848214 0.000000 0.062500
v -1.839286 0.000000 0.062500
v -1.839286 0.044194 0.044194
v 0.848214 0.044194 -0.044194
v 0.848214 0.062500 -0.000000
v -1.839286 0.062500 -0.000000
v -1.839286 0.044194 -0.044194
v -1.839286 -0.044194 0.044194
v -2.839286 -0.044194 0.044194
v -2.839286 0.000000 0.062500
v 1.160714 -0.062500 0.000000
v 1.160714 -0.044194 -0.044194
v 0.910714 -0.044194 -0.044194
v 0.910714 -0.062500 0.000000
v 0.910714 -0.044194 0.044194
v 1.160714 -0.044194 0.044194
v 0.848214 -0.062500 0.000000
v 0.848214 -0.044194 0.044194
v 1.160714 -0.000000 -0.062500
v 1.160714 0.044194 -0.044194
v 0.910714 0.044194 -0.044194
v 0.910714 -0.000000 -0.062500
v 0.910714 0.062500 -0.000000
v -2.839286 0.044194 0.044194
v -2.839286 0.062500 -0.000000
v 1.160714 0.062500 -0.000000
v 1.160714 0.044194 0.044194
v 0.910714 0.044194 0.044194
v -1.839286 -0.062500 0.000000
v 0.848214 -0.044194 -0.044194
v -1.839286 -0.044194 -0.044194
v 1.160714 0.000000 0.062500
v 0.910714 0.000000 0.062500
v 0.848214 -0.000000 -0.062500
v -2.839286 -0.062500 0.000000
v -1.839286 -0.000000 -0.062500
v -2.839286 0.044194 -0.044194
v -2.839286 -0.000000 -0.062500
v -2.839286 -0.044194 -0.044194
v 0.842865 0.172196 0.448473
v 0.842865 0.134243 0.321438
v 0.967865 0.449634 0.167647
v 0.842865 0.449634 0.167647
v 0.967865 0.322147 0.131239
v 0.842865 0.322147 0.131239
v 0.842865 0.447560 -0.174073
v 0.967865 0.320524 -0.136120
v 0.842865 0.320524 -0.136120
v 0.842865 0.166734 -0.451510
v 0.967865 0.130326 -0.324024
v 0.842865 0.130326 -0.324024
v 0.967865 -0.174986 -0.449436
v 0.842865 -0.174986 -0.449436
v 0.842865 -0.137033 -0.322401
v 0.842865 -0.452424 -0.168611
v 0.967865 -0.324937 -0.132202
v 0.842865 -0.324937 -0.132202
v 0.967865 -0.450350 0.173109
v 0.842865 -0.450350 0.173109
v 0.842865 -0.323315 0.135157
v 0.842865 -0.169524 0.450547
v 0.842865 -0.133116 0.323060
v 0.967865 0.166734 -0.451510
v 0.967865 0.447560 -0.174073
v 0.967865 0.172196 0.448473
v 0.967865 0.134243 0.321438
v 0.967865 -0.169524 0.450547
v 0.967865 -0.133116 0.323061
v 0.967865 -0.323315 0.135157
v 0.967865 -0.452424 -0.168610
v 0.967865 -0.137033 -0.322401
v 0.842865 0.149513 0.148605
v 0.842865 0.147692 -0.151389
v 0.967865 0.149513 0.148605
v 0.967865 0.147692 -0.151389
v 0.842865 -0.150482 0.150426
v 0.842865 -0.152303 -0.149569
v 0.967865 -0.150482 0.150426
v 0.967865 -0.152303 -0.149569
v 0.905365 0.146554 -0.338886
v 0.905365 -0.153441 -0.337065
v 0.905365 -0.339799 -0.148431
v 0.905365 0.335188 -0.152527
v 0.905365 -0.337979 0.151564
v 0.905365 0.150651 0.336102
v 0.905365 0.337009 0.147467
v 0.905365 -0.149344 0.337922
v 0.908490 0.150651 0.336102
v 0.908490 -0.149344 0.337922
v 0.908490 -0.337979 0.151564
v 0.908490 0.335188 -0.152527
v 0.908490 0.337009 0.147467
v 0.908490 -0.339799 -0.148431
v 0.908490 0.146554 -0.338886
v 0.908490 -0.153441 -0.337065
v 0.842865 -0.452009 -0.100267
v 0.842865 -0.451594 -0.031923
v 0.842865 -0.451180 0.036421
v 0.842865 -0.450765 0.104765
v 0.967865 -0.451180 0.036421
v 0.967865 -0.450765 0.104765
v 0.967865 -0.324288 -0.025258
v 0.967865 -0.323964 0.028213
v 0.842865 -0.324613 -0.078730
v 0.842865 -0.324288 -0.025258
v 0.842865 -0.323964 0.028213
v 0.842865 -0.323639 0.081685
v 0.967865 -0.287356 -0.170242
v 0.967865 -0.249775 -0.208282
v 0.967865 -0.285961 -0.337106
v 0.967865 -0.323639 0.081685
v 0.967865 -0.324613 -0.078730
v 0.967865 -0.451594 -0.031922
v 0.967865 -0.452009 -0.100266
v 0.842865 -0.230474 -0.393271
v 0.842865 -0.285961 -0.337106
v 0.842865 -0.341449 -0.280941
v 0.842865 -0.396936 -0.224776
v 0.967865 -0.230474 -0.393271
v 0.967865 -0.341449 -0.280940
v 0.967865 -0.396936 -0.224775
v 0.967865 -0.174614 -0.284361
v 0.967865 -0.212195 -0.246321
v 0.842865 -0.174614 -0.284361
v 0.842865 -0.212195 -0.246321
v 0.842865 -0.249775 -0.208282
v 0.842865 -0.287356 -0.170242
v 0.842865 0.098390 -0.451095
v 0.842865 0.030046 -0.450680
v 0.842865 -0.038298 -0.450266
v 0.842865 -0.106642 -0.449851
v 0.967865 0.030046 -0.450680
v 0.967865 -0.038298 -0.450266
v 0.967865 -0.106642 -0.449851
v 0.967865 -0.083561 -0.322726
v 0.842865 0.076854 -0.323699
v 0.842865 0.023382 -0.323375
v 0.842865 -0.030089 -0.323050
v 0.842865 -0.083561 -0.322726
v 0.967865 0.076854 -0.323699
v 0.967865 0.023382 -0.323375
v 0.967865 -0.030089 -0.323050
v 0.967865 0.098390 -0.451095
v 0.967865 0.279064 -0.340535
v 0.842865 0.391395 -0.229560
v 0.842865 0.335230 -0.285048
v 0.842865 0.279064 -0.340535
v 0.842865 0.222899 -0.396023
v 0.967865 0.391395 -0.229560
v 0.967865 0.335230 -0.285048
v 0.967865 0.222899 -0.396023
v 0.967865 0.282484 -0.173701
v 0.967865 0.244445 -0.211282
v 0.967865 0.206405 -0.248862
v 0.967865 0.168366 -0.286443
v 0.842865 0.282484 -0.173701
v 0.842865 0.244445 -0.211282
v 0.842865 0.206405 -0.248862
v 0.842865 0.168366 -0.286443
v 0.842865 0.449219 0.099303
v 0.842865 0.448804 0.030959
v 0.842865 0.448390 -0.037385
v 0.842865 0.447975 -0.105729
v 0.967865 0.449219 0.099303
v 0.967865 0.448804 0.030959
v 0.967865 0.448390 -0.037385
v 0.967865 0.447975 -0.105729
v 0.967865 0.321822 0.077767
v 0.967865 0.321498 0.024295
v 0.967865 0.321173 -0.029176
v 0.967865 0.320849 -0.082648
v 0.842865 0.321822 0.077767
v 0.842865 0.321498 0.024295
v 0.842865 0.321173 -0.029176
v 0.842865 0.320849 -0.082648
v 0.842865 0.227684 0.392308
v 0.842865 0.283171 0.336143
v 0.842865 0.338659 0.279977
v 0.842865 0.394146 0.223812
v 0.967865 0.227684 0.392308
v 0.967865 0.338659 0.279977
v 0.967865 0.394146 0.223812
v 0.967865 0.171824 0.283398
v 0.967865 0.209405 0.245358
v 0.967865 0.284566 0.169279
v 0.842865 0.171824 0.283398
v 0.842865 0.209405 0.245358
v 0.842865 0.246985 0.207319
v 0.842865 0.284566 0.169279
v 0.967865 0.246985 0.207319
v 0.967865 0.283171 0.336143
v 0.967865 0.080771 0.321763
v 0.967865 0.027299 0.322087
v 0.967865 -0.101180 0.450132
v 0.967865 -0.171156 0.285480
v 0.967865 -0.247235 0.210319
v 0.967865 -0.285275 0.172738
v 0.967865 -0.225689 0.395059
v 0.967865 -0.281854 0.339572
v 0.967865 -0.338020 0.284084
v 0.842865 -0.394185 0.228597
v 0.842865 -0.338020 0.284084
v 0.842865 -0.281854 0.339572
v 0.842865 -0.225689 0.395059
v 0.967865 -0.394185 0.228597
v 0.967865 -0.209196 0.247899
v 0.842865 -0.285275 0.172738
v 0.842865 -0.247235 0.210318
v 0.842865 -0.209196 0.247899
v 0.842865 -0.171156 0.285479
v 0.842865 0.103852 0.448888
v 0.842865 0.035508 0.449303
v 0.842865 -0.032836 0.449717
v 0.842865 -0.101180 0.450132
v 0.967865 0.103852 0.448888
v 0.967865 0.035508 0.449303
v 0.967865 -0.032836 0.449717
v 0.967865 -0.026172 0.322412
v 0.967865 -0.079644 0.322736
v 0.842865 0.080771 0.321762
v 0.842865 0.027299 0.322087
v 0.842865 -0.026172 0.322411
v 0.842865 -0.079644 0.322736
v 0.842865 -0.562921 -0.065420
v 0.842865 -0.562507 0.071268
v 0.967865 -0.562921 -0.065418
v 0.967865 -0.562507 0.071269
v 0.842865 -0.430303 0.349410
v 0.842865 -0.346055 0.432642
v 0.967865 -0.430303 0.349410
v 0.967865 -0.346055 0.432642
v 0.842865 0.070356 0.560630
v 0.842865 -0.066332 0.561044
v 0.967865 0.070356 0.560630
v 0.967865 -0.066332 0.561044
v 0.842865 0.348497 0.428426
v 0.842865 0.431729 0.344178
v 0.967865 0.348497 0.428426
v 0.967865 0.431729 0.344178
v 0.842865 0.560131 0.064455
v 0.842865 0.559717 -0.072233
v 0.967865 0.560131 0.064455
v 0.967865 0.559717 -0.072233
v 0.842865 0.427513 -0.350374
v 0.842865 0.343265 -0.433605
v 0.967865 0.427513 -0.350374
v 0.967865 0.343265 -0.433605
v 0.842865 0.063542 -0.562007
v 0.842865 -0.073146 -0.561593
v 0.967865 0.063542 -0.562007
v 0.967865 -0.073146 -0.561593
v 0.842865 -0.351287 -0.429390
v 0.842865 -0.434518 -0.345142
v 0.967865 -0.351287 -0.429389
v 0.967865 -0.434518 -0.345141
vn -0.0000 0.7114 0.7028
vn -0.0005 -0.7114 -0.7028
vn -0.0000 -0.7110 -0.7031
vn -1.0000 -0.0000 -0.0000
vn -0.0000 1.0000 -0.0061
vn 0.0007 -1.0000 0.0061
vn -0.0000 -1.0000 0.0055
vn -0.0000 -1.0000 0.0064
vn -0.0000 0.7028 -0.7114
vn -0.0000 -0.7028 0.7114
vn -0.0000 -0.0061 -1.0000
vn 0.0007 0.0061 1.0000
vn -0.0000 0.0055 1.0000
vn -0.0000 0.0064 1.0000
vn -0.0000 -0.7114 -0.7028
vn -0.0000 -1.0000 0.0061
vn -0.0000 0.0061 1.0000
vn 1.0000 -0.0000 -0.0000
vn 1.0000 0.0003 -0.0006
vn 1.0000 -0.0005 0.0005
vn 1.0000 -0.0004 -0.0003
vn 1.0000 0.0006 0.0003
vn 1.0000 0.0002 -0.0004
vn 1.0000 -0.0005 -0.0005
vn 1.0000 0.0004 -0.0005
vn -0.0000 1.0000 -0.0054
vn 0.0008 1.0000 -0.0061
vn -0.0000 1.0000 -0.0065
vn -0.0000 -0.0065 -1.0000
vn 1.0000 -0.0000 -0.0007
vn 1.0000 -0.0007 -0.0000
vn 1.0000 -0.0000 0.0007
vn 1.0000 0.0007 -0.0000
vn 1.0000 0.0005 0.0005
vn 1.0000 -0.0003 -0.0006
vn 1.0000 -0.0004 0.0002
vn 1.0000 0.0005 0.0004
vn 1.0000 -0.0004 0.0005
vn 1.0000 -0.0004 -0.0006
vn 1.0000 0.0006 -0.0003
vn 1.0000 -0.0003 0.0006
vn 1.0000 -0.0004 -0.0005
vn 1.0000 0.0007 0.0004
vn 1.0000 -0.0002 0.0005
vn 1.0000 -0.0002 -0.0003
vn 1.0000 0.0006 -0.0005
vn 1.0000 0.0003 0.0006
vn 0.0008 0.0061 1.0000
vn -0.0000 0.0066 1.0000
vn 0.0006 0.0061 1.0000
vn -0.0000 0.0067 1.0000
vn -0.0000 0.0065 1.0000
vn -0.0000 0.9540 -0.2997
vn -0.0005 -0.7028 0.7114
vn -0.0000 -0.7030 0.7111
vn -0.0000 -0.7025 0.7117
vn -0.0000 -0.7032 0.7110
vn -0.0003 -0.7028 0.7114
vn 0.0006 -1.0000 0.0061
vn 0.0008 -1.0000 0.0061
vn -0.0000 -1.0000 0.0065
vn -0.0000 -0.7117 -0.7025
vn -0.0003 -0.7114 -0.7028
vn 1.0000 0.0005 -0.0005
vn 1.0000 -0.0006 0.0003
vn 1.0000 0.0003 -0.0004
vn 1.0000 0.0004 0.0003
vn 1.0000 -0.0004 0.0003
vn 1.0000 0.0004 -0.0004
vn 1.0000 0.0007 0.0003
vn 1.0000 -0.0004 0.0004
vn 1.0000 -0.0003 -0.0005
vn 1.0000 -0.0003 -0.0004
vn -0.0000 -1.0000 0.0030
vn -0.0000 0.0030 1.0000
vn -0.0000 0.2997 0.9540
vn -0.0000 0.2871 -0.9579
vn -0.0000 0.9581 0.2864
vn -0.0000 -0.2980 -0.9546
vn -0.0000 1.0000 -0.0030
vn -0.0000 -0.2997 -0.9540
vn -0.0000 -0.9581 -0.2864
vn -0.0000 -0.2871 0.9579
vn -0.0000 -0.0030 -1.0000
vn -0.0000 -0.9579 -0.2871
vn -0.0000 -0.9546 0.2980
vn -0.0000 0.2864 -0.9581
vn -0.0000 0.9546 -0.2980
vn -0.0000 -0.2864 0.9581
vn -0.0000 0.9579 0.2871
vn -0.0000 -0.9540 0.2997
vn -0.0000 0.2980 0.9546
vn -0.0000 0.3827 0.9239
vn 0.0006 0.3827 0.9239
vn -0.0000 0.9239 -0.3827
vn 0.0005 0.9239 -0.3827
vn -0.0000 -0.3827 0.9239
vn -0.0006 -0.3827 0.9239
vn -0.0000 -0.9239 -0.3827
vn -0.0007 -0.9239 -0.3827
vn -0.0000 -0.9239 0.3827
vn 0.0007 -0.9239 0.3827
vn -0.0000 0.3827 -0.9239
vn -0.0000 0.9239 0.3827
vn -0.0007 0.9239 0.3827
vn 0.0005 -0.9239 0.3827
vn -0.0005 -0.9239 -0.3827
vn -0.0005 0.9239 0.3827
vn -0.0006 0.3827 -0.9239
vn -0.0000 -0.3827 -0.9239
vn 0.0007 0.9239 -0.3827
vn 0.0006 -0.3827 -0.9239
vn -1.0000 -0.0003 0.0007
vn -1.0000 0.0007 -0.0003
vn -1.0000 -0.0007 -0.0003
vn -1.0000 0.0003 0.0007
vn -1.0000 0.0003 -0.0007
vn -1.0000 -0.0007 0.0003
vn -1.0000 0.0007 0.0003
vn -1.0000 -0.0003 -0.0007
vt 0.575000 0.989421
vt 0.552083 0.989421
vt 0.552083 0.968912
vt 0.575000 0.968912
vt 0.704167 0.968912
vt 0.718750 0.968912
vt 0.718750 0.989421
vt 0.704167 0.989421
vt 0.510415 0.867820
vt 0.510415 0.852967
vt 0.531257 0.835272
vt 0.531257 0.857203
vt 0.571068 0.989421
vt 0.571068 0.968912
vt 0.631250 0.968912
vt 0.645833 0.968912
vt 0.645833 0.989421
vt 0.631250 0.989421
vt 0.510415 0.867758
vt 0.510415 0.852904
vt 0.531184 0.842577
vt 0.531184 0.861562
vt 0.627084 0.989421
vt 0.604167 0.989421
vt 0.604167 0.968912
vt 0.627084 0.968912
vt 0.641667 0.968912
vt 0.656250 0.968912
vt 0.656250 0.989421
vt 0.641667 0.989421
vt 0.510415 0.870808
vt 0.510415 0.855955
vt 0.531257 0.838261
vt 0.531257 0.860192
vt 0.581250 0.989421
vt 0.562500 0.989421
vt 0.562500 0.968912
vt 0.581250 0.968912
vt 0.510415 0.866294
vt 0.510415 0.851440
vt 0.531184 0.841113
vt 0.531184 0.860098
vt 0.606250 0.989421
vt 0.583333 0.989421
vt 0.583333 0.968912
vt 0.606250 0.968912
vt 0.672917 0.968912
vt 0.687500 0.968912
vt 0.687500 0.989421
vt 0.672917 0.989421
vt 0.622917 0.989421
vt 0.622917 0.968912
vt 0.610417 0.968912
vt 0.625000 0.968912
vt 0.625000 0.989421
vt 0.610417 0.989421
vt 0.510415 0.912319
vt 0.510415 0.927173
vt 0.531184 0.937500
vt 0.531184 0.918515
vt 0.616667 0.989421
vt 0.593750 0.989421
vt 0.593750 0.968912
vt 0.616667 0.968912
vt 0.510415 0.915369
vt 0.510415 0.930222
vt 0.531257 0.947917
vt 0.531257 0.925986
vt 0.643750 0.989421
vt 0.643750 0.968912
vt 0.693750 0.968912
vt 0.708333 0.968912
vt 0.708333 0.989421
vt 0.693750 0.989421
vt 0.510439 0.867758
vt 0.510439 0.852904
vt 0.531266 0.842577
vt 0.531266 0.861562
vt 0.510439 0.870808
vt 0.510439 0.855955
vt 0.531339 0.838261
vt 0.531339 0.860192
vt 0.510439 0.866294
vt 0.510439 0.851440
vt 0.531266 0.841113
vt 0.531266 0.860098
vt 0.510439 0.867820
vt 0.510439 0.852967
vt 0.531339 0.835272
vt 0.531339 0.857203
vt 0.510439 0.912319
vt 0.510439 0.927173
vt 0.531266 0.937500
vt 0.531266 0.918515
vt 0.510439 0.915369
vt 0.510439 0.930222
vt 0.531339 0.947917
vt 0.531339 0.925986
vt 0.645833 0.947917
vt 0.645833 0.906250
vt 0.729167 0.906250
vt 0.729167 0.947917
vt 0.552083 0.947917
vt 0.552083 0.864583
vt 0.635417 0.864583
vt 0.635417 0.947917
vt 0.760417 0.875000
vt 0.812500 0.822917
vt 0.625000 0.822917
vt 0.677083 0.875000
vt 0.812500 0.739583
vt 0.625000 0.739583
vt 0.760417 0.687500
vt 0.677083 0.687500
vt 0.510415 0.882612
vt 0.531184 0.880546
vt 0.510415 0.897465
vt 0.531184 0.899531
vt 0.566666 0.968912
vt 0.566666 0.989421
vt 0.595833 0.968912
vt 0.595833 0.989421
vt 0.697917 0.989421
vt 0.679167 0.989421
vt 0.679167 0.968912
vt 0.697917 0.968912
vt 0.510439 0.885662
vt 0.531339 0.882123
vt 0.510439 0.900515
vt 0.531339 0.904055
vt 0.510439 0.882612
vt 0.531266 0.880546
vt 0.510439 0.897465
vt 0.531266 0.899531
vt 0.510415 0.927234
vt 0.510415 0.912381
vt 0.531257 0.922997
vt 0.531257 0.944928
vt 0.510415 0.897527
vt 0.531257 0.901066
vt 0.510415 0.882674
vt 0.531257 0.879134
vt 0.614583 0.968912
vt 0.629166 0.968912
vt 0.629166 0.989421
vt 0.614583 0.989421
vt 0.658333 0.968912
vt 0.658333 0.989421
vt 0.675000 0.989421
vt 0.675000 0.968912
vt 0.687500 0.916760
vt 0.697917 0.937500
vt 0.708333 0.916760
vt 0.666667 0.916760
vt 0.656250 0.937500
vt 0.645833 0.916760
vt 0.510415 0.925709
vt 0.510415 0.910855
vt 0.531184 0.917051
vt 0.531184 0.936036
vt 0.510415 0.896001
vt 0.531184 0.898067
vt 0.510415 0.881148
vt 0.531184 0.879082
vt 0.572917 0.968912
vt 0.587500 0.968912
vt 0.587500 0.989421
vt 0.572917 0.989421
vt 0.602083 0.968912
vt 0.602083 0.989421
vt 0.637500 0.989421
vt 0.637500 0.968912
vt 0.600000 0.968912
vt 0.600000 0.989421
vt 0.510439 0.925709
vt 0.510439 0.910855
vt 0.531266 0.917051
vt 0.531266 0.936036
vt 0.510439 0.896001
vt 0.531266 0.898067
vt 0.510439 0.881148
vt 0.531266 0.879082
vt 0.510439 0.927234
vt 0.510439 0.912381
vt 0.531339 0.922997
vt 0.531339 0.944928
vt 0.510439 0.897527
vt 0.531339 0.901066
vt 0.510439 0.882674
vt 0.531339 0.879134
vt 0.510415 0.900515
vt 0.531257 0.904055
vt 0.510415 0.885662
vt 0.531257 0.882123
vt 0.597916 0.968912
vt 0.597916 0.989421
vt 0.612500 0.968912
vt 0.612500 0.989421
vt 0.627083 0.968912
vt 0.627083 0.989421
vt 0.695833 0.989421
vt 0.695833 0.968912
vt 0.647006 0.989421
vt 0.628021 0.989421
vt 0.628021 0.968912
vt 0.647006 0.968912
vt 0.660416 0.968912
vt 0.660416 0.989421
vt 0.689583 0.968912
vt 0.689583 0.989421
vt 0.666667 0.989421
vt 0.666667 0.968912
vt 0.510439 0.915368
vt 0.685416 0.989421
vt 0.685416 0.968912
vt 0.635417 0.968912
vt 0.650000 0.968912
vt 0.650000 0.989421
vt 0.635417 0.989421
vt 0.664583 0.968912
vt 0.664583 0.989421
vt 0.700000 0.989421
vt 0.700000 0.968912
vt 0.660417 0.989421
vt 0.660417 0.968912
vt 0.666667 0.916748
vt 0.687500 0.916748
vt 0.662500 0.989421
vt 0.639583 0.989421
vt 0.639583 0.968912
vt 0.662500 0.968912
vt 0.681250 0.989421
vt 0.681250 0.968912
vt 0.590052 0.968912
vt 0.590052 0.989421
vt 0.609037 0.989421
vt 0.609037 0.968912
vt 0.620833 0.989421
vt 0.597917 0.989421
vt 0.597917 0.968912
vt 0.620833 0.968912
vt 0.618750 0.989421
vt 0.618750 0.968912
vt 0.652083 0.989421
vt 0.629167 0.989421
vt 0.629167 0.968912
vt 0.652083 0.968912
vt 0.645833 0.916748
vt 0.708333 0.916748
vt 0.093750 0.953125
vt 0.429688 0.953125
vt 0.429688 0.947145
vt 0.093750 0.947145
vt 0.617188 0.900271
vt 0.281250 0.900271
vt 0.281250 0.906250
vt 0.617188 0.906250
vt 0.429688 0.966917
vt 0.554688 0.966917
vt 0.554688 0.960938
vt 0.429688 0.960938
vt 0.164062 0.828125
vt 0.132812 0.828125
vt 0.132812 0.835938
vt 0.164062 0.835938
vt 0.101562 0.828125
vt 0.101562 0.820312
vt 0.070312 0.820312
vt 0.070312 0.828125
vt 0.093750 0.966917
vt 0.093750 0.960938
vt 0.062500 0.843750
vt 0.031250 0.843750
vt 0.031250 0.851562
vt 0.062500 0.851562
vt 0.484375 0.851562
vt 0.609375 0.851562
vt 0.609375 0.845584
vt 0.484375 0.845584
vt 0.171875 0.835938
vt 0.203125 0.835938
vt 0.203125 0.828125
vt 0.171875 0.828125
vt 0.085938 0.998167
vt 0.421875 0.998167
vt 0.421875 0.992188
vt 0.085938 0.992188
vt 0.554688 0.976562
vt 0.218750 0.976562
vt 0.218750 0.982542
vt 0.554688 0.982542
vt 0.156250 0.890625
vt 0.187500 0.890625
vt 0.187500 0.882812
vt 0.156250 0.882812
vt 0.148438 0.851562
vt 0.148438 0.845584
vt 0.546875 0.998167
vt 0.546875 0.992188
vt 0.554688 0.931520
vt 0.218750 0.931520
vt 0.218750 0.937500
vt 0.554688 0.937500
vt 0.187500 0.867188
vt 0.156250 0.867188
vt 0.156250 0.875000
vt 0.187500 0.875000
vt 0.031250 0.835938
vt 0.062500 0.835938
vt 0.062500 0.828125
vt 0.031250 0.828125
vt 0.031250 0.812500
vt 0.000000 0.812500
vt 0.000000 0.820312
vt 0.031250 0.820312
vt 0.554688 0.953125
vt 0.554688 0.947145
vt 0.093750 0.931520
vt 0.093750 0.937500
vt 0.273438 0.914062
vt 0.148438 0.914062
vt 0.148438 0.920042
vt 0.273438 0.920042
vt 0.156250 0.900271
vt 0.156250 0.906250
vt 0.093750 0.976562
vt 0.093750 0.982542
vt 0.609375 0.914062
vt 0.609375 0.920042
s 0
usemtl gear
f 177/1/1 41/2/1 66/3/1 181/4/1
f 184/5/2 67/6/3 42/7/2 187/8/3
f 187/9/4 42/10/4 41/11/4 177/12/4
f 161/13/5 44/2/5 43/3/5 165/14/5
f 169/15/6 45/16/7 46/17/6 173/18/8
f 173/19/4 46/20/4 44/21/4 161/22/4
f 146/23/9 47/24/9 65/25/9 150/26/9
f 153/27/10 48/28/10 49/29/10 157/30/10
f 157/31/4 49/32/4 47/33/4 146/34/4
f 129/35/11 50/36/11 64/37/11 144/38/11
f 141/15/12 51/16/13 52/17/12 137/18/14
f 137/39/4 52/40/4 50/41/4 129/42/4
f 116/43/15 54/44/15 53/45/15 120/46/15
f 123/47/1 72/48/1 55/49/1 125/50/1
f 125/9/4 55/10/4 54/11/4 116/12/4
f 97/51/16 56/24/16 71/25/16 115/52/16
f 113/53/5 57/54/5 58/55/5 105/56/5
f 105/57/4 58/58/4 56/59/4 97/60/4
f 202/61/10 60/62/10 59/63/10 206/64/10
f 198/5/9 70/6/9 61/7/9 208/8/9
f 208/65/4 61/66/4 60/67/4 202/68/4
f 215/69/17 62/55/17 68/54/17 195/70/17
f 220/71/11 69/72/11 63/73/11 224/74/11
f 224/39/4 63/40/4 62/41/4 215/42/4
f 172/75/18 48/76/18 65/77/18 168/78/18
f 186/79/18 45/80/18 43/81/18 183/82/18
f 193/83/18 67/84/18 66/85/18 216/86/18
f 196/87/19 69/88/18 68/89/20 199/90/21
f 112/91/18 70/92/18 59/93/18 102/94/18
f 109/95/22 57/96/23 71/97/24 122/98/25
f 136/83/18 72/84/18 53/85/18 135/86/18
f 73/99/26 75/100/27 76/101/28 74/102/27
f 78/99/16 80/100/16 79/101/16 77/102/16
f 78/103/4 77/104/4 73/105/4 74/106/4
f 79/103/18 80/104/18 76/105/18 75/106/18
f 77/99/17 79/100/17 75/101/17 73/102/17
f 74/99/11 76/100/11 80/101/29 78/102/11
f 81/107/18 84/108/18 83/109/18 82/110/18
f 83/109/30 84/108/31 87/111/32 85/112/33
f 85/112/18 87/111/18 86/113/18 88/114/18
f 89/107/4 93/108/4 91/109/4 90/110/4
f 91/109/4 93/108/4 92/111/4 94/112/4
f 94/112/4 92/111/4 95/113/4 96/114/4
f 61/20/4 108/19/4 100/22/4 60/21/4
f 108/19/4 107/115/4 99/116/4 100/22/4
f 107/115/4 106/117/4 98/118/4 99/116/4
f 106/117/4 105/57/4 97/60/4 98/118/4
f 70/3/5 112/119/5 108/120/5 61/2/5
f 112/119/5 104/38/5 107/35/5 108/120/5
f 104/38/5 103/121/5 106/122/5 107/35/5
f 103/121/5 113/53/5 105/56/5 106/122/5
f 60/123/16 100/124/16 102/125/16 59/126/16
f 72/80/34 123/79/20 120/82/35 53/81/36
f 123/79/37 124/127/38 111/128/39 120/82/40
f 124/127/37 110/129/41 121/130/42 111/128/40
f 110/129/43 109/95/44 122/98/45 121/130/46
f 57/76/18 113/75/18 115/78/18 71/77/18
f 113/75/18 103/131/18 114/132/18 115/78/18
f 103/131/18 104/133/18 101/134/18 114/132/18
f 104/133/18 112/91/18 102/94/18 101/134/18
f 58/135/4 128/136/4 119/137/4 56/138/4
f 128/136/4 127/139/4 118/140/4 119/137/4
f 127/139/4 126/141/4 117/142/4 118/140/4
f 126/141/4 125/9/4 116/12/4 117/142/4
f 57/143/1 109/144/1 128/145/1 58/146/1
f 109/144/1 110/70/1 127/69/1 128/145/1
f 110/70/1 124/147/1 126/148/1 127/69/1
f 124/147/1 123/47/1 125/50/1 126/148/1
f 56/123/15 119/149/15 122/150/15 71/126/15
f 111/151/18 255/152/18 120/153/47
f 111/151/18 121/154/18 256/155/18 255/152/18
f 122/156/18 256/155/18 121/154/37
f 55/157/4 140/158/4 132/159/4 54/160/4
f 140/158/4 139/161/4 131/162/4 132/159/4
f 139/161/4 138/163/4 130/164/4 131/162/4
f 138/163/4 137/39/4 129/42/4 130/164/4
f 72/165/48 136/166/49 140/167/48 55/168/49
f 136/166/50 143/169/51 139/170/50 140/167/51
f 143/169/50 142/64/17 138/61/50 139/170/17
f 142/64/48 141/15/52 137/18/48 138/61/52
f 54/29/11 132/171/11 135/172/11 53/28/11
f 144/153/18 133/151/18 251/152/18
f 251/173/53 249/174/53 129/35/53 144/38/53
f 156/87/18 51/88/18 64/89/18 152/90/18
f 51/175/18 141/176/18 144/177/18 64/178/18
f 141/176/18 142/179/18 133/180/18 144/177/18
f 142/179/18 143/181/18 134/182/18 133/180/18
f 143/181/18 136/83/18 135/86/18 134/182/18
f 48/183/18 153/184/18 150/185/18 65/186/18
f 153/184/18 154/187/18 151/188/18 150/185/18
f 154/187/18 155/189/18 145/190/18 151/188/18
f 155/189/18 156/87/18 152/90/18 145/190/18
f 52/66/4 160/65/4 149/68/4 50/67/4
f 160/65/4 159/191/4 148/192/4 149/68/4
f 159/191/4 158/193/4 147/194/4 148/192/4
f 158/193/4 157/31/4 146/34/4 147/194/4
f 51/45/54 156/195/55 160/196/54 52/44/56
f 156/195/54 155/197/57 159/198/54 160/196/57
f 155/197/58 154/199/10 158/200/58 159/198/10
f 154/199/54 153/27/57 157/30/54 158/200/57
f 50/7/9 149/201/9 152/202/9 64/6/9
f 151/154/18 145/151/18 248/152/18 247/155/18
f 45/92/18 169/91/18 165/94/18 43/93/18
f 169/91/18 170/133/18 166/134/18 165/94/18
f 170/133/18 171/131/18 167/132/18 166/134/18
f 171/131/18 172/75/18 168/78/18 167/132/18
f 49/58/4 176/57/4 164/60/4 47/59/4
f 176/57/4 175/117/4 163/118/4 164/60/4
f 175/117/4 174/115/4 162/116/4 163/118/4
f 174/115/4 173/19/4 161/22/4 162/116/4
f 48/165/16 172/166/16 176/167/16 49/168/16
f 172/166/6 171/169/8 175/170/6 176/167/8
f 171/169/59 170/64/16 174/61/59 175/170/16
f 170/64/60 169/15/61 173/18/60 174/61/61
f 47/203/5 164/204/5 168/205/5 65/206/5
f 46/135/4 190/136/4 180/137/4 44/138/4
f 190/136/4 189/139/4 179/140/4 180/137/4
f 189/139/4 188/141/4 178/142/4 179/140/4
f 188/141/4 187/9/4 177/12/4 178/142/4
f 45/16/15 186/207/3 190/208/2 46/17/62
f 186/207/15 191/150/15 189/149/15 190/208/15
f 191/150/15 185/209/15 188/210/15 189/149/15
f 185/209/63 184/5/3 187/8/63 188/210/3
f 44/211/1 180/69/1 183/70/1 43/212/1
f 192/154/18 182/151/18 240/152/18 239/155/18
f 67/96/18 184/213/18 181/98/18 66/97/18
f 184/213/18 185/129/18 192/130/18 181/98/18
f 185/129/18 191/127/18 182/128/18 192/130/18
f 191/127/18 186/79/18 183/82/18 182/128/18
f 69/175/18 220/176/18 195/177/18 68/178/18
f 220/176/18 219/179/18 218/180/18 195/177/18
f 219/179/18 194/181/18 217/182/18 218/180/18
f 194/181/18 193/83/18 216/86/18 217/182/18
f 70/183/64 198/184/34 206/185/65 59/186/18
f 198/184/66 197/187/67 201/188/68 206/185/18
f 197/187/69 207/189/70 200/190/71 201/188/72
f 207/189/66 196/87/18 199/90/68 200/190/73
f 63/32/4 211/31/4 205/34/4 62/33/4
f 211/31/4 210/193/4 204/194/4 205/34/4
f 210/193/4 209/191/4 203/192/4 204/194/4
f 209/191/4 208/65/4 202/68/4 203/192/4
f 69/16/9 196/207/9 211/208/9 63/17/9
f 196/207/9 207/150/9 210/149/9 211/208/9
f 207/150/9 197/209/9 209/210/9 210/149/9
f 197/209/9 198/5/9 208/8/9 209/210/9
f 62/73/10 205/214/10 199/215/10 68/72/10
f 42/157/4 221/158/4 212/159/4 41/160/4
f 221/158/4 222/161/4 213/162/4 212/159/4
f 222/161/4 223/163/4 214/164/4 213/162/4
f 223/163/4 224/39/4 215/42/4 214/164/4
f 67/216/11 193/217/11 221/218/11 42/219/11
f 193/217/11 194/220/11 222/221/11 221/218/11
f 194/220/11 219/125/11 223/124/11 222/221/11
f 219/125/11 220/71/11 224/74/11 223/124/11
f 41/7/17 212/222/17 216/223/17 66/6/17
f 218/154/18 217/151/18 235/152/18 236/155/18
f 226/224/74 225/30/74 227/27/74 228/225/74
f 114/154/18 101/151/18 228/152/18 227/155/18
f 99/226/4 98/227/4 225/152/4 226/155/4
f 230/228/10 229/229/10 231/230/10 232/231/10
f 201/154/18 200/151/18 232/152/18 231/155/18
f 204/226/4 203/227/4 229/152/4 230/155/4
f 233/232/75 234/228/75 236/231/75 235/233/75
f 243/234/76 241/235/76 161/13/76 165/14/76
f 213/226/4 214/227/4 234/152/4 233/155/4
f 242/236/77 244/237/77 168/205/77 164/204/77
f 238/238/1 237/239/1 239/240/1 240/241/1
f 247/217/78 245/218/78 146/23/78 150/26/78
f 179/226/4 178/227/4 237/152/4 238/155/4
f 246/50/79 248/47/79 152/202/79 149/201/79
f 242/236/80 241/235/80 243/234/80 244/237/80
f 166/154/18 167/151/18 244/152/18 243/155/18
f 227/27/81 225/30/81 97/51/81 115/52/81
f 163/226/4 162/227/4 241/152/4 242/155/4
f 246/50/9 245/218/9 247/217/9 248/47/9
f 231/230/82 229/229/82 202/61/82 206/64/82
f 148/226/4 147/227/4 245/152/4 246/155/4
f 226/224/83 228/225/83 102/125/83 100/124/83
f 250/242/84 249/174/84 251/173/84 252/243/84
f 133/151/18 134/154/18 252/155/18 251/152/18
f 250/242/85 252/243/85 135/172/85 132/171/85
f 131/226/4 130/227/4 249/152/4 250/155/4
f 254/244/15 253/245/15 255/246/15 256/247/15
f 254/244/86 256/247/86 122/150/86 119/149/86
f 118/226/4 117/227/4 253/152/4 254/155/4
f 255/246/87 253/245/87 116/43/87 120/46/87
f 118/226/4 254/155/4 119/248/4
f 116/249/4 253/152/4 117/227/4
f 129/249/4 249/152/4 130/227/4
f 132/248/4 131/226/4 250/155/4
f 238/238/88 240/241/88 183/70/88 180/69/88
f 239/240/89 237/239/89 177/1/89 181/4/89
f 233/232/90 235/233/90 216/223/90 212/222/90
f 236/231/91 234/228/91 215/69/91 195/70/91
f 230/228/92 232/231/92 199/215/92 205/214/92
f 218/154/18 236/155/18 195/156/18
f 199/153/4 200/151/4 232/152/4
f 201/154/18 231/155/18 206/156/18
f 101/151/18 102/153/18 228/152/18
f 114/154/18 227/155/18 115/156/18
f 192/154/18 239/155/18 181/156/18
f 166/154/18 243/155/18 165/156/18
f 151/154/18 247/155/18 150/156/18
f 152/153/18 248/152/18 145/151/18
f 148/226/4 246/155/4 149/248/4
f 146/249/4 245/152/4 147/227/4
f 164/248/4 163/226/4 242/155/4
f 161/249/4 241/152/4 162/227/4
f 179/226/4 238/155/4 180/248/4
f 177/249/4 237/152/4 178/227/4
f 213/226/4 233/155/4 212/248/4
f 214/227/4 215/249/4 234/152/4
f 205/248/4 204/226/4 230/155/4
f 202/249/4 229/152/4 203/227/4
f 100/248/4 99/226/4 226/155/4
f 97/249/4 225/152/4 98/227/4
f 252/155/18 134/154/18 135/156/18
f 216/153/4 217/151/4 235/152/4
f 183/153/4 182/151/4 240/152/4
f 168/153/4 167/151/4 244/152/4
usemtl axle
f 1/250/93 4/251/93 3/252/93 2/253/94
f 5/254/95 8/255/95 7/256/95 6/257/96
f 3/258/97 11/259/98 10/260/97 9/261/97
f 12/262/99 15/263/100 14/264/99 13/265/99
f 16/266/101 15/267/101 12/268/102 17/269/101
f 2/270/97 3/258/98 9/261/97 19/271/97
f 20/272/103 23/273/103 22/274/103 21/275/103
f 7/276/104 26/277/104 25/278/104 4/279/104
f 27/280/104 24/281/105 29/282/104 28/283/104
f 19/284/101 9/285/101 30/286/101 18/287/106
f 18/288/99 30/289/107 32/290/99 31/291/99
f 33/292/97 34/293/97 16/294/97 17/295/97
f 6/296/104 7/276/108 4/279/104 1/297/104
f 9/285/101 10/298/101 36/299/101 30/286/101
f 35/300/103 37/301/109 8/302/103 5/303/103
f 13/304/110 14/305/110 23/306/110 20/307/110
f 28/308/93 29/309/93 34/310/93 33/311/93
f 21/312/95 22/313/95 24/314/95 27/315/111
f 4/251/93 25/316/93 11/317/93 3/252/94
f 37/301/103 39/318/109 38/319/103 8/302/103
f 32/320/110 40/321/110 39/322/110 37/323/112
f 8/255/95 38/324/95 26/325/95 7/256/95
f 30/289/99 36/326/99 40/327/99 32/290/99
f 31/328/110 32/320/110 37/323/110 35/329/112
f 10/298/113 11/317/114 25/278/115 26/325/116 38/319/117 39/322/118 40/327/119 36/299/120
