# Made in Blockbench 4.11.1
mtllib ballmill.mtl

o cube.002
v -1 2 0.0625
v 0.020265 3 -0.203125
v 0.020265 3 -0.46875
v -1 2 -1
v 0.995265 3 -1
v 2 2 -1
v -0.954736 3.65 0.4375
v -0.954735 4.625 0.4375
v -1.9375 3.65 0.4375
v 1.970265 3.65 0.0625
v 1.970266 4.625 0.0625
v 2.9375 3.65 0.0625
v 1 3 4
v 2 2 4
v -1 2 4
v -1.9375 3.65 0.0625
v -0.954735 4.625 0.0625
v -0.954735 3.65 0.0625
v 2.9375 3.65 0.4375
v 1.970266 4.625 0.4375
v 1.970264 3.65 0.4375
v 0 3 4
v 1 3 5
v -1 2 5
v 2 2 5
v 0 3 5
v 2.234897 0 5.765103
v 3 0 6
v 2.765103 0 5.765103
v 2.234897 0 5.234897
v 2 0 6
v 3 0 5
v 2.765103 0 5.234897
v 2 0 5
v 2 1.928212 4.740711
v 2 1.096303 5
v 2 1.355592 4.740711
v 2 1.928212 4.259289
v 2 1.355592 4.259289
v 2 1.096303 4
v 0.270265 4.375 0.0625
v 0.995265 4.625 0.0625
v 0.745265 4.375 0.0625
v 0.270265 3.9 0.0625
v 0.020265 4.625 0.0625
v 0.745265 3.9 0.0625
v 0.020265 3.65 0.0625
v 0.995265 3.65 0.0625
v 0.745265 3.9 -0.46875
v 0.745265 3.9 -0.203125
v 0.751514 3.780418 -0.203125
v 0.507764 3 -1
v 0.751514 3 -1
v 0.264014 3.780418 -0.734375
v 0.270265 3.9 -0.734375
v 0.507764 3.9 -0.734375
v 0.264014 3.780418 -0.203125
v 0.270265 3.9 -0.203125
v 0.270265 3.9 -0.46875
v 0.507764 3.9 -0.203125
v -2 0.125 4.25
v -2.0625 0.125 4.25
v -2.0625 0.8125 4.25
v -2 0.8125 4.25
v -2.0625 0.8125 5.5625
v -2 0.8125 5.5625
v -2 0.125 5.5625
v -2.0625 0.125 5.5625
v 0.751514 3 -0.734375
v 0.995265 3 -0.734375
v 0.020265 3 -1
v 0.020265 3 -0.734375
v 0.995265 3 -0.46875
v 0.995265 3 -0.203125
v 2 2 0.0625
v 0.020265 3 0.0625
v -1 -1 0.0625
v 2 -1 0.0625
v 0.995265 3 0.0625
v 2 -1 -1
v -1 -1 -1
v 2.765103 1.333334 5.765103
v 2.234897 1.333334 5.765103
v -1.9375 -0.25 0.0625
v -1.9375 -0.25 0.4375
v -0.954736 -0.25 0.4375
v -0.954736 -0.25 0.0625
v 2.958333 -0.5 0.4375
v 3 -1 0.4375
v 2.5 -1 0.4375
v 2.5 -0.5 0.4375
v 2.9375 -0.25 0.0625
v 3 -1 0
v 1.970264 -1 0
v 1.970264 -0.25 0.0625
v -0.954736 -1 0
v -0.954736 -1 0.4375
v -2 -1 0.4375
v -2 -1 0
v -2 -1 4
v -1.5 -1 4
v -1.5 -0.5 4
v -2 -0.5 4
v -1.5 -1 0.4375
v -1.958334 -0.5 0.4375
v -1.5 -0.5 0.4375
v 2.5 -0.5 4
v 3 -0.5 4
v 3 -1 4
v -2 -1 5.8125
v -1 -1 5.8125
v -1 1.0625 5.8125
v -2 1.0625 5.8125
v -1 -1 4
v -2 1.0625 4
v -1 1.0625 4
v -1.75 -0.75 6
v -1.25 -0.75 6
v -1.25 -0.25 6
v -1.75 -0.25 6
v -1.25 -0.75 5.8125
v -1.75 -0.75 5.8125
v -1.75 -0.25 5.8125
v -1.25 -0.25 5.8125
v -1.75 0.25 6
v -1.25 0.25 6
v -1.25 0.75 6
v -1.75 0.75 6
v -1.25 0.25 5.8125
v -1.75 0.25 5.8125
v -1.75 0.75 5.8125
v -1.25 0.75 5.8125
v -1 -1 6
v 2 -1 6
v 2 2 6
v -1 2 6
v 2 -1 5
v -1 -0.999999 5
v -1 2 5
v 2 2 5
v 2 -1 4
v -1 1.096303 4
v -1 1.096303 5
v 0.020264 -0.25 0.4375
v 0.020264 0.725 0.4375
v -0.954736 0.725 0.4375
v 0.020264 -0.25 0.0625
v -0.954736 -0.25 0.0625
v 3 -1 6
v 2 0 4
v 3 0 4
v 3 -1 5
v 1.970264 -1 0.4375
v 1.970264 -0.25 0.4375
v 2.9375 -0.25 0.4375
v 0.020265 3.65 0.4375
v 0.995265 3.65 0.4375
v 0.995265 4.625 0.4375
v 0.020265 4.625 0.4375
v 2.5 -1 4
v 2.9375 -0.25 0.0625
v 2.9375 -0.25 0.4375
v 1.970264 -0.25 0.0625
v 2.234897 1.782246 5.715103
v 2.234897 1.832246 5.234897
v 2.234897 1.333334 5.234897
v 0.995264 -0.25 0.4375
v 0.995264 -0.25 0.0625
v 1.970264 0.725 0.4375
v 0.995264 0.725 0.4375
v 0.270265 4.325 -0.684375
v 0.270265 3.9 -0.203125
v 0.270265 4.375 -0.203125
v 0.020264 2.675 0.4375
v 0.995264 2.675 0.4375
v 0.020264 1.7 0.4375
v -0.954736 1.7 0.4375
v -0.954736 2.675 0.4375
v 1.970264 2.675 0.4375
v 0.995264 1.7 0.4375
v 0.020264 0.725 0.0625
v 0.995264 0.725 0.0625
v 0.995264 2.675 0.0625
v 0.020264 2.675 0.0625
v 1.970264 1.7 0.4375
v 2.9375 0.725 0.4375
v -0.954736 2.675 0.0625
v -1.9375 2.675 0.0625
v 2.9375 1.7 0.4375
v 2.9375 2.675 0.4375
v 1.970264 0.725 0.0625
v 0.995264 1.7 0.0625
v 1.970264 1.7 0.0625
v 1.970264 2.675 0.0625
v -1.9375 -0.25 0.0625
v -1.9375 0.725 0.0625
v -0.954736 0.725 0.0625
v 0.020264 1.7 0.0625
v -0.954736 1.7 0.0625
v -1.9375 1.7 0.0625
v 2.9375 0.725 0.0625
v 2.9375 2.675 0.0625
v 2.9375 1.7 0.0625
v -1.9375 -0.25 0.4375
v -1.9375 0.725 0.4375
v -1.9375 1.7 0.4375
v -1.9375 2.675 0.4375
v 2 1.832246 4.242007
v 2.234897 1.832246 4.242007
v 2.234897 1.333334 4.242007
v 2 1.333334 4.242007
v 2.765103 1.782246 5.715103
v 2.765103 1.832246 5.234897
v 2.765103 1.333334 5.234897
v 2.715103 1.832246 4.292007
v 2.234897 1.832246 4.738452
v 2.765103 1.832246 4.738452
v 0.264014 3 -0.203125
v 0.507764 3 -0.203125
v 0.507764 3 -0.734375
v 0.751514 3.780418 -0.734375
v 0.745265 3.9 -0.734375
v 0.745265 4.325 -0.684375
v 2.715103 1.333334 4.292007
v 2.765103 1.333334 4.738452
v 2.234897 1.333334 4.738452
v 0.745265 4.375 -0.203125
v 0.745265 3.9 -0.203125
v 2 1.333334 4.738452
v 2 1.832246 4.738452
v 0.751514 3 -0.46875
v 0.751514 3 -0.203125
v 0.264014 3 -1
v 0.264014 3 -0.734375
v 0.264014 3 -0.46875
v 0.264014 3 0.0625
v 0.507764 3 0.0625
v 0.751514 3 0.0625
v 0.507764 3.9 -0.46875
vt 0.126953125 0.709262109375
vt 0.11865234375 0.75390625
vt 0.1103515625 0.75390625
vt 0.09375 0.81640625
vt 0.031398046875 0.84765625
vt 0 0.81640625
vt 0.030711328125 0.96953125
vt 0.030711328125 1
vt 0 0.96953125
vt 0.16694492187499999 0.830859375
vt 0.1669447265625 0.861328125
vt 0.13671875 0.830859375
vt 0.18359375 1
vt 0.15234375 0.96875
vt 0.24609375 0.96875
vt 0.2890625 0.830859375
vt 0.258351171875 0.861328125
vt 0.258351171875 0.830859375
vt 0.15234375 0.96953125
vt 0.1221177734375 1
vt 0.122117578125 0.96953125
vt 0.21484375 1
vt 0.18359375 1
vt 0.24609375 0.96875
vt 0.30859375 1
vt 0.24609375 0.96875
vt 0.33984375 0.96875
vt 0.27734375 1
vt 0.24609375 0.96875
vt 0.30859375 1
vt 0.007340625000000003 0.573746875
vt 0.03125 0.56640625
vt 0.023909374999999997 0.573746875
vt 0.007340625000000003 0.590315625
vt 0 0.56640625
vt 0.007340625000000003 0.573746875
vt 0.023909374999999997 0.573746875
vt 0.03125 0.59765625
vt 0.023909374999999997 0.590315625
vt 0.023909374999999997 0.590315625
vt 0 0.59765625
vt 0.007340625000000003 0.590315625
vt 0.340133984375 0.652053515625
vt 0.33203125 0.62605625
vt 0.340133984375 0.6341591796875
vt 0.355178515625 0.652053515625
vt 0.33203125 0.654296875
vt 0.340133984375 0.652053515625
vt 0.355178515625 0.6341591796875
vt 0.36328125 0.654296875
vt 0.355178515625 0.652053515625
vt 0.340133984375 0.6341591796875
vt 0.36328125 0.62605625
vt 0.355178515625 0.6341591796875
vt 0.22006992187500002 0.853515625
vt 0.197413671875 0.861328125
vt 0.205226171875 0.853515625
vt 0.22006992187500002 0.838671875
vt 0.22788242187500002 0.861328125
vt 0.22006992187500002 0.853515625
vt 0.205226171875 0.838671875
vt 0.22788242187500002 0.830859375
vt 0.22006992187500002 0.838671875
vt 0.205226171875 0.853515625
vt 0.197413671875 0.830859375
vt 0.205226171875 0.838671875
vt 0.3154296875 0.56640625
vt 0.30712890625 0.56640625
vt 0.30712890625 0.5626642578125001
vt 0.046632421874999996 0.84765625
vt 0.039015234375 0.84765625
vt 0.09375 0.81640625
vt 0.4509765625 0.9962630859375
vt 0.45078125 1
vt 0.443359375 1
vt 0.30615234375 0.5626640625
vt 0.30615234375 0.56640625
vt 0.2978515625 0.56640625
vt 0.4529296875 0.9669662109375
vt 0.452734375 0.970703125
vt 0.4453125 0.970703125
vt 0.134765625 0.78515625
vt 0.13671875 0.78515625
vt 0.13671875 0.806640625
vt 0.134765625 0.806640625
vt 0.134765625 0.84765625
vt 0.134765625 0.806640625
vt 0.13671875 0.806640625
vt 0.13671875 0.84765625
vt 0.134765625 0.791015625
vt 0.134765625 0.83203125
vt 0.1328125 0.83203125
vt 0.1328125 0.791015625
vt 0.41015625 0.5546875
vt 0.451171875 0.5546875
vt 0.451171875 0.576171875
vt 0.41015625 0.576171875
vt 0.42578125 0.66796875
vt 0.466796875 0.66796875
vt 0.466796875 0.689453125
vt 0.42578125 0.689453125
vt 0.4333984375 0.609375
vt 0.4333984375 0.60107421875
vt 0.441015625 0.60107421875
vt 0.441015625 0.609375
vt 0.09375 0.75390625
vt 0.09375 0.709262109375
vt 0.10205078125 0.75390625
vt 0.0478515625 0.59765625
vt 0.03955078125 0.59765625
vt 0.03125 0.5533572265625
vt 0.064453125 0.5533572265625
vt 0.126953125 0.709262109375
vt 0.126953125 0.75390625
vt 0.11865234375 0.75390625
vt 0 0.62890625
vt 0.09375 0.62890625
vt 0.09375 0.72265625
vt 0 0.72265625
vt 0.064453125 0.5533572265625
vt 0.064453125 0.59765625
vt 0.05615234375 0.59765625
vt 0.064453125 0.5533572265625
vt 0.05615234375 0.59765625
vt 0.0478515625 0.59765625
vt 0.03955078125 0.59765625
vt 0.03125 0.59765625
vt 0.03125 0.5533572265625
vt 0 0.72265625
vt 0.09375 0.72265625
vt 0.09375 0.81640625
vt 0 0.81640625
vt 0.42578125 0.6875
vt 0.33203125 0.6875
vt 0.33203125 0.654296875
vt 0.42578125 0.654296875
vt 0.0766765625 0.5418744140625
vt 0.0932453125 0.5418744140625
vt 0.0932453125 0.583541015625
vt 0.0766765625 0.583541015625
vt 0.4140625 0.75390625
vt 0.4140625 0.7421875
vt 0.4453125 0.7421875
vt 0.4453125 0.75390625
vt 0.0013021484374999975 0.84765625
vt 0 0.83203125
vt 0.015625 0.83203125
vt 0.015625 0.84765625
vt 0.001953125 0.56640625
vt 0 0.54296875
vt 0.03125 0.54296875
vt 0.03125 0.56640625
vt 0.169921875 0.986328125
vt 0.169921875 1
vt 0.13671875 1
vt 0.13671875 0.986328125
vt 0.078125 0.83203125
vt 0.09375 0.83203125
vt 0.09375 0.84765625
vt 0.078125 0.84765625
vt 0.32421875 0.984375
vt 0.33984375 0.984375
vt 0.3385416015625 1
vt 0.32421875 1
vt 0.3828125 0.84765625
vt 0.494140625 0.84765625
vt 0.494140625 0.86328125
vt 0.3828125 0.86328125
vt 0.220703125 0.517578125
vt 0.220703125 0.62890625
vt 0.205078125 0.62890625
vt 0.205078125 0.517578125
vt 0.234375 0.580078125
vt 0.232421875 0.556640625
vt 0.265625 0.556640625
vt 0.265625 0.580078125
vt 0.3971353515625 0.84765625
vt 0.3828125 0.84765625
vt 0.3828125 0.736328125
vt 0.3984375 0.736328125
vt 0.3828125 0.720703125
vt 0.494140625 0.720703125
vt 0.494140625 0.736328125
vt 0.3828125 0.736328125
vt 0.3828125 0.720703125
vt 0.3828125 0.705078125
vt 0.494140625 0.705078125
vt 0.494140625 0.720703125
vt 0.234375 0.580078125
vt 0.265625 0.580078125
vt 0.265625 0.64453125
vt 0.234375 0.64453125
vt 0.36328125 0.58984375
vt 0.39453125 0.58984375
vt 0.39453125 0.654296875
vt 0.36328125 0.654296875
vt 0.265625 0.623046875
vt 0.265625 0.56640625
vt 0.296875 0.56640625
vt 0.296875 0.623046875
vt 0.328125 0.56640625
vt 0.328125 0.623046875
vt 0.296875 0.623046875
vt 0.296875 0.56640625
vt 0.21875 0.64453125
vt 0.275390625 0.64453125
vt 0.275390625 0.708984375
vt 0.21875 0.708984375
vt 0.275390625 0.623046875
vt 0.33203125 0.623046875
vt 0.33203125 0.6875
vt 0.275390625 0.6875
vt 0.0078125 0.57421875
vt 0.0234375 0.57421875
vt 0.0234375 0.58984375
vt 0.0078125 0.58984375
vt 0.232421875 0.541015625
vt 0.248046875 0.541015625
vt 0.248046875 0.556640625
vt 0.232421875 0.556640625
vt 0.142578125 0.986328125
vt 0.142578125 0.98046875
vt 0.158203125 0.98046875
vt 0.158203125 0.986328125
vt 0.25 0.98046875
vt 0.25 0.986328125
vt 0.234375 0.986328125
vt 0.234375 0.98046875
vt 0.126953125 0.81640625
vt 0.1328125 0.81640625
vt 0.1328125 0.83203125
vt 0.126953125 0.83203125
vt 0.126953125 0.80078125
vt 0.1328125 0.80078125
vt 0.1328125 0.81640625
vt 0.126953125 0.81640625
vt 0.248046875 0.541015625
vt 0.263671875 0.541015625
vt 0.263671875 0.556640625
vt 0.248046875 0.556640625
vt 0.4453125 0.83203125
vt 0.4609375 0.83203125
vt 0.4609375 0.84765625
vt 0.4453125 0.84765625
vt 0.244140625 0.875
vt 0.244140625 0.869140625
vt 0.259765625 0.869140625
vt 0.259765625 0.875
vt 0.259765625 0.86328125
vt 0.259765625 0.869140625
vt 0.244140625 0.869140625
vt 0.244140625 0.86328125
vt 0.126953125 0.78515625
vt 0.1328125 0.78515625
vt 0.1328125 0.80078125
vt 0.126953125 0.80078125
vt 0.126953125 0.76953125
vt 0.1328125 0.76953125
vt 0.1328125 0.78515625
vt 0.126953125 0.78515625
vt 0.2890625 0.78125
vt 0.3828125 0.78125
vt 0.3828125 0.875
vt 0.2890625 0.875
vt 0.2890625 0.6875
vt 0.3828125 0.6875
vt 0.3828125 0.78125
vt 0.2890625 0.78125
vt 0.33984375 0.90625
vt 0.33984375 0.875
vt 0.43359375 0.875
vt 0.43359375 0.90625
vt 0.09375 0.552734375
vt 0.125 0.552734375
vt 0.125 0.646484375
vt 0.09375 0.646484375
vt 0.1875 0.646484375
vt 0.1875 0.677734375
vt 0.09375 0.677734375
vt 0.09375 0.646484375
vt 0.125 0.61824375
vt 0.125 0.552734375
vt 0.15625 0.552734375
vt 0.15625 0.61824375
vt 0.2890625 0.5234375
vt 0.2890625 0.56640625
vt 0.27734375 0.56640625
vt 0.27734375 0.5234375
vt 0.24609375 0.940509375
vt 0.33984375 0.940509375
vt 0.33984375 0.96875
vt 0.24609375 0.96875
vt 0.030711328125 0.84765625
vt 0.061180078124999995 0.84765625
vt 0.061180078124999995 0.878125
vt 0.030711328125 0.878125
vt 0.15234375 0.940509375
vt 0.24609375 0.940509375
vt 0.24609375 0.96875
vt 0.15234375 0.96875
vt 0.125 0.61824375
vt 0.15625 0.61824375
vt 0.15625 0.646484375
vt 0.125 0.646484375
vt 0.443992578125 0.86328125
vt 0.443992578125 0.875
vt 0.413523828125 0.875
vt 0.413523828125 0.86328125
vt 0.340133984375 0.6341591796875
vt 0.355178515625 0.6341591796875
vt 0.355178515625 0.652053515625
vt 0.340133984375 0.652053515625
vt 0.4140625 0.84765625
vt 0.4140625 0.81640625
vt 0.4453125 0.81640625
vt 0.4453125 0.84765625
vt 0.4375 0.923828125
vt 0.4375 0.96875
vt 0.40625 0.96875
vt 0.40625 0.923828125
vt 0.4140625 0.78515625
vt 0.4453125 0.78515625
vt 0.4453125 0.81640625
vt 0.4140625 0.81640625
vt 0.4140625 0.75390625
vt 0.4453125 0.75390625
vt 0.4453125 0.78515625
vt 0.4140625 0.78515625
vt 0 0.62890625
vt 0 0.59765625
vt 0.03125 0.59765625
vt 0.03125 0.62890625
vt 0.21875 0.646484375
vt 0.21875 0.677734375
vt 0.1875 0.677734375
vt 0.1875 0.646484375
vt 0.03125 0.59765625
vt 0.0625 0.59765625
vt 0.0625 0.62890625
vt 0.03125 0.62890625
vt 0.373046875 0.96875
vt 0.404296875 0.96875
vt 0.404296875 1
vt 0.373046875 1
vt 0.259765625 0.986328125
vt 0.259765625 1
vt 0.228515625 1
vt 0.228515625 0.986328125
vt 0.357421875 0.560546875
vt 0.35546875 0.537109375
vt 0.369140625 0.537109375
vt 0.369140625 0.560546875
vt 0.44140625 0.609375
vt 0.455078125 0.609375
vt 0.453125 0.6328125
vt 0.44140625 0.6328125
vt 0.061180078124999995 0.96953125
vt 0.091648828125 0.96953125
vt 0.091648828125 1
vt 0.061180078124999995 1
vt 0.4453125 0.81640625
vt 0.4609375 0.81640625
vt 0.4609375 0.83203125
vt 0.4453125 0.83203125
vt 0.44140625 0.6328125
vt 0.455078125 0.6328125
vt 0.453125 0.65625
vt 0.44140625 0.65625
vt 0.443359375 0.609375
vt 0.44140625 0.5859375
vt 0.455078125 0.5859375
vt 0.455078125 0.609375
vt 0.41015625 0.54296875
vt 0.41015625 0.654296875
vt 0.39453125 0.654296875
vt 0.39453125 0.54296875
vt 0.4341056640625 0.876953125
vt 0.4662849609375 0.876953125
vt 0.4643318359375 0.900390625
vt 0.4341056640625 0.900390625
vt 0.4338630859375 0.900390625
vt 0.4665275390625 0.900390625
vt 0.4645744140625 0.923828125
vt 0.4338630859375 0.923828125
vt 0.3828125 0.689453125
vt 0.494140625 0.689453125
vt 0.494140625 0.705078125
vt 0.3828125 0.705078125
vt 0.53515625 0.86328125
vt 0.53515625 0.875
vt 0.504930078125 0.875
vt 0.504930078125 0.86328125
vt 0.40412734375 0.9671875
vt 0.38912109375 0.96875
vt 0.38912109375 0.953158984375
vt 0.40568984375 0.953158984375
vt 0.504930078125 0.86328125
vt 0.504930078125 0.875
vt 0.47446132812499997 0.875
vt 0.47446132812499997 0.86328125
vt 0.47446132812499997 0.86328125
vt 0.47446132812499997 0.875
vt 0.443992578125 0.875
vt 0.443992578125 0.86328125
vt 0.15253896484375 0.875
vt 0.15253896484375 0.86328125
vt 0.18300771484375 0.86328125
vt 0.18300771484375 0.875
vt 0.030711328125 1
vt 0.030711328125 0.96953125
vt 0.061180078124999995 0.96953125
vt 0.061180078124999995 1
vt 0.18300771484375 0.875
vt 0.18300771484375 0.86328125
vt 0.21347646484375 0.86328125
vt 0.21347646484375 0.875
vt 0.21347646484375 0.875
vt 0.21347646484375 0.86328125
vt 0.24394541015625 0.86328125
vt 0.24394541015625 0.875
vt 0.22788242187500002 0.830859375
vt 0.258351171875 0.830859375
vt 0.258351171875 0.861328125
vt 0.22788242187500002 0.861328125
vt 0.091648828125 0.84765625
vt 0.122117578125 0.84765625
vt 0.122117578125 0.878125
vt 0.091648828125 0.878125
vt 0.263525390625 0.8734375
vt 0.261962890625 0.86015625
vt 0.278564453125 0.86015625
vt 0.278564453125 0.875
vt 0.061180078124999995 0.96953125
vt 0.061180078124999995 0.9390625
vt 0.091648828125 0.9390625
vt 0.091648828125 0.96953125
vt 0.3997396484375 0.84765625
vt 0.3984375 0.736328125
vt 0.4140625 0.736328125
vt 0.4140625 0.84765625
vt 0.030711328125 0.878125
vt 0.061180078124999995 0.878125
vt 0.061180078124999995 0.90859375
vt 0.030711328125 0.90859375
vt 0.030711328125 0.96953125
vt 0.030711328125 0.9390625
vt 0.061180078124999995 0.9390625
vt 0.061180078124999995 0.96953125
vt 0.42578125 0.66796875
vt 0.42578125 0.65625
vt 0.455078125 0.65625
vt 0.455078125 0.66796875
vt 0.030711328125 0.90859375
vt 0.061180078124999995 0.90859375
vt 0.061180078124999995 0.9390625
vt 0.030711328125 0.9390625
vt 0.061180078124999995 0.84765625
vt 0.091648828125 0.84765625
vt 0.091648828125 0.878125
vt 0.061180078124999995 0.878125
vt 0.091648828125 0.96953125
vt 0.091648828125 0.9390625
vt 0.122117578125 0.9390625
vt 0.122117578125 0.96953125
vt 0.061180078124999995 0.878125
vt 0.091648828125 0.878125
vt 0.091648828125 0.90859375
vt 0.061180078124999995 0.90859375
vt 0.061180078124999995 0.90859375
vt 0.091648828125 0.90859375
vt 0.091648828125 0.9390625
vt 0.061180078124999995 0.9390625
vt 0.197413671875 0.708984375
vt 0.22788242187500002 0.708984375
vt 0.22788242187500002 0.739453125
vt 0.197413671875 0.739453125
vt 0.197413671875 0.800390625
vt 0.22788242187500002 0.800390625
vt 0.22788242187500002 0.830859375
vt 0.197413671875 0.830859375
vt 0.091648828125 0.878125
vt 0.122117578125 0.878125
vt 0.122117578125 0.90859375
vt 0.091648828125 0.90859375
vt 0.091648828125 0.90859375
vt 0.122117578125 0.90859375
vt 0.122117578125 0.9390625
vt 0.091648828125 0.9390625
vt 0.122117578125 0.84765625
vt 0.15234375 0.84765625
vt 0.15234375 0.878125
vt 0.122117578125 0.878125
vt 0.258351171875 0.800390625
vt 0.2890625 0.800390625
vt 0.2890625 0.830859375
vt 0.258351171875 0.830859375
vt 0.122117578125 0.878125
vt 0.15234375 0.878125
vt 0.15234375 0.90859375
vt 0.122117578125 0.90859375
vt 0.122117578125 0.90859375
vt 0.15234375 0.90859375
vt 0.15234375 0.9390625
vt 0.122117578125 0.9390625
vt 0.122117578125 0.9390625
vt 0.15234375 0.9390625
vt 0.15234375 0.96953125
vt 0.122117578125 0.96953125
vt 0.16694492187499999 0.708984375
vt 0.197413671875 0.708984375
vt 0.197413671875 0.739453125
vt 0.16694492187499999 0.739453125
vt 0.16694492187499999 0.739453125
vt 0.197413671875 0.739453125
vt 0.197413671875 0.769921875
vt 0.16694492187499999 0.769921875
vt 0.16694492187499999 0.769921875
vt 0.197413671875 0.769921875
vt 0.197413671875 0.800390625
vt 0.16694492187499999 0.800390625
vt 0.258351171875 0.708984375
vt 0.2890625 0.708984375
vt 0.2890625 0.739453125
vt 0.258351171875 0.739453125
vt 0.22788242187500002 0.800390625
vt 0.258351171875 0.800390625
vt 0.258351171875 0.830859375
vt 0.22788242187500002 0.830859375
vt 0.197413671875 0.739453125
vt 0.22788242187500002 0.739453125
vt 0.22788242187500002 0.769921875
vt 0.197413671875 0.769921875
vt 0.197413671875 0.769921875
vt 0.22788242187500002 0.769921875
vt 0.22788242187500002 0.800390625
vt 0.197413671875 0.800390625
vt 0.22788242187500002 0.708984375
vt 0.258351171875 0.708984375
vt 0.258351171875 0.739453125
vt 0.22788242187500002 0.739453125
vt 0.16694492187499999 0.800390625
vt 0.197413671875 0.800390625
vt 0.197413671875 0.830859375
vt 0.16694492187499999 0.830859375
vt 0.22788242187500002 0.739453125
vt 0.258351171875 0.739453125
vt 0.258351171875 0.769921875
vt 0.22788242187500002 0.769921875
vt 0.22788242187500002 0.769921875
vt 0.258351171875 0.769921875
vt 0.258351171875 0.800390625
vt 0.22788242187500002 0.800390625
vt 0.1875 0.677734375
vt 0.1875 0.708984375
vt 0.09375 0.708984375
vt 0.09375 0.677734375
vt 0.091648828125 1
vt 0.091648828125 0.96953125
vt 0.122117578125 0.96953125
vt 0.1221177734375 1
vt 0.258351171875 0.739453125
vt 0.2890625 0.739453125
vt 0.2890625 0.769921875
vt 0.258351171875 0.769921875
vt 0.258351171875 0.769921875
vt 0.2890625 0.769921875
vt 0.2890625 0.800390625
vt 0.258351171875 0.800390625
vt 0.220703125 0.50703125
vt 0.232421875 0.50703125
vt 0.232421875 0.5375
vt 0.220703125 0.5375
vt 0.13671875 0.800390625
vt 0.16694492187499999 0.800390625
vt 0.16694492187499999 0.830859375
vt 0.13671875 0.830859375
vt 0.220703125 0.5375
vt 0.232421875 0.5375
vt 0.232421875 0.56796875
vt 0.220703125 0.56796875
vt 0.220703125 0.56796875
vt 0.232421875 0.56796875
vt 0.232421875 0.5984375
vt 0.220703125 0.5984375
vt 0.220703125 0.5984375
vt 0.232421875 0.5984375
vt 0.232421875 0.62890625
vt 0.220703125 0.62890625
vt 0.064453125 0.47578125000000004
vt 0.076171875 0.47578125000000004
vt 0.076171875 0.50625
vt 0.064453125 0.50625
vt 0.064453125 0.50625
vt 0.076171875 0.50625
vt 0.076171875 0.53671875
vt 0.064453125 0.53671875
vt 0.064453125 0.53671875
vt 0.076171875 0.53671875
vt 0.076171875 0.5671875
vt 0.064453125 0.5671875
vt 0.064453125 0.5671875
vt 0.076171875 0.5671875
vt 0.076171875 0.59765625
vt 0.064453125 0.59765625
vt 0.13671875 0.708984375
vt 0.16694492187499999 0.708984375
vt 0.16694492187499999 0.739453125
vt 0.13671875 0.739453125
vt 0.13671875 0.739453125
vt 0.16694492187499999 0.739453125
vt 0.16694492187499999 0.769921875
vt 0.13671875 0.769921875
vt 0.13671875 0.769921875
vt 0.16694492187499999 0.769921875
vt 0.16694492187499999 0.800390625
vt 0.13671875 0.800390625
vt 0 0.878125
vt 0.030711328125 0.878125
vt 0.030711328125 0.90859375
vt 0 0.90859375
vt 0.16694492187499999 0.830859375
vt 0.197413671875 0.830859375
vt 0.197413671875 0.861328125
vt 0.1669447265625 0.861328125
vt 0.15625 0.552734375
vt 0.1875 0.552734375
vt 0.1875 0.646484375
vt 0.15625 0.646484375
vt 0 0.90859375
vt 0.030711328125 0.90859375
vt 0.030711328125 0.9390625
vt 0 0.9390625
vt 0 0.9390625
vt 0.030711328125 0.9390625
vt 0.030711328125 0.96953125
vt 0 0.96953125
vt 0.265625 0.5234375
vt 0.27734375 0.5234375
vt 0.27734375 0.56640625
vt 0.265625 0.56640625
vt 0.44140625 0.609375
vt 0.44140625 0.654296875
vt 0.41015625 0.654296875
vt 0.41015625 0.609375
vt 0.404296875 0.96875
vt 0.435546875 0.96875
vt 0.435546875 1
vt 0.404296875 1
vt 0.0625 0.59765625
vt 0.09375 0.59765625
vt 0.09375 0.62890625
vt 0.0625 0.62890625
vt 0.21875 0.677734375
vt 0.21875 0.708984375
vt 0.1875 0.708984375
vt 0.1875 0.677734375
vt 0.4604328125 0.94140625
vt 0.4530921875 0.94140625
vt 0.4530921875 0.925815234375
vt 0.4604328125 0.925815234375
vt 0.3713625 0.5588158203125
vt 0.3713625 0.5437283203125001
vt 0.38793125 0.5437283203125001
vt 0.38793125 0.5588158203125
vt 0.007340625000000003 0.573746875
vt 0 0.56640625
vt 0.03125 0.56640625
vt 0.007340625000000003 0.590315625
vt 0 0.59765625
vt 0 0.56640625
vt 0.023909374999999997 0.573746875
vt 0.03125 0.56640625
vt 0.03125 0.59765625
vt 0.023909374999999997 0.590315625
vt 0.03125 0.59765625
vt 0 0.59765625
vt 0.0766765625 0.59765625
vt 0.0766765625 0.583541015625
vt 0.0932453125 0.583541015625
vt 0.0932453125 0.59765625
vt 0.18943925781250004 0.64296875
vt 0.18787675781250002 0.628940234375
vt 0.20444550781250004 0.628940234375
vt 0.20444550781250004 0.64453125
vt 0.38636875 0.58828125
vt 0.3713625 0.58984375
vt 0.3713625 0.5743298828125
vt 0.38793125 0.5743298828125
vt 0.18787675781250002 0.5872736328125
vt 0.20444550781250004 0.5872736328125
vt 0.20444550781250004 0.628940234375
vt 0.18787675781250002 0.628940234375
vt 0.38912109375 0.9114923828125
vt 0.40568984375 0.9114923828125
vt 0.40568984375 0.953158984375
vt 0.38912109375 0.953158984375
vt 0.373046875 0.912109375
vt 0.388671875 0.912109375
vt 0.388671875 0.953125
vt 0.373046875 0.953125
vt 0.33203125 0.560546875
vt 0.36328125 0.560546875
vt 0.36328125 0.62605625
vt 0.33203125 0.62605625
vt 0.4376953125 0.9669662109375
vt 0.4376953125 0.942578125
vt 0.4453125 0.942578125
vt 0.443359375 0.971875
vt 0.4509765625 0.9962630859375
vt 0.4357421875 0.9962630859375
vt 0.4357421875 0.971875
vt 0.15234375 0.875
vt 0.24609375 0.875
vt 0.24609375 0.940509375
vt 0.15234375 0.940509375
vt 0 0.986328125
vt 0.015625 0.986328125
vt 0.015625 1
vt 0 1
vt 0.24609375 0.875
vt 0.33984375 0.875
vt 0.33984375 0.940509375
vt 0.24609375 0.940509375
vt 0.4380046875 0.94140625
vt 0.4380046875 0.925815234375
vt 0.4530921875 0.925815234375
vt 0.4530921875 0.94140625
vt 0.23399824218749998 0.64453125
vt 0.21995957031250002 0.64453125
vt 0.21995957031250002 0.628940234375
vt 0.23399824218749998 0.628940234375
vt 0.202775 0.538671875
vt 0.2043375 0.5526232421875
vt 0.18776875 0.5526232421875
vt 0.18776875 0.537109375
vt 0.429833984375 0.922265625
vt 0.414794921875 0.923828125
vt 0.414794921875 0.908984375
vt 0.431396484375 0.908984375
vt 0.21995957031250002 0.64453125
vt 0.20444550781250004 0.64453125
vt 0.20444550781250004 0.628940234375
vt 0.21995957031250002 0.628940234375
vt 0.340133984375 0.652053515625
vt 0.33203125 0.654296875
vt 0.33203125 0.62605625
vt 0.355178515625 0.652053515625
vt 0.36328125 0.654296875
vt 0.33203125 0.654296875
vt 0.355178515625 0.6341591796875
vt 0.36328125 0.62605625
vt 0.36328125 0.654296875
vt 0.340133984375 0.6341591796875
vt 0.33203125 0.62605625
vt 0.36328125 0.62605625
vt 0.2043375 0.5526232421875
vt 0.2043375 0.5681373046875
vt 0.18776875 0.5681373046875
vt 0.18776875 0.5526232421875
vt 0.3713625 0.5743298828125
vt 0.3713625 0.5588158203125
vt 0.38793125 0.5588158203125
vt 0.38793125 0.5743298828125
vt 0.37360703125 0.953158984375
vt 0.38912109375 0.953158984375
vt 0.38912109375 0.96875
vt 0.37360703125 0.96875
vt 0.4453125 0.80078125
vt 0.4609375 0.80078125
vt 0.4609375 0.81640625
vt 0.4453125 0.81640625
vt 0.126953125 0.83203125
vt 0.134765625 0.83203125
vt 0.134765625 0.84765625
vt 0.126953125 0.84765625
vt 0.180428125 0.537109375
vt 0.18776875 0.537109375
vt 0.18776875 0.5526232421875
vt 0.180428125 0.5526232421875
vt 0.364021875 0.5743298828125
vt 0.3713625 0.5743298828125
vt 0.3713625 0.58984375
vt 0.364021875 0.58984375
vt 0.4333984375 0.5927734375
vt 0.4333984375 0.58447265625
vt 0.441015625 0.58447265625
vt 0.441015625 0.5927734375
vt 0.22006992187500002 0.853515625
vt 0.22788242187500002 0.861328125
vt 0.197413671875 0.861328125
vt 0.22006992187500002 0.838671875
vt 0.22788242187500002 0.830859375
vt 0.22788242187500002 0.861328125
vt 0.205226171875 0.838671875
vt 0.197413671875 0.830859375
vt 0.22788242187500002 0.830859375
vt 0.205226171875 0.853515625
vt 0.197413671875 0.861328125
vt 0.197413671875 0.830859375
vt 0.339453125 0.53515625
vt 0.339453125 0.5517578125
vt 0.324609375 0.5517578125
vt 0.324609375 0.53515625
vt 0.413523828125 0.86328125
vt 0.413523828125 0.875
vt 0.3828125 0.875
vt 0.3828125 0.86328125
vt 0.4529296875 0.9669662109375
vt 0.4376953125 0.9669662109375
vt 0.4453125 0.942578125
vt 0.4529296875 0.942578125
vt 0.340234375 0.560546875
vt 0.340234375 0.5454267578125
vt 0.355078125 0.5454267578125
vt 0.355078125 0.560546875
vt 0.340234375 0.5454267578125
vt 0.340234375 0.5371259765625
vt 0.355078125 0.5371259765625
vt 0.355078125 0.5454267578125
vt 0.339453125 0.5517578125
vt 0.339453125 0.56005859375
vt 0.324609375 0.56005859375
vt 0.324609375 0.5517578125
vt 0.278564453125 0.86015625
vt 0.286865234375 0.86015625
vt 0.286865234375 0.875
vt 0.278564453125 0.875
vt 0.414794921875 0.923828125
vt 0.406494140625 0.923828125
vt 0.406494140625 0.908984375
vt 0.414794921875 0.908984375
vt 0.4181640625 0.609375
vt 0.4181640625 0.60107421875
vt 0.42578125 0.60107421875
vt 0.42578125 0.609375
vt 0.3154296875 0.538276171875
vt 0.32373046875 0.5626642578125001
vt 0.30712890625 0.5626642578125001
vt 0.30712890625 0.538276171875
vt 0.2978515625 0.5382759765625
vt 0.30615234375 0.5382759765625
vt 0.30615234375 0.5626640625
vt 0.4333984375 0.60107421875
vt 0.4333984375 0.5927734375
vt 0.441015625 0.5927734375
vt 0.441015625 0.60107421875
vt 0.30712890625 0.5626642578125001
vt 0.32373046875 0.5626642578125001
vt 0.3154296875 0.56640625
vt 0.32373046875 0.5626642578125001
vt 0.32373046875 0.56640625
vt 0.3154296875 0.56640625
vt 0.4181640625 0.58447265625
vt 0.4181640625 0.576171875
vt 0.42578125 0.576171875
vt 0.42578125 0.58447265625
vt 0.4333984375 0.58447265625
vt 0.4333984375 0.576171875
vt 0.441015625 0.576171875
vt 0.441015625 0.58447265625
vt 0.126953125 0.84765625
vt 0.09375 0.84765625
vt 0.09375 0.75390625
vt 0.126953125 0.75390625
vt 0.373046875 0.90625
vt 0.373046875 1
vt 0.33984375 1
vt 0.33984375 0.90625
vt 0.42578125 0.58447265625
vt 0.42578125 0.576171875
vt 0.4333984375 0.576171875
vt 0.4333984375 0.58447265625
vt 0.42578125 0.609375
vt 0.42578125 0.60107421875
vt 0.4333984375 0.60107421875
vt 0.4333984375 0.609375
vt 0.2978515625 0.5382759765625
vt 0.30615234375 0.5626640625
vt 0.28955078125 0.5626640625
vt 0.28955078125 0.5382759765625
vt 0.443359375 0.971875
vt 0.4509765625 0.971875
vt 0.4509765625 0.9962630859375
vt 0.410546875 0.58447265625
vt 0.410546875 0.576171875
vt 0.4181640625 0.576171875
vt 0.4181640625 0.58447265625
vt 0.09375 0.81640625
vt 0.061866796875 0.84765625
vt 0.054249609375 0.84765625
vt 0.09375 0.81640625
vt 0.054249609375 0.84765625
vt 0.046632421874999996 0.84765625
vt 0.039015234375 0.84765625
vt 0.031398046875 0.84765625
vt 0.09375 0.81640625
vt 0.410546875 0.60107421875
vt 0.410546875 0.5927734375
vt 0.4181640625 0.5927734375
vt 0.4181640625 0.60107421875
vt 0.410546875 0.609375
vt 0.410546875 0.60107421875
vt 0.4181640625 0.60107421875
vt 0.4181640625 0.609375
vt 0.410546875 0.5927734375
vt 0.410546875 0.58447265625
vt 0.4181640625 0.58447265625
vt 0.4181640625 0.5927734375
vt 0.187890625 0.57763671875
vt 0.187890625 0.5693359375
vt 0.1953125 0.5693359375
vt 0.1953125 0.57763671875
vt 0.4359375 1
vt 0.4357421875 0.9962630859375
vt 0.443359375 1
vt 0.4357421875 0.9962630859375
vt 0.4509765625 0.9962630859375
vt 0.443359375 1
vt 0.28955078125 0.56640625
vt 0.28955078125 0.5626640625
vt 0.2978515625 0.56640625
vt 0.28955078125 0.5626640625
vt 0.30615234375 0.5626640625
vt 0.2978515625 0.56640625
vt 0.10205078125 0.75390625
vt 0.09375 0.709262109375
vt 0.126953125 0.709262109375
vt 0.1103515625 0.75390625
vt 0.3154296875 0.538276171875
vt 0.32373046875 0.538276171875
vt 0.32373046875 0.5626642578125001
vt 0.437890625 0.970703125
vt 0.4376953125 0.9669662109375
vt 0.4453125 0.970703125
vt 0.4376953125 0.9669662109375
vt 0.4529296875 0.9669662109375
vt 0.4453125 0.970703125
vt 0.187890625 0.5859375
vt 0.187890625 0.57763671875
vt 0.1953125 0.57763671875
vt 0.1953125 0.5859375
vt 0.1953125 0.5859375
vt 0.1953125 0.57763671875
vt 0.202734375 0.57763671875
vt 0.202734375 0.5859375
vt 0.1953125 0.57763671875
vt 0.1953125 0.5693359375
vt 0.202734375 0.5693359375
vt 0.202734375 0.57763671875
vt 0 0.84765625
vt 0.030711328125 0.84765625
vt 0.030711328125 0.878125
vt 0 0.878125
vt 0.1328125 0.76953125
vt 0.134765625 0.76953125
vt 0.134765625 0.791015625
vt 0.1328125 0.791015625
vn -0.6999786760308343 0.714163743900599 0
vn 0 0 -1
vn 0 0 1
vn 0 0 -1
vn 0 0 -1
vn 0 0 -1
vn 0 0 1
vn 0 0 -1
vn 0 0 1
vn 0 0 1
vn 0 1 0
vn 0 1 0
vn 0 1 0
vn 0 1 0
vn 1 0 0
vn 1 0 0
vn 1 0 0
vn 1 0 0
vn 0 0 -1
vn 0 0 -1
vn 0 0 -1
vn 0 0 -1
vn 0.9986373915993744 0.05218582278356741 0
vn 0 0 -1
vn 0 0 -1
vn -0.9986365210342015 0.05220247941148963 0
vn 0 0 1
vn 0 0 -1
vn 0 1 0
vn 0 -1 0
vn -1 0 0
vn 1 0 0
vn 0 1 0
vn -0.6999786760308343 0.714163743900599 0
vn 0.7054346922243855 0.7087749254920681 0
vn -0.6999786760308343 0.714163743900599 0
vn 0 0 1
vn 0.7054346922243855 0.7087749254920681 0
vn 0.7054346922243855 0.7087749254920681 0
vn 0.7054346922243855 0.7087749254920681 0
vn 0 0 -1
vn 0 -1 0
vn 0 0 1
vn 0 1 0
vn 0 0 -1
vn 0 0.08304547985373997 -0.9965457582448798
vn 0 -1 0
vn 0 0 1
vn 0 0 -1
vn -1 0 0
vn 0 -1 0
vn 0 0 1
vn 0 1 0
vn 1 0 0
vn 1 0 0
vn 0 0 1
vn 0 0 -1
vn 0 1 0
vn 0 -1 0
vn -1 0 0
vn 1 0 0
vn 0 0 1
vn 0 0 -1
vn 0 1 0
vn 0 -1 0
vn -1 0 0
vn 1 0 0
vn 0 0 1
vn 0 0 -1
vn 0 1 0
vn 0 -1 0
vn -1 0 0
vn 1 0 0
vn 0 0 1
vn 0 0 -1
vn 0 1 0
vn 1 0 0
vn -3.3333333334290006e-7 -0.9999999999999445 0
vn -1 0 0
vn -0.7042966739602557 0.7099057649072315 0
vn 0 0 1
vn 0 0 1
vn 0 0 -1
vn -1 0 0
vn 0 -1 0
vn 1 0 0
vn 0 1 0
vn 0.7071067811865476 0.7071067811865476 0
vn 0 0 1
vn 0 0 -1
vn 0 1 0
vn 0 -1 0
vn -1 0 0
vn 1 0 0
vn 0 -1 0
vn -1 0 0
vn 0.9965457582448797 0.08304547985373997 0
vn 0 0 1
vn 0 0 1
vn 1 0 0
vn -0.9965457582448797 0.08304547985373997 0
vn 0 -1 0
vn 0 0 1
vn 0 0.08304547985373997 -0.9965457582448797
vn -1 0 0
vn 0 -1 0
vn -1 0 0
vn 0 -1 0
vn 0 -1 0
vn 0 1 0
vn 0 0 1
vn 0 1 0
vn 0 1 0
vn 0 0 -1
vn 0 0 1
vn -1 0 0
vn 0 0 1
vn 0 1 0
vn 0 0 1
vn 0 0 1
vn 0 1 0
vn 0 0 1
vn 0 0 1
vn 0 0 1
vn 0 0 1
vn 0 0 1
vn 0 0 -1
vn 0 0 -1
vn 0 0 1
vn 0 0 1
vn 0 0 1
vn 0 0 -1
vn 0 0 1
vn 0 0 1
vn 0 0 1
vn 0 0 -1
vn 0 0 -1
vn 0 0 -1
vn 0 0 -1
vn 0 0 -1
vn 0 0 -1
vn 0 0 -1
vn 0 0 -1
vn 0 0 -1
vn 0 0 -1
vn 0 0 -1
vn 0 -1 0
vn 0 0 1
vn 0 0 -1
vn 0 0 -1
vn 1 0 0
vn 0 0 -1
vn 1 0 0
vn 1 0 0
vn 1 0 0
vn -1 0 0
vn -1 0 0
vn -1 0 0
vn -1 0 0
vn 0 0 -1
vn 0 0 -1
vn 0 0 -1
vn 0 0 1
vn 0 0 -1
vn -1 0 0
vn 0 0 1
vn 0 0 1
vn 0.7099284642921714 0.7042737930576143 0
vn -0.7071067811865476 0.7071067811865476 0
vn 1 0 0
vn -1 0 0
vn 0 -1 0
vn 0 0 -1
vn 0 0.9946229879524023 0.1035621158369953
vn 0 1 0
vn 0 1 0
vn 0 1 0
vn 0 1 0
vn 0 0.11069589636729034 0.9938543246006643
vn 1 0 0
vn 0 1 0
vn 1 0 0
vn -1 0 0
vn 0 0 -1
vn 1 0 0
vn 0 0 1
vn 0 0 -1
vn 0 0 -1
vn 0 0.11684124756739726 -0.9931506043228764
vn 0 0 1
vn 0.10356211583699487 0 -0.9946229879524024
vn 0.9937868498939618 0 -0.11130003134696984
vn 0 -1 0
vn 1 0 0
vn 1 0 0
vn 1 0 0
vn 1 0 0
vn 1 0 0
vn 1 0 0
vn 0 -1 0
vn 0 1 0
vn -1 0 0
vn -1 0 0
vn 0 0 1
vn 0 -1 0
vn 0 1 0
vn 0 1 0
vn 0 0 -1
vn 0 0 -1
vn 0 0 -1
vn 0 0 -1
vn 0 -1 0
vn 0 -1 0
vn 0 0 1
vn 0 0.994646105081306 -0.10333985507338209
vn 0 1 0
vn 0 -1 0
vn -1 0 0
vn 1 0 0
vn 0 1 0
vn 1 0 0
vn -1 0 0
vn 0 1 0
vn 0.9986373915993744 0.05218582278356741 0
vn 0.9986373915993744 0.05218582278356741 0
vn 0 1 0
vn 0 1 0
vn -1 0 0
vn 1 0 0
vn 0 1 0
vn 0 1 0
vn -1 0 0
vn 0 0 -1
vn 0 1 0
vn 0 0 -1
vn 0 0 -1
vn 0 0 -1
vn 0 1 0
vn 0 1 0
vn 0 1 0
vn 0 1 0
vn 0 0 -1
vn 0 0 -1
vn -0.9986365210342015 0.05220247941148963 0
vn -0.9986365210342015 0.05220247941148963 0
vn -0.6999786760308343 0.714163743900599 0
vn 1 0 0
vn 0 0 1
vn 0 0 1
vn 0 1 0
vn 0 1 0
vn 0 1 0
vn 0 0 1
vn 0 0 1
usemtl m_2afd59c2-767e-0fd0-44e0-788d7eef89d3
f 1/1/1 2/2/1 3/3/1
f 4/4/2 5/5/2 6/6/2
f 7/7/3 8/8/3 9/9/3
f 10/10/4 11/11/4 12/12/4
f 13/13/5 14/14/5 15/15/5
f 16/16/6 17/17/6 18/18/6
f 19/19/7 20/20/7 21/21/7
f 22/22/8 13/23/8 15/24/8
f 23/25/9 24/26/9 25/27/9
f 26/28/10 24/29/10 23/30/10
f 27/31/11 28/32/11 29/33/11
f 30/34/12 31/35/12 27/36/12
f 29/37/13 32/38/13 33/39/13
f 33/40/14 34/41/14 30/42/14
f 35/43/15 36/44/15 37/45/15
f 38/46/16 25/47/16 35/48/16
f 39/49/17 14/50/17 38/51/17
f 37/52/18 40/53/18 39/54/18
f 41/55/19 42/56/19 43/57/19
f 44/58/20 45/59/20 41/60/20
f 46/61/21 47/62/21 44/63/21
f 43/64/22 48/65/22 46/66/22
f 49/67/23 50/68/23 51/69/23
f 52/70/24 53/71/24 4/72/24
f 54/73/25 55/74/25 56/75/25
f 57/76/26 58/77/26 59/78/26
f 51/79/27 50/80/27 60/81/27
f 61/82/28 62/83/28 63/84/28 64/85/28
f 63/86/29 65/87/29 66/88/29 64/89/29
f 61/90/30 67/91/30 68/92/30 62/93/30
f 62/94/31 68/95/31 65/96/31 63/97/31
f 67/98/32 61/99/32 64/100/32 66/101/32
f 53/102/33 69/103/33 70/104/33 5/105/33
f 71/106/34 4/107/34 72/108/34
f 73/109/35 74/110/35 75/111/35 6/112/35
f 1/113/36 76/114/36 2/115/36
f 77/116/37 78/117/37 75/118/37 1/119/37
f 6/120/38 5/121/38 70/122/38
f 6/123/39 70/124/39 73/125/39
f 74/126/40 79/127/40 75/128/40
f 80/129/41 81/130/41 4/131/41 6/132/41
f 78/133/42 77/134/42 81/135/42 80/136/42
f 27/137/43 29/138/43 82/139/43 83/140/43
f 84/141/44 85/142/44 86/143/44 87/144/44
f 88/145/45 89/146/45 90/147/45 91/148/45
f 92/149/46 93/150/46 94/151/46 95/152/46
f 96/153/47 97/154/47 98/155/47 99/156/47
f 100/157/48 101/158/48 102/159/48 103/160/48
f 104/161/49 98/162/49 105/163/49 106/164/49
f 98/165/50 100/166/50 103/167/50 105/168/50
f 104/169/51 101/170/51 100/171/51 98/172/51
f 85/173/52 98/174/52 97/175/52 86/176/52
f 88/177/53 91/178/53 107/179/53 108/180/53
f 101/181/54 104/182/54 106/183/54 102/184/54
f 108/185/55 109/186/55 89/187/55 88/188/55
f 110/189/56 111/190/56 112/191/56 113/192/56
f 114/193/57 100/194/57 115/195/57 116/196/57
f 115/197/58 113/198/58 112/199/58 116/200/58
f 114/201/59 111/202/59 110/203/59 100/204/59
f 100/205/60 110/206/60 113/207/60 115/208/60
f 111/209/61 114/210/61 116/211/61 112/212/61
f 117/213/62 118/214/62 119/215/62 120/216/62
f 121/217/63 122/218/63 123/219/63 124/220/63
f 123/221/64 120/222/64 119/223/64 124/224/64
f 121/225/65 118/226/65 117/227/65 122/228/65
f 122/229/66 117/230/66 120/231/66 123/232/66
f 118/233/67 121/234/67 124/235/67 119/236/67
f 125/237/68 126/238/68 127/239/68 128/240/68
f 129/241/69 130/242/69 131/243/69 132/244/69
f 131/245/70 128/246/70 127/247/70 132/248/70
f 129/249/71 126/250/71 125/251/71 130/252/71
f 130/253/72 125/254/72 128/255/72 131/256/72
f 126/257/73 129/258/73 132/259/73 127/260/73
f 133/261/74 134/262/74 135/263/74 136/264/74
f 137/265/75 138/266/75 139/267/75 140/268/75
f 139/269/76 136/270/76 135/271/76 140/272/76
f 134/273/77 137/274/77 140/275/77 135/276/77
f 141/277/78 137/278/78 138/279/78 114/280/78
f 142/281/79 114/282/79 138/283/79 143/284/79
f 9/285/80 8/286/80 17/287/80 16/288/80
f 143/289/81 36/290/81 25/291/81 24/292/81
f 86/293/82 144/294/82 145/295/82 146/296/82
f 40/297/83 142/298/83 15/299/83 14/300/83
f 142/301/84 143/302/84 24/303/84 15/304/84
f 147/305/85 144/306/85 86/307/85 148/308/85
f 37/309/86 39/310/86 38/311/86 35/312/86
f 22/313/87 26/314/87 23/315/87 13/316/87
f 14/317/88 13/318/88 23/319/88 25/320/88
f 134/321/89 149/322/89 28/323/89 31/324/89
f 109/325/90 141/326/90 150/327/90 151/328/90
f 150/329/91 34/330/91 32/331/91 151/332/91
f 109/333/92 152/334/92 137/335/92 141/336/92
f 141/337/93 137/338/93 34/339/93 150/340/93
f 149/341/94 152/342/94 32/343/94 28/344/94
f 93/345/95 89/346/95 153/347/95 94/348/95
f 95/349/96 94/350/96 153/351/96 154/352/96
f 89/353/97 93/354/97 92/355/97 155/356/97
f 156/357/98 157/358/98 158/359/98 159/360/98
f 160/361/99 109/362/99 108/363/99 107/364/99
f 97/365/100 96/366/100 87/367/100 86/368/100
f 84/369/101 99/370/101 98/371/101 85/372/101
f 89/373/102 109/374/102 160/375/102 90/376/102
f 153/377/103 89/378/103 155/379/103 154/380/103
f 96/381/104 99/382/104 84/383/104 87/384/104
f 90/385/105 160/386/105 107/387/105 91/388/105
f 161/389/106 162/390/106 154/391/106 163/392/106
f 164/393/107 165/394/107 166/395/107 83/396/107
f 163/397/108 154/398/108 167/399/108 168/400/108
f 168/401/109 167/402/109 144/403/109 147/404/109
f 17/405/110 8/406/110 159/407/110 45/408/110
f 8/409/111 7/410/111 156/411/111 159/412/111
f 45/413/112 159/414/112 158/415/112 42/416/112
f 42/417/113 158/418/113 20/419/113 11/420/113
f 47/421/114 18/422/114 17/423/114 45/424/114
f 167/425/115 154/426/115 169/427/115 170/428/115
f 171/429/116 55/430/116 172/431/116 173/432/116
f 156/433/117 174/434/117 175/435/117 157/436/117
f 105/437/118 103/438/118 102/439/118 106/440/118
f 146/441/119 145/442/119 176/443/119 177/444/119
f 7/445/120 178/446/120 174/447/120 156/448/120
f 95/449/121 154/450/121 155/451/121 92/452/121
f 177/453/122 176/454/122 174/455/122 178/456/122
f 144/457/123 167/458/123 170/459/123 145/460/123
f 157/461/124 175/462/124 179/463/124 21/464/124
f 145/465/125 170/466/125 180/467/125 176/468/125
f 176/469/126 180/470/126 175/471/126 174/472/126
f 168/473/127 147/474/127 181/475/127 182/476/127
f 183/477/128 184/478/128 47/479/128 48/480/128
f 170/481/129 169/482/129 185/483/129 180/484/129
f 180/485/130 185/486/130 179/487/130 175/488/130
f 154/489/131 162/490/131 186/491/131 169/492/131
f 187/493/132 188/494/132 16/495/132 18/496/132
f 169/497/133 186/498/133 189/499/133 185/500/133
f 185/501/134 189/502/134 190/503/134 179/504/134
f 179/505/135 190/506/135 19/507/135 21/508/135
f 163/509/136 168/510/136 182/511/136 191/512/136
f 191/513/137 182/514/137 192/515/137 193/516/137
f 193/517/138 192/518/138 183/519/138 194/520/138
f 148/521/139 195/522/139 196/523/139 197/524/139
f 184/525/140 187/526/140 18/527/140 47/528/140
f 182/529/141 181/530/141 198/531/141 192/532/141
f 192/533/142 198/534/142 184/535/142 183/536/142
f 147/537/143 148/538/143 197/539/143 181/540/143
f 194/541/144 183/542/144 48/543/144 10/544/144
f 181/545/145 197/546/145 199/547/145 198/548/145
f 198/549/146 199/550/146 187/551/146 184/552/146
f 137/553/147 134/554/147 133/555/147 138/556/147
f 158/557/148 157/558/148 21/559/148 20/560/148
f 197/561/149 196/562/149 200/563/149 199/564/149
f 199/565/150 200/566/150 188/567/150 187/568/150
f 162/569/151 161/570/151 201/571/151 186/572/151
f 202/573/152 194/574/152 10/575/152 12/576/152
f 186/577/153 201/578/153 203/579/153 189/580/153
f 189/581/154 203/582/154 202/583/154 190/584/154
f 190/585/155 202/586/155 12/587/155 19/588/155
f 195/589/156 204/590/156 205/591/156 196/592/156
f 196/593/157 205/594/157 206/595/157 200/596/157
f 200/597/158 206/598/158 207/599/158 188/600/158
f 188/601/159 207/602/159 9/603/159 16/604/159
f 161/605/160 163/606/160 191/607/160 201/608/160
f 201/609/161 191/610/161 193/611/161 203/612/161
f 203/613/162 193/614/162 194/615/162 202/616/162
f 205/617/163 146/618/163 177/619/163 206/620/163
f 10/621/164 48/622/164 42/623/164 11/624/164
f 138/625/165 133/626/165 136/627/165 139/628/165
f 206/629/166 177/630/166 178/631/166 207/632/166
f 207/633/167 178/634/167 7/635/167 9/636/167
f 19/637/168 12/638/168 11/639/168 20/640/168
f 24/641/169 26/642/169 22/643/169 15/644/169
f 152/645/170 109/646/170 151/647/170 32/648/170
f 137/649/171 134/650/171 31/651/171 34/652/171
f 152/653/172 149/654/172 134/655/172 137/656/172
f 208/657/173 209/658/173 210/659/173 211/660/173
f 165/661/174 164/662/174 212/663/174 213/664/174
f 27/665/175 31/666/175 28/667/175
f 30/668/176 34/669/176 31/670/176
f 29/671/177 28/672/177 32/673/177
f 33/674/178 32/675/178 34/676/178
f 164/677/179 83/678/179 82/679/179 212/680/179
f 212/681/180 82/682/180 214/683/180 213/684/180
f 215/685/181 209/686/181 216/687/181 217/688/181
f 29/689/182 33/690/182 214/691/182 82/692/182
f 30/693/183 27/694/183 83/695/183 166/696/183
f 33/697/184 30/698/184 166/699/184 214/700/184
f 137/701/185 141/702/185 40/703/185 36/704/185
f 57/705/186 218/706/186 219/707/186
f 220/708/187 54/709/187 221/710/187 69/711/187
f 141/712/188 114/713/188 142/714/188 40/715/188
f 222/716/189 55/717/189 171/718/189 223/719/189
f 138/720/190 137/721/190 36/722/190 143/723/190
f 215/724/191 224/725/191 210/726/191 209/727/191
f 215/728/192 217/729/192 225/730/192 224/731/192
f 224/732/193 225/733/193 226/734/193 210/735/193
f 223/736/194 227/737/194 228/738/194 222/739/194
f 217/740/195 213/741/195 214/742/195 225/743/195
f 35/744/196 25/745/196 36/746/196
f 38/747/197 14/748/197 25/749/197
f 39/750/198 40/751/198 14/752/198
f 37/753/199 36/754/199 40/755/199
f 225/756/200 214/757/200 166/758/200 226/759/200
f 216/760/201 165/761/201 213/762/201 217/763/201
f 226/764/202 166/765/202 165/766/202 216/767/202
f 211/768/203 229/769/203 230/770/203 208/771/203
f 229/772/204 226/773/204 216/774/204 230/775/204
f 211/776/205 210/777/205 226/778/205 229/779/205
f 230/780/206 216/781/206 209/782/206 208/783/206
f 231/784/207 232/785/207 74/786/207 73/787/207
f 41/788/208 45/789/208 42/790/208
f 44/791/209 47/792/209 45/793/209
f 46/794/210 48/795/210 47/796/210
f 43/797/211 42/798/211 48/799/211
f 222/800/212 228/801/212 172/802/212 55/803/212
f 148/804/213 86/805/213 204/806/213 195/807/213
f 51/808/214 57/809/214 219/810/214 232/811/214
f 171/812/215 173/813/215 227/814/215 223/815/215
f 173/816/216 41/817/216 43/818/216 227/819/216
f 228/820/217 46/821/217 44/822/217 172/823/217
f 172/824/218 44/825/218 41/826/218 173/827/218
f 227/828/219 43/829/219 46/830/219 228/831/219
f 233/832/220 234/833/220 220/834/220 52/835/220
f 231/836/221 221/837/221 51/838/221 232/839/221
f 235/840/222 218/841/222 57/842/222
f 69/843/223 231/844/223 73/845/223 70/846/223
f 51/847/224 221/848/224 49/849/224
f 221/850/225 222/851/225 49/852/225
f 218/853/226 236/854/226 237/855/226 219/856/226
f 232/857/227 238/858/227 79/859/227 74/860/227
f 1/861/228 4/862/228 81/863/228 77/864/228
f 80/865/229 6/866/229 75/867/229 78/868/229
f 219/869/230 237/870/230 238/871/230 232/872/230
f 52/873/231 220/874/231 69/875/231 53/876/231
f 235/877/232 57/878/232 54/879/232 234/880/232
f 220/881/233 234/882/233 54/883/233
f 2/884/234 76/885/234 236/886/234 218/887/234
f 4/888/235 71/889/235 233/890/235
f 4/891/236 233/892/236 52/893/236
f 53/894/237 5/895/237 4/896/237
f 72/897/238 3/898/238 235/899/238 234/900/238
f 71/901/239 72/902/239 234/903/239 233/904/239
f 3/905/240 2/906/240 218/907/240 235/908/240
f 59/909/241 58/910/241 60/911/241 239/912/241
f 222/913/242 221/914/242 56/915/242
f 221/916/243 54/917/243 56/918/243
f 55/919/244 54/920/244 59/921/244
f 54/922/245 57/923/245 59/924/245
f 72/925/246 4/926/246 1/927/246 3/928/246
f 231/929/247 69/930/247 221/931/247
f 58/932/248 57/933/248 60/934/248
f 57/935/249 51/936/249 60/937/249
f 55/938/250 59/939/250 239/940/250 56/941/250
f 56/942/251 239/943/251 49/944/251 222/945/251
f 239/946/252 60/947/252 50/948/252 49/949/252
f 204/950/253 86/951/253 146/952/253 205/953/253
f 68/954/254 67/955/254 66/956/254 65/957/254