# Blender 4.2.2 LTS
# www.blender.org
mtllib ballmill_chamber.mtl
o cube.001
v 0.924596 2.249187 0.479255
v 2.244204 0.936627 0.479255
v 2.244203 0.936627 -2.057795
v 0.924596 2.249187 -2.057795
v -0.936628 2.244204 0.479255
v -0.936628 2.244204 -2.057795
v -1.556025 -0.649414 1.578539
v -0.641070 -1.559482 1.578539
v 1.556026 0.649413 1.578539
v -0.649413 1.556026 1.578539
v -0.924594 -2.249187 -2.057795
v -0.924594 -2.249188 0.479255
v -2.244204 -0.936628 0.479255
v -2.244204 -0.936628 -2.057795
v -2.249188 0.924595 -2.057795
v -2.249188 0.924596 0.479255
v 0.649414 -1.556026 1.578539
v 0.936628 -2.244205 0.479255
v 2.249187 -0.924596 0.479255
v 1.559481 -0.641072 1.578539
v 0.936628 -2.244205 -2.057795
v 2.249187 -0.924597 -2.057795
v 0.641071 1.559481 1.578539
v -1.559481 0.641072 1.578539
vn 0.7052 0.7090 -0.0000
vn -0.0027 1.0000 -0.0000
vn -0.0000 -0.0000 1.0000
vn -0.7052 -0.7090 -0.0000
vn -0.7090 0.7052 -0.0000
vn 0.6008 -0.5976 0.5310
vn -1.0000 -0.0027 -0.0000
vn 0.0027 -1.0000 -0.0000
vn -0.0000 -0.0000 -1.0000
vn 0.5976 0.6008 0.5310
vn -0.6008 0.5976 0.5310
vn 0.0023 -0.8473 0.5310
vn -0.0023 0.8473 0.5310
vn -0.8473 -0.0023 0.5310
vn 0.8473 0.0023 0.5310
vn -0.5976 -0.6008 0.5310
vn 1.0000 0.0027 -0.0000
vn 0.7090 -0.7052 -0.0000
vt 0.453446 0.878906
vt 0.453446 0.762579
vt 0.612012 0.762579
vt 0.612012 0.878906
vt 0.538741 0.371954
vt 0.538741 0.488281
vt 0.380176 0.488281
vt 0.380176 0.371954
vt 0.219155 0.643194
vt 0.276339 0.586315
vt 0.413658 0.724371
vt 0.275818 0.781034
vt 0.532519 0.882812
vt 0.691085 0.882812
vt 0.691085 0.999139
vt 0.532519 0.999139
vt 0.001269 0.508673
vt 0.159835 0.508673
vt 0.159835 0.625000
vt 0.001269 0.625000
vt 0.134082 0.412367
vt 0.215165 0.394531
vt 0.215165 0.510858
vt 0.134082 0.493023
vt 0.550460 0.492188
vt 0.550460 0.608514
vt 0.391894 0.608514
vt 0.391894 0.492188
vt 0.367516 0.882812
vt 0.526082 0.882836
vt 0.526064 0.999162
vt 0.367499 0.999139
vt 0.198412 0.718852
vt 0.281199 0.917213
vt 0.082838 1.000000
vt 0.000051 0.801639
vt 0.372363 0.780415
vt 0.372363 0.861071
vt 0.240918 0.607164
vt 0.159835 0.625000
vt 0.240918 0.526509
vt 0.286418 0.981292
vt 0.286430 0.900636
vt 0.367499 0.999139
vt 0.619824 0.470446
vt 0.538741 0.488281
vt 0.619824 0.389790
vt 0.631543 0.590679
vt 0.550460 0.608515
vt 0.631543 0.510023
vt 0.419238 0.739977
vt 0.419238 0.659321
vt 0.500321 0.641486
vt 0.500321 0.757812
vt 0.772168 0.981304
vt 0.772168 0.900648
vt 0.658887 0.757812
vt 0.500321 0.641486
vt 0.658887 0.641486
vt 0.356473 0.781250
vt 0.218939 0.723850
vt 0.356995 0.586531
vt 0.413874 0.643716
vt 0.199164 0.999689
vt 0.000362 0.917965
vt 0.082086 0.719163
vt 0.280888 0.800887
vt 0.215165 0.394531
vt 0.373731 0.394531
vt 0.373731 0.510858
s 0
usemtl m_276becea-c39a-c4b1-51ee-0d206822d3d9
f 1/1/1 2/2/1 3/3/1 4/4/1
f 5/5/2 1/6/2 4/7/2 6/8/2
f 7/9/3 8/10/3 9/11/3 10/12/3
f 11/13/4 12/14/4 13/15/4 14/16/4
f 15/17/5 16/18/5 5/19/5 6/20/5
f 17/21/6 18/22/6 19/23/6 20/24/6
f 13/25/7 16/26/7 15/27/7 14/28/7
f 12/29/8 11/30/8 21/31/8 18/32/8
f 11/33/9 15/34/9 4/35/9 22/36/9
f 9/37/10 2/2/10 1/1/10 23/38/10
f 10/39/11 5/40/11 16/18/11 24/41/11
f 17/42/12 8/43/12 12/29/12 18/44/12
f 23/45/13 1/46/13 5/5/13 10/47/13
f 24/48/14 16/49/14 13/25/14 7/50/14
f 9/51/15 20/52/15 19/53/15 2/54/15
f 7/55/16 13/15/16 12/14/16 8/56/16
f 3/57/17 2/54/17 19/58/17 22/59/17
f 9/11/3 23/60/3 10/12/3
f 10/12/3 24/61/3 7/9/3
f 8/10/3 17/62/3 9/11/3
f 17/62/3 20/63/3 9/11/3
f 15/34/9 6/64/9 4/35/9
f 4/35/9 3/65/9 22/36/9
f 22/36/9 21/66/9 11/33/9
f 11/33/9 14/67/9 15/34/9
f 19/23/18 18/68/18 21/69/18 22/70/18
