# Blender 4.2.3 LTS
# www.blender.org
mtllib drum.mtl
o Base
v -2.500000 0.000000 2.000000
v -2.500000 0.500000 2.000000
v -2.500000 0.000000 -2.000000
v -2.500000 0.500000 -2.000000
v 2.500000 0.000000 2.000000
v 2.500000 0.500000 2.000000
v 2.500000 0.000000 -2.000000
v 2.500000 0.500000 -2.000000
v -2.500000 0.500000 1.000000
v -2.500000 0.500000 0.000000
v -2.500000 0.500000 -1.000000
v 2.500000 0.500000 -1.000000
v 2.500000 0.500000 0.000000
v 2.500000 0.500000 1.000000
v 2.000000 0.500000 2.000000
v -2.000000 0.500000 2.000000
v 2.000000 0.500000 -1.000000
v 2.000000 0.500000 0.000000
v 2.000000 0.500000 1.000000
v -2.000000 0.500000 -1.000000
v -2.000000 0.500000 0.000000
v -2.000000 0.500000 1.000000
v 2.500000 2.750000 0.000000
v 2.500000 2.750000 1.000000
v 2.000000 2.750000 0.000000
v 2.000000 2.750000 1.000000
v 2.500000 2.000000 2.000000
v 2.000000 2.000000 2.000000
v -2.500000 2.750000 1.000000
v -2.500000 2.750000 0.000000
v -2.000000 2.750000 0.000000
v -2.000000 2.750000 1.000000
v -2.500000 2.000000 2.000000
v -2.500000 2.000000 -1.000000
v -2.000000 2.000000 2.000000
v -2.000000 2.000000 -1.000000
v -2.500000 0.500000 -1.500000
v 2.000000 0.812500 0.000000
v 2.000000 0.937500 0.000000
v 1.500000 0.500000 -1.000000
v 1.500000 0.500000 0.000000
v 2.000000 1.000000 -1.000000
v 2.000000 1.000000 0.000000
v 1.500000 1.000000 -1.000000
v 1.500000 1.000000 0.000000
v 1.500000 0.500000 -2.000000
v 2.500000 2.000000 -2.000000
v 1.500000 2.000000 -2.000000
v 2.500000 2.000000 -1.000000
v 2.000000 2.000000 -1.000000
v 1.500000 2.000000 -1.000000
v -1.500000 0.500000 -2.000000
v -1.500000 0.500000 -1.500000
v -2.500000 1.000000 -1.500000
v -2.500000 1.000000 -2.000000
v -1.500000 1.000000 -2.000000
v -1.500000 1.000000 -1.500000
v -2.500000 2.000000 -1.500000
v -2.500000 2.000000 -2.000000
v -1.500000 2.000000 -2.000000
v -1.500000 2.000000 -1.500000
v -2.375000 0.500000 -1.500000
v -1.625000 0.500000 -2.000000
v -1.625000 0.500000 -1.500000
v -2.375000 1.000000 -1.500000
v -1.625000 1.000000 -2.000000
v -1.625000 1.000000 -1.500000
v -2.375000 0.500000 -2.000000
v -2.375000 1.000000 -2.000000
v -0.500000 0.500000 -2.000000
v 0.500000 0.500000 -2.000000
v 0.500000 0.500000 -1.000000
v -0.500000 0.500000 -1.000000
v 0.500000 1.000000 -1.000000
v -0.500000 1.000000 -1.000000
v -0.500000 1.000000 -2.000000
v 0.500000 1.000000 -2.000000
v -0.500000 0.500000 0.000000
v 0.500000 0.500000 0.000000
v 1.500000 0.000000 -2.000000
v 0.500000 0.000000 -2.000000
v -0.500000 0.000000 -2.000000
v -1.500000 0.000000 -2.000000
v -1.500000 0.000000 2.000000
v -0.500000 0.000000 2.000000
v 0.500000 0.000000 2.000000
v 1.500000 0.000000 2.000000
v -1.500000 0.500000 1.000000
v -0.500000 0.500000 1.000000
v 0.500000 0.500000 1.000000
v 1.500000 0.500000 1.000000
v 1.500000 0.500000 2.000000
v 0.500000 0.500000 2.000000
v -0.500000 0.500000 2.000000
v -1.500000 0.500000 2.000000
v -1.500000 0.500000 -1.000000
v -1.500000 0.500000 0.000000
v -2.500000 0.000000 -1.000000
v -2.500000 0.000000 0.000000
v -2.500000 0.000000 1.000000
v 2.500000 0.000000 1.000000
v 2.500000 0.000000 0.000000
v 2.500000 0.000000 -1.000000
v -1.500000 0.000000 -1.000000
v -1.500000 0.000000 0.000000
v -1.500000 0.000000 1.000000
v -0.500000 0.000000 -1.000000
v -0.500000 0.000000 0.000000
v -0.500000 0.000000 1.000000
v 0.500000 0.000000 -1.000000
v 0.500000 0.000000 0.000000
v 0.500000 0.000000 1.000000
v 1.500000 0.000000 -1.000000
v 1.500000 0.000000 0.000000
v 1.500000 0.000000 1.000000
v 2.500000 0.875000 0.000000
v 2.500000 0.875000 1.000000
v -2.250000 0.500000 -2.000000
v -1.750000 0.500000 -2.000000
v -2.250000 0.500000 -1.500000
v -1.750000 0.500000 -1.500000
v -2.250000 1.000000 -2.000000
v -1.750000 1.000000 -2.000000
v -2.250000 1.000000 -1.500000
v -1.750000 1.000000 -1.500000
vn -0.0000 1.0000 -0.0000
vn -1.0000 -0.0000 -0.0000
vn -0.0000 -0.0000 1.0000
vn 1.0000 -0.0000 -0.0000
vn -0.0000 -0.0000 -1.0000
vn -0.0000 -1.0000 -0.0000
vn -0.0000 0.8000 0.6000
vn -0.0000 0.8000 -0.6000
vn -0.0000 0.8944 0.4472
vt 0.159049 0.468750
vt 0.159049 0.531250
vt 0.034050 0.531250
vt 0.034050 0.468750
vt 1.000000 0.351562
vt 1.000000 0.476562
vt 0.937500 0.351562
vt 0.648438 0.070312
vt 0.523438 0.070312
vt 0.523438 0.007812
vt 0.648438 0.007812
vt 0.472683 0.342616
vt 0.472683 0.405116
vt 0.410183 0.467615
vt 0.410183 0.342616
vt 0.718750 0.476562
vt 0.718750 0.351562
vt 1.000000 0.601562
vt 0.812500 0.601562
vt 0.410183 -0.157381
vt 0.472683 -0.157381
vt 0.472683 -0.094882
vt 0.284049 0.906248
vt 0.346548 0.906248
vt 0.346548 0.921873
vt 0.284049 0.968748
vt 0.867188 0.140625
vt 0.992188 0.203125
vt 0.867188 0.203125
vt 0.726085 1.063632
vt 0.726085 0.938632
vt 0.788585 0.938632
vt 1.010738 -0.032382
vt 1.073238 -0.032382
vt 1.073238 0.092617
vt 0.346548 1.015622
vt 0.346548 0.937498
vt 0.346548 0.999998
vt 0.664720 0.092617
vt 0.727220 0.092617
vt 0.727220 0.217617
vt 0.664720 0.217617
vt 1.074372 -0.157382
vt 1.136872 -0.157382
vt 1.136872 -0.032382
vt 1.074372 -0.032382
vt 0.159049 0.968748
vt 0.159049 0.906248
vt -0.090950 0.342616
vt 0.034050 0.342616
vt 0.034050 0.467616
vt -0.090950 0.467616
vt 0.159049 0.342616
vt 0.159049 0.467616
vt 0.726085 0.813633
vt 0.788585 0.813633
vt 0.159049 0.781249
vt 0.284049 0.781249
vt 0.284049 0.531250
vt 0.284049 0.656249
vt 0.159049 0.656249
vt 0.804688 0.007812
vt 0.992188 0.007812
vt 0.992188 0.070312
vt 0.804688 0.070312
vt 0.284049 0.342616
vt 0.284049 0.467616
vt 0.409048 0.342616
vt 0.409048 0.467616
vt 0.593750 0.203125
vt 0.546875 0.203125
vt 0.546875 0.078125
vt 0.593750 0.078125
vt 0.034050 -0.157382
vt 0.159049 -0.157382
vt 0.159049 -0.032382
vt 0.034050 -0.032382
vt 0.812500 0.226562
vt 0.937500 0.226562
vt 0.367188 0.007812
vt 0.179688 0.007812
vt 0.179688 0.070312
vt 0.367188 0.070312
vt 0.284049 -0.157382
vt 0.284049 -0.032382
vt 0.953125 0.750000
vt 1.000000 0.625000
vt 0.812500 0.625000
vt 0.718750 0.750000
vt 1.000000 0.226562
vt 0.718750 0.875000
vt 0.812500 1.000000
vt 1.000000 1.000000
vt 0.953125 0.875000
vt 0.472683 0.092617
vt 0.410183 0.092617
vt 0.410183 -0.032382
vt 0.472683 -0.032382
vt 0.409048 -0.032382
vt 0.409048 0.092617
vt 0.284049 0.092617
vt 0.034050 0.092617
vt 0.159049 0.092617
vt 0.159049 0.217617
vt 0.034050 0.217617
vt 0.409048 0.217617
vt 0.284049 0.217617
vt 0.724951 0.938632
vt 0.537451 0.938632
vt 0.537451 0.813633
vt 0.724951 0.813633
vt 0.034050 0.656249
vt 0.034050 0.781249
vt 0.034050 0.906248
vt 0.726562 0.203125
vt 0.664062 0.203125
vt 0.664062 0.078125
vt 0.726562 0.078125
vt 0.727220 0.342616
vt 0.664720 0.342616
vt -0.090950 0.092617
vt -0.090950 0.217617
vt -0.090950 -0.157382
vt -0.090950 -0.032382
vt 0.535182 1.047136
vt 0.410183 1.047136
vt 0.410183 0.907383
vt 0.535182 0.907383
vt 0.599951 -0.094882
vt 0.537451 -0.094882
vt 0.537451 -0.157382
vt 0.599951 -0.157382
vt 0.537451 0.045742
vt 0.537451 -0.079257
vt 0.599951 -0.079257
vt 0.599951 0.045743
vt 0.472683 0.217617
vt 0.410183 0.217617
vt 0.272962 1.094882
vt 0.272962 1.032382
vt 0.335462 1.032382
vt 0.335462 1.094882
vt 0.410183 0.782383
vt 0.535182 0.782383
vt 0.472683 0.467615
vt 0.663586 0.217617
vt 0.601086 0.217617
vt 0.601086 0.092617
vt 0.663586 0.092617
vt 0.601086 -0.157382
vt 0.663585 -0.157382
vt 0.663586 -0.032382
vt 0.601086 -0.032382
vt 0.409048 0.781249
vt 0.409048 0.906248
vt 0.284049 1.031247
vt 0.346548 1.031247
vt -0.154584 0.907383
vt -0.092084 0.907383
vt -0.092084 1.032382
vt -0.154584 1.032382
vt -0.090950 1.157382
vt -0.090950 1.032382
vt -0.028450 1.032382
vt -0.028450 1.157382
vt 1.135737 0.093752
vt 1.135737 0.281251
vt 1.010738 0.218751
vt 1.010738 0.093752
vt 0.034050 1.032382
vt 0.034050 1.157382
vt 1.010738 -0.157382
vt 1.073238 -0.157382
vt 0.631201 0.437500
vt 0.631201 0.375001
vt 0.756200 0.375001
vt 0.756201 0.437500
vt 1.010738 0.281251
vt 0.599951 0.170742
vt 0.599951 0.295741
vt 0.537452 0.295741
vt 0.537451 0.170742
vt 0.537451 0.311366
vt 0.599951 0.311366
vt 0.599951 0.373866
vt 0.537452 0.373866
vt 0.789720 0.813633
vt 0.805344 0.813633
vt 0.805344 0.876133
vt 0.789720 0.876133
vt 0.409048 0.531250
vt 0.409048 0.656249
vt 0.409048 0.921873
vt 0.209328 1.110507
vt 0.271828 1.110507
vt 0.271828 1.126132
vt 0.209328 1.126132
vt 0.724951 1.063632
vt 0.537451 1.063632
vt 0.601562 0.078125
vt 0.601562 0.203125
vt -0.092084 0.781248
vt -0.154584 0.781248
vt -0.154584 0.656249
vt -0.092084 0.656249
vt 0.145694 1.048007
vt 0.145694 1.032382
vt 0.208193 1.032382
vt 0.208193 1.048007
vt -0.090950 0.468750
vt -0.090950 0.531250
vt -0.090950 0.656249
vt -0.090950 0.781249
vt -0.090950 0.906248
vt 0.034050 0.968748
vt 0.409048 -0.157382
vt -0.090949 0.968748
vt 0.484375 0.078125
vt 0.484375 0.203125
vt 0.727220 -0.032382
vt 0.664720 -0.032382
vt 0.664720 -0.157382
vt 0.727220 -0.157382
vt 0.663586 0.342616
vt 0.601086 0.342616
vt 0.992188 0.078125
vt 0.867188 0.078125
vt 1.000000 0.750000
vt 1.000000 0.875000
vt 0.271828 1.032382
vt 0.271828 1.048007
vt 0.209328 1.048007
vt 0.209328 1.032382
vt -0.092084 0.906248
vt -0.154584 0.874998
vt -0.154584 0.812498
vt 1.073237 0.344885
vt 1.010738 0.344885
vt 1.010738 0.282386
vt 1.073237 0.282386
vt 0.208193 1.126132
vt 0.145694 1.126132
vt 0.145694 1.110507
vt 0.208193 1.110507
vt -0.154584 0.906248
vt -0.154584 0.890623
vt -0.154584 0.796873
vt 0.503932 0.593750
vt 0.503932 0.656249
vt 0.441433 0.656249
vt 0.441433 0.593750
vt 0.843750 0.203125
vt 0.828125 0.203125
vt 0.859375 0.078125
vt 0.859375 0.203125
vt 0.734375 0.078125
vt 0.765625 0.203125
vt 0.750000 0.203125
vt 0.734375 0.203125
vt 0.410183 0.781249
vt 0.410183 0.656249
vt 0.425808 0.656249
vt 0.519557 0.656249
vt 0.535182 0.656249
vt 0.535182 0.781249
s 0
f 18/1/1 41/2/1 91/3/1 19/4/1
f 18/5/2 19/6/2 43/7/2
f 24/8/1 23/9/1 25/10/1 26/11/1
f 95/12/3 16/13/3 1/14/3 84/15/3
f 19/6/2 26/16/2 25/17/2 43/7/2
f 15/18/2 28/19/2 26/16/2 19/6/2
f 5/20/3 6/21/3 15/22/3
f 96/23/1 53/24/1 64/25/1 20/26/1
f 50/27/1 48/28/1 51/29/1
f 79/30/4 72/31/4 74/32/4
f 75/33/2 73/34/2 78/35/2
f 62/36/1 20/26/1 64/25/1 121/37/1 120/38/1
f 8/39/5 7/40/5 80/41/5 46/42/5
f 101/43/4 14/44/4 6/45/4 5/46/4
f 20/26/1 21/47/1 97/48/1 96/23/1
f 87/49/6 115/50/6 101/51/6 5/52/6
f 115/50/6 114/53/6 102/54/6 101/51/6
f 35/19/4 16/18/4 22/6/4 32/16/4
f 72/31/4 71/55/4 77/56/4 74/32/4
f 96/23/1 97/48/1 78/57/1 73/58/1
f 41/2/1 40/59/1 72/60/1 79/61/1
f 30/17/2 10/5/2 9/6/2 29/16/2
f 28/62/3 15/63/3 6/64/3 27/65/3
f 114/53/6 113/66/6 103/67/6 102/54/6
f 113/66/6 80/68/6 7/69/6 103/67/6
f 24/8/7 26/11/7 28/62/7 27/65/7
f 117/70/4 14/71/4 13/72/4 116/73/4
f 100/74/6 99/75/6 105/76/6 106/77/6
f 50/78/2 42/79/2 43/7/2 25/17/2
f 32/16/4 22/6/4 21/5/4 31/17/4
f 36/65/5 20/64/5 11/63/5 34/62/5
f 33/80/3 2/81/3 16/82/3 35/83/3
f 30/11/8 31/8/8 36/65/8 34/62/8
f 32/9/7 29/10/7 33/80/7 35/83/7
f 99/75/6 98/84/6 104/85/6 105/76/6
f 116/86/4 12/87/4 49/88/4 23/89/4
f 34/78/2 11/90/2 10/5/2 30/17/2
f 9/6/2 2/18/2 33/19/2 29/16/2
f 24/91/4 27/92/4 6/93/4 117/94/4
f 93/95/3 86/96/3 87/97/3 92/98/3
f 104/85/6 83/99/6 82/100/6 107/101/6
f 109/102/6 108/103/6 111/104/6 112/105/6
f 107/101/6 82/100/6 81/106/6 110/107/6
f 111/104/6 110/107/6 113/66/6 114/53/6
f 47/108/5 8/109/5 46/110/5 48/111/5
f 90/112/1 79/61/1 78/57/1 89/113/1
f 89/113/1 78/57/1 97/48/1 88/114/1
f 82/115/5 70/116/5 71/117/5 81/118/5
f 81/119/5 71/120/5 46/42/5 80/41/5
f 85/121/6 109/102/6 112/105/6 86/122/6
f 1/123/6 100/74/6 106/77/6 84/124/6
f 78/125/9 79/126/9 74/127/9 75/128/9
f 91/3/1 41/2/1 79/61/1 90/112/1
f 65/129/2 69/130/2 68/131/2 62/132/2
f 59/133/2 55/134/2 54/135/2 58/136/2
f 93/95/3 94/137/3 85/138/3 86/96/3
f 45/139/3 41/140/3 18/141/3 43/142/3
f 75/128/1 74/127/1 77/143/1 76/144/1
f 2/145/3 1/14/3 16/13/3
f 100/146/2 9/147/2 10/148/2 99/149/2
f 4/150/2 3/151/2 98/152/2 11/153/2
f 53/24/1 73/58/1 70/154/1 52/155/1
f 11/156/1 20/26/1 62/36/1 37/157/1
f 43/158/4 18/159/4 17/160/4 42/161/4
f 43/162/1 42/163/1 44/164/1 45/165/1
f 48/166/2 46/167/2 44/168/2 51/169/2
f 44/164/2 40/170/2 41/171/2 45/165/2
f 75/33/2 76/172/2 70/173/2 73/34/2
f 73/58/1 53/24/1 96/23/1
f 50/174/3 51/175/3 44/176/3 42/177/3
f 44/168/2 46/167/2 40/178/2
f 61/179/4 57/180/4 56/181/4 60/182/4
f 66/183/4 67/184/4 64/185/4 63/186/4
f 21/5/4 20/90/4 36/78/4 31/17/4
f 68/187/1 4/188/1 37/189/1 62/190/1
f 61/179/1 60/182/1 59/133/1 58/136/1
f 72/60/1 40/59/1 46/191/1 71/192/1
f 53/24/1 52/155/1 63/193/1 64/25/1
f 125/194/3 121/195/3 64/196/3 67/197/3
f 49/198/4 12/199/4 8/109/4 47/108/4
f 77/200/5 71/117/5 70/116/5 76/201/5
f 84/124/6 106/77/6 109/102/6 85/121/6
f 86/122/6 112/105/6 115/50/6 87/49/6
f 83/202/5 52/203/5 70/204/5 82/205/5
f 118/206/5 68/207/5 69/208/5 122/209/5
f 15/210/1 19/4/1 91/3/1 92/211/1
f 92/211/1 91/3/1 90/112/1 93/212/1
f 93/212/1 90/112/1 89/113/1 94/213/1
f 94/213/1 89/113/1 88/114/1 95/214/1
f 21/47/1 22/215/1 88/114/1 97/48/1
f 95/12/3 84/15/3 85/138/3 94/137/3
f 87/97/3 5/20/3 15/22/3 92/98/3
f 110/107/6 81/106/6 80/68/6 113/66/6
f 112/105/6 111/104/6 114/53/6 115/50/6
f 108/103/6 107/101/6 110/107/6 111/104/6
f 105/76/6 104/85/6 107/101/6 108/103/6
f 106/77/6 105/76/6 108/103/6 109/102/6
f 98/84/6 3/216/6 83/99/6 104/85/6
f 32/9/1 31/8/1 30/11/1 29/10/1
f 25/10/8 23/9/8 49/83/8 50/80/8
f 95/214/1 88/114/1 22/215/1 16/217/1
f 102/218/4 13/72/4 14/71/4 101/219/4
f 103/220/4 12/221/4 13/222/4 102/223/4
f 103/220/4 7/40/4 8/39/4 12/221/4
f 9/147/2 100/146/2 1/224/2 2/225/2
f 99/149/2 10/148/2 11/153/2 98/152/2
f 47/226/1 48/28/1 50/27/1 49/227/1
f 24/91/4 117/94/4 116/86/4 23/89/4
f 13/228/4 12/87/4 116/86/4
f 6/93/4 14/229/4 117/94/4
f 55/134/6 69/130/6 65/129/6 54/135/6
f 56/181/6 57/180/6 67/184/6 66/183/6
f 63/230/5 119/231/5 123/232/5 66/233/5
f 83/202/5 3/234/5 118/235/5 119/236/5
f 119/237/1 118/238/1 120/239/1 121/240/1
f 65/241/3 62/242/3 120/243/3 124/244/3
f 123/232/2 119/231/2 121/195/2 125/194/2
f 124/244/4 120/243/4 118/206/4 122/209/4
f 3/234/5 4/245/5 68/246/5 118/235/5
f 63/247/5 52/203/5 83/202/5 119/236/5
f 123/248/6 125/249/6 124/250/6 122/251/6
f 66/252/5 123/253/5 60/254/5 56/255/5
f 59/256/5 122/257/5 69/258/5 55/259/5
f 58/260/3 54/261/3 65/262/3 124/250/3
f 67/263/3 57/264/3 61/265/3 125/249/3
f 61/265/3 58/260/3 124/250/3 125/249/3
f 60/254/5 123/253/5 122/257/5 59/256/5
l 17 12
l 40 17
l 50 17
l 39 38
o Drum
v -1.250000 1.646646 -0.654849
v 1.250000 1.646646 -0.654849
v -1.250000 0.970151 0.021646
v 1.250000 0.970150 0.021646
v -1.250000 0.970151 0.978354
v 1.250000 0.970151 0.978354
v -1.250000 1.646646 1.654849
v 1.250000 1.646646 1.654849
v -1.250000 2.603354 1.654849
v 1.250000 2.603354 1.654849
v -1.250000 3.279850 0.978354
v 1.250000 3.279850 0.978354
v -1.250000 3.279850 0.021646
v 1.250000 3.279850 0.021646
v -1.250000 2.603354 -0.654849
v 1.250000 2.603354 -0.654849
v 1.375000 2.413713 0.380411
v 1.375000 2.702425 0.260823
v 1.250000 2.991137 0.141234
v 1.250000 1.258863 0.858766
v 1.375000 1.547575 0.739177
v 1.375000 1.836288 0.619589
v 1.250000 2.991137 0.858766
v 1.375000 2.702425 0.739177
v 1.375000 2.413713 0.619589
v 1.250000 2.483766 1.366137
v 1.375000 2.364177 1.077425
v 1.375000 2.244589 0.788712
v 1.250000 1.766234 1.366137
v 1.375000 1.885823 1.077425
v 1.375000 2.005412 0.788712
v 1.250000 2.483766 -0.366137
v 1.375000 2.364177 -0.077425
v 1.375000 2.244589 0.211288
v 1.250000 1.258863 0.141234
v 1.375000 1.547575 0.260823
v 1.375000 1.836288 0.380411
v 1.250000 1.766234 -0.366137
v 1.375000 1.885823 -0.077425
v 1.375000 2.005412 0.211288
v 1.125000 2.702425 0.260823
v 1.125000 2.991137 0.141234
v 1.125000 1.258863 0.858766
v 1.125000 1.547575 0.739177
v 1.125000 2.991137 0.858766
v 1.125000 2.702425 0.739177
v 1.125000 2.483766 1.366137
v 1.125000 2.364177 1.077425
v 1.125000 1.766234 1.366137
v 1.125000 1.885823 1.077425
v 1.125000 2.483766 -0.366137
v 1.125000 2.364177 -0.077425
v 1.125000 1.258863 0.141234
v 1.125000 1.547575 0.260823
v 1.125000 1.766234 -0.366137
v 1.125000 1.885823 -0.077425
v 2.000000 1.836288 0.619589
v 2.000000 2.413713 0.619589
v 2.000000 2.244589 0.788712
v 2.000000 2.005412 0.788712
v 2.000000 2.244589 0.211288
v 2.000000 1.836288 0.380411
v 2.000000 2.005412 0.211288
v 2.000000 2.413713 0.380411
v -1.375000 2.413713 0.619589
v -1.375000 2.702425 0.739177
v -1.250000 2.991137 0.858766
v -1.250000 1.258863 0.141234
v -1.375000 1.547575 0.260823
v -1.375000 1.836288 0.380411
v -1.250000 2.991137 0.141234
v -1.375000 2.702425 0.260823
v -1.375000 2.413713 0.380411
v -1.250000 2.483766 -0.366137
v -1.375000 2.364177 -0.077425
v -1.375000 2.244589 0.211288
v -1.250000 1.766234 -0.366137
v -1.375000 1.885823 -0.077425
v -1.375000 2.005412 0.211288
v -1.250000 2.483766 1.366137
v -1.375000 2.364177 1.077425
v -1.375000 2.244589 0.788712
v -1.250000 1.766234 1.366137
v -1.375000 1.885823 1.077425
v -1.375000 2.005412 0.788712
v -1.250000 1.258863 0.858766
v -1.375000 1.547575 0.739177
v -1.375000 1.836288 0.619589
v -1.125000 2.702425 0.739177
v -1.125000 2.991137 0.858766
v -1.125000 1.258863 0.141234
v -1.125000 1.547575 0.260823
v -1.125000 2.991137 0.141234
v -1.125000 2.702425 0.260823
v -1.125000 2.483766 -0.366137
v -1.125000 2.364177 -0.077425
v -1.125000 1.766234 -0.366137
v -1.125000 1.885823 -0.077425
v -1.125000 2.483766 1.366137
v -1.125000 2.364177 1.077425
v -1.125000 1.766234 1.366137
v -1.125000 1.885823 1.077425
v -1.125000 1.258863 0.858766
v -1.125000 1.547575 0.739177
v -2.000000 1.836288 0.380411
v -2.000000 2.413713 0.380411
v -2.000000 2.244589 0.211288
v -2.000000 2.005412 0.211288
v -2.000000 2.244589 0.788712
v -2.000000 2.005412 0.788712
v -2.000000 1.836288 0.619589
v -2.000000 2.413713 0.619589
v -1.750000 1.836288 0.380411
v -1.750000 2.413713 0.380411
v -1.750000 1.836288 0.619589
v -1.750000 2.005412 0.788712
v -1.750000 2.244589 0.211288
v -1.750000 2.005412 0.211288
v -1.750000 2.244589 0.788712
v -1.750000 2.413713 0.619589
v -1.875000 1.836288 0.380411
v -1.875000 2.005412 0.788712
v -1.875000 2.005412 0.211288
v -1.875000 2.413713 0.619589
v -1.875000 2.413713 0.380411
v -1.875000 1.836288 0.619589
v -1.875000 2.244589 0.211288
v -1.875000 2.244589 0.788712
v -1.875000 3.106622 0.093399
v -1.750000 3.106622 0.093399
v -1.875000 1.143378 0.906601
v -1.750000 1.143378 0.906601
v -1.875000 2.531601 -0.481622
v -1.750000 2.531601 -0.481622
v -1.875000 2.531601 1.481622
v -1.750000 2.531601 1.481622
v -1.750000 3.106622 0.906601
v -1.750000 1.718399 -0.481622
v -1.750000 1.718399 1.481622
v -1.750000 1.143378 0.093399
v -1.875000 1.143378 0.093399
v -1.875000 1.718399 1.481622
v -1.875000 1.718399 -0.481622
v -1.875000 3.106622 0.906601
vn 1.0000 -0.0000 -0.0000
vn -0.0000 -0.7071 -0.7071
vn -0.0000 -0.0000 1.0000
vn -0.0000 -1.0000 -0.0000
vn -0.0000 -0.7071 0.7071
vn -0.0000 0.7071 0.7071
vn -0.0000 1.0000 -0.0000
vn -0.0000 -0.0000 -1.0000
vn -0.0000 0.7071 -0.7071
vn -1.0000 -0.0000 -0.0000
vt 0.777506 0.285342
vt 0.761221 0.301627
vt 0.747729 0.269056
vt 0.770761 0.269056
vt 0.980567 0.035886
vt 0.934504 0.035886
vt 0.934504 0.018258
vt 0.980567 0.018258
vt 0.447880 0.404053
vt 0.447880 0.333544
vt 0.632131 0.333544
vt 0.632131 0.404053
vt 0.101591 0.551120
vt 0.110804 0.551120
vt 0.110804 0.568748
vt 0.101591 0.568748
vt 0.562217 0.282669
vt 0.562217 0.212160
vt 0.746467 0.212160
vt 0.746467 0.282669
vt 0.632131 0.474563
vt 0.447880 0.474563
vt 0.110804 0.514603
vt 0.101591 0.514603
vt 0.101591 0.496976
vt 0.110804 0.496976
vt 0.049218 0.563960
vt 0.058431 0.563960
vt 0.058431 0.623893
vt 0.049218 0.623893
vt 0.110804 0.586375
vt 0.101591 0.586375
vt 0.101591 0.515866
vt 0.110804 0.515866
vt 0.110804 0.533493
vt 0.101591 0.533493
vt 0.101591 0.479349
vt 0.110804 0.479349
vt 0.980566 0.107657
vt 0.934504 0.107657
vt 0.934504 0.090030
vt 0.980566 0.090030
vt 0.934504 0.000631
vt 0.980567 0.000631
vt 0.980567 0.071141
vt 0.934504 0.071141
vt 0.934504 0.053513
vt 0.980567 0.053513
vt 0.980566 0.125285
vt 0.934504 0.125285
vt 0.049218 0.444094
vt 0.058431 0.444094
vt 0.058431 0.504027
vt 0.049218 0.504027
vt 0.980566 0.142912
vt 0.934504 0.142912
vt 0.410153 0.914317
vt 0.426439 0.930602
vt 0.393867 0.944094
vt 0.393867 0.921063
vt 0.878787 0.333544
vt 0.878787 0.388819
vt 0.862501 0.395564
vt 0.823416 0.356479
vt 0.855755 0.411850
vt 0.800480 0.411850
vt 0.800480 0.569725
vt 0.855755 0.569725
vt 0.862501 0.586010
vt 0.823416 0.625096
vt 0.416899 0.898031
vt 0.439930 0.898031
vt 0.842379 0.222994
vt 0.874950 0.236485
vt 0.858664 0.252771
vt 0.842379 0.246025
vt 0.793792 0.315119
vt 0.793792 0.292087
vt 0.749811 0.884212
vt 0.772843 0.884212
vt 0.752605 0.933069
vt 0.736320 0.916784
vt 0.047956 0.623893
vt 0.038743 0.623893
vt 0.038743 0.563960
vt 0.047956 0.563960
vt 0.300480 0.703306
vt 0.365622 0.730289
vt 0.349337 0.746575
vt 0.300480 0.726338
vt 0.880049 0.490156
vt 0.880049 0.434881
vt 0.896334 0.428136
vt 0.935419 0.467221
vt 0.047956 0.504027
vt 0.038743 0.504027
vt 0.038743 0.444094
vt 0.047956 0.444094
vt 0.426439 0.865460
vt 0.410153 0.881746
vt 0.862501 0.428136
vt 0.823416 0.467221
vt 0.878786 0.491419
vt 0.878786 0.546694
vt 0.862501 0.553439
vt 0.823416 0.514354
vt 0.818085 0.269056
vt 0.841117 0.269056
vt 0.827625 0.301627
vt 0.811340 0.285342
vt 0.447880 0.908300
vt 0.468117 0.859443
vt 0.484403 0.875729
vt 0.470912 0.908300
vt 0.702487 0.884212
vt 0.682249 0.933069
vt 0.665964 0.916784
vt 0.679455 0.884212
vt 0.633393 0.953306
vt 0.633393 0.930275
vt 0.888441 0.269056
vt 0.874950 0.301627
vt 0.858664 0.285342
vt 0.865410 0.269056
vt 0.633393 0.815119
vt 0.682249 0.835356
vt 0.665964 0.851641
vt 0.633393 0.838150
vt 0.567093 0.957157
vt 0.518236 0.977394
vt 0.518236 0.954363
vt 0.550808 0.940871
vt 0.880049 0.333544
vt 0.935420 0.356479
vt 0.896334 0.395565
vt 0.880049 0.388819
vt 0.761221 0.236485
vt 0.777506 0.252771
vt 0.000631 0.735370
vt 0.019056 0.735370
vt 0.019056 0.770625
vt 0.000631 0.770625
vt 0.047956 0.683826
vt 0.038743 0.683826
vt 0.933242 0.106395
vt 0.914817 0.106395
vt 0.914817 0.071141
vt 0.933242 0.071141
vt 0.000631 0.629606
vt 0.019056 0.629606
vt 0.019056 0.664861
vt 0.000631 0.664861
vt 0.080642 0.496976
vt 0.089855 0.496976
vt 0.089855 0.549858
vt 0.080642 0.549858
vt 0.000631 0.700116
vt 0.019056 0.700116
vt 0.518236 0.839206
vt 0.567093 0.859443
vt 0.550808 0.875729
vt 0.518236 0.862238
vt 0.393867 0.851969
vt 0.393867 0.875000
vt 0.842379 0.315119
vt 0.842379 0.292087
vt 0.392605 0.795431
vt 0.365622 0.860574
vt 0.349337 0.844288
vt 0.369574 0.795431
vt 0.903080 0.411850
vt 0.958355 0.411850
vt 0.800480 0.805906
vt 0.800480 0.750631
vt 0.816766 0.743885
vt 0.855851 0.782971
vt 0.516974 0.839206
vt 0.516974 0.862238
vt 0.752605 0.835356
vt 0.736320 0.851641
vt 0.234076 0.730289
vt 0.299218 0.703306
vt 0.299218 0.726338
vt 0.250361 0.746575
vt 0.230124 0.795431
vt 0.207093 0.795431
vt 0.300480 0.887557
vt 0.300480 0.864525
vt 0.205831 0.887557
vt 0.140688 0.860574
vt 0.156974 0.844288
vt 0.205831 0.864525
vt 0.069175 0.844288
vt 0.085461 0.860574
vt 0.020318 0.887557
vt 0.020318 0.864525
vt 0.112443 0.795431
vt 0.089412 0.795431
vt 0.878787 0.727600
vt 0.823511 0.727600
vt 0.816766 0.711314
vt 0.855851 0.672229
vt 0.020318 0.726338
vt 0.020318 0.703306
vt 0.085461 0.730289
vt 0.069175 0.746575
vt 0.827625 0.236485
vt 0.811340 0.252771
vt 0.136737 0.795432
vt 0.113706 0.795432
vt 0.703749 0.953306
vt 0.703749 0.930275
vt 0.000631 0.877652
vt 0.019056 0.877652
vt 0.019056 0.912906
vt 0.000631 0.912906
vt 0.070167 0.549858
vt 0.079380 0.549858
vt 0.079380 0.602740
vt 0.070167 0.602740
vt 0.068905 0.549858
vt 0.059693 0.549858
vt 0.059693 0.496976
vt 0.068905 0.496976
vt 0.933242 0.248677
vt 0.914817 0.248677
vt 0.914817 0.213422
vt 0.933242 0.213422
vt 0.000631 0.807142
vt 0.019056 0.807142
vt 0.019056 0.842397
vt 0.000631 0.842397
vt 0.070167 0.444094
vt 0.079380 0.444094
vt 0.079380 0.496976
vt 0.070167 0.496976
vt 0.068905 0.602740
vt 0.059693 0.602740
vt 0.349067 0.906446
vt 0.376705 0.906446
vt 0.376705 0.924074
vt 0.349067 0.924074
vt 0.934504 0.144174
vt 0.962142 0.144174
vt 0.962142 0.161802
vt 0.934504 0.161802
vt 0.934504 0.197057
vt 0.962142 0.197057
vt 0.962142 0.214684
vt 0.934504 0.214684
vt 0.349067 0.941701
vt 0.376704 0.941701
vt 0.376705 0.959328
vt 0.349067 0.959328
vt 0.934504 0.179429
vt 0.962142 0.179429
vt 0.484403 0.940871
vt 0.468117 0.957157
vt 0.140688 0.730289
vt 0.205831 0.703306
vt 0.205831 0.726338
vt 0.156974 0.746575
vt 0.516974 0.977394
vt 0.516974 0.954363
vt 0.878786 0.592756
vt 0.878787 0.648031
vt 0.795054 0.315119
vt 0.795054 0.292087
vt 0.795054 0.222994
vt 0.795054 0.246025
vt 0.080642 0.602740
vt 0.089855 0.602740
vt 0.089855 0.655622
vt 0.080642 0.655622
vt 0.933242 0.141650
vt 0.914817 0.141650
vt 0.058431 0.683826
vt 0.049218 0.683826
vt 0.934504 0.072403
vt 0.980566 0.072403
vt 0.110804 0.461721
vt 0.101591 0.461721
vt 0.101591 0.444094
vt 0.110804 0.444094
vt 0.703749 0.815119
vt 0.703749 0.838150
vt 0.800480 0.649293
vt 0.800480 0.704568
vt 0.878787 0.490156
vt 0.878786 0.434881
vt 0.587330 0.908300
vt 0.564299 0.908300
vt 0.234076 0.860574
vt 0.250361 0.844288
vt 0.447880 0.615582
vt 0.447880 0.545072
vt 0.632131 0.545072
vt 0.632131 0.615582
vt 0.349067 0.888819
vt 0.376705 0.888819
vt 0.562217 0.071141
vt 0.562217 0.000631
vt 0.746467 0.000631
vt 0.746467 0.071141
vt 0.562217 0.141650
vt 0.746467 0.141650
vt 0.299218 0.887557
vt 0.299218 0.864525
vt 0.793792 0.222994
vt 0.793792 0.246025
vt 0.068905 0.655622
vt 0.059693 0.655622
vt 0.933242 0.178167
vt 0.914817 0.178167
vt 0.914817 0.142912
vt 0.933242 0.142912
vt 0.079380 0.655622
vt 0.070167 0.655622
vt 0.059693 0.444094
vt 0.068905 0.444094
vt 0.000631 0.771887
vt 0.019056 0.771887
vt 0.080642 0.444094
vt 0.089855 0.444094
vt 0.100329 0.496976
vt 0.091117 0.496976
vt 0.091117 0.444094
vt 0.100329 0.444094
vt 0.100329 0.655622
vt 0.091117 0.655622
vt 0.091117 0.602740
vt 0.100329 0.602740
vt 0.933242 0.283931
vt 0.914817 0.283931
vt 0.933242 0.035886
vt 0.914817 0.035886
vt 0.914817 0.000631
vt 0.933242 0.000631
vt 0.091117 0.549858
vt 0.100329 0.549858
s 0
f 142/266/10 143/267/10 149/268/10 150/269/10
f 187/270/11 162/271/11 165/272/11 188/273/11
f 134/274/12 132/275/12 133/276/12 135/277/12
f 230/278/13 246/279/13 251/280/13 236/281/13
f 132/282/14 130/283/14 131/284/14 133/285/14
f 137/286/15 136/287/15 134/274/15 135/277/15
f 235/288/12 247/289/12 253/290/12 234/291/12
f 269/292/16 262/293/16 255/294/16 254/295/16
f 236/281/14 251/280/14 247/296/14 235/297/14
f 232/298/17 252/299/17 248/300/17 233/301/17
f 234/291/15 253/290/15 249/302/15 237/303/15
f 183/304/15 150/305/15 153/306/15 184/307/15
f 188/273/17 165/272/17 159/308/17 186/309/17
f 185/310/14 156/311/14 147/312/14 182/313/14
f 189/314/16 142/315/16 150/305/16 183/304/16
f 267/316/12 264/317/12 261/318/12 260/319/12
f 186/320/18 159/321/18 142/315/18 189/314/18
f 182/313/13 147/312/13 162/271/13 187/270/13
f 198/322/19 197/323/19 200/324/19 201/325/19
f 264/326/10 241/327/10 244/328/10 261/329/10
f 261/329/10 244/328/10 245/330/10 262/331/10
f 269/332/19 249/333/19 253/334/19 260/335/19
f 190/336/19 191/337/19 197/323/19 198/322/19
f 200/338/19 203/339/19 204/340/19 201/341/19
f 158/342/10 143/267/10 142/266/10 159/343/10
f 214/344/19 215/345/19 218/346/19 219/347/19
f 268/348/11 263/349/11 265/350/11 266/351/11
f 140/352/19 126/353/19 202/354/19 199/355/19
f 259/356/10 242/357/10 243/358/10 263/359/10
f 256/360/14 257/361/14 264/362/14 267/363/14
f 206/364/19 191/337/19 190/336/19 207/365/19
f 262/331/10 245/330/10 239/366/10 255/367/10
f 258/368/19 252/369/19 250/370/19 254/371/19
f 162/372/10 161/373/10 164/374/10 165/375/10
f 170/376/10 172/377/10 173/378/10 171/379/10
f 216/380/19 228/381/19 229/382/19 217/383/19
f 229/382/19 228/381/19 226/384/19 227/385/19
f 194/386/19 212/387/19 213/388/19 195/389/19
f 220/390/19 222/391/19 223/392/19 221/393/19
f 180/394/10 176/395/10 177/396/10 181/397/10
f 264/398/10 257/399/10 240/400/10 241/401/10
f 150/269/10 149/268/10 152/402/10 153/403/10
f 169/404/14 146/405/14 155/406/14 175/407/14
f 258/408/17 259/409/17 263/349/17 268/348/17
f 173/410/15 152/411/15 149/412/15 171/413/15
f 177/414/17 158/415/17 164/416/17 181/417/17
f 168/418/16 145/419/16 160/420/16 178/421/16
f 179/422/13 161/423/13 146/405/13 169/404/13
f 174/424/10 168/425/10 169/426/10 175/427/10
f 209/428/19 206/364/19 207/365/19 210/429/19
f 213/388/19 212/387/19 209/430/19 210/431/19
f 128/432/19 130/433/19 211/434/19 193/435/19
f 263/359/10 243/358/10 238/436/10 265/437/10
f 267/438/19 247/439/19 251/440/19 256/441/19
f 172/377/10 174/442/10 175/443/10 173/378/10
f 224/444/19 215/345/19 214/344/19 225/445/19
f 138/446/19 140/447/19 199/448/19 196/449/19
f 196/449/19 192/450/19 136/451/19 138/446/19
f 130/433/19 132/452/19 208/453/19 211/434/19
f 126/353/19 128/432/19 193/435/19 202/354/19
f 141/454/10 139/455/10 144/456/10 157/457/10
f 163/458/10 127/459/10 141/460/10 157/461/10
f 129/462/10 127/459/10 163/458/10 160/463/10
f 266/464/19 246/465/19 248/466/19 268/467/19
f 256/441/19 251/440/19 246/465/19 266/464/19
f 154/468/10 133/469/10 131/470/10 145/471/10
f 146/472/10 161/373/10 162/372/10 147/473/10
f 131/470/10 129/462/10 160/463/10 145/471/10
f 265/437/10 238/436/10 240/400/10 257/399/10
f 148/474/10 144/456/10 139/455/10 137/475/10
f 219/347/19 218/346/19 220/476/19 221/477/19
f 225/478/12 206/479/12 209/480/12 227/481/12
f 216/482/16 193/483/16 211/484/16 228/485/16
f 215/486/13 192/487/13 196/488/13 218/489/13
f 229/490/13 212/491/13 194/492/13 217/493/13
f 219/494/16 197/495/16 191/496/16 214/497/16
f 220/498/12 199/499/12 202/500/12 222/501/12
f 224/502/11 205/503/11 192/487/11 215/486/11
f 244/504/15 207/505/15 190/506/15 245/507/15
f 242/508/17 201/509/17 204/510/17 243/511/17
f 240/512/14 213/513/14 210/514/14 241/515/14
f 239/516/18 198/517/18 201/518/18 242/519/18
f 245/507/16 190/506/16 198/517/16 239/516/16
f 238/520/13 195/521/13 213/513/13 240/512/13
f 166/522/10 167/523/10 170/376/10 171/379/10
f 223/392/19 222/391/19 216/380/19 217/383/19
f 135/524/10 133/525/10 154/526/10 151/527/10
f 176/528/10 167/523/10 166/522/10 177/529/10
f 203/339/19 194/386/19 195/389/19 204/340/19
f 260/335/19 253/334/19 247/530/19 267/531/19
f 164/374/10 158/532/10 159/533/10 165/375/10
f 155/534/10 146/472/10 147/473/10 156/535/10
f 180/536/12 163/537/12 157/538/12 176/539/12
f 175/540/12 155/541/12 152/411/12 173/410/12
f 254/295/18 255/294/18 259/542/18 258/543/18
f 184/307/12 153/306/12 156/544/12 185/545/12
f 231/546/18 250/547/18 252/548/18 232/549/18
f 237/303/16 249/302/16 250/547/16 231/546/16
f 254/371/19 250/370/19 249/333/19 269/332/19
f 226/550/19 224/444/19 225/445/19 227/551/19
f 258/552/19 268/467/19 248/466/19 252/553/19
f 259/554/10 255/367/10 239/366/10 242/555/10
f 168/425/10 178/556/10 179/557/10 169/426/10
f 134/558/19 136/451/19 192/450/19 205/559/19
f 137/475/10 135/524/10 151/527/10 148/474/10
f 178/556/10 180/394/10 181/397/10 179/557/10
f 266/351/13 265/350/13 257/361/13 256/360/13
f 140/560/18 138/561/18 139/562/18 141/563/18
f 241/564/12 210/565/12 207/505/12 244/504/12
f 233/301/11 248/300/11 246/279/11 230/278/11
f 138/561/16 136/287/16 137/286/16 139/562/16
f 126/566/17 140/567/17 141/568/17 127/569/17
f 130/283/13 128/570/13 129/571/13 131/284/13
f 132/572/19 134/558/19 205/559/19 208/573/19
f 128/570/11 126/566/11 127/569/11 129/571/11
f 152/402/10 155/574/10 156/575/10 153/403/10
f 226/576/17 208/577/17 205/503/17 224/502/17
f 223/578/17 203/579/17 200/580/17 221/581/17
f 214/497/15 191/496/15 206/479/15 225/478/15
f 228/485/18 211/484/18 208/582/18 226/583/18
f 260/319/15 261/318/15 262/293/15 269/292/15
f 222/501/15 202/500/15 193/483/15 216/482/15
f 218/489/14 196/488/14 199/584/14 220/585/14
f 217/493/11 194/492/11 203/579/11 223/578/11
f 221/586/18 200/587/18 197/495/18 219/494/18
f 174/588/18 154/589/18 145/419/18 168/418/18
f 172/590/17 151/591/17 154/592/17 174/593/17
f 176/594/14 157/595/14 144/596/14 167/597/14
f 243/511/11 204/510/11 195/521/11 238/520/11
f 227/598/14 209/599/14 212/491/14 229/490/14
f 166/600/18 143/601/18 158/602/18 177/603/18
f 167/597/13 144/596/13 148/604/13 170/605/13
f 178/421/15 160/420/15 163/537/15 180/536/15
f 171/413/16 149/412/16 143/601/16 166/600/16
f 181/417/11 164/416/11 161/423/11 179/422/11
f 170/605/11 148/604/11 151/591/11 172/590/11
o gear
v 1.538597 0.750000 -3.769297
v 1.288597 0.750000 -3.769297
v 1.288597 0.284772 -3.304069
v 1.538597 0.284772 -3.304069
v 1.288597 0.537895 -3.831266
v 1.538597 0.537895 -3.831266
v 1.538597 0.222803 -3.516174
v 1.288597 0.222803 -3.516174
v 1.538597 0.750000 -4.338841
v 1.288597 0.750000 -4.338841
v 1.288597 0.537895 -4.276872
v 1.538597 0.537895 -4.276872
v 1.538597 0.284772 -4.804069
v 1.288597 0.284772 -4.804069
v 1.288597 0.222803 -4.591964
v 1.538597 0.222803 -4.591964
v 1.538597 -0.284772 -4.804069
v 1.288597 -0.284772 -4.804069
v 1.288597 -0.222803 -4.591964
v 1.538597 -0.222803 -4.591964
v 1.538597 -0.750000 -4.338841
v 1.288597 -0.750000 -4.338841
v 1.288597 -0.537895 -4.276872
v 1.538597 -0.537895 -4.276872
v 1.538598 -0.750000 -3.769297
v 1.288598 -0.750000 -3.769297
v 1.288597 -0.537895 -3.831266
v 1.538598 -0.537895 -3.831266
v 1.538598 -0.284772 -3.304069
v 1.288598 -0.284772 -3.304069
v 1.288597 -0.222803 -3.516174
v 1.538598 -0.222803 -3.516174
v 1.288597 0.537895 -4.276872
v 1.288597 0.750000 -4.338841
v 1.288597 0.284772 -4.804069
v 1.288597 0.222803 -4.591964
v 1.288597 0.537895 -3.831266
v 1.288597 0.750000 -3.769297
v 1.288597 0.222803 -3.516174
v 1.288597 0.284772 -3.304069
v 1.288597 -0.222803 -3.516174
v 1.288598 -0.284772 -3.304069
v 1.288597 -0.537895 -3.831266
v 1.288598 -0.750000 -3.769297
v 1.288597 -0.537895 -4.276872
v 1.288597 -0.750000 -4.338841
v 1.288597 -0.222803 -4.591964
v 1.288597 -0.284772 -4.804069
v 1.413597 0.250000 -4.616569
v 1.413597 0.562500 -4.304069
v 1.413597 -0.562500 -4.304069
v 1.413597 -0.250000 -4.616569
v 1.413597 -0.562500 -4.304069
v 1.413597 0.562500 -4.304069
v 1.413597 0.562500 -3.804069
v 1.413598 -0.562500 -3.804069
v 1.413598 -0.562500 -3.804069
v 1.413597 0.562500 -3.804069
v 1.413597 0.250000 -3.491569
v 1.413598 -0.250000 -3.491569
v 1.407347 0.250000 -3.491569
v 1.407347 0.562500 -3.804069
v 1.407348 -0.562500 -3.804069
v 1.407348 -0.250000 -3.491569
v 1.407348 -0.562500 -3.804069
v 1.407347 0.562500 -3.804069
v 1.407347 0.562500 -4.304069
v 1.407347 -0.562500 -4.304069
v 1.407347 -0.562500 -4.304069
v 1.407347 0.562500 -4.304069
v 1.407347 0.250000 -4.616569
v 1.407347 -0.250000 -4.616569
v 1.288598 -0.250000 -3.116569
v 1.538598 -0.250000 -3.116569
v 1.538598 -0.125000 -3.116569
v 1.288598 -0.125000 -3.116569
v 1.288598 -0.093750 -3.304069
v 1.538598 -0.093750 -3.304069
v 1.538598 -0.281250 -3.304069
v 1.288598 -0.281250 -3.304069
v 1.288598 0.125000 -3.116569
v 1.538598 0.125000 -3.116569
v 1.538598 0.250000 -3.116569
v 1.288597 0.250000 -3.116569
v 1.288597 0.281250 -3.304069
v 1.538597 0.281250 -3.304069
v 1.538598 0.093750 -3.304069
v 1.288597 0.093750 -3.304069
v 1.288597 0.937500 -3.804069
v 1.538597 0.937500 -3.804069
v 1.538597 0.937500 -3.929069
v 1.288597 0.937500 -3.929069
v 1.288597 0.750000 -3.960319
v 1.538597 0.750000 -3.960319
v 1.538597 0.750000 -3.772819
v 1.288597 0.750000 -3.772819
v 1.288597 0.937500 -4.179069
v 1.538597 0.937500 -4.179069
v 1.538597 0.937500 -4.304069
v 1.288597 0.937500 -4.304069
v 1.288597 0.750000 -4.335319
v 1.538597 0.750000 -4.335319
v 1.538597 0.750000 -4.147819
v 1.288597 0.750000 -4.147819
v 1.538598 -0.937500 -3.929069
v 1.538598 -0.937500 -3.804069
v 1.288598 -0.937500 -3.804069
v 1.288598 -0.937500 -3.929069
v 1.538598 -0.750000 -3.772819
v 1.538598 -0.750000 -3.960319
v 1.288598 -0.750000 -3.960319
v 1.288598 -0.750000 -3.772819
v 1.538597 -0.937500 -4.304069
v 1.538598 -0.937500 -4.179069
v 1.288598 -0.937500 -4.179069
v 1.288597 -0.937500 -4.304069
v 1.538598 -0.750000 -4.147819
v 1.538597 -0.750000 -4.335319
v 1.288597 -0.750000 -4.335319
v 1.288597 -0.750000 -4.147819
v 1.538597 -0.125000 -4.991569
v 1.538597 -0.250000 -4.991569
v 1.288597 -0.250000 -4.991569
v 1.288597 -0.125000 -4.991569
v 1.538597 -0.281250 -4.804069
v 1.538597 -0.093750 -4.804069
v 1.288597 -0.093750 -4.804069
v 1.288597 -0.281250 -4.804069
v 1.538597 0.250000 -4.991569
v 1.538597 0.125000 -4.991569
v 1.288597 0.125000 -4.991569
v 1.288597 0.250000 -4.991569
v 1.538597 0.093750 -4.804069
v 1.538597 0.281250 -4.804069
v 1.288597 0.281250 -4.804069
v 1.288597 0.093750 -4.804069
v 1.538597 -0.732951 -4.617870
v 1.538597 -0.821339 -4.529482
v 1.288597 -0.821339 -4.529482
v 1.288597 -0.732951 -4.617870
v 1.538597 -0.710853 -4.374802
v 1.538597 -0.578271 -4.507385
v 1.288597 -0.578271 -4.507385
v 1.288597 -0.710853 -4.374802
v 1.538597 -0.467785 -4.883035
v 1.538597 -0.556174 -4.794647
v 1.288597 -0.556174 -4.794647
v 1.288597 -0.467785 -4.883035
v 1.538597 -0.445688 -4.639967
v 1.538597 -0.313106 -4.772550
v 1.288597 -0.313106 -4.772550
v 1.288597 -0.445688 -4.639967
v 1.288598 -0.821339 -3.578656
v 1.538598 -0.821339 -3.578656
v 1.538598 -0.732951 -3.490268
v 1.288598 -0.732951 -3.490268
v 1.288598 -0.578271 -3.600753
v 1.538598 -0.578271 -3.600754
v 1.538598 -0.710853 -3.733336
v 1.288598 -0.710853 -3.733336
v 1.288598 -0.556174 -3.313491
v 1.538598 -0.556174 -3.313491
v 1.538598 -0.467785 -3.225103
v 1.288598 -0.467785 -3.225103
v 1.288598 -0.313106 -3.335588
v 1.538598 -0.313106 -3.335588
v 1.538598 -0.445688 -3.468171
v 1.288598 -0.445688 -3.468171
v 1.538597 0.732951 -3.490268
v 1.538597 0.821339 -3.578656
v 1.288597 0.821339 -3.578656
v 1.288597 0.732951 -3.490268
v 1.538597 0.710853 -3.733336
v 1.538597 0.578271 -3.600754
v 1.288597 0.578271 -3.600753
v 1.288597 0.710853 -3.733336
v 1.538597 0.467785 -3.225103
v 1.538597 0.556174 -3.313491
v 1.288597 0.556174 -3.313491
v 1.288597 0.467785 -3.225103
v 1.538597 0.445688 -3.468171
v 1.538597 0.313106 -3.335588
v 1.288597 0.313106 -3.335588
v 1.288597 0.445688 -3.468171
v 1.288597 0.821339 -4.529482
v 1.538597 0.821339 -4.529482
v 1.538597 0.732951 -4.617870
v 1.288597 0.732951 -4.617870
v 1.288597 0.578271 -4.507385
v 1.538597 0.578271 -4.507385
v 1.538597 0.710853 -4.374802
v 1.288597 0.710853 -4.374802
v 1.288597 0.556174 -4.794647
v 1.538597 0.556174 -4.794647
v 1.538597 0.467785 -4.883035
v 1.288597 0.467785 -4.883035
v 1.288597 0.313106 -4.772550
v 1.538597 0.313106 -4.772550
v 1.538597 0.445688 -4.639967
v 1.288597 0.445688 -4.639967
v 1.288597 0.083333 -3.970736
v 1.288597 0.250000 -3.970736
v 1.288597 0.250000 -4.137402
v 1.288597 0.083333 -4.137402
v 1.538597 0.083333 -4.137402
v 1.538597 0.250000 -4.137402
v 1.538597 0.250000 -3.970736
v 1.538597 0.083333 -3.970736
v 1.538597 -0.250000 -4.137402
v 1.538597 -0.250000 -3.970736
v 1.288597 -0.250000 -3.970736
v 1.288597 -0.250000 -4.137402
v 1.538597 -0.083333 -4.137402
v 1.538597 -0.083333 -3.970736
v 1.538597 -0.083333 -4.304069
v 1.538597 0.083333 -4.304069
v 1.288597 -0.083333 -3.970736
v 1.288597 -0.083333 -4.137402
v 1.288597 -0.083333 -3.804069
v 1.288597 0.083333 -3.804069
v 1.288597 -0.083333 -4.304069
v 1.288597 0.083333 -4.304069
v 1.538597 -0.083333 -3.804069
v 1.538597 0.083333 -3.804069
v -1.840278 0.288713 -4.173658
v -1.840278 0.288713 -3.934480
v -1.840278 0.577425 -3.814892
v -1.840278 0.577425 -4.293246
v -2.402778 -0.288713 -4.173658
v -2.402778 -0.119588 -4.342781
v -1.840278 -0.119588 -4.342781
v -1.840278 -0.288713 -4.173658
v -1.465278 0.478354 -2.899220
v -1.465278 1.154850 -3.575715
v -1.465278 1.270335 -3.527880
v -1.465278 0.526190 -2.783735
v 1.597222 -0.288713 -4.173658
v 1.597222 -0.288713 -3.934480
v 1.472222 -0.288713 -3.934480
v 1.472222 -0.288713 -4.173658
v -1.715278 -1.154850 -3.575715
v -1.715278 -1.154850 -4.532423
v -1.715278 -1.270335 -4.580258
v -1.715278 -1.270335 -3.527879
v 0.847222 0.478354 -2.899220
v 0.847222 1.154850 -3.575715
v 0.847222 1.270335 -3.527880
v 0.847222 0.526190 -2.783735
v 1.597222 -0.119588 -3.765357
v 1.597222 0.119589 -3.765357
v 1.472222 0.119589 -3.765357
v 1.472222 -0.119588 -3.765357
v 1.597222 0.119589 -4.342781
v 1.597222 -0.119588 -4.342781
v 1.472222 -0.119588 -4.342781
v 1.472222 0.119589 -4.342781
v 1.597222 0.288713 -3.934480
v 1.472222 0.288713 -3.934480
v -2.402778 0.288713 -3.934480
v -2.402778 0.119589 -3.765357
v -1.840278 0.119589 -3.765357
v -2.402778 0.119589 -4.342781
v -1.840278 0.119589 -4.342781
v -2.402778 -0.119588 -3.765357
v -2.402778 -0.288713 -3.934480
v -1.840278 -0.288713 -3.934480
v -1.840278 -0.119588 -3.765357
v -2.402778 0.288713 -4.173658
v 0.972222 0.288713 -4.173658
v 0.972222 0.119589 -4.342781
v 0.972222 0.239176 -4.631494
v 0.972222 0.577425 -4.293246
v 0.972222 0.288713 -3.934480
v 0.972222 0.577425 -3.814892
v 0.972222 -0.119588 -4.342781
v 0.972222 -0.239178 -4.631494
v -1.840278 0.239176 -4.631494
v 0.722222 0.577425 -3.814892
v 0.722222 0.577425 -4.293246
v 0.722222 0.866137 -4.412835
v 0.722222 0.866137 -3.695303
v 0.847222 0.478353 -5.208918
v 0.847222 0.358766 -4.920206
v 0.847222 -0.358766 -4.920206
v 0.847222 -0.478355 -5.208918
v 0.972222 0.239177 -3.476644
v 0.972222 0.119589 -3.765357
v -1.840278 -0.239178 -4.631494
v -1.840278 -0.577425 -4.293246
v -1.590278 0.866137 -3.695303
v -1.590278 0.577425 -3.814892
v -1.590278 0.239177 -3.476644
v -1.590278 0.358766 -3.187932
v 0.722222 -0.866138 -4.412835
v 0.722222 -0.577425 -4.293246
v 0.722222 -0.577425 -3.814892
v 0.722222 -0.866138 -3.695303
v 0.722222 -0.239177 -3.476644
v 0.722222 -0.358766 -3.187932
v 0.972222 -0.577425 -4.293246
v 0.972222 -0.288713 -4.173658
v 0.972222 -0.288713 -3.934480
v 0.972222 -0.577425 -3.814892
v 0.722222 0.358766 -4.920206
v 0.722222 0.239176 -4.631494
v 0.722222 -0.239178 -4.631494
v 0.722222 -0.358766 -4.920206
v -1.590278 -0.358766 -4.920206
v -1.590278 -0.239178 -4.631494
v -1.590278 0.239176 -4.631494
v -1.590278 0.358766 -4.920206
v -1.840278 0.239177 -3.476644
v -1.590278 -0.577425 -3.814892
v -1.590278 -0.239177 -3.476644
v -1.840278 -0.239177 -3.476644
v -1.840278 -0.577425 -3.814892
v -1.590278 -0.866138 -3.695303
v -1.590278 -0.866138 -4.412835
v -1.715278 -0.866138 -4.412835
v -1.715278 -0.866138 -3.695303
v -1.590278 -0.577425 -4.293246
v -1.590278 -0.358766 -3.187932
v 0.972222 -0.239177 -3.476644
v 0.972222 -0.119588 -3.765357
v 0.847222 -1.154850 -4.532423
v 0.847222 -0.866138 -4.412835
v 0.847222 -0.866138 -3.695303
v 0.847222 -1.154850 -3.575715
v 0.722222 0.358766 -3.187932
v 0.722222 0.239177 -3.476644
v 0.847222 1.154850 -4.532423
v 0.847222 0.866137 -4.412835
v 0.847222 0.866137 -3.695303
v 0.847222 -0.358766 -3.187932
v 0.847222 -0.478354 -2.899220
v -1.715278 0.478353 -5.208918
v -1.715278 0.358766 -4.920206
v -1.715278 0.866137 -4.412835
v -1.715278 1.154850 -4.532423
v -1.715278 -0.358766 -4.920206
v -1.715278 -0.478355 -5.208918
v -1.715278 -0.358766 -3.187932
v -1.715278 -0.478354 -2.899220
v -1.715278 0.866137 -3.695303
v -1.715278 1.154850 -3.575715
v 0.847222 0.358766 -3.187932
v 1.347222 0.119589 -3.765357
v 1.347222 0.288713 -3.934480
v 1.347222 0.119589 -4.342781
v 1.347222 -0.119588 -4.342781
v 1.347222 -0.288713 -3.934480
v 1.347222 -0.119588 -3.765357
v 1.347222 0.288713 -4.173658
v 1.347222 -0.288713 -4.173658
v -1.590278 0.577425 -4.293246
v -1.590278 0.866137 -4.412835
v -1.715278 0.478354 -2.899220
v -1.715278 0.358766 -3.187932
v 1.597222 0.288713 -4.173658
v 1.472222 0.288713 -4.173658
v -1.465278 -0.478354 -2.899220
v -1.465278 -0.526189 -2.783735
v -1.715278 0.526188 -5.324403
v -1.715278 -0.526191 -5.324403
v -1.465278 -1.154850 -3.575715
v -1.465278 -1.270335 -3.527879
v -1.715278 -0.526189 -2.783735
v -1.715278 0.526190 -2.783735
v -1.465278 1.154850 -4.532423
v -1.465278 0.478353 -5.208918
v -1.465278 0.526188 -5.324403
v -1.465278 1.270335 -4.580259
v 0.597222 -0.478355 -5.208918
v -0.340278 -0.478355 -5.208918
v -0.340278 0.478353 -5.208918
v 0.597222 0.478353 -5.208918
v -0.527778 -1.154850 -3.575715
v -1.465278 -1.154850 -4.532423
v -0.527778 -1.154850 -4.532423
v -0.527778 -0.478355 -5.208918
v -1.465278 -0.478355 -5.208918
v -0.527778 0.478353 -5.208918
v 0.597222 1.154850 -4.532423
v -0.340278 1.154850 -4.532423
v -0.340278 1.154850 -3.575715
v 0.597222 1.154850 -3.575715
v -0.527778 1.154850 -4.532423
v -0.527778 1.154850 -3.575715
v -0.340278 0.478354 -2.899220
v 0.597222 0.478354 -2.899220
v -0.527778 0.478354 -2.899220
v 0.597222 -0.478354 -2.899220
v -0.340278 -0.478354 -2.899220
v -0.340278 -1.154850 -3.575715
v 0.597222 -1.154850 -3.575715
v -0.527778 -0.478354 -2.899220
v 0.597222 -1.154850 -4.532423
v -0.340278 -1.154850 -4.532423
v 0.597222 -1.270335 -4.580258
v 0.597222 -1.270335 -3.527879
v 0.597222 0.526188 -5.324403
v 0.597222 -0.526191 -5.324403
v 0.597222 1.270335 -3.527880
v 0.597222 1.270335 -4.580259
v 0.847222 -1.270335 -4.580258
v 0.847222 -0.526191 -5.324403
v 0.847222 0.526188 -5.324403
v 0.847222 1.270335 -4.580259
v 0.597222 -0.526189 -2.783735
v 0.597222 0.526190 -2.783735
v 0.847222 -0.526189 -2.783735
v 0.847222 -1.270335 -3.527879
v -1.715278 1.270335 -4.580259
v -1.715278 1.270335 -3.527880
v -1.465278 -0.526191 -5.324403
v -1.465278 -1.270335 -4.580258
v -0.527778 0.502271 -5.266661
v -0.527778 -0.502273 -5.266661
v -0.527778 -1.212592 -3.551797
v -0.527778 -0.502272 -2.841477
v -0.340278 -0.502273 -5.266661
v -0.340278 0.502271 -5.266661
v -0.340278 -0.502272 -2.841477
v -0.340278 -1.212592 -3.551797
v -0.527778 1.212592 -3.551797
v -0.527778 1.212592 -4.556341
v -0.527778 0.502272 -2.841477
v -0.340278 1.212592 -4.556341
v -0.340278 1.212592 -3.551797
v -0.527778 -1.212592 -4.556341
v -0.340278 0.502272 -2.841477
v -0.340278 -1.212592 -4.556341
vn -0.0000 0.7071 0.7071
vn -0.0000 -0.7071 -0.7071
vn 1.0000 -0.0000 -0.0000
vn -0.0000 1.0000 -0.0000
vn -0.0000 -1.0000 -0.0000
vn -0.0000 0.7071 -0.7071
vn -0.0000 -0.7071 0.7071
vn -0.0000 -0.0000 -1.0000
vn -0.0000 -0.0000 1.0000
vn -1.0000 -0.0000 -0.0000
vn -0.0000 0.9864 0.1644
vn -0.0000 -0.9864 0.1644
vn -0.0000 0.1644 -0.9864
vn -0.0000 0.1644 0.9864
vn -0.0000 -0.1644 -0.9864
vn -0.0000 -0.1644 0.9864
vn -0.0000 0.9864 -0.1644
vn -0.0000 -0.9864 -0.1644
vn -0.0000 0.5812 -0.8137
vn -0.0000 -0.8137 0.5812
vn -0.0000 0.5812 0.8137
vn -0.0000 -0.8137 -0.5812
vn -0.0000 -0.5812 0.8137
vn -0.0000 0.8137 -0.5812
vn -0.0000 -0.5812 -0.8137
vn -0.0000 0.8137 0.5812
vt 0.214844 0.937500
vt 0.199219 0.937500
vt 0.199219 0.894531
vt 0.214844 0.894531
vt 0.519531 0.667969
vt 0.503906 0.667969
vt 0.503906 0.640625
vt 0.519531 0.640625
vt 0.292716 0.725025
vt 0.288843 0.738281
vt 0.259766 0.709205
vt 0.273023 0.705331
vt 0.097656 0.714844
vt 0.082031 0.714844
vt 0.082031 0.679688
vt 0.097656 0.679688
vt 0.085938 0.914062
vt 0.101562 0.914062
vt 0.101562 0.941406
vt 0.085938 0.941406
vt 0.320566 0.725025
vt 0.324439 0.738281
vt 0.292969 0.671875
vt 0.308594 0.671875
vt 0.308594 0.714844
vt 0.292969 0.714844
vt 0.351562 0.468750
vt 0.367188 0.468750
vt 0.367188 0.496094
vt 0.351562 0.496094
vt 0.340259 0.705331
vt 0.353516 0.709205
vt 0.347656 0.902344
vt 0.363281 0.902344
vt 0.363281 0.937500
vt 0.347656 0.937500
vt 0.046875 0.683594
vt 0.062500 0.683594
vt 0.062500 0.710938
vt 0.046875 0.710938
vt 0.340259 0.677481
vt 0.353516 0.673608
vt 0.378906 0.785156
vt 0.394531 0.785156
vt 0.394531 0.828125
vt 0.378906 0.828125
vt 0.371094 0.468750
vt 0.386719 0.468750
vt 0.386719 0.496094
vt 0.371094 0.496094
vt 0.320565 0.657784
vt 0.324436 0.644527
vt 0.353516 0.673601
vt 0.340260 0.677475
vt 0.230469 0.550781
vt 0.214844 0.550781
vt 0.214844 0.515625
vt 0.230469 0.515625
vt 0.500000 0.691406
vt 0.515625 0.691406
vt 0.515625 0.718750
vt 0.500000 0.718750
vt 0.292714 0.657786
vt 0.288840 0.644530
vt 0.320565 0.657784
vt 0.496094 0.734375
vt 0.480469 0.734375
vt 0.480469 0.691406
vt 0.496094 0.691406
vt 0.347656 0.496094
vt 0.332031 0.496094
vt 0.332031 0.468750
vt 0.347656 0.468750
vt 0.273022 0.677481
vt 0.259765 0.673608
vt 0.292714 0.657786
vt 0.503906 0.562500
vt 0.488281 0.562500
vt 0.488281 0.527344
vt 0.503906 0.527344
vt 0.515625 0.593750
vt 0.500000 0.593750
vt 0.500000 0.566406
vt 0.515625 0.566406
vt 0.273023 0.705331
vt 0.273022 0.677481
vt 0.378653 0.838306
vt 0.374779 0.851562
vt 0.345703 0.822486
vt 0.358959 0.818613
vt 0.406503 0.838306
vt 0.410376 0.851562
vt 0.426196 0.818613
vt 0.439453 0.822486
vt 0.426197 0.790762
vt 0.439454 0.786889
vt 0.439453 0.822486
vt 0.406503 0.771068
vt 0.410376 0.757812
vt 0.439453 0.786888
vt 0.426197 0.790761
vt 0.378653 0.771069
vt 0.374779 0.757812
vt 0.358959 0.790762
vt 0.345703 0.786889
vt 0.378653 0.771069
vt 0.378906 0.710938
vt 0.359375 0.730469
vt 0.359375 0.660156
vt 0.378906 0.679688
vt 0.093750 0.765625
vt 0.093750 0.835938
vt 0.062500 0.835938
vt 0.062500 0.765625
vt 0.246094 0.542969
vt 0.246094 0.613281
vt 0.226562 0.593750
vt 0.226562 0.562500
vt 0.464844 0.855469
vt 0.445312 0.875000
vt 0.445312 0.804688
vt 0.464844 0.824219
vt 0.093750 0.535156
vt 0.093750 0.605469
vt 0.062500 0.605469
vt 0.062500 0.535156
vt 0.152344 0.550781
vt 0.152344 0.621094
vt 0.132812 0.601562
vt 0.132812 0.570312
vt 0.191406 0.882812
vt 0.207031 0.882812
vt 0.207031 0.890625
vt 0.191406 0.890625
vt 0.105469 0.867188
vt 0.089844 0.867188
vt 0.089844 0.855469
vt 0.105469 0.855469
vt 0.429688 0.873047
vt 0.429688 0.865234
vt 0.441406 0.863281
vt 0.441406 0.875000
vt 0.441406 0.849609
vt 0.441406 0.857422
vt 0.429688 0.859375
vt 0.429688 0.847656
vt 0.511719 0.988281
vt 0.527344 0.988281
vt 0.527344 1.000000
vt 0.511719 1.000000
vt 0.511719 0.972656
vt 0.527344 0.972656
vt 0.527344 0.984375
vt 0.511719 0.984375
vt 0.210938 0.882812
vt 0.226562 0.882812
vt 0.226562 0.890625
vt 0.210938 0.890625
vt 0.199219 0.808594
vt 0.183594 0.808594
vt 0.183594 0.796875
vt 0.199219 0.796875
vt 0.445312 0.798828
vt 0.445312 0.791016
vt 0.457031 0.789062
vt 0.457031 0.800781
vt 0.109375 0.455078
vt 0.109375 0.462891
vt 0.097656 0.464844
vt 0.097656 0.453125
vt 0.511719 0.957031
vt 0.527344 0.957031
vt 0.527344 0.968750
vt 0.511719 0.968750
vt 0.511719 0.941406
vt 0.527344 0.941406
vt 0.527344 0.953125
vt 0.511719 0.953125
vt 0.039062 0.765625
vt 0.054688 0.765625
vt 0.054688 0.773438
vt 0.039062 0.773438
vt 0.019531 0.761719
vt 0.035156 0.761719
vt 0.035156 0.773438
vt 0.019531 0.773438
vt 0.455078 0.785156
vt 0.447266 0.785156
vt 0.445312 0.773438
vt 0.457031 0.773438
vt 0.470703 0.953125
vt 0.462891 0.953125
vt 0.460938 0.941406
vt 0.472656 0.941406
vt 0.527344 0.937500
vt 0.511719 0.937500
vt 0.511719 0.925781
vt 0.527344 0.925781
vt 0.511719 0.910156
vt 0.527344 0.910156
vt 0.527344 0.921875
vt 0.511719 0.921875
vt 0.281250 0.765625
vt 0.296875 0.765625
vt 0.296875 0.773438
vt 0.281250 0.773438
vt 0.179688 0.750000
vt 0.195312 0.750000
vt 0.195312 0.761719
vt 0.179688 0.761719
vt 0.439453 0.476562
vt 0.431641 0.476562
vt 0.429688 0.464844
vt 0.441406 0.464844
vt 0.541016 0.984375
vt 0.533203 0.984375
vt 0.531250 0.972656
vt 0.542969 0.972656
vt 0.492188 0.488281
vt 0.476562 0.488281
vt 0.476562 0.476562
vt 0.492188 0.476562
vt 0.515625 0.894531
vt 0.531250 0.894531
vt 0.531250 0.906250
vt 0.515625 0.906250
vt 0.308594 0.742188
vt 0.308594 0.750000
vt 0.292969 0.750000
vt 0.292969 0.742188
vt 0.214844 0.750000
vt 0.214844 0.761719
vt 0.199219 0.761719
vt 0.199219 0.750000
vt 0.531250 0.968750
vt 0.533203 0.957031
vt 0.541016 0.957031
vt 0.542969 0.968750
vt 0.531250 0.953125
vt 0.533203 0.941406
vt 0.541016 0.941406
vt 0.542969 0.953125
vt 0.515625 0.890625
vt 0.515625 0.878906
vt 0.531250 0.878906
vt 0.531250 0.890625
vt 0.531250 0.863281
vt 0.531250 0.875000
vt 0.515625 0.875000
vt 0.515625 0.863281
vt 0.312500 0.960938
vt 0.312500 0.968750
vt 0.296875 0.968750
vt 0.296875 0.960938
vt 0.261719 0.988281
vt 0.261719 1.000000
vt 0.246094 1.000000
vt 0.246094 0.988281
vt 0.527344 0.468750
vt 0.529297 0.457031
vt 0.537109 0.457031
vt 0.539062 0.468750
vt 0.535156 0.906250
vt 0.537109 0.894531
vt 0.544922 0.894531
vt 0.546875 0.906250
vt 0.515625 0.859375
vt 0.515625 0.847656
vt 0.531250 0.847656
vt 0.531250 0.859375
vt 0.531250 0.832031
vt 0.531250 0.843750
vt 0.515625 0.843750
vt 0.515625 0.832031
vt 0.296875 0.878906
vt 0.296875 0.871094
vt 0.312500 0.871094
vt 0.312500 0.878906
vt 0.312500 0.914062
vt 0.312500 0.925781
vt 0.296875 0.925781
vt 0.296875 0.914062
vt 0.531250 0.925781
vt 0.542969 0.927734
vt 0.542969 0.935547
vt 0.531250 0.937500
vt 0.542969 0.921875
vt 0.531250 0.919922
vt 0.531250 0.912109
vt 0.542969 0.910156
vt 0.515625 0.828125
vt 0.515625 0.816406
vt 0.531250 0.816406
vt 0.531250 0.828125
vt 0.515625 0.812500
vt 0.515625 0.800781
vt 0.531250 0.800781
vt 0.531250 0.812500
vt 0.300781 0.773438
vt 0.300781 0.765625
vt 0.316406 0.765625
vt 0.316406 0.773438
vt 0.347656 0.621094
vt 0.347656 0.632812
vt 0.332031 0.632812
vt 0.332031 0.621094
vt 0.496094 0.457031
vt 0.507812 0.458984
vt 0.507812 0.466797
vt 0.496094 0.468750
vt 0.523438 0.468750
vt 0.511719 0.466797
vt 0.511719 0.458984
vt 0.523438 0.457031
vt 0.515625 0.796875
vt 0.515625 0.785156
vt 0.531250 0.785156
vt 0.531250 0.796875
vt 0.515625 0.781250
vt 0.515625 0.769531
vt 0.531250 0.769531
vt 0.531250 0.781250
vt 0.312500 0.750000
vt 0.312500 0.742188
vt 0.328125 0.742188
vt 0.328125 0.750000
vt 0.511719 0.472656
vt 0.511719 0.484375
vt 0.496094 0.484375
vt 0.496094 0.472656
vt 0.478516 0.472656
vt 0.480469 0.460938
vt 0.488281 0.460938
vt 0.490234 0.472656
vt 0.289062 0.699219
vt 0.277344 0.697265
vt 0.277344 0.689453
vt 0.289062 0.687500
vt 0.457031 0.472656
vt 0.457031 0.460938
vt 0.472656 0.460938
vt 0.472656 0.472656
vt 0.535156 0.609375
vt 0.535156 0.621094
vt 0.519531 0.621094
vt 0.519531 0.609375
vt 0.527344 0.496094
vt 0.527344 0.488281
vt 0.542969 0.488281
vt 0.542969 0.496094
vt 0.531250 0.472656
vt 0.531250 0.484375
vt 0.515625 0.484375
vt 0.515625 0.472656
vt 0.132813 0.464844
vt 0.134766 0.453125
vt 0.142578 0.453125
vt 0.144531 0.464844
vt 0.546875 0.859375
vt 0.535156 0.857422
vt 0.535156 0.849610
vt 0.546875 0.847656
vt 0.410156 0.476562
vt 0.410156 0.464844
vt 0.425781 0.464844
vt 0.425781 0.476562
vt 0.535156 0.546875
vt 0.535156 0.558594
vt 0.519531 0.558594
vt 0.519531 0.546875
vt 0.316406 0.960938
vt 0.332031 0.960938
vt 0.332031 0.968750
vt 0.316406 0.968750
vt 0.535156 0.703125
vt 0.519531 0.703125
vt 0.519531 0.691406
vt 0.535156 0.691406
vt 0.535156 0.888672
vt 0.535156 0.880859
vt 0.546875 0.878906
vt 0.546875 0.890625
vt 0.531250 0.500000
vt 0.539062 0.500000
vt 0.541016 0.511719
vt 0.529297 0.511719
vt 0.523438 0.644531
vt 0.539062 0.644531
vt 0.539062 0.656250
vt 0.523438 0.656250
vt 0.535156 0.605469
vt 0.519531 0.605469
vt 0.519531 0.593750
vt 0.535156 0.593750
vt 0.320312 0.457031
vt 0.335938 0.457031
vt 0.335938 0.464844
vt 0.320312 0.464844
vt 0.535156 0.765625
vt 0.519531 0.765625
vt 0.519531 0.753906
vt 0.535156 0.753906
vt 0.535156 0.841797
vt 0.535156 0.833985
vt 0.546875 0.832031
vt 0.546875 0.843750
vt 0.537110 0.816406
vt 0.544922 0.816406
vt 0.546875 0.828125
vt 0.535156 0.828125
vt 0.000000 0.460938
vt 0.015625 0.460938
vt 0.015625 0.472656
vt 0.000000 0.472656
vt 0.535156 0.542969
vt 0.519531 0.542969
vt 0.519531 0.531250
vt 0.535156 0.531250
vt 0.332031 0.871094
vt 0.332031 0.878906
vt 0.316406 0.878906
vt 0.316406 0.871094
vt 0.519531 0.636719
vt 0.519531 0.625000
vt 0.535156 0.625000
vt 0.535156 0.636719
vt 0.546875 0.863281
vt 0.544922 0.875000
vt 0.537109 0.875000
vt 0.535156 0.863281
vt 0.132812 0.894531
vt 0.144531 0.896484
vt 0.144531 0.904297
vt 0.132812 0.906250
vt 0.406250 0.464844
vt 0.406250 0.476562
vt 0.390625 0.476562
vt 0.390625 0.464844
vt 0.519531 0.589844
vt 0.519531 0.578125
vt 0.535156 0.578125
vt 0.535156 0.589844
vt 0.355469 0.457031
vt 0.355469 0.464844
vt 0.339844 0.464844
vt 0.339844 0.457031
vt 0.519531 0.750000
vt 0.519531 0.738281
vt 0.535156 0.738281
vt 0.535156 0.750000
vt 0.546875 0.800781
vt 0.544922 0.812500
vt 0.537109 0.812500
vt 0.535156 0.800781
vt 0.535156 0.785156
vt 0.546875 0.787109
vt 0.546875 0.794922
vt 0.535156 0.796875
vt 0.035156 0.460938
vt 0.035156 0.472656
vt 0.019531 0.472656
vt 0.019531 0.460938
vt 0.523438 0.687500
vt 0.523438 0.675781
vt 0.539062 0.675781
vt 0.539062 0.687500
vt 0.335938 0.773438
vt 0.320312 0.773438
vt 0.320312 0.765625
vt 0.335938 0.765625
vt 0.519531 0.722656
vt 0.535156 0.722656
vt 0.535156 0.734375
vt 0.519531 0.734375
vt 0.375000 0.802734
vt 0.375000 0.810547
vt 0.363281 0.812500
vt 0.363281 0.800781
vt 0.542969 1.000000
vt 0.535156 1.000000
vt 0.533203 0.988281
vt 0.544922 0.988281
vt 0.542969 0.527344
vt 0.527344 0.527344
vt 0.527344 0.515625
vt 0.542969 0.515625
vt 0.519531 0.562500
vt 0.535156 0.562500
vt 0.535156 0.574219
vt 0.519531 0.574219
vt 0.375000 0.464844
vt 0.359375 0.464844
vt 0.359375 0.457031
vt 0.375000 0.457031
vt 0.519531 0.707031
vt 0.535156 0.707031
vt 0.535156 0.718750
vt 0.519531 0.718750
vt 0.546875 0.771484
vt 0.546875 0.779297
vt 0.535156 0.781250
vt 0.535156 0.769531
vt 0.244140 0.464844
vt 0.236328 0.464844
vt 0.234375 0.453125
vt 0.246094 0.453125
vt 0.054688 0.472656
vt 0.039062 0.472656
vt 0.039062 0.460938
vt 0.054688 0.460938
vt 0.523438 0.660156
vt 0.539062 0.660156
vt 0.539062 0.671875
vt 0.523438 0.671875
vt 0.071614 0.938802
vt 0.071614 0.949219
vt 0.061198 0.949219
vt 0.061198 0.938802
vt 0.184896 0.927083
vt 0.184896 0.937500
vt 0.174479 0.937500
vt 0.174479 0.927083
vt 0.398438 0.738281
vt 0.398438 0.750000
vt 0.382812 0.750000
vt 0.382812 0.738281
vt 0.152344 0.535156
vt 0.152344 0.546875
vt 0.136719 0.546875
vt 0.136719 0.535156
vt 0.184896 0.906250
vt 0.184896 0.916667
vt 0.174479 0.916667
vt 0.174479 0.906250
vt 0.195312 0.916667
vt 0.195312 0.927083
vt 0.071614 0.917969
vt 0.071614 0.928386
vt 0.061198 0.928386
vt 0.061198 0.917969
vt 0.082031 0.928386
vt 0.082031 0.938802
vt 0.507812 0.515625
vt 0.507812 0.503906
vt 0.523438 0.503906
vt 0.523438 0.515625
vt 0.523438 0.488281
vt 0.523438 0.500000
vt 0.507812 0.500000
vt 0.507812 0.488281
vt 0.050781 0.938802
vt 0.050781 0.928386
vt 0.343750 0.636719
vt 0.359375 0.636719
vt 0.359375 0.652344
vt 0.343750 0.652344
vt 0.164062 0.927083
vt 0.164062 0.916667
vt 0.105469 0.636719
vt 0.089844 0.636719
vt 0.089844 0.621094
vt 0.105469 0.621094
vt 0.015625 0.628906
vt 0.000000 0.628906
vt 0.000000 0.613281
vt 0.015625 0.613281
vt 0.457031 0.476562
vt 0.472656 0.476562
vt 0.472656 0.492188
vt 0.457031 0.492188
vt 0.299166 0.938987
vt 0.314115 0.938987
vt 0.321589 0.957031
vt 0.291692 0.957031
vt 0.500000 0.632812
vt 0.500000 0.648438
vt 0.460938 0.648438
vt 0.460938 0.632812
vt 0.007900 0.950501
vt 0.050181 0.992782
vt 0.047191 1.000000
vt 0.000682 0.953491
vt 0.234375 0.609375
vt 0.234375 0.625000
vt 0.226562 0.625000
vt 0.226562 0.609375
vt 0.227163 0.727332
vt 0.167368 0.727332
vt 0.164379 0.720114
vt 0.230152 0.720114
vt 0.242275 0.950501
vt 0.284556 0.992782
vt 0.281566 1.000000
vt 0.235057 0.953491
vt 0.222656 0.558594
vt 0.222656 0.574219
vt 0.214844 0.574219
vt 0.214844 0.558594
vt 0.386719 0.449219
vt 0.386719 0.464844
vt 0.378906 0.464844
vt 0.378906 0.449219
vt 0.273438 0.464844
vt 0.273438 0.449219
vt 0.281250 0.449219
vt 0.281250 0.464844
vt 0.304688 0.449219
vt 0.304688 0.464844
vt 0.296875 0.464844
vt 0.296875 0.449219
vt 0.332031 0.578125
vt 0.332031 0.562500
vt 0.371094 0.562500
vt 0.371094 0.578125
vt 0.085938 0.621094
vt 0.085938 0.636719
vt 0.046875 0.636719
vt 0.046875 0.621094
vt 0.480469 0.687500
vt 0.480469 0.671875
vt 0.519531 0.671875
vt 0.519531 0.687500
vt 0.289062 0.636719
vt 0.289062 0.621094
vt 0.328125 0.621094
vt 0.328125 0.636719
vt 0.500000 0.652344
vt 0.500000 0.667969
vt 0.460938 0.667969
vt 0.460938 0.652344
vt 0.386719 0.871094
vt 0.386719 0.855469
vt 0.425781 0.855469
vt 0.425781 0.871094
vt 0.200834 0.821799
vt 0.211404 0.811229
vt 0.229448 0.818703
vt 0.208308 0.839844
vt 0.185885 0.821799
vt 0.178411 0.839844
vt 0.211404 0.796280
vt 0.229448 0.788806
vt 0.270552 0.935891
vt 0.288596 0.928416
vt 0.059270 0.731955
vt 0.089167 0.731955
vt 0.096642 0.750000
vt 0.051796 0.750000
vt 0.386631 0.950501
vt 0.368587 0.943027
vt 0.368587 0.898181
vt 0.386631 0.890707
vt 0.157270 0.818703
vt 0.175315 0.811229
vt 0.299166 0.902898
vt 0.288596 0.913468
vt 0.270552 0.905994
vt 0.291692 0.884853
vt 0.096642 0.980469
vt 0.089167 0.962424
vt 0.110308 0.941284
vt 0.128352 0.948758
vt 0.096642 0.641733
vt 0.089167 0.659777
vt 0.059270 0.659777
vt 0.051796 0.641733
vt 0.038130 0.680918
vt 0.020085 0.673443
vt 0.208308 0.767666
vt 0.200834 0.785710
vt 0.185885 0.785710
vt 0.178411 0.767666
vt 0.128352 0.718289
vt 0.110308 0.710815
vt 0.110308 0.680918
vt 0.128352 0.673443
vt 0.020085 0.903912
vt 0.038130 0.911387
vt 0.038130 0.941284
vt 0.020085 0.948758
vt 0.324685 0.928416
vt 0.342730 0.935891
vt 0.511719 0.863281
vt 0.511719 0.894531
vt 0.496094 0.894531
vt 0.496094 0.863281
vt 0.511719 0.828125
vt 0.511719 0.859375
vt 0.496094 0.859375
vt 0.496094 0.828125
vt 0.000000 0.773438
vt 0.000000 0.742188
vt 0.015625 0.742188
vt 0.015625 0.773438
vt 0.140625 0.910156
vt 0.140625 0.953125
vt 0.132812 0.953125
vt 0.132812 0.910156
vt 0.242188 0.968750
vt 0.242188 1.000000
vt 0.226562 1.000000
vt 0.226562 0.968750
vt 0.128352 0.903912
vt 0.110308 0.911387
vt 0.089167 0.890246
vt 0.096642 0.872202
vt 0.157270 0.788806
vt 0.175315 0.796280
vt 0.344350 0.848426
vt 0.336876 0.866470
vt 0.292030 0.866470
vt 0.284556 0.848426
vt 0.020085 0.718289
vt 0.038130 0.710815
vt 0.344350 0.992782
vt 0.336876 0.974738
vt 0.292030 0.974738
vt 0.260320 0.898181
vt 0.242275 0.890707
vt 0.125087 0.829407
vt 0.143132 0.821933
vt 0.174843 0.853644
vt 0.167368 0.871688
vt 0.143132 0.777087
vt 0.125087 0.769613
vt 0.174843 0.745377
vt 0.251399 0.777087
vt 0.219689 0.745377
vt 0.269444 0.769613
vt 0.321589 0.884853
vt 0.314115 0.902898
vt 0.219689 0.853644
vt 0.227163 0.871688
vt 0.312500 0.707031
vt 0.312500 0.675781
vt 0.328125 0.675781
vt 0.328125 0.707031
vt 0.218750 0.937500
vt 0.218750 0.894531
vt 0.226562 0.894531
vt 0.226562 0.937500
vt 0.234375 0.820312
vt 0.234375 0.777344
vt 0.242188 0.777344
vt 0.242188 0.820312
vt 0.398438 0.820312
vt 0.398438 0.789062
vt 0.414062 0.789062
vt 0.414062 0.820312
vt 0.488281 0.523438
vt 0.488281 0.492188
vt 0.503906 0.492188
vt 0.503906 0.523438
vt 0.132812 0.714844
vt 0.132812 0.671875
vt 0.140625 0.671875
vt 0.140625 0.714844
vt 0.171875 0.449219
vt 0.171875 0.492188
vt 0.164062 0.492188
vt 0.164062 0.449219
vt 0.394531 0.984375
vt 0.394531 1.000000
vt 0.371094 1.000000
vt 0.371094 0.984375
vt 0.000000 1.000000
vt 0.000000 0.984375
vt 0.023438 0.984375
vt 0.023438 1.000000
vt 0.414062 0.480469
vt 0.414062 0.496094
vt 0.390625 0.496094
vt 0.390625 0.480469
vt 0.433594 0.769531
vt 0.433594 0.753906
vt 0.457031 0.753906
vt 0.457031 0.769531
vt 0.160156 0.984375
vt 0.160156 1.000000
vt 0.136719 1.000000
vt 0.136719 0.984375
vt 0.023438 0.839844
vt 0.023438 0.855469
vt 0.000000 0.855469
vt 0.000000 0.839844
vt 0.059270 0.962424
vt 0.051796 0.980469
vt 0.269444 0.829407
vt 0.251399 0.821933
vt 0.342730 0.905994
vt 0.324685 0.913468
vt 0.257812 0.558594
vt 0.257812 0.601562
vt 0.250000 0.601562
vt 0.250000 0.558594
vt 0.507812 0.968750
vt 0.507812 1.000000
vt 0.492188 1.000000
vt 0.492188 0.968750
vt 0.332031 0.597656
vt 0.332031 0.582031
vt 0.371094 0.582031
vt 0.371094 0.597656
vt 0.308594 0.464844
vt 0.308594 0.449219
vt 0.316406 0.449219
vt 0.316406 0.464844
vt 0.292969 0.449219
vt 0.292969 0.464844
vt 0.285156 0.464844
vt 0.285156 0.449219
vt 0.059270 0.890246
vt 0.051796 0.872202
vt 0.260320 0.943027
vt 0.007900 0.890707
vt 0.000682 0.887717
vt 0.187500 0.886719
vt 0.187500 0.902344
vt 0.164062 0.902344
vt 0.164062 0.886719
vt 0.058594 0.460938
vt 0.058594 0.445312
vt 0.066406 0.445312
vt 0.066406 0.460938
vt 0.117870 0.832397
vt 0.117870 0.766623
vt 0.050181 0.848426
vt 0.047191 0.841208
vt 0.276661 0.766623
vt 0.276661 0.832397
vt 0.109975 0.992782
vt 0.152256 0.950501
vt 0.159474 0.953491
vt 0.112965 1.000000
vt 0.468750 0.957031
vt 0.468750 1.000000
vt 0.460938 1.000000
vt 0.460938 0.957031
vt 0.507812 0.933594
vt 0.507812 0.964844
vt 0.492188 0.964844
vt 0.492188 0.933594
vt 0.496094 0.824219
vt 0.496094 0.792969
vt 0.511719 0.792969
vt 0.511719 0.824219
vt 0.218750 0.449219
vt 0.218750 0.492188
vt 0.210938 0.492188
vt 0.210938 0.449219
vt 0.222656 0.492188
vt 0.222656 0.449219
vt 0.230469 0.449219
vt 0.230469 0.492188
vt 0.175781 0.492188
vt 0.175781 0.449219
vt 0.183594 0.449219
vt 0.183594 0.492188
vt 0.148438 0.468750
vt 0.148438 0.500000
vt 0.132812 0.500000
vt 0.132812 0.468750
vt 0.515625 0.722656
vt 0.515625 0.753906
vt 0.500000 0.753906
vt 0.500000 0.722656
vt 0.507812 0.562500
vt 0.507812 0.519531
vt 0.515625 0.519531
vt 0.515625 0.562500
vt 0.468750 0.867188
vt 0.468750 0.824219
vt 0.476562 0.824219
vt 0.476562 0.867188
vt 0.195312 0.449219
vt 0.195312 0.492188
vt 0.187500 0.492188
vt 0.187500 0.449219
vt 0.417969 0.496094
vt 0.417969 0.480469
vt 0.441406 0.480469
vt 0.441406 0.496094
vt 0.496094 0.789062
vt 0.496094 0.757812
vt 0.511719 0.757812
vt 0.511719 0.789062
vt 0.500000 0.628906
vt 0.500000 0.597656
vt 0.515625 0.597656
vt 0.515625 0.628906
vt 0.160156 0.449219
vt 0.160156 0.492188
vt 0.152344 0.492188
vt 0.152344 0.449219
vt 0.453125 0.449219
vt 0.453125 0.492188
vt 0.445312 0.492188
vt 0.445312 0.449219
vt 0.507812 0.898438
vt 0.507812 0.929688
vt 0.492188 0.929688
vt 0.492188 0.898438
vt 0.238281 0.500000
vt 0.238281 0.468750
vt 0.253906 0.468750
vt 0.253906 0.500000
vt 0.199219 0.492188
vt 0.199219 0.449219
vt 0.207031 0.449219
vt 0.207031 0.492188
vt 0.048362 0.867188
vt 0.058932 0.855469
vt 0.073881 0.855469
vt 0.084451 0.867188
vt 0.056174 0.910156
vt 0.066745 0.898438
vt 0.081693 0.898438
vt 0.092263 0.910156
vt 0.000000 0.777344
vt 0.058594 0.777344
vt 0.058594 0.835938
vt 0.000000 0.835938
vt 0.457031 0.941406
vt 0.398438 0.941406
vt 0.398438 0.878906
vt 0.457031 0.878906
vt 0.402344 0.687500
vt 0.460938 0.687500
vt 0.460938 0.750000
vt 0.402344 0.750000
vt 0.222656 1.000000
vt 0.164062 1.000000
vt 0.164062 0.941406
vt 0.222656 0.941406
vt 0.328125 0.597656
vt 0.269531 0.597656
vt 0.269531 0.535156
vt 0.328125 0.535156
vt 0.457031 1.000000
vt 0.398438 1.000000
vt 0.390625 0.500000
vt 0.449219 0.500000
vt 0.449219 0.562500
vt 0.390625 0.562500
vt 0.378906 0.621094
vt 0.378906 0.562500
vt 0.437500 0.562500
vt 0.437500 0.621094
vt 0.390625 0.558594
vt 0.332031 0.558594
vt 0.058594 0.605469
vt 0.000000 0.605469
vt 0.000000 0.546875
vt 0.058594 0.546875
vt 0.500000 0.625000
vt 0.441406 0.625000
vt 0.441406 0.562500
vt 0.500000 0.562500
vt 0.402344 0.625000
vt 0.460938 0.625000
vt 0.339844 0.835938
vt 0.281250 0.835938
vt 0.281250 0.777344
vt 0.339844 0.777344
vt 0.164062 0.578125
vt 0.222656 0.578125
vt 0.222656 0.636719
vt 0.164062 0.636719
vt 0.348257 0.610145
vt 0.288462 0.610145
vt 0.285473 0.602927
vt 0.351246 0.602927
vt 0.246181 0.652425
vt 0.246181 0.712220
vt 0.238964 0.715209
vt 0.238964 0.649436
vt 0.288462 0.754501
vt 0.348257 0.754501
vt 0.351246 0.761719
vt 0.285473 0.761719
vt 0.347340 0.841208
vt 0.393849 0.887717
vt 0.393849 0.953491
vt 0.347340 1.000000
vt 0.390538 0.652425
vt 0.397755 0.649436
vt 0.460938 0.738281
vt 0.460938 0.671875
vt 0.476562 0.671875
vt 0.476562 0.738281
vt 0.113281 0.835938
vt 0.097656 0.835938
vt 0.097656 0.769531
vt 0.113281 0.769531
vt 0.312500 0.535156
vt 0.312500 0.468750
vt 0.328125 0.468750
vt 0.078125 0.464844
vt 0.093750 0.464844
vt 0.093750 0.531250
vt 0.078125 0.531250
vt 0.113281 0.605469
vt 0.097656 0.605469
vt 0.097656 0.539062
vt 0.113281 0.539062
vt 0.449219 0.496094
vt 0.464844 0.496094
vt 0.464844 0.562500
vt 0.015625 0.542969
vt 0.000000 0.542969
vt 0.000000 0.476562
vt 0.015625 0.476562
vt 0.273438 0.468750
vt 0.289062 0.468750
vt 0.289062 0.535156
vt 0.273438 0.535156
vt 0.235057 0.887717
vt 0.390538 0.712220
vt 0.397755 0.715209
vt 0.281566 0.841208
vt 0.035156 0.542969
vt 0.019531 0.542969
vt 0.019531 0.476562
vt 0.035156 0.476562
vt 0.074219 0.531250
vt 0.058594 0.531250
vt 0.058594 0.464844
vt 0.074219 0.464844
vt 0.468750 0.496094
vt 0.484375 0.496094
vt 0.484375 0.562500
vt 0.468750 0.562500
vt 0.054688 0.542969
vt 0.039062 0.542969
vt 0.039062 0.476562
vt 0.054688 0.476562
vt 0.457031 0.871094
vt 0.472656 0.871094
vt 0.472656 0.937500
vt 0.457031 0.937500
vt 0.476562 0.808594
vt 0.460938 0.808594
vt 0.460938 0.742188
vt 0.476562 0.742188
vt 0.292969 0.468750
vt 0.308594 0.468750
vt 0.308594 0.535156
vt 0.292969 0.535156
vt 0.097656 0.535156
vt 0.097656 0.468750
vt 0.113281 0.468750
vt 0.113281 0.535156
vt 0.230152 0.878906
vt 0.164379 0.878906
vt 0.152256 0.890707
vt 0.109975 0.848426
vt 0.112965 0.841208
vt 0.159474 0.887717
vt 0.003994 0.656034
vt 0.003994 0.715829
vt 0.000385 0.717323
vt 0.000385 0.654539
vt 0.148350 0.656034
vt 0.106069 0.613753
vt 0.107564 0.610145
vt 0.151959 0.654539
vt 0.265538 0.602547
vt 0.265538 0.542753
vt 0.269146 0.541258
vt 0.269146 0.604042
vt 0.163462 0.500472
vt 0.121181 0.542753
vt 0.117572 0.541258
vt 0.161967 0.496863
vt 0.046275 0.758110
vt 0.106069 0.758110
vt 0.107564 0.761719
vt 0.044780 0.761719
vt 0.148350 0.715829
vt 0.151959 0.717324
vt 0.163462 0.644828
vt 0.223257 0.644828
vt 0.224752 0.648438
vt 0.161967 0.648438
vt 0.214844 0.714844
vt 0.156250 0.714844
vt 0.156250 0.656250
vt 0.214844 0.656250
vt 0.152344 0.511719
vt 0.210938 0.511719
vt 0.210938 0.574219
vt 0.152344 0.574219
vt 0.046275 0.613753
vt 0.044780 0.610145
vt 0.128906 0.519531
vt 0.117188 0.519531
vt 0.117188 0.457031
vt 0.128906 0.457031
vt 0.480469 0.867188
vt 0.480469 0.804688
vt 0.492188 0.804688
vt 0.492188 0.867188
vt 0.257812 0.457031
vt 0.269531 0.457031
vt 0.269531 0.519531
vt 0.257812 0.519531
vt 0.078125 0.726562
vt 0.066406 0.726562
vt 0.066406 0.664062
vt 0.078125 0.664062
vt 0.218750 0.652344
vt 0.230469 0.652344
vt 0.230469 0.714844
vt 0.218750 0.714844
vt 0.488281 1.000000
vt 0.476562 1.000000
vt 0.476562 0.937500
vt 0.488281 0.937500
vt 0.480469 0.738281
vt 0.492188 0.738281
vt 0.492188 0.800781
vt 0.480469 0.800781
vt 0.488281 0.933594
vt 0.476562 0.933594
vt 0.476562 0.871094
vt 0.488281 0.871094
vt 0.223257 0.500472
vt 0.224752 0.496863
vt 0.121181 0.602548
vt 0.117572 0.604043
s 0
usemtl m_a5736c04-ae9e-ecd1-e2f5-2454776d30ef
f 270/606/20 271/607/20 272/608/20 273/609/20
f 274/610/21 275/611/21 276/612/21 277/613/21
f 275/614/22 270/615/22 273/616/22 276/617/22
f 278/618/23 279/619/23 271/620/23 270/621/23
f 280/622/24 281/623/24 275/624/24 274/625/24
f 281/626/22 278/627/22 270/615/22 275/614/22
f 282/628/25 283/629/25 279/630/25 278/631/25
f 284/632/26 285/633/26 281/634/26 280/635/26
f 285/636/22 282/637/22 278/627/22 281/626/22
f 286/638/27 287/639/27 283/640/27 282/641/27
f 288/642/28 289/643/28 285/644/28 284/645/28
f 289/646/22 286/647/22 282/637/22 285/636/22
f 290/648/21 291/649/21 287/650/21 286/651/21
f 292/652/20 293/653/20 289/654/20 288/655/20
f 293/656/22 290/657/22 286/658/22 289/659/22
f 294/660/24 295/661/24 291/662/24 290/663/24
f 296/664/23 297/665/23 293/666/23 292/667/23
f 297/668/22 294/669/22 290/657/22 293/670/22
f 298/671/26 299/672/26 295/673/26 294/674/26
f 300/675/25 301/676/25 297/677/25 296/678/25
f 301/679/22 298/680/22 294/669/22 297/681/22
f 273/682/28 272/683/28 299/684/28 298/685/28
f 277/686/27 276/687/27 301/688/27 300/689/27
f 276/690/22 273/616/22 298/680/22 301/691/22
f 302/692/29 303/693/29 304/694/29 305/695/29
f 306/696/29 307/697/29 303/693/29 302/692/29
f 308/698/29 309/699/29 307/697/29 306/696/29
f 310/700/29 311/701/29 309/702/29 308/698/29
f 312/703/29 313/704/29 311/705/29 310/706/29
f 314/707/29 315/708/29 313/704/29 312/703/29
f 316/709/29 317/710/29 315/708/29 314/711/29
f 305/695/29 304/694/29 317/710/29 316/709/29
f 318/712/22 319/713/22 320/714/22 321/715/22
f 322/716/22 323/717/22 324/718/22 325/719/22
f 326/720/22 327/721/22 328/722/22 329/723/22
f 330/724/29 331/725/29 332/726/29 333/727/29
f 334/728/29 335/729/29 336/730/29 337/731/29
f 338/732/29 339/733/29 340/734/29 341/735/29
f 342/736/28 343/737/28 344/738/28 345/739/28
f 346/740/27 347/741/27 348/742/27 349/743/27
f 344/744/22 343/745/22 348/746/22 347/747/22
f 342/748/29 345/749/29 346/750/29 349/751/29
f 345/752/30 344/753/30 347/754/30 346/755/30
f 349/756/31 348/757/31 343/758/31 342/759/31
f 350/760/28 351/761/28 352/762/28 353/763/28
f 354/764/27 355/765/27 356/766/27 357/767/27
f 352/768/22 351/769/22 356/770/22 355/771/22
f 350/772/29 353/773/29 354/774/29 357/775/29
f 353/776/30 352/777/30 355/778/30 354/779/30
f 357/780/31 356/781/31 351/782/31 350/783/31
f 358/784/23 359/785/23 360/786/23 361/787/23
f 362/788/24 363/789/24 364/790/24 365/791/24
f 360/792/22 359/793/22 364/794/22 363/795/22
f 358/796/29 361/797/29 362/798/29 365/799/29
f 361/800/32 360/801/32 363/802/32 362/803/32
f 365/804/33 364/805/33 359/806/33 358/807/33
f 366/808/23 367/809/23 368/810/23 369/811/23
f 370/812/24 371/813/24 372/814/24 373/815/24
f 368/816/22 367/817/22 372/818/22 371/819/22
f 366/820/29 369/821/29 370/822/29 373/823/29
f 369/824/32 368/825/32 371/826/32 370/827/32
f 373/828/33 372/829/33 367/830/33 366/831/33
f 374/832/24 375/833/24 376/834/24 377/835/24
f 378/836/23 379/837/23 380/838/23 381/839/23
f 378/840/22 375/841/22 374/842/22 379/843/22
f 380/844/29 377/845/29 376/846/29 381/847/29
f 379/848/34 374/849/34 377/850/34 380/851/34
f 375/852/35 378/853/35 381/854/35 376/855/35
f 382/856/24 383/857/24 384/858/24 385/859/24
f 386/860/23 387/861/23 388/862/23 389/863/23
f 386/864/22 383/865/22 382/866/22 387/867/22
f 388/868/29 385/869/29 384/870/29 389/871/29
f 387/872/34 382/873/34 385/874/34 388/875/34
f 383/876/35 386/877/35 389/878/35 384/879/35
f 390/880/27 391/881/27 392/882/27 393/883/27
f 394/884/28 395/885/28 396/886/28 397/887/28
f 394/888/22 391/889/22 390/890/22 395/891/22
f 396/892/29 393/893/29 392/894/29 397/895/29
f 395/896/36 390/897/36 393/898/36 396/899/36
f 391/900/37 394/901/37 397/902/37 392/903/37
f 398/904/27 399/905/27 400/906/27 401/907/27
f 402/908/28 403/909/28 404/910/28 405/911/28
f 402/912/22 399/913/22 398/914/22 403/915/22
f 404/916/29 401/917/29 400/918/29 405/919/29
f 403/920/36 398/921/36 401/922/36 404/923/36
f 399/924/37 402/925/37 405/926/37 400/927/37
f 406/928/21 407/929/21 408/930/21 409/931/21
f 410/932/20 411/933/20 412/934/20 413/935/20
f 410/936/22 407/937/22 406/938/22 411/939/22
f 412/940/29 409/941/29 408/942/29 413/943/29
f 411/944/38 406/945/38 409/946/38 412/947/38
f 407/948/39 410/949/39 413/950/39 408/951/39
f 414/952/21 415/953/21 416/954/21 417/955/21
f 418/956/20 419/957/20 420/958/20 421/959/20
f 418/960/22 415/961/22 414/962/22 419/963/22
f 420/964/29 417/965/29 416/966/29 421/967/29
f 419/968/38 414/969/38 417/970/38 420/971/38
f 415/972/39 418/973/39 421/974/39 416/975/39
f 422/976/26 423/977/26 424/978/26 425/979/26
f 426/980/25 427/981/25 428/982/25 429/983/25
f 424/984/22 423/985/22 428/986/22 427/987/22
f 422/988/29 425/989/29 426/990/29 429/991/29
f 425/992/40 424/993/40 427/994/40 426/995/40
f 429/996/41 428/997/41 423/998/41 422/999/41
f 430/1000/26 431/1001/26 432/1002/26 433/1003/26
f 434/1004/25 435/1005/25 436/1006/25 437/1007/25
f 432/1008/22 431/1009/22 436/1010/22 435/1011/22
f 430/1012/29 433/1013/29 434/1014/29 437/1015/29
f 433/1016/40 432/1017/40 435/1018/40 434/1019/40
f 437/1020/41 436/1021/41 431/1022/41 430/1023/41
f 438/1024/20 439/1025/20 440/1026/20 441/1027/20
f 442/1028/21 443/1029/21 444/1030/21 445/1031/21
f 442/1032/22 439/1033/22 438/1034/22 443/1035/22
f 444/1036/29 441/1037/29 440/1038/29 445/1039/29
f 443/1040/42 438/1041/42 441/1042/42 444/1043/42
f 439/1044/43 442/1045/43 445/1046/43 440/1047/43
f 446/1048/20 447/1049/20 448/1050/20 449/1051/20
f 450/1052/21 451/1053/21 452/1054/21 453/1055/21
f 450/1056/22 447/1057/22 446/1058/22 451/1059/22
f 452/1060/29 449/1061/29 448/1062/29 453/1063/29
f 451/1064/42 446/1065/42 449/1066/42 452/1067/42
f 447/1068/43 450/1069/43 453/1070/43 448/1071/43
f 454/1072/25 455/1073/25 456/1074/25 457/1075/25
f 458/1076/26 459/1077/26 460/1078/26 461/1079/26
f 456/1080/22 455/1081/22 460/1082/22 459/1083/22
f 454/1084/29 457/1085/29 458/1086/29 461/1087/29
f 457/1088/44 456/1089/44 459/1090/44 458/1091/44
f 461/1092/45 460/1093/45 455/1094/45 454/1095/45
f 462/1096/25 463/1097/25 464/1098/25 465/1099/25
f 466/1100/26 467/1101/26 468/1102/26 469/1103/26
f 464/1104/22 463/1105/22 468/1106/22 467/1107/22
f 462/1108/29 465/1109/29 466/1110/29 469/1111/29
f 465/1112/44 464/1113/44 467/1114/44 466/1115/44
f 469/1116/45 468/1117/45 463/1118/45 462/1119/45
f 470/1120/29 471/1121/29 472/1122/29 473/1123/29
f 474/1124/22 475/1125/22 476/1126/22 477/1127/22
f 478/1128/24 479/1129/24 480/1130/24 481/1131/24
f 476/1132/23 475/1133/23 472/1134/23 471/1135/23
f 478/1136/22 482/1137/22 483/1138/22 479/1139/22
f 482/1137/22 474/1124/22 477/1127/22 483/1138/22
f 484/1140/22 485/1141/22 474/1124/22 482/1137/22
f 480/1142/29 486/1143/29 487/1144/29 481/1145/29
f 486/1143/29 470/1120/29 473/1123/29 487/1144/29
f 488/1146/29 489/1147/29 470/1120/29 486/1143/29
f 485/1148/27 484/1149/27 490/1150/27 491/1151/27
f 492/1152/28 493/1153/28 489/1154/28 488/1155/28
f 487/1144/29 473/1123/29 491/1156/29 490/1157/29
f 485/1158/25 491/1159/25 472/1160/25 475/1161/25
f 483/1138/22 477/1127/22 493/1162/22 492/1163/22
f 490/1164/21 484/1165/21 478/1166/21 481/1167/21
f 492/1168/26 488/1169/26 480/1170/26 479/1171/26
f 489/1172/20 493/1173/20 476/1174/20 471/1175/20
f 491/1156/29 473/1123/29 472/1122/29
f 470/1120/29 489/1147/29 471/1121/29
f 486/1143/29 480/1142/29 488/1146/29
f 481/1145/29 487/1144/29 490/1157/29
f 476/1126/22 493/1162/22 477/1127/22
f 485/1141/22 475/1125/22 474/1124/22
f 482/1137/22 478/1136/22 484/1140/22
f 479/1139/22 483/1138/22 492/1163/22
f 494/1176/29 495/1177/29 496/1178/29 497/1179/29
f 498/1180/21 499/1181/21 500/1182/21 501/1183/21
f 502/1184/22 503/1185/22 504/1186/22 505/1187/22
f 506/1188/24 507/1189/24 508/1190/24 509/1191/24
f 510/1192/29 511/1193/29 512/1194/29 513/1195/29
f 514/1196/22 515/1197/22 516/1198/22 517/1199/22
f 518/1200/28 519/1201/28 520/1202/28 521/1203/28
f 507/1204/26 518/1205/26 521/1206/26 508/1207/26
f 522/1208/27 523/1209/27 524/1210/27 525/1211/27
f 519/1212/20 526/1213/20 527/1214/20 520/1215/20
f 528/1216/20 529/1217/20 530/1218/20 495/1219/20
f 499/1220/27 531/1221/27 532/1222/27 500/1223/27
f 533/1224/26 534/1225/26 535/1226/26 536/1227/26
f 537/1228/23 528/1229/23 495/1230/23 494/1231/23
f 531/1232/25 537/1233/25 494/1234/25 532/1235/25
f 534/1236/24 498/1237/24 501/1238/24 535/1239/24
f 538/1240/22 539/1241/22 540/1242/22 541/1243/22
f 542/1244/22 538/1240/22 541/1243/22 543/1245/22
f 540/1242/22 539/1241/22 544/1246/22 545/1247/22
f 546/1248/29 532/1249/29 494/1176/29 497/1179/29
f 547/1250/22 548/1251/22 549/1252/22 550/1253/22
f 551/1254/22 552/1255/22 553/1256/22 554/1257/22
f 555/1258/22 556/1259/22 542/1244/22 543/1245/22
f 501/1260/29 500/1261/29 557/1262/29 558/1263/29
f 559/1264/29 560/1265/29 561/1266/29 562/1267/29
f 563/1268/22 564/1269/22 565/1270/22 566/1271/22
f 565/1270/22 567/1272/22 568/1273/22 566/1271/22
f 569/1274/22 570/1275/22 571/1276/22 572/1277/22
f 573/1278/22 574/1279/22 575/1280/22 576/1281/22
f 577/1282/29 578/1283/29 579/1284/29 580/1285/29
f 495/1177/29 530/1286/29 581/1287/29 496/1178/29
f 582/1288/26 583/1289/26 584/1290/26 585/1291/26
f 561/1292/20 560/1293/20 496/1294/20 581/1295/20
f 579/1296/27 578/1297/27 557/1298/27 546/1299/27
f 586/1300/23 587/1301/23 588/1302/23 589/1303/23
f 590/1304/24 582/1305/24 585/1306/24 558/1307/24
f 591/1308/29 583/1309/29 582/1310/29 586/1311/29
f 592/1312/22 593/1313/22 556/1259/22 555/1258/22
f 571/1276/22 593/1313/22 592/1312/22 572/1277/22
f 594/1314/22 595/1315/22 596/1316/22 597/1317/22
f 562/1267/29 561/1266/29 583/1309/29 591/1308/29
f 598/1318/22 599/1319/22 547/1250/22 550/1253/22
f 600/1320/22 601/1321/22 552/1255/22 551/1254/22
f 601/1321/22 600/1320/22 515/1197/22 602/1322/22
f 597/1317/22 596/1316/22 603/1323/22 604/1324/22
f 554/1257/22 553/1256/22 595/1315/22 594/1314/22
f 605/1325/29 606/1326/29 607/1327/29 608/1328/29
f 609/1329/29 606/1326/29 605/1325/29 610/1330/29
f 511/1193/29 588/1331/29 609/1329/29 610/1330/29
f 611/1332/29 589/1333/29 510/1192/29 612/1334/29
f 585/1335/29 535/1336/29 501/1260/29 558/1263/29
f 510/1192/29 589/1333/29 588/1331/29 511/1193/29
f 613/1337/29 614/1338/29 608/1328/29 607/1327/29
f 548/1251/22 574/1279/22 573/1278/22 549/1252/22
f 599/1339/28 567/1340/28 592/1341/28 555/1342/28
f 563/1343/23 566/1344/23 596/1345/23 595/1346/23
f 550/1347/24 549/1348/24 601/1349/24 602/1350/24
f 565/1351/24 564/1352/24 569/1353/24 572/1354/24
f 548/1355/23 547/1356/23 543/1357/23 541/1358/23
f 573/1359/28 576/1360/28 553/1361/28 552/1362/28
f 598/1363/21 550/1364/21 602/1365/21 615/1366/21
f 616/1367/20 617/1368/20 542/1369/20 556/1370/20
f 618/1371/27 619/1372/27 544/1373/27 539/1374/27
f 620/1375/26 621/1376/26 593/1377/26 571/1378/26
f 622/1379/25 618/1380/25 539/1381/25 538/1382/25
f 617/1383/23 622/1384/23 538/1385/23 542/1386/23
f 623/1387/24 620/1388/24 571/1389/24 570/1390/24
f 624/1391/29 560/1265/29 559/1264/29 625/1392/29
f 575/1280/22 564/1269/22 563/1268/22 576/1281/22
f 626/1393/29 627/1394/29 611/1332/29 612/1334/29
f 580/1285/29 579/1284/29 624/1391/29 625/1392/29
f 545/1247/22 544/1246/22 570/1275/22 569/1274/22
f 557/1262/29 500/1261/29 532/1249/29 546/1248/29
f 584/1395/29 536/1396/29 535/1336/29 585/1335/29
f 577/1397/28 580/1398/28 606/1399/28 609/1400/28
f 583/1401/28 561/1402/28 581/1403/28 584/1404/28
f 529/1405/28 533/1406/28 536/1407/28 530/1408/28
f 628/1409/25 522/1410/25 525/1411/25 629/1412/25
f 526/1413/23 628/1414/23 629/1415/23 527/1416/23
f 568/1273/22 567/1272/22 599/1319/22 598/1318/22
f 586/1311/29 582/1310/29 590/1417/29 587/1418/29
f 514/1196/22 615/1419/22 602/1322/22 515/1197/22
f 614/1338/29 613/1337/29 627/1394/29 626/1393/29
f 587/1418/29 590/1417/29 578/1283/29 577/1282/29
f 630/1420/22 502/1184/22 505/1187/22 631/1421/22
f 621/1422/28 616/1423/28 556/1424/28 593/1425/28
f 523/1426/21 506/1427/21 509/1428/21 524/1429/21
f 610/1330/29 605/1325/29 632/1430/29 633/1431/29
f 634/1432/22 630/1420/22 631/1421/22 635/1433/22
f 626/1393/29 612/1334/29 636/1434/29 637/1435/29
f 604/1324/22 603/1323/22 615/1419/22 514/1196/22
f 638/1436/22 639/1437/22 640/1438/22 641/1439/22
f 581/1287/29 530/1286/29 536/1396/29 584/1395/29
f 568/1440/27 598/1441/27 615/1442/27 603/1443/27
f 575/1444/27 574/1445/27 540/1446/27 545/1447/27
f 547/1448/20 599/1449/20 555/1450/20 543/1451/20
f 566/1452/25 568/1453/25 603/1454/25 596/1455/25
f 576/1456/20 563/1457/20 595/1458/20 553/1459/20
f 549/1460/26 573/1461/26 552/1462/26 601/1463/26
f 564/1464/21 575/1465/21 545/1466/21 569/1467/21
f 574/1468/25 548/1469/25 541/1470/25 540/1471/25
f 591/1472/25 586/1473/25 589/1474/25 611/1475/25
f 562/1476/27 591/1477/27 611/1478/27 627/1479/27
f 580/1480/26 625/1481/26 607/1482/26 606/1483/26
f 619/1484/21 623/1485/21 570/1486/21 544/1487/21
f 567/1488/26 565/1489/26 572/1490/26 592/1491/26
f 624/1492/25 579/1493/25 546/1494/25 497/1495/25
f 625/1496/24 559/1497/24 613/1498/24 607/1499/24
f 587/1500/20 577/1501/20 609/1502/20 588/1503/20
f 560/1504/23 624/1505/23 497/1506/23 496/1507/23
f 578/1508/21 590/1509/21 558/1510/21 557/1511/21
f 559/1512/21 562/1513/21 627/1514/21 613/1515/21
f 509/1516/29 508/1517/29 521/1518/29 520/1519/29
f 621/1520/22 620/1521/22 623/1522/22 619/1523/22
f 642/1524/27 643/1525/27 644/1526/27 645/1527/27
f 646/1528/24 634/1529/24 647/1530/24 648/1531/24
f 649/1532/27 650/1533/27 639/1534/27 651/1535/27
f 652/1536/23 653/1537/23 654/1538/23 655/1539/23
f 656/1540/23 638/1541/23 503/1542/23 657/1543/23
f 645/1529/25 644/1528/25 653/1544/25 652/1545/25
f 651/1546/25 639/1547/25 638/1548/25 656/1549/25
f 654/1550/20 658/1551/20 659/1552/20 655/1553/20
f 660/1377/20 657/1554/20 503/1555/20 502/676/20
f 661/1556/26 662/1557/26 663/1558/26 664/1559/26
f 665/1560/26 630/1561/26 634/1562/26 646/1563/26
f 660/1533/28 502/1532/28 630/1564/28 665/1565/28
f 659/1566/28 658/1567/28 662/1568/28 661/1569/28
f 666/1570/21 667/1571/21 643/1572/21 642/1573/21
f 664/1574/29 666/1575/29 668/1576/29 669/1577/29
f 642/1578/29 645/1579/29 670/1580/29 671/1581/29
f 652/1582/29 655/1583/29 672/1584/29 673/1585/29
f 554/1257/22 594/1314/22 674/1586/22 675/1587/22
f 645/1579/29 652/1582/29 673/1585/29 670/1580/29
f 600/1320/22 551/1254/22 676/1588/22 677/1589/22
f 661/1590/29 664/1574/29 669/1577/29 678/1591/29
f 672/1592/20 679/1593/20 517/1594/20 516/1595/20
f 517/1596/28 679/1597/28 678/1598/28 680/1599/28
f 680/1543/26 678/1600/26 669/1601/26 681/1602/26
f 676/1603/25 670/1604/25 673/1605/25 677/1606/25
f 677/1607/23 673/1608/23 672/1609/23 516/1610/23
f 675/1611/27 671/1612/27 670/1613/27 676/1548/27
f 681/1614/24 669/1615/24 668/1616/24 674/1617/24
f 674/1618/21 668/1619/21 671/1620/21 675/1621/21
f 515/1197/22 600/1320/22 677/1589/22 516/1198/22
f 666/1575/29 642/1578/29 671/1581/29 668/1576/29
f 604/1324/22 514/1196/22 517/1199/22 680/1622/22
f 655/1583/29 659/1623/29 679/1624/29 672/1584/29
f 659/1623/29 661/1590/29 678/1591/29 679/1624/29
f 597/1317/22 604/1324/22 680/1622/22 681/1625/22
f 594/1314/22 597/1317/22 681/1625/22 674/1586/22
f 551/1254/22 554/1257/22 675/1587/22 676/1588/22
f 612/1334/29 510/1192/29 513/1195/29 636/1434/29
f 505/1626/28 637/1627/28 636/1628/28 631/1629/28
f 631/1630/26 636/1631/26 513/1632/26 635/1633/26
f 640/1634/25 632/1635/25 682/1636/25 641/1637/25
f 641/1638/23 682/1639/23 683/1640/23 504/1641/23
f 684/1642/27 633/1643/27 632/1644/27 640/1645/27
f 635/1646/24 513/1647/24 512/1648/24 685/1649/24
f 685/1650/21 512/1651/21 633/1652/21 684/1653/21
f 683/1654/20 637/1655/20 505/1656/20 504/1657/20
f 511/1193/29 610/1330/29 633/1431/29 512/1194/29
f 614/1338/29 626/1393/29 637/1435/29 683/1658/29
f 605/1325/29 608/1328/29 682/1659/29 632/1430/29
f 650/1660/22 647/1661/22 685/1662/22 684/1663/22
f 647/1661/22 634/1432/22 635/1433/22 685/1662/22
f 608/1328/29 614/1338/29 683/1658/29 682/1659/29
f 639/1437/22 650/1660/22 684/1663/22 640/1438/22
f 503/1185/22 638/1436/22 641/1439/22 504/1186/22
f 649/1664/29 651/1665/29 686/1666/29 687/1667/29
f 665/1668/29 646/1669/29 688/1670/29 689/1671/29
f 644/1672/22 643/1673/22 690/1674/22 691/1675/22
f 663/1676/22 662/1677/22 692/1678/22 693/1679/22
f 656/1680/29 657/1681/29 694/1682/29 695/1683/29
f 660/1684/29 665/1668/29 689/1671/29 696/1685/29
f 654/1686/22 653/1687/22 697/1688/22 698/1689/22
f 664/1690/24 663/1691/24 667/1692/24 666/1693/24
f 648/1694/21 647/1695/21 650/1696/21 649/1697/21
f 648/1698/29 649/1664/29 687/1667/29 699/1699/29
f 692/1700/26 689/1701/26 688/1702/26 693/1703/26
f 694/1704/20 696/1705/20 700/1706/20 698/1707/20
f 691/1708/25 686/1709/25 695/1710/25 697/1711/25
f 697/1712/23 695/1713/23 694/1714/23 698/1715/23
f 690/1716/27 687/1717/27 686/1718/27 691/1719/27
f 693/1720/24 688/1721/24 699/1722/24 701/1723/24
f 701/1724/21 699/1725/21 687/1726/21 690/1727/21
f 700/1728/28 696/1729/28 689/1730/28 692/1731/28
f 657/1681/29 660/1684/29 696/1685/29 694/1682/29
f 667/1732/22 663/1676/22 693/1679/22 701/1733/22
f 658/1734/22 654/1686/22 698/1689/22 700/1735/22
f 646/1669/29 648/1698/29 699/1699/29 688/1670/29
f 653/1687/22 644/1672/22 691/1675/22 697/1688/22
f 643/1673/22 667/1732/22 701/1733/22 690/1674/22
f 651/1665/29 656/1680/29 695/1683/29 686/1666/29
f 662/1677/22 658/1734/22 700/1735/22 692/1678/22
