# Blender 3.2.0
# www.blender.org
mtllib hydrojet_mirror.mtl
o Base_Cube.003
v 1.062500 1.999962 0.937494
v 1.062500 1.999962 0.062500
v 1.937500 1.999962 0.062500
v 1.937500 1.999962 0.937494
v 1.000000 -0.000000 1.999987
v 0.000000 -0.000000 1.999987
v 0.000000 -0.000000 3.000000
v 1.000000 -0.000000 3.000000
v 1.000000 1.999961 3.000000
v 1.000000 1.999962 1.999987
v 2.000000 1.999962 1.999987
v 2.000000 1.999961 3.000000
v 1.000000 0.000000 0.000000
v 0.000000 0.000000 0.000000
v 0.000000 -0.000000 0.999994
v 1.000000 -0.000000 0.999994
v 2.000000 0.500000 1.999987
v 2.000000 0.500000 3.000000
v 0.000000 0.500000 0.000000
v 0.000000 0.500000 0.999994
v 2.000000 -0.000000 0.999994
v 2.000000 0.000000 0.000000
v 0.000000 0.500000 3.000000
v 1.000000 0.500000 3.000000
v 0.000000 0.500000 1.999987
v 1.000000 0.500000 0.000000
v 2.000000 -0.000000 3.000000
v 2.000000 -0.000000 1.999987
v 1.000000 0.875000 3.000000
v 0.000000 0.875000 3.000000
v 0.000000 1.000000 3.000000
v 1.000000 1.000000 3.000000
v 0.000000 1.000000 1.999987
v 0.000000 0.875000 1.999987
v 0.000000 0.500000 1.874987
v 0.000000 0.875000 1.874987
v 0.000000 0.875000 2.062487
v 0.000000 0.500000 2.062487
v 0.000000 1.000000 0.999994
v 0.000000 0.875000 0.999994
v 0.000000 0.875000 0.000000
v 0.000000 0.875000 0.187500
v 0.000000 0.500000 0.187500
v 0.000000 0.500000 2.812500
v 0.000000 0.875000 2.812500
v 0.000000 0.500000 0.937494
v 0.000000 0.875000 0.937494
v 0.000000 1.000000 0.000000
v 0.187500 0.875000 3.000000
v 0.187500 0.500000 3.000000
v 1.000000 0.875000 0.000000
v 0.812500 0.875000 0.000000
v 0.812500 0.500000 0.000000
v 0.187500 0.500000 0.000000
v 0.187500 0.875000 0.000000
v 0.812500 0.875000 3.000000
v 0.812500 0.500000 3.000000
v 1.000000 1.000000 0.000000
v 0.812500 0.500000 0.062500
v 0.812500 0.875000 0.062500
v 0.187500 0.875000 0.062500
v 0.187500 0.500000 0.062500
v 0.062500 0.500000 2.062487
v 0.062500 0.875000 2.062487
v 0.062500 0.875000 2.812500
v 0.062500 0.500000 2.812500
v 0.187500 0.500000 2.937500
v 0.187500 0.875000 2.937500
v 0.812500 0.875000 2.937500
v 0.812500 0.500000 2.937500
v 0.062500 0.500000 0.187500
v 0.062500 0.875000 0.187500
v 0.062500 0.875000 0.937494
v 0.062500 0.500000 0.937494
v 0.000000 0.875000 1.124994
v 0.000000 0.500000 1.124994
v 2.000000 0.500000 0.999994
v 1.000000 0.500000 1.999987
v 1.000000 0.500000 0.999994
v 1.000000 0.937500 1.999987
v 1.000000 1.000000 1.999987
v 1.000000 1.000000 0.999994
v 1.000000 0.937500 0.999994
v 1.000000 0.812500 1.999987
v 1.125000 0.937500 1.999987
v 1.125000 0.812500 1.999987
v 1.000000 0.812500 0.999994
v 1.125000 0.937500 0.999994
v 1.125000 0.812500 0.999994
v 0.000000 -0.000000 1.874989
v 0.000000 -0.000000 1.124991
v 1.062500 0.500000 0.062500
v 1.937500 0.500000 0.062500
v 2.000000 0.500000 0.749995
v 1.937500 0.500000 0.999994
v 1.937500 0.500000 0.749995
v 1.937500 0.500000 0.937494
v 1.062500 0.500000 0.999994
v 1.062500 0.500000 0.937494
v 1.062500 0.500000 0.000000
v 1.937500 0.500000 0.000000
v 2.000000 0.500000 0.000000
v 2.000000 0.500000 0.249999
v 1.937500 0.500000 0.249999
v 2.000000 0.750000 0.249999
v 1.937500 0.750000 0.249999
v 2.000000 0.750000 0.624996
v 2.000000 0.750000 0.749995
v 1.937500 0.750000 0.749995
v 1.937500 0.750000 0.624996
v 2.000000 0.750000 0.374998
v 1.937500 0.750000 0.374998
v 1.937500 0.937500 0.624996
v 2.000000 0.937500 0.624996
v 2.000000 0.937500 0.374998
v 1.937500 0.937500 0.374998
vn -0.0000 1.0000 -0.0000
vn -0.0000 -1.0000 -0.0000
vn 1.0000 -0.0000 -0.0000
vn -1.0000 -0.0000 -0.0000
vn -0.0000 -0.0000 1.0000
vn -0.0000 -0.0000 -1.0000
vt 0.718750 0.625000
vt 0.718750 0.250000
vt 0.500000 0.250000
vt 0.718750 0.843750
vt 0.718750 0.625000
vt 0.500000 0.250000
vt 0.500000 0.843750
vt 0.500000 0.625000
vt 0.500000 0.625000
vt 0.718750 0.625000
vt 0.718750 0.250000
vt 0.250000 0.953125
vt 0.250000 0.734375
vt 0.250000 -0.000000
vt 0.250000 0.984375
vt 0.000000 0.984375
vt -0.000000 0.125000
vt -0.000000 -0.000000
vt 0.000000 0.734375
vt 0.250000 0.125000
vt 0.000000 0.953125
vt 0.500000 0.125000
vt 0.500000 0.375000
vt 0.250000 0.500000
vt 0.250000 0.375000
vt 0.000000 0.500000
vt 0.250000 0.125000
vt 0.953125 0.843750
vt 0.250000 0.500000
vt 0.500000 0.125000
vt 0.703125 0.843750
vt 0.000000 0.500000
vt 0.000000 0.734375
vt 0.000000 0.953125
vt 0.250000 0.000000
vt 0.515625 0.000000
vt 0.000000 0.984375
vt 0.750000 0.000000
vt 0.000000 0.000000
vt 0.250000 0.984375
vt 0.500000 0.000000
vt 0.500000 0.984375
vt 0.250000 0.734375
vt 0.250000 0.953125
vt 0.500000 0.953125
vt 0.500000 0.734375
vt 0.953125 0.468750
vt 0.500000 0.125000
vt 0.015625 0.718750
vt 0.250000 0.125000
vt 0.703125 0.468750
vt 0.750000 0.125000
vt 0.750000 -0.000000
vt 0.000000 0.125000
vt 0.750000 0.125000
vt 0.000000 0.125000
vt 0.125000 0.546875
vt 0.140625 0.500000
vt 0.125000 0.500000
vt 0.125000 0.515625
vt 0.500000 0.125000
vt 0.250000 0.703125
vt 0.000000 0.000000
vt 0.500000 0.703125
vt 0.750000 -0.000029
vt 0.000000 0.703125
vt 0.765625 0.000000
vt 1.000000 -0.000029
vt -0.000000 -0.000000
vt -0.000000 0.125000
vt 0.125000 0.500000
vt 0.125000 0.546875
vt 0.250000 -0.000000
vt 0.125000 0.546875
vt 0.500000 -0.000000
vt 0.250000 0.125000
vt 0.156250 0.531250
vt 0.218750 0.531250
vt 0.250000 0.125000
vt 0.250000 0.125000
vt 0.125000 0.546875
vt 0.000000 0.671875
vt 0.515625 0.125000
vt 0.515625 0.921875
vt 0.000000 0.703125
vt 0.750000 0.000000
vt 0.750000 0.125000
vt 0.250000 0.000000
vt 0.500000 0.000000
vt 0.250000 0.703125
vt 0.234375 0.953125
vt 0.031250 0.546875
vt 0.031250 0.953125
vt 0.031250 0.984375
vt 0.031250 0.500000
vt 0.031250 0.546875
vt 0.031250 0.984375
vt 0.031250 0.953125
vt 0.281250 0.968750
vt 0.234375 0.984375
vt 0.281250 0.718750
vt 0.234375 0.953125
vt 0.484375 0.953125
vt 0.031250 0.968750
vt 0.296875 0.968750
vt 0.234375 0.984375
vt 0.031250 0.531250
vt 0.062500 0.531250
vt 0.484375 0.984375
vt 0.156250 0.500000
vt 0.281250 0.125000
vt 0.031250 0.500000
vt 0.718750 0.468750
vt 0.062500 0.546875
vt 0.250000 0.375000
vt 0.046875 0.953125
vt 0.218750 0.546875
vt 0.250000 0.453125
vt 0.437500 0.359375
vt 0.281250 0.953125
vt 0.515625 0.953125
vt 0.281250 0.968750
vt 0.031250 0.968750
vt 0.281250 0.984375
vt 0.031250 0.500000
vt 0.515625 0.984375
vt 0.031250 0.515625
vt 0.031250 0.546875
vt 0.031250 0.500000
vt 0.718750 0.984375
vt 0.031250 0.500000
vt 0.265625 0.375000
vt 0.031250 0.968750
vt 0.125000 0.500000
vt 0.265625 0.453125
vt 0.437500 0.375000
vt 0.125000 0.546875
vt 0.250000 0.453125
vt 0.250000 0.359375
vt 0.031250 0.546875
vt 0.046875 0.953125
vt 0.250000 0.375000
vt 0.125000 0.515625
vt 0.250000 0.453125
vt 0.250000 0.375000
vt 0.031250 0.515625
vt 0.218750 0.968750
vt 0.250000 0.375000
vt 0.718750 0.953125
vt 0.031250 0.968750
vt 0.031250 0.500000
vt 0.265625 0.453125
vt 0.031250 0.953125
vt 0.125000 0.500000
vt 0.265625 0.375000
vt 0.406250 0.359375
vt 0.031250 0.546875
vt 0.515625 0.984375
vt 0.031250 0.500000
vt 0.250000 0.453125
vt 0.187500 0.937500
vt 0.125000 0.500000
vt 0.250000 0.375000
vt 0.250000 0.359375
vt 0.140625 0.546875
vt 0.250000 0.375000
vt 0.406250 0.359375
vt 0.031250 0.546875
vt 0.187500 0.953125
vt 0.250000 0.453125
vt 0.031250 0.500000
vt 0.187500 0.953125
vt 0.265625 0.453125
vt 0.125000 0.500000
vt 0.265625 0.375000
vt 0.250000 0.359375
vt 0.515625 0.953125
vt 0.000000 0.546875
vt 0.031250 0.718750
vt 0.265625 0.375000
vt 0.250000 0.375000
vt 0.250000 0.468750
vt 0.265625 0.453125
vt 0.031250 0.937500
vt 0.421875 0.468750
vt 0.031250 0.953125
vt 0.265625 0.453125
vt 0.421875 0.375000
vt 0.265625 0.375000
vt 0.406250 0.375000
vt 0.250000 0.375000
vt 0.265625 0.453125
vt 0.437500 0.375000
vt 0.250000 0.468750
vt 0.265625 0.375000
vt 0.250000 0.953125
vt 0.437500 0.468750
vt 0.250000 0.953125
vt 0.265625 0.375000
vt 0.437500 0.375000
vt 0.265625 0.453125
vt 0.250000 0.375000
vt 0.250000 0.375000
vt 0.406250 0.375000
vt 0.250000 0.468750
vt 0.250000 0.453125
vt 0.031250 0.937500
vt 0.406250 0.468750
vt 0.187500 0.937500
vt 0.250000 0.453125
vt 0.406250 0.375000
vt 0.250000 0.375000
vt 0.437500 0.375000
vt 0.250000 0.453125
vt 0.437500 0.359375
vt 0.437500 0.468750
vt 0.250000 0.375000
vt 0.031250 0.937500
vt 0.250000 0.468750
vt 0.218750 0.937500
vt 0.265625 0.375000
vt 0.250000 0.375000
vt 0.265625 0.453125
vt 0.250000 0.359375
vt 0.031250 0.546875
vt 0.906250 0.468750
vt 0.125000 0.546875
vt 0.468750 0.125000
vt 0.000000 0.125000
vt 0.265625 0.718750
vt 0.578125 0.609375
vt 0.750000 0.124971
vt 0.015625 0.968750
vt 0.000000 0.125000
vt 0.250000 0.500000
vt 0.265625 0.968750
vt 0.000000 0.500000
vt 0.250000 0.671875
vt 0.765625 0.921875
vt 0.000000 0.484375
vt 0.015625 0.015625
vt 0.750000 0.937500
vt 0.250000 0.484375
vt 0.031250 0.718750
vt 0.296875 0.718750
vt 0.250000 0.500000
vt 0.250000 0.546875
vt 0.281250 0.718750
vt 0.031250 0.718750
vt 0.000000 0.500000
vt 0.500000 0.937500
vt 0.015625 0.015625
vt 0.015625 0.015625
vt 0.250000 0.421875
vt 0.750000 0.890625
vt 0.015625 0.015625
vt 0.750000 0.906250
vt 0.015625 0.015625
vt 0.750000 0.875000
vt 0.750000 0.921875
vt 0.000000 0.421875
vt 0.015625 0.015625
vt 0.500000 0.890625
vt 0.500000 0.906250
vt 0.015625 0.015625
vt 0.500000 0.875000
vt 0.015625 0.015625
vt 0.500000 0.921875
vt 0.718750 0.250000
vt 0.281250 -0.000000
vt 0.906250 0.250000
vt 0.468750 0.000000
vt 0.718750 0.250000
vt 0.500000 0.625000
vt 0.750000 0.921875
vt 0.500000 0.250000
vt 0.531250 0.921875
vt 0.515625 0.609375
vt 0.187500 0.578125
vt 0.937500 0.125000
vt 0.578125 0.625000
vt 0.750000 0.921875
vt 0.515625 0.625000
vt 0.250000 0.578125
vt 0.718750 0.250000
vt 0.750000 0.906250
vt 0.718750 0.625000
vt 0.531250 0.921875
vt 0.765625 0.906250
vt 0.531250 0.906250
vt 0.718750 0.625000
vt 0.500000 0.625000
vt 0.750000 0.937500
vt 0.515625 0.906250
vt 0.531250 0.937500
vt 0.703125 0.609375
vt 0.765625 0.125000
vt 0.703125 0.625000
vt 1.000029 0.125000
vt 0.640625 0.625000
vt 0.812500 0.125000
vt 0.640625 0.609375
vt 0.578125 0.625000
vt 0.812500 0.187500
vt 0.515625 0.296875
vt 0.578125 0.609375
vt 0.500000 0.296875
vt 0.671875 0.593750
vt 0.906250 0.187500
vt 0.703125 0.593750
vt 0.187500 0.562500
vt 0.937500 0.187500
vt 0.703125 0.609375
vt 0.250000 0.562500
vt 0.671875 0.609375
vt 0.515625 0.328125
vt 0.843750 0.187500
vt 0.515625 0.593750
vt 0.500000 0.328125
vt 0.515625 0.609375
vt 0.625000 0.609375
vt 0.625000 0.593750
vt 0.906250 0.234375
vt 0.843750 0.234375
vt 0.562500 0.593750
vt 0.562500 0.609375
s 1
usemtl Material.001
f 1/1/1 4/9/1 3/7/1 2/4/1
f 5/13/2 8/19/2 7/16/2 6/15/2
f 9/23/1 12/30/1 11/27/1 10/25/1
f 13/33/2 16/43/2 15/40/2 14/37/2
f 17/47/3 11/28/3 12/31/3 18/51/3
f 14/38/4 15/41/4 20/61/4 19/55/4
f 13/34/2 22/66/2 21/62/2 16/44/2
f 7/17/5 8/20/5 24/73/5 23/69/5
f 6/14/4 7/18/4 23/70/4 25/79/4
f 13/35/6 14/39/6 19/56/6 26/80/6
f 5/12/2 28/90/2 27/85/2 8/21/2
f 29/91/5 32/100/5 31/97/5 30/93/5
f 33/102/4 34/106/4 30/94/4 31/98/4
f 25/77/4 34/107/4 36/112/4 35/110/4
f 25/78/4 38/117/4 37/114/4 34/108/4
f 39/120/4 40/124/4 34/109/4 33/103/4
f 19/57/4 43/134/4 42/131/4 41/128/4
f 23/71/4 30/95/4 45/140/4 44/137/4
f 20/59/4 40/125/4 47/146/4 46/143/4
f 39/121/4 48/149/4 41/130/4 40/126/4
f 23/72/5 50/154/5 49/151/5 30/96/5
f 26/81/6 53/162/6 52/159/6 51/157/6
f 19/58/6 41/129/6 55/168/6 54/165/6
f 56/171/5 57/174/5 24/74/5 29/92/5
f 48/149/6 58/177/6 51/158/6 41/130/6
f 59/181/6 62/188/6 61/185/6 60/182/6
f 52/160/4 53/163/4 59/180/4 60/183/4
f 55/169/2 52/161/2 60/184/2 61/186/2
f 54/166/3 55/170/3 61/187/3 62/189/3
f 53/164/1 54/167/1 62/190/1 59/181/1
f 63/191/4 66/200/4 65/197/4 64/194/4
f 37/115/5 38/118/5 63/192/5 64/195/5
f 45/141/2 37/116/2 64/196/2 65/198/2
f 44/138/6 45/142/6 65/199/6 66/201/6
f 38/119/1 44/139/1 66/202/1 63/193/1
f 67/203/5 70/211/5 69/208/5 68/205/5
f 49/152/3 50/155/3 67/203/3 68/206/3
f 56/172/2 49/153/2 68/207/2 69/209/2
f 57/175/4 56/173/4 69/210/4 70/212/4
f 50/156/1 57/176/1 70/212/1 67/204/1
f 71/213/4 74/222/4 73/219/4 72/216/4
f 42/132/5 43/135/5 71/214/5 72/217/5
f 47/147/2 42/133/2 72/218/2 73/220/2
f 46/144/6 47/148/6 73/221/6 74/223/6
f 43/136/1 46/145/1 74/224/1 71/215/1
f 20/60/4 76/227/4 75/225/4 40/127/4
f 28/88/3 21/63/3 77/229/3 17/50/3
f 27/86/3 28/89/3 17/48/3 18/52/3
f 77/230/1 79/236/1 78/233/1 17/49/1
f 16/45/2 21/64/2 28/90/2 5/12/2
f 78/234/6 10/26/6 11/29/6 17/50/6
f 8/22/5 27/87/5 18/53/5 24/75/5
f 18/54/5 12/32/5 9/24/5 24/76/5
f 24/76/4 9/24/4 10/26/4 78/234/4
f 80/240/3 83/250/3 82/246/3 81/243/3
f 84/253/5 86/258/5 85/256/5 80/241/5
f 78/235/3 79/237/3 87/261/3 84/254/3
f 86/259/3 89/266/3 88/264/3 85/257/3
f 80/242/1 85/257/1 88/264/1 83/251/1
f 83/252/6 88/265/6 89/267/6 87/262/6
f 87/263/2 89/268/2 86/260/2 84/255/2
f 90/269/4 36/113/4 75/226/4 91/271/4
f 6/14/4 25/79/4 35/111/4 90/270/4
f 15/41/4 91/272/4 76/228/4 20/61/4
f 16/46/2 5/13/2 6/15/2 15/42/2
f 92/273/6 2/5/6 3/8/6 93/276/6
f 94/278/1 96/283/1 95/281/1 77/231/1
f 93/276/3 3/8/3 4/10/3 97/285/3
f 98/288/1 95/282/1 97/286/1 99/290/1
f 99/291/4 1/2/4 2/6/4 92/274/4
f 93/277/1 101/295/1 100/293/1 92/275/1
f 82/247/3 79/238/3 26/82/3 58/178/3
f 97/287/5 4/11/5 1/3/5 99/292/5
f 13/36/6 26/83/6 102/297/6 22/67/6
f 102/298/1 101/296/1 104/302/1 103/300/1
f 104/302/6 106/306/6 105/303/6 103/300/6
f 107/308/1 110/315/1 109/313/1 108/310/1
f 94/279/5 108/311/5 109/314/5 96/284/5
f 105/304/3 108/312/3 94/280/3 103/301/3
f 105/305/1 106/307/1 112/319/1 111/316/1
f 107/308/5 114/322/5 113/321/5 110/315/5
f 115/325/1 116/326/1 113/321/1 114/322/1
f 111/317/3 115/324/3 114/323/3 107/309/3
f 112/320/6 116/326/6 115/325/6 111/318/6
f 26/84/1 79/239/1 98/289/1 100/294/1
f 22/68/3 102/299/3 77/232/3 21/65/3
f 31/99/1 32/101/1 81/244/1 33/104/1
f 39/122/1 82/248/1 58/179/1 48/150/1
f 39/123/1 33/105/1 81/245/1 82/249/1
l 79 95
l 77 98
l 110 112
l 100 102
l 32 58
l 101 26
l 31 48
l 96 104
o Conveyer_Cube.006
v 0.062500 1.062500 1.000000
v 0.937500 1.062500 1.000000
v 0.937500 1.062500 2.000000
v 0.062500 1.062500 2.000000
v 0.937500 1.062500 3.000000
v 0.062500 1.062500 3.000000
v 0.937500 1.000000 0.000000
v 0.937500 1.062500 0.000000
v 0.062500 1.062500 0.000000
v 0.062500 1.000000 0.000000
v 0.062500 1.125000 3.000000
v 0.062500 1.125000 2.000000
v 0.062500 1.000000 3.000000
v 0.937500 1.000000 3.000000
v 0.937500 1.125000 2.000000
v 1.000000 1.125000 2.000000
v 1.000000 1.125000 3.000000
v 0.937500 1.125000 3.000000
v 1.000000 1.000000 2.000000
v 1.000000 1.125000 1.000000
v 1.000000 1.000000 1.000000
v 0.000000 1.000000 1.000000
v 0.000000 1.125000 1.000000
v 0.000000 1.125000 2.000000
v 0.000000 1.000000 2.000000
v 0.937500 1.125000 1.000000
v 0.000000 1.125000 3.000000
v 0.000000 1.000000 3.000000
v 0.062500 1.125000 1.000000
v 0.062500 1.125000 0.000000
v 0.000000 1.125000 0.000000
v 0.000000 1.000000 0.000000
v 1.000000 1.000000 0.000000
v 1.000000 1.125000 0.000000
v 0.937500 1.125000 0.000000
v 1.000000 1.000000 3.000000
vn -0.0000 1.0000 -0.0000
vn -0.0000 -0.0000 -1.0000
vn -0.0000 -0.0000 1.0000
vn 1.0000 -0.0000 -0.0000
vn -1.0000 -0.0000 -0.0000
vt 0.000000 1.000000
vt 0.062500 0.000000
vt 0.000000 0.000000
vt 1.000000 0.000000
vt 1.000000 1.000000
vt 0.937500 1.000000
vt 0.062522 0.000025
vt 1.000000 1.000000
vt 1.000000 -0.000000
vt 0.937500 0.000000
vt 0.937500 1.000000
vt -0.000000 1.000000
vt -0.000000 -0.000000
vt 0.062522 0.000025
vt 0.062500 1.000000
vt 1.000000 1.000000
vt 1.000000 0.937500
vt 0.937500 0.000000
vt -0.000000 1.000000
vt 0.000000 0.937500
vt 0.062522 0.999975
vt 0.000000 0.937500
vt -0.000000 0.125000
vt 0.000000 1.000000
vt 1.000000 0.000000
vt 0.062522 0.999975
vt 1.000000 1.000000
vt 0.000000 0.000000
vt 0.000025 0.999975
vt 1.000000 0.937500
vt 0.937500 0.125000
vt 0.000025 0.999975
vt 0.062500 1.000000
vt 0.062500 0.000000
vt 0.000025 0.000025
vt 0.000000 1.000000
vt 0.062500 1.000000
vt 0.000000 1.000000
vt 1.000000 1.000000
vt 1.000000 0.875000
vt 1.000000 0.000000
vt 1.000000 1.000000
vt 0.062500 1.000000
vt 0.937500 1.000000
vt 0.937500 0.000000
vt 0.937500 1.000000
vt 0.937500 0.875000
vt 1.000000 0.000000
vt 0.062500 0.000000
vt -0.000000 1.000000
vt 0.937500 0.000000
vt 0.062500 0.000000
vt 0.000000 -0.000000
vt 0.000000 0.000000
vt 0.000000 -0.000000
vt 0.062500 0.000000
vt -0.000000 1.000000
vt 0.062500 1.000000
vt 0.062500 0.000000
vt 0.000000 1.000000
vt -0.000000 1.000000
vt -0.000000 0.000000
vt 1.000000 1.000000
vt 1.000000 0.000000
vt 0.000025 0.000025
vt 0.062500 1.000000
vt 0.062500 0.875000
vt -0.000000 0.000000
vt -0.000000 1.000000
vt -0.000000 0.875000
vt 0.000000 -0.000000
vt 0.062500 1.000000
vt 0.062500 -0.000000
vt 1.000000 0.125000
vt 0.062500 0.000000
vt 0.062522 0.999975
vt 1.000000 0.000000
vt 0.062500 1.000000
vt 0.000000 0.000000
vt 0.937500 0.000000
vt 0.000000 1.000000
vt 0.062500 0.125000
vt 0.000000 1.000000
vt 0.062500 0.000000
vt 0.937500 1.000000
vt 0.062500 1.000000
vt 0.000000 -0.000000
vt 1.000000 1.000000
vt 0.000025 0.999975
vt 1.000000 1.000000
s 1
usemtl Material.002
f 117/329/7 120/338/7 119/334/7 118/330/7
f 120/339/7 122/345/7 121/342/7 119/335/7
f 123/348/8 126/356/8 125/353/8 124/350/8
f 118/331/7 124/351/7 125/354/7 117/327/7
f 129/364/9 130/365/9 121/343/9 122/346/9
usemtl Material.003
f 127/358/10 122/347/10 120/340/10 128/361/10
f 131/368/7 134/374/7 133/371/7 132/370/7
f 135/375/10 137/379/10 136/376/10 132/369/10
f 138/380/11 141/387/11 140/384/11 139/382/11
f 142/390/7 131/368/7 132/370/7 136/377/7
f 141/388/11 144/395/11 143/392/11 140/385/11
f 118/332/11 119/336/11 131/367/11 142/389/11
f 139/381/7 140/386/7 128/363/7 145/399/7
f 120/341/10 117/328/10 145/397/10 128/362/10
f 126/357/8 148/406/8 147/403/8 146/400/8
f 123/349/8 151/413/8 150/410/8 149/408/8
f 139/382/11 147/404/11 148/407/11 138/380/11
f 136/377/7 150/411/7 151/414/7 142/390/7
f 145/398/7 146/401/7 147/405/7 139/383/7
f 127/359/9 143/393/9 144/396/9 129/364/9
f 134/373/9 130/366/9 152/416/9 133/372/9
f 140/386/7 143/394/7 127/360/7 128/363/7
f 131/368/11 119/337/11 121/344/11 134/374/11
f 142/391/11 151/415/11 124/352/11 118/333/11
f 117/329/10 125/355/10 146/402/10 145/399/10
f 136/378/10 137/379/10 149/409/10 150/412/10
