# Blender 5.1.1
# www.blender.org
mtllib foundry_mirrored.mtl
o plane_selection
v -0.999294 1.000000 2.000001
v 1.000705 1.000000 1.999296
v 1.000353 1.000000 0.999296
v 2.000705 1.000000 1.998943
v -0.999294 1.000000 2.000001
v 2.000705 0.000000 1.998943
v -0.999293 0.000000 2.000001
v 2.000000 1.000000 -0.001057
v -0.999999 1.000000 0.000001
v 2.000000 -0.000000 -0.001057
v -0.999999 0.000000 0.000001
v 2.000352 2.000000 0.998943
v 1.000353 2.000000 0.999296
v 2.000352 1.000000 0.998943
v 2.000000 2.000000 -0.001057
v 1.000001 2.000000 -0.000704
v 2.000000 1.000000 -0.001057
v 1.000001 1.000000 -0.000704
v 1.000353 2.000000 0.999296
v 0.000353 2.000000 0.999648
v 1.000353 1.000000 0.999296
v 0.000353 1.000000 0.999648
v 1.000001 2.000000 -0.000704
v 0.000001 2.000000 -0.000351
v 1.000001 1.000000 -0.000704
v 0.000001 1.000000 -0.000351
v 2.000705 2.000000 1.998943
v 1.000705 2.000000 1.999296
v 2.000705 1.000000 1.998943
v 1.000705 1.000000 1.999296
v 2.000352 2.000000 0.998943
v 1.000353 2.000000 0.999296
v 2.000352 1.000000 0.998943
v 1.000353 1.000000 0.999296
v 0.000353 2.000000 0.999648
v -0.999646 2.000000 1.000001
v 0.000353 1.000000 0.999648
v -0.999646 1.000000 1.000001
v 0.000001 2.000000 -0.000351
v -0.999999 2.000000 0.000001
v 0.000001 1.000000 -0.000351
v -0.999999 1.000000 0.000001
v 1.000353 3.000000 0.999296
v 0.000352 3.000000 0.999648
v 1.000353 2.000000 0.999296
v 0.000353 2.000000 0.999648
v 1.000001 3.000000 -0.000704
v 0.000001 3.000000 -0.000351
v 1.000001 2.000000 -0.000704
v 0.000001 2.000000 -0.000351
v 1.000705 3.000000 1.999296
v 0.000706 3.000000 1.999648
v 1.000705 2.000000 1.999296
v 0.000706 2.000000 1.999648
v 1.000353 3.000000 0.999296
v 0.000352 3.000000 0.999648
v 1.000353 2.000000 0.999296
v 0.000353 2.000000 0.999648
v 0.875661 2.000000 1.874340
v 0.125661 2.000000 1.874604
v 0.875661 1.812500 1.874340
v 0.125661 1.812500 1.874604
v 0.875398 2.000000 1.124340
v 0.125398 2.000000 1.124604
v 0.875398 1.812500 1.124340
v 0.125398 1.812500 1.124604
v 1.813228 1.875000 2.061509
v 1.188228 1.875000 2.061729
v 1.813228 1.125000 2.061509
v 1.188228 1.125000 2.061729
v 1.813206 1.875000 1.999009
v 1.188205 1.875000 1.999229
v 1.813206 1.125000 1.999009
v 1.188205 1.125000 1.999229
v 0.750265 3.062500 0.749384
v 0.250264 3.062500 0.749560
v 0.750265 3.000000 0.749384
v 0.250264 3.000000 0.749560
v 0.750089 3.062500 0.249384
v 0.250089 3.062500 0.249560
v 0.750089 3.000000 0.249384
v 0.250089 3.000000 0.249560
v 2.062765 1.750000 0.748921
v 2.000264 1.750000 0.748943
v 2.062765 1.250000 0.748921
v 2.000264 1.250000 0.748943
v 2.062588 1.750000 0.248921
v 2.000088 1.750000 0.248943
v 2.062588 1.250000 0.248921
v 2.000088 1.250000 0.248943
v 0.000706 1.000000 1.999648
v 0.000353 1.000000 0.999648
v -0.999646 1.000000 1.000001
vn -0.0000 -1.0000 -0.0000
vn -0.0004 -0.0000 -1.0000
vn 0.0004 -0.0000 1.0000
vn -0.0000 1.0000 -0.0000
vn -1.0000 -0.0000 0.0004
vn 1.0000 -0.0000 -0.0004
vt 0.000000 0.003906
vt 1.000000 0.003906
vt 1.000000 1.000000
vt 0.000000 1.000000
vt 0.000000 0.808594
vt 0.062500 0.808594
vt 0.062500 0.621094
vt 0.000000 0.621094
vt 0.253906 0.746094
vt 0.253906 0.808594
vt 0.066406 0.808594
vt 0.066406 0.746094
vt 0.253906 0.812500
vt 0.253906 1.000000
vt 0.128906 1.000000
vt 0.128906 0.812500
vt 0.382812 0.937500
vt 0.382812 1.000000
vt 0.257812 1.000000
vt 0.257812 0.937500
vt 0.191406 0.679688
vt 0.191406 0.742188
vt 0.066406 0.742188
vt 0.066406 0.679688
vt 0.320312 0.804688
vt 0.320312 0.867188
vt 0.257812 0.867188
vt 0.257812 0.804688
vt 0.265625 0.667969
vt 0.265625 0.605469
vt 0.328125 0.605469
vt 0.328125 0.667969
vt 0.394531 0.605469
vt 0.394531 0.667969
vt 0.332031 0.667969
vt 0.332031 0.605469
vt 0.195312 0.679688
vt 0.257812 0.679688
vt 0.257812 0.742188
vt 0.195312 0.742188
vt 0.324219 0.738281
vt 0.324219 0.800781
vt 0.261719 0.800781
vt 0.261719 0.738281
vt 0.000000 0.617188
vt 0.000000 0.554688
vt 0.062500 0.554688
vt 0.062500 0.617188
vt 0.261719 0.671875
vt 0.324219 0.671875
vt 0.324219 0.734375
vt 0.261719 0.734375
vt 0.066406 0.609375
vt 0.066406 0.546875
vt 0.128906 0.546875
vt 0.128906 0.609375
vt 0.453125 0.871094
vt 0.453125 0.933594
vt 0.390625 0.933594
vt 0.390625 0.871094
vt 0.261719 0.472656
vt 0.261719 0.535156
vt 0.199219 0.535156
vt 0.199219 0.472656
vt 0.324219 0.871094
vt 0.386719 0.871094
vt 0.386719 0.933594
vt 0.324219 0.933594
vt 0.195312 0.613281
vt 0.195312 0.675781
vt 0.132812 0.675781
vt 0.132812 0.613281
vt 0.132812 0.609375
vt 0.132812 0.546875
vt 0.195312 0.546875
vt 0.195312 0.609375
vt 0.457031 0.671875
vt 0.457031 0.734375
vt 0.394531 0.734375
vt 0.394531 0.671875
vt 0.324219 0.804688
vt 0.386719 0.804688
vt 0.386719 0.867188
vt 0.324219 0.867188
vt 0.390625 0.738281
vt 0.390625 0.800781
vt 0.328125 0.800781
vt 0.328125 0.738281
vt 0.199219 0.601562
vt 0.199219 0.539062
vt 0.261719 0.539062
vt 0.261719 0.601562
vt 0.328125 0.539062
vt 0.328125 0.601562
vt 0.265625 0.601562
vt 0.265625 0.539062
vt 0.394531 0.539062
vt 0.394531 0.601562
vt 0.332031 0.601562
vt 0.332031 0.539062
vt 0.460938 0.605469
vt 0.460938 0.667969
vt 0.398438 0.667969
vt 0.398438 0.605469
vt 0.261719 0.605469
vt 0.261719 0.667969
vt 0.199219 0.667969
vt 0.199219 0.605469
vt 0.496094 0.523438
vt 0.496094 0.511719
vt 0.542969 0.511719
vt 0.542969 0.523438
vt 0.265625 0.535156
vt 0.265625 0.488281
vt 0.312500 0.488281
vt 0.312500 0.535156
vt 0.363281 0.488281
vt 0.363281 0.535156
vt 0.316406 0.535156
vt 0.316406 0.488281
vt 0.464844 0.628906
vt 0.511719 0.628906
vt 0.511719 0.667969
vt 0.464844 0.667969
vt 0.496094 0.507812
vt 0.496094 0.468750
vt 0.500000 0.468750
vt 0.500000 0.507812
vt 0.503906 0.585938
vt 0.503906 0.625000
vt 0.500000 0.625000
vt 0.500000 0.585938
vt 0.484375 0.457031
vt 0.484375 0.503906
vt 0.480469 0.503906
vt 0.480469 0.457031
vt 0.492188 0.457031
vt 0.492188 0.503906
vt 0.488281 0.503906
vt 0.488281 0.457031
vt 0.410156 0.468750
vt 0.414062 0.468750
vt 0.414062 0.500000
vt 0.410156 0.500000
vt 0.230469 0.671875
vt 0.230469 0.675781
vt 0.199219 0.675781
vt 0.199219 0.671875
vt 0.464844 0.625000
vt 0.464844 0.593750
vt 0.496094 0.593750
vt 0.496094 0.625000
vt 0.441406 0.503906
vt 0.441406 0.535156
vt 0.410156 0.535156
vt 0.410156 0.503906
vt 0.531250 0.578125
vt 0.531250 0.582031
vt 0.500000 0.582031
vt 0.500000 0.578125
vt 0.531250 0.570312
vt 0.531250 0.574219
vt 0.500000 0.574219
vt 0.500000 0.570312
vt 0.417969 0.496094
vt 0.449219 0.496094
vt 0.449219 0.500000
vt 0.417969 0.500000
vt 0.457031 0.468750
vt 0.457031 0.500000
vt 0.453125 0.500000
vt 0.453125 0.468750
vt 0.500000 0.566406
vt 0.500000 0.562500
vt 0.531250 0.562500
vt 0.531250 0.566406
vt 0.535156 0.503906
vt 0.535156 0.507812
vt 0.503906 0.507812
vt 0.503906 0.503906
vt 0.496094 0.558594
vt 0.496094 0.589844
vt 0.464844 0.589844
vt 0.464844 0.558594
s 1
usemtl belt
f 91/1/1 92/2/1 3/3/1 2/4/1
f 1/1/1 93/2/1 92/3/1 91/4/1
usemtl base
f 7/5/2 5/6/2 4/7/2 6/8/2
f 10/9/3 8/10/3 9/11/3 11/12/3
f 7/13/4 6/14/4 10/15/4 11/16/4
f 6/17/5 4/18/5 8/19/5 10/20/5
f 11/21/6 9/22/6 5/23/6 7/24/6
f 17/25/3 15/26/3 16/27/3 18/28/3
f 12/29/1 13/30/1 16/31/1 15/32/1
f 14/33/5 12/34/5 15/35/5 17/36/5
f 22/37/2 20/38/2 19/39/2 21/40/2
f 25/41/3 23/42/3 24/43/3 26/44/3
f 19/45/1 20/46/1 24/47/1 23/48/1
f 30/49/2 28/50/2 27/51/2 29/52/2
f 27/53/1 28/54/1 32/55/1 31/56/1
f 29/57/5 27/58/5 31/59/5 33/60/5
f 34/61/6 32/62/6 28/63/6 30/64/6
f 38/65/2 36/66/2 35/67/2 37/68/2
f 41/69/3 39/70/3 40/71/3 42/72/3
f 35/73/1 36/74/1 40/75/1 39/76/1
f 42/77/6 40/78/6 36/79/6 38/80/6
f 46/81/2 44/82/2 43/83/2 45/84/2
f 49/85/3 47/86/3 48/87/3 50/88/3
f 43/89/1 44/90/1 48/91/1 47/92/1
f 46/93/4 45/94/4 49/95/4 50/96/4
f 45/97/5 43/98/5 47/99/5 49/100/5
f 50/101/6 48/102/6 44/103/6 46/104/6
f 54/104/2 52/101/2 51/102/2 53/103/2
f 57/105/3 55/106/3 56/107/3 58/108/3
f 51/103/1 52/104/1 56/101/1 55/102/1
f 54/101/4 53/102/4 57/103/4 58/104/4
f 53/101/5 51/102/5 55/103/5 57/104/5
f 58/101/6 56/102/6 52/103/6 54/104/6
f 62/109/2 60/110/2 59/111/2 61/112/2
f 65/111/3 63/112/3 64/109/3 66/110/3
f 59/113/1 60/114/1 64/115/1 63/116/1
f 62/117/4 61/118/4 65/119/4 66/120/4
f 61/111/5 59/112/5 63/109/5 65/110/5
f 66/111/6 64/112/6 60/109/6 62/110/6
f 70/121/2 68/122/2 67/123/2 69/124/2
f 67/125/1 68/126/1 72/127/1 71/128/1
f 70/129/4 69/130/4 73/131/4 74/132/4
f 69/133/5 67/134/5 71/135/5 73/136/5
f 74/137/6 72/138/6 68/139/6 70/140/6
f 78/141/2 76/142/2 75/143/2 77/144/2
f 81/145/3 79/146/3 80/147/3 82/148/3
f 75/149/1 76/150/1 80/151/1 79/152/1
f 78/153/4 77/154/4 81/155/4 82/156/4
f 77/157/5 75/158/5 79/159/5 81/160/5
f 82/161/6 80/162/6 76/163/6 78/164/6
f 86/165/2 84/166/2 83/167/2 85/168/2
f 89/169/3 87/170/3 88/171/3 90/172/3
f 83/173/1 84/174/1 88/175/1 87/176/1
f 86/177/4 85/178/4 89/179/4 90/180/4
f 85/181/5 83/182/5 87/183/5 89/184/5
