# Made in Blockbench 5.1.6
mtllib new_foundry.mtl

o molten_metal_bucket
v 1.59191 1.6875 0.0625
v 1.59191 2.1875 0.1875
v 2.03125 1.6875 -0.37684
v 2.03125 2.1875 -0.37684
v 2.03125 1.6875 -0.9981599999999999
v 2.03125 2.1875 -0.9981599999999999
v 1.59191 1.6875 -1.4375
v 1.59191 2.1875 -1.4375
v 0.97059 1.6875 -1.4375
v 0.97059 2.1875 -1.4375
v 0.53125 1.6875 -0.9981599999999999
v 0.53125 2.1875 -0.9981599999999999
v 0.53125 1.6875 -0.37684
v 0.53125 2.1875 -0.37684
v 0.97059 1.6875 0.0625
v 0.97059 2.1875 0.1875
v 1.96875 1.5625 -0.972271875
v 1.96875 1.5625 -0.402728125
v 0.996478125 1.5625 -1.375
v 1.5660218750000001 1.5625 -1.375
v 0.59375 1.5625 -0.972271875
v 0.59375 1.5625 -0.402728125
v 0.996478125 1.5625 0
v 1.5660218750000001 1.5625 0
v 1.96875 1.1875 -0.972271875
v 1.96875 1.1875 -0.402728125
v 0.996478125 1.1875 -1.375
v 1.5660218750000001 1.1875 -1.375
v 0.59375 1.1875 -0.972271875
v 0.59375 1.1875 -0.402728125
v 0.996478125 1.1875 0
v 1.5660218750000001 1.1875 0
v 1.796875 0.875 -0.90107875
v 1.796875 0.875 -0.47392125
v 1.28125 0.875 -0.6875
v 1.06767125 0.875 -1.203125
v 1.49482875 0.875 -1.203125
v 0.765625 0.875 -0.90107875
v 0.765625 0.875 -0.47392125
v 1.06767125 0.875 -0.171875
v 1.49482875 0.875 -0.171875
v 0.71875 2.1875 -0.454505
v 1.048255 2.1875 -0.0625
v 0.71875 2.1875 -0.9204950000000001
v 1.048255 2.1875 -1.25
v 1.84375 2.1875 -0.9204950000000001
v 1.514245 2.1875 -1.25
v 1.84375 2.1875 -0.454505
v 1.514245 2.1875 -0.0625
v 0.71875 1.3125 -0.454505
v 1.048255 1.3125 -0.125
v 1.28125 1.3125 -0.6875
v 0.71875 1.3125 -0.9204950000000001
v 1.048255 1.3125 -1.25
v 1.84375 1.3125 -0.9204950000000001
v 1.514245 1.3125 -1.25
v 1.84375 1.3125 -0.454505
v 1.514245 1.3125 -0.125
v 2.03125 1.8125 -0.53217
v 2.03125 1.8125 -0.84283
v 2.03125 2.0625 -0.84283
v 2.03125 2.0625 -0.53217
v 2.40625 1.8125 -0.53217
v 2.40625 1.8125 -0.84283
v 2.40625 2.0625 -0.84283
v 2.40625 2.0625 -0.53217
v 0.53125 1.8125 -0.84283
v 0.53125 1.8125 -0.53217
v 0.53125 2.0625 -0.53217
v 0.53125 2.0625 -0.84283
v 0.15625 1.8125 -0.84283
v 0.15625 1.8125 -0.53217
v 0.15625 2.0625 -0.53217
v 0.15625 2.0625 -0.84283
v 1.59191 1.9375 0.15625
v 0.97059 1.9375 0.15625
v 0.53125 1.9375 -0.37684
v 0.53125 1.9375 -0.53217
v 0.15625 1.9375 -0.53217
v 0.15625 1.9375 -0.84283
v 0.53125 1.9375 -0.84283
v 0.53125 1.9375 -0.9981599999999999
v 0.97059 1.9375 -1.4375
v 1.59191 1.9375 -1.4375
v 2.03125 1.9375 -0.9981599999999999
v 2.03125 1.9375 -0.84283
v 2.40625 1.9375 -0.84283
v 2.40625 1.9375 -0.53217
v 2.03125 1.9375 -0.53217
v 2.03125 1.9375 -0.37684
v 0.75092 1.9375 -0.14154500000000003
v 0.75092 2.1875 -0.12592000000000003
v 0.8835025 2.1875 -0.2585025
v 0.8835025 1.3125 -0.2897525
v 0.75092 1.6875 -0.15717000000000003
v 0.795114375 1.5625 -0.20136437500000004
v 0.795114375 1.1875 -0.20136437500000004
v 0.916648125 0.875 -0.322898125
v 1.81158 1.9375 -0.14154500000000003
v 1.81158 2.1875 -0.12592000000000003
v 1.6789975 2.1875 -0.2585025
v 1.6789975 1.3125 -0.2897525
v 1.81158 1.6875 -0.15717000000000003
v 1.767385625 1.5625 -0.20136437500000004
v 1.767385625 1.1875 -0.20136437500000004
v 1.645851875 0.875 -0.322898125
v 1.177696875 1.9375 0.15625
v 1.177696875 2.1875 0.1875
v 1.384803125 1.9375 0.15625
v 1.384803125 2.1875 0.1875
v 1.203585 2.1875 -0.0625
v 1.358915 2.1875 -0.0625
v 1.203585 1.3125 -0.125
v 1.358915 1.3125 -0.125
v 1.177696875 1.6875 0.0625
v 1.384803125 1.6875 0.0625
v 1.18632625 1.5625 0
v 1.37617375 1.5625 0
v 1.18632625 1.1875 0
v 1.37617375 1.1875 0
v 1.210056875 0.875 -0.171875
v 1.352443125 0.875 -0.171875
v 1.358915 1.96875125 -0.078125
v 1.203585 1.96875125 -0.078125
v 1.358915 1.750001875 -0.09375
v 1.203585 1.750001875 -0.09375
v 1.358915 1.531251875 -0.109375
v 1.203585 1.531251875 -0.109375
v 1.048255 1.96875125 -0.078125
v 1.048255 1.750001875 -0.09375
v 1.048255 1.531251875 -0.109375
v 0.8835025 1.96875125 -0.266315
v 0.8835025 1.750001875 -0.2741275
v 0.8835025 1.531251875 -0.28194
v 0.71875 1.96875125 -0.454505
v 0.71875 1.750001875 -0.454505
v 0.71875 1.531251875 -0.454505
v 0.71875 1.96875125 -0.9204950000000001
v 0.71875 1.750001875 -0.9204950000000001
v 0.71875 1.531251875 -0.9204950000000001
v 1.048255 1.96875125 -1.25
v 1.048255 1.750001875 -1.25
v 1.048255 1.531251875 -1.25
v 1.514245 1.96875125 -1.25
v 1.514245 1.750001875 -1.25
v 1.514245 1.531251875 -1.25
v 1.84375 1.96875125 -0.9204950000000001
v 1.84375 1.750001875 -0.9204950000000001
v 1.84375 1.531251875 -0.9204950000000001
v 1.84375 1.96875125 -0.454505
v 1.84375 1.750001875 -0.454505
v 1.84375 1.531251875 -0.454505
v 1.6789975 1.96875125 -0.266315
v 1.6789975 1.750001875 -0.2741275
v 1.6789975 1.531251875 -0.28194
v 1.514245 1.96875125 -0.078125
v 1.514245 1.750001875 -0.09375
v 1.514245 1.531251875 -0.109375
v 1.36914 2.16796875 0.18632812499999996
v 1.19336 2.16796875 0.18632812499999996
v 1.193229375 1.95625 0.15859374999999998
v 1.369270625 1.95625 0.15859374999999998
v 1.36904625 1.93269 0.28308749999999994
v 1.19049625 1.9326993749999999 0.28302874999999994
v 1.17496375 1.913949375 0.2806850000000001
v 1.38457875 1.91394 0.28074375000000007
v 1.18789875 2.14426 0.3105618750000001
v 1.172235625 2.16379125 0.3117337499999999
v 1.36869125 2.144225625 0.3107968750000001
v 1.384354375 2.163756875 0.3119687499999999
vt 0.4814453125 0.57861328125
vt 0.4928390625 0.59000703125
vt 0.4881197265625 0.5947265625
vt 0.501927578125 0.91599162109375
vt 0.49150595703125 0.91595751953125
vt 0.49189892578125 0.90813962890625
vt 0.501953125 0.90818580078125
vt 0.466796875 0.724609375
vt 0.4792265625 0.7121796874999999
vt 0.484375 0.7173283203125
vt 0.49755859375 0.5719388671875
vt 0.49755859375 0.5852876953125
vt 0.4814453125 0.57861328125
vt 0.0879193359375 0.7265625
vt 0.0879193359375 0.72265625
vt 0.0976275390625 0.72265625
vt 0.0976275390625 0.7265625
vt 0.484375 0.7173283203125
vt 0.484375 0.7318904296875
vt 0.466796875 0.724609375
vt 0.4881197265625 0.5625
vt 0.49755859375 0.5719388671875
vt 0.4814453125 0.57861328125
vt 0.482421875 0.515625
vt 0.482421875 0.5078125
vt 0.5018380859375 0.5078125
vt 0.5018380859375 0.515625
vt 0.484375 0.7318904296875
vt 0.4740779296875 0.7421875
vt 0.466796875 0.724609375
vt 0.4747708984375 0.5625
vt 0.4881197265625 0.5625
vt 0.4814453125 0.57861328125
vt 0.484432421875 0.841796875
vt 0.484432421875 0.833984375
vt 0.503848828125 0.833984375
vt 0.503848828125 0.841796875
vt 0.4740779296875 0.7421875
vt 0.4595158203125 0.7421875
vt 0.466796875 0.724609375
vt 0.46533203125 0.5719388671875
vt 0.4747708984375 0.5625
vt 0.4814453125 0.57861328125
vt 0.1192556640625 0.51171875
vt 0.1192556640625 0.50390625
vt 0.138671875 0.50390625
vt 0.138671875 0.51171875
vt 0.4595158203125 0.7421875
vt 0.44921875 0.7318904296875
vt 0.466796875 0.724609375
vt 0.46533203125 0.5852876953125
vt 0.46533203125 0.5719388671875
vt 0.4814453125 0.57861328125
vt 0.3125287109375 0.869140625
vt 0.3125287109375 0.865234375
vt 0.3222369140625 0.865234375
vt 0.3222369140625 0.869140625
vt 0.44921875 0.7318904296875
vt 0.44921875 0.7173283203125
vt 0.466796875 0.724609375
vt 0.4814453125 0.57861328125
vt 0.4700515625 0.59000703125
vt 0.46533203125 0.5852876953125
vt 0.49121818359375 0.99994052734375
vt 0.47925763671875 0.99994052734375
vt 0.47885783203125 0.99212294921875
vt 0.49041837890625 0.99211279296875
vt 0.466796875 0.724609375
vt 0.4543671875 0.7121796874999999
vt 0.4595158203125 0.70703125
vt 0.4814453125 0.57861328125
vt 0.4792205078125 0.5947265625
vt 0.4747708984375 0.5947265625
vt 0.433536328125 0.51953125
vt 0.4270642578125 0.51953125
vt 0.4270642578125 0.5116580078124999
vt 0.433536328125 0.5116580078124999
vt 0.466796875 0.724609375
vt 0.464369921875 0.70703125
vt 0.4740779296875 0.70703125
vt 0.4364134765625 0.49953886718749996
vt 0.4542115234375 0.49953886718749996
vt 0.455020703125 0.50390625
vt 0.435604296875 0.50390625
vt 0.4852416015625 0.8218046875
vt 0.5030396484375 0.8218046875
vt 0.503848828125 0.826171875
vt 0.484432421875 0.826171875
vt 0.483230859375 0.4956328125
vt 0.5010291015625 0.4956328125
vt 0.5018380859375 0.5
vt 0.482421875 0.5
vt 0.1200646484375 0.4917265625
vt 0.137862890625 0.4917265625
vt 0.138671875 0.49609375
vt 0.1192556640625 0.49609375
vt 0.4832884765625 0.5405544921875001
vt 0.5010865234375 0.5405544921875001
vt 0.501895703125 0.544921875
vt 0.482479296875 0.544921875
vt 0.48816580078125 0.98424248046875
vt 0.4784580078125 0.98430533203125
vt 0.4784297265625 0.979938046875
vt 0.4873285546875 0.9798804296875
vt 0.5018748828125 0.90038666015625
vt 0.49216708984375 0.90032197265625
vt 0.492196171875 0.8959546875
vt 0.501095 0.896013984375
vt 0.433536328125 0.5033142578125
vt 0.4270642578125 0.5033142578125
vt 0.42679453125 0.498946875
vt 0.4327271484375 0.498946875
vt 0.4364134765625 0.48782011718749996
vt 0.4542115234375 0.48782011718749996
vt 0.4542115234375 0.49953886718749996
vt 0.4364134765625 0.49953886718749996
vt 0.4852416015625 0.8100859375
vt 0.5030396484375 0.8100859375
vt 0.5030396484375 0.8218046875
vt 0.4852416015625 0.8218046875
vt 0.483230859375 0.4839140625
vt 0.5010291015625 0.4839140625
vt 0.5010291015625 0.4956328125
vt 0.483230859375 0.4956328125
vt 0.1200646484375 0.4800078125
vt 0.137862890625 0.4800078125
vt 0.137862890625 0.4917265625
vt 0.1200646484375 0.4917265625
vt 0.4832884765625 0.5288357421875001
vt 0.5010865234375 0.5288357421875001
vt 0.5010865234375 0.5405544921875001
vt 0.4832884765625 0.5405544921875001
vt 0.4873285546875 0.9798804296875
vt 0.4784297265625 0.979938046875
vt 0.4783538671875 0.96821953125
vt 0.4872526953125 0.96816193359375
vt 0.501095 0.896013984375
vt 0.492196171875 0.8959546875
vt 0.49227423828125 0.8842362109375
vt 0.50117306640625 0.88429548828125
vt 0.4327271484375 0.498946875
vt 0.42679453125 0.498946875
vt 0.42679453125 0.487228125
vt 0.4327271484375 0.487228125
vt 0.4386380859375 0.4766748046875
vt 0.4519869140625 0.4766748046875
vt 0.4542115234375 0.48782011718749996
vt 0.4364134765625 0.48782011718749996
vt 0.4874662109375 0.798940625
vt 0.5008150390625 0.798940625
vt 0.5030396484375 0.8100859375
vt 0.4852416015625 0.8100859375
vt 0.4854556640625 0.47276874999999996
vt 0.498804296875 0.47276874999999996
vt 0.5010291015625 0.4839140625
vt 0.483230859375 0.4839140625
vt 0.122289453125 0.4688626953125
vt 0.1356380859375 0.4688626953125
vt 0.137862890625 0.4800078125
vt 0.1200646484375 0.4800078125
vt 0.4855130859375 0.5176904296875
vt 0.4988619140625 0.5176904296875
vt 0.5010865234375 0.5288357421875001
vt 0.4832884765625 0.5288357421875001
vt 0.4872526953125 0.96816193359375
vt 0.4783538671875 0.96821953125
vt 0.47828171875 0.957074453125
vt 0.48495580078125 0.95703125
vt 0.50117306640625 0.88429548828125
vt 0.49227423828125 0.8842362109375
vt 0.4923484765625 0.873091328125
vt 0.49902255859375 0.87313580078125
vt 0.4327271484375 0.487228125
vt 0.42679453125 0.487228125
vt 0.4260529296875 0.47608281249999995
vt 0.4305025390625 0.47608281249999995
vt 0.3931095703125 0.873046875
vt 0.3879609375 0.879171875
vt 0.3838177734375 0.8750287109375
vt 0.390682421875 0.865234375
vt 0.3828125 0.8852970703125
vt 0.3828125 0.8998591796875
vt 0.376953125 0.902286328125
vt 0.376953125 0.882869921875
vt 0.3828125 0.8998591796875
vt 0.3931095703125 0.91015625
vt 0.390682421875 0.916015625
vt 0.376953125 0.902286328125
vt 0.4076716796875 0.91015625
vt 0.41796875 0.8998591796875
vt 0.423828125 0.902286328125
vt 0.410098828125 0.916015625
vt 0.3931095703125 0.91015625
vt 0.4076716796875 0.91015625
vt 0.410098828125 0.916015625
vt 0.390682421875 0.916015625
vt 0.41796875 0.8998591796875
vt 0.41796875 0.8852970703125
vt 0.423828125 0.882869921875
vt 0.423828125 0.902286328125
vt 0.41796875 0.8852970703125
vt 0.4128203125 0.879171875
vt 0.4169634765625 0.8750287109375
vt 0.423828125 0.882869921875
vt 0.5086921484375 0.5683325390625
vt 0.50851552734375 0.5751706249999999
vt 0.50105986328125 0.57517056640625
vt 0.501413046875 0.5683281835937499
vt 0.5189998046875 0.5078125
vt 0.5189998046875 0.5146484375
vt 0.5044376953125 0.5146484375
vt 0.5044376953125 0.5078125
vt 0.51953125 0.537109375
vt 0.51953125 0.5439453125
vt 0.5049689453125 0.5439453125
vt 0.5049689453125 0.537109375
vt 0.520421484375 0.8359375
vt 0.520421484375 0.8427734375
vt 0.505859375 0.8427734375
vt 0.505859375 0.8359375
vt 0.5189998046875 0.478515625
vt 0.5189998046875 0.4853515625
vt 0.5044376953125 0.4853515625
vt 0.5044376953125 0.478515625
vt 0.4721248046875 0.46875
vt 0.4721248046875 0.4755859375
vt 0.4575626953125 0.4755859375
vt 0.4575626953125 0.46875
vt 0.43463880859375 0.87303912109375
vt 0.43481537109375 0.8798772070312499
vt 0.42735970703125 0.8798772070312499
vt 0.42735970703125 0.87304322265625
vt 0.216323046875 0.46868027343749996
vt 0.216323046875 0.4755337890625
vt 0.2114689453125 0.4755337890625
vt 0.2114689453125 0.46868027343749996
vt 0.4501666015625 0.5078125
vt 0.4404583984375 0.5078125
vt 0.435604296875 0.50390625
vt 0.455020703125 0.50390625
vt 0.4501666015625 0.515625
vt 0.4501666015625 0.51171875
vt 0.455020703125 0.51171875
vt 0.455020703125 0.51953125
vt 0.4404583984375 0.515625
vt 0.4501666015625 0.515625
vt 0.455020703125 0.51953125
vt 0.435604296875 0.51953125
vt 0.435604296875 0.51953125
vt 0.435604296875 0.51171875
vt 0.4404583984375 0.51171875
vt 0.4404583984375 0.515625
vt 0.01171875 0.814453125
vt 0.01171875 0.82421875
vt 0 0.82421875
vt 0 0.814453125
vt 0 0.70703125
vt 0 0.703125
vt 0.01171875 0.703125
vt 0.01171875 0.70703125
vt 0.166015625 0.814453125
vt 0.166015625 0.82421875
vt 0.154296875 0.82421875
vt 0.154296875 0.814453125
vt 0.146484375 0.70703125
vt 0.146484375 0.703125
vt 0.158203125 0.703125
vt 0.158203125 0.70703125
vt 0.4970416015625 0.548828125
vt 0.4873333984375 0.548828125
vt 0.482479296875 0.544921875
vt 0.501895703125 0.544921875
vt 0.4970416015625 0.556640625
vt 0.4970416015625 0.552734375
vt 0.501895703125 0.552734375
vt 0.501895703125 0.560546875
vt 0.4873333984375 0.556640625
vt 0.4970416015625 0.556640625
vt 0.501895703125 0.560546875
vt 0.482479296875 0.560546875
vt 0.482479296875 0.560546875
vt 0.482479296875 0.552734375
vt 0.4873333984375 0.552734375
vt 0.4873333984375 0.556640625
vt 0.4140625 0.564453125
vt 0.4140625 0.5546875
vt 0.42578125 0.5546875
vt 0.42578125 0.564453125
vt 0.072265625 0.693359375
vt 0.072265625 0.689453125
vt 0.083984375 0.689453125
vt 0.083984375 0.693359375
vt 0.4453125 0.88671875
vt 0.4453125 0.876953125
vt 0.45703125 0.876953125
vt 0.45703125 0.88671875
vt 0.46484375 0.87109375
vt 0.46484375 0.8671875
vt 0.4765625 0.8671875
vt 0.4765625 0.87109375
vt 0.4076716796875 0.873046875
vt 0.402817578125 0.873046875
vt 0.4036267578125 0.865234375
vt 0.410098828125 0.865234375
vt 0.433536328125 0.5116580078124999
vt 0.4270642578125 0.5116580078124999
vt 0.4270642578125 0.5033142578125
vt 0.433536328125 0.5033142578125
vt 0.49042189453125 0.99211279296875
vt 0.47885783203125 0.99212294921875
vt 0.4784580078125 0.98430533203125
vt 0.48805736328125 0.98424318359375
vt 0.501895703125 0.544921875
vt 0.501895703125 0.552734375
vt 0.4970416015625 0.552734375
vt 0.4970416015625 0.548828125
vt 0.083984375 0.685546875
vt 0.083984375 0.689453125
vt 0.072265625 0.689453125
vt 0.072265625 0.685546875
vt 0.3222369140625 0.861328125
vt 0.3222369140625 0.865234375
vt 0.3125287109375 0.865234375
vt 0.3125287109375 0.861328125
vt 0.4765625 0.86328125
vt 0.4765625 0.8671875
vt 0.46484375 0.8671875
vt 0.46484375 0.86328125
vt 0.4873333984375 0.548828125
vt 0.4873333984375 0.552734375
vt 0.482479296875 0.552734375
vt 0.482479296875 0.544921875
vt 0.138671875 0.49609375
vt 0.138671875 0.50390625
vt 0.1192556640625 0.50390625
vt 0.1192556640625 0.49609375
vt 0.503848828125 0.826171875
vt 0.503848828125 0.833984375
vt 0.484432421875 0.833984375
vt 0.484432421875 0.826171875
vt 0.5018380859375 0.5
vt 0.5018380859375 0.5078125
vt 0.482421875 0.5078125
vt 0.482421875 0.5
vt 0.455020703125 0.50390625
vt 0.455020703125 0.51171875
vt 0.4501666015625 0.51171875
vt 0.4501666015625 0.5078125
vt 0.01171875 0.69921875
vt 0.01171875 0.703125
vt 0 0.703125
vt 0 0.69921875
vt 0.0976275390625 0.71875
vt 0.0976275390625 0.72265625
vt 0.0879193359375 0.72265625
vt 0.0879193359375 0.71875
vt 0.158203125 0.69921875
vt 0.158203125 0.703125
vt 0.146484375 0.703125
vt 0.146484375 0.69921875
vt 0.4404583984375 0.5078125
vt 0.4404583984375 0.51171875
vt 0.435604296875 0.51171875
vt 0.435604296875 0.50390625
vt 0.50182892578125 0.908191953125
vt 0.4917696875 0.90813974609375
vt 0.49216708984375 0.90032197265625
vt 0.5018694140625 0.90038658203125
vt 0.46879880859375 0.99217798828125
vt 0.47885783203125 0.99212294921875
vt 0.47925763671875 0.99994060546875
vt 0.46884150390625 0.99998333984375
vt 0.376953125 0.882869921875
vt 0.3838177734375 0.8750287109375
vt 0.3879609375 0.879171875
vt 0.3828125 0.8852970703125
vt 0.51597119140625 0.5683346874999999
vt 0.51597119140625 0.5751706249999999
vt 0.50851552734375 0.5751706249999999
vt 0.50869208984375 0.5683346874999999
vt 0.44921875 0.7173283203125
vt 0.4543671875 0.7121796874999999
vt 0.466796875 0.724609375
vt 0.4687500390625 0.98437302734375
vt 0.4784580078125 0.98430533203125
vt 0.47885783203125 0.9921228515625
vt 0.468804453125 0.99217771484375
vt 0.469530703125 0.97999564453125
vt 0.4784297265625 0.979938046875
vt 0.4784580078125 0.98430533203125
vt 0.46875 0.98436818359375
vt 0.46945482421875 0.9682771484375
vt 0.4783538671875 0.96821953125
vt 0.4784297265625 0.979938046875
vt 0.469530703125 0.97999564453125
vt 0.47160744140625 0.95711765625
vt 0.47828171875 0.957074453125
vt 0.4783538671875 0.96821953125
vt 0.46945482421875 0.9682771484375
vt 0.4747708984375 0.5947265625
vt 0.4700515625 0.59000703125
vt 0.4814453125 0.57861328125
vt 0.48033486328125 0.90813962890625
vt 0.49189892578125 0.90813962890625
vt 0.49150595703125 0.91595759765625
vt 0.47954912109375 0.91596833984375
vt 0.410098828125 0.865234375
vt 0.4169634765625 0.8750287109375
vt 0.4128203125 0.879171875
vt 0.4076716796875 0.873046875
vt 0.44190384765625 0.873021640625
vt 0.442264140625 0.87986560546875
vt 0.4348084765625 0.8798733984375
vt 0.434624765625 0.87303763671875
vt 0.4740779296875 0.70703125
vt 0.4792265625 0.7121796874999999
vt 0.466796875 0.724609375
vt 0.4824591015625 0.9002573046875
vt 0.49216708984375 0.90032197265625
vt 0.4917696875 0.90813962890625
vt 0.48033486328125 0.90813962890625
vt 0.4832971484375 0.89589541015625
vt 0.492196171875 0.8959546875
vt 0.49216708984375 0.90032197265625
vt 0.4824591015625 0.9002573046875
vt 0.48337521484375 0.88417693359375
vt 0.49227423828125 0.8842362109375
vt 0.492196171875 0.8959546875
vt 0.4832971484375 0.89589541015625
vt 0.48567421875 0.873046875
vt 0.4923484765625 0.873091328125
vt 0.49227423828125 0.8842362109375
vt 0.48337521484375 0.88417693359375
vt 0.49755859375 0.5852876953125
vt 0.4928390625 0.59000703125
vt 0.4814453125 0.57861328125
vt 0.414119921875 0.5116580078124999
vt 0.4205919921875 0.5116580078124999
vt 0.4205919921875 0.51953125
vt 0.414119921875 0.51953125
vt 0.390682421875 0.865234375
vt 0.3971544921875 0.865234375
vt 0.397963671875 0.873046875
vt 0.3931095703125 0.873046875
vt 0.2260310546875 0.46868027343749996
vt 0.2260310546875 0.4755337890625
vt 0.221176953125 0.4755337890625
vt 0.221176953125 0.46868027343749996
vt 0.221176953125 0.46868027343749996
vt 0.221176953125 0.4755337890625
vt 0.216323046875 0.4755337890625
vt 0.216323046875 0.46868027343749996
vt 0.4595158203125 0.70703125
vt 0.464369921875 0.70703125
vt 0.466796875 0.724609375
vt 0.414119921875 0.5033142578125
vt 0.4205919921875 0.5033142578125
vt 0.4205919921875 0.5116580078124999
vt 0.414119921875 0.5116580078124999
vt 0.4205919921875 0.5033142578125
vt 0.4270642578125 0.5033142578125
vt 0.4270642578125 0.5116580078124999
vt 0.4205919921875 0.5116580078124999
vt 0.4149291015625 0.498946875
vt 0.42086171875 0.498946875
vt 0.4205919921875 0.5033142578125
vt 0.414119921875 0.5033142578125
vt 0.42086171875 0.498946875
vt 0.42679453125 0.498946875
vt 0.4270642578125 0.5033142578125
vt 0.4205919921875 0.5033142578125
vt 0.4149291015625 0.487228125
vt 0.42086171875 0.487228125
vt 0.42086171875 0.498946875
vt 0.4149291015625 0.498946875
vt 0.42086171875 0.487228125
vt 0.42679453125 0.487228125
vt 0.42679453125 0.498946875
vt 0.42086171875 0.498946875
vt 0.4171537109375 0.47608281249999995
vt 0.4216033203125 0.47608281249999995
vt 0.42086171875 0.487228125
vt 0.4149291015625 0.487228125
vt 0.4216033203125 0.47608281249999995
vt 0.4260529296875 0.47608281249999995
vt 0.42679453125 0.487228125
vt 0.42086171875 0.487228125
vt 0.4881197265625 0.5947265625
vt 0.4792205078125 0.5947265625
vt 0.4814453125 0.57861328125
vt 0.216323046875 0.48924042968750003
vt 0.216323046875 0.48238710937499996
vt 0.221176953125 0.48238710937499996
vt 0.221176953125 0.48924042968750003
vt 0.216323046875 0.48238710937499996
vt 0.216323046875 0.4755337890625
vt 0.221176953125 0.4755337890625
vt 0.221176953125 0.48238710937499996
vt 0.221176953125 0.49609375
vt 0.221176953125 0.48924042968750003
vt 0.2260310546875 0.48924042968750003
vt 0.2260310546875 0.49609375
vt 0.221176953125 0.48924042968750003
vt 0.221176953125 0.48238710937499996
vt 0.2260310546875 0.48238710937499996
vt 0.2260310546875 0.48924042968750003
vt 0.221176953125 0.48238710937499996
vt 0.221176953125 0.4755337890625
vt 0.2260310546875 0.4755337890625
vt 0.2260310546875 0.48238710937499996
vt 0.5 0.595703125
vt 0.5003532421875 0.588858828125
vt 0.50816943359375 0.5888426757812499
vt 0.507999765625 0.595678984375
vt 0.5003532421875 0.588858828125
vt 0.500706484375 0.5820146875000001
vt 0.5083406640625 0.58200654296875
vt 0.50816767578125 0.5888426757812499
vt 0.500706484375 0.5820146875000001
vt 0.50105986328125 0.57517056640625
vt 0.50851552734375 0.5751706249999999
vt 0.50833890625 0.5820065624999999
vt 0.5079856640625 0.5956845703125
vt 0.50816236328125 0.58884650390625
vt 0.51597837890625 0.58883837890625
vt 0.51598546875 0.59567255859375
vt 0.50816236328125 0.58884650390625
vt 0.50833896484375 0.582008515625
vt 0.51597314453125 0.5820044140625
vt 0.51597681640625 0.5888383984375001
vt 0.50833896484375 0.582008515625
vt 0.50851552734375 0.5751706249999999
vt 0.51597119140625 0.5751706249999999
vt 0.51597119140625 0.5820044140625
vt 0.5044376953125 0.53515625
vt 0.5044376953125 0.5283203125
vt 0.5189998046875 0.5283203125
vt 0.5189998046875 0.53515625
vt 0.5044376953125 0.5283203125
vt 0.5044376953125 0.521484375
vt 0.5189998046875 0.521484375
vt 0.5189998046875 0.5283203125
vt 0.5044376953125 0.521484375
vt 0.5044376953125 0.5146484375
vt 0.5189998046875 0.5146484375
vt 0.5189998046875 0.521484375
vt 0.5049689453125 0.564453125
vt 0.5049689453125 0.5576171875
vt 0.51953125 0.5576171875
vt 0.51953125 0.564453125
vt 0.5049689453125 0.5576171875
vt 0.5049689453125 0.55078125
vt 0.51953125 0.55078125
vt 0.51953125 0.5576171875
vt 0.5049689453125 0.55078125
vt 0.5049689453125 0.5439453125
vt 0.51953125 0.5439453125
vt 0.51953125 0.55078125
vt 0.5044376953125 0.505859375
vt 0.5044376953125 0.4990234375
vt 0.5189998046875 0.4990234375
vt 0.5189998046875 0.505859375
vt 0.5044376953125 0.4990234375
vt 0.5044376953125 0.4921875
vt 0.5189998046875 0.4921875
vt 0.5189998046875 0.4990234375
vt 0.5044376953125 0.4921875
vt 0.5044376953125 0.4853515625
vt 0.5189998046875 0.4853515625
vt 0.5189998046875 0.4921875
vt 0.505859375 0.86328125
vt 0.505859375 0.8564453125
vt 0.520421484375 0.8564453125
vt 0.520421484375 0.86328125
vt 0.505859375 0.8564453125
vt 0.505859375 0.849609375
vt 0.520421484375 0.849609375
vt 0.520421484375 0.8564453125
vt 0.505859375 0.849609375
vt 0.505859375 0.8427734375
vt 0.520421484375 0.8427734375
vt 0.520421484375 0.849609375
vt 0.4575626953125 0.49609375
vt 0.4575626953125 0.4892578125
vt 0.4721248046875 0.4892578125
vt 0.4721248046875 0.49609375
vt 0.4575626953125 0.4892578125
vt 0.4575626953125 0.482421875
vt 0.4721248046875 0.482421875
vt 0.4721248046875 0.4892578125
vt 0.4575626953125 0.482421875
vt 0.4575626953125 0.4755859375
vt 0.4721248046875 0.4755859375
vt 0.4721248046875 0.482421875
vt 0.42735970703125 0.9003850195312499
vt 0.42735970703125 0.8935490820312499
vt 0.43517591796875 0.8935490820312499
vt 0.43535951171875 0.9003850195312499
vt 0.42735970703125 0.8935490820312499
vt 0.42735970703125 0.8867131445312499
vt 0.43499388671875 0.8867131445312499
vt 0.43517416015625 0.8935490820312499
vt 0.42735970703125 0.8867131445312499
vt 0.42735970703125 0.8798772070312499
vt 0.43481537109375 0.8798772070312499
vt 0.43499193359375 0.8867131445312499
vt 0.4353595703125 0.90038697265625
vt 0.43517591796875 0.8935490820312499
vt 0.44299193359375 0.8935490234375
vt 0.443359375 0.900390625
vt 0.43517591796875 0.8935490820312499
vt 0.4349921875 0.8867112890625
vt 0.4426263671875 0.886707421875
vt 0.44299037109375 0.8935490234375
vt 0.4349921875 0.8867112890625
vt 0.4348084765625 0.8798733984375
vt 0.442264140625 0.87986560546875
vt 0.4426244140625 0.886707421875
vt 0.2114689453125 0.49609375
vt 0.2114689453125 0.48924042968750003
vt 0.216323046875 0.48924042968750003
vt 0.216323046875 0.49609375
vt 0.2114689453125 0.48924042968750003
vt 0.2114689453125 0.48238710937499996
vt 0.216323046875 0.48238710937499996
vt 0.216323046875 0.48924042968750003
vt 0.2114689453125 0.48238710937499996
vt 0.2114689453125 0.4755337890625
vt 0.216323046875 0.4755337890625
vt 0.216323046875 0.48238710937499996
vt 0.422222421875 0.5437049804687499
vt 0.42308904296875 0.5503212890625
vt 0.41530669921875 0.5509325781250001
vt 0.41481798828125 0.5440966992187499
vt 0.06467498046875 0.8343890625
vt 0.07017615234375 0.8343890625
vt 0.06985251953125 0.841796875
vt 0.06499861328125 0.841796875
vt 0.418705625 0.54040447265625
vt 0.41957208984375 0.53378818359375
vt 0.42697654296875 0.53417994140625
vt 0.42648796875 0.541015625
vt 0.31923166015625 0.8501998046875
vt 0.31365197265625 0.8502001953125
vt 0.31316642578125 0.8496095703125
vt 0.31971701171875 0.849609375
vt 0.3192206640625 0.856866796875
vt 0.31923166015625 0.8501998046875
vt 0.31971697265625 0.84960943359375
vt 0.3197099609375 0.8574768164062501
vt 0.31365197265625 0.8502001953125
vt 0.313585546875 0.85686724609375
vt 0.31309548828125 0.8574783593749999
vt 0.3131673828125 0.84961072265625
vt 0.433635546875 0.904296875
vt 0.42578125 0.904296875
vt 0.4335486328125 0.9035185546875
vt 0.482421875 0.875
vt 0.474567578125 0.875
vt 0.4746544921875 0.8742216796875
vt 0.06458947265625 0.8304314453125
vt 0.07016916015625 0.8304296875
vt 0.07017615234375 0.8343890625
vt 0.06467498046875 0.8343890625
vt 0.37368078125 0.912109375
vt 0.3802313671875 0.912109375
vt 0.380146953125 0.916015625
vt 0.3736748828125 0.916015625
vt 0.41482033203125 0.5396637695312501
vt 0.41568244140625 0.53305224609375
vt 0.41957208984375 0.53378818359375
vt 0.41870568359375 0.54040400390625
vt 0.47067859375 0.87427548828125
vt 0.4707653125 0.8734970703125
vt 0.47465451171875 0.8742215625
vt 0.474567578125 0.875
vt 0.31332142578125 0.84375
vt 0.3211896484375 0.84375
vt 0.32144419921875 0.8476542578125
vt 0.31357140625 0.84765625
vt 0.42611287109375 0.54296875
vt 0.42697888671875 0.549579296875
vt 0.42308904296875 0.5503212890625
vt 0.42222244140625 0.543705078125
vt 0.0625 0.7263086523437501
vt 0.0625 0.7184410742187499
vt 0.06640625 0.7186891992187501
vt 0.06640625 0.7265625
vt 0.43741828125 0.90267828125
vt 0.4375051953125 0.90345666015625
vt 0.433635546875 0.904296875
vt 0.4335486328125 0.90351849609375
vn 0 -1 0
vn 0.7517689724594234 -0.04113389979379925 0.6581423967007873
vn 0 1 0
vn 0 -1 0
vn 1 0 0
vn 0 1 0
vn 0 -1 0
vn 0.7071067811865476 0 -0.7071067811865476
vn 0 1 0
vn 0 -1 0
vn 0 0 -1
vn 0 1 0
vn 0 -1 0
vn -0.7071067811865476 0 -0.7071067811865476
vn 0 1 0
vn 0 -1 0
vn -1 0 0
vn 0 1 0
vn 0 -1 0
vn -0.8183666374247301 -0.03584858162431607 0.5735773059890578
vn 0 1 0
vn 0 -1 0
vn 0 -0.12403473458920847 0.9922778767136677
vn 0 1 0
vn 0.8944271909999161 -0.44721359549995804 0
vn 0 -0.44721359549995804 -0.8944271909999161
vn 0.6324558506618514 -0.4472126942822488 -0.6324558506618514
vn -0.6324558506618515 -0.4472126942822486 -0.6324558506618515
vn -0.8944271909999161 -0.44721359549995804 0
vn -0.6324549562342967 -0.4472152241028336 0.6324549562342967
vn 0.6324549562342966 -0.4472152241028337 0.6324549562342968
vn 0 -0.44721359549995804 0.8944271909999161
vn 1 0 0
vn 0 0 -1
vn 0.7071067811865476 0 -0.7071067811865476
vn -0.7071067811865476 0 -0.7071067811865476
vn -1 0 0
vn -0.7071078785556358 0 0.7071056838157562
vn 0.7071056838157562 0 0.707107878555636
vn 0 0 1
vn 0.876215908676647 -0.4819187497721559 0
vn 0 -0.4819187497721559 -0.876215908676647
vn 0.6195781107815389 -0.48191900697187523 -0.619578110781539
vn -0.6195781107815389 -0.48191900697187495 -0.619578110781539
vn -0.876215908676647 -0.4819187497721559 0
vn -0.6195794423095191 -0.48191805560334394 0.6195775192426833
vn 0.6195775192426833 -0.48191805560334383 0.6195794423095192
vn 0 -0.4819187497721558 0.876215908676647
vn 0 1 0
vn 0 1 0
vn 0 1 0
vn 0 1 0
vn 0 1 0
vn 0 1 0
vn 0 1 0
vn 0.723070024092955 0.024654596623935203 -0.6903346225733754
vn 1 0 0
vn 0.7071067811865476 0 0.7071067811865476
vn -0.7071067811865476 0 0.7071067811865476
vn 0 0 1
vn -1 0 0
vn -0.7230700240929548 0.02465459662393521 -0.6903346225733755
vn 0 0.07124644240402211 -0.9974587432293982
vn 1 0 0
vn 1 0 0
vn 1 0 0
vn 1 0 0
vn 0 -1 0
vn 0 0 -1
vn 0 1 0
vn 0 0 1
vn -1 0 0
vn -1 0 0
vn -1 0 0
vn -1 0 0
vn 0 -1 0
vn 0 0 1
vn 0 1 0
vn 0 0 -1
vn 0 1 0
vn 0 -0.35112344158839176 0.9363291775690447
vn -0.8041899827165716 -0.03707592754733733 0.5932148407573978
vn -1 0 0
vn 0 0 1
vn -1 0 0
vn 0 0 -1
vn -1 0 0
vn -0.7071067811865476 0 -0.7071067811865476
vn 0 0 -1
vn 0.7071067811865476 0 -0.7071067811865476
vn 1 0 0
vn 0 0 -1
vn 1 0 0
vn 0 0 1
vn 1 0 0
vn 0.7302962693797825 -0.042612513412592895 0.681800214601487
vn -0.7302962693797826 -0.042612513412592985 0.6818002146014869
vn 0 1 0
vn 0.7232898830730838 0 -0.6905445279228016
vn 0 1 0
vn -0.7064172571013567 -0.04415107856883477 0.7064172571013567
vn -0.6324539747170684 -0.4472152241024028 0.6324559377503066
vn -0.7071056838157563 0 0.7071078785556357
vn -0.6195784807766741 -0.4819180556037895 0.619578480776674
vn 0 -1 0
vn 0.8041899827165717 -0.037075927547337406 0.5932148407573976
vn 0 1 0
vn -0.7224116481583456 0.04926429581732055 -0.6897060531579858
vn 0 1 0
vn 0.7064172571013569 -0.04415107856883477 0.7064172571013566
vn 0.6324559377503066 -0.4472152241024028 0.6324539747170682
vn 0.707107878555636 0 0.7071056838157562
vn 0.6195784807766741 -0.48191805560378936 0.6195784807766741
vn 0 -1 0
vn 0 -0.12403473458920847 0.9922778767136677
vn 0 1 0
vn 0 0.07124644240402211 -0.9974587432293982
vn 0 0.07124644240402211 -0.9974587432293982
vn 0 1 0
vn 0 -0.35112344158839176 0.9363291775690447
vn 0 -0.3511234415883917 0.9363291775690447
vn 0 -0.44721359549995804 0.8944271909999161
vn 0 -0.447213595499958 0.894427190999916
vn 0 0 1
vn 0 0 1
vn 0 -0.4819187497721559 0.876215908676647
vn 0 -0.4819187497721559 0.8762159086766471
vn 0 -1 0
vn 0 0.07124725251816913 -0.9974586853642672
vn 0 0.07124704998790965 -0.9974586998307351
vn 0 0.07124745504957716 -0.9974586708976763
vn 0 0.07124725251816913 -0.9974586853642672
vn 0 0.07124704998790965 -0.9974586998307351
vn 0.7515743460141009 0.046998269230197086 -0.6579720093612208
vn 0.737507979121392 0.04811600690298263 -0.6736221720014808
vn 0.7224116331302359 0.04926471705787434 -0.6897060388102406
vn 0.7521976601172401 0.02351862349480132 -0.6585176948746777
vn 0.7381491047947494 0.02407891739967782 -0.674207760877587
vn 0.7230700203256459 0.02465480782059369 -0.6903346189766233
vn 1 0 0
vn 1 0 0
vn 1 0 0
vn 0.7071067811865476 0 0.7071067811865476
vn 0.7071067811865476 0 0.7071067811865476
vn 0.7071067811865476 0 0.7071067811865476
vn 0 0 1
vn 0 0 1
vn 0 0 1
vn -0.7071067811865476 0 0.7071067811865476
vn -0.7071067811865476 0 0.7071067811865476
vn -0.7071067811865476 0 0.7071067811865476
vn -1 0 0
vn -1 0 0
vn -1 0 0
vn -0.7524057763672984 0 -0.6586998919759463
vn -0.7383631851993425 0 -0.6744032968056143
vn -0.7232898830730838 0 -0.6905445279228015
vn -0.7521976601172401 0.02351862349480132 -0.6585176948746777
vn -0.7381491047947494 0.024078917399677817 -0.674207760877587
vn -0.723070020325646 0.024654807820593694 -0.6903346189766233
vn 0 0.07124745504957716 -0.9974586708976763
vn 0 0.07124725251816913 -0.9974586853642672
vn 0 0.07124704998790965 -0.9974586998307351
vn -0.9991581743345173 -0.005933891098513448 0.04059226030840621
vn 0 0.9986084324098281 0.052737071590921225
vn 0.999039145374433 -0.006297940572513744 0.043371902818158496
vn -0.00033300808536219277 -0.12376310322690916 0.9923117369986414
vn -0.007185748680556794 -0.12989046307563476 0.9915023109493477
vn -0.08773046334708891 -0.12961615433996548 0.9876755632974948
vn -0.7799364301790698 0.6206257180237981 0.08076436718611825
vn 0.7799364301790698 0.6206257180237981 0.08076436718611807
vn -0.000009592975918039317 0.982559971269196 0.1859459673331255
vn 0.00000817508606810138 -0.9825574859705127 -0.18595909952587433
vn 0.9996769592642251 0.00918990969866105 0.023696469694105902
vn 0.775576890624286 0.6129117227634375 0.1510619304415226
vn -0.9989759214241439 -0.005324538177809739 -0.04493058766559615
vn -0.9999919744662193 -0.0011765295264926313 -0.0038297234137517934
vn 0.9999979278779556 0.0006573355583091578 0.0019266939972599339
vn -0.7783095073755742 0.617270358673663 0.11494178975324187
usemtl m_b96deadd-bef4-f163-048a-f73158edac41
f 35/1/1 106/2/1 41/3/1
f 4/4/2 100/5/2 99/6/2 90/7/2
f 52/8/3 102/9/3 57/10/3
f 33/11/4 34/12/4 35/13/4
f 66/14/5 88/15/5 87/16/5 65/17/5
f 57/18/6 55/19/6 52/20/6
f 37/21/7 33/22/7 35/23/7
f 6/24/8 85/25/8 84/26/8 8/27/8
f 55/28/9 56/29/9 52/30/9
f 36/31/10 37/32/10 35/33/10
f 8/34/11 84/35/11 83/36/11 10/37/11
f 56/38/12 54/39/12 52/40/12
f 38/41/13 36/42/13 35/43/13
f 10/44/14 83/45/14 82/46/14 12/47/14
f 54/48/15 53/49/15 52/50/15
f 39/51/16 38/52/16 35/53/16
f 74/54/17 80/55/17 79/56/17 73/57/17
f 53/58/18 50/59/18 52/60/18
f 35/61/19 98/62/19 39/63/19
f 16/64/20 92/65/20 91/66/20 76/67/20
f 52/68/21 94/69/21 51/70/21
f 35/71/22 121/72/22 40/73/22
f 2/74/23 110/75/23 109/76/23 75/77/23
f 52/78/24 113/79/24 58/80/24
f 18/81/25 17/82/25 5/83/25 3/84/25
f 20/85/26 19/86/26 9/87/26 7/88/26
f 17/89/27 20/90/27 7/91/27 5/92/27
f 19/93/28 21/94/28 11/95/28 9/96/28
f 21/97/29 22/98/29 13/99/29 11/100/29
f 15/101/30 95/102/30 96/103/30 23/104/30
f 3/105/31 103/106/31 104/107/31 18/108/31
f 1/109/32 116/110/32 118/111/32 24/112/32
f 26/113/33 25/114/33 17/115/33 18/116/33
f 28/117/34 27/118/34 19/119/34 20/120/34
f 25/121/35 28/122/35 20/123/35 17/124/35
f 27/125/36 29/126/36 21/127/36 19/128/36
f 29/129/37 30/130/37 22/131/37 21/132/37
f 23/133/38 96/134/38 97/135/38 31/136/38
f 18/137/39 104/138/39 105/139/39 26/140/39
f 24/141/40 118/142/40 120/143/40 32/144/40
f 34/145/41 33/146/41 25/147/41 26/148/41
f 37/149/42 36/150/42 27/151/42 28/152/42
f 33/153/43 37/154/43 28/155/43 25/156/43
f 36/157/44 38/158/44 29/159/44 27/160/44
f 38/161/45 39/162/45 30/163/45 29/164/45
f 31/165/46 97/166/46 98/167/46 40/168/46
f 26/169/47 105/170/47 106/171/47 34/172/47
f 32/173/48 120/174/48 122/175/48 41/176/48
f 43/177/49 93/178/49 92/179/49 16/180/49
f 42/181/50 44/182/50 12/183/50 14/184/50
f 44/185/51 45/186/51 10/187/51 12/188/51
f 47/189/52 46/190/52 6/191/52 8/192/52
f 45/193/53 47/194/53 8/195/53 10/196/53
f 46/197/54 48/198/54 4/199/54 6/200/54
f 48/201/55 101/202/55 100/203/55 4/204/55
f 94/205/56 134/206/56 131/207/56 51/208/56
f 53/209/57 140/210/57 137/211/57 50/212/57
f 54/213/58 143/214/58 140/215/58 53/216/58
f 55/217/59 149/218/59 146/219/59 56/220/59
f 56/221/60 146/222/60 143/223/60 54/224/60
f 57/225/61 152/226/61 149/227/61 55/228/61
f 102/229/62 155/230/62 152/231/62 57/232/62
f 114/233/63 127/234/63 158/235/63 58/236/63
f 60/237/64 59/238/64 3/239/64 5/240/64
f 61/241/65 86/242/65 85/243/65 6/244/65
f 62/245/66 61/246/66 6/247/66 4/248/66
f 4/249/67 90/250/67 89/251/67 62/252/67
f 64/253/68 63/254/68 59/255/68 60/256/68
f 65/257/69 87/258/69 86/259/69 61/260/69
f 66/261/70 65/262/70 61/263/70 62/264/70
f 62/265/71 89/266/71 88/267/71 66/268/71
f 68/269/72 67/270/72 11/271/72 13/272/72
f 69/273/73 78/274/73 77/275/73 14/276/73
f 70/277/74 69/278/74 14/279/74 12/280/74
f 12/281/75 82/282/75 81/283/75 70/284/75
f 72/285/76 71/286/76 67/287/76 68/288/76
f 73/289/77 79/290/77 78/291/77 69/292/77
f 74/293/78 73/294/78 69/295/78 70/296/78
f 70/297/79 81/298/79 80/299/79 74/300/79
f 49/301/80 112/302/80 110/303/80 2/304/80
f 75/305/81 109/306/81 116/307/81 1/308/81
f 76/309/82 91/310/82 95/311/82 15/312/82
f 13/313/83 77/314/83 78/315/83 68/316/83
f 68/317/84 78/318/84 79/319/84 72/320/84
f 72/321/85 79/322/85 80/323/85 71/324/85
f 71/325/86 80/326/86 81/327/86 67/328/86
f 67/329/87 81/330/87 82/331/87 11/332/87
f 11/333/88 82/334/88 83/335/88 9/336/88
f 9/337/89 83/338/89 84/339/89 7/340/89
f 7/341/90 84/342/90 85/343/90 5/344/90
f 5/345/91 85/346/91 86/347/91 60/348/91
f 60/349/92 86/350/92 87/351/92 64/352/92
f 64/353/93 87/354/93 88/355/93 63/356/93
f 63/357/94 88/358/94 89/359/94 59/360/94
f 59/361/95 89/362/95 90/363/95 3/364/95
f 90/365/96 99/366/96 103/367/96 3/368/96
f 77/369/97 91/370/97 92/371/97 14/372/97
f 14/373/98 92/374/98 93/375/98 42/376/98
f 50/377/99 137/378/99 134/379/99 94/380/99
f 50/381/100 94/382/100 52/383/100
f 13/384/101 95/385/101 91/386/101 77/387/101
f 22/388/102 96/389/102 95/390/102 13/391/102
f 30/392/103 97/393/103 96/394/103 22/395/103
f 39/396/104 98/397/104 97/398/104 30/399/104
f 40/400/105 98/401/105 35/402/105
f 75/403/106 99/404/106 100/405/106 2/406/106
f 2/407/107 100/408/107 101/409/107 49/410/107
f 58/411/108 158/412/108 155/413/108 102/414/108
f 58/415/109 102/416/109 52/417/109
f 1/418/110 103/419/110 99/420/110 75/421/110
f 24/422/111 104/423/111 103/424/111 1/425/111
f 32/426/112 105/427/112 104/428/112 24/429/112
f 41/430/113 106/431/113 105/432/113 32/433/113
f 34/434/114 106/435/114 35/436/114
f 76/437/115 107/438/115 108/439/115 16/440/115
f 16/441/116 108/442/116 111/443/116 43/444/116
f 51/445/117 131/446/117 128/447/117 113/448/117
f 113/449/118 128/450/118 127/451/118 114/452/118
f 51/453/119 113/454/119 52/455/119
f 15/456/120 115/457/120 107/458/120 76/459/120
f 115/460/121 116/461/121 109/462/121 107/463/121
f 23/464/122 117/465/122 115/466/122 15/467/122
f 117/468/123 118/469/123 116/470/123 115/471/123
f 31/472/124 119/473/124 117/474/124 23/475/124
f 119/476/125 120/477/125 118/478/125 117/479/125
f 40/480/126 121/481/126 119/482/126 31/483/126
f 121/484/127 122/485/127 120/486/127 119/487/127
f 41/488/128 121/489/128 35/490/128
f 123/491/129 125/492/129 126/493/129 124/494/129
f 125/495/130 127/496/130 128/497/130 126/498/130
f 111/499/131 124/500/131 129/501/131 43/502/131
f 124/503/132 126/504/132 130/505/132 129/506/132
f 126/507/133 128/508/133 131/509/133 130/510/133
f 43/511/134 129/512/134 132/513/134 93/514/134
f 129/515/135 130/516/135 133/517/135 132/518/135
f 130/519/136 131/520/136 134/521/136 133/522/136
f 93/523/137 132/524/137 135/525/137 42/526/137
f 132/527/138 133/528/138 136/529/138 135/530/138
f 133/531/139 134/532/139 137/533/139 136/534/139
f 42/535/140 135/536/140 138/537/140 44/538/140
f 135/539/141 136/540/141 139/541/141 138/542/141
f 136/543/142 137/544/142 140/545/142 139/546/142
f 44/547/143 138/548/143 141/549/143 45/550/143
f 138/551/144 139/552/144 142/553/144 141/554/144
f 139/555/145 140/556/145 143/557/145 142/558/145
f 45/559/146 141/560/146 144/561/146 47/562/146
f 141/563/147 142/564/147 145/565/147 144/566/147
f 142/567/148 143/568/148 146/569/148 145/570/148
f 47/571/149 144/572/149 147/573/149 46/574/149
f 144/575/150 145/576/150 148/577/150 147/578/150
f 145/579/151 146/580/151 149/581/151 148/582/151
f 46/583/152 147/584/152 150/585/152 48/586/152
f 147/587/153 148/588/153 151/589/153 150/590/153
f 148/591/154 149/592/154 152/593/154 151/594/154
f 48/595/155 150/596/155 153/597/155 101/598/155
f 150/599/156 151/600/156 154/601/156 153/602/156
f 151/603/157 152/604/157 155/605/157 154/606/157
f 101/607/158 153/608/158 156/609/158 49/610/158
f 153/611/159 154/612/159 157/613/159 156/614/159
f 154/615/160 155/616/160 158/617/160 157/618/160
f 49/619/161 156/620/161 123/621/161 112/622/161
f 156/623/162 157/624/162 125/625/162 123/626/162
f 157/627/163 158/628/163 127/629/163 125/630/163
f 162/631/164 159/632/164 112/633/164 123/634/164
f 161/635/165 162/636/165 123/637/165 124/638/165
f 160/639/166 161/640/166 124/641/166 111/642/166
f 163/643/167 164/644/167 165/645/167 166/646/167
f 169/647/168 163/648/168 166/649/168 170/650/168
f 164/651/169 167/652/169 168/653/169 165/654/169
f 110/655/170 112/656/170 159/657/170
f 111/658/171 108/659/171 160/660/171
f 164/661/172 163/662/172 162/663/172 161/664/172
f 166/665/173 165/666/173 107/667/173 109/668/173
f 167/669/174 164/670/174 161/671/174 160/672/174
f 168/673/175 167/674/175 160/675/175 108/676/175
f 165/677/176 168/678/176 108/679/176 107/680/176
f 163/681/177 169/682/177 159/683/177 162/684/177
f 170/685/178 166/686/178 109/687/178 110/688/178
f 169/689/179 170/690/179 110/691/179 159/692/179
o furnace_poor_spout
v 0.3125 1.8125 0.125
v 0.3125 1.8125 -1.5
v 0.3125 1.625 0.125
v 0.3125 1.625 -1.5
v 0.125 1.8125 0.125
v 0.125 1.8125 -1.5
v 0.125 1.625 0.125
v 0.125 1.625 -1.5
v 2.4375 1.8125 0.125
v 2.4375 1.625 0.125
v 2.4375 1.8125 -1.5
v 2.4375 1.625 -1.5
v 2.25 1.8125 0.125
v 2.25 1.8125 -1.5
v 2.25 1.625 0.125
v 2.25 1.625 -1.5
v 1.5625 3.125 -0.4375
v 1.5625 2.9375 -0.4375
v 1.5625 3.125 -0.9375
v 1.5625 2.9375 -0.9375
v 0.0625 3.125 -0.4375
v 0.0625 3.125 -0.9375
v 0.0625 2.9375 -0.4375
v 0.0625 2.9375 -0.9375
v 1.0625 2.9375 -0.4375
v 1.0625 2.9375 -0.9375
v 0.5625 2.9375 -0.4375
v 0.5625 2.9375 -0.9375
v 1.0625 3.125 -0.9375
v 0.5625 3.125 -0.9375
v 1.0625 3.125 -0.4375
v 0.5625 3.125 -0.4375
v 1.5 2.875 -0.5
v 1.125 2.875 -0.5
v 1.125 2.875 -0.875
v 1.5 2.875 -0.875
v 1.5 2.8125 -0.5
v 1.125 2.8125 -0.5
v 1.125 2.8125 -0.875
v 1.5 2.8125 -0.875
v 1.46875 2.75 -0.53125
v 1.15625 2.75 -0.53125
v 1.15625 2.75 -0.84375
v 1.46875 2.75 -0.84375
v 0.0625 2.625 -0.9375
v 0.5625 2.875 -0.4375
v 0.5625 2.875 -0.9375
v 0.0625 2.625 -0.4375
v 0.3125 2.625 -0.9375
v 0.3125 2.625 -0.4375
v 0.3125 2.9375 -0.4375
v 0.3125 3.125 -0.4375
v 0.3125 3.125 -0.9375
v 0.3125 2.9375 -0.9375
v 0.625 2.875 -0.4375
v 0.625 2.875 -0.9375
v 0.625 2.9375 -0.9375
v 0.625 2.9375 -0.4375
vt 0.544921875 1
vt 0.494140625 1
vt 0.494140625 0.994140625
vt 0.544921875 0.994140625
vt 0.544921875 0.986328125
vt 0.544921875 0.9921875
vt 0.494140625 0.9921875
vt 0.494140625 0.986328125
vt 0.08984375 0.484375
vt 0.095703125 0.484375
vt 0.095703125 0.53515625
vt 0.08984375 0.53515625
vt 0.234375 0.4453125
vt 0.234375 0.49609375
vt 0.228515625 0.49609375
vt 0.228515625 0.4453125
vt 0.09765625 0.818359375
vt 0.09765625 0.82421875
vt 0.091796875 0.82421875
vt 0.091796875 0.818359375
vt 0.005859375 0.8125
vt 0 0.8125
vt 0 0.806640625
vt 0.005859375 0.806640625
vt 0.55078125 0.765625
vt 0.5 0.765625
vt 0.5 0.759765625
vt 0.55078125 0.759765625
vt 0.556640625 0.828125
vt 0.556640625 0.833984375
vt 0.505859375 0.833984375
vt 0.505859375 0.828125
vt 0.474609375 0.4453125
vt 0.48046875 0.4453125
vt 0.48046875 0.49609375
vt 0.474609375 0.49609375
vt 0.095703125 0.431640625
vt 0.095703125 0.482421875
vt 0.08984375 0.482421875
vt 0.08984375 0.431640625
vt 0.1640625 0.806640625
vt 0.1640625 0.8125
vt 0.158203125 0.8125
vt 0.158203125 0.806640625
vt 0.09375 0.716796875
vt 0.087890625 0.716796875
vt 0.087890625 0.7109375
vt 0.09375 0.7109375
vt 0.43359375 0.869140625
vt 0.41796875 0.869140625
vt 0.41796875 0.86328125
vt 0.43359375 0.86328125
vt 0.53515625 0.69921875
vt 0.53515625 0.705078125
vt 0.51953125 0.705078125
vt 0.51953125 0.69921875
vt 0.5 0.796875
vt 0.4921875 0.796875
vt 0.4921875 0.78125
vt 0.5 0.78125
vt 0.521484375 0.63671875
vt 0.521484375 0.625
vt 0.537109375 0.625
vt 0.537109375 0.63671875
vt 0.5 0.779296875
vt 0.4921875 0.779296875
vt 0.4921875 0.7734375
vt 0.5 0.7734375
vt 0.521484375 0.9765625
vt 0.529296875 0.9765625
vt 0.529296875 0.982421875
vt 0.521484375 0.982421875
vt 0.087890625 0.80859375
vt 0.078125 0.80859375
vt 0.078125 0.798828125
vt 0.087890625 0.798828125
vt 0.53515625 0.6015625
vt 0.51953125 0.6015625
vt 0.51953125 0.5859375
vt 0.53515625 0.5859375
vt 0.490234375 0.9765625
vt 0.505859375 0.9765625
vt 0.505859375 0.982421875
vt 0.490234375 0.982421875
vt 0.505859375 0.9765625
vt 0.521484375 0.9765625
vt 0.521484375 0.982421875
vt 0.505859375 0.982421875
vt 0.53125 0.796875
vt 0.515625 0.796875
vt 0.515625 0.78125
vt 0.53125 0.78125
vt 0.515625 0.796875
vt 0.5 0.796875
vt 0.5 0.78125
vt 0.515625 0.78125
vt 0.53125 0.779296875
vt 0.515625 0.779296875
vt 0.515625 0.7734375
vt 0.53125 0.7734375
vt 0.515625 0.779296875
vt 0.5 0.779296875
vt 0.5 0.7734375
vt 0.515625 0.7734375
vt 0.5078125 0.806640625
vt 0.51953125 0.806640625
vt 0.521484375 0.80859375
vt 0.505859375 0.80859375
vt 0.509765625 0.966796875
vt 0.521484375 0.966796875
vt 0.5234375 0.96875
vt 0.5078125 0.96875
vt 0.5078125 0.802734375
vt 0.51953125 0.802734375
vt 0.521484375 0.8046875
vt 0.505859375 0.8046875
vt 0.5234375 0.62109375
vt 0.53515625 0.62109375
vt 0.537109375 0.623046875
vt 0.521484375 0.623046875
vt 0.46484375 0.755859375
vt 0.4765625 0.755859375
vt 0.4765625 0.7578125
vt 0.46484375 0.7578125
vt 0.4140625 0.52734375
vt 0.42578125 0.52734375
vt 0.42578125 0.529296875
vt 0.4140625 0.529296875
vt 0.486328125 0.732421875
vt 0.498046875 0.732421875
vt 0.498046875 0.734375
vt 0.486328125 0.734375
vt 0.46484375 0.748046875
vt 0.4765625 0.748046875
vt 0.4765625 0.75
vt 0.46484375 0.75
vt 0.4658203125 0.75367578125
vt 0.4755859375 0.75367578125
vt 0.4765625 0.755859375
vt 0.46484375 0.755859375
vt 0.4150390625 0.52516015625
vt 0.4248046875 0.52516015625
vt 0.42578125 0.52734375
vt 0.4140625 0.52734375
vt 0.4873046875 0.73023828125
vt 0.4970703125 0.73023828125
vt 0.498046875 0.732421875
vt 0.486328125 0.732421875
vt 0.4658203125 0.74586328125
vt 0.4755859375 0.74586328125
vt 0.4765625 0.748046875
vt 0.46484375 0.748046875
vt 0.521484375 0.974609375
vt 0.529296875 0.966796875
vt 0.529296875 0.9765625
vt 0.521484375 0.9765625
vt 0.478515625 0.86328125
vt 0.494140625 0.86328125
vt 0.494140625 0.865234375
vt 0.478515625 0.865234375
vt 0.5 0.7734375
vt 0.4921875 0.7734375
vt 0.4921875 0.763671875
vt 0.5 0.771484375
vt 0.51953125 0.689453125
vt 0.53515625 0.689453125
vt 0.53515625 0.69921875
vt 0.51953125 0.69921875
vt 0.091796875 0.826171875
vt 0.099609375 0.826171875
vt 0.099609375 0.841796875
vt 0.091796875 0.841796875
vt 0.484375 0.763671875
vt 0.4921875 0.763671875
vt 0.4921875 0.7734375
vt 0.484375 0.7734375
vt 0.484375 0.7734375
vt 0.4921875 0.7734375
vt 0.4921875 0.779296875
vt 0.484375 0.779296875
vt 0.484375 0.78125
vt 0.4921875 0.78125
vt 0.4921875 0.796875
vt 0.484375 0.796875
vt 0.537109375 0.982421875
vt 0.529296875 0.982421875
vt 0.529296875 0.9765625
vt 0.537109375 0.9765625
vt 0.537109375 0.9765625
vt 0.529296875 0.9765625
vt 0.529296875 0.966796875
vt 0.537109375 0.966796875
vt 0.001953125 0.681640625
vt 0.001953125 0.697265625
vt 0 0.697265625
vt 0 0.681640625
vt 0.013671875 0.82421875
vt 0.013671875 0.822265625
vt 0.015625 0.822265625
vt 0.015625 0.82421875
vt 0.15625 0.681640625
vt 0.15625 0.697265625
vt 0.154296875 0.697265625
vt 0.154296875 0.681640625
vt 0.15234375 0.822265625
vt 0.15234375 0.82421875
vt 0.150390625 0.82421875
vt 0.150390625 0.822265625
vn 1 0 0
vn -1 0 0
vn 0 1 0
vn 0 -1 0
vn 0 0 1
vn 0 0 -1
vn 1 0 0
vn -1 0 0
vn 0 1 0
vn 0 -1 0
vn 0 0 1
vn 0 0 -1
vn 1 0 0
vn -1 0 0
vn 0 1 0
vn 0.7071067811865476 -0.7071067811865476 0
vn 0 0 1
vn 0 0 -1
vn 0 -1 0
vn 0 -1 0
vn 0 0 -1
vn 0 0 -1
vn 0 1 0
vn 0 1 0
vn 0 0 1
vn 0 0 1
vn 0 -0.7071067811865476 0.7071067811865476
vn -0.7071067811865476 -0.7071067811865476 0
vn 0 -0.7071067811865476 -0.7071067811865476
vn 0.7071067811865476 -0.7071067811865476 0
vn 0 0 1
vn -1 0 0
vn 0 0 -1
vn 1 0 0
vn 0 -0.44721359549995804 0.8944271909999161
vn -0.8944271909999161 -0.44721359549995804 0
vn 0 -0.44721359549995804 -0.8944271909999161
vn 0.8944271909999161 -0.44721359549995804 0
vn 0 0 -1
vn 1 0 0
vn 0 0 1
vn -1 0 0
vn 0 -1 0
vn 0 0 1
vn 0 0 1
vn 0 1 0
vn 0 0 -1
vn 0 0 -1
vn 0 -1 0
vn 0 0 -1
vn 0 1 0
vn 0 0 1
usemtl m_b96deadd-bef4-f163-048a-f73158edac41
f 172/693/180 171/694/180 173/695/180 174/696/180
f 177/697/181 175/698/181 176/699/181 178/700/181
f 175/701/182 171/702/182 172/703/182 176/704/182
f 174/705/183 173/706/183 177/707/183 178/708/183
f 173/709/184 171/710/184 175/711/184 177/712/184
f 176/713/185 172/714/185 174/715/185 178/716/185
f 181/717/186 179/718/186 180/719/186 182/720/186
f 185/721/187 183/722/187 184/723/187 186/724/187
f 183/725/188 179/726/188 181/727/188 184/728/188
f 182/729/189 180/730/189 185/731/189 186/732/189
f 180/733/190 179/734/190 183/735/190 185/736/190
f 184/737/191 181/738/191 182/739/191 186/740/191
f 189/741/192 187/742/192 188/743/192 190/744/192
f 193/745/193 191/746/193 192/747/193 194/748/193
f 200/749/194 223/750/194 222/751/194 202/752/194
f 216/753/195 220/754/195 219/755/195 217/756/195
f 202/757/196 222/758/196 221/759/196 197/760/196
f 198/761/197 224/762/197 223/763/197 200/764/197
f 211/765/198 212/766/198 213/767/198 214/768/198
f 195/769/199 197/770/199 198/771/199 196/772/199
f 190/773/200 196/774/200 199/775/200 189/776/200
f 196/777/201 198/778/201 200/779/201 199/780/201
f 189/781/202 199/782/202 201/783/202 187/784/202
f 199/785/203 200/786/203 202/787/203 201/788/203
f 187/789/204 201/790/204 195/791/204 188/792/204
f 201/793/205 202/794/205 197/795/205 195/796/205
f 204/797/206 203/798/206 188/799/206 195/800/206
f 205/801/207 204/802/207 195/803/207 196/804/207
f 206/805/208 205/806/208 196/807/208 190/808/208
f 203/809/209 206/810/209 190/811/209 188/812/209
f 208/813/210 207/814/210 203/815/210 204/816/210
f 209/817/211 208/818/211 204/819/211 205/820/211
f 210/821/212 209/822/212 205/823/212 206/824/212
f 207/825/213 210/826/213 206/827/213 203/828/213
f 212/829/214 211/830/214 207/831/214 208/832/214
f 213/833/215 212/834/215 208/835/215 209/836/215
f 214/837/216 213/838/216 209/839/216 210/840/216
f 211/841/217 214/842/217 210/843/217 207/844/217
f 217/845/218 219/846/218 224/847/218 198/848/218
f 225/849/219 226/850/219 227/851/219 228/852/219
f 197/853/220 221/854/220 220/855/220 216/856/220
f 215/857/221 218/858/221 193/859/221 194/860/221
f 215/861/222 219/862/222 220/863/222 218/864/222
f 218/865/223 220/866/223 221/867/223 193/868/223
f 193/869/224 221/870/224 222/871/224 191/872/224
f 191/873/225 222/874/225 223/875/225 192/876/225
f 192/877/226 223/878/226 224/879/226 194/880/226
f 194/881/227 224/882/227 219/883/227 215/884/227
f 226/885/228 225/886/228 216/887/228 217/888/228
f 227/889/229 226/890/229 217/891/229 198/892/229
f 228/893/230 227/894/230 198/895/230 197/896/230
f 225/897/231 228/898/231 197/899/231 216/900/231
o power_input_block
v 1.9375 2.5 -2
v 1.9375 2.5 -2.5
v 1.9375 0.5 -2
v 1.9375 0.5 -2.5
v 0.0625 2.5 -2
v 0.0625 2.5 -2.5
v 0.0625 0.5 -2
v 0.0625 0.5 -2.5
vt 0.439453125 0.80859375
vt 0.423828125 0.80859375
vt 0.423828125 0.74609375
vt 0.439453125 0.74609375
vt 0.48046875 0.498046875
vt 0.48046875 0.560546875
vt 0.46484375 0.560546875
vt 0.46484375 0.498046875
vt 0.46875 0.939453125
vt 0.52734375 0.939453125
vt 0.52734375 0.955078125
vt 0.46875 0.955078125
vt 0.537109375 0.7421875
vt 0.537109375 0.7578125
vt 0.478515625 0.7578125
vt 0.478515625 0.7421875
vt 0.37109375 0.87109375
vt 0.37109375 0.93359375
vt 0.3125 0.93359375
vt 0.3125 0.87109375
vt 0.3828125 0.869140625
vt 0.32421875 0.869140625
vt 0.32421875 0.806640625
vt 0.3828125 0.806640625
vn 1 0 0
vn -1 0 0
vn 0 1 0
vn 0 -1 0
vn 0 0 1
vn 0 0 -1
usemtl m_b96deadd-bef4-f163-048a-f73158edac41
f 230/901/232 229/902/232 231/903/232 232/904/232
f 235/905/233 233/906/233 234/907/233 236/908/233
f 233/909/234 229/910/234 230/911/234 234/912/234
f 232/913/235 231/914/235 235/915/235 236/916/235
f 231/917/236 229/918/236 233/919/236 235/920/236
f 234/921/237 230/922/237 232/923/237 236/924/237
o furnace_body
v 0.0625 3.125 0.625
v 0.0625 3.125 -2
v 0.0625 1.5 0.625
v 0.0625 1.5 -2
v -2.4375 3.125 0.625
v -2.4375 3.125 -2
v -2.4375 1.5 0.625
v -2.4375 1.5 -2
v -0.5625 4.4375 -0.03125
v -0.5625 4.4375 -1.34375
v -1.8125 4.4375 -0.03125
v -1.8125 4.4375 -1.34375
v -0.5625 4.9375 -0.03125
v -0.5625 4.9375 -1.34375
v -1.8125 4.9375 -0.03125
v -1.8125 4.9375 -1.34375
v 2.5 0.5 2.5
v 2.5 0.5 0.625
v -2.4375 0.5 2.5
v 0.0625 1.5 0.625
v 0.0625 1.5 -2.5
v -1.875 1.5 0.625
v -1.875 1.5 -2.5
v 0.0625 0.5 0.625
v 0.0625 0.5 -2.5
v -1.875 0.5 0.625
v -1.875 0.5 -2.5
v -1.875 1.5 -2
v -2.4375 1.5 0.625
v -2.4375 1.5 -2
v -1.875 0.5 -2
v -2.4375 0.5 0.625
v -2.4375 0.5 -2
v -1.604166666666667 3.125 -2
v -1.604166666666667 1.5 -2
v -0.7708333333333335 3.125 -2
v -0.7708333333333335 1.5 -2
v -1.604166666666667 1.5 0.625
v -0.7708333333333335 1.5 0.625
v -1.604166666666667 3.125 0.625
v -0.7708333333333335 3.125 0.625
v -1.3958333333333335 4.4375 -0.03125
v -0.9791666666666667 4.4375 -0.03125
v -1.3958333333333335 4.9375 -0.03125
v -0.9791666666666667 4.9375 -0.03125
v -1.3958333333333335 4.9375 -1.34375
v -0.9791666666666667 4.9375 -1.34375
v -1.3958333333333335 4.4375 -1.34375
v -0.9791666666666667 4.4375 -1.34375
vt 0.08203125 0.780743359375
vt 0 0.780743359375
vt 0 0.729962109375
vt 0.08203125 0.729962109375
vt 0.166015625 0.729962109375
vt 0.166015625 0.780743359375
vt 0.083984375 0.780743359375
vt 0.083984375 0.729962109375
vt 0.099609375 0.578125
vt 0.08658854166666666 0.578125
vt 0.08658854166666666 0.537109375
vt 0.099609375 0.537109375
vt 0.23828125 0.720703125
vt 0.21223958333333331 0.720703125
vt 0.21223958333333331 0.638671875
vt 0.23828125 0.638671875
vt 0.158203125 0.6650806640625
vt 0.13216145833333331 0.6650806640625
vt 0.13216145833333331 0.6142994140625
vt 0.158203125 0.6142994140625
vt 0 0.61429921875
vt 0.02604166666666667 0.61429921875
vt 0.02604166666666667 0.66508046875
vt 0 0.66508046875
vt 0.138671875 0.7109375
vt 0.12565104166666666 0.7109375
vt 0.13216145833333331 0.6650806640625
vt 0.158203125 0.6650806640625
vt 0.0615234375 0.826171875
vt 0.0205078125 0.826171875
vt 0 0.780743359375
vt 0.08203125 0.780743359375
vt 0 0.66508046875
vt 0.02604166666666667 0.66508046875
vt 0.032552083333333336 0.7109375
vt 0.01953125 0.7109375
vt 0.1455078125 0.826171875
vt 0.1044921875 0.826171875
vt 0.083984375 0.780743359375
vt 0.166015625 0.780743359375
vt 0.138671875 0.7265625
vt 0.12565104166666666 0.7265625
vt 0.12565104166666666 0.7109375
vt 0.138671875 0.7109375
vt 0.0615234375 0.841796875
vt 0.0205078125 0.841796875
vt 0.0205078125 0.826171875
vt 0.0615234375 0.826171875
vt 0.01953125 0.7109375
vt 0.032552083333333336 0.7109375
vt 0.032552083333333336 0.7265625
vt 0.01953125 0.7265625
vt 0.1455078125 0.841796875
vt 0.1044921875 0.841796875
vt 0.1044921875 0.826171875
vt 0.1455078125 0.826171875
vt 0.322265625 0.72265625
vt 0.322265625 0.78125
vt 0.16796875 0.78125
vt 0.16796875 0.72265625
vt 0.421875 0.8046875
vt 0.32421875 0.8046875
vt 0.32421875 0.7734375
vt 0.421875 0.7734375
vt 0.421875 0.740234375
vt 0.421875 0.771484375
vt 0.32421875 0.771484375
vt 0.32421875 0.740234375
vt 0.240234375 0.623046875
vt 0.30078125 0.623046875
vt 0.30078125 0.720703125
vt 0.240234375 0.720703125
vt 0.36328125 0.623046875
vt 0.36328125 0.720703125
vt 0.302734375 0.720703125
vt 0.302734375 0.623046875
vt 0.4453125 0.810546875
vt 0.4453125 0.841796875
vt 0.384765625 0.841796875
vt 0.384765625 0.810546875
vt 0.060546875 0.611328125
vt 0 0.611328125
vt 0 0.580078125
vt 0.060546875 0.580078125
vt 0.447265625 0.73828125
vt 0.365234375 0.73828125
vt 0.365234375 0.70703125
vt 0.447265625 0.70703125
vt 0.447265625 0.673828125
vt 0.447265625 0.705078125
vt 0.365234375 0.705078125
vt 0.365234375 0.673828125
vt 0.0703125 0.453125
vt 0.087890625 0.453125
vt 0.087890625 0.53515625
vt 0.0703125 0.53515625
vt 0.482421875 0.759765625
vt 0.482421875 0.841796875
vt 0.46484375 0.841796875
vt 0.46484375 0.759765625
vt 0.08984375 0.810546875
vt 0.08984375 0.841796875
vt 0.072265625 0.841796875
vt 0.072265625 0.810546875
vt 0.0859375 0.7265625
vt 0.068359375 0.7265625
vt 0.068359375 0.6953125
vt 0.0859375 0.6953125
vt 0.078125 0.66508046875
vt 0.05208333333333334 0.66508046875
vt 0.05208333333333334 0.61429921875
vt 0.078125 0.61429921875
vt 0.05208333333333334 0.66508046875
vt 0.02604166666666667 0.66508046875
vt 0.02604166666666667 0.61429921875
vt 0.05208333333333334 0.61429921875
vt 0.16015625 0.638671875
vt 0.18619791666666666 0.638671875
vt 0.18619791666666666 0.720703125
vt 0.16015625 0.720703125
vt 0.18619791666666666 0.638671875
vt 0.21223958333333331 0.638671875
vt 0.21223958333333331 0.720703125
vt 0.18619791666666666 0.720703125
vt 0.080078125 0.6142994140625
vt 0.10611979166666666 0.6142994140625
vt 0.10611979166666666 0.6650806640625
vt 0.080078125 0.6650806640625
vt 0.10611979166666666 0.6142994140625
vt 0.13216145833333331 0.6142994140625
vt 0.13216145833333331 0.6650806640625
vt 0.10611979166666666 0.6650806640625
vt 0.080078125 0.6650806640625
vt 0.10611979166666666 0.6650806640625
vt 0.11263020833333333 0.7109375
vt 0.099609375 0.7109375
vt 0.10611979166666666 0.6650806640625
vt 0.13216145833333331 0.6650806640625
vt 0.12565104166666666 0.7109375
vt 0.11263020833333333 0.7109375
vt 0.099609375 0.7109375
vt 0.11263020833333333 0.7109375
vt 0.11263020833333333 0.7265625
vt 0.099609375 0.7265625
vt 0.11263020833333333 0.7109375
vt 0.12565104166666666 0.7109375
vt 0.12565104166666666 0.7265625
vt 0.11263020833333333 0.7265625
vt 0.060546875 0.537109375
vt 0.07356770833333333 0.537109375
vt 0.07356770833333333 0.578125
vt 0.060546875 0.578125
vt 0.07356770833333333 0.537109375
vt 0.08658854166666666 0.537109375
vt 0.08658854166666666 0.578125
vt 0.07356770833333333 0.578125
vt 0.05859375 0.7265625
vt 0.04557291666666667 0.7265625
vt 0.04557291666666667 0.7109375
vt 0.05859375 0.7109375
vt 0.04557291666666667 0.7265625
vt 0.032552083333333336 0.7265625
vt 0.032552083333333336 0.7109375
vt 0.04557291666666667 0.7109375
vt 0.05859375 0.7109375
vt 0.04557291666666667 0.7109375
vt 0.05208333333333334 0.66508046875
vt 0.078125 0.66508046875
vt 0.04557291666666667 0.7109375
vt 0.032552083333333336 0.7109375
vt 0.02604166666666667 0.66508046875
vt 0.05208333333333334 0.66508046875
vn 1 0 0
vn -1 0 0
vn 0 1 0
vn 0 -1 0
vn 0 0 1
vn 0 0 -1
vn 0 0.447213595499958 0.894427190999916
vn 0.9028605188239304 0.4299335803923478 0
vn 0 0.447213595499958 -0.894427190999916
vn -0.9028605188239304 0.4299335803923478 0
vn 0 0 1
vn 1 0 0
vn 0 0 -1
vn -1 0 0
vn 0 -1 0
vn 1 0 0
vn -1 0 0
vn 0 1 0
vn 0 -1 0
vn 0 0 1
vn 0 0 -1
vn 1 0 0
vn -1 0 0
vn 0 1 0
vn 0 -1 0
vn 0 0 1
vn 0 0 -1
vn 0 0 -1
vn 0 0 -1
vn 0 -1 0
vn 0 -1 0
vn 0 0 1
vn 0 0 1
vn 0 0.447213595499958 0.894427190999916
vn 0 0.447213595499958 0.894427190999916
vn 0 0 1
vn 0 0 1
vn 0 1 0
vn 0 1 0
vn 0 0 -1
vn 0 0 -1
vn 0 0.447213595499958 -0.894427190999916
vn 0 0.447213595499958 -0.894427190999916
usemtl m_b96deadd-bef4-f163-048a-f73158edac41
f 238/925/238 237/926/238 239/927/238 240/928/238
f 243/929/239 241/930/239 242/931/239 244/932/239
f 250/933/240 283/934/240 281/935/240 249/936/240
f 239/937/241 275/938/241 273/939/241 240/940/241
f 237/941/242 277/942/242 275/943/242 239/944/242
f 240/945/243 273/946/243 272/947/243 238/948/243
f 245/949/244 279/950/244 277/951/244 237/952/244
f 246/953/245 245/954/245 237/955/245 238/956/245
f 238/957/246 272/958/246 285/959/246 246/960/246
f 247/961/247 248/962/247 242/963/247 241/964/247
f 249/965/248 281/966/248 279/967/248 245/968/248
f 250/969/249 249/970/249 245/971/249 246/972/249
f 246/973/250 285/974/250 283/975/250 250/976/250
f 251/977/251 252/978/251 248/979/251 247/980/251
f 254/981/252 253/982/252 255/983/252 268/984/252
f 257/985/253 256/986/253 260/987/253 261/988/253
f 262/989/254 258/990/254 259/991/254 263/992/254
f 258/993/255 256/994/255 257/995/255 259/996/255
f 261/997/256 260/998/256 262/999/256 263/1000/256
f 260/1001/257 256/1002/257 258/1003/257 262/1004/257
f 259/1005/258 257/1006/258 261/1007/258 263/1008/258
f 264/1009/259 258/1010/259 262/1011/259 267/1012/259
f 268/1013/260 265/1014/260 266/1015/260 269/1016/260
f 265/1017/261 258/1018/261 264/1019/261 266/1020/261
f 267/1021/262 262/1022/262 268/1023/262 269/1024/262
f 262/1025/263 258/1026/263 265/1027/263 268/1028/263
f 266/1029/264 264/1030/264 267/1031/264 269/1032/264
f 242/1033/265 270/1034/265 271/1035/265 244/1036/265
f 270/1037/266 272/1038/266 273/1039/266 271/1040/266
f 244/1041/267 271/1042/267 274/1043/267 243/1044/267
f 271/1045/268 273/1046/268 275/1047/268 274/1048/268
f 243/1049/269 274/1050/269 276/1051/269 241/1052/269
f 274/1053/270 275/1054/270 277/1055/270 276/1056/270
f 241/1057/271 276/1058/271 278/1059/271 247/1060/271
f 276/1061/272 277/1062/272 279/1063/272 278/1064/272
f 247/1065/273 278/1066/273 280/1067/273 251/1068/273
f 278/1069/274 279/1070/274 281/1071/274 280/1072/274
f 251/1073/275 280/1074/275 282/1075/275 252/1076/275
f 280/1077/276 281/1078/276 283/1079/276 282/1080/276
f 252/1081/277 282/1082/277 284/1083/277 248/1084/277
f 282/1085/278 283/1086/278 285/1087/278 284/1088/278
f 248/1089/279 284/1090/279 270/1091/279 242/1092/279
f 284/1093/280 285/1094/280 272/1095/280 270/1096/280
o frame
v 2.5 1.5 2.5
v 2.5 1.5 0.625
v 2.5 0.5 2.5
v 2.5 0.5 0.625
v -2.4375 1.5 2.5
v -2.4375 0.5 2.5
v -2.4375 1.5 0.625
v -2.4375 0.5 0.625
v 2.5 0.5 2.5
v 2.5 0.5 -2.5
v 2.5 0 2.5
v 2.5 0 -2.5
v -2.4375 0.5 2.5
v -2.4375 0.5 -2.5
v -2.4375 0 2.5
v -2.4375 0 -2.5
v -1.875 0.5 -2
v -1.875 0.5 -2.5
v -2.4375 4.9375 -2
v -2.4375 4.9375 -2.5
v -2.4375 0.5 -2
v -2.4375 0.5 -2.5
v 2.5 4.9375 -2
v 2.5 0.5 -2
v 2.5 4.9375 -2.5
v 2.5 0.5 -2.5
v 1.9375 0.5 -2
v 1.9375 0.5 -2.5
v 1.9375 4.9375 -2
v 1.9375 4.375 -2
v 1.9375 4.9375 -2.5
v 1.9375 4.375 -2.5
v -1.875 4.9375 -2
v -1.875 4.9375 -2.5
v -1.875 4.375 -2
v -1.875 4.375 -2.5
v 2.5 3.625 0.625
v 2.5 3.625 0.125
v 2.5 0.5 0.625
v 2.5 0.5 0.125
v 2 3.625 0.625
v 2 3.625 0.125
v 2 0.5 0.625
v 2 0.5 0.125
v 0.5625 3.625 0.625
v 0.0625 3.625 0.625
v 0.5625 0.5 0.625
v 0.0625 0.5 0.625
v 0.5625 3.625 0.125
v 0.5625 0.5 0.125
v 0.0625 3.625 0.125
v 0.0625 0.5 0.125
v 0.5625 3.625 -1.5
v 0.0625 3.625 -1.5
v 0.5625 0.5 -1.5
v 0.0625 0.5 -1.5
v 0.5625 3.625 -2
v 0.5625 0.5 -2
v 0.0625 3.625 -2
v 0.0625 0.5 -2
v 2.5 3.625 -1.5
v 2 3.625 -1.5
v 2.5 0.5 -1.5
v 2 0.5 -1.5
v 2.5 3.625 -2
v 2.5 0.5 -2
v 2 3.625 -2
v 2 0.5 -2
v -0.5 3.125 2.5
v -0.5 3.125 2.375
v -1 3.125 2.5
v -1 3.125 2.375
v -0.5 1.5 2.5
v -0.5 1.5 2.375
v -1 1.5 2.5
v -1 1.5 2.375
v -2.4375 1.5625 1.625
v -2.4375 1.5625 1.5
v -2.4375 1.5 1.625
v -2.4375 1.5 1.5
v -1.9375 1.5625 1.625
v -1.9375 1.5625 1.5
v -1.9375 1.5 1.625
v -1.9375 1.5 1.5
v -0.5 3.125 0.75
v -0.5 3.125 0.625
v -1 3.125 0.75
v -1 3.125 0.625
v -0.5 1.5 0.75
v -0.5 1.5 0.625
v -1 1.5 0.75
v -1 1.5 0.625
v -1 1.5625 2.5
v -1 1.5 2.5
v -1 1.5625 2.375
v -1 1.5 2.375
v 0 1.5625 2.5
v 0 1.5625 2.375
v -0.5 1.5625 2.5
v -0.5 1.5625 2.375
v -0.5 1.5 2.5
v -0.5 1.5 2.375
v 0 1.5 2.5
v 0 1.5 2.375
v 2.5 1.5625 2.5
v 2.5 1.5625 2.375
v 2.5 1.5 2.5
v 2.5 1.5 2.375
v 2.5 1.5625 2.375
v 2.5 1.5625 0.625
v 2.5 1.5 2.375
v 2.5 1.5 0.625
v 2.375 1.5625 2.375
v 2.375 1.5625 0.625
v 2.375 1.5 2.375
v 2.375 1.5 0.625
v -0.5 3.1875 2.375
v -0.5 3.1875 0.75
v -0.5 2.6875 2.375
v -0.5 2.6875 0.75
v -1 3.1875 2.375
v -1 3.1875 0.75
v -1 2.6875 2.375
v -1 2.6875 0.75
v -0.5 3.25 2.3125
v -0.5 3.25 0.8125
v -1 3.25 2.3125
v -1 3.25 0.8125
v -0.5 3.375 2.3125
v -0.5 3.375 0.8125
v -1 3.375 2.3125
v -1 3.375 0.8125
vt 0.12109375 0.611328125
vt 0.0625 0.611328125
vt 0.0625 0.580078125
vt 0.12109375 0.580078125
vt 0.05859375 0.546875
vt 0.05859375 0.578125
vt 0 0.578125
vt 0 0.546875
vt 0.16796875 0.783203125
vt 0.322265625 0.783203125
vt 0.322265625 0.841796875
vt 0.16796875 0.841796875
vt 0.466796875 0.96875
vt 0.466796875 1
vt 0.3125 1
vt 0.3125 0.96875
vt 0.466796875 0.966796875
vt 0.3125 0.966796875
vt 0.3125 0.935546875
vt 0.466796875 0.935546875
vt 0.521484375 0.671875
vt 0.365234375 0.671875
vt 0.365234375 0.65625
vt 0.521484375 0.65625
vt 0.521484375 0.638671875
vt 0.521484375 0.654296875
vt 0.365234375 0.654296875
vt 0.365234375 0.638671875
vt 0 0.84375
vt 0.154296875 0.84375
vt 0.154296875 1
vt 0 1
vt 0.310546875 0.84375
vt 0.310546875 1
vt 0.15625 1
vt 0.15625 0.84375
vt 0.51953125 0.62109375
vt 0.51953125 0.63671875
vt 0.365234375 0.63671875
vt 0.365234375 0.62109375
vt 0.52734375 0.93359375
vt 0.373046875 0.93359375
vt 0.373046875 0.91796875
vt 0.52734375 0.91796875
vt 0.25390625 0.62109375
vt 0.23828125 0.62109375
vt 0.23828125 0.482421875
vt 0.25390625 0.482421875
vt 0.271484375 0.482421875
vt 0.271484375 0.62109375
vt 0.255859375 0.62109375
vt 0.255859375 0.482421875
vt 0 0.826171875
vt 0.017578125 0.826171875
vt 0.017578125 0.841796875
vt 0 0.841796875
vt 0.166015625 0.826171875
vt 0.166015625 0.841796875
vt 0.1484375 0.841796875
vt 0.1484375 0.826171875
vt 0.177734375 0.498046875
vt 0.177734375 0.63671875
vt 0.16015625 0.63671875
vt 0.16015625 0.498046875
vt 0.197265625 0.63671875
vt 0.1796875 0.63671875
vt 0.1796875 0.498046875
vt 0.197265625 0.498046875
vt 0.2890625 0.62109375
vt 0.2734375 0.62109375
vt 0.2734375 0.482421875
vt 0.2890625 0.482421875
vt 0.306640625 0.482421875
vt 0.306640625 0.62109375
vt 0.291015625 0.62109375
vt 0.291015625 0.482421875
vt 0.32421875 0.72265625
vt 0.341796875 0.72265625
vt 0.341796875 0.73828125
vt 0.32421875 0.73828125
vt 0.361328125 0.72265625
vt 0.361328125 0.73828125
vt 0.34375 0.73828125
vt 0.34375 0.72265625
vt 0.216796875 0.498046875
vt 0.216796875 0.63671875
vt 0.19921875 0.63671875
vt 0.19921875 0.498046875
vt 0.236328125 0.63671875
vt 0.21875 0.63671875
vt 0.21875 0.498046875
vt 0.236328125 0.498046875
vt 0.015625 0.7265625
vt 0 0.7265625
vt 0 0.708984375
vt 0.015625 0.708984375
vt 0.158203125 0.708984375
vt 0.158203125 0.7265625
vt 0.142578125 0.7265625
vt 0.142578125 0.708984375
vt 0.30859375 0.583984375
vt 0.427734375 0.583984375
vt 0.427734375 0.599609375
vt 0.30859375 0.599609375
vt 0.427734375 0.56640625
vt 0.427734375 0.58203125
vt 0.30859375 0.58203125
vt 0.30859375 0.56640625
vt 0.427734375 0.6015625
vt 0.427734375 0.619140625
vt 0.30859375 0.619140625
vt 0.30859375 0.6015625
vt 0.50390625 0.861328125
vt 0.384765625 0.861328125
vt 0.384765625 0.84375
vt 0.50390625 0.84375
vt 0.138671875 0.611328125
vt 0.123046875 0.611328125
vt 0.123046875 0.513671875
vt 0.138671875 0.513671875
vt 0.15625 0.513671875
vt 0.15625 0.611328125
vt 0.140625 0.611328125
vt 0.140625 0.513671875
vt 0.388671875 0.884765625
vt 0.404296875 0.884765625
vt 0.404296875 0.900390625
vt 0.388671875 0.900390625
vt 0.47265625 0.900390625
vt 0.47265625 0.916015625
vt 0.45703125 0.916015625
vt 0.45703125 0.900390625
vt 0.1171875 0.48046875
vt 0.1171875 0.578125
vt 0.1015625 0.578125
vt 0.1015625 0.48046875
vt 0.4453125 0.619140625
vt 0.4296875 0.619140625
vt 0.4296875 0.521484375
vt 0.4453125 0.521484375
vt 0.32421875 0.564453125
vt 0.30859375 0.564453125
vt 0.30859375 0.466796875
vt 0.32421875 0.466796875
vt 0.341796875 0.466796875
vt 0.341796875 0.564453125
vt 0.326171875 0.564453125
vt 0.326171875 0.466796875
vt 0.505859375 0.810546875
vt 0.521484375 0.810546875
vt 0.521484375 0.826171875
vt 0.505859375 0.826171875
vt 0.533203125 0.603515625
vt 0.533203125 0.619140625
vt 0.517578125 0.619140625
vt 0.517578125 0.603515625
vt 0.359375 0.466796875
vt 0.359375 0.564453125
vt 0.34375 0.564453125
vt 0.34375 0.466796875
vt 0.376953125 0.564453125
vt 0.361328125 0.564453125
vt 0.361328125 0.466796875
vt 0.376953125 0.466796875
vt 0.39453125 0.564453125
vt 0.37890625 0.564453125
vt 0.37890625 0.466796875
vt 0.39453125 0.466796875
vt 0.412109375 0.466796875
vt 0.412109375 0.564453125
vt 0.396484375 0.564453125
vt 0.396484375 0.466796875
vt 0.236328125 0.46484375
vt 0.251953125 0.46484375
vt 0.251953125 0.48046875
vt 0.236328125 0.48046875
vt 0.26953125 0.46484375
vt 0.26953125 0.48046875
vt 0.25390625 0.48046875
vt 0.25390625 0.46484375
vt 0.462890625 0.744140625
vt 0.462890625 0.841796875
vt 0.447265625 0.841796875
vt 0.447265625 0.744140625
vt 0.462890625 0.619140625
vt 0.447265625 0.619140625
vt 0.447265625 0.521484375
vt 0.462890625 0.521484375
vt 0.015625 0.544921875
vt 0 0.544921875
vt 0 0.447265625
vt 0.015625 0.447265625
vt 0.033203125 0.447265625
vt 0.033203125 0.544921875
vt 0.017578125 0.544921875
vt 0.017578125 0.447265625
vt 0.51953125 0.724609375
vt 0.53515625 0.724609375
vt 0.53515625 0.740234375
vt 0.51953125 0.740234375
vt 0.287109375 0.46484375
vt 0.287109375 0.48046875
vt 0.271484375 0.48046875
vt 0.271484375 0.46484375
vt 0.05078125 0.447265625
vt 0.05078125 0.544921875
vt 0.03515625 0.544921875
vt 0.03515625 0.447265625
vt 0.068359375 0.53515625
vt 0.052734375 0.53515625
vt 0.052734375 0.4375
vt 0.068359375 0.4375
vt 0.525390625 0.916015625
vt 0.521484375 0.916015625
vt 0.521484375 0.865234375
vt 0.525390625 0.865234375
vt 0.107421875 0.427734375
vt 0.107421875 0.478515625
vt 0.103515625 0.478515625
vt 0.103515625 0.427734375
vt 0.392578125 0.87890625
vt 0.408203125 0.87890625
vt 0.408203125 0.8828125
vt 0.392578125 0.8828125
vt 0.439453125 0.740234375
vt 0.439453125 0.744140625
vt 0.423828125 0.744140625
vt 0.423828125 0.740234375
vt 0.15625 0.4609375
vt 0.15625 0.51171875
vt 0.140625 0.51171875
vt 0.140625 0.4609375
vt 0.517578125 0.740234375
vt 0.501953125 0.740234375
vt 0.501953125 0.689453125
vt 0.517578125 0.689453125
vt 0.068359375 0.828125
vt 0.064453125 0.828125
vt 0.064453125 0.826171875
vt 0.068359375 0.826171875
vt 0.0703125 0.822265625
vt 0.0703125 0.82421875
vt 0.06640625 0.82421875
vt 0.06640625 0.822265625
vt 0.419921875 0.912109375
vt 0.435546875 0.912109375
vt 0.435546875 0.916015625
vt 0.419921875 0.916015625
vt 0.451171875 0.86328125
vt 0.451171875 0.8671875
vt 0.435546875 0.8671875
vt 0.435546875 0.86328125
vt 0.400390625 0.806640625
vt 0.400390625 0.80859375
vt 0.384765625 0.80859375
vt 0.384765625 0.806640625
vt 0.408203125 0.904296875
vt 0.392578125 0.904296875
vt 0.392578125 0.90234375
vt 0.408203125 0.90234375
vt 0.11328125 0.478515625
vt 0.109375 0.478515625
vt 0.109375 0.427734375
vt 0.11328125 0.427734375
vt 0.525390625 0.533203125
vt 0.525390625 0.583984375
vt 0.521484375 0.583984375
vt 0.521484375 0.533203125
vt 0.478515625 0.8671875
vt 0.494140625 0.8671875
vt 0.494140625 0.87109375
vt 0.478515625 0.87109375
vt 0.498046875 0.70703125
vt 0.498046875 0.7109375
vt 0.482421875 0.7109375
vt 0.482421875 0.70703125
vt 0.51953125 0.865234375
vt 0.51953125 0.916015625
vt 0.50390625 0.916015625
vt 0.50390625 0.865234375
vt 0.173828125 0.49609375
vt 0.158203125 0.49609375
vt 0.158203125 0.4453125
vt 0.173828125 0.4453125
vt 0.46484375 0.884765625
vt 0.46484375 0.888671875
vt 0.435546875 0.916015625
vt 0.435546875 0.912109375
vt 0.544921875 0.798828125
vt 0.544921875 0.80078125
vt 0.50390625 0.80078125
vt 0.50390625 0.798828125
vt 0.48046875 0.890625
vt 0.48046875 0.89453125
vt 0.451171875 0.8671875
vt 0.451171875 0.86328125
vt 0.50390625 0.76953125
vt 0.50390625 0.767578125
vt 0.544921875 0.767578125
vt 0.544921875 0.76953125
vt 0.095703125 0.81640625
vt 0.091796875 0.81640625
vt 0.091796875 0.814453125
vt 0.095703125 0.814453125
vt 0.00390625 0.802734375
vt 0.00390625 0.8046875
vt 0 0.8046875
vt 0 0.802734375
vt 0.44921875 0.677734375
vt 0.46484375 0.677734375
vt 0.46484375 0.681640625
vt 0.44921875 0.681640625
vt 0.50390625 0.95703125
vt 0.50390625 0.9609375
vt 0.48828125 0.9609375
vt 0.48828125 0.95703125
vt 0.46484375 0.673828125
vt 0.46484375 0.67578125
vt 0.44921875 0.67578125
vt 0.44921875 0.673828125
vt 0.5625 0.9375
vt 0.546875 0.9375
vt 0.546875 0.935546875
vt 0.5625 0.935546875
vt 0.54296875 0.677734375
vt 0.54296875 0.681640625
vt 0.46484375 0.681640625
vt 0.46484375 0.677734375
vt 0.54296875 0.673828125
vt 0.54296875 0.67578125
vt 0.46484375 0.67578125
vt 0.46484375 0.673828125
vt 0.58203125 0.95703125
vt 0.58203125 0.9609375
vt 0.50390625 0.9609375
vt 0.50390625 0.95703125
vt 0.46875 0.9375
vt 0.46875 0.935546875
vt 0.546875 0.935546875
vt 0.546875 0.9375
vt 0.544921875 0.96484375
vt 0.490234375 0.96484375
vt 0.490234375 0.962890625
vt 0.544921875 0.962890625
vt 0.556640625 0.685546875
vt 0.556640625 0.6875
vt 0.501953125 0.6875
vt 0.501953125 0.685546875
vt 0.44140625 0.75390625
vt 0.4453125 0.75390625
vt 0.4453125 0.80859375
vt 0.44140625 0.80859375
vt 0.1015625 0.423828125
vt 0.1015625 0.478515625
vt 0.09765625 0.478515625
vt 0.09765625 0.423828125
vt 0.1640625 0.802734375
vt 0.1640625 0.8046875
vt 0.16015625 0.8046875
vt 0.16015625 0.802734375
vt 0.00390625 0.80078125
vt 0 0.80078125
vt 0 0.798828125
vt 0.00390625 0.798828125
vt 0.5 0.69921875
vt 0.44921875 0.69921875
vt 0.44921875 0.68359375
vt 0.5 0.68359375
vt 0.515625 0.59765625
vt 0.515625 0.61328125
vt 0.46484375 0.61328125
vt 0.46484375 0.59765625
vt 0.193359375 0.44921875
vt 0.208984375 0.44921875
vt 0.208984375 0.49609375
vt 0.193359375 0.49609375
vt 0.19140625 0.4453125
vt 0.19140625 0.49609375
vt 0.17578125 0.49609375
vt 0.17578125 0.4453125
vt 0.53515625 0.70703125
vt 0.53515625 0.72265625
vt 0.51953125 0.72265625
vt 0.51953125 0.70703125
vt 0.3046875 0.48046875
vt 0.2890625 0.48046875
vt 0.2890625 0.46484375
vt 0.3046875 0.46484375
vt 0.41796875 0.80859375
vt 0.40234375 0.80859375
vt 0.40234375 0.806640625
vt 0.41796875 0.806640625
vt 0.498046875 0.701171875
vt 0.451171875 0.701171875
vt 0.44921875 0.69921875
vt 0.5 0.69921875
vt 0.4765625 0.8984375
vt 0.4609375 0.8984375
vt 0.4609375 0.896484375
vt 0.4765625 0.896484375
vt 0.513671875 0.615234375
vt 0.466796875 0.615234375
vt 0.46484375 0.61328125
vt 0.515625 0.61328125
vt 0.5 0.740234375
vt 0.484375 0.740234375
vt 0.484375 0.736328125
vt 0.5 0.736328125
vt 0.498046875 0.705078125
vt 0.451171875 0.705078125
vt 0.451171875 0.701171875
vt 0.498046875 0.701171875
vt 0.505859375 0.97265625
vt 0.490234375 0.97265625
vt 0.490234375 0.96875
vt 0.505859375 0.96875
vt 0.513671875 0.619140625
vt 0.466796875 0.619140625
vt 0.466796875 0.615234375
vt 0.513671875 0.615234375
vn 1 0 0
vn -1 0 0
vn 0 1 0
vn 0 0 1
vn 0 0 -1
vn 1 0 0
vn -1 0 0
vn 0 1 0
vn 0 -1 0
vn 0 0 1
vn 0 0 -1
vn 1 0 0
vn -1 0 0
vn 0 1 0
vn 0 -1 0
vn 0 0 1
vn 0 0 -1
vn 1 0 0
vn -1 0 0
vn 0 1 0
vn 0 -1 0
vn 0 0 1
vn 0 0 -1
vn 1 0 0
vn -1 0 0
vn 0 1 0
vn 0 -1 0
vn 0 0 1
vn 0 0 -1
vn 1 0 0
vn -1 0 0
vn 0 1 0
vn 0 -1 0
vn 0 0 1
vn 0 0 -1
vn 1 0 0
vn -1 0 0
vn 0 1 0
vn 0 -1 0
vn 0 0 1
vn 0 0 -1
vn 1 0 0
vn -1 0 0
vn 0 1 0
vn 0 -1 0
vn 0 0 1
vn 0 0 -1
vn 1 0 0
vn -1 0 0
vn 0 1 0
vn 0 -1 0
vn 0 0 1
vn 0 0 -1
vn 1 0 0
vn -1 0 0
vn 0 1 0
vn 0 -1 0
vn 0 0 1
vn 0 0 -1
vn 1 0 0
vn -1 0 0
vn 0 1 0
vn 0 -1 0
vn 0 0 1
vn 0 0 -1
vn 1 0 0
vn -1 0 0
vn 0 1 0
vn 0 -1 0
vn 0 0 1
vn 0 0 -1
vn 0 1 0
vn -0.6823182503600111 0 0.731055268242869
vn 0 -1 0
vn 0.6823182503600111 0 -0.731055268242869
vn 1 0 0
vn -1 0 0
vn 0 1 0
vn 0 -1 0
vn 0 0 1
vn 0 0 -1
vn 0 1 0
vn 0 0 1
vn 0 -1 0
vn 0 0 -1
vn 1 0 0
vn -1 0 0
vn 0 1 0
vn 0 -1 0
vn 0 0 1
vn 0 0 -1
vn 1 0 0
vn -1 0 0
vn 0 1 0
vn 0 -1 0
vn 0 0 1
vn 0 0 -1
vn 0 0.7071067811865476 0.7071067811865476
vn 1 0 0
vn 0 0.7071067811865476 -0.7071067811865476
vn -1 0 0
vn 0 0 1
vn 1 0 0
vn 0 0 -1
vn -1 0 0
usemtl m_b96deadd-bef4-f163-048a-f73158edac41
f 287/1097/281 286/1098/281 288/1099/281 289/1100/281
f 291/1101/282 290/1102/282 292/1103/282 293/1104/282
f 290/1105/283 286/1106/283 287/1107/283 292/1108/283
f 288/1109/284 286/1110/284 290/1111/284 291/1112/284
f 292/1113/285 287/1114/285 289/1115/285 293/1116/285
f 295/1117/286 294/1118/286 296/1119/286 297/1120/286
f 300/1121/287 298/1122/287 299/1123/287 301/1124/287
f 298/1125/288 294/1126/288 295/1127/288 299/1128/288
f 297/1129/289 296/1130/289 300/1131/289 301/1132/289
f 296/1133/290 294/1134/290 298/1135/290 300/1136/290
f 299/1137/291 295/1138/291 297/1139/291 301/1140/291
f 319/1141/292 318/1142/292 302/1143/292 303/1144/292
f 306/1145/293 304/1146/293 305/1147/293 307/1148/293
f 304/1149/294 318/1150/294 319/1151/294 305/1152/294
f 303/1153/295 302/1154/295 306/1155/295 307/1156/295
f 302/1157/296 318/1158/296 304/1159/296 306/1160/296
f 305/1161/297 319/1162/297 303/1163/297 307/1164/297
f 310/1165/298 308/1166/298 309/1167/298 311/1168/298
f 312/1169/299 314/1170/299 316/1171/299 313/1172/299
f 314/1173/300 308/1174/300 310/1175/300 316/1176/300
f 311/1177/301 309/1178/301 312/1179/301 313/1180/301
f 309/1181/302 308/1182/302 314/1183/302 312/1184/302
f 316/1185/303 310/1186/303 311/1187/303 313/1188/303
f 316/1189/304 314/1190/304 315/1191/304 317/1192/304
f 320/1193/305 318/1194/305 319/1195/305 321/1196/305
f 318/1197/306 314/1198/306 316/1199/306 319/1200/306
f 317/1201/307 315/1202/307 320/1203/307 321/1204/307
f 315/1205/308 314/1206/308 318/1207/308 320/1208/308
f 319/1209/309 316/1210/309 317/1211/309 321/1212/309
f 323/1213/310 322/1214/310 324/1215/310 325/1216/310
f 328/1217/311 326/1218/311 327/1219/311 329/1220/311
f 326/1221/312 322/1222/312 323/1223/312 327/1224/312
f 325/1225/313 324/1226/313 328/1227/313 329/1228/313
f 324/1229/314 322/1230/314 326/1231/314 328/1232/314
f 327/1233/315 323/1234/315 325/1235/315 329/1236/315
f 334/1237/316 330/1238/316 332/1239/316 335/1240/316
f 333/1241/317 331/1242/317 336/1243/317 337/1244/317
f 331/1245/318 330/1246/318 334/1247/318 336/1248/318
f 335/1249/319 332/1250/319 333/1251/319 337/1252/319
f 332/1253/320 330/1254/320 331/1255/320 333/1256/320
f 336/1257/321 334/1258/321 335/1259/321 337/1260/321
f 342/1261/322 338/1262/322 340/1263/322 343/1264/322
f 341/1265/323 339/1266/323 344/1267/323 345/1268/323
f 339/1269/324 338/1270/324 342/1271/324 344/1272/324
f 343/1273/325 340/1274/325 341/1275/325 345/1276/325
f 340/1277/326 338/1278/326 339/1279/326 341/1280/326
f 344/1281/327 342/1282/327 343/1283/327 345/1284/327
f 350/1285/328 346/1286/328 348/1287/328 351/1288/328
f 349/1289/329 347/1290/329 352/1291/329 353/1292/329
f 347/1293/330 346/1294/330 350/1295/330 352/1296/330
f 351/1297/331 348/1298/331 349/1299/331 353/1300/331
f 348/1301/332 346/1302/332 347/1303/332 349/1304/332
f 352/1305/333 350/1306/333 351/1307/333 353/1308/333
f 355/1309/334 354/1310/334 358/1311/334 359/1312/334
f 360/1313/335 356/1314/335 357/1315/335 361/1316/335
f 356/1317/336 354/1318/336 355/1319/336 357/1320/336
f 359/1321/337 358/1322/337 360/1323/337 361/1324/337
f 358/1325/338 354/1326/338 356/1327/338 360/1328/338
f 357/1329/339 355/1330/339 359/1331/339 361/1332/339
f 380/1333/340 378/1334/340 379/1335/340 381/1336/340
f 364/1337/341 362/1338/341 363/1339/341 365/1340/341
f 362/1341/342 366/1342/342 367/1343/342 363/1344/342
f 369/1345/343 368/1346/343 364/1347/343 365/1348/343
f 368/1349/344 366/1350/344 362/1351/344 364/1352/344
f 363/1353/345 367/1354/345 369/1355/345 365/1356/345
f 371/1357/346 370/1358/346 374/1359/346 375/1360/346
f 376/1361/347 372/1362/347 373/1363/347 377/1364/347
f 372/1365/348 370/1366/348 371/1367/348 373/1368/348
f 375/1369/349 374/1370/349 376/1371/349 377/1372/349
f 374/1373/350 370/1374/350 372/1375/350 376/1376/350
f 373/1377/351 371/1378/351 375/1379/351 377/1380/351
f 378/1381/352 380/1382/352 367/1383/352 366/1384/352
f 379/1385/353 378/1386/353 366/1387/353 368/1388/353
f 381/1389/354 379/1390/354 368/1391/354 369/1392/354
f 380/1393/355 381/1394/355 369/1395/355 367/1396/355
f 391/1397/356 390/1398/356 392/1399/356 393/1400/356
f 386/1401/357 384/1402/357 385/1403/357 387/1404/357
f 384/1405/358 382/1406/358 383/1407/358 385/1408/358
f 389/1409/359 388/1410/359 386/1411/359 387/1412/359
f 388/1413/360 382/1414/360 384/1415/360 386/1416/360
f 385/1417/361 383/1418/361 389/1419/361 387/1420/361
f 390/1421/362 391/1422/362 383/1423/362 382/1424/362
f 392/1425/363 390/1426/363 382/1427/363 388/1428/363
f 393/1429/364 392/1430/364 388/1431/364 389/1432/364
f 391/1433/365 393/1434/365 389/1435/365 383/1436/365
f 395/1437/366 394/1438/366 396/1439/366 397/1440/366
f 400/1441/367 398/1442/367 399/1443/367 401/1444/367
f 398/1445/368 394/1446/368 395/1447/368 399/1448/368
f 397/1449/369 396/1450/369 400/1451/369 401/1452/369
f 396/1453/370 394/1454/370 398/1455/370 400/1456/370
f 399/1457/371 395/1458/371 397/1459/371 401/1460/371
f 403/1461/372 402/1462/372 404/1463/372 405/1464/372
f 408/1465/373 406/1466/373 407/1467/373 409/1468/373
f 416/1469/374 414/1470/374 415/1471/374 417/1472/374
f 405/1473/375 404/1474/375 408/1475/375 409/1476/375
f 404/1477/376 402/1478/376 406/1479/376 408/1480/376
f 407/1481/377 403/1482/377 405/1483/377 409/1484/377
f 410/1485/378 412/1486/378 406/1487/378 402/1488/378
f 411/1489/379 410/1490/379 402/1491/379 403/1492/379
f 413/1493/380 411/1494/380 403/1495/380 407/1496/380
f 412/1497/381 413/1498/381 407/1499/381 406/1500/381
f 414/1501/382 416/1502/382 412/1503/382 410/1504/382
f 415/1505/383 414/1506/383 410/1507/383 411/1508/383
f 417/1509/384 415/1510/384 411/1511/384 413/1512/384
f 416/1513/385 417/1514/385 413/1515/385 412/1516/385
o cube
v -0.4375 3 -1.9375
v -0.4375 3 -2.5
v -0.4375 2 -1.9375
v -0.4375 2 -2.5
v -1.4375 3 -1.9375
v -1.4375 3 -2.5
v -1.4375 2 -1.9375
v -1.4375 2 -2.5
vt 0.1474609375 0.8369140625
vt 0.1162109375 0.8369140625
vt 0.1162109375 0.8193359375
vt 0.1474609375 0.8193359375
vt 0.1162109375 0.8193359375
vt 0.1474609375 0.8193359375
vt 0.1474609375 0.8369140625
vt 0.1162109375 0.8369140625
vt 0.1484375 0.8203125
vt 0.1484375 0.837890625
vt 0.1171875 0.837890625
vt 0.1171875 0.8203125
vt 0.1484375 0.8203125
vt 0.1484375 0.837890625
vt 0.1171875 0.837890625
vt 0.1171875 0.8203125
vt 0.03125 0.96484375
vt 0.03125 0.99609375
vt 0 0.99609375
vt 0 0.96484375
vt 0.55859375 0.884765625
vt 0.55859375 0.916015625
vt 0.52734375 0.916015625
vt 0.52734375 0.884765625
vn 1 0 0
vn -1 0 0
vn 0 1 0
vn 0 -1 0
vn 0 0 1
vn 0 0 -1
usemtl m_b96deadd-bef4-f163-048a-f73158edac41
f 421/1517/386 419/1518/386 418/1519/386 420/1520/386
f 424/1521/387 422/1522/387 423/1523/387 425/1524/387
f 418/1525/388 419/1526/388 423/1527/388 422/1528/388
f 421/1529/389 420/1530/389 424/1531/389 425/1532/389
f 420/1533/390 418/1534/390 422/1535/390 424/1536/390
f 425/1537/391 423/1538/391 419/1539/391 421/1540/391