# Made in Blockbench 5.1.6
mtllib bulk_blast_furnace.mtl

o mesh
v -0.4375 1.875 -0.4375
v -0.4375 1.875 1.4375
v -0.4375 0 -0.4375
v -0.4375 0 1.4375
v 1.4375 1.875 -0.4375
v 1.4375 1.875 1.4375
v 1.4375 0 -0.4375
v 1.4375 0 1.4375
v -0.875 2.75 -0.875
v -0.875 2.75 1.875
v -0.4375 1.875 -0.4375
v -0.4375 1.875 1.4375
v 1.875 2.75 -0.875
v 1.875 2.75 1.875
v 1.4375 1.875 -0.4375
v 1.4375 1.875 1.4375
v -0.25 6.9375 -0.25
v -0.25 6.9375 1.25
v 1.25 6.9375 -0.25
v 1.25 6.9375 1.25
v -0.25 8 -0.25
v 1.25 8 -0.25
v 1.25 8 1.25
v -0.25 8 1.25
v -0.0625 8 -0.0625
v 1.0625 8 -0.0625
v 1.0625 8 1.0625
v -0.0625 8 1.0625
v -0.0625 7.375 -0.0625
v 1.0625 7.375 -0.0625
v 1.0625 7.375 1.0625
v -0.0625 7.375 1.0625
v 1.125 0 1.4375
v -0.125 0 1.4375
v 0.5 0 1.4375
v 0.5 0 2
v -0.4375 0 1.125
v -0.4375 0 -0.125
v -0.4375 0 0.5
v -1 0 0.5
v -0.125 0 -0.4375
v 1.125 0 -0.4375
v 0.5 0 -0.4375
v 0.5 0 -1
v 1.4375 0 -0.125
v 1.4375 0 1.125
v 1.4375 0 0.5
v 2 0 0.5
v 1.4375 0 -0.125
v 1.4375 1.8125 -0.125
v 1.4375 0 1.125
v 1.4375 1.8125 1.125
v -0.125 2 -0.4375
v 1.125 2 -0.4375
v -0.125 1.25 -1
v 1.125 1.25 -1
v -0.125 0 -1
v 1.125 0 -1
v -0.125 0 -0.4375
v -0.125 1.25 -0.4375
v 1.125 0 -0.4375
v 1.125 1.25 -0.4375
v -0.4375 2.5625 -0.125
v -0.4375 2.5625 1.125
v -1 1.8125 -0.125
v -1 1.8125 1.125
v -1 0 -0.125
v -1 0 1.125
v -0.4375 0 1.125
v -0.4375 1.8125 1.125
v -0.4375 0 -0.125
v -0.4375 1.8125 -0.125
v 1.125 2 1.4375
v -0.125 2 1.4375
v 1.125 1.25 2
v -0.125 1.25 2
v 1.125 0 2
v -0.125 0 2
v 1.125 0 1.4375
v 1.125 1.25 1.4375
v -0.125 0 1.4375
v -0.125 1.25 1.4375
v 2 1.8125 -0.125
v 1.4375 2.5625 -0.125
v 1.4375 2.5625 1.125
v 2 1.8125 1.125
v 2 0 1.125
v 2 0 -0.125
v -0.9375 1.875 0.125
v -0.9375 1.875 0.875
v -0.9375 1.125 0.125
v -0.9375 1.125 0.875
v -1.125 1.875 0.125
v -1.125 1.875 0.875
v -1.125 1.125 0.125
v -1.125 1.125 0.875
v 1.9375 1.875 0.125
v 1.9375 1.875 0.875
v 1.9375 1.125 0.125
v 1.9375 1.125 0.875
v 2.125 1.875 0.125
v 2.125 1.875 0.875
v 2.125 1.125 0.125
v 2.125 1.125 0.875
vt 0.6171875 0.9921875
vt 0.3828125 0.9921875
vt 0.3828125 0.7578125
vt 0.6171875 0.7578125
vt 0.6171875 0.7578125
vt 0.6171875 0.9921875
vt 0.3828125 0.9921875
vt 0.3828125 0.7578125
vt 0.6171875 0.5078125
vt 0.6171875 0.7421875
vt 0.3828125 0.7421875
vt 0.3828125 0.5078125
vt 0.6171875 0.7578125
vt 0.6171875 0.9921875
vt 0.3828125 0.9921875
vt 0.3828125 0.7578125
vt 0.6171875 0.9921875
vt 0.3828125 0.9921875
vt 0.3828125 0.7578125
vt 0.6171875 0.7578125
vt 0.34375 0.375
vt 0 0.375
vt 0.0546875 0.25
vt 0.2890625 0.25
vt 0.2890625 0.25
vt 0.34375 0.375
vt 0 0.375
vt 0.0546875 0.25
vt 0.2890625 0.25
vt 0.34375 0.375
vt 0 0.375
vt 0.0546875 0.25
vt 0.34375 0.375
vt 0 0.375
vt 0.0546875 0.25
vt 0.2890625 0.25
vt 0.265625 0.90625
vt 0.078125 0.90625
vt 0 0.375
vt 0.34375 0.375
vt 0.265625 0.90625
vt 0.078125 0.90625
vt 0 0.375
vt 0.34375 0.375
vt 0.265625 0.90625
vt 0.078125 0.90625
vt 0 0.375
vt 0.34375 0.375
vt 0.265625 0.90625
vt 0.078125 0.90625
vt 0 0.375
vt 0.34375 0.375
vt 0.6171875 0.5
vt 0.4296875 0.5
vt 0.4296875 0.3671875
vt 0.6171875 0.3671875
vt 0.6171875 0.5
vt 0.4296875 0.5
vt 0.4296875 0.3671875
vt 0.6171875 0.3671875
vt 0.6171875 0.5
vt 0.4296875 0.5
vt 0.4296875 0.3671875
vt 0.6171875 0.3671875
vt 0.6171875 0.5
vt 0.4296875 0.5
vt 0.4296875 0.3671875
vt 0.6171875 0.3671875
vt 0.59375 0.25
vt 0.453125 0.25
vt 0.4296875 0.2734375
vt 0.6171875 0.2734375
vt 0.453125 0.25
vt 0.59375 0.25
vt 0.6171875 0.2734375
vt 0.4296875 0.2734375
vt 0.453125 0.25
vt 0.59375 0.25
vt 0.6171875 0.2734375
vt 0.4296875 0.2734375
vt 0.453125 0.25
vt 0.59375 0.25
vt 0.6171875 0.2734375
vt 0.4296875 0.2734375
vt 0.59375 0.28125
vt 0.453125 0.28125
vt 0.453125 0.359375
vt 0.59375 0.359375
vt 0.59375 0.28125
vt 0.453125 0.28125
vt 0.453125 0.359375
vt 0.59375 0.359375
vt 0.59375 0.28125
vt 0.453125 0.28125
vt 0.453125 0.359375
vt 0.59375 0.359375
vt 0.59375 0.28125
vt 0.453125 0.28125
vt 0.453125 0.359375
vt 0.59375 0.359375
vt 0.53125 0.28125
vt 0.53125 0.2890625
vt 0.5390625 0.2890625
vt 0.5390625 0.28125
vt 0.3828125 0.5078125
vt 0.3828125 0.5859375
vt 0.453125 0.5859375
vt 0.453125 0.5078125
vt 0.453125 0.7421875
vt 0.453125 0.6640625
vt 0.3828125 0.6640625
vt 0.3828125 0.7421875
vt 0.3828125 0.5078125
vt 0.3828125 0.5859375
vt 0.453125 0.5859375
vt 0.453125 0.5078125
vt 0.453125 0.7421875
vt 0.453125 0.6640625
vt 0.3828125 0.6640625
vt 0.3828125 0.7421875
vt 0.3828125 0.5078125
vt 0.3828125 0.5859375
vt 0.453125 0.5859375
vt 0.453125 0.5078125
vt 0.453125 0.7421875
vt 0.453125 0.6640625
vt 0.3828125 0.6640625
vt 0.3828125 0.7421875
vt 0.3828125 0.5078125
vt 0.3828125 0.5859375
vt 0.453125 0.5859375
vt 0.453125 0.5078125
vt 0.453125 0.7421875
vt 0.453125 0.6640625
vt 0.3828125 0.6640625
vt 0.3828125 0.7421875
vt 0.9453125 0.3203125
vt 0.875 0.3203125
vt 0.875 0.546875
vt 0.9453125 0.546875
vt 0.875 0.546875
vt 0.875 0.3203125
vt 0.9453125 0.3203125
vt 0.9453125 0.546875
vt 0.875 0.546875
vt 0.9453125 0.546875
vt 0.875 0.6484375
vt 0.6328125 0.4375
vt 0.6328125 0.59375
vt 0.7890625 0.59375
vt 0.7890625 0.4375
vt 0.6328125 0.875
vt 0.6328125 0.9921875
vt 0.7890625 0.9921875
vt 0.7890625 0.875
vt 0.796875 0.3828125
vt 0.8671875 0.3828125
vt 0.8671875 0.5390625
vt 0.796875 0.5390625
vt 0.796875 0.5390625
vt 0.8671875 0.5390625
vt 0.8671875 0.640625
vt 0.8671875 0.5390625
vt 0.8671875 0.3828125
vt 0.796875 0.3828125
vt 0.796875 0.5390625
vt 0.8671875 0.5390625
vt 0.796875 0.5390625
vt 0.8671875 0.640625
vt 0.796875 0.875
vt 0.953125 0.875
vt 0.953125 0.6484375
vt 0.796875 0.6484375
vt 0.796875 0.9921875
vt 0.953125 0.9921875
vt 0.953125 0.875
vt 0.796875 0.875
vt 0.9453125 0.3203125
vt 0.875 0.3203125
vt 0.875 0.546875
vt 0.9453125 0.546875
vt 0.9453125 0.546875
vt 0.875 0.546875
vt 0.875 0.6484375
vt 0.875 0.546875
vt 0.875 0.3203125
vt 0.9453125 0.3203125
vt 0.9453125 0.546875
vt 0.875 0.546875
vt 0.9453125 0.546875
vt 0.875 0.6484375
vt 0.6328125 0.4375
vt 0.6328125 0.59375
vt 0.7890625 0.59375
vt 0.7890625 0.4375
vt 0.6328125 0.59375
vt 0.6328125 0.7109375
vt 0.7890625 0.7109375
vt 0.7890625 0.59375
vt 0.796875 0.3828125
vt 0.8671875 0.3828125
vt 0.8671875 0.5390625
vt 0.796875 0.5390625
vt 0.796875 0.5390625
vt 0.8671875 0.5390625
vt 0.8671875 0.640625
vt 0.8671875 0.5390625
vt 0.8671875 0.3828125
vt 0.796875 0.3828125
vt 0.796875 0.5390625
vt 0.8671875 0.5390625
vt 0.796875 0.5390625
vt 0.8671875 0.640625
vt 0.796875 0.875
vt 0.953125 0.875
vt 0.953125 0.6484375
vt 0.796875 0.6484375
vt 0.796875 0.9921875
vt 0.953125 0.9921875
vt 0.953125 0.875
vt 0.796875 0.875
vt 0.9453125 0.546875
vt 0.875 0.546875
vt 0.875 0.6484375
vt 0.5 0.1484375
vt 0.5 0.2421875
vt 0.59375 0.2421875
vt 0.59375 0.1484375
vt 0.5 0.2421875
vt 0.59375 0.2421875
vt 0.59375 0.1484375
vt 0.5 0.1484375
vt 0.6171875 0.2421875
vt 0.6171875 0.1484375
vt 0.59375 0.1484375
vt 0.59375 0.2421875
vt 0.59375 0.2421875
vt 0.6171875 0.2421875
vt 0.6171875 0.1484375
vt 0.59375 0.1484375
vt 0.59375 0.2421875
vt 0.6171875 0.2421875
vt 0.6171875 0.1484375
vt 0.59375 0.1484375
vt 0.6171875 0.1484375
vt 0.6171875 0.2421875
vt 0.59375 0.2421875
vt 0.59375 0.1484375
vt 0.59375 0.2421875
vt 0.5 0.2421875
vt 0.5 0.1484375
vt 0.59375 0.1484375
vt 0.59375 0.1484375
vt 0.59375 0.2421875
vt 0.5 0.2421875
vt 0.5 0.1484375
vt 0.59375 0.1484375
vt 0.6171875 0.1484375
vt 0.6171875 0.2421875
vt 0.59375 0.2421875
vt 0.6171875 0.1484375
vt 0.6171875 0.2421875
vt 0.59375 0.2421875
vt 0.59375 0.1484375
vt 0.6171875 0.1484375
vt 0.6171875 0.2421875
vt 0.59375 0.2421875
vt 0.59375 0.1484375
vt 0.59375 0.2421875
vt 0.6171875 0.2421875
vt 0.6171875 0.1484375
vt 0.59375 0.1484375
vn -1 0 0
vn 1 0 0
vn 0 -1 0
vn 0 0 -1
vn 0 0 1
vn -0.894427 -0.447214 0
vn 0.894427 -0.447214 0
vn 0 -0.447214 -0.894427
vn 0 -0.447214 0.894427
vn 0 0.147619 -0.989044
vn -0.989044 0.147619 0
vn 0 0.147619 0.989044
vn 0.989044 0.147619 0
vn 0 0 -1
vn 1 0 0
vn 0 0 1
vn -1 0 0
vn 0 1 0
vn 0 1 0
vn 0 1 0
vn 0 1 0
vn 0 0 1
vn -1 0 0
vn 0 0 -1
vn 1 0 0
vn 0 1 0
vn 0 -1 0
vn 0 -1 0
vn 0 -1 0
vn 0 -1 0
vn 0 -1 0
vn 0 -1 0
vn 0 -1 0
vn 0 -1 0
vn 0 0 -1
vn 0 0 1
vn 0 0 1
vn 0 0 -1
vn 0 0.6 -0.8
vn -1 0 0
vn -1 0 0
vn 1 0 0
vn 1 0 0
vn -1 0 0
vn -0.8 0.6 0
vn 0 0 1
vn 0 0 1
vn 0 0 -1
vn 0 0 -1
vn 0 0 1
vn 0 0.6 0.8
vn 1 0 0
vn 1 0 0
vn -1 0 0
vn -1 0 0
vn 1 0 0
vn 0.8 0.6 0
vn 0 0 -1
vn 1 0 0
vn -1 0 0
vn 0 1 0
vn 0 -1 0
vn 0 0 -1
vn 0 0 1
vn -1 0 0
vn 1 0 0
vn 0 1 0
vn 0 -1 0
vn 0 0 -1
vn 0 0 1
usemtl bulk_blast_furnace
f 2/1/1 1/2/1 3/3/1 4/4/1
f 7/5/2 5/6/2 6/7/2 8/8/2
f 4/9/3 3/10/3 7/11/3 8/12/3
f 3/13/4 1/14/4 5/15/4 7/16/4
f 6/17/5 2/18/5 4/19/5 8/20/5
f 10/21/6 9/22/6 11/23/6 12/24/6
f 15/25/7 13/26/7 14/27/7 16/28/7
f 11/29/8 9/30/8 13/31/8 15/32/8
f 14/33/9 10/34/9 12/35/9 16/36/9
f 17/37/10 19/38/10 13/39/10 9/40/10
f 18/41/11 17/42/11 9/43/11 10/44/11
f 20/45/12 18/46/12 10/47/12 14/48/12
f 19/49/13 20/50/13 14/51/13 13/52/13
f 21/53/14 22/54/14 19/55/14 17/56/14
f 22/57/15 23/58/15 20/59/15 19/60/15
f 23/61/16 24/62/16 18/63/16 20/64/16
f 24/65/17 21/66/17 17/67/17 18/68/17
f 25/69/18 26/70/18 22/71/18 21/72/18
f 26/73/19 27/74/19 23/75/19 22/76/19
f 27/77/20 28/78/20 24/79/20 23/80/20
f 28/81/21 25/82/21 21/83/21 24/84/21
f 29/85/22 30/86/22 26/87/22 25/88/22
f 30/89/23 31/90/23 27/91/23 26/92/23
f 31/93/24 32/94/24 28/95/24 27/96/24
f 32/97/25 29/98/25 25/99/25 28/100/25
f 31/101/26 30/102/26 29/103/26 32/104/26
f 77/105/27 36/106/27 35/107/27 33/108/27
f 34/109/28 35/110/28 36/111/28 78/112/28
f 68/113/29 40/114/29 39/115/29 37/116/29
f 38/117/30 39/118/30 40/119/30 67/120/30
f 57/121/31 44/122/31 43/123/31 41/124/31
f 42/125/32 43/126/32 44/127/32 58/128/32
f 88/129/33 48/130/33 47/131/33 45/132/33
f 46/133/34 47/134/34 48/135/34 87/136/34
f 88/137/35 49/138/35 50/139/35 83/140/35
f 52/141/36 51/142/36 87/143/36 86/144/36
f 52/145/37 86/146/37 85/147/37
f 57/148/38 55/149/38 56/150/38 58/151/38
f 55/152/39 53/153/39 54/154/39 56/155/39
f 57/156/40 59/157/40 60/158/40 55/159/40
f 55/160/41 60/161/41 53/162/41
f 62/163/42 61/164/42 58/165/42 56/166/42
f 62/167/43 56/168/43 54/169/43
f 66/170/44 65/171/44 67/172/44 68/173/44
f 64/174/45 63/175/45 65/176/45 66/177/45
f 68/178/46 69/179/46 70/180/46 66/181/46
f 66/182/47 70/183/47 64/184/47
f 72/185/48 71/186/48 67/187/48 65/188/48
f 72/189/49 65/190/49 63/191/49
f 77/192/50 75/193/50 76/194/50 78/195/50
f 75/196/51 73/197/51 74/198/51 76/199/51
f 77/200/52 79/201/52 80/202/52 75/203/52
f 75/204/53 80/205/53 73/206/53
f 82/207/54 81/208/54 78/209/54 76/210/54
f 82/211/55 76/212/55 74/213/55
f 83/214/56 86/215/56 87/216/56 88/217/56
f 84/218/57 85/219/57 86/220/57 83/221/57
f 83/222/58 50/223/58 84/224/58
f 91/225/59 89/226/59 90/227/59 92/228/59
f 94/229/60 93/230/60 95/231/60 96/232/60
f 90/233/61 89/234/61 93/235/61 94/236/61
f 95/237/62 91/238/62 92/239/62 96/240/62
f 93/241/63 89/242/63 91/243/63 95/244/63
f 92/245/64 90/246/64 94/247/64 96/248/64
f 98/249/65 97/250/65 99/251/65 100/252/65
f 103/253/66 101/254/66 102/255/66 104/256/66
f 101/257/67 97/258/67 98/259/67 102/260/67
f 100/261/68 99/262/68 103/263/68 104/264/68
f 99/265/69 97/266/69 101/267/69 103/268/69
f 102/269/70 98/270/70 100/271/70 104/272/70