# Blender 4.2.3 LTS
# www.blender.org
mtllib rotarykiln.mtl
o cube
v 0.000000 3.000000 2.000000
v -2.000000 3.000000 2.000000
v 0.000000 2.000000 2.000000
v -2.000000 2.000000 2.000000
v 0.000000 3.000000 -1.000000
v -2.000000 3.000000 -1.000000
v 0.000000 2.000000 -1.000000
v -2.000000 2.000000 -1.000000
v 0.000000 2.000000 2.000000
v -2.000000 2.000000 2.000000
v 0.000000 1.000000 2.000000
v -1.000000 1.000000 2.000000
v 0.000000 2.000000 -1.000000
v -2.000000 2.000000 -1.000000
v 0.000000 1.000000 -1.000000
v -1.000000 1.000000 -1.000000
v 0.000000 1.000000 2.000000
v -1.000000 1.000000 2.000000
v 0.000000 -0.000000 2.000000
v -1.000000 -0.000000 2.000000
v 0.000000 1.000000 -1.000000
v -1.000000 1.000000 -1.000000
v 0.000000 0.000000 -1.000000
v -1.000000 0.000000 -1.000000
v -1.250000 2.000000 2.000000
v -1.250000 2.500000 2.000000
v -0.500000 2.500000 2.000000
v -0.500000 2.000000 2.000000
v -0.500000 2.000000 2.000000
v -0.500000 1.750000 2.000000
v -1.250000 1.750000 2.000000
v -1.250000 2.000000 2.000000
v -1.000000 0.500000 0.000000
v -2.000000 0.500000 0.000000
v -1.000000 0.000000 0.000000
v -2.000000 0.000000 0.000000
v -1.000000 0.500000 -1.000000
v -2.000000 0.500000 -1.000000
v -1.000000 0.000000 -1.000000
v -2.000000 0.000000 -1.000000
v -2.000000 0.250000 0.000000
v -1.000000 0.250000 0.000000
v -1.000000 0.250000 -1.000000
v -2.000000 0.250000 -1.000000
v -1.000000 0.500000 2.000000
v -2.000000 0.500000 2.000000
v -1.000000 -0.000000 2.000000
v -2.000000 -0.000000 2.000000
v -1.000000 0.500000 1.000000
v -2.000000 0.500000 1.000000
v -1.000000 0.000000 1.000000
v -2.000000 0.000000 1.000000
v -2.000000 0.250000 2.000000
v -1.000000 0.250000 2.000000
v -1.000000 0.250000 1.000000
v -2.000000 0.250000 1.000000
v 1.000000 0.500000 0.000000
v 0.000000 0.500000 0.000000
v 1.000000 0.000000 0.000000
v 0.000000 0.000000 0.000000
v 1.000000 0.500000 -1.000000
v 0.000000 0.500000 -1.000000
v 1.000000 0.000000 -1.000000
v 0.000000 0.000000 -1.000000
v 0.000000 0.250000 0.000000
v 1.000000 0.250000 0.000000
v 1.000000 0.250000 -1.000000
v 0.000000 0.250000 -1.000000
v 1.000000 0.500000 2.000000
v 0.000000 0.500000 2.000000
v 1.000000 -0.000000 2.000000
v 0.000000 -0.000000 2.000000
v 1.000000 0.500000 1.000000
v 0.000000 0.500000 1.000000
v 1.000000 0.000000 1.000000
v 0.000000 0.000000 1.000000
v 0.000000 0.250000 2.000000
v 1.000000 0.250000 2.000000
v 1.000000 0.250000 1.000000
v 0.000000 0.250000 1.000000
v 3.000000 0.500000 2.000000
v 2.000000 0.500000 2.000000
v 3.000000 -0.000000 2.000000
v 2.000000 -0.000000 2.000000
v 3.000000 0.500000 1.000000
v 2.000000 0.500000 1.000000
v 3.000000 0.000000 1.000000
v 2.000000 0.000000 1.000000
v 2.000000 0.250000 2.000000
v 3.000000 0.250000 2.000000
v 3.000000 0.250000 1.000000
v 2.000000 0.250000 1.000000
v 3.000000 0.500000 0.000000
v 2.000000 0.500000 0.000000
v 3.000000 0.000000 0.000000
v 2.000000 0.000000 0.000000
v 3.000000 0.500000 -1.000000
v 2.000000 0.500000 -1.000000
v 3.000000 0.000000 -1.000000
v 2.000000 0.000000 -1.000000
v 2.000000 0.250000 0.000000
v 3.000000 0.250000 0.000000
v 3.000000 0.250000 -1.000000
v 2.000000 0.250000 -1.000000
v 5.000000 0.500000 0.000000
v 4.000000 0.500000 0.000000
v 5.000000 0.000000 0.000000
v 4.000000 0.000000 0.000000
v 5.000000 0.500000 -1.000000
v 4.000000 0.500000 -1.000000
v 5.000000 0.000000 -1.000000
v 4.000000 0.000000 -1.000000
v 4.000000 0.250000 0.000000
v 5.000000 0.250000 0.000000
v 5.000000 0.250000 -1.000000
v 4.000000 0.250000 -1.000000
v 5.000000 0.500000 2.000000
v 4.000000 0.500000 2.000000
v 5.000000 -0.000000 2.000000
v 4.000000 -0.000000 2.000000
v 5.000000 0.500000 1.000000
v 4.000000 0.500000 1.000000
v 5.000000 0.000000 1.000000
v 4.000000 0.000000 1.000000
v 4.000000 0.250000 2.000000
v 5.000000 0.250000 2.000000
v 5.000000 0.250000 1.000000
v 4.000000 0.250000 1.000000
v 3.250000 3.000000 1.750000
v 3.750000 3.000000 1.750000
v 3.250000 3.000000 1.250000
v 3.750000 3.000000 1.250000
v 3.250000 2.687500 1.750000
v 3.750000 2.687500 1.750000
v 3.250000 2.687500 1.250000
v 3.750000 2.687500 1.250000
v 3.250000 3.000000 0.750000
v 3.750000 3.000000 0.750000
v 3.250000 3.000000 0.250000
v 3.750000 3.000000 0.250000
v 3.250000 2.687500 0.750000
v 3.750000 2.687500 0.750000
v 3.250000 2.687500 0.250000
v 3.750000 2.687500 0.250000
v 3.250000 3.000000 -0.250000
v 3.750000 3.000000 -0.250000
v 3.250000 3.000000 -0.750000
v 3.750000 3.000000 -0.750000
v 3.250000 2.687500 -0.250000
v 3.750000 2.687500 -0.250000
v 3.250000 2.687500 -0.750000
v 3.750000 2.687500 -0.750000
v 1.102253 1.125000 -0.186081
v 0.940491 1.125000 -0.789784
v 1.102253 0.500000 -0.186081
v 0.940491 0.500000 -0.789784
v 1.705956 1.125000 -0.347843
v 1.544194 1.125000 -0.951547
v 1.705956 0.500000 -0.347843
v 1.544194 0.500000 -0.951547
v 0.957921 2.649193 1.312500
v 0.459823 2.692770 1.312500
v 0.816293 1.030376 1.312500
v 0.318195 1.073954 1.312500
v 0.957921 2.649193 -0.312500
v 0.459823 2.692770 -0.312500
v 0.816293 1.030376 -0.312500
v 0.318195 1.073954 -0.312500
v 2.701262 2.496670 1.312500
v 2.203164 2.540248 1.312500
v 2.559633 0.877854 1.312500
v 2.061536 0.921432 1.312500
v 2.701262 2.496670 -0.312500
v 2.203164 2.540248 -0.312500
v 2.559634 0.877854 -0.312500
v 2.061536 0.921432 -0.312500
v 6.000000 3.000000 0.000000
v 5.000000 3.000000 0.000000
v 6.000000 0.000000 0.000000
v 5.000000 0.000000 0.000000
v 6.000000 3.000000 -1.000000
v 5.000000 3.000000 -1.000000
v 6.000000 0.000000 -1.000000
v 5.000000 0.000000 -1.000000
v 6.000000 3.000000 2.000000
v 5.000000 3.000000 2.000000
v 6.000000 -0.000000 2.000000
v 5.000000 -0.000000 2.000000
v 6.000000 3.000000 1.000000
v 5.000000 3.000000 1.000000
v 6.000000 0.000000 1.000000
v 5.000000 0.000000 1.000000
v 4.000000 2.750000 2.000000
v 3.000000 2.750000 2.000000
v 4.000000 -0.000000 2.000000
v 3.000000 -0.000000 2.000000
v 4.000000 2.750000 -1.000000
v 3.000000 2.750000 -1.000000
v 4.000000 0.000000 -1.000000
v 3.000000 0.000000 -1.000000
v 3.000000 0.500000 1.000000
v 2.000000 0.500000 1.000000
v 3.000000 0.000000 1.000000
v 2.000000 0.000000 1.000000
v 3.000000 0.500000 0.000000
v 2.000000 0.500000 0.000000
v 3.000000 0.000000 0.000000
v 2.000000 0.000000 0.000000
v 2.000000 0.500000 0.000000
v 1.000000 0.500000 0.000000
v 2.000000 0.000000 0.000000
v 1.000000 0.000000 0.000000
v 2.000000 0.500000 -1.000000
v 1.000000 0.500000 -1.000000
v 2.000000 0.000000 -1.000000
v 1.000000 0.000000 -1.000000
v 2.000000 0.500000 2.000000
v 1.000000 0.500000 2.000000
v 2.000000 -0.000000 2.000000
v 1.000000 -0.000000 2.000000
v 2.000000 0.500000 1.000000
v 1.000000 0.500000 1.000000
v 2.000000 0.000000 1.000000
v 1.000000 0.000000 1.000000
v 4.000000 2.750000 2.000000
v 3.000000 2.750000 2.000000
v 4.000000 2.750000 1.000000
v 3.000000 2.750000 1.000000
v 4.000000 2.750000 1.000000
v 3.000000 2.750000 1.000000
v 4.000000 2.750000 0.000000
v 3.000000 2.750000 0.000000
v 4.000000 2.750000 0.000000
v 3.000000 2.750000 0.000000
v 4.000000 2.750000 -1.000000
v 3.000000 2.750000 -1.000000
v 6.000000 0.500000 1.000000
v 5.000000 0.500000 1.000000
v 6.000000 0.000000 1.000000
v 5.000000 0.000000 1.000000
v 6.000000 0.500000 0.000000
v 5.000000 0.500000 0.000000
v 6.000000 0.000000 0.000000
v 5.000000 0.000000 0.000000
v 5.000000 0.500000 1.000000
v 4.000000 0.500000 1.000000
v 5.000000 0.000000 1.000000
v 4.000000 0.000000 1.000000
v 5.000000 0.500000 0.000000
v 4.000000 0.500000 0.000000
v 5.000000 0.000000 0.000000
v 4.000000 0.000000 0.000000
v 5.437500 2.625000 1.437500
v 3.812500 2.625000 1.437500
v 5.437500 0.750000 1.437500
v 3.812500 0.750000 1.437500
v 5.437500 2.625000 -0.437500
v 3.812500 2.625000 -0.437500
v 5.437500 0.750000 -0.437500
v 3.812500 0.750000 -0.437500
v 0.000000 2.812500 1.437500
v 0.500000 2.812500 1.437500
v 0.000000 0.937500 1.437500
v 0.500000 0.937500 1.437500
v 0.000000 2.812500 -0.437500
v 0.500000 2.812500 -0.437500
v 0.000000 0.937500 -0.437500
v 0.500000 0.937500 -0.437500
v 3.000000 2.625000 1.437500
v 2.500000 2.625000 1.437500
v 3.000000 0.750000 1.437500
v 2.500000 0.750000 1.437500
v 3.000000 2.625000 -0.437500
v 2.500000 2.625000 -0.437500
v 3.000000 0.750000 -0.437500
v 2.500000 0.750000 -0.437500
v 5.000000 1.750000 2.000000
v 4.000000 1.750000 2.000000
v 5.000000 0.500000 2.000000
v 4.000000 0.500000 2.000000
v 5.000000 2.125000 1.437500
v 4.000000 2.125000 1.437500
v 4.500000 1.750000 2.000000
v 4.500000 0.500000 2.000000
v 4.500000 2.125000 1.437500
v 5.000000 1.750000 -1.000000
v 4.000000 1.750000 -1.000000
v 5.000000 0.500000 -1.000000
v 4.000000 0.500000 -1.000000
v 5.000000 2.125000 -0.437500
v 4.000000 2.125000 -0.437500
v 4.500000 1.750000 -1.000000
v 4.500000 0.500000 -1.000000
v 4.500000 2.125000 -0.437500
v 5.937500 2.000000 0.000000
v 5.937500 2.000000 1.000000
v 5.937500 0.500000 0.000000
v 5.937500 0.500000 1.000000
v 5.375000 2.375000 0.000000
v 5.375000 2.375000 1.000000
v 5.937500 2.000000 0.500000
v 5.937500 0.500000 0.500000
v 5.579545 2.238637 0.312500
v 5.579545 2.238637 0.687500
v 5.886364 2.034091 0.687500
v 5.886364 2.034091 0.312500
v 5.614214 2.290640 0.687500
v 5.614214 2.290640 0.312500
v 5.921032 2.086094 0.312500
v 5.921032 2.086094 0.687500
v 6.000000 1.750000 0.750000
v 5.937500 1.750000 0.750000
v 6.000000 1.250000 0.750000
v 5.937500 1.250000 0.750000
v 6.000000 1.750000 0.250000
v 5.937500 1.750000 0.250000
v 6.000000 1.250000 0.250000
v 5.937500 1.250000 0.250000
v 6.000000 1.937500 0.625000
v 5.937500 1.937500 0.625000
v 6.000000 1.750000 0.625000
v 5.937500 1.750000 0.625000
v 6.000000 1.937500 0.375000
v 5.937500 1.937500 0.375000
v 6.000000 1.750000 0.375000
v 5.937500 1.750000 0.375000
v 2.000000 2.000000 2.000000
v 1.000000 2.000000 2.000000
v 2.000000 1.000000 2.000000
v 1.000000 1.000000 2.000000
v 2.000000 2.000000 1.500000
v 1.000000 2.000000 1.500000
v 2.000000 1.000000 1.500000
v 1.000000 1.000000 1.500000
v 1.875000 1.000000 1.875000
v 1.750000 1.000000 1.875000
v 1.875000 0.500000 1.875000
v 1.750000 0.500000 1.875000
v 1.875000 1.000000 1.625000
v 1.750000 1.000000 1.625000
v 1.875000 0.500000 1.625000
v 1.750000 0.500000 1.625000
v 1.250000 1.000000 1.875000
v 1.125000 1.000000 1.875000
v 1.250000 0.500000 1.875000
v 1.125000 0.500000 1.875000
v 1.250000 1.000000 1.625000
v 1.125000 1.000000 1.625000
v 1.250000 0.500000 1.625000
v 1.125000 0.500000 1.625000
v 3.625000 2.875000 1.250000
v 3.375000 2.875000 1.250000
v 3.625000 2.625000 1.250000
v 3.375000 2.625000 1.250000
v 3.625000 2.875000 0.750000
v 3.375000 2.875000 0.750000
v 3.625000 2.625000 0.750000
v 3.375000 2.625000 0.750000
v 3.625000 2.875000 0.250000
v 3.375000 2.875000 0.250000
v 3.625000 2.625000 0.250000
v 3.375000 2.625000 0.250000
v 3.625000 2.875000 -0.250000
v 3.375000 2.875000 -0.250000
v 3.625000 2.625000 -0.250000
v 3.375000 2.625000 -0.250000
v 3.000000 0.750000 1.562500
v 3.000000 0.750000 1.812500
v 3.000000 0.500000 1.562500
v 3.000000 0.500000 1.812500
v 2.500000 0.750000 1.562500
v 2.500000 0.750000 1.812500
v 2.500000 0.500000 1.562500
v 2.500000 0.500000 1.812500
v 2.312500 0.750000 1.562500
v 2.312500 0.750000 1.812500
v 2.312500 0.500000 1.562500
v 2.312500 0.500000 1.812500
v 0.500000 0.750000 1.562500
v 0.500000 0.750000 1.812500
v 0.500000 0.500000 1.562500
v 0.500000 0.500000 1.812500
v 0.000000 0.750000 1.562500
v 0.000000 0.750000 1.812500
v 0.000000 0.500000 1.562500
v 0.000000 0.500000 1.812500
v 1.250000 0.750000 1.187500
v 1.250000 0.750000 1.437500
v 1.250000 0.500000 1.187500
v 1.250000 0.500000 1.437500
v 0.750000 0.750000 1.187500
v 0.750000 0.750000 1.437500
v 0.750000 0.500000 1.187500
v 0.750000 0.500000 1.437500
v 1.750000 0.750000 1.187500
v 1.750000 0.750000 1.437500
v 1.750000 0.500000 1.187500
v 1.750000 0.500000 1.437500
v 1.250000 0.750000 1.187500
v 1.250000 0.750000 1.437500
v 1.250000 0.500000 1.187500
v 1.250000 0.500000 1.437500
v 2.062500 0.750000 1.187500
v 2.062500 0.750000 1.437500
v 2.062500 0.500000 1.187500
v 2.062500 0.500000 1.437500
v 1.750000 0.750000 1.187500
v 1.750000 0.750000 1.437500
v 1.750000 0.500000 1.187500
v 1.750000 0.500000 1.437500
v 2.312500 0.750000 1.562500
v 2.312500 0.750000 1.812500
v 2.312500 0.500000 1.562500
v 2.312500 0.500000 1.812500
v 2.062500 0.750000 1.562500
v 2.062500 0.750000 1.812500
v 2.062500 0.500000 1.562500
v 2.062500 0.500000 1.812500
v 2.062500 0.750000 1.437500
v 2.062500 0.750000 1.187500
v 2.062500 0.500000 1.437500
v 2.062500 0.500000 1.187500
v 2.312500 0.750000 1.437500
v 2.312500 0.750000 1.187500
v 2.312500 0.500000 1.437500
v 2.312500 0.500000 1.187500
v 2.062500 0.750000 1.562500
v 2.312500 0.750000 1.562500
v 2.062500 0.500000 1.562500
v 2.312500 0.500000 1.562500
v 0.750000 0.750000 1.437500
v 0.750000 0.750000 1.187500
v 0.750000 0.500000 1.437500
v 0.750000 0.500000 1.187500
v 0.500000 0.750000 1.437500
v 0.500000 0.750000 1.187500
v 0.500000 0.500000 1.437500
v 0.500000 0.500000 1.187500
v 0.750000 0.750000 1.562500
v 0.500000 0.750000 1.562500
v 0.750000 0.500000 1.562500
v 0.500000 0.500000 1.562500
v 0.500000 0.750000 1.562500
v 0.500000 0.750000 1.812500
v 0.500000 0.500000 1.562500
v 0.500000 0.500000 1.812500
v 0.750000 0.750000 1.562500
v 0.750000 0.750000 1.812500
v 0.750000 0.500000 1.562500
v 0.750000 0.500000 1.812500
vn -0.0000 -0.0000 -1.0000
vn -0.0000 1.0000 -0.0000
vn 1.0000 -0.0000 -0.0000
vn -1.0000 -0.0000 -0.0000
vn -0.7071 -0.7071 -0.0000
vn -0.0000 -0.0000 1.0000
vn -0.0000 -1.0000 -0.0000
vn -0.9659 -0.0000 0.2588
vn 0.9659 -0.0000 -0.2588
vn 0.2588 -0.0000 0.9659
vn -0.2588 -0.0000 -0.9659
vn 0.0872 0.9962 -0.0000
vn -0.0872 -0.9962 -0.0000
vn 0.9962 -0.0872 -0.0000
vn -0.9962 0.0872 -0.0000
vn -0.0000 0.8321 0.5547
vn -0.0000 0.8321 -0.5547
vn 0.5547 0.8321 -0.0000
vn 0.5547 0.8320 -0.0000
vn -0.8321 0.5547 -0.0000
vn 0.8321 -0.5547 -0.0000
vt 0.818750 0.900000
vt 0.818750 1.000000
vt 0.618750 1.000000
vt 0.618750 0.900000
vt 0.606250 1.000000
vt 0.606250 0.800000
vt 0.306250 0.800000
vt 0.306250 1.000000
vt 0.300000 0.900000
vt 0.300000 1.000000
vt 0.000000 1.000000
vt 0.000000 0.900000
vt 0.306250 0.693750
vt 0.306250 0.793750
vt 0.606250 0.793750
vt 0.606250 0.693750
vt 0.818750 0.800000
vt 0.718750 0.800000
vt 0.300000 0.793750
vt 0.300000 0.893750
vt 0.000000 0.893750
vt 0.000000 0.793750
vt 0.606250 0.556250
vt 0.606250 0.693750
vt 0.306250 0.693750
vt 0.306250 0.556250
vt 0.818750 0.700000
vt 0.718750 0.700000
vt 0.000000 0.337500
vt 0.000000 0.237500
vt 0.300000 0.237500
vt 0.300000 0.337500
vt 0.300000 0.700000
vt 0.300000 0.800000
vt 0.000000 0.800000
vt 0.000000 0.700000
vt 0.606250 0.450000
vt 0.606250 0.550000
vt 0.306250 0.550000
vt 0.306250 0.450000
vt 0.693750 0.950000
vt 0.693750 0.900000
vt 0.768750 0.950000
vt 0.768750 0.900000
vt 0.693750 0.875000
vt 0.768750 0.875000
vt 0.100000 0.650000
vt 0.100000 0.625000
vt 0.200000 0.625000
vt 0.200000 0.650000
vt 0.100000 0.600000
vt 0.100000 0.700000
vt 0.000000 0.600000
vt 0.200000 0.600000
vt 0.068750 0.543750
vt 0.118750 0.543750
vt 0.118750 0.593750
vt 0.068750 0.593750
vt 0.175000 0.543750
vt 0.175000 0.593750
vt 0.143750 0.593750
vt 0.143750 0.543750
vt 0.156250 0.543750
vt 0.156250 0.593750
vt 0.125000 0.593750
vt 0.125000 0.543750
vt 0.062500 0.531250
vt 0.062500 0.593750
vt 0.000000 0.593750
vt 0.000000 0.531250
vt 0.950000 0.000000
vt 0.950000 0.162500
vt 1.000000 0.162500
vt 1.000000 0.000000
vt 0.943750 0.000000
vt 0.943750 0.162500
vt 0.781250 0.162500
vt 0.781250 0.000000
vt 0.100000 0.400000
vt 0.100000 0.500000
vt 0.000000 0.500000
vt 0.000000 0.400000
vt 1.000000 0.418750
vt 1.000000 0.693750
vt 0.900000 0.693750
vt 0.900000 0.418750
vt 0.893750 0.418750
vt 0.618750 0.418750
vt 0.618750 0.318750
vt 0.893750 0.318750
vt 0.606250 0.343750
vt 0.606250 0.443750
vt 0.306250 0.443750
vt 0.306250 0.343750
vt 0.775000 0.000000
vt 0.775000 0.275000
vt 0.475000 0.275000
vt 0.475000 0.000000
vt 0.300000 0.543750
vt 0.300000 0.593750
vt 0.200000 0.593750
vt 0.200000 0.543750
vt 0.200000 0.500000
vt 0.300000 0.500000
vt 0.300000 0.400000
vt 0.200000 0.400000
vt 0.462500 0.000000
vt 0.462500 0.187500
vt 0.300000 0.187500
vt 0.300000 0.000000
vt 0.187500 0.000000
vt 0.187500 0.187500
vt 0.000000 0.187500
vt 0.000000 0.000000
vt 0.237500 0.187500
vt 0.287500 0.187500
vt 0.287500 0.000000
vt 0.237500 0.000000
vt 0.050000 0.000000
vt 0.050000 0.125000
vt 0.000000 0.125000
vt 0.000000 0.118750
vt 0.050000 0.118750
vt 0.050000 0.187500
vt 0.187500 0.125000
vt 0.137500 0.125000
vt 0.137500 0.000000
vt 0.137500 0.187500
vt 0.137500 0.118750
vt 0.187500 0.118750
vt 0.900000 0.200000
vt 0.950000 0.200000
vt 0.950000 0.350000
vt 0.900000 0.350000
vt 1.000000 0.350000
vt 1.000000 0.200000
vt 0.968750 0.400000
vt 1.000000 0.425000
vt 0.900000 0.425000
vt 0.931250 0.400000
vt 0.900000 0.356250
vt 0.931250 0.362500
vt 1.000000 0.356250
vt 0.968750 0.362500
vt 0.968750 0.393750
vt 0.931250 0.393750
vt 0.937500 0.362500
vt 0.937500 0.400000
vt 0.968750 0.368750
vt 0.931250 0.368750
vt 0.962500 0.400000
vt 0.962500 0.362500
vt 0.975000 0.275000
vt 0.975000 0.325000
vt 0.968750 0.325000
vt 0.968750 0.275000
vt 0.931250 0.275000
vt 0.931250 0.325000
vt 0.925000 0.325000
vt 0.925000 0.275000
vt 0.975000 0.318750
vt 0.925000 0.318750
vt 0.975000 0.281250
vt 0.925000 0.281250
vt 0.962500 0.325000
vt 0.962500 0.343750
vt 0.956250 0.343750
vt 0.956250 0.325000
vt 0.943750 0.325000
vt 0.943750 0.343750
vt 0.937500 0.343750
vt 0.937500 0.325000
vt 0.962500 0.337500
vt 0.937500 0.337500
vt 0.412500 0.237500
vt 0.412500 0.337500
vt 0.312500 0.337500
vt 0.312500 0.237500
vt 0.468750 0.237500
vt 0.468750 0.337500
vt 0.418750 0.337500
vt 0.418750 0.237500
vt 0.518750 0.287500
vt 0.518750 0.337500
vt 0.506250 0.337500
vt 0.506250 0.287500
vt 0.500000 0.287500
vt 0.500000 0.337500
vt 0.475000 0.337500
vt 0.475000 0.287500
vt 0.893750 0.287500
vt 0.893750 0.312500
vt 0.868750 0.312500
vt 0.868750 0.287500
vt 0.793750 0.250000
vt 0.818750 0.250000
vt 0.818750 0.300000
vt 0.793750 0.300000
vt 0.818750 0.312500
vt 0.793750 0.312500
vt 0.793750 0.293750
vt 0.818750 0.293750
vt 0.437500 0.656250
vt 0.437500 0.631250
vt 0.443750 0.631250
vt 0.443750 0.656250
vt 0.793750 0.262500
vt 0.818750 0.262500
vt 0.793750 0.287500
vt 0.818750 0.287500
vt 0.893750 0.262500
vt 0.868750 0.262500
vt 0.818750 0.268750
vt 0.793750 0.268750
vt 0.793750 0.256250
vt 0.818750 0.256250
s 0
usemtl kiln
f 7/1/1 8/4/1 6/3/1 5/2/1
f 1/5/2 5/8/2 6/7/2 2/6/2
f 3/9/3 7/12/3 5/11/3 1/10/3
f 8/13/4 4/16/4 2/15/4 6/14/4
f 15/17/1 16/18/1 14/4/1 13/1/1
f 11/19/3 15/22/3 13/21/3 9/20/3
f 16/23/5 12/26/5 10/25/5 14/24/5
f 20/27/6 19/28/6 17/18/6 18/17/6
f 23/28/1 24/27/1 22/17/1 21/18/1
f 20/29/7 24/32/7 23/31/7 19/30/7
f 19/33/3 23/36/3 21/35/3 17/34/3
f 24/37/4 20/40/4 18/39/4 22/38/4
f 4/4/6 25/42/6 26/41/6 2/3/6
f 26/41/6 27/43/6 1/2/6 2/3/6
f 27/43/6 28/44/6 3/1/6 1/2/6
f 25/44/6 28/42/6 27/41/6 26/43/6
f 12/18/6 31/45/6 10/4/6
f 9/1/6 29/44/6 30/46/6 11/17/6
f 30/46/6 31/45/6 12/18/6 11/17/6
f 29/42/6 32/44/6 31/46/6 30/45/6
f 32/42/6 10/4/6 31/45/6
f 33/47/6 34/50/6 41/49/6 42/48/6
f 38/47/1 37/50/1 43/49/1 44/48/1
f 33/51/2 37/53/2 38/36/2 34/52/2
f 36/51/7 40/53/7 39/36/7 35/52/7
f 34/47/4 38/50/4 44/49/4 41/48/4
f 36/54/6 35/51/6 42/48/6 41/49/6
f 39/54/1 40/51/1 44/48/1 43/49/1
f 40/54/4 36/51/4 41/48/4 44/49/4
f 45/47/6 46/50/6 53/49/6 54/48/6
f 50/47/1 49/50/1 55/49/1 56/48/1
f 45/51/2 49/53/2 50/36/2 46/52/2
f 48/51/7 52/53/7 51/36/7 47/52/7
f 46/47/4 50/50/4 56/49/4 53/48/4
f 48/54/6 47/51/6 54/48/6 53/49/6
f 51/54/1 52/51/1 56/48/1 55/49/1
f 52/54/4 48/51/4 53/48/4 56/49/4
f 57/47/6 58/50/6 65/49/6 66/48/6
f 62/47/1 61/50/1 67/49/1 68/48/1
f 57/51/2 61/53/2 62/36/2 58/52/2
f 60/51/7 64/53/7 63/36/7 59/52/7
f 60/54/6 59/51/6 66/48/6 65/49/6
f 63/54/1 64/51/1 68/48/1 67/49/1
f 69/47/6 70/50/6 77/49/6 78/48/6
f 74/47/1 73/50/1 79/49/1 80/48/1
f 69/51/2 73/53/2 74/36/2 70/52/2
f 72/51/7 76/53/7 75/36/7 71/52/7
f 73/47/3 69/50/3 78/49/3 79/48/3
f 72/54/6 71/51/6 78/48/6 77/49/6
f 71/54/3 75/51/3 79/48/3 78/49/3
f 75/54/1 76/51/1 80/48/1 79/49/1
f 81/47/6 82/50/6 89/49/6 90/48/6
f 86/47/1 85/50/1 91/49/1 92/48/1
f 81/51/2 85/53/2 86/36/2 82/52/2
f 84/51/7 88/53/7 87/36/7 83/52/7
f 82/47/4 86/50/4 92/49/4 89/48/4
f 84/54/6 83/51/6 90/48/6 89/49/6
f 87/54/1 88/51/1 92/48/1 91/49/1
f 88/54/4 84/51/4 89/48/4 92/49/4
f 93/47/6 94/50/6 101/49/6 102/48/6
f 98/47/1 97/50/1 103/49/1 104/48/1
f 93/51/2 97/53/2 98/36/2 94/52/2
f 96/51/7 100/53/7 99/36/7 95/52/7
f 96/54/6 95/51/6 102/48/6 101/49/6
f 99/54/1 100/51/1 104/48/1 103/49/1
f 105/47/6 106/50/6 113/49/6 114/48/6
f 110/47/1 109/50/1 115/49/1 116/48/1
f 105/51/2 109/53/2 110/36/2 106/52/2
f 108/51/7 112/53/7 111/36/7 107/52/7
f 108/54/6 107/51/6 114/48/6 113/49/6
f 111/54/1 112/51/1 116/48/1 115/49/1
f 117/47/6 118/50/6 125/49/6 126/48/6
f 122/47/1 121/50/1 127/49/1 128/48/1
f 117/51/2 121/53/2 122/36/2 118/52/2
f 120/51/7 124/53/7 123/36/7 119/52/7
f 120/54/6 119/51/6 126/48/6 125/49/6
f 123/54/1 124/51/1 128/48/1 127/49/1
f 132/55/2 131/58/2 129/57/2 130/56/2
f 135/56/7 136/55/7 134/58/7 133/57/7
f 129/59/6 133/62/6 134/61/6 130/60/6
f 132/59/1 136/62/1 135/61/1 131/60/1
f 131/59/4 135/62/4 133/61/4 129/60/4
f 136/63/3 132/66/3 130/65/3 134/64/3
f 140/55/2 139/58/2 137/57/2 138/56/2
f 143/56/7 144/55/7 142/58/7 141/57/7
f 137/59/6 141/62/6 142/61/6 138/60/6
f 140/59/1 144/62/1 143/61/1 139/60/1
f 139/59/4 143/62/4 141/61/4 137/60/4
f 144/63/3 140/66/3 138/65/3 142/64/3
f 148/55/2 147/58/2 145/57/2 146/56/2
f 151/56/7 152/55/7 150/58/7 149/57/7
f 145/59/6 149/62/6 150/61/6 146/60/6
f 148/59/1 152/62/1 151/61/1 147/60/1
f 147/59/4 151/62/4 149/61/4 145/60/4
f 152/63/3 148/66/3 146/65/3 150/64/3
f 156/67/8 155/70/8 153/69/8 154/68/8
f 159/67/9 160/70/9 158/69/9 157/68/9
f 153/67/2 157/70/2 158/69/2 154/68/2
f 156/67/7 160/70/7 159/69/7 155/68/7
f 155/67/10 159/70/10 157/69/10 153/68/10
f 160/67/11 156/70/11 154/69/11 158/68/11
f 164/71/6 163/74/6 161/73/6 162/72/6
f 167/74/1 168/71/1 166/72/1 165/73/1
f 161/74/12 165/73/12 166/72/12 162/71/12
f 164/71/13 168/72/13 167/73/13 163/74/13
f 163/75/14 167/78/14 165/77/14 161/76/14
f 168/75/15 164/78/15 162/77/15 166/76/15
f 172/74/6 171/71/6 169/72/6 170/73/6
f 175/71/1 176/74/1 174/73/1 173/72/1
f 169/71/12 173/72/12 174/73/12 170/74/12
f 172/74/13 176/73/13 175/72/13 171/71/13
f 171/75/14 175/78/14 173/77/14 169/76/14
f 176/75/15 172/78/15 170/77/15 174/76/15
f 180/32/6 179/31/6 177/30/6 178/29/6
f 183/31/1 184/32/1 182/29/1 181/30/1
f 177/79/2 181/82/2 182/81/2 178/80/2
f 180/79/7 184/82/7 183/81/7 179/80/7
f 179/31/3 183/32/3 181/29/3 177/30/3
f 184/32/4 180/31/4 178/30/4 182/29/4
f 188/31/6 187/32/6 185/29/6 186/30/6
f 191/32/1 192/31/1 190/30/1 189/29/1
f 185/79/2 189/82/2 190/81/2 186/80/2
f 188/79/7 192/82/7 191/81/7 187/80/7
f 187/31/3 191/32/3 189/29/3 185/30/3
f 192/32/4 188/31/4 186/30/4 190/29/4
f 196/83/6 195/86/6 193/85/6 194/84/6
f 199/87/1 200/90/1 198/89/1 197/88/1
f 196/91/7 200/94/7 199/93/7 195/92/7
f 195/95/3 199/98/3 197/97/3 193/96/3
f 200/95/4 196/98/4 194/97/4 198/96/4
f 204/99/6 203/102/6 201/101/6 202/100/6
f 207/99/1 208/102/1 206/101/1 205/100/1
f 201/79/2 205/82/2 206/81/2 202/80/2
f 204/79/7 208/82/7 207/81/7 203/80/7
f 203/99/3 207/102/3 205/101/3 201/100/3
f 208/99/4 204/102/4 202/101/4 206/100/4
f 212/99/6 211/102/6 209/101/6 210/100/6
f 215/99/1 216/102/1 214/101/1 213/100/1
f 209/79/2 213/82/2 214/81/2 210/80/2
f 212/79/7 216/82/7 215/81/7 211/80/7
f 211/99/3 215/102/3 213/101/3 209/100/3
f 216/99/4 212/102/4 210/101/4 214/100/4
f 220/99/6 219/102/6 217/101/6 218/100/6
f 223/99/1 224/102/1 222/101/1 221/100/1
f 217/79/2 221/82/2 222/81/2 218/80/2
f 220/79/7 224/82/7 223/81/7 219/80/7
f 219/99/3 223/102/3 221/101/3 217/100/3
f 224/99/4 220/102/4 218/101/4 222/100/4
f 225/79/2 227/82/2 228/81/2 226/80/2
f 229/79/2 231/82/2 232/81/2 230/80/2
f 233/79/2 235/82/2 236/81/2 234/80/2
f 240/99/6 239/102/6 237/101/6 238/100/6
f 243/99/1 244/102/1 242/101/1 241/100/1
f 237/79/2 241/82/2 242/81/2 238/80/2
f 240/103/7 244/106/7 243/105/7 239/104/7
f 239/99/3 243/102/3 241/101/3 237/100/3
f 244/99/4 240/102/4 238/101/4 242/100/4
f 248/99/6 247/102/6 245/101/6 246/100/6
f 251/99/1 252/102/1 250/101/1 249/100/1
f 245/79/2 249/82/2 250/81/2 246/80/2
f 248/80/7 252/79/7 251/106/7 247/103/7
f 247/99/3 251/102/3 249/101/3 245/100/3
f 252/99/4 248/102/4 246/101/4 250/100/4
f 256/107/6 255/110/6 253/109/6 254/108/6
f 259/107/1 260/110/1 258/109/1 257/108/1
f 253/110/2 257/109/2 258/108/2 254/107/2
f 255/111/3 259/114/3 257/113/3 253/112/3
f 260/111/4 256/114/4 254/113/4 258/112/4
f 261/115/6 263/118/6 264/117/6 262/116/6
f 266/116/1 268/117/1 267/118/1 265/115/1
f 266/116/2 265/115/2 261/118/2 262/117/2
f 267/115/7 268/116/7 264/117/7 263/118/7
f 265/113/4 267/114/4 263/111/4 261/112/4
f 262/113/3 264/114/3 268/111/3 266/112/3
f 272/117/6 271/118/6 269/115/6 270/116/6
f 275/118/1 276/117/1 274/116/1 273/115/1
f 269/118/2 273/115/2 274/116/2 270/117/2
f 272/117/7 276/116/7 275/115/7 271/118/7
f 271/111/3 275/114/3 273/113/3 269/112/3
f 276/111/4 272/114/4 270/113/4 274/112/4
f 279/114/6 277/121/6 283/120/6 284/119/6
f 277/122/16 281/113/16 285/124/16 283/123/16
f 278/125/6 280/111/6 284/127/6 283/126/6
f 282/112/16 278/130/16 283/129/16 285/128/16
f 292/120/1 286/121/1 288/114/1 293/119/1
f 294/124/17 290/113/17 286/122/17 292/123/17
f 293/127/1 289/111/1 287/125/1 292/126/1
f 292/129/17 287/130/17 291/112/17 294/128/17
f 297/131/3 295/134/3 301/133/3 302/132/3
f 296/135/3 298/136/3 302/132/3 301/133/3
f 304/137/18 303/140/18 299/139/18 300/138/18
f 303/140/18 306/142/18 295/141/18 299/139/18
f 295/141/19 306/142/19 305/144/19 296/143/19
f 296/143/18 305/144/18 304/137/18 300/138/18
f 307/137/19 310/144/19 309/142/19 308/140/19
f 308/140/20 303/146/20 304/145/20 307/137/20
f 309/147/1 306/142/1 303/140/1 308/148/1
f 310/149/21 305/144/21 306/142/21 309/150/21
f 307/144/6 304/152/6 305/151/6 310/137/6
f 314/153/6 313/156/6 311/155/6 312/154/6
f 317/157/1 318/160/1 316/159/1 315/158/1
f 311/161/2 315/162/2 316/159/2 312/154/2
f 314/153/7 318/160/7 317/164/7 313/163/7
f 313/153/3 317/160/3 315/159/3 311/154/3
f 322/165/6 321/168/6 319/167/6 320/166/6
f 325/169/1 326/172/1 324/171/1 323/170/1
f 319/173/2 323/174/2 324/171/2 320/166/2
f 321/165/3 325/172/3 323/171/3 319/166/3
f 330/175/6 329/178/6 327/177/6 328/176/6
f 333/175/1 334/178/1 332/177/1 331/176/1
f 327/179/2 331/182/2 332/181/2 328/180/2
f 330/179/7 334/182/7 333/181/7 329/180/7
f 329/179/3 333/182/3 331/181/3 327/180/3
f 334/179/4 330/182/4 328/181/4 332/180/4
f 338/183/6 337/186/6 335/185/6 336/184/6
f 341/183/1 342/186/1 340/185/1 339/184/1
f 337/187/3 341/190/3 339/189/3 335/188/3
f 342/187/4 338/190/4 336/189/4 340/188/4
f 346/183/6 345/186/6 343/185/6 344/184/6
f 349/183/1 350/186/1 348/185/1 347/184/1
f 345/187/3 349/190/3 347/189/3 343/188/3
f 350/187/4 346/190/4 344/189/4 348/188/4
f 354/191/6 353/194/6 351/193/6 352/192/6
f 357/191/1 358/194/1 356/193/1 355/192/1
f 351/195/2 355/198/2 356/197/2 352/196/2
f 354/195/7 358/198/7 357/197/7 353/196/7
f 353/195/3 357/198/3 355/197/3 351/196/3
f 358/198/4 354/195/4 352/196/4 356/197/4
f 362/191/6 361/194/6 359/193/6 360/192/6
f 365/191/1 366/194/1 364/193/1 363/192/1
f 359/195/2 363/198/2 364/197/2 360/196/2
f 362/195/7 366/198/7 365/197/7 361/196/7
f 361/195/3 365/198/3 363/197/3 359/196/3
f 366/198/4 362/195/4 360/196/4 364/197/4
f 370/191/3 369/194/3 367/193/3 368/192/3
f 377/191/4 378/194/4 376/193/4 375/192/4
f 367/195/2 371/198/2 372/197/2 368/196/2
f 370/195/7 374/198/7 373/197/7 369/196/7
f 369/195/1 373/198/1 371/197/1 367/196/1
f 374/198/6 370/195/6 368/196/6 372/197/6
f 375/199/1 371/202/1 373/201/1 377/200/1
f 376/199/2 372/202/2 371/201/2 375/200/2
f 378/201/6 374/200/6 372/199/6 376/202/6
f 377/203/7 373/206/7 374/205/7 378/204/7
f 382/191/3 381/194/3 379/193/3 380/192/3
f 385/191/4 386/194/4 384/193/4 383/192/4
f 379/195/2 383/198/2 384/197/2 380/196/2
f 382/195/7 386/198/7 385/197/7 381/196/7
f 381/195/1 385/198/1 383/197/1 379/196/1
f 386/198/6 382/195/6 380/196/6 384/197/6
f 390/191/3 389/194/3 387/193/3 388/192/3
f 393/191/4 394/194/4 392/193/4 391/192/4
f 387/195/2 391/198/2 392/197/2 388/196/2
f 390/195/7 394/198/7 393/197/7 389/196/7
f 389/195/1 393/198/1 391/197/1 387/196/1
f 394/198/6 390/195/6 388/196/6 392/197/6
f 398/191/3 397/194/3 395/193/3 396/192/3
f 401/191/4 402/194/4 400/193/4 399/192/4
f 395/195/2 399/198/2 400/197/2 396/196/2
f 398/195/7 402/198/7 401/197/7 397/196/7
f 397/195/1 401/198/1 399/197/1 395/196/1
f 402/198/6 398/195/6 396/196/6 400/197/6
f 406/191/3 405/194/3 403/193/3 404/192/3
f 409/191/4 410/194/4 408/193/4 407/192/4
f 403/207/2 407/201/2 408/202/2 404/208/2
f 406/207/7 410/201/7 409/202/7 405/208/7
f 405/207/1 409/201/1 407/202/1 403/208/1
f 410/207/6 406/201/6 404/202/6 408/208/6
f 414/191/3 413/194/3 411/193/3 412/192/3
f 417/209/4 418/200/4 416/199/4 415/210/4
f 411/211/2 415/212/2 416/194/2 412/191/2
f 414/211/7 418/212/7 417/194/7 413/191/7
f 413/211/1 417/212/1 415/194/1 411/191/1
f 418/209/6 414/200/6 412/199/6 416/210/6
f 425/209/3 426/200/3 424/199/3 423/210/3
f 419/211/2 423/212/2 424/194/2 420/191/2
f 426/209/1 422/200/1 420/199/1 424/210/1
f 427/213/4 419/216/4 421/215/4 429/214/4
f 428/208/2 423/196/2 419/195/2 427/207/2
f 430/215/3 425/214/3 423/213/3 428/216/3
f 436/199/4 438/200/4 437/209/4 435/210/4
f 436/194/2 435/212/2 431/211/2 432/191/2
f 432/199/1 434/200/1 438/209/1 436/210/1
f 433/215/3 431/216/3 439/213/3 441/214/3
f 431/195/2 435/196/2 440/208/2 439/207/2
f 435/213/4 437/214/4 442/215/4 440/216/4
f 443/193/4 445/194/4 446/191/4 444/192/4
f 448/199/3 450/200/3 449/209/3 447/210/3
f 448/194/2 447/212/2 443/211/2 444/191/2
f 449/194/7 450/212/7 446/211/7 445/191/7
f 447/194/1 449/212/1 445/211/1 443/191/1
f 444/199/6 446/200/6 450/209/6 448/210/6
