# Blender 4.2.3 LTS
# www.blender.org
mtllib rotarykiln_tube.mtl
o cube
v 0.700000 0.687500 -0.687500
v -0.550000 0.687500 -0.687500
v 0.700000 -0.687500 -0.687500
v -0.550000 -0.687500 -0.687500
v 0.700000 0.687500 0.687500
v -0.550000 0.687500 0.687500
v 0.700000 -0.687500 0.687500
v -0.550000 -0.687500 0.687500
vn -0.0000 -0.0000 -1.0000
vn -0.0000 -0.0000 1.0000
vn -0.0000 1.0000 -0.0000
vn -0.0000 -1.0000 -0.0000
vn 1.0000 -0.0000 -0.0000
vn -1.0000 -0.0000 -0.0000
vt 0.856250 0.693750
vt 0.718750 0.693750
vt 0.718750 0.568750
vt 0.856250 0.568750
vt 0.856250 0.425000
vt 0.856250 0.562500
vt 0.718750 0.562500
vt 0.718750 0.425000
s 0
usemtl kiln
f 4/1/1 2/2/1 1/3/1 3/4/1
f 7/1/2 5/2/2 6/3/2 8/4/2
f 1/4/3 2/1/3 6/2/3 5/3/3
f 4/4/4 3/1/4 7/2/4 8/3/4
f 3/5/5 1/6/5 5/7/5 7/8/5
f 8/5/6 6/6/6 2/7/6 4/8/6
