# Blender 4.2.3 LTS
# www.blender.org
mtllib rotarykiln.mtl
o cube
v -0.000000 3.000000 -1.000000
v -2.000000 3.000000 -1.000000
v -0.000000 2.000000 -1.000000
v -2.000000 2.000000 -1.000000
v 0.000000 3.000000 2.000000
v -2.000000 3.000000 2.000000
v 0.000000 2.000000 2.000000
v -2.000000 2.000000 2.000000
v -0.000000 2.000000 -1.000000
v -2.000000 2.000000 -1.000000
v 0.000000 1.000000 -1.000000
v -1.000000 1.000000 -1.000000
v 0.000000 2.000000 2.000000
v -2.000000 2.000000 2.000000
v 0.000000 1.000000 2.000000
v -1.000000 1.000000 2.000000
v 0.000000 1.000000 -1.000000
v -1.000000 1.000000 -1.000000
v 0.000000 0.000000 -1.000000
v -1.000000 -0.000000 -1.000000
v 0.000000 1.000000 2.000000
v -1.000000 1.000000 2.000000
v 0.000000 0.000000 2.000000
v -1.000000 -0.000000 2.000000
v -1.250000 2.000000 -1.000000
v -1.250000 2.500000 -1.000000
v -0.500000 2.500000 -1.000000
v -0.500000 2.000000 -1.000000
v -0.500000 2.000000 -1.000000
v -0.500000 1.750000 -1.000000
v -1.250000 1.750000 -1.000000
v -1.250000 2.000000 -1.000000
v -1.000000 0.500000 1.000000
v -2.000000 0.500000 1.000000
v -1.000000 -0.000000 1.000000
v -2.000000 -0.000000 1.000000
v -1.000000 0.500000 2.000000
v -2.000000 0.500000 2.000000
v -1.000000 -0.000000 2.000000
v -2.000000 -0.000000 2.000000
v -2.000000 0.250000 1.000000
v -1.000000 0.250000 1.000000
v -1.000000 0.250000 2.000000
v -2.000000 0.250000 2.000000
v -1.000000 0.500000 -1.000000
v -2.000000 0.500000 -1.000000
v -1.000000 -0.000000 -1.000000
v -2.000000 -0.000000 -1.000000
v -1.000000 0.500000 0.000000
v -2.000000 0.500000 0.000000
v -1.000000 -0.000000 0.000000
v -2.000000 -0.000000 0.000000
v -2.000000 0.250000 -1.000000
v -1.000000 0.250000 -1.000000
v -1.000000 0.250000 0.000000
v -2.000000 0.250000 0.000000
v 1.000000 0.500000 1.000000
v 0.000000 0.500000 1.000000
v 1.000000 0.000000 1.000000
v 0.000000 0.000000 1.000000
v 1.000000 0.500000 2.000000
v 0.000000 0.500000 2.000000
v 1.000000 0.000000 2.000000
v 0.000000 0.000000 2.000000
v 0.000000 0.250000 1.000000
v 1.000000 0.250000 1.000000
v 1.000000 0.250000 2.000000
v 0.000000 0.250000 2.000000
v 1.000000 0.500000 -1.000000
v 0.000000 0.500000 -1.000000
v 1.000000 0.000000 -1.000000
v 0.000000 0.000000 -1.000000
v 1.000000 0.500000 0.000000
v 0.000000 0.500000 0.000000
v 1.000000 0.000000 0.000000
v 0.000000 0.000000 0.000000
v 0.000000 0.250000 -1.000000
v 1.000000 0.250000 -1.000000
v 1.000000 0.250000 0.000000
v 0.000000 0.250000 0.000000
v 3.000000 0.500000 -1.000000
v 2.000000 0.500000 -1.000000
v 3.000000 0.000000 -1.000000
v 2.000000 0.000000 -1.000000
v 3.000000 0.500000 -0.000000
v 2.000000 0.500000 0.000000
v 3.000000 0.000000 -0.000000
v 2.000000 0.000000 0.000000
v 2.000000 0.250000 -1.000000
v 3.000000 0.250000 -1.000000
v 3.000000 0.250000 -0.000000
v 2.000000 0.250000 0.000000
v 3.000000 0.500000 1.000000
v 2.000000 0.500000 1.000000
v 3.000000 0.000000 1.000000
v 2.000000 0.000000 1.000000
v 3.000000 0.500000 2.000000
v 2.000000 0.500000 2.000000
v 3.000000 0.000000 2.000000
v 2.000000 0.000000 2.000000
v 2.000000 0.250000 1.000000
v 3.000000 0.250000 1.000000
v 3.000000 0.250000 2.000000
v 2.000000 0.250000 2.000000
v 5.000000 0.500000 1.000000
v 4.000000 0.500000 1.000000
v 5.000000 0.000000 1.000000
v 4.000000 0.000000 1.000000
v 5.000000 0.500000 2.000000
v 4.000000 0.500000 2.000000
v 5.000000 0.000000 2.000000
v 4.000000 0.000000 2.000000
v 4.000000 0.250000 1.000000
v 5.000000 0.250000 1.000000
v 5.000000 0.250000 2.000000
v 4.000000 0.250000 2.000000
v 5.000000 0.500000 -1.000000
v 4.000000 0.500000 -1.000000
v 5.000000 0.000000 -1.000000
v 4.000000 0.000000 -1.000000
v 5.000000 0.500000 -0.000000
v 4.000000 0.500000 -0.000000
v 5.000000 0.000000 -0.000000
v 4.000000 0.000000 -0.000000
v 4.000000 0.250000 -1.000000
v 5.000000 0.250000 -1.000000
v 5.000000 0.250000 -0.000000
v 4.000000 0.250000 -0.000000
v 3.250000 3.000000 -0.750000
v 3.750000 3.000000 -0.750000
v 3.250000 3.000000 -0.250000
v 3.750000 3.000000 -0.250000
v 3.250000 2.687500 -0.750000
v 3.750000 2.687500 -0.750000
v 3.250000 2.687500 -0.250000
v 3.750000 2.687500 -0.250000
v 3.250000 3.000000 0.250000
v 3.750000 3.000000 0.250000
v 3.250000 3.000000 0.750000
v 3.750000 3.000000 0.750000
v 3.250000 2.687500 0.250000
v 3.750000 2.687500 0.250000
v 3.250000 2.687500 0.750000
v 3.750000 2.687500 0.750000
v 3.250000 3.000000 1.250000
v 3.750000 3.000000 1.250000
v 3.250000 3.000000 1.750000
v 3.750000 3.000000 1.750000
v 3.250000 2.687500 1.250000
v 3.750000 2.687500 1.250000
v 3.250000 2.687500 1.750000
v 3.750000 2.687500 1.750000
v 1.102253 1.125000 1.186081
v 0.940491 1.125000 1.789784
v 1.102253 0.500000 1.186081
v 0.940491 0.500000 1.789784
v 1.705956 1.125000 1.347843
v 1.544194 1.125000 1.951547
v 1.705956 0.500000 1.347843
v 1.544194 0.500000 1.951547
v 2.192270 2.415724 -0.187500
v 0.947026 2.524668 -0.187500
v 2.072431 1.045956 -0.187500
v 0.827187 1.154901 -0.187500
v 2.192270 2.415724 1.187500
v 0.947026 2.524668 1.187500
v 2.072431 1.045956 1.187500
v 0.827187 1.154901 1.187500
v 0.957921 2.649193 -0.312500
v 0.459823 2.692770 -0.312500
v 0.816293 1.030376 -0.312500
v 0.318195 1.073954 -0.312500
v 0.957921 2.649193 1.312500
v 0.459823 2.692770 1.312500
v 0.816293 1.030376 1.312500
v 0.318195 1.073954 1.312500
v 2.701262 2.496670 -0.312500
v 2.203164 2.540248 -0.312500
v 2.559633 0.877854 -0.312500
v 2.061536 0.921432 -0.312500
v 2.701262 2.496670 1.312500
v 2.203164 2.540248 1.312500
v 2.559634 0.877854 1.312500
v 2.061536 0.921432 1.312500
v 6.000000 3.000000 1.000000
v 5.000000 3.000000 1.000000
v 6.000000 0.000000 1.000000
v 5.000000 0.000000 1.000000
v 6.000000 3.000000 2.000000
v 5.000000 3.000000 2.000000
v 6.000000 0.000000 2.000000
v 5.000000 0.000000 2.000000
v 6.000000 3.000000 -1.000000
v 5.000000 3.000000 -1.000000
v 6.000000 0.000000 -1.000000
v 5.000000 0.000000 -1.000000
v 6.000000 3.000000 -0.000000
v 5.000000 3.000000 -0.000000
v 6.000000 0.000000 -0.000000
v 5.000000 0.000000 -0.000000
v 4.000000 2.750000 -1.000000
v 3.000000 2.750000 -1.000000
v 4.000000 0.000000 -1.000000
v 3.000000 0.000000 -1.000000
v 4.000000 2.750000 2.000000
v 3.000000 2.750000 2.000000
v 4.000000 0.000000 2.000000
v 3.000000 0.000000 2.000000
v 3.000000 0.500000 -0.000000
v 2.000000 0.500000 0.000000
v 3.000000 0.000000 -0.000000
v 2.000000 0.000000 0.000000
v 3.000000 0.500000 1.000000
v 2.000000 0.500000 1.000000
v 3.000000 0.000000 1.000000
v 2.000000 0.000000 1.000000
v 2.000000 0.500000 1.000000
v 1.000000 0.500000 1.000000
v 2.000000 0.000000 1.000000
v 1.000000 0.000000 1.000000
v 2.000000 0.500000 2.000000
v 1.000000 0.500000 2.000000
v 2.000000 0.000000 2.000000
v 1.000000 0.000000 2.000000
v 2.000000 0.500000 -1.000000
v 1.000000 0.500000 -1.000000
v 2.000000 0.000000 -1.000000
v 1.000000 0.000000 -1.000000
v 2.000000 0.500000 0.000000
v 1.000000 0.500000 0.000000
v 2.000000 0.000000 0.000000
v 1.000000 0.000000 0.000000
v 4.000000 2.750000 -1.000000
v 3.000000 2.750000 -1.000000
v 4.000000 2.750000 -0.000000
v 3.000000 2.750000 -0.000000
v 4.000000 2.750000 -0.000000
v 3.000000 2.750000 -0.000000
v 4.000000 2.750000 1.000000
v 3.000000 2.750000 1.000000
v 4.000000 2.750000 1.000000
v 3.000000 2.750000 1.000000
v 4.000000 2.750000 2.000000
v 3.000000 2.750000 2.000000
v 6.000000 0.500000 -0.000000
v 5.000000 0.500000 -0.000000
v 6.000000 0.000000 -0.000000
v 5.000000 0.000000 -0.000000
v 6.000000 0.500000 1.000000
v 5.000000 0.500000 1.000000
v 6.000000 0.000000 1.000000
v 5.000000 0.000000 1.000000
v 5.000000 0.500000 -0.000000
v 4.000000 0.500000 -0.000000
v 5.000000 0.000000 -0.000000
v 4.000000 0.000000 -0.000000
v 5.000000 0.500000 1.000000
v 4.000000 0.500000 1.000000
v 5.000000 0.000000 1.000000
v 4.000000 0.000000 1.000000
v 5.437500 2.625000 -0.437500
v 3.812500 2.625000 -0.437500
v 5.437500 0.750000 -0.437500
v 3.812500 0.750000 -0.437500
v 5.437500 2.625000 1.437500
v 3.812500 2.625000 1.437500
v 5.437500 0.750000 1.437500
v 3.812500 0.750000 1.437500
v -0.000000 2.812500 -0.437500
v 0.500000 2.812500 -0.437500
v 0.000000 0.937500 -0.437500
v 0.500000 0.937500 -0.437500
v -0.000000 2.812500 1.437500
v 0.500000 2.812500 1.437500
v 0.000000 0.937500 1.437500
v 0.500000 0.937500 1.437500
v 3.000000 2.625000 -0.437500
v 2.500000 2.625000 -0.437500
v 3.000000 0.750000 -0.437500
v 2.500000 0.750000 -0.437500
v 3.000000 2.625000 1.437500
v 2.500000 2.625000 1.437500
v 3.000000 0.750000 1.437500
v 2.500000 0.750000 1.437500
v 5.000000 1.750000 -1.000000
v 4.000000 1.750000 -1.000000
v 5.000000 0.500000 -1.000000
v 4.000000 0.500000 -1.000000
v 5.000000 2.125000 -0.437500
v 4.000000 2.125000 -0.437500
v 4.500000 1.750000 -1.000000
v 4.500000 0.500000 -1.000000
v 4.500000 2.125000 -0.437500
v 5.000000 1.750000 2.000000
v 4.000000 1.750000 2.000000
v 5.000000 0.500000 2.000000
v 4.000000 0.500000 2.000000
v 5.000000 2.125000 1.437500
v 4.000000 2.125000 1.437500
v 4.500000 1.750000 2.000000
v 4.500000 0.500000 2.000000
v 4.500000 2.125000 1.437500
v 5.937500 2.000000 1.000000
v 5.937500 2.000000 -0.000000
v 5.937500 0.500000 1.000000
v 5.937500 0.500000 -0.000000
v 5.375000 2.375000 1.000000
v 5.375000 2.375000 -0.000000
v 5.937500 2.000000 0.500000
v 5.937500 0.500000 0.500000
v 5.579545 2.238637 0.687500
v 5.579545 2.238637 0.312500
v 5.886364 2.034091 0.312500
v 5.886364 2.034091 0.687500
v 5.614214 2.290640 0.312500
v 5.614214 2.290640 0.687500
v 5.921032 2.086094 0.687500
v 5.921032 2.086094 0.312500
v 6.000000 1.750000 0.250000
v 5.937500 1.750000 0.250000
v 6.000000 1.250000 0.250000
v 5.937500 1.250000 0.250000
v 6.000000 1.750000 0.750000
v 5.937500 1.750000 0.750000
v 6.000000 1.250000 0.750000
v 5.937500 1.250000 0.750000
v 6.000000 1.937500 0.375000
v 5.937500 1.937500 0.375000
v 6.000000 1.750000 0.375000
v 5.937500 1.750000 0.375000
v 6.000000 1.937500 0.625000
v 5.937500 1.937500 0.625000
v 6.000000 1.750000 0.625000
v 5.937500 1.750000 0.625000
v 2.000000 2.000000 -1.000000
v 1.000000 2.000000 -1.000000
v 2.000000 1.000000 -1.000000
v 1.000000 1.000000 -1.000000
v 2.000000 2.000000 -0.500000
v 1.000000 2.000000 -0.500000
v 2.000000 1.000000 -0.500000
v 1.000000 1.000000 -0.500000
v 1.875000 1.000000 -0.875000
v 1.750000 1.000000 -0.875000
v 1.875000 0.500000 -0.875000
v 1.750000 0.500000 -0.875000
v 1.875000 1.000000 -0.625000
v 1.750000 1.000000 -0.625000
v 1.875000 0.500000 -0.625000
v 1.750000 0.500000 -0.625000
v 1.250000 1.000000 -0.875000
v 1.125000 1.000000 -0.875000
v 1.250000 0.500000 -0.875000
v 1.125000 0.500000 -0.875000
v 1.250000 1.000000 -0.625000
v 1.125000 1.000000 -0.625000
v 1.250000 0.500000 -0.625000
v 1.125000 0.500000 -0.625000
v 3.625000 2.875000 -0.250000
v 3.375000 2.875000 -0.250000
v 3.625000 2.625000 -0.250000
v 3.375000 2.625000 -0.250000
v 3.625000 2.875000 0.250000
v 3.375000 2.875000 0.250000
v 3.625000 2.625000 0.250000
v 3.375000 2.625000 0.250000
v 3.625000 2.875000 0.750000
v 3.375000 2.875000 0.750000
v 3.625000 2.625000 0.750000
v 3.375000 2.625000 0.750000
v 3.625000 2.875000 1.250000
v 3.375000 2.875000 1.250000
v 3.625000 2.625000 1.250000
v 3.375000 2.625000 1.250000
v 3.000000 0.750000 -0.562500
v 3.000000 0.750000 -0.812500
v 3.000000 0.500000 -0.562500
v 3.000000 0.500000 -0.812500
v 2.500000 0.750000 -0.562500
v 2.500000 0.750000 -0.812500
v 2.500000 0.500000 -0.562500
v 2.500000 0.500000 -0.812500
v 2.312500 0.750000 -0.562500
v 2.312500 0.750000 -0.812500
v 2.312500 0.500000 -0.562500
v 2.312500 0.500000 -0.812500
v 0.500000 0.750000 -0.562500
v 0.500000 0.750000 -0.812500
v 0.500000 0.500000 -0.562500
v 0.500000 0.500000 -0.812500
v 0.000000 0.750000 -0.562500
v 0.000000 0.750000 -0.812500
v 0.000000 0.500000 -0.562500
v 0.000000 0.500000 -0.812500
v 1.250000 0.750000 -0.187500
v 1.250000 0.750000 -0.437500
v 1.250000 0.500000 -0.187500
v 1.250000 0.500000 -0.437500
v 0.750000 0.750000 -0.187500
v 0.750000 0.750000 -0.437500
v 0.750000 0.500000 -0.187500
v 0.750000 0.500000 -0.437500
v 1.750000 0.750000 -0.187500
v 1.750000 0.750000 -0.437500
v 1.750000 0.500000 -0.187500
v 1.750000 0.500000 -0.437500
v 1.250000 0.750000 -0.187500
v 1.250000 0.750000 -0.437500
v 1.250000 0.500000 -0.187500
v 1.250000 0.500000 -0.437500
v 2.062500 0.750000 -0.187500
v 2.062500 0.750000 -0.437500
v 2.062500 0.500000 -0.187500
v 2.062500 0.500000 -0.437500
v 1.750000 0.750000 -0.187500
v 1.750000 0.750000 -0.437500
v 1.750000 0.500000 -0.187500
v 1.750000 0.500000 -0.437500
v 2.312500 0.750000 -0.562500
v 2.312500 0.750000 -0.812500
v 2.312500 0.500000 -0.562500
v 2.312500 0.500000 -0.812500
v 2.062500 0.750000 -0.562500
v 2.062500 0.750000 -0.812500
v 2.062500 0.500000 -0.562500
v 2.062500 0.500000 -0.812500
v 2.062500 0.750000 -0.437500
v 2.062500 0.750000 -0.187500
v 2.062500 0.500000 -0.437500
v 2.062500 0.500000 -0.187500
v 2.312500 0.750000 -0.437500
v 2.312500 0.750000 -0.187500
v 2.312500 0.500000 -0.437500
v 2.312500 0.500000 -0.187500
v 2.062500 0.750000 -0.562500
v 2.312500 0.750000 -0.562500
v 2.062500 0.500000 -0.562500
v 2.312500 0.500000 -0.562500
v 0.750000 0.750000 -0.437500
v 0.750000 0.750000 -0.187500
v 0.750000 0.500000 -0.437500
v 0.750000 0.500000 -0.187500
v 0.500000 0.750000 -0.437500
v 0.500000 0.750000 -0.187500
v 0.500000 0.500000 -0.437500
v 0.500000 0.500000 -0.187500
v 0.750000 0.750000 -0.562500
v 0.500000 0.750000 -0.562500
v 0.750000 0.500000 -0.562500
v 0.500000 0.500000 -0.562500
v 0.500000 0.750000 -0.562500
v 0.500000 0.750000 -0.812500
v 0.500000 0.500000 -0.562500
v 0.500000 0.500000 -0.812500
v 0.750000 0.750000 -0.562500
v 0.750000 0.750000 -0.812500
v 0.750000 0.500000 -0.562500
v 0.750000 0.500000 -0.812500
vn -0.0000 -0.0000 1.0000
vn -0.0000 1.0000 -0.0000
vn 1.0000 -0.0000 -0.0000
vn -1.0000 -0.0000 -0.0000
vn -0.7071 -0.7071 -0.0000
vn -0.0000 -0.0000 -1.0000
vn -0.0000 -1.0000 -0.0000
vn -0.9659 -0.0000 -0.2588
vn 0.9659 -0.0000 0.2588
vn 0.2588 -0.0000 -0.9659
vn -0.2588 -0.0000 0.9659
vn 0.0872 0.9962 -0.0000
vn -0.0872 -0.9962 -0.0000
vn 0.9962 -0.0872 -0.0000
vn -0.9962 0.0872 -0.0000
vn -0.0000 0.8321 -0.5547
vn -0.0000 0.8321 0.5547
vn 0.5547 0.8320 -0.0000
vn 0.5547 0.8321 -0.0000
vn -0.8320 0.5547 -0.0000
vn 0.8321 -0.5547 -0.0000
vt 0.818750 0.900000
vt 0.818750 1.000000
vt 0.618750 1.000000
vt 0.618750 0.900000
vt 0.606250 1.000000
vt 0.606250 0.800000
vt 0.306250 0.800000
vt 0.306250 1.000000
vt 0.300000 0.900000
vt 0.300000 1.000000
vt 0.000000 1.000000
vt 0.000000 0.900000
vt 0.606250 0.693750
vt 0.606250 0.793750
vt 0.306250 0.793750
vt 0.306250 0.693750
vt 0.818750 0.800000
vt 0.718750 0.800000
vt 0.300000 0.793750
vt 0.300000 0.893750
vt 0.000000 0.893750
vt 0.000000 0.793750
vt 0.606250 0.556250
vt 0.306250 0.556250
vt 0.818750 0.700000
vt 0.718750 0.700000
vt 0.000000 0.337500
vt 0.000000 0.237500
vt 0.300000 0.237500
vt 0.300000 0.337500
vt 0.300000 0.700000
vt 0.300000 0.800000
vt 0.000000 0.800000
vt 0.000000 0.700000
vt 0.606250 0.450000
vt 0.606250 0.550000
vt 0.306250 0.550000
vt 0.306250 0.450000
vt 0.693750 0.950000
vt 0.693750 0.900000
vt 0.768750 0.950000
vt 0.768750 0.900000
vt 0.693750 0.875000
vt 0.768750 0.875000
vt 0.100000 0.650000
vt 0.100000 0.625000
vt 0.200000 0.625000
vt 0.200000 0.650000
vt 0.100000 0.600000
vt 0.100000 0.700000
vt 0.000000 0.600000
vt 0.200000 0.600000
vt 0.068750 0.543750
vt 0.118750 0.543750
vt 0.118750 0.593750
vt 0.068750 0.593750
vt 0.175000 0.543750
vt 0.175000 0.593750
vt 0.143750 0.593750
vt 0.143750 0.543750
vt 0.156250 0.543750
vt 0.156250 0.593750
vt 0.125000 0.593750
vt 0.125000 0.543750
vt 0.062500 0.531250
vt 0.062500 0.593750
vt 0.000000 0.593750
vt 0.000000 0.531250
vt 0.856250 0.693750
vt 0.718750 0.693750
vt 0.718750 0.568750
vt 0.856250 0.568750
vt 0.425000 0.575000
vt 0.425000 0.712500
vt 0.287500 0.712500
vt 0.287500 0.575000
vt 0.425000 0.431250
vt 0.425000 0.568750
vt 0.287500 0.568750
vt 0.287500 0.431250
vt 0.950000 0.000000
vt 0.950000 0.162500
vt 1.000000 0.162500
vt 1.000000 0.000000
vt 0.943750 0.000000
vt 0.943750 0.162500
vt 0.781250 0.162500
vt 0.781250 0.000000
vt 0.100000 0.400000
vt 0.100000 0.500000
vt 0.000000 0.500000
vt 0.000000 0.400000
vt 1.000000 0.418750
vt 1.000000 0.693750
vt 0.900000 0.693750
vt 0.900000 0.418750
vt 0.893750 0.418750
vt 0.618750 0.418750
vt 0.618750 0.318750
vt 0.893750 0.318750
vt 0.606250 0.343750
vt 0.606250 0.443750
vt 0.306250 0.443750
vt 0.306250 0.343750
vt 0.775000 0.000000
vt 0.775000 0.275000
vt 0.475000 0.275000
vt 0.475000 0.000000
vt 0.300000 0.543750
vt 0.300000 0.593750
vt 0.200000 0.593750
vt 0.200000 0.543750
vt 0.200000 0.500000
vt 0.300000 0.500000
vt 0.300000 0.400000
vt 0.200000 0.400000
vt 0.462500 0.000000
vt 0.462500 0.187500
vt 0.300000 0.187500
vt 0.300000 0.000000
vt 0.187500 0.000000
vt 0.187500 0.187500
vt 0.000000 0.187500
vt 0.000000 0.000000
vt 0.237500 0.187500
vt 0.287500 0.187500
vt 0.287500 0.000000
vt 0.237500 0.000000
vt 0.050000 0.000000
vt 0.050000 0.125000
vt 0.000000 0.125000
vt 0.000000 0.118750
vt 0.050000 0.118750
vt 0.050000 0.187500
vt 0.187500 0.125000
vt 0.137500 0.125000
vt 0.137500 0.000000
vt 0.137500 0.187500
vt 0.137500 0.118750
vt 0.187500 0.118750
vt 0.900000 0.200000
vt 0.950000 0.200000
vt 0.950000 0.350000
vt 0.900000 0.350000
vt 1.000000 0.350000
vt 1.000000 0.200000
vt 0.968750 0.400000
vt 1.000000 0.425000
vt 0.900000 0.425000
vt 0.931250 0.400000
vt 0.900000 0.356250
vt 0.931250 0.362500
vt 1.000000 0.356250
vt 0.968750 0.362500
vt 0.968750 0.393750
vt 0.931250 0.393750
vt 0.937500 0.362500
vt 0.937500 0.400000
vt 0.931250 0.362500
vt 0.968750 0.368750
vt 0.931250 0.368750
vt 0.968750 0.362500
vt 0.962500 0.400000
vt 0.962500 0.362500
vt 0.975000 0.275000
vt 0.975000 0.325000
vt 0.968750 0.325000
vt 0.968750 0.275000
vt 0.931250 0.275000
vt 0.931250 0.325000
vt 0.925000 0.325000
vt 0.925000 0.275000
vt 0.975000 0.318750
vt 0.925000 0.318750
vt 0.975000 0.281250
vt 0.925000 0.281250
vt 0.962500 0.325000
vt 0.962500 0.343750
vt 0.956250 0.343750
vt 0.956250 0.325000
vt 0.943750 0.325000
vt 0.943750 0.343750
vt 0.937500 0.343750
vt 0.937500 0.325000
vt 0.962500 0.337500
vt 0.937500 0.337500
vt 0.412500 0.237500
vt 0.412500 0.337500
vt 0.312500 0.337500
vt 0.312500 0.237500
vt 0.468750 0.237500
vt 0.468750 0.337500
vt 0.418750 0.337500
vt 0.418750 0.237500
vt 0.518750 0.287500
vt 0.518750 0.337500
vt 0.506250 0.337500
vt 0.506250 0.287500
vt 0.500000 0.287500
vt 0.500000 0.337500
vt 0.475000 0.337500
vt 0.475000 0.287500
vt 0.893750 0.287500
vt 0.893750 0.312500
vt 0.868750 0.312500
vt 0.868750 0.287500
vt 0.793750 0.250000
vt 0.818750 0.250000
vt 0.818750 0.300000
vt 0.793750 0.300000
vt 0.818750 0.312500
vt 0.793750 0.312500
vt 0.793750 0.293750
vt 0.818750 0.293750
vt 0.437500 0.656250
vt 0.437500 0.631250
vt 0.443750 0.631250
vt 0.443750 0.656250
vt 0.793750 0.262500
vt 0.818750 0.262500
vt 0.793750 0.287500
vt 0.818750 0.287500
vt 0.893750 0.262500
vt 0.868750 0.262500
vt 0.818750 0.268750
vt 0.793750 0.268750
vt 0.793750 0.256250
vt 0.818750 0.256250
s 0
usemtl kiln
f 7/1/1 5/2/1 6/3/1 8/4/1
f 1/5/2 2/6/2 6/7/2 5/8/2
f 3/9/3 1/10/3 5/11/3 7/12/3
f 8/13/4 6/14/4 2/15/4 4/16/4
f 15/17/1 13/1/1 14/4/1 16/18/1
f 11/19/3 9/20/3 13/21/3 15/22/3
f 16/23/5 14/13/5 10/16/5 12/24/5
f 20/25/6 18/17/6 17/18/6 19/26/6
f 23/26/1 21/18/1 22/17/1 24/25/1
f 20/27/7 19/28/7 23/29/7 24/30/7
f 19/31/3 17/32/3 21/33/3 23/34/3
f 24/35/4 22/36/4 18/37/4 20/38/4
f 4/4/6 2/3/6 26/39/6 25/40/6
f 26/39/6 2/3/6 1/2/6 27/41/6
f 27/41/6 1/2/6 3/1/6 28/42/6
f 25/42/6 26/41/6 27/39/6 28/40/6
f 12/18/6 10/4/6 31/43/6
f 9/1/6 11/17/6 30/44/6 29/42/6
f 30/44/6 11/17/6 12/18/6 31/43/6
f 29/40/6 30/43/6 31/44/6 32/42/6
f 32/40/6 31/43/6 10/4/6
f 33/45/6 42/46/6 41/47/6 34/48/6
f 38/45/1 44/46/1 43/47/1 37/48/1
f 33/49/2 34/50/2 38/34/2 37/51/2
f 36/49/7 35/50/7 39/34/7 40/51/7
f 34/45/4 41/46/4 44/47/4 38/48/4
f 36/52/6 41/47/6 42/46/6 35/49/6
f 39/52/1 43/47/1 44/46/1 40/49/1
f 40/52/4 44/47/4 41/46/4 36/49/4
f 45/45/6 54/46/6 53/47/6 46/48/6
f 50/45/1 56/46/1 55/47/1 49/48/1
f 45/49/2 46/50/2 50/34/2 49/51/2
f 48/49/7 47/50/7 51/34/7 52/51/7
f 46/45/4 53/46/4 56/47/4 50/48/4
f 48/52/6 53/47/6 54/46/6 47/49/6
f 51/52/1 55/47/1 56/46/1 52/49/1
f 52/52/4 56/47/4 53/46/4 48/49/4
f 57/45/6 66/46/6 65/47/6 58/48/6
f 62/45/1 68/46/1 67/47/1 61/48/1
f 57/49/2 58/50/2 62/34/2 61/51/2
f 60/49/7 59/50/7 63/34/7 64/51/7
f 60/52/6 65/47/6 66/46/6 59/49/6
f 63/52/1 67/47/1 68/46/1 64/49/1
f 69/45/6 78/46/6 77/47/6 70/48/6
f 74/45/1 80/46/1 79/47/1 73/48/1
f 69/49/2 70/50/2 74/34/2 73/51/2
f 72/49/7 71/50/7 75/34/7 76/51/7
f 73/45/3 79/46/3 78/47/3 69/48/3
f 72/52/6 77/47/6 78/46/6 71/49/6
f 71/52/3 78/47/3 79/46/3 75/49/3
f 75/52/1 79/47/1 80/46/1 76/49/1
f 81/45/6 90/46/6 89/47/6 82/48/6
f 86/45/1 92/46/1 91/47/1 85/48/1
f 81/49/2 82/50/2 86/34/2 85/51/2
f 84/49/7 83/50/7 87/34/7 88/51/7
f 82/45/4 89/46/4 92/47/4 86/48/4
f 84/52/6 89/47/6 90/46/6 83/49/6
f 87/52/1 91/47/1 92/46/1 88/49/1
f 88/52/4 92/47/4 89/46/4 84/49/4
f 93/45/6 102/46/6 101/47/6 94/48/6
f 98/45/1 104/46/1 103/47/1 97/48/1
f 93/49/2 94/50/2 98/34/2 97/51/2
f 96/49/7 95/50/7 99/34/7 100/51/7
f 96/52/6 101/47/6 102/46/6 95/49/6
f 99/52/1 103/47/1 104/46/1 100/49/1
f 105/45/6 114/46/6 113/47/6 106/48/6
f 110/45/1 116/46/1 115/47/1 109/48/1
f 105/49/2 106/50/2 110/34/2 109/51/2
f 108/49/7 107/50/7 111/34/7 112/51/7
f 108/52/6 113/47/6 114/46/6 107/49/6
f 111/52/1 115/47/1 116/46/1 112/49/1
f 117/45/6 126/46/6 125/47/6 118/48/6
f 122/45/1 128/46/1 127/47/1 121/48/1
f 117/49/2 118/50/2 122/34/2 121/51/2
f 120/49/7 119/50/7 123/34/7 124/51/7
f 120/52/6 125/47/6 126/46/6 119/49/6
f 123/52/1 127/47/1 128/46/1 124/49/1
f 132/53/2 130/54/2 129/55/2 131/56/2
f 135/54/7 133/55/7 134/56/7 136/53/7
f 129/57/6 130/58/6 134/59/6 133/60/6
f 132/57/1 131/58/1 135/59/1 136/60/1
f 131/57/4 129/58/4 133/59/4 135/60/4
f 136/61/3 134/62/3 130/63/3 132/64/3
f 140/53/2 138/54/2 137/55/2 139/56/2
f 143/54/7 141/55/7 142/56/7 144/53/7
f 137/57/6 138/58/6 142/59/6 141/60/6
f 140/57/1 139/58/1 143/59/1 144/60/1
f 139/57/4 137/58/4 141/59/4 143/60/4
f 144/61/3 142/62/3 138/63/3 140/64/3
f 148/53/2 146/54/2 145/55/2 147/56/2
f 151/54/7 149/55/7 150/56/7 152/53/7
f 145/57/6 146/58/6 150/59/6 149/60/6
f 148/57/1 147/58/1 151/59/1 152/60/1
f 147/57/4 145/58/4 149/59/4 151/60/4
f 152/61/3 150/62/3 146/63/3 148/64/3
f 156/65/8 154/66/8 153/67/8 155/68/8
f 159/65/9 157/66/9 158/67/9 160/68/9
f 153/65/2 154/66/2 158/67/2 157/68/2
f 156/65/7 155/66/7 159/67/7 160/68/7
f 155/65/10 153/66/10 157/67/10 159/68/10
f 160/65/11 158/66/11 154/67/11 156/68/11
f 164/69/6 162/70/6 161/71/6 163/72/6
f 167/69/1 165/70/1 166/71/1 168/72/1
f 161/72/12 162/69/12 166/70/12 165/71/12
f 164/72/13 163/69/13 167/70/13 168/71/13
f 163/73/14 161/74/14 165/75/14 167/76/14
f 168/77/15 166/78/15 162/79/15 164/80/15
f 172/81/6 170/82/6 169/83/6 171/84/6
f 175/84/1 173/83/1 174/82/1 176/81/1
f 169/84/12 170/81/12 174/82/12 173/83/12
f 172/81/13 171/84/13 175/83/13 176/82/13
f 171/85/14 169/86/14 173/87/14 175/88/14
f 176/85/15 174/86/15 170/87/15 172/88/15
f 180/84/6 178/83/6 177/82/6 179/81/6
f 183/81/1 181/82/1 182/83/1 184/84/1
f 177/81/12 178/84/12 182/83/12 181/82/12
f 180/84/13 179/81/13 183/82/13 184/83/13
f 179/85/14 177/86/14 181/87/14 183/88/14
f 184/85/15 182/86/15 178/87/15 180/88/15
f 188/30/6 186/27/6 185/28/6 187/29/6
f 191/29/1 189/28/1 190/27/1 192/30/1
f 185/89/2 186/90/2 190/91/2 189/92/2
f 188/89/7 187/90/7 191/91/7 192/92/7
f 187/29/3 185/28/3 189/27/3 191/30/3
f 192/30/4 190/27/4 186/28/4 188/29/4
f 196/29/6 194/28/6 193/27/6 195/30/6
f 199/30/1 197/27/1 198/28/1 200/29/1
f 193/89/2 194/90/2 198/91/2 197/92/2
f 196/89/7 195/90/7 199/91/7 200/92/7
f 195/29/3 193/28/3 197/27/3 199/30/3
f 200/30/4 198/27/4 194/28/4 196/29/4
f 204/93/6 202/94/6 201/95/6 203/96/6
f 207/97/1 205/98/1 206/99/1 208/100/1
f 204/101/7 203/102/7 207/103/7 208/104/7
f 203/105/3 201/106/3 205/107/3 207/108/3
f 208/105/4 206/106/4 202/107/4 204/108/4
f 212/109/6 210/110/6 209/111/6 211/112/6
f 215/109/1 213/110/1 214/111/1 216/112/1
f 209/89/2 210/90/2 214/91/2 213/92/2
f 212/89/7 211/90/7 215/91/7 216/92/7
f 211/109/3 209/110/3 213/111/3 215/112/3
f 216/109/4 214/110/4 210/111/4 212/112/4
f 220/109/6 218/110/6 217/111/6 219/112/6
f 223/109/1 221/110/1 222/111/1 224/112/1
f 217/89/2 218/90/2 222/91/2 221/92/2
f 220/89/7 219/90/7 223/91/7 224/92/7
f 219/109/3 217/110/3 221/111/3 223/112/3
f 224/109/4 222/110/4 218/111/4 220/112/4
f 228/109/6 226/110/6 225/111/6 227/112/6
f 231/109/1 229/110/1 230/111/1 232/112/1
f 225/89/2 226/90/2 230/91/2 229/92/2
f 228/89/7 227/90/7 231/91/7 232/92/7
f 227/109/3 225/110/3 229/111/3 231/112/3
f 232/109/4 230/110/4 226/111/4 228/112/4
f 233/89/2 234/90/2 236/91/2 235/92/2
f 237/89/2 238/90/2 240/91/2 239/92/2
f 241/89/2 242/90/2 244/91/2 243/92/2
f 248/109/6 246/110/6 245/111/6 247/112/6
f 251/109/1 249/110/1 250/111/1 252/112/1
f 245/89/2 246/90/2 250/91/2 249/92/2
f 248/113/7 247/114/7 251/115/7 252/116/7
f 247/109/3 245/110/3 249/111/3 251/112/3
f 252/109/4 250/110/4 246/111/4 248/112/4
f 256/109/6 254/110/6 253/111/6 255/112/6
f 259/109/1 257/110/1 258/111/1 260/112/1
f 253/89/2 254/90/2 258/91/2 257/92/2
f 256/90/7 255/113/7 259/116/7 260/89/7
f 255/109/3 253/110/3 257/111/3 259/112/3
f 260/109/4 258/110/4 254/111/4 256/112/4
f 264/117/6 262/118/6 261/119/6 263/120/6
f 267/117/1 265/118/1 266/119/1 268/120/1
f 261/120/2 262/117/2 266/118/2 265/119/2
f 263/121/3 261/122/3 265/123/3 267/124/3
f 268/121/4 266/122/4 262/123/4 264/124/4
f 269/125/6 270/126/6 272/127/6 271/128/6
f 274/126/1 273/125/1 275/128/1 276/127/1
f 274/126/2 270/127/2 269/128/2 273/125/2
f 275/125/7 271/128/7 272/127/7 276/126/7
f 273/123/4 269/122/4 271/121/4 275/124/4
f 270/123/3 274/122/3 276/121/3 272/124/3
f 280/127/6 278/126/6 277/125/6 279/128/6
f 283/128/1 281/125/1 282/126/1 284/127/1
f 277/128/2 278/127/2 282/126/2 281/125/2
f 280/127/7 279/128/7 283/125/7 284/126/7
f 279/121/3 277/122/3 281/123/3 283/124/3
f 284/121/4 282/122/4 278/123/4 280/124/4
f 287/124/6 292/129/6 291/130/6 285/131/6
f 285/132/16 291/133/16 293/134/16 289/123/16
f 286/135/6 291/136/6 292/137/6 288/121/6
f 290/122/16 293/138/16 291/139/16 286/140/16
f 300/130/1 301/129/1 296/124/1 294/131/1
f 302/134/17 300/133/17 294/132/17 298/123/17
f 301/137/1 300/136/1 295/135/1 297/121/1
f 300/139/17 302/138/17 299/122/17 295/140/17
f 305/141/3 310/142/3 309/143/3 303/144/3
f 304/145/3 309/143/3 310/142/3 306/146/3
f 312/147/18 308/148/18 307/149/18 311/150/18
f 311/150/19 307/149/19 303/151/19 314/152/19
f 303/151/19 304/153/19 313/154/19 314/152/19
f 304/153/19 308/148/19 312/147/19 313/154/19
f 315/147/18 316/150/18 317/152/18 318/154/18
f 316/150/20 315/147/20 312/155/20 311/156/20
f 317/157/1 316/158/1 311/150/1 314/159/1
f 318/160/21 317/161/21 314/152/21 313/154/21
f 315/162/6 318/147/6 313/163/6 312/164/6
f 322/165/6 320/166/6 319/167/6 321/168/6
f 325/169/1 323/170/1 324/171/1 326/172/1
f 319/173/2 320/166/2 324/171/2 323/174/2
f 322/165/7 321/175/7 325/176/7 326/172/7
f 321/165/3 319/166/3 323/171/3 325/172/3
f 330/177/6 328/178/6 327/179/6 329/180/6
f 333/181/1 331/182/1 332/183/1 334/184/1
f 327/185/2 328/178/2 332/183/2 331/186/2
f 329/177/3 327/178/3 331/183/3 333/184/3
f 338/187/6 336/188/6 335/189/6 337/190/6
f 341/187/1 339/188/1 340/189/1 342/190/1
f 335/191/2 336/192/2 340/193/2 339/194/2
f 338/191/7 337/192/7 341/193/7 342/194/7
f 337/191/3 335/192/3 339/193/3 341/194/3
f 342/191/4 340/192/4 336/193/4 338/194/4
f 346/195/6 344/196/6 343/197/6 345/198/6
f 349/195/1 347/196/1 348/197/1 350/198/1
f 345/199/3 343/200/3 347/201/3 349/202/3
f 350/199/4 348/200/4 344/201/4 346/202/4
f 354/195/6 352/196/6 351/197/6 353/198/6
f 357/195/1 355/196/1 356/197/1 358/198/1
f 353/199/3 351/200/3 355/201/3 357/202/3
f 358/199/4 356/200/4 352/201/4 354/202/4
f 362/203/6 360/204/6 359/205/6 361/206/6
f 365/203/1 363/204/1 364/205/1 366/206/1
f 359/207/2 360/208/2 364/209/2 363/210/2
f 362/207/7 361/208/7 365/209/7 366/210/7
f 361/207/3 359/208/3 363/209/3 365/210/3
f 366/210/4 364/209/4 360/208/4 362/207/4
f 370/203/6 368/204/6 367/205/6 369/206/6
f 373/203/1 371/204/1 372/205/1 374/206/1
f 367/207/2 368/208/2 372/209/2 371/210/2
f 370/207/7 369/208/7 373/209/7 374/210/7
f 369/207/3 367/208/3 371/209/3 373/210/3
f 374/210/4 372/209/4 368/208/4 370/207/4
f 378/203/3 376/204/3 375/205/3 377/206/3
f 385/203/4 383/204/4 384/205/4 386/206/4
f 375/207/2 376/208/2 380/209/2 379/210/2
f 378/207/7 377/208/7 381/209/7 382/210/7
f 377/207/1 375/208/1 379/209/1 381/210/1
f 382/210/6 380/209/6 376/208/6 378/207/6
f 383/211/1 385/212/1 381/213/1 379/214/1
f 384/211/2 383/212/2 379/213/2 380/214/2
f 386/213/6 384/214/6 380/211/6 382/212/6
f 385/215/7 386/216/7 382/217/7 381/218/7
f 390/203/3 388/204/3 387/205/3 389/206/3
f 393/203/4 391/204/4 392/205/4 394/206/4
f 387/207/2 388/208/2 392/209/2 391/210/2
f 390/207/7 389/208/7 393/209/7 394/210/7
f 389/207/1 387/208/1 391/209/1 393/210/1
f 394/210/6 392/209/6 388/208/6 390/207/6
f 398/203/3 396/204/3 395/205/3 397/206/3
f 401/203/4 399/204/4 400/205/4 402/206/4
f 395/207/2 396/208/2 400/209/2 399/210/2
f 398/207/7 397/208/7 401/209/7 402/210/7
f 397/207/1 395/208/1 399/209/1 401/210/1
f 402/210/6 400/209/6 396/208/6 398/207/6
f 406/203/3 404/204/3 403/205/3 405/206/3
f 409/203/4 407/204/4 408/205/4 410/206/4
f 403/207/2 404/208/2 408/209/2 407/210/2
f 406/207/7 405/208/7 409/209/7 410/210/7
f 405/207/1 403/208/1 407/209/1 409/210/1
f 410/210/6 408/209/6 404/208/6 406/207/6
f 414/203/3 412/204/3 411/205/3 413/206/3
f 417/203/4 415/204/4 416/205/4 418/206/4
f 411/219/2 412/220/2 416/214/2 415/213/2
f 414/219/7 413/220/7 417/214/7 418/213/7
f 413/219/1 411/220/1 415/214/1 417/213/1
f 418/219/6 416/220/6 412/214/6 414/213/6
f 422/203/3 420/204/3 419/205/3 421/206/3
f 425/221/4 423/222/4 424/211/4 426/212/4
f 419/223/2 420/203/2 424/206/2 423/224/2
f 422/223/7 421/203/7 425/206/7 426/224/7
f 421/223/1 419/203/1 423/206/1 425/224/1
f 426/221/6 424/222/6 420/211/6 422/212/6
f 433/221/3 431/222/3 432/211/3 434/212/3
f 427/223/2 428/203/2 432/206/2 431/224/2
f 434/221/1 432/222/1 428/211/1 430/212/1
f 435/225/4 437/226/4 429/227/4 427/228/4
f 436/220/2 435/219/2 427/207/2 431/208/2
f 438/227/3 436/228/3 431/225/3 433/226/3
f 444/211/4 443/222/4 445/221/4 446/212/4
f 444/206/2 440/203/2 439/223/2 443/224/2
f 440/211/1 444/222/1 446/221/1 442/212/1
f 441/227/3 449/226/3 447/225/3 439/228/3
f 439/207/2 447/219/2 448/220/2 443/208/2
f 443/225/4 448/228/4 450/227/4 445/226/4
f 451/205/4 452/204/4 454/203/4 453/206/4
f 456/211/3 455/222/3 457/221/3 458/212/3
f 456/206/2 452/203/2 451/223/2 455/224/2
f 457/206/7 453/203/7 454/223/7 458/224/7
f 455/206/1 451/203/1 453/223/1 457/224/1
f 452/211/6 456/222/6 458/221/6 454/212/6
