# Blender 4.2.3 LTS
# www.blender.org
mtllib geothermal_exchanger.mtl
o cube_selection
v 1.000000 -2.000000 1.000000
v 1.000000 -2.000000 0.000000
v 1.000000 -3.000000 1.000000
v 1.000000 -3.000000 0.000000
v 0.000000 -2.000000 1.000000
v 0.000000 -2.000000 0.000000
v 0.000000 -3.000000 1.000000
v 0.000000 -3.000000 0.000000
v 0.000000 -2.000000 1.000000
v 0.000000 -2.000000 0.000000
v 0.000000 -3.000000 1.000000
v 0.000000 -3.000000 0.000000
v -1.000000 -2.000000 1.000000
v -1.000000 -2.000000 0.000000
v -1.000000 -3.000000 1.000000
v -1.000000 -3.000000 0.000000
v 1.000000 -2.000000 1.000000
v 1.000000 -2.000000 0.000000
v 1.000000 -3.000000 1.000000
v 1.000000 -3.000000 0.000000
v 2.000000 -2.000000 1.000000
v 2.000000 -2.000000 0.000000
v 2.000000 -3.000000 1.000000
v 2.000000 -3.000000 0.000000
v 1.000000 0.000000 1.000000
v 1.000000 -0.000000 0.000000
v 1.000000 -2.000000 1.000000
v 1.000000 -2.000000 0.000000
v 2.000000 0.000000 1.000000
v 2.000000 -0.000000 0.000000
v 2.000000 -2.000000 1.000000
v 2.000000 -2.000000 0.000000
v 0.000000 0.000000 1.000000
v 0.000000 -0.000000 0.000000
v 0.000000 -2.000000 1.000000
v 0.000000 -2.000000 0.000000
v -1.000000 0.000000 1.000000
v -1.000000 -0.000000 0.000000
v -1.000000 -2.000000 1.000000
v -1.000000 -2.000000 0.000000
v 1.875000 1.000000 1.875000
v 1.875000 1.000000 1.625000
v 1.875000 0.500000 1.875000
v 1.875000 0.500000 1.625000
v 1.750000 1.000000 1.875000
v 1.750000 1.000000 1.625000
v 1.750000 0.500000 1.875000
v 1.750000 0.500000 1.625000
v 1.250000 1.000000 1.875000
v 1.250000 1.000000 1.625000
v 1.250000 0.500000 1.875000
v 1.250000 0.500000 1.625000
v 1.125000 1.000000 1.875000
v 1.125000 1.000000 1.625000
v 1.125000 0.500000 1.875000
v 1.125000 0.500000 1.625000
v 2.000000 2.000000 2.000000
v 2.000000 2.000000 1.500000
v 2.000000 1.000000 2.000000
v 2.000000 1.000000 1.500000
v 1.000000 2.000000 2.000000
v 1.000000 2.000000 1.500000
v 1.000000 1.000000 2.000000
v 1.000000 1.000000 1.500000
v 0.000000 2.000000 2.000000
v 0.000000 2.000000 1.000000
v 0.000000 0.500000 2.000000
v 0.000000 0.500000 1.000000
v -1.000000 2.000000 2.000000
v -1.000000 2.000000 1.000000
v -1.000000 0.500000 2.000000
v -1.000000 0.500000 1.000000
v -1.000000 2.000000 1.000000
v 0.000000 2.000000 1.000000
v -1.000000 2.000000 2.000000
v 0.000000 2.000000 2.000000
v -0.875000 2.000000 1.125000
v -0.125000 2.000000 1.125000
v -0.125000 2.000000 1.875000
v -0.875000 2.000000 1.875000
v -0.125000 1.937500 1.125000
v -0.875000 1.937500 1.125000
v -0.125000 1.937500 1.875000
v -0.875000 1.937500 1.875000
v -0.750000 1.937500 1.750000
v -0.250000 1.937500 1.750000
v -0.250000 1.937500 1.250000
v -0.750000 1.937500 1.250000
v -0.750000 2.000000 1.750000
v -0.250000 2.000000 1.750000
v -0.250000 2.000000 1.250000
v -0.750000 2.000000 1.250000
v -0.250000 1.937500 1.250000
v -0.750000 1.937500 1.250000
v -0.250000 2.000000 1.250000
v -0.750000 2.000000 1.250000
v -0.125000 1.937500 1.875000
v -0.875000 1.937500 1.875000
v -0.750000 1.937500 1.750000
v -0.250000 1.937500 1.750000
v -0.125000 1.937500 1.125000
v -0.875000 1.937500 1.125000
v -0.750000 1.937500 1.250000
v -0.250000 1.937500 1.250000
v 1.562500 1.062500 0.812500
v 1.562500 1.062500 0.562500
v 1.562500 0.500000 0.812500
v 1.562500 0.500000 0.562500
v 1.312500 1.062500 0.812500
v 1.312500 1.062500 0.562500
v 1.312500 0.500000 0.812500
v 1.312500 0.500000 0.562500
v 2.312500 1.062500 0.812500
v 2.312500 1.062500 0.562500
v 2.312500 0.500000 0.812500
v 2.312500 0.500000 0.562500
v 2.062500 1.062500 0.812500
v 2.062500 1.062500 0.562500
v 2.062500 0.500000 0.812500
v 2.062500 0.500000 0.562500
v 1.562500 1.062500 -0.562500
v 1.562500 1.062500 -0.812500
v 1.562500 0.500000 -0.562500
v 1.562500 0.500000 -0.812500
v 1.312500 1.062500 -0.562500
v 1.312500 1.062500 -0.812500
v 1.312500 0.500000 -0.562500
v 1.312500 0.500000 -0.812500
v 2.312500 1.062500 -0.562500
v 2.312500 1.062500 -0.812500
v 2.312500 0.500000 -0.562500
v 2.312500 0.500000 -0.812500
v 2.062500 1.062500 -0.562500
v 2.062500 1.062500 -0.812500
v 2.062500 0.500000 -0.562500
v 2.062500 0.500000 -0.812500
v -1.062500 1.062500 0.812500
v -1.062500 1.062500 0.562500
v -1.062500 0.500000 0.812500
v -1.062500 0.500000 0.562500
v -1.312500 1.062500 0.812500
v -1.312500 1.062500 0.562500
v -1.312500 0.500000 0.812500
v -1.312500 0.500000 0.562500
v -0.312500 1.062500 0.812500
v -0.312500 1.062500 0.562500
v -0.312500 0.500000 0.812500
v -0.312500 0.500000 0.562500
v -0.562500 1.062500 0.812500
v -0.562500 1.062500 0.562500
v -0.562500 0.500000 0.812500
v -0.562500 0.500000 0.562500
v -1.062500 1.062500 -0.562500
v -1.062500 1.062500 -0.812500
v -1.062500 0.500000 -0.562500
v -1.062500 0.500000 -0.812500
v -1.312500 1.062500 -0.562500
v -1.312500 1.062500 -0.812500
v -1.312500 0.500000 -0.562500
v -1.312500 0.500000 -0.812500
v -0.312500 1.062500 -0.562500
v -0.312500 1.062500 -0.812500
v -0.312500 0.500000 -0.562500
v -0.312500 0.500000 -0.812500
v -0.562500 1.062500 -0.562500
v -0.562500 1.062500 -0.812500
v -0.562500 0.500000 -0.562500
v -0.562500 0.500000 -0.812500
v 1.125000 2.812500 0.937500
v 1.125000 2.812500 -0.937500
v 1.125000 0.937500 0.937500
v 1.125000 0.937500 -0.937500
v 2.500000 2.812500 0.937500
v 2.500000 2.812500 -0.937500
v 2.500000 0.937500 0.937500
v 2.500000 0.937500 -0.937500
v -1.500000 2.812500 0.937500
v -1.500000 2.812500 -0.937500
v -1.500000 0.937500 0.937500
v -1.500000 0.937500 -0.937500
v -0.125000 2.812500 0.937500
v -0.125000 2.812500 -0.937500
v -0.125000 0.937500 0.937500
v -0.125000 0.937500 -0.937500
v 1.000000 1.000000 2.000000
v 1.000000 1.000000 1.000000
v 1.000000 0.000000 2.000000
v 1.000000 0.000000 1.000000
v 0.000000 1.000000 2.000000
v 0.000000 1.000000 1.000000
v 0.000000 0.000000 2.000000
v 0.000000 0.000000 1.000000
v 0.000000 1.000000 2.000000
v 1.000000 1.000000 2.000000
v 0.000000 0.000000 2.000000
v 1.000000 0.000000 2.000000
v 0.125000 0.875000 2.000000
v 0.875000 0.875000 2.000000
v 0.875000 0.125000 2.000000
v 0.125000 0.125000 2.000000
v 0.875000 0.875000 1.937500
v 0.125000 0.875000 1.937500
v 0.875000 0.125000 1.937500
v 0.125000 0.125000 1.937500
v 0.250000 0.250000 1.937500
v 0.750000 0.250000 1.937500
v 0.750000 0.750000 1.937500
v 0.250000 0.750000 1.937500
v 0.250000 0.250000 2.000000
v 0.750000 0.250000 2.000000
v 0.750000 0.750000 2.000000
v 0.250000 0.750000 2.000000
v 0.625000 0.875000 1.937500
v 0.625000 0.750000 1.937500
v 0.375000 0.750000 1.937500
v 0.375000 0.875000 1.937500
v 0.375000 0.750000 1.937500
v 0.375000 0.875000 2.000000
v 0.375000 0.750000 2.000000
v 0.625000 0.875000 2.000000
v 0.625000 0.750000 2.000000
v 0.375000 0.750000 2.000000
v 1.000000 1.000000 -1.000000
v 1.000000 1.000000 -0.000000
v 1.000000 -0.000000 -1.000000
v 1.000000 -0.000000 0.000000
v 0.000000 1.000000 -1.000000
v 0.000000 1.000000 -0.000000
v 0.000000 -0.000000 -1.000000
v 0.000000 -0.000000 0.000000
v 0.000000 1.000000 -1.000000
v 1.000000 1.000000 -1.000000
v 0.000000 -0.000000 -1.000000
v 1.000000 -0.000000 -1.000000
v 0.125000 0.875000 -1.000000
v 0.875000 0.875000 -1.000000
v 0.875000 0.125000 -1.000000
v 0.125000 0.125000 -1.000000
v 0.875000 0.875000 -0.937500
v 0.125000 0.875000 -0.937500
v 0.875000 0.125000 -0.937500
v 0.125000 0.125000 -0.937500
v 0.250000 0.250000 -0.937500
v 0.750000 0.250000 -0.937500
v 0.750000 0.750000 -0.937500
v 0.250000 0.750000 -0.937500
v 0.250000 0.250000 -1.000000
v 0.750000 0.250000 -1.000000
v 0.750000 0.750000 -1.000000
v 0.250000 0.750000 -1.000000
v 0.625000 0.875000 -0.937500
v 0.625000 0.750000 -0.937500
v 0.375000 0.750000 -0.937500
v 0.375000 0.875000 -0.937500
v 0.375000 0.750000 -0.937500
v 0.375000 0.875000 -1.000000
v 0.375000 0.750000 -1.000000
v 0.625000 0.875000 -1.000000
v 0.625000 0.750000 -1.000000
v 0.375000 0.750000 -1.000000
v 3.000000 0.500000 2.000000
v 3.000000 0.500000 1.000000
v 3.000000 0.000000 2.000000
v 3.000000 0.000000 1.000000
v 1.000000 0.500000 2.000000
v 1.000000 0.500000 1.000000
v 1.000000 0.000000 2.000000
v 1.000000 0.000000 1.000000
v -2.000000 0.500000 2.000000
v -2.000000 0.500000 1.000000
v -2.000000 0.000000 2.000000
v -2.000000 0.000000 1.000000
v 0.000000 0.500000 2.000000
v 0.000000 0.500000 1.000000
v 0.000000 0.000000 2.000000
v 0.000000 0.000000 1.000000
v 2.062500 0.937500 0.375000
v 2.062500 0.937500 -0.375000
v 2.062500 0.812500 0.375000
v 2.062500 0.812500 -0.375000
v 1.312500 0.937500 0.375000
v 1.312500 0.937500 -0.375000
v 1.312500 0.812500 0.375000
v 1.312500 0.812500 -0.375000
v 1.937500 0.625000 0.250000
v 1.937500 0.625000 -0.250000
v 1.937500 0.812500 0.250000
v 1.937500 0.812500 -0.250000
v 1.437500 0.625000 0.250000
v 1.437500 0.625000 -0.250000
v 1.437500 0.812500 0.250000
v 1.437500 0.812500 -0.250000
v 2.062500 0.500000 0.375000
v 2.062500 0.500000 -0.375000
v 2.062500 0.625000 0.375000
v 2.062500 0.625000 -0.375000
v 1.312500 0.500000 0.375000
v 1.312500 0.500000 -0.375000
v 1.312500 0.625000 0.375000
v 1.312500 0.625000 -0.375000
v -0.312500 0.937500 0.375000
v -0.312500 0.937500 -0.375000
v -0.312500 0.812500 0.375000
v -0.312500 0.812500 -0.375000
v -1.062500 0.937500 0.375000
v -1.062500 0.937500 -0.375000
v -1.062500 0.812500 0.375000
v -1.062500 0.812500 -0.375000
v -0.437500 0.625000 0.250000
v -0.437500 0.625000 -0.250000
v -0.437500 0.812500 0.250000
v -0.437500 0.812500 -0.250000
v -0.937500 0.625000 0.250000
v -0.937500 0.625000 -0.250000
v -0.937500 0.812500 0.250000
v -0.937500 0.812500 -0.250000
v -0.312500 0.500000 0.375000
v -0.312500 0.500000 -0.375000
v -0.312500 0.625000 0.375000
v -0.312500 0.625000 -0.375000
v -1.062500 0.500000 0.375000
v -1.062500 0.500000 -0.375000
v -1.062500 0.625000 0.375000
v -1.062500 0.625000 -0.375000
v 0.875000 1.000000 1.875000
v 0.875000 1.000000 1.125000
v 0.875000 1.125000 1.875000
v 0.875000 1.125000 1.125000
v 0.125000 1.000000 1.875000
v 0.125000 1.000000 1.125000
v 0.125000 1.125000 1.875000
v 0.125000 1.125000 1.125000
v 0.875000 1.000000 -0.125000
v 0.875000 1.000000 -0.875000
v 0.875000 1.125000 -0.125000
v 0.875000 1.125000 -0.875000
v 0.125000 1.000000 -0.125000
v 0.125000 1.000000 -0.875000
v 0.125000 1.125000 -0.125000
v 0.125000 1.125000 -0.875000
v 2.187500 3.000000 0.375000
v 2.187500 3.000000 -0.375000
v 2.187500 3.125000 0.375000
v 2.187500 3.125000 -0.375000
v 1.437500 3.000000 0.375000
v 1.437500 3.000000 -0.375000
v 1.437500 3.125000 0.375000
v 1.437500 3.125000 -0.375000
v -0.437500 3.000000 0.375000
v -0.437500 3.000000 -0.375000
v -0.437500 3.125000 0.375000
v -0.437500 3.125000 -0.375000
v -1.187500 3.000000 0.375000
v -1.187500 3.000000 -0.375000
v -1.187500 3.125000 0.375000
v -1.187500 3.125000 -0.375000
v 2.312500 3.000000 0.500000
v 2.312500 3.000000 -0.500000
v 2.312500 2.812500 0.500000
v 2.312500 2.812500 -0.500000
v 1.312500 3.000000 0.500000
v 1.312500 3.000000 -0.500000
v 1.312500 2.812500 0.500000
v 1.312500 2.812500 -0.500000
v -0.312500 3.000000 0.500000
v -0.312500 3.000000 -0.500000
v -0.312500 2.812500 0.500000
v -0.312500 2.812500 -0.500000
v -1.312500 3.000000 0.500000
v -1.312500 3.000000 -0.500000
v -1.312500 2.812500 0.500000
v -1.312500 2.812500 -0.500000
v 0.750000 3.375000 1.750000
v 0.750000 3.375000 1.250000
v 0.750000 1.125000 1.750000
v 0.750000 1.125000 1.250000
v 0.250000 3.375000 1.750000
v 0.250000 3.375000 1.250000
v 0.250000 1.125000 1.750000
v 0.250000 1.125000 1.250000
v 0.750000 2.250000 1.750000
v 0.750000 2.250000 1.250000
v 0.250000 2.250000 1.250000
v 0.250000 2.250000 1.750000
v 0.750000 3.875000 1.250000
v 0.250000 3.875000 1.250000
v 0.750000 3.875000 1.750000
v 0.250000 3.875000 1.750000
v 1.562500 3.875000 1.250000
v 1.562500 3.875000 1.750000
v 1.562500 3.375000 1.750000
v 1.562500 3.375000 1.250000
v 2.062500 3.875000 1.250000
v 2.062500 3.875000 1.750000
v 2.062500 3.375000 1.750000
v 2.062500 3.375000 1.250000
v 2.062500 3.875000 0.250000
v 2.062500 3.375000 0.250000
v 1.562500 3.375000 0.250000
v 1.562500 3.875000 0.250000
v 2.062500 3.875000 -0.250000
v 2.062500 3.375000 -0.250000
v 1.562500 3.375000 -0.250000
v 1.562500 3.875000 -0.250000
v 1.562500 3.125000 -0.250000
v 2.062500 3.125000 -0.250000
v 2.062500 3.125000 0.250000
v 1.562500 3.125000 0.250000
v 0.750000 1.687500 1.750000
v 0.750000 1.687500 1.250000
v 0.250000 1.687500 1.250000
v 0.250000 1.687500 1.750000
v 0.250000 3.375000 -0.750000
v 0.250000 3.375000 -0.250000
v 0.250000 1.125000 -0.750000
v 0.250000 1.125000 -0.250000
v 0.750000 3.375000 -0.750000
v 0.750000 3.375000 -0.250000
v 0.750000 1.125000 -0.750000
v 0.750000 1.125000 -0.250000
v 0.250000 2.250000 -0.750000
v 0.250000 2.250000 -0.250000
v 0.750000 2.250000 -0.250000
v 0.750000 2.250000 -0.750000
v 0.250000 3.875000 -0.250000
v 0.750000 3.875000 -0.250000
v 0.250000 3.875000 -0.750000
v 0.750000 3.875000 -0.750000
v -0.562500 3.875000 -0.250000
v -0.562500 3.875000 -0.750000
v -0.562500 3.375000 -0.750000
v -0.562500 3.375000 -0.250000
v -1.062500 3.875000 -0.250000
v -1.062500 3.875000 -0.750000
v -1.062500 3.375000 -0.750000
v -1.062500 3.375000 -0.250000
v -1.062500 3.875000 -0.250000
v -1.062500 3.375000 -0.250000
v -0.562500 3.375000 -0.250000
v -0.562500 3.875000 -0.250000
v -1.062500 3.875000 0.250000
v -1.062500 3.375000 0.250000
v -0.562500 3.375000 0.250000
v -0.562500 3.875000 0.250000
v -0.562500 3.125000 0.250000
v -1.062500 3.125000 0.250000
v -1.062500 3.125000 -0.250000
v -0.562500 3.125000 -0.250000
v 0.250000 1.687500 -0.750000
v 0.250000 1.687500 -0.250000
v 0.750000 1.687500 -0.250000
v 0.750000 1.687500 -0.750000
v -1.000000 0.500000 2.000000
v -1.000000 0.000000 2.000000
v -1.000000 0.000000 1.000000
v -1.000000 0.500000 1.000000
v 2.000000 0.500000 2.000000
v 2.000000 0.000000 2.000000
v 2.000000 0.000000 1.000000
v 2.000000 0.500000 1.000000
v 0.750000 3.875000 1.750000
v 0.750000 3.375000 1.750000
v 1.562500 3.375000 1.750000
v 1.562500 3.875000 1.750000
v 0.750000 3.375000 1.250000
v 0.750000 3.875000 1.250000
v 1.562500 3.875000 1.250000
v 1.562500 3.375000 1.250000
v -0.562500 3.875000 -0.750000
v -0.562500 3.875000 -0.250000
v 0.250000 3.875000 -0.250000
v 0.250000 3.875000 -0.750000
v -0.562500 3.375000 -0.750000
v 0.250000 3.375000 -0.750000
v -0.562500 3.375000 -0.250000
v 0.250000 3.375000 -0.250000
v -2.000000 0.500000 -1.000000
v -2.000000 0.500000 -0.000000
v -2.000000 -0.000000 -1.000000
v -2.000000 -0.000000 0.000000
v 0.000000 0.500000 -1.000000
v 0.000000 0.500000 -0.000000
v 0.000000 -0.000000 -1.000000
v 0.000000 -0.000000 0.000000
v -1.000000 0.500000 -1.000000
v -1.000000 -0.000000 -1.000000
v -1.000000 -0.000000 0.000000
v -1.000000 0.500000 -0.000000
v 3.000000 0.500000 -1.000000
v 3.000000 0.500000 -0.000000
v 3.000000 -0.000000 -1.000000
v 3.000000 -0.000000 0.000000
v 1.000000 0.500000 -1.000000
v 1.000000 0.500000 -0.000000
v 1.000000 -0.000000 -1.000000
v 1.000000 -0.000000 0.000000
v 2.000000 0.500000 -1.000000
v 2.000000 -0.000000 -1.000000
v 2.000000 -0.000000 0.000000
v 2.000000 0.500000 -0.000000
v 3.000000 0.500000 1.000000
v 3.000000 0.500000 -0.000000
v 3.000000 0.000000 1.000000
v 3.000000 -0.000000 0.000000
v -2.000000 0.500000 1.000000
v -2.000000 0.500000 -0.000000
v -2.000000 0.000000 1.000000
v -2.000000 -0.000000 0.000000
v 0.500000 0.500000 -0.000000
v 0.500000 0.500000 1.000000
v 0.500000 0.000000 1.000000
v 0.500000 -0.000000 0.000000
vn -0.0000 1.0000 -0.0000
vn -0.0000 -1.0000 -0.0000
vn -0.0000 -0.0000 1.0000
vn -0.0000 -0.0000 -1.0000
vn -1.0000 -0.0000 -0.0000
vn 1.0000 -0.0000 -0.0000
vt 0.875000 0.500000
vt 0.875000 0.625000
vt 1.000000 0.625000
vt 1.000000 0.500000
vt 1.000000 0.750000
vt 0.875000 0.750000
vt 0.875000 0.875000
vt 0.875000 1.000000
vt 1.000000 1.000000
vt 1.000000 0.875000
vt 0.164062 0.679688
vt 0.164062 0.742188
vt 0.132812 0.742188
vt 0.132812 0.679688
vt 0.187500 0.679688
vt 0.187500 0.742188
vt 0.171875 0.742188
vt 0.171875 0.679688
vt 0.125000 0.875000
vt 0.125000 0.750000
vt 0.187500 0.750000
vt 0.187500 0.875000
vt 0.820312 0.500000
vt 0.820312 0.625000
vt 0.695312 0.625000
vt 0.695312 0.500000
vt 0.250000 0.500000
vt 0.250000 0.625000
vt 0.125000 0.625000
vt 0.125000 0.500000
vt 0.820312 0.812500
vt 0.820312 1.000000
vt 0.695312 1.000000
vt 0.695312 0.812500
vt 0.250000 0.062500
vt 0.250000 0.250000
vt 0.125000 0.250000
vt 0.125000 0.062500
vt 0.000000 0.250000
vt 0.000000 0.062500
vt 0.804688 0.609375
vt 0.804688 0.515625
vt 0.710938 0.609375
vt 0.710938 0.515625
vt 0.257812 0.890625
vt 0.257812 0.796875
vt 0.265625 0.796875
vt 0.265625 0.890625
vt 0.265625 0.804688
vt 0.265625 0.898438
vt 0.257812 0.898438
vt 0.257812 0.804688
vt 0.265625 0.710938
vt 0.257812 0.710938
vt 0.265625 0.742188
vt 0.265625 0.835938
vt 0.257812 0.835938
vt 0.257812 0.742188
vt 0.789062 0.531250
vt 0.789062 0.593750
vt 0.726562 0.531250
vt 0.726562 0.593750
vt 0.125000 0.937500
vt 0.187500 0.937500
vt 0.187500 1.000000
vt 0.125000 1.000000
vt 0.125000 0.945312
vt 0.187500 0.945312
vt 0.179688 1.000000
vt 0.179688 0.937500
vt 0.132812 0.937500
vt 0.132812 1.000000
vt 0.187500 0.992188
vt 0.125000 0.992188
vt 0.625000 0.187500
vt 0.625000 0.257812
vt 0.593750 0.257812
vt 0.593750 0.187500
vt 0.007812 0.492188
vt 0.242188 0.492188
vt 0.242188 0.257812
vt 0.007812 0.257812
vt 0.632812 0.492188
vt 0.804688 0.492188
vt 0.804688 0.257812
vt 0.632812 0.257812
vt 0.617188 0.492188
vt 0.445312 0.492188
vt 0.445312 0.257812
vt 0.617188 0.257812
vt 0.429688 0.492188
vt 0.257812 0.492188
vt 0.257812 0.257812
vt 0.429688 0.257812
vt 0.265625 0.812500
vt 0.265625 0.906250
vt 0.257812 0.906250
vt 0.257812 0.812500
vt 0.265625 0.718750
vt 0.257812 0.718750
vt 0.265625 0.750000
vt 0.265625 0.843750
vt 0.257812 0.843750
vt 0.257812 0.750000
vt 0.437500 0.125000
vt 0.500000 0.125000
vt 0.500000 0.187500
vt 0.437500 0.187500
vt 0.437500 0.132812
vt 0.500000 0.132812
vt 0.492188 0.187500
vt 0.492188 0.125000
vt 0.500000 0.179688
vt 0.437500 0.179688
vt 0.445312 0.125000
vt 0.445312 0.187500
vt 0.742188 0.593750
vt 0.773438 0.609375
vt 0.773438 0.593750
vt 0.484375 0.187500
vt 0.484375 0.203125
vt 0.453125 0.187500
vt 0.453125 0.203125
vt 0.742188 0.609375
vt 0.460938 0.187500
vt 0.460938 0.203125
vt 0.476562 0.203125
vt 0.476562 0.187500
vt 0.093750 0.906250
vt 0.093750 0.937500
vt 0.085938 0.937500
vt 0.085938 0.906250
vt 0.421875 0.203125
vt 0.421875 0.187500
vt 0.390625 0.187500
vt 0.390625 0.203125
vt 0.250000 0.875000
vt 0.250000 1.000000
vt 0.375000 0.500000
vt 0.500000 0.500000
vt 0.500000 0.625000
vt 0.375000 0.625000
vt 0.375000 0.875000
vt 0.500000 0.875000
vt 0.500000 1.000000
vt 0.375000 1.000000
vt 0.187500 0.625000
vt 0.250000 0.750000
vt 0.109375 0.500000
vt 0.125000 0.593750
vt 0.109375 0.593750
vt 0.359375 0.140625
vt 0.359375 0.234375
vt 0.265625 0.234375
vt 0.265625 0.140625
vt 0.062500 0.523438
vt 0.125000 0.523438
vt 0.125000 0.546875
vt 0.062500 0.546875
vt 0.250000 0.000000
vt 0.273438 0.000000
vt 0.273438 0.125000
vt 0.250000 0.125000
vt 0.406250 0.000000
vt 0.406250 0.125000
vt 0.281250 0.125000
vt 0.281250 0.000000
vt 0.125000 0.570312
vt 0.062500 0.570312
vt 0.062500 0.500000
vt 0.062500 0.554688
vt 0.125000 0.554688
vt 0.125000 0.617188
vt 0.062500 0.617188
vt 0.000000 0.640625
vt 0.000000 0.500000
vt 0.062500 0.640625
vt 0.125000 0.609375
vt 0.062500 0.609375
vt 0.062500 0.687500
vt 0.000000 0.687500
vt 0.000000 0.625000
vt 0.062500 0.625000
vt 0.062500 0.562500
vt 0.125000 0.562500
vt 0.062500 0.593750
vt 0.062500 0.531250
vt 0.125000 0.531250
vt 0.125000 0.585938
vt 0.062500 0.585938
vt 0.000000 0.507812
vt 0.062500 0.507812
vt 0.062500 0.539062
vt 0.000000 0.539062
vt 0.125000 0.539062
vt 0.625000 1.000000
vt 0.625000 0.875000
vt 0.625000 0.625000
vt 0.625000 0.500000
vt 0.000000 0.609375
vt 0.000000 0.515625
vt 0.062500 0.515625
vt 0.250000 0.687500
vt 0.562500 0.687500
vt 0.562500 0.812500
vt 0.250000 0.812500
vt 0.625000 0.812500
vt 0.312500 0.812500
vt 0.312500 0.687500
vt 0.625000 0.687500
s 0
usemtl material
f 1/1/1 2/2/1 6/3/1 5/4/1
f 4/1/2 3/2/2 7/3/2 8/4/2
f 3/1/3 1/2/3 5/3/3 7/4/3
f 8/4/4 6/3/4 2/2/4 4/1/4
f 15/3/5 13/5/5 14/6/5 16/2/5
f 12/2/2 11/3/2 15/5/2 16/6/2
f 11/7/3 9/8/3 13/9/3 15/10/3
f 16/10/4 14/9/4 10/8/4 12/7/4
f 22/6/6 21/5/6 23/3/6 24/2/6
f 23/5/2 19/3/2 20/2/2 24/6/2
f 21/9/3 17/8/3 19/7/3 23/10/3
f 18/8/4 22/9/4 24/10/4 20/7/4
f 25/7/5 26/10/5 28/3/5 27/2/5
f 30/7/6 29/10/6 31/3/6 32/2/6
f 30/7/1 26/10/1 25/5/1 29/6/1
f 29/7/3 25/10/3 27/3/3 31/2/3
f 26/7/4 30/10/4 32/3/4 28/2/4
f 36/3/6 34/10/6 33/7/6 35/2/6
f 39/3/5 37/10/5 38/7/5 40/2/5
f 33/5/1 34/10/1 38/7/1 37/6/1
f 35/3/3 33/10/3 37/7/3 39/2/3
f 40/3/4 38/10/4 34/7/4 36/2/4
f 44/11/6 42/12/6 41/13/6 43/14/6
f 47/11/5 45/12/5 46/13/5 48/14/5
f 43/15/3 41/16/3 45/17/3 47/18/3
f 48/15/4 46/16/4 42/17/4 44/18/4
f 52/11/6 50/12/6 49/13/6 51/14/6
f 55/11/5 53/12/5 54/13/5 56/14/5
f 51/15/3 49/16/3 53/17/3 55/18/3
f 56/15/4 54/16/4 50/17/4 52/18/4
f 60/19/6 58/20/6 57/21/6 59/22/6
f 63/19/5 61/20/5 62/21/5 64/22/5
f 57/20/1 58/21/1 62/22/1 61/19/1
f 60/20/2 59/21/2 63/22/2 64/19/2
f 59/23/3 57/24/3 61/25/3 63/26/3
f 64/27/4 62/28/4 58/29/4 60/30/4
f 68/31/6 66/32/6 65/33/6 67/34/6
f 71/35/5 69/36/5 70/37/5 72/38/5
f 67/38/3 65/37/3 69/39/3 71/40/3
f 72/24/4 70/31/4 66/34/4 68/25/4
f 76/23/1 74/24/1 78/41/1 79/42/1
f 74/24/1 73/25/1 77/43/1 78/41/1
f 77/43/1 73/25/1 75/26/1 80/44/1
f 75/26/1 76/23/1 79/42/1 80/44/1
f 81/45/5 83/46/5 79/47/5 78/48/5
f 82/49/3 81/50/3 78/51/3 77/52/3
f 84/53/6 82/49/6 77/52/6 80/54/6
f 83/55/4 84/56/4 80/57/4 79/58/4
f 86/59/1 83/42/1 81/41/1 87/60/1
f 82/43/1 84/44/1 85/61/1 88/62/1
f 89/63/1 90/64/1 91/65/1 92/66/1
f 90/64/3 89/63/3 85/67/3 86/68/3
f 91/69/6 90/70/6 86/64/6 87/65/6
f 89/71/5 92/72/5 88/66/5 85/63/5
f 96/66/4 95/65/4 93/73/4 94/74/4
f 99/61/1 98/44/1 97/42/1 100/59/1
f 101/41/1 102/43/1 103/62/1 104/60/1
f 108/75/6 106/76/6 105/77/6 107/78/6
f 111/75/5 109/76/5 110/77/5 112/78/5
f 107/75/3 105/76/3 109/77/3 111/78/3
f 112/75/4 110/76/4 106/77/4 108/78/4
f 116/75/6 114/76/6 113/77/6 115/78/6
f 119/75/5 117/76/5 118/77/5 120/78/5
f 115/75/3 113/76/3 117/77/3 119/78/3
f 120/75/4 118/76/4 114/77/4 116/78/4
f 124/75/6 122/76/6 121/77/6 123/78/6
f 127/75/5 125/76/5 126/77/5 128/78/5
f 123/75/3 121/76/3 125/77/3 127/78/3
f 128/75/4 126/76/4 122/77/4 124/78/4
f 132/75/6 130/76/6 129/77/6 131/78/6
f 135/75/5 133/76/5 134/77/5 136/78/5
f 131/75/3 129/76/3 133/77/3 135/78/3
f 136/75/4 134/76/4 130/77/4 132/78/4
f 140/75/6 138/76/6 137/77/6 139/78/6
f 143/75/5 141/76/5 142/77/5 144/78/5
f 139/75/3 137/76/3 141/77/3 143/78/3
f 144/75/4 142/76/4 138/77/4 140/78/4
f 148/75/6 146/76/6 145/77/6 147/78/6
f 151/75/5 149/76/5 150/77/5 152/78/5
f 147/75/3 145/76/3 149/77/3 151/78/3
f 152/75/4 150/76/4 146/77/4 148/78/4
f 156/75/6 154/76/6 153/77/6 155/78/6
f 159/75/5 157/76/5 158/77/5 160/78/5
f 155/75/3 153/76/3 157/77/3 159/78/3
f 160/75/4 158/76/4 154/77/4 156/78/4
f 164/75/6 162/76/6 161/77/6 163/78/6
f 167/75/5 165/76/5 166/77/5 168/78/5
f 163/75/3 161/76/3 165/77/3 167/78/3
f 168/75/4 166/76/4 162/77/4 164/78/4
f 169/79/5 170/80/5 172/81/5 171/82/5
f 174/79/6 173/80/6 175/81/6 176/82/6
f 174/83/1 170/84/1 169/85/1 173/86/1
f 173/83/3 169/84/3 171/85/3 175/86/3
f 175/83/2 171/84/2 172/85/2 176/86/2
f 170/87/4 174/88/4 176/89/4 172/90/4
f 177/79/5 178/80/5 180/81/5 179/82/5
f 182/79/6 181/80/6 183/81/6 184/82/6
f 182/83/1 178/84/1 177/85/1 181/86/1
f 181/83/3 177/84/3 179/85/3 183/86/3
f 183/83/2 179/84/2 180/85/2 184/86/2
f 178/91/4 182/92/4 184/93/4 180/94/4
f 188/27/6 186/28/6 185/29/6 187/30/6
f 191/27/5 189/28/5 190/29/5 192/30/5
f 185/27/1 186/28/1 190/29/1 189/30/1
f 192/27/4 190/28/4 186/29/4 188/30/4
f 196/23/3 194/24/3 198/41/3 199/42/3
f 194/24/3 193/25/3 197/43/3 198/41/3
f 197/43/3 193/25/3 195/26/3 200/44/3
f 195/26/3 196/23/3 199/42/3 200/44/3
f 201/51/5 203/52/5 199/49/5 198/50/5
f 202/95/2 201/96/2 198/97/2 197/98/2
f 204/99/6 202/95/6 197/98/6 200/100/6
f 203/101/1 204/102/1 200/103/1 199/104/1
f 206/59/3 203/42/3 201/41/3 207/60/3
f 202/43/3 204/44/3 205/61/3 208/62/3
f 205/61/3 204/44/3 203/42/3 206/59/3
f 209/105/3 210/106/3 211/107/3 212/108/3
f 210/106/2 209/105/2 205/109/2 206/110/2
f 211/111/6 210/112/6 206/106/6 207/107/6
f 212/108/1 211/107/1 207/113/1 208/114/1
f 209/115/5 212/116/5 208/108/5 205/105/5
f 202/43/3 208/62/3 215/117/3
f 207/60/3 201/41/3 213/118/3 214/119/3
f 221/120/3 220/121/3 222/122/3
f 218/123/3 219/122/3 220/121/3
f 217/117/3 216/124/3 202/43/3
f 219/125/5 218/126/5 216/123/5 217/122/5
f 220/127/6 221/128/6 214/120/6 213/121/6
f 221/129/2 222/130/2 215/131/2 214/132/2
f 188/27/2 196/28/2 195/29/2 192/30/2
f 223/29/6 224/28/6 226/27/6 225/30/6
f 228/29/5 227/28/5 229/27/5 230/30/5
f 228/29/1 224/28/1 223/27/1 227/30/1
f 224/29/3 228/28/3 230/27/3 226/30/3
f 236/41/4 232/24/4 234/23/4 237/42/4
f 235/43/4 231/25/4 232/24/4 236/41/4
f 233/26/4 231/25/4 235/43/4 238/44/4
f 237/42/4 234/23/4 233/26/4 238/44/4
f 237/49/5 241/52/5 239/51/5 236/50/5
f 236/97/2 239/96/2 240/95/2 235/98/2
f 235/98/6 240/95/6 242/99/6 238/100/6
f 238/103/1 242/102/1 241/101/1 237/104/1
f 239/41/4 241/42/4 244/59/4 245/60/4
f 243/61/4 242/44/4 240/43/4 246/62/4
f 241/42/4 242/44/4 243/61/4 244/59/4
f 249/107/4 248/106/4 247/105/4 250/108/4
f 243/109/2 247/105/2 248/106/2 244/110/2
f 244/106/6 248/112/6 249/111/6 245/107/6
f 245/113/1 249/107/1 250/108/1 246/114/1
f 246/108/5 250/116/5 247/115/5 243/105/5
f 246/62/4 240/43/4 253/117/4
f 251/118/4 239/41/4 245/60/4 252/119/4
f 258/133/4 259/134/4 260/135/4
f 257/135/4 256/136/4 258/133/4
f 254/124/4 255/117/4 240/43/4
f 254/123/5 256/126/5 257/125/5 255/122/5
f 252/120/6 259/128/6 258/127/6 251/121/6
f 253/131/2 260/130/2 259/129/2 252/132/2
f 233/29/2 234/28/2 226/27/2 230/30/2
f 264/22/6 262/137/6 261/138/6 263/65/6
f 265/139/1 457/140/1 460/141/1 266/142/1
f 268/143/2 459/144/2 458/145/2 267/146/2
f 267/138/3 458/137/3 457/22/3 265/65/3
f 269/138/5 270/137/5 272/22/5 271/65/5
f 269/27/1 453/139/1 456/142/1 270/28/1
f 272/137/2 455/143/2 454/146/2 271/138/2
f 271/147/3 454/21/3 453/148/3 269/28/3
f 280/149/6 278/30/6 277/150/6 279/151/6
f 283/149/5 281/30/5 282/150/5 284/151/5
f 280/152/2 279/153/2 283/154/2 284/155/2
f 279/149/3 277/30/3 281/150/3 283/151/3
f 284/149/4 282/30/4 278/150/4 280/151/4
f 285/156/6 286/157/6 288/158/6 287/159/6
f 290/156/5 289/157/5 291/158/5 292/159/5
f 289/156/3 285/157/3 287/158/3 291/159/3
f 286/156/4 290/157/4 292/158/4 288/159/4
f 293/150/6 294/30/6 296/149/6 295/151/6
f 298/150/5 297/30/5 299/149/5 300/151/5
f 299/154/1 295/153/1 296/152/1 300/155/1
f 297/150/3 293/30/3 295/149/3 299/151/3
f 294/150/4 298/30/4 300/149/4 296/151/4
f 304/149/6 302/30/6 301/150/6 303/151/6
f 307/149/5 305/30/5 306/150/5 308/151/5
f 304/152/2 303/153/2 307/154/2 308/155/2
f 303/149/3 301/30/3 305/150/3 307/151/3
f 308/149/4 306/30/4 302/150/4 304/151/4
f 309/156/6 310/157/6 312/158/6 311/159/6
f 314/156/5 313/157/5 315/158/5 316/159/5
f 313/156/3 309/157/3 311/158/3 315/159/3
f 310/156/4 314/157/4 316/158/4 312/159/4
f 317/150/6 318/30/6 320/149/6 319/151/6
f 322/150/5 321/30/5 323/149/5 324/151/5
f 323/154/1 319/153/1 320/152/1 324/155/1
f 321/150/3 317/30/3 319/149/3 323/151/3
f 318/150/4 322/30/4 324/149/4 320/151/4
f 325/150/6 326/30/6 328/149/6 327/151/6
f 330/150/5 329/30/5 331/149/5 332/151/5
f 330/154/2 326/153/2 325/152/2 329/155/2
f 331/154/1 327/153/1 328/152/1 332/155/1
f 329/150/3 325/30/3 327/149/3 331/151/3
f 326/150/4 330/30/4 332/149/4 328/151/4
f 333/150/6 334/30/6 336/149/6 335/151/6
f 338/150/5 337/30/5 339/149/5 340/151/5
f 338/154/2 334/153/2 333/152/2 337/155/2
f 339/154/1 335/153/1 336/152/1 340/155/1
f 337/150/3 333/30/3 335/149/3 339/151/3
f 334/150/4 338/30/4 340/149/4 336/151/4
f 341/150/6 342/30/6 344/149/6 343/151/6
f 346/150/5 345/30/5 347/149/5 348/151/5
f 346/154/2 342/153/2 341/152/2 345/155/2
f 347/154/1 343/153/1 344/152/1 348/155/1
f 345/150/3 341/30/3 343/149/3 347/151/3
f 342/150/4 346/30/4 348/149/4 344/151/4
f 349/150/6 350/30/6 352/149/6 351/151/6
f 354/150/5 353/30/5 355/149/5 356/151/5
f 354/154/2 350/153/2 349/152/2 353/155/2
f 355/154/1 351/153/1 352/152/1 356/155/1
f 353/150/3 349/30/3 351/149/3 355/151/3
f 350/150/4 354/30/4 356/149/4 352/151/4
f 360/160/6 358/161/6 357/162/6 359/163/6
f 363/160/5 361/161/5 362/162/5 364/163/5
f 357/164/1 358/165/1 362/166/1 361/167/1
f 359/160/3 357/161/3 361/162/3 363/163/3
f 364/160/4 362/161/4 358/162/4 360/163/4
f 368/160/6 366/161/6 365/162/6 367/163/6
f 371/160/5 369/161/5 370/162/5 372/163/5
f 365/164/1 366/165/1 370/166/1 369/167/1
f 367/160/3 365/161/3 369/162/3 371/163/3
f 372/160/4 370/161/4 366/162/4 368/163/4
f 376/30/6 410/168/6 409/169/6 375/170/6
f 379/30/5 412/168/5 411/169/5 380/170/5
f 387/171/1 385/172/1 386/173/1 388/174/1
f 375/30/3 409/168/3 412/169/3 379/170/3
f 380/30/4 411/168/4 410/169/4 376/170/4
f 373/175/6 381/176/6 382/170/6 374/177/6
f 374/175/4 382/176/4 383/170/4 378/177/4
f 378/175/5 383/176/5 384/170/5 377/177/5
f 377/175/3 384/176/3 381/170/3 373/177/3
f 393/158/6 394/178/6 395/179/6 396/159/6
f 386/180/4 385/181/4 374/182/4 378/183/4
f 388/173/5 386/174/5 378/171/5 377/172/5
f 387/181/3 388/180/3 377/183/3 373/182/3
f 394/180/1 393/183/1 389/182/1 390/181/1
f 395/184/3 394/185/3 390/29/3 391/183/3
f 396/183/2 395/180/2 391/181/2 392/182/2
f 401/179/4 402/159/4 403/158/4 404/178/4
f 398/176/6 397/170/6 393/183/6 396/182/6
f 399/176/2 398/170/2 396/183/2 392/182/2
f 400/183/5 399/182/5 392/176/5 389/170/5
f 397/183/1 400/182/1 389/176/1 393/170/1
f 402/183/6 401/180/6 397/181/6 398/182/6
f 404/180/5 403/183/5 399/182/5 400/181/5
f 401/150/1 404/186/1 400/187/1 397/188/1
f 406/171/4 405/172/4 403/189/4 402/190/4
f 407/156/6 406/157/6 402/172/6 398/171/6
f 408/191/3 407/192/3 398/193/3 399/194/3
f 405/193/5 408/195/5 399/168/5 403/169/5
f 381/179/6 409/193/6 410/195/6 382/178/6
f 382/179/4 410/193/4 411/195/4 383/178/4
f 383/179/5 411/193/5 412/195/5 384/178/5
f 384/179/3 412/193/3 409/195/3 381/178/3
f 416/30/5 450/168/5 449/169/5 415/170/5
f 419/30/6 452/168/6 451/169/6 420/170/6
f 427/171/1 425/172/1 426/173/1 428/174/1
f 415/30/4 449/168/4 452/169/4 419/170/4
f 420/30/3 451/168/3 450/169/3 416/170/3
f 413/175/5 421/176/5 422/170/5 414/177/5
f 414/175/3 422/176/3 423/170/3 418/177/3
f 418/175/6 423/176/6 424/170/6 417/177/6
f 417/175/4 424/176/4 421/170/4 413/177/4
f 433/158/5 434/178/5 435/179/5 436/159/5
f 426/180/3 425/181/3 414/182/3 418/183/3
f 428/173/6 426/174/6 418/171/6 417/172/6
f 427/181/4 428/180/4 417/183/4 413/182/4
f 434/180/1 433/183/1 429/182/1 430/181/1
f 435/184/4 434/185/4 430/29/4 431/183/4
f 436/183/2 435/180/2 431/181/2 432/182/2
f 441/179/3 442/159/3 443/158/3 444/178/3
f 442/183/5 441/180/5 437/181/5 438/182/5
f 444/180/6 443/183/6 439/182/6 440/181/6
f 441/150/1 444/186/1 440/187/1 437/188/1
f 446/171/3 445/172/3 443/189/3 442/190/3
f 447/156/5 446/157/5 442/172/5 438/171/5
f 448/191/4 447/192/4 438/193/4 439/194/4
f 445/193/6 448/195/6 439/168/6 443/169/6
f 421/179/5 449/193/5 450/195/5 422/178/5
f 422/179/3 450/193/3 451/195/3 423/178/3
f 423/179/6 451/193/6 452/195/6 424/178/6
f 424/179/4 452/193/4 449/195/4 421/178/4
f 273/138/3 453/137/3 454/22/3 275/65/3
f 275/145/2 454/146/2 455/143/2 276/144/2
f 274/141/1 456/142/1 453/139/1 273/140/1
f 261/147/3 457/21/3 458/148/3 263/28/3
f 263/196/2 458/145/2 459/144/2 264/197/2
f 262/198/1 460/141/1 457/140/1 261/199/1
f 465/179/4 466/200/4 467/201/4 468/202/4
f 462/179/2 465/200/2 468/201/2 463/202/2
f 461/179/3 462/200/3 463/201/3 464/202/3
f 466/179/1 461/200/1 464/201/1 467/202/1
f 473/179/4 469/200/4 472/201/4 474/202/4
f 475/179/2 473/200/2 474/201/2 476/202/2
f 470/179/3 475/200/3 476/201/3 471/202/3
f 469/179/1 470/200/1 471/201/1 472/202/1
f 480/22/5 478/137/5 477/138/5 479/65/5
f 481/145/1 485/146/1 488/143/1 482/144/1
f 484/141/2 487/142/2 486/139/2 483/140/2
f 483/147/4 486/21/4 485/148/4 481/28/4
f 477/138/4 485/137/4 486/22/4 479/65/4
f 479/27/2 486/139/2 487/142/2 480/28/2
f 478/137/1 488/143/1 485/146/1 477/138/1
f 489/138/6 490/137/6 492/22/6 491/65/6
f 489/196/1 497/145/1 500/144/1 490/197/1
f 492/198/2 499/141/2 498/140/2 491/199/2
f 491/147/4 498/21/4 497/148/4 489/28/4
f 493/138/4 497/137/4 498/22/4 495/65/4
f 495/139/2 498/140/2 499/141/2 496/142/2
f 494/143/1 500/144/1 497/145/1 493/146/1
f 504/21/6 502/148/6 501/137/6 503/22/6
f 507/21/5 505/148/5 506/137/5 508/22/5
f 505/203/1 510/204/1 509/205/1 506/206/1
f 508/203/2 512/204/2 511/205/2 507/206/2
f 502/207/1 509/208/1 510/209/1 501/210/1
f 503/207/2 511/208/2 512/209/2 504/210/2
