# Blender 4.2.3 LTS
# www.blender.org
mtllib geothermal_tube.mtl
o cube.001
v -1.069328 -3.000000 2.000000
v -1.069328 -3.000000 1.000000
v -1.069328 -4.000000 2.000000
v -1.069328 -4.000000 1.000000
v -0.069328 -3.000000 2.000000
v -0.069328 -3.000000 1.000000
v -0.069328 -4.000000 2.000000
v -0.069328 -4.000000 1.000000
v -0.069328 -3.000000 2.000000
v -0.069328 -3.000000 1.000000
v -0.069328 -4.000000 2.000000
v -0.069328 -4.000000 1.000000
v 0.930672 -3.000000 2.000000
v 0.930672 -3.000000 1.000000
v 0.930672 -4.000000 2.000000
v 0.930672 -4.000000 1.000000
v -1.069328 -3.000000 2.000000
v -1.069328 -3.000000 1.000000
v -1.069328 -4.000000 2.000000
v -1.069328 -4.000000 1.000000
v -2.069328 -3.000000 2.000000
v -2.069328 -3.000000 1.000000
v -2.069328 -4.000000 2.000000
v -2.069328 -4.000000 1.000000
v -1.069328 -1.000000 2.000000
v -1.069328 -1.000000 1.000000
v -1.069328 -3.000000 2.000000
v -1.069328 -3.000000 1.000000
v -2.069328 -1.000000 2.000000
v -2.069328 -1.000000 1.000000
v -2.069328 -3.000000 2.000000
v -2.069328 -3.000000 1.000000
v -0.069328 -1.000000 2.000000
v -0.069328 -1.000000 1.000000
v -0.069328 -3.000000 2.000000
v -0.069328 -3.000000 1.000000
v 0.930672 -1.000000 2.000000
v 0.930672 -1.000000 1.000000
v 0.930672 -3.000000 2.000000
v 0.930672 -3.000000 1.000000
vn -0.0000 -1.0000 -0.0000
vn -0.0000 1.0000 -0.0000
vn -0.0000 -0.0000 -1.0000
vn -0.0000 -0.0000 1.0000
vn -1.0000 -0.0000 -0.0000
vn 1.0000 -0.0000 -0.0000
vt 0.875000 0.500000
vt 0.875000 0.625000
vt 1.000000 0.625000
vt 1.000000 0.500000
vt 1.000000 0.750000
vt 0.875000 0.750000
vt 0.875000 0.875000
vt 0.875000 1.000000
vt 1.000000 1.000000
vt 1.000000 0.875000
vt 0.250000 0.625000
vt 0.125000 0.625000
vt 0.125000 0.500000
vt 0.250000 0.500000
s 0
usemtl material
f 1/1/1 2/2/1 6/3/1 5/4/1
f 4/1/2 3/2/2 7/3/2 8/4/2
f 3/1/3 1/2/3 5/3/3 7/4/3
f 8/4/4 6/3/4 2/2/4 4/1/4
f 15/3/5 13/5/5 14/6/5 16/2/5
f 12/2/2 11/3/2 15/5/2 16/6/2
f 11/7/3 9/8/3 13/9/3 15/10/3
f 16/10/4 14/9/4 10/8/4 12/7/4
f 22/6/6 21/5/6 23/3/6 24/2/6
f 23/5/2 19/3/2 20/2/2 24/6/2
f 21/9/3 17/8/3 19/7/3 23/10/3
f 18/8/4 22/9/4 24/10/4 20/7/4
f 25/7/5 26/10/5 28/3/5 27/2/5
f 30/7/6 29/10/6 31/3/6 32/2/6
f 29/7/3 25/10/3 27/3/3 31/2/3
f 26/7/4 30/10/4 32/3/4 28/2/4
f 36/3/6 34/10/6 33/7/6 35/2/6
f 39/3/5 37/10/5 38/7/5 40/2/5
f 35/3/3 33/10/3 37/7/3 39/2/3
f 40/3/4 38/10/4 34/7/4 36/2/4
f 26/11/1 25/12/1 29/13/1 30/14/1
f 34/11/1 38/12/1 37/13/1 33/14/1
