# Blender 4.2.3 LTS
# www.blender.org
mtllib geothermal_exchanger_mirrored.mtl
o Cube
v 4.000000 0.500000 2.000000
v 0.000000 0.000000 1.000000
v 4.000000 0.500000 1.000000
v 4.000000 0.500000 -1.000000
v 4.000000 0.500000 -0.000000
v 4.000000 0.000000 1.000000
v 4.000000 0.000000 0.000000
v -1.000000 0.000000 0.000000
v -1.000000 -0.000000 -1.000000
v -1.000000 0.500000 2.000000
v -1.000000 0.500000 -1.000000
v -1.000000 0.000000 1.000000
v 0.000000 0.000000 0.000000
v -1.000000 0.000000 2.000000
v -1.000000 0.500000 1.000000
v -1.000000 0.500000 -0.000000
v 3.000000 2.000000 -1.000000
v 2.000000 2.000000 -1.000000
v 2.000000 2.000000 -0.000000
v 3.000000 2.000000 -0.000000
v 3.000000 0.500000 2.000000
v 2.000000 0.500000 2.000000
v 0.000000 0.500000 2.000000
v 1.000000 0.500000 2.000000
v 3.000000 0.500000 -1.000000
v 2.000000 0.500000 -1.000000
v 0.000000 0.500000 -1.000000
v 1.000000 0.500000 -1.000000
v 1.750000 0.516307 0.500000
v 1.250000 0.516307 1.000000
v 1.875000 0.516307 0.500000
v 1.875000 0.516307 1.000000
v 1.750000 0.516307 1.000000
v 1.125000 0.516307 1.000000
v 1.125000 0.516307 0.500000
v 1.250000 0.516307 0.500000
v 1.750000 1.000000 1.000000
v 1.750000 1.000000 0.500000
v 1.250000 1.000000 0.500000
v 1.250000 1.000000 1.000000
v 1.875000 1.000000 0.500000
v 1.875000 1.000000 1.000000
v 1.125000 1.000000 1.000000
v 1.125000 1.000000 0.500000
v 2.000000 2.000000 0.500000
v 1.000000 2.000000 0.500000
v 2.000000 1.000000 0.500000
v 1.000000 1.000000 0.500000
v 2.000000 2.000000 1.000000
v 1.000000 2.000000 1.000000
v 2.000000 1.000000 -0.000000
v 3.000000 1.000000 -0.000000
v 3.000000 1.000000 1.000000
v 2.000000 1.000000 1.000000
v 0.000000 1.000000 1.000000
v 0.000000 1.000000 -0.000000
v 1.000000 1.000000 1.000000
v 1.000000 1.000000 -0.000000
v 2.000000 -3.062500 0.625000
v 2.000000 -3.062500 0.375000
v 1.000000 -3.062500 0.625000
v 1.000000 -3.062500 0.375000
v 2.062500 0.000000 0.625000
v 2.062500 0.000000 0.375000
v 2.062500 -3.000000 0.625000
v 2.062500 -3.000000 0.375000
v 0.937500 -3.000000 0.625000
v 0.937500 -3.000000 0.375000
v 0.937500 0.000000 0.625000
v 0.937500 0.000000 0.375000
v 2.000000 0.000000 0.375000
v 2.000000 0.000000 0.625000
v 2.000000 -3.000000 0.375000
v 1.000000 -3.000000 0.375000
v 1.000000 0.000000 0.375000
v 2.000000 -3.000000 0.625000
v 1.000000 -3.000000 0.625000
v 1.000000 0.000000 0.625000
v 0.375000 -3.000000 0.937500
v 0.375000 0.000000 0.937500
v 0.625000 -3.000000 0.937500
v 0.625000 0.000000 0.937500
v 2.375000 -3.000000 0.937500
v 2.625000 -3.000000 0.937500
v 2.375000 0.000000 0.937500
v 2.625000 0.000000 0.937500
v 1.000000 -3.625000 0.937500
v 1.000000 -3.375000 0.937500
v 2.000000 -3.625000 0.937500
v 2.000000 -3.375000 0.937500
v 1.000000 -3.375000 0.062500
v 1.000000 -3.625000 0.062500
v 2.000000 -3.625000 0.062500
v 2.000000 -3.375000 0.062500
v 0.625000 -3.000000 0.062500
v 0.375000 -3.000000 0.062500
v 0.625000 0.000000 0.062500
v 0.375000 0.000000 0.062500
v 2.375000 -3.000000 0.062500
v 2.625000 -3.000000 0.062500
v 2.375000 0.000000 0.062500
v 2.625000 0.000000 0.062500
v 2.625000 -3.000000 1.000000
v 2.625000 0.000000 1.000000
v 0.375000 -3.000000 1.000000
v 0.375000 0.000000 1.000000
v 2.375000 -3.000000 1.000000
v 0.625000 -3.000000 1.000000
v 2.375000 0.000000 1.000000
v 0.625000 0.000000 1.000000
v 1.000000 -3.375000 1.000000
v 2.000000 -3.375000 1.000000
v 1.000000 -3.625000 1.000000
v 2.000000 -3.625000 1.000000
v 2.000000 -3.375000 0.000000
v 1.000000 -3.375000 0.000000
v 2.000000 -3.625000 0.000000
v 1.000000 -3.625000 0.000000
v 0.375000 -3.000000 0.000000
v 0.375000 0.000000 0.000000
v 0.625000 -3.000000 0.000000
v 0.625000 0.000000 0.000000
v 2.625000 -3.000000 0.000000
v 2.625000 0.000000 0.000000
v 2.375000 -3.000000 0.000000
v 2.375000 0.000000 0.000000
v 1.955806 -3.955806 0.625000
v 1.955806 -3.955806 0.375000
v 2.946653 -2.977903 0.625000
v 2.937500 0.000000 0.625000
v 2.946653 -2.977903 0.375000
v 2.937500 0.000000 0.375000
v 2.000000 -4.000000 0.625000
v 3.000000 -3.000000 0.625000
v 3.000000 0.000000 0.625000
v 2.000000 -4.000000 0.375000
v 3.000000 -3.000000 0.375000
v 3.000000 0.000000 0.375000
v 1.044194 -3.955806 0.625000
v 1.044194 -3.955806 0.375000
v 0.053347 -2.977903 0.375000
v 0.053347 -2.977903 0.625000
v 0.062500 0.000000 0.625000
v 0.062500 0.000000 0.375000
v 1.000000 -4.000000 0.375000
v 0.000000 0.000000 0.375000
v 0.000000 -3.000000 0.375000
v 1.000000 -4.000000 0.625000
v 0.000000 -3.000000 0.625000
v 0.000000 0.000000 0.625000
v 2.000000 -0.000000 -1.000000
v 3.000000 -0.000000 -1.000000
v 2.000000 0.000000 2.000000
v 2.000000 0.500000 1.000000
v 2.000000 0.500000 -0.000000
v 2.000000 -4.000000 1.000000
v 2.000000 -4.000000 0.000000
v 3.000000 0.500000 1.000000
v 3.000000 0.500000 -0.000000
v 1.000000 -4.000000 0.000000
v 1.000000 -4.000000 1.000000
v 2.000000 -3.000000 1.000000
v 2.000000 -3.000000 0.000000
v 3.000000 -3.000000 1.000000
v 3.000000 -3.000000 0.000000
v 0.000000 -3.000000 0.000000
v 1.000000 -3.000000 0.000000
v 0.000000 -3.000000 1.000000
v 1.000000 -3.000000 1.000000
v 2.000000 0.000000 1.000000
v 2.000000 0.000000 0.000000
v 3.000000 0.000000 1.000000
v 3.000000 0.000000 0.000000
v 0.000000 0.000000 0.000000
v 3.000000 0.000000 2.000000
v 1.000000 0.000000 2.000000
v 0.000000 0.000000 2.000000
v 1.000000 0.000000 1.000000
v 1.000000 -0.000000 -1.000000
v 0.000000 0.500000 -0.000000
v 0.000000 0.500000 1.000000
v 1.000000 0.500000 -0.000000
v 1.000000 0.000000 0.000000
v 1.000000 0.500000 1.000000
v 0.000000 0.000000 1.000000
v 0.000000 -0.000000 -1.000000
v 4.000000 -0.000000 -1.000000
v 4.000000 0.000000 2.000000
v 2.062500 -2.000000 0.625000
v 2.062500 -1.000000 0.625000
v 2.062500 -2.000000 0.375000
v 2.062500 -1.000000 0.375000
v 2.000000 -2.000000 0.625000
v 2.000000 -1.000000 0.625000
v 2.000000 -2.000000 0.375000
v 2.000000 -1.000000 0.375000
v 2.625000 -1.000000 0.937500
v 2.625000 -2.000000 0.937500
v 2.375000 -1.000000 0.937500
v 2.375000 -2.000000 0.937500
v 2.625000 -1.000000 0.062500
v 2.625000 -2.000000 0.062500
v 2.375000 -1.000000 0.062500
v 2.375000 -2.000000 0.062500
v 2.625000 -1.000000 1.000000
v 2.625000 -2.000000 1.000000
v 2.375000 -1.000000 1.000000
v 2.375000 -2.000000 1.000000
v 2.625000 -1.000000 0.000000
v 2.625000 -2.000000 0.000000
v 2.375000 -1.000000 0.000000
v 2.375000 -2.000000 0.000000
v 2.940551 -0.992634 0.625000
v 2.943602 -1.985269 0.625000
v 2.940551 -0.992634 0.375000
v 2.943602 -1.985269 0.375000
v 3.000000 -1.000000 0.625000
v 3.000000 -2.000000 0.625000
v 3.000000 -1.000000 0.375000
v 3.000000 -2.000000 0.375000
v 2.000000 -1.000000 0.000000
v 2.000000 -2.000000 0.000000
v 3.000000 -2.000000 0.000000
v 3.000000 -1.000000 0.000000
v 3.000000 -2.000000 1.000000
v 3.000000 -1.000000 1.000000
v 2.000000 -1.000000 1.000000
v 2.000000 -2.000000 1.000000
v 0.937500 -1.000000 0.375000
v 0.937500 -2.000000 0.375000
v 0.937500 -1.000000 0.625000
v 0.937500 -2.000000 0.625000
v 1.000000 -1.000000 0.375000
v 1.000000 -2.000000 0.375000
v 1.000000 -1.000000 0.625000
v 1.000000 -2.000000 0.625000
v 0.375000 -1.000000 0.937500
v 0.375000 -2.000000 0.937500
v 0.625000 -1.000000 0.937500
v 0.625000 -2.000000 0.937500
v 0.375000 -1.000000 0.062500
v 0.375000 -2.000000 0.062500
v 0.625000 -1.000000 0.062500
v 0.625000 -2.000000 0.062500
v 0.375000 -1.000000 1.000000
v 0.375000 -2.000000 1.000000
v 0.625000 -1.000000 1.000000
v 0.625000 -2.000000 1.000000
v 0.375000 -1.000000 0.000000
v 0.375000 -2.000000 0.000000
v 0.625000 -1.000000 0.000000
v 0.625000 -2.000000 0.000000
v 0.059449 -0.992634 0.625000
v 0.056398 -1.985269 0.625000
v 0.056398 -1.985269 0.375000
v 0.059449 -0.992634 0.375000
v 0.000000 -1.000000 0.625000
v 0.000000 -2.000000 0.625000
v 0.000000 -2.000000 0.375000
v 0.000000 -1.000000 0.375000
v 1.000000 -1.000000 0.000000
v 1.000000 -2.000000 0.000000
v 1.000000 -2.000000 1.000000
v 1.000000 -1.000000 1.000000
v 0.000000 -1.000000 1.000000
v 0.000000 -2.000000 1.000000
v 0.000000 -2.000000 0.000000
v 0.000000 -1.000000 0.000000
vn -0.0000 -0.0000 1.0000
vn -0.0000 -0.0000 -1.0000
vn -0.0000 -1.0000 -0.0000
vn -0.0000 1.0000 -0.0000
vn 1.0000 -0.0000 -0.0000
vn -1.0000 -0.0000 -0.0000
vn -0.7071 0.7071 -0.0000
vn 0.7071 0.7071 -0.0000
vn -0.7071 -0.7071 -0.0000
vn 0.7071 -0.7071 -0.0000
vn 0.7024 -0.7117 -0.0000
vn 1.0000 0.0031 -0.0000
vn -0.7024 -0.7117 -0.0000
vn -1.0000 0.0031 -0.0000
vn -0.0000 -0.0000 -0.0000
vt 0.125000 0.812500
vt 0.125000 0.828125
vt 0.109375 0.828125
vt 0.250000 0.875000
vt 0.250000 1.000000
vt 0.000000 1.000000
vt 0.000000 0.875000
vt 0.250000 0.250000
vt 0.250000 0.500000
vt 0.000000 0.500000
vt 0.000000 0.250000
vt 0.250000 0.750000
vt 0.000000 0.750000
vt 0.500000 0.875000
vt 0.500000 1.000000
vt 0.500000 0.500000
vt 0.500000 0.750000
vt 0.750000 0.250000
vt 0.500000 0.250000
vt 0.500000 0.625000
vt 0.750000 0.625000
vt 0.250000 -0.000000
vt 0.500000 0.000000
vt 1.000000 0.000000
vt 1.000000 0.250000
vt 0.750000 -0.000000
vt 0.187500 0.375000
vt 0.187500 0.500000
vt 0.062500 0.500000
vt 0.062500 0.375000
vt 0.031250 0.312500
vt 0.062500 0.312500
vt 0.062500 0.437500
vt 0.031250 0.437500
vt 0.218750 0.437500
vt 0.187500 0.437500
vt 0.187500 0.312500
vt 0.218750 0.312500
vt 0.046875 0.453125
vt 0.015625 0.453125
vt 0.015625 0.312500
vt 0.046875 0.312500
vt 0.031250 0.500000
vt 0.000000 0.375000
vt 0.031250 0.375000
vt 0.203125 0.312500
vt 0.234375 0.312500
vt 0.234375 0.437500
vt 0.203125 0.437500
vt 0.250000 0.359375
vt 0.000000 0.359375
vt 0.250000 0.390625
vt 0.000000 0.390625
vt 0.250000 0.375000
vt 0.125000 0.500000
vt 0.125000 0.250000
vt 0.750000 0.875000
vt 1.000000 0.625000
vt 1.000000 0.875000
vt 0.218750 0.500000
vt 0.218750 0.375000
vt 0.000000 0.000000
vt 0.000000 0.812500
vt 0.250000 0.812500
vt 0.250000 0.828125
vt 0.000000 0.828125
vt 0.062500 0.828125
vt 0.062500 0.812500
vt 0.015625 0.343750
vt 0.015625 0.406250
vt -0.000000 0.406250
vt -0.000000 0.343750
vt 0.250000 0.343750
vt 0.250000 0.406250
vt 0.234375 0.406250
vt 0.234375 0.343750
vt 0.250000 0.781250
vt 0.000000 0.781250
vt 0.296875 0.828125
vt 0.296875 0.812500
vt 0.093750 0.250000
vt 0.156250 0.250000
vt 0.156250 0.265625
vt 0.093750 0.265625
vt 0.093750 0.812500
vt 0.265625 0.812500
vt 0.265625 0.828125
vt 0.093750 0.828125
vt 0.312500 0.859375
vt 0.046875 0.859375
vt 0.156250 0.500000
vt 0.093750 0.500000
vt 0.093750 0.484375
vt 0.156250 0.484375
vt 0.250000 0.859375
vt 0.000000 0.859375
vt 0.359375 0.875000
vt 0.109375 0.859375
vt 0.171875 0.796875
vt 0.234375 0.859375
vt 0.187500 0.796875
vt 0.125000 0.859375
vt 0.359375 0.812500
vt 0.359375 0.828125
vt 0.359375 0.750000
vt 0.359375 0.781250
vt 0.000000 0.796875
vt 0.359375 0.796875
vt 0.250000 0.515625
vt 0.000000 0.515625
vt 0.000000 0.765625
vt 0.250000 0.765625
vt 0.546875 0.718750
vt 0.578125 0.703125
vt 0.609375 0.750000
s 0
usemtl geothermal
f 66/1/1 73/2/1 60/3/1
f 65/1/2 59/2/2 76/3/2
f 152/4/2 25/5/2 4/6/2 187/7/2
f 21/5/1 175/4/1 188/7/1 1/6/1
f 175/8/3 172/9/3 6/10/3 188/11/3
f 173/8/3 152/9/3 187/10/3 7/11/3
f 159/10/4 158/9/4 3/12/4 5/13/4
f 7/14/5 5/15/5 3/5/5 6/4/5
f 3/5/5 1/6/5 188/7/5 6/4/5
f 7/4/5 187/7/5 4/6/5 5/5/5
f 174/10/3 185/11/3 12/8/3 8/9/3
f 180/9/4 27/16/4 11/17/4 16/12/4
f 181/10/4 180/9/4 16/12/4 15/13/4
f 177/4/1 23/5/1 10/6/1 14/7/1
f 185/10/3 177/11/3 14/8/3 12/9/3
f 16/15/6 8/14/6 12/4/6 15/5/6
f 14/7/6 10/6/6 15/5/6 12/4/6
f 16/5/6 11/6/6 9/7/6 8/4/6
f 27/5/2 186/4/2 9/7/2 11/6/2
f 23/16/4 181/9/4 15/12/4 10/17/4
f 186/10/3 174/11/3 8/8/3 9/9/3
f 172/8/3 173/9/3 7/10/3 6/11/3
f 25/16/4 159/9/4 5/12/4 4/17/4
f 151/9/3 152/10/3 173/11/3 171/8/3
f 26/18/6 155/19/6 19/20/6 18/21/6
f 51/8/4 54/22/4 53/23/4 52/19/4
f 20/24/4 17/25/4 18/18/4 19/26/4
f 176/4/1 153/14/1 22/15/1 24/5/1
f 175/14/1 21/15/1 22/5/1 153/4/1
f 175/11/3 153/8/3 170/9/3 172/10/3
f 181/8/4 23/19/4 24/16/4 184/9/4
f 179/14/2 28/15/2 26/5/2 151/4/2
f 182/8/4 28/19/4 27/16/4 180/9/4
f 40/27/3 39/28/3 38/29/3 37/30/3
f 38/31/2 41/32/2 31/33/2 29/34/2
f 44/35/2 39/36/2 36/37/2 35/38/2
f 37/37/6 38/36/6 29/33/6 33/32/6
f 43/33/6 44/32/6 35/37/6 34/36/6
f 40/39/1 43/40/1 34/41/1 30/42/1
f 39/33/5 40/32/5 30/37/5 36/36/5
f 41/37/5 42/36/5 32/33/5 31/32/5
f 54/43/3 42/10/3 41/44/3 47/45/3
f 42/46/1 37/47/1 33/48/1 32/49/1
f 184/50/5 182/51/5 58/11/5 57/8/5
f 155/11/6 154/8/6 54/52/6 51/53/6
f 49/54/4 45/9/4 46/10/4 50/44/4
f 45/8/2 47/9/2 48/10/2 46/11/2
f 54/55/5 47/9/5 45/8/5 49/56/5
f 48/10/6 57/55/6 50/56/6 46/11/6
f 182/50/2 180/51/2 56/11/2 58/8/2
f 19/57/1 51/21/1 52/58/1 20/59/1
f 43/9/3 57/60/3 48/61/3 44/54/3
f 50/11/1 57/62/1 54/22/1 49/8/1
f 158/52/5 159/53/5 52/10/5 53/9/5
f 181/50/1 184/51/1 57/11/1 55/8/1
f 57/26/4 58/18/4 56/19/4 55/23/4
f 73/63/1 74/64/1 62/65/1 60/66/1
f 61/12/4 59/13/4 60/63/4 62/64/4
f 194/64/2 72/63/2 63/66/2 190/65/2
f 60/67/7 59/66/7 65/63/7 66/68/7
f 72/69/3 71/70/3 64/71/3 63/72/3
f 190/64/6 63/63/6 64/13/6 192/12/6
f 75/73/3 78/74/3 69/75/3 70/76/3
f 259/77/6 267/4/6 166/7/6 147/78/6
f 236/64/2 77/63/2 67/66/2 232/65/2
f 233/63/1 75/64/1 70/65/1 229/66/1
f 228/7/6 193/78/6 76/77/6 162/4/6
f 195/63/1 73/64/1 66/65/1 191/66/1
f 77/65/2 76/66/2 59/63/2 61/64/2
f 230/64/5 232/12/5 67/13/5 68/63/5
f 62/68/8 68/67/8 67/66/8 61/63/8
f 169/4/4 162/7/4 76/78/4 77/77/4
f 145/65/1 136/66/1 128/63/1 140/64/1
f 127/66/2 133/63/2 148/64/2 139/65/2
f 113/65/4 114/66/4 89/63/4 87/64/4
f 105/79/8 113/67/8 87/68/8 79/80/8
f 110/81/3 106/82/3 80/83/3 82/84/3
f 112/63/3 111/64/3 88/65/3 90/66/3
f 111/85/9 108/86/9 81/87/9 88/88/9
f 262/4/5 234/77/5 74/78/5 167/7/5
f 114/80/7 103/68/7 84/67/7 89/79/7
f 90/86/1 89/89/1 84/90/1 83/85/1
f 87/90/1 88/85/1 81/86/1 79/89/1
f 247/66/6 110/65/6 82/64/6 239/63/6
f 198/63/1 200/13/1 83/12/1 84/64/1
f 90/13/1 88/12/1 87/64/1 89/63/1
f 115/63/3 94/66/3 91/65/3 116/64/3
f 126/91/3 124/92/3 102/93/3 101/94/3
f 115/87/10 125/88/10 99/85/10 94/86/10
f 120/91/3 122/92/3 97/93/3 98/94/3
f 118/68/8 119/80/8 96/79/8 92/67/8
f 211/65/5 126/66/5 101/63/5 203/64/5
f 210/66/6 123/65/6 100/64/6 202/63/6
f 95/86/2 91/85/2 92/90/2 96/89/2
f 100/90/2 93/89/2 94/86/2 99/85/2
f 93/13/2 92/12/2 91/95/2 94/96/2
f 240/12/1 238/64/1 79/63/1 81/13/1
f 204/13/2 202/63/2 100/64/2 99/12/2
f 164/7/1 103/68/1 114/80/1 156/97/1
f 107/98/1 162/99/1 112/100/1
f 107/88/10 112/87/10 90/86/10 83/85/10
f 208/66/5 107/65/5 83/64/5 200/63/5
f 111/98/1 169/99/1 108/100/1
f 168/97/1 161/7/1 113/68/1 105/80/1
f 157/97/2 117/80/2 123/68/2 165/7/2
f 160/7/2 166/97/2 119/80/2 118/68/2
f 167/101/2 116/102/2 121/95/2
f 163/101/2 125/102/2 115/95/2
f 123/68/7 117/80/7 93/79/7 100/67/7
f 118/65/4 92/64/4 93/63/4 117/66/4
f 225/7/1 206/78/1 103/77/1 164/4/1
f 205/64/6 104/63/6 86/66/6 197/65/6
f 242/12/2 244/64/2 95/63/2 96/13/2
f 104/81/3 109/82/3 85/83/3 86/84/3
f 162/7/1 169/4/1 111/77/1 112/78/1
f 263/4/1 248/77/1 108/78/1 169/7/1
f 246/65/5 105/66/5 79/63/5 238/64/5
f 157/7/2 160/4/2 118/77/2 117/78/2
f 249/63/5 120/64/5 98/65/5 241/66/5
f 121/87/9 116/88/9 91/85/9 95/86/9
f 267/4/2 250/77/2 119/78/2 166/7/2
f 222/7/2 212/78/2 125/77/2 163/4/2
f 134/63/2 133/103/2 127/104/2 129/66/2
f 127/13/3 139/12/3 140/64/3 128/63/3
f 129/13/11 127/105/11 128/103/11 131/63/11
f 219/65/1 138/66/1 132/63/1 215/64/1
f 138/73/3 135/74/3 130/75/3 132/76/3
f 216/63/12 214/13/12 129/12/12 131/64/12
f 218/63/2 134/64/2 129/65/2 214/66/2
f 164/7/10 156/97/10 133/106/10 134/78/10
f 223/7/5 220/78/5 137/77/5 165/4/5
f 136/103/1 137/63/1 131/107/1 128/108/1
f 148/63/2 149/103/2 142/104/2 139/66/2
f 147/104/1 145/66/1 140/63/1 141/103/1
f 157/7/3 136/78/3 145/77/3 160/4/3
f 142/105/13 141/103/13 140/63/13 139/13/13
f 252/65/6 121/66/6 95/63/6 244/64/6
f 150/69/3 146/70/3 144/71/3 143/72/3
f 257/63/2 150/64/2 143/65/2 253/66/2
f 255/64/14 141/63/14 142/13/14 254/12/14
f 259/65/1 147/66/1 141/63/1 255/64/1
f 168/97/9 149/106/9 148/78/9 161/7/9
f 74/77/4 73/78/4 163/7/4 167/4/4
f 25/18/5 17/21/5 20/20/5 159/19/5
f 28/5/2 179/4/2 186/14/2 27/15/2
f 28/19/4 182/8/4 155/9/4 26/16/4
f 25/5/2 152/4/2 151/14/2 26/15/2
f 25/18/2 26/19/2 18/20/2 17/21/2
f 23/5/1 177/4/1 176/14/1 24/15/1
f 176/8/3 178/9/3 170/10/3 153/11/3
f 21/16/4 158/9/4 154/8/4 22/19/4
f 24/19/4 22/16/4 154/9/4 184/8/4
f 182/9/4 184/10/4 154/11/4 155/8/4
f 180/50/6 181/51/6 55/11/6 56/8/6
f 114/78/1 113/77/1 161/4/1 156/7/1
f 137/78/10 136/106/10 157/97/10 165/7/10
f 115/78/2 116/77/2 167/4/2 163/7/2
f 147/106/9 166/97/9 160/7/9 145/78/9
f 210/78/2 223/7/2 165/4/2 123/77/2
f 222/7/6 163/4/6 73/77/6 195/78/6
f 258/77/6 149/78/6 168/7/6 266/4/6
f 218/78/5 225/7/5 164/4/5 134/77/5
f 236/77/5 263/4/5 169/7/5 77/78/5
f 161/4/3 148/77/3 133/78/3 156/7/3
f 208/78/1 228/7/1 162/4/1 107/77/1
f 183/11/3 174/8/3 186/9/3 179/10/3
f 183/9/3 171/10/3 170/11/3 178/8/3
f 252/77/2 262/4/2 167/7/2 121/78/2
f 158/9/4 21/16/4 1/17/4 3/12/4
f 171/11/3 183/8/3 179/9/3 151/10/3
f 177/8/3 185/109/3 178/110/3 176/11/3
f 154/44/1 158/54/1 53/9/1 54/10/1
f 61/3/2 67/1/2 77/2/2
f 62/1/1 74/2/1 68/3/1
f 109/78/1 170/7/1 227/4/1 207/77/1
f 207/78/1 227/7/1 228/4/1 208/77/1
f 135/78/5 172/7/5 226/4/5 217/77/5
f 217/78/5 226/7/5 225/4/5 218/77/5
f 171/7/6 221/4/6 196/77/6 71/78/6
f 221/7/6 222/4/6 195/77/6 196/78/6
f 124/78/2 173/7/2 224/4/2 209/77/2
f 209/78/2 224/7/2 223/4/2 210/77/2
f 173/7/5 138/78/5 219/77/5 224/4/5
f 224/7/5 219/78/5 220/77/5 223/4/5
f 135/66/2 217/65/2 213/64/2 130/63/2
f 217/63/2 218/64/2 214/65/2 213/66/2
f 132/63/12 130/13/12 213/12/12 215/64/12
f 215/63/12 213/13/12 214/12/12 216/64/12
f 137/64/1 220/63/1 216/66/1 131/65/1
f 220/64/1 219/63/1 215/66/1 216/65/1
f 171/7/2 126/78/2 211/77/2 221/4/2
f 221/7/2 211/78/2 212/77/2 222/4/2
f 103/64/6 206/63/6 198/66/6 84/65/6
f 206/64/6 205/63/6 197/66/6 198/65/6
f 172/7/1 104/78/1 205/77/1 226/4/1
f 226/7/1 205/78/1 206/77/1 225/4/1
f 109/66/5 207/65/5 199/64/5 85/63/5
f 207/63/5 208/64/5 200/65/5 199/66/5
f 101/13/2 102/63/2 201/64/2 203/12/2
f 203/13/2 201/63/2 202/64/2 204/12/2
f 124/63/6 209/64/6 201/65/6 102/66/6
f 209/63/6 210/64/6 202/65/6 201/66/6
f 125/65/5 212/66/5 204/63/5 99/64/5
f 212/65/5 211/66/5 203/63/5 204/64/5
f 86/63/1 85/13/1 199/12/1 197/64/1
f 197/63/1 199/13/1 200/12/1 198/64/1
f 71/66/1 196/65/1 192/64/1 64/63/1
f 196/66/1 195/65/1 191/64/1 192/63/1
f 170/7/6 72/78/6 194/77/6 227/4/6
f 227/7/6 194/78/6 193/77/6 228/4/6
f 65/64/6 189/63/6 191/13/6 66/12/6
f 189/65/6 190/66/6 192/111/6 191/112/6
f 76/64/2 193/63/2 189/66/2 65/65/2
f 193/64/2 194/63/2 190/66/2 189/65/2
f 246/77/1 266/4/1 168/7/1 105/78/1
f 174/113/15 146/114/15 186/115/15
f 106/77/1 185/4/1 265/7/1 245/78/1
f 245/77/1 265/4/1 266/7/1 246/78/1
f 122/77/2 183/4/2 261/7/2 251/78/2
f 251/77/2 261/4/2 262/7/2 252/78/2
f 78/77/5 178/4/5 264/7/5 235/78/5
f 235/77/5 264/4/5 263/7/5 236/78/5
f 150/77/6 257/78/6 265/7/6 185/4/6
f 257/77/6 258/78/6 266/7/6 265/4/6
f 146/65/1 260/66/1 256/63/1 144/64/1
f 260/65/1 259/66/1 255/63/1 256/64/1
f 144/64/14 256/63/14 253/13/14 143/12/14
f 256/64/14 255/63/14 254/13/14 253/12/14
f 149/63/2 258/64/2 254/65/2 142/66/2
f 258/63/2 257/64/2 253/65/2 254/66/2
f 122/65/6 251/66/6 243/63/6 97/64/6
f 251/65/6 252/66/6 244/63/6 243/64/6
f 174/4/2 120/77/2 249/78/2 268/7/2
f 268/4/2 249/77/2 250/78/2 267/7/2
f 119/66/5 250/65/5 242/64/5 96/63/5
f 250/66/5 249/65/5 241/64/5 242/63/5
f 106/65/5 245/66/5 237/63/5 80/64/5
f 245/65/5 246/66/5 238/63/5 237/64/5
f 178/4/1 110/77/1 247/78/1 264/7/1
f 264/4/1 247/77/1 248/78/1 263/7/1
f 98/12/2 97/64/2 243/63/2 241/13/2
f 241/12/2 243/64/2 244/63/2 242/13/2
f 82/12/1 80/64/1 237/63/1 239/13/1
f 239/12/1 237/64/1 238/63/1 240/13/1
f 108/66/6 248/65/6 240/64/6 81/63/6
f 248/63/6 247/64/6 239/65/6 240/66/6
f 183/4/5 75/77/5 233/78/5 261/7/5
f 261/4/5 233/77/5 234/78/5 262/7/5
f 70/64/5 69/12/5 231/13/5 229/63/5
f 229/64/5 231/12/5 232/13/5 230/63/5
f 74/63/1 234/64/1 230/65/1 68/66/1
f 234/63/1 233/64/1 229/65/1 230/66/1
f 78/64/2 235/63/2 231/66/2 69/65/2
f 235/64/2 236/63/2 232/66/2 231/65/2
f 146/77/6 174/4/6 268/7/6 260/78/6
f 260/77/6 268/4/6 267/7/6 259/78/6
l 2 13
l 48 58
l 47 51
l 155 159
