# Blender 4.2.3 LTS
# www.blender.org
mtllib rotary_kiln_mirrored.mtl
o cube
v 4.000000 2.000000 2.000000
v 6.000000 2.000000 2.000000
v 4.000000 1.000000 2.000000
v 6.000000 1.000000 2.000000
v 4.000000 2.000000 -1.000000
v 6.000000 2.000000 -1.000000
v 4.000000 1.000000 -1.000000
v 6.000000 1.000000 -1.000000
v 4.000000 1.000000 2.000000
v 6.000000 1.000000 2.000000
v 4.000000 0.000000 2.000000
v 5.000000 0.000000 2.000000
v 4.000000 1.000000 -1.000000
v 6.000000 1.000000 -1.000000
v 4.000000 -0.000000 -1.000000
v 5.000000 -0.000000 -1.000000
v 4.000000 0.000000 2.000000
v 5.000000 0.000000 2.000000
v 4.000000 -1.000000 2.000000
v 5.000000 -1.000000 2.000000
v 4.000000 -0.000000 -1.000000
v 5.000000 -0.000000 -1.000000
v 4.000000 -1.000000 -1.000000
v 5.000000 -1.000000 -1.000000
v 5.250000 1.000000 2.000000
v 5.250000 1.500000 2.000000
v 4.500000 1.500000 2.000000
v 4.500000 1.000000 2.000000
v 4.500000 1.000000 2.000000
v 4.500000 0.750000 2.000000
v 5.250000 0.750000 2.000000
v 5.250000 1.000000 2.000000
v 5.000000 -0.500000 -0.000000
v 6.000000 -0.500000 -0.000000
v 5.000000 -1.000000 0.000000
v 6.000000 -1.000000 0.000000
v 5.000000 -0.500000 -1.000000
v 6.000000 -0.500000 -1.000000
v 5.000000 -1.000000 -1.000000
v 6.000000 -1.000000 -1.000000
v 6.000000 -0.750000 -0.000000
v 5.000000 -0.750000 -0.000000
v 5.000000 -0.750000 -1.000000
v 6.000000 -0.750000 -1.000000
v 5.000000 -0.500000 2.000000
v 6.000000 -0.500000 2.000000
v 5.000000 -1.000000 2.000000
v 6.000000 -1.000000 2.000000
v 5.000000 -0.500000 1.000000
v 6.000000 -0.500000 1.000000
v 5.000000 -1.000000 1.000000
v 6.000000 -1.000000 1.000000
v 6.000000 -0.750000 2.000000
v 5.000000 -0.750000 2.000000
v 5.000000 -0.750000 1.000000
v 6.000000 -0.750000 1.000000
v 3.000000 -0.500000 -0.000000
v 4.000000 -0.500000 -0.000000
v 3.000000 -1.000000 0.000000
v 4.000000 -1.000000 0.000000
v 3.000000 -0.500000 -1.000000
v 4.000000 -0.500000 -1.000000
v 3.000000 -1.000000 -1.000000
v 4.000000 -1.000000 -1.000000
v 4.000000 -0.750000 -0.000000
v 3.000000 -0.750000 -0.000000
v 3.000000 -0.750000 -1.000000
v 4.000000 -0.750000 -1.000000
v 3.000000 -0.500000 2.000000
v 4.000000 -0.500000 2.000000
v 3.000000 -1.000000 2.000000
v 4.000000 -1.000000 2.000000
v 3.000000 -0.500000 1.000000
v 4.000000 -0.500000 1.000000
v 3.000000 -1.000000 1.000000
v 4.000000 -1.000000 1.000000
v 4.000000 -0.750000 2.000000
v 3.000000 -0.750000 2.000000
v 3.000000 -0.750000 1.000000
v 4.000000 -0.750000 1.000000
v 1.000000 -0.500000 2.000000
v 2.000000 -0.500000 2.000000
v 1.000000 -1.000000 2.000000
v 2.000000 -1.000000 2.000000
v 1.000000 -0.500000 1.000000
v 2.000000 -0.500000 1.000000
v 1.000000 -1.000000 1.000000
v 2.000000 -1.000000 1.000000
v 2.000000 -0.750000 2.000000
v 1.000000 -0.750000 2.000000
v 1.000000 -0.750000 1.000000
v 2.000000 -0.750000 1.000000
v 1.000000 -0.500000 -0.000000
v 2.000000 -0.500000 -0.000000
v 1.000000 -1.000000 0.000000
v 2.000000 -1.000000 0.000000
v 1.000000 -0.500000 -1.000000
v 2.000000 -0.500000 -1.000000
v 1.000000 -1.000000 -1.000000
v 2.000000 -1.000000 -1.000000
v 2.000000 -0.750000 -0.000000
v 1.000000 -0.750000 -0.000000
v 1.000000 -0.750000 -1.000000
v 2.000000 -0.750000 -1.000000
v -1.000000 -0.500000 -0.000000
v 0.000000 -0.500000 -0.000000
v -1.000000 -1.000000 0.000000
v 0.000000 -1.000000 0.000000
v -1.000000 -0.500000 -1.000000
v 0.000000 -0.500000 -1.000000
v -1.000000 -1.000000 -1.000000
v 0.000000 -1.000000 -1.000000
v 0.000000 -0.750000 -0.000000
v -1.000000 -0.750000 -0.000000
v -1.000000 -0.750000 -1.000000
v 0.000000 -0.750000 -1.000000
v -1.000000 -0.500000 2.000000
v 0.000000 -0.500000 2.000000
v -1.000000 -1.000000 2.000000
v 0.000000 -1.000000 2.000000
v -1.000000 -0.500000 1.000000
v 0.000000 -0.500000 1.000000
v -1.000000 -1.000000 1.000000
v 0.000000 -1.000000 1.000000
v 0.000000 -0.750000 2.000000
v -1.000000 -0.750000 2.000000
v -1.000000 -0.750000 1.000000
v 0.000000 -0.750000 1.000000
v 0.750000 2.000000 1.750000
v 0.250000 2.000000 1.750000
v 0.750000 2.000000 1.250000
v 0.250000 2.000000 1.250000
v 0.750000 1.687500 1.750000
v 0.250000 1.687500 1.750000
v 0.750000 1.687500 1.250000
v 0.250000 1.687500 1.250000
v 0.750000 2.000000 0.750000
v 0.250000 2.000000 0.750000
v 0.750000 2.000000 0.250000
v 0.250000 2.000000 0.250000
v 0.750000 1.687500 0.750000
v 0.250000 1.687500 0.750000
v 0.750000 1.687500 0.250000
v 0.250000 1.687500 0.250000
v 0.750000 2.000000 -0.250000
v 0.250000 2.000000 -0.250000
v 0.750000 2.000000 -0.750000
v 0.250000 2.000000 -0.750000
v 0.750000 1.687500 -0.250000
v 0.250000 1.687500 -0.250000
v 0.750000 1.687500 -0.750000
v 0.250000 1.687500 -0.750000
v 2.897747 0.125000 -0.186081
v 3.059509 0.125000 -0.789784
v 2.897747 -0.500000 -0.186081
v 3.059509 -0.500000 -0.789784
v 2.294044 0.125000 -0.347843
v 2.455806 0.125000 -0.951547
v 2.294044 -0.500000 -0.347843
v 2.455806 -0.500000 -0.951547
v 3.042079 1.649193 1.312500
v 3.540177 1.692770 1.312500
v 3.183707 0.030376 1.312500
v 3.681805 0.073954 1.312500
v 3.042079 1.649193 -0.312500
v 3.540177 1.692770 -0.312500
v 3.183707 0.030376 -0.312500
v 3.681805 0.073954 -0.312500
v 1.298738 1.496670 1.312500
v 1.796836 1.540248 1.312500
v 1.440367 -0.122146 1.312500
v 1.938464 -0.078568 1.312500
v 1.298738 1.496670 -0.312500
v 1.796836 1.540248 -0.312500
v 1.440366 -0.122146 -0.312500
v 1.938464 -0.078568 -0.312500
v -2.000000 2.000000 -0.000000
v -1.000000 2.000000 -0.000000
v -2.000000 -1.000000 0.000000
v -1.000000 -1.000000 0.000000
v -2.000000 2.000000 -1.000000
v -1.000000 2.000000 -1.000000
v -2.000000 -1.000000 -1.000000
v -1.000000 -1.000000 -1.000000
v -2.000000 2.000000 2.000000
v -1.000000 2.000000 2.000000
v -2.000000 -1.000000 2.000000
v -1.000000 -1.000000 2.000000
v -2.000000 2.000000 1.000000
v -1.000000 2.000000 1.000000
v -2.000000 -1.000000 1.000000
v -1.000000 -1.000000 1.000000
v 0.000000 1.750000 2.000000
v 1.000000 1.750000 2.000000
v 0.000000 -1.000000 2.000000
v 1.000000 -1.000000 2.000000
v 0.000000 1.750000 -1.000000
v 1.000000 1.750000 -1.000000
v 0.000000 -1.000000 -1.000000
v 1.000000 -1.000000 -1.000000
v 1.000000 -0.500000 1.000000
v 2.000000 -0.500000 1.000000
v 1.000000 -1.000000 1.000000
v 2.000000 -1.000000 1.000000
v 1.000000 -0.500000 -0.000000
v 2.000000 -0.500000 -0.000000
v 1.000000 -1.000000 0.000000
v 2.000000 -1.000000 0.000000
v 2.000000 -0.500000 -0.000000
v 3.000000 -0.500000 -0.000000
v 2.000000 -1.000000 0.000000
v 3.000000 -1.000000 0.000000
v 2.000000 -0.500000 -1.000000
v 3.000000 -0.500000 -1.000000
v 2.000000 -1.000000 -1.000000
v 3.000000 -1.000000 -1.000000
v 2.000000 -0.500000 2.000000
v 3.000000 -0.500000 2.000000
v 2.000000 -1.000000 2.000000
v 3.000000 -1.000000 2.000000
v 2.000000 -0.500000 1.000000
v 3.000000 -0.500000 1.000000
v 2.000000 -1.000000 1.000000
v 3.000000 -1.000000 1.000000
v 0.000000 1.750000 2.000000
v 1.000000 1.750000 2.000000
v 0.000000 1.750000 1.000000
v 1.000000 1.750000 1.000000
v 0.000000 1.750000 1.000000
v 1.000000 1.750000 1.000000
v 0.000000 1.750000 -0.000000
v 1.000000 1.750000 -0.000000
v 0.000000 1.750000 -0.000000
v 1.000000 1.750000 -0.000000
v 0.000000 1.750000 -1.000000
v 1.000000 1.750000 -1.000000
v -2.000000 -0.500000 1.000000
v -1.000000 -0.500000 1.000000
v -2.000000 -1.000000 1.000000
v -1.000000 -1.000000 1.000000
v -2.000000 -0.500000 -0.000000
v -1.000000 -0.500000 -0.000000
v -2.000000 -1.000000 0.000000
v -1.000000 -1.000000 0.000000
v -1.000000 -0.500000 1.000000
v 0.000000 -0.500000 1.000000
v -1.000000 -1.000000 1.000000
v 0.000000 -1.000000 1.000000
v -1.000000 -0.500000 -0.000000
v 0.000000 -0.500000 -0.000000
v -1.000000 -1.000000 0.000000
v 0.000000 -1.000000 0.000000
v -1.437500 1.625000 1.437500
v 0.187500 1.625000 1.437500
v -1.437500 -0.250000 1.437500
v 0.187500 -0.250000 1.437500
v -1.437500 1.625000 -0.437500
v 0.187500 1.625000 -0.437500
v -1.437500 -0.250000 -0.437500
v 0.187500 -0.250000 -0.437500
v 4.000000 1.812500 1.437500
v 3.500000 1.812500 1.437500
v 4.000000 -0.062500 1.437500
v 3.500000 -0.062500 1.437500
v 4.000000 1.812500 -0.437500
v 3.500000 1.812500 -0.437500
v 4.000000 -0.062500 -0.437500
v 3.500000 -0.062500 -0.437500
v 1.000000 1.625000 1.437500
v 1.500000 1.625000 1.437500
v 1.000000 -0.250000 1.437500
v 1.500000 -0.250000 1.437500
v 1.000000 1.625000 -0.437500
v 1.500000 1.625000 -0.437500
v 1.000000 -0.250000 -0.437500
v 1.500000 -0.250000 -0.437500
v -1.000000 0.750000 2.000000
v 0.000000 0.750000 2.000000
v -1.000000 -0.500000 2.000000
v 0.000000 -0.500000 2.000000
v -1.000000 1.125000 1.437500
v 0.000000 1.125000 1.437500
v -0.500000 0.750000 2.000000
v -0.500000 -0.500000 2.000000
v -0.500000 1.125000 1.437500
v -1.000000 0.750000 -1.000000
v 0.000000 0.750000 -1.000000
v -1.000000 -0.500000 -1.000000
v 0.000000 -0.500000 -1.000000
v -1.000000 1.125000 -0.437500
v 0.000000 1.125000 -0.437500
v -0.500000 0.750000 -1.000000
v -0.500000 -0.500000 -1.000000
v -0.500000 1.125000 -0.437500
v -1.937500 1.000000 -0.000000
v -1.937500 1.000000 1.000000
v -1.937500 -0.500000 -0.000000
v -1.937500 -0.500000 1.000000
v -1.375000 1.375000 -0.000000
v -1.375000 1.375000 1.000000
v -1.937500 1.000000 0.500000
v -1.937500 -0.500000 0.500000
v -1.579545 1.238637 0.312500
v -1.579545 1.238637 0.687500
v -1.886364 1.034091 0.687500
v -1.886364 1.034091 0.312500
v -1.614214 1.290640 0.687500
v -1.614214 1.290640 0.312500
v -1.921032 1.086094 0.312500
v -1.921032 1.086094 0.687500
v -2.000000 0.750000 0.750000
v -1.937500 0.750000 0.750000
v -2.000000 0.250000 0.750000
v -1.937500 0.250000 0.750000
v -2.000000 0.750000 0.250000
v -1.937500 0.750000 0.250000
v -2.000000 0.250000 0.250000
v -1.937500 0.250000 0.250000
v -2.000000 0.937500 0.625000
v -1.937500 0.937500 0.625000
v -2.000000 0.750000 0.625000
v -1.937500 0.750000 0.625000
v -2.000000 0.937500 0.375000
v -1.937500 0.937500 0.375000
v -2.000000 0.750000 0.375000
v -1.937500 0.750000 0.375000
v 2.000000 1.000000 2.000000
v 3.000000 1.000000 2.000000
v 2.000000 0.000000 2.000000
v 3.000000 0.000000 2.000000
v 2.000000 1.000000 1.500000
v 3.000000 1.000000 1.500000
v 2.000000 0.000000 1.500000
v 3.000000 0.000000 1.500000
v 2.125000 0.000000 1.875000
v 2.250000 0.000000 1.875000
v 2.125000 -0.500000 1.875000
v 2.250000 -0.500000 1.875000
v 2.125000 0.000000 1.625000
v 2.250000 0.000000 1.625000
v 2.125000 -0.500000 1.625000
v 2.250000 -0.500000 1.625000
v 2.750000 0.000000 1.875000
v 2.875000 0.000000 1.875000
v 2.750000 -0.500000 1.875000
v 2.875000 -0.500000 1.875000
v 2.750000 0.000000 1.625000
v 2.875000 0.000000 1.625000
v 2.750000 -0.500000 1.625000
v 2.875000 -0.500000 1.625000
v 0.375000 1.875000 1.250000
v 0.625000 1.875000 1.250000
v 0.375000 1.625000 1.250000
v 0.625000 1.625000 1.250000
v 0.375000 1.875000 0.750000
v 0.625000 1.875000 0.750000
v 0.375000 1.625000 0.750000
v 0.625000 1.625000 0.750000
v 0.375000 1.875000 0.250000
v 0.625000 1.875000 0.250000
v 0.375000 1.625000 0.250000
v 0.625000 1.625000 0.250000
v 0.375000 1.875000 -0.250000
v 0.625000 1.875000 -0.250000
v 0.375000 1.625000 -0.250000
v 0.625000 1.625000 -0.250000
v 1.000000 -0.250000 1.562500
v 1.000000 -0.250000 1.812500
v 1.000000 -0.500000 1.562500
v 1.000000 -0.500000 1.812500
v 1.500000 -0.250000 1.562500
v 1.500000 -0.250000 1.812500
v 1.500000 -0.500000 1.562500
v 1.500000 -0.500000 1.812500
v 1.687500 -0.250000 1.562500
v 1.687500 -0.250000 1.812500
v 1.687500 -0.500000 1.562500
v 1.687500 -0.500000 1.812500
v 3.500000 -0.250000 1.562500
v 3.500000 -0.250000 1.812500
v 3.500000 -0.500000 1.562500
v 3.500000 -0.500000 1.812500
v 4.000000 -0.250000 1.562500
v 4.000000 -0.250000 1.812500
v 4.000000 -0.500000 1.562500
v 4.000000 -0.500000 1.812500
v 2.750000 -0.250000 1.187500
v 2.750000 -0.250000 1.437500
v 2.750000 -0.500000 1.187500
v 2.750000 -0.500000 1.437500
v 3.250000 -0.250000 1.187500
v 3.250000 -0.250000 1.437500
v 3.250000 -0.500000 1.187500
v 3.250000 -0.500000 1.437500
v 2.250000 -0.250000 1.187500
v 2.250000 -0.250000 1.437500
v 2.250000 -0.500000 1.187500
v 2.250000 -0.500000 1.437500
v 2.750000 -0.250000 1.187500
v 2.750000 -0.250000 1.437500
v 2.750000 -0.500000 1.187500
v 2.750000 -0.500000 1.437500
v 1.937500 -0.250000 1.187500
v 1.937500 -0.250000 1.437500
v 1.937500 -0.500000 1.187500
v 1.937500 -0.500000 1.437500
v 2.250000 -0.250000 1.187500
v 2.250000 -0.250000 1.437500
v 2.250000 -0.500000 1.187500
v 2.250000 -0.500000 1.437500
v 1.687500 -0.250000 1.562500
v 1.687500 -0.250000 1.812500
v 1.687500 -0.500000 1.562500
v 1.687500 -0.500000 1.812500
v 1.937500 -0.250000 1.562500
v 1.937500 -0.250000 1.812500
v 1.937500 -0.500000 1.562500
v 1.937500 -0.500000 1.812500
v 1.937500 -0.250000 1.437500
v 1.937500 -0.250000 1.187500
v 1.937500 -0.500000 1.437500
v 1.937500 -0.500000 1.187500
v 1.687500 -0.250000 1.437500
v 1.687500 -0.250000 1.187500
v 1.687500 -0.500000 1.437500
v 1.687500 -0.500000 1.187500
v 1.937500 -0.250000 1.562500
v 1.687500 -0.250000 1.562500
v 1.937500 -0.500000 1.562500
v 1.687500 -0.500000 1.562500
v 3.250000 -0.250000 1.437500
v 3.250000 -0.250000 1.187500
v 3.250000 -0.500000 1.437500
v 3.250000 -0.500000 1.187500
v 3.500000 -0.250000 1.437500
v 3.500000 -0.250000 1.187500
v 3.500000 -0.500000 1.437500
v 3.500000 -0.500000 1.187500
v 3.250000 -0.250000 1.562500
v 3.500000 -0.250000 1.562500
v 3.250000 -0.500000 1.562500
v 3.500000 -0.500000 1.562500
v 3.500000 -0.250000 1.562500
v 3.500000 -0.250000 1.812500
v 3.500000 -0.500000 1.562500
v 3.500000 -0.500000 1.812500
v 3.250000 -0.250000 1.562500
v 3.250000 -0.250000 1.812500
v 3.250000 -0.500000 1.562500
v 3.250000 -0.500000 1.812500
vn -0.0000 -0.0000 -1.0000
vn -0.0000 1.0000 -0.0000
vn -1.0000 -0.0000 -0.0000
vn 1.0000 -0.0000 -0.0000
vn 0.7071 -0.7071 -0.0000
vn -0.0000 -0.0000 1.0000
vn -0.0000 -1.0000 -0.0000
vn 0.9659 -0.0000 0.2588
vn -0.9659 -0.0000 -0.2588
vn -0.2588 -0.0000 0.9659
vn 0.2588 -0.0000 -0.9659
vn -0.0872 0.9962 -0.0000
vn 0.0872 -0.9962 -0.0000
vn -0.9962 -0.0872 -0.0000
vn 0.9962 0.0872 -0.0000
vn -0.0000 0.8321 0.5547
vn -0.0000 0.8321 -0.5547
vn -0.5547 0.8321 -0.0000
vn -0.5547 0.8320 -0.0000
vn 0.8320 0.5547 -0.0000
vn -0.8321 -0.5547 -0.0000
vt 0.818750 0.900000
vt 0.818750 1.000000
vt 0.618750 1.000000
vt 0.618750 0.900000
vt 0.606250 1.000000
vt 0.606250 0.800000
vt 0.306250 0.800000
vt 0.306250 1.000000
vt 0.300000 0.900000
vt 0.300000 1.000000
vt 0.000000 1.000000
vt 0.000000 0.900000
vt 0.306250 0.693750
vt 0.306250 0.793750
vt 0.606250 0.793750
vt 0.606250 0.693750
vt 0.818750 0.800000
vt 0.718750 0.800000
vt 0.300000 0.793750
vt 0.300000 0.893750
vt 0.000000 0.893750
vt 0.000000 0.793750
vt 0.606250 0.556250
vt 0.306250 0.556250
vt 0.818750 0.700000
vt 0.718750 0.700000
vt 0.000000 0.337500
vt 0.000000 0.237500
vt 0.300000 0.237500
vt 0.300000 0.337500
vt 0.300000 0.700000
vt 0.300000 0.800000
vt 0.000000 0.800000
vt 0.000000 0.700000
vt 0.606250 0.450000
vt 0.606250 0.550000
vt 0.306250 0.550000
vt 0.306250 0.450000
vt 0.693750 0.950000
vt 0.693750 0.900000
vt 0.768750 0.950000
vt 0.768750 0.900000
vt 0.693750 0.875000
vt 0.768750 0.875000
vt 0.100000 0.650000
vt 0.100000 0.625000
vt 0.200000 0.625000
vt 0.200000 0.650000
vt 0.100000 0.600000
vt 0.100000 0.700000
vt 0.000000 0.600000
vt 0.200000 0.600000
vt 0.068750 0.543750
vt 0.118750 0.543750
vt 0.118750 0.593750
vt 0.068750 0.593750
vt 0.175000 0.543750
vt 0.175000 0.593750
vt 0.143750 0.593750
vt 0.143750 0.543750
vt 0.156250 0.543750
vt 0.156250 0.593750
vt 0.125000 0.593750
vt 0.125000 0.543750
vt 0.062500 0.531250
vt 0.062500 0.593750
vt 0.000000 0.593750
vt 0.000000 0.531250
vt 0.950000 0.000000
vt 0.950000 0.162500
vt 1.000000 0.162500
vt 1.000000 0.000000
vt 0.943750 0.000000
vt 0.943750 0.162500
vt 0.781250 0.162500
vt 0.781250 0.000000
vt 0.100000 0.400000
vt 0.100000 0.500000
vt 0.000000 0.500000
vt 0.000000 0.400000
vt 1.000000 0.418750
vt 1.000000 0.693750
vt 0.900000 0.693750
vt 0.900000 0.418750
vt 0.893750 0.418750
vt 0.618750 0.418750
vt 0.618750 0.318750
vt 0.893750 0.318750
vt 0.606250 0.343750
vt 0.606250 0.443750
vt 0.306250 0.443750
vt 0.306250 0.343750
vt 0.775000 0.000000
vt 0.775000 0.275000
vt 0.475000 0.275000
vt 0.475000 0.000000
vt 0.300000 0.543750
vt 0.300000 0.593750
vt 0.200000 0.593750
vt 0.200000 0.543750
vt 0.200000 0.500000
vt 0.300000 0.500000
vt 0.300000 0.400000
vt 0.200000 0.400000
vt 0.462500 0.000000
vt 0.462500 0.187500
vt 0.300000 0.187500
vt 0.300000 0.000000
vt 0.187500 0.000000
vt 0.187500 0.187500
vt 0.000000 0.187500
vt 0.000000 0.000000
vt 0.237500 0.187500
vt 0.287500 0.187500
vt 0.287500 0.000000
vt 0.237500 0.000000
vt 0.050000 0.000000
vt 0.050000 0.125000
vt 0.000000 0.125000
vt 0.000000 0.118750
vt 0.050000 0.118750
vt 0.050000 0.187500
vt 0.187500 0.125000
vt 0.137500 0.125000
vt 0.137500 0.000000
vt 0.137500 0.187500
vt 0.137500 0.118750
vt 0.187500 0.118750
vt 0.900000 0.200000
vt 0.950000 0.200000
vt 0.950000 0.350000
vt 0.900000 0.350000
vt 1.000000 0.350000
vt 1.000000 0.200000
vt 0.968750 0.400000
vt 1.000000 0.425000
vt 0.900000 0.425000
vt 0.931250 0.400000
vt 0.900000 0.356250
vt 0.931250 0.362500
vt 1.000000 0.356250
vt 0.968750 0.362500
vt 0.968750 0.393750
vt 0.931250 0.393750
vt 0.937500 0.362500
vt 0.937500 0.400000
vt 0.968750 0.368750
vt 0.931250 0.368750
vt 0.962500 0.400000
vt 0.962500 0.362500
vt 0.975000 0.275000
vt 0.975000 0.325000
vt 0.968750 0.325000
vt 0.968750 0.275000
vt 0.931250 0.275000
vt 0.931250 0.325000
vt 0.925000 0.325000
vt 0.925000 0.275000
vt 0.975000 0.318750
vt 0.925000 0.318750
vt 0.975000 0.281250
vt 0.925000 0.281250
vt 0.962500 0.325000
vt 0.962500 0.343750
vt 0.956250 0.343750
vt 0.956250 0.325000
vt 0.943750 0.325000
vt 0.943750 0.343750
vt 0.937500 0.343750
vt 0.937500 0.325000
vt 0.962500 0.337500
vt 0.937500 0.337500
vt 0.412500 0.237500
vt 0.412500 0.337500
vt 0.312500 0.337500
vt 0.312500 0.237500
vt 0.468750 0.237500
vt 0.468750 0.337500
vt 0.418750 0.337500
vt 0.418750 0.237500
vt 0.518750 0.287500
vt 0.518750 0.337500
vt 0.506250 0.337500
vt 0.506250 0.287500
vt 0.500000 0.287500
vt 0.500000 0.337500
vt 0.475000 0.337500
vt 0.475000 0.287500
vt 0.893750 0.287500
vt 0.893750 0.312500
vt 0.868750 0.312500
vt 0.868750 0.287500
vt 0.793750 0.250000
vt 0.818750 0.250000
vt 0.818750 0.300000
vt 0.793750 0.300000
vt 0.818750 0.312500
vt 0.793750 0.312500
vt 0.793750 0.293750
vt 0.818750 0.293750
vt 0.437500 0.656250
vt 0.437500 0.631250
vt 0.443750 0.631250
vt 0.443750 0.656250
vt 0.793750 0.262500
vt 0.818750 0.262500
vt 0.793750 0.287500
vt 0.818750 0.287500
vt 0.893750 0.262500
vt 0.868750 0.262500
vt 0.818750 0.268750
vt 0.793750 0.268750
vt 0.793750 0.256250
vt 0.818750 0.256250
s 0
usemtl kiln
f 7/1/1 5/2/1 6/3/1 8/4/1
f 1/5/2 2/6/2 6/7/2 5/8/2
f 3/9/3 1/10/3 5/11/3 7/12/3
f 8/13/4 6/14/4 2/15/4 4/16/4
f 15/17/1 13/1/1 14/4/1 16/18/1
f 11/19/3 9/20/3 13/21/3 15/22/3
f 16/23/5 14/16/5 10/13/5 12/24/5
f 20/25/6 18/17/6 17/18/6 19/26/6
f 23/26/1 21/18/1 22/17/1 24/25/1
f 20/27/7 19/28/7 23/29/7 24/30/7
f 19/31/3 17/32/3 21/33/3 23/34/3
f 24/35/4 22/36/4 18/37/4 20/38/4
f 4/4/6 2/3/6 26/39/6 25/40/6
f 26/39/6 2/3/6 1/2/6 27/41/6
f 27/41/6 1/2/6 3/1/6 28/42/6
f 25/42/6 26/41/6 27/39/6 28/40/6
f 12/18/6 10/4/6 31/43/6
f 9/1/6 11/17/6 30/44/6 29/42/6
f 30/44/6 11/17/6 12/18/6 31/43/6
f 29/40/6 30/43/6 31/44/6 32/42/6
f 32/40/6 31/43/6 10/4/6
f 33/45/6 42/46/6 41/47/6 34/48/6
f 38/45/1 44/46/1 43/47/1 37/48/1
f 33/49/2 34/50/2 38/34/2 37/51/2
f 36/49/7 35/50/7 39/34/7 40/51/7
f 34/45/4 41/46/4 44/47/4 38/48/4
f 36/52/6 41/47/6 42/46/6 35/49/6
f 39/52/1 43/47/1 44/46/1 40/49/1
f 40/52/4 44/47/4 41/46/4 36/49/4
f 45/45/6 54/46/6 53/47/6 46/48/6
f 50/45/1 56/46/1 55/47/1 49/48/1
f 45/49/2 46/50/2 50/34/2 49/51/2
f 48/49/7 47/50/7 51/34/7 52/51/7
f 46/45/4 53/46/4 56/47/4 50/48/4
f 48/52/6 53/47/6 54/46/6 47/49/6
f 51/52/1 55/47/1 56/46/1 52/49/1
f 52/52/4 56/47/4 53/46/4 48/49/4
f 57/45/6 66/46/6 65/47/6 58/48/6
f 62/45/1 68/46/1 67/47/1 61/48/1
f 57/49/2 58/50/2 62/34/2 61/51/2
f 60/49/7 59/50/7 63/34/7 64/51/7
f 60/52/6 65/47/6 66/46/6 59/49/6
f 63/52/1 67/47/1 68/46/1 64/49/1
f 69/45/6 78/46/6 77/47/6 70/48/6
f 74/45/1 80/46/1 79/47/1 73/48/1
f 69/49/2 70/50/2 74/34/2 73/51/2
f 72/49/7 71/50/7 75/34/7 76/51/7
f 73/45/3 79/46/3 78/47/3 69/48/3
f 72/52/6 77/47/6 78/46/6 71/49/6
f 71/52/3 78/47/3 79/46/3 75/49/3
f 75/52/1 79/47/1 80/46/1 76/49/1
f 81/45/6 90/46/6 89/47/6 82/48/6
f 86/45/1 92/46/1 91/47/1 85/48/1
f 81/49/2 82/50/2 86/34/2 85/51/2
f 84/49/7 83/50/7 87/34/7 88/51/7
f 82/45/4 89/46/4 92/47/4 86/48/4
f 84/52/6 89/47/6 90/46/6 83/49/6
f 87/52/1 91/47/1 92/46/1 88/49/1
f 88/52/4 92/47/4 89/46/4 84/49/4
f 93/45/6 102/46/6 101/47/6 94/48/6
f 98/45/1 104/46/1 103/47/1 97/48/1
f 93/49/2 94/50/2 98/34/2 97/51/2
f 96/49/7 95/50/7 99/34/7 100/51/7
f 96/52/6 101/47/6 102/46/6 95/49/6
f 99/52/1 103/47/1 104/46/1 100/49/1
f 105/45/6 114/46/6 113/47/6 106/48/6
f 110/45/1 116/46/1 115/47/1 109/48/1
f 105/49/2 106/50/2 110/34/2 109/51/2
f 108/49/7 107/50/7 111/34/7 112/51/7
f 108/52/6 113/47/6 114/46/6 107/49/6
f 111/52/1 115/47/1 116/46/1 112/49/1
f 117/45/6 126/46/6 125/47/6 118/48/6
f 122/45/1 128/46/1 127/47/1 121/48/1
f 117/49/2 118/50/2 122/34/2 121/51/2
f 120/49/7 119/50/7 123/34/7 124/51/7
f 120/52/6 125/47/6 126/46/6 119/49/6
f 123/52/1 127/47/1 128/46/1 124/49/1
f 132/53/2 130/54/2 129/55/2 131/56/2
f 135/54/7 133/55/7 134/56/7 136/53/7
f 129/57/6 130/58/6 134/59/6 133/60/6
f 132/57/1 131/58/1 135/59/1 136/60/1
f 131/57/4 129/58/4 133/59/4 135/60/4
f 136/61/3 134/62/3 130/63/3 132/64/3
f 140/53/2 138/54/2 137/55/2 139/56/2
f 143/54/7 141/55/7 142/56/7 144/53/7
f 137/57/6 138/58/6 142/59/6 141/60/6
f 140/57/1 139/58/1 143/59/1 144/60/1
f 139/57/4 137/58/4 141/59/4 143/60/4
f 144/61/3 142/62/3 138/63/3 140/64/3
f 148/53/2 146/54/2 145/55/2 147/56/2
f 151/54/7 149/55/7 150/56/7 152/53/7
f 145/57/6 146/58/6 150/59/6 149/60/6
f 148/57/1 147/58/1 151/59/1 152/60/1
f 147/57/4 145/58/4 149/59/4 151/60/4
f 152/61/3 150/62/3 146/63/3 148/64/3
f 156/65/8 154/66/8 153/67/8 155/68/8
f 159/65/9 157/66/9 158/67/9 160/68/9
f 153/65/2 154/66/2 158/67/2 157/68/2
f 156/65/7 155/66/7 159/67/7 160/68/7
f 155/65/10 153/66/10 157/67/10 159/68/10
f 160/65/11 158/66/11 154/67/11 156/68/11
f 164/69/6 162/70/6 161/71/6 163/72/6
f 167/72/1 165/71/1 166/70/1 168/69/1
f 161/72/12 162/69/12 166/70/12 165/71/12
f 164/69/13 163/72/13 167/71/13 168/70/13
f 163/73/14 161/74/14 165/75/14 167/76/14
f 168/73/15 166/74/15 162/75/15 164/76/15
f 172/72/6 170/71/6 169/70/6 171/69/6
f 175/69/1 173/70/1 174/71/1 176/72/1
f 169/69/12 170/72/12 174/71/12 173/70/12
f 172/72/13 171/69/13 175/70/13 176/71/13
f 171/73/14 169/74/14 173/75/14 175/76/14
f 176/73/15 174/74/15 170/75/15 172/76/15
f 180/30/6 178/27/6 177/28/6 179/29/6
f 183/29/1 181/28/1 182/27/1 184/30/1
f 177/77/2 178/78/2 182/79/2 181/80/2
f 180/77/7 179/78/7 183/79/7 184/80/7
f 179/29/3 177/28/3 181/27/3 183/30/3
f 184/30/4 182/27/4 178/28/4 180/29/4
f 188/29/6 186/28/6 185/27/6 187/30/6
f 191/30/1 189/27/1 190/28/1 192/29/1
f 185/77/2 186/78/2 190/79/2 189/80/2
f 188/77/7 187/78/7 191/79/7 192/80/7
f 187/29/3 185/28/3 189/27/3 191/30/3
f 192/30/4 190/27/4 186/28/4 188/29/4
f 196/81/6 194/82/6 193/83/6 195/84/6
f 199/85/1 197/86/1 198/87/1 200/88/1
f 196/89/7 195/90/7 199/91/7 200/92/7
f 195/93/3 193/94/3 197/95/3 199/96/3
f 200/93/4 198/94/4 194/95/4 196/96/4
f 204/97/6 202/98/6 201/99/6 203/100/6
f 207/97/1 205/98/1 206/99/1 208/100/1
f 201/77/2 202/78/2 206/79/2 205/80/2
f 204/77/7 203/78/7 207/79/7 208/80/7
f 203/97/3 201/98/3 205/99/3 207/100/3
f 208/97/4 206/98/4 202/99/4 204/100/4
f 212/97/6 210/98/6 209/99/6 211/100/6
f 215/97/1 213/98/1 214/99/1 216/100/1
f 209/77/2 210/78/2 214/79/2 213/80/2
f 212/77/7 211/78/7 215/79/7 216/80/7
f 211/97/3 209/98/3 213/99/3 215/100/3
f 216/97/4 214/98/4 210/99/4 212/100/4
f 220/97/6 218/98/6 217/99/6 219/100/6
f 223/97/1 221/98/1 222/99/1 224/100/1
f 217/77/2 218/78/2 222/79/2 221/80/2
f 220/77/7 219/78/7 223/79/7 224/80/7
f 219/97/3 217/98/3 221/99/3 223/100/3
f 224/97/4 222/98/4 218/99/4 220/100/4
f 225/77/2 226/78/2 228/79/2 227/80/2
f 229/77/2 230/78/2 232/79/2 231/80/2
f 233/77/2 234/78/2 236/79/2 235/80/2
f 240/97/6 238/98/6 237/99/6 239/100/6
f 243/97/1 241/98/1 242/99/1 244/100/1
f 237/77/2 238/78/2 242/79/2 241/80/2
f 240/101/7 239/102/7 243/103/7 244/104/7
f 239/97/3 237/98/3 241/99/3 243/100/3
f 244/97/4 242/98/4 238/99/4 240/100/4
f 248/97/6 246/98/6 245/99/6 247/100/6
f 251/97/1 249/98/1 250/99/1 252/100/1
f 245/77/2 246/78/2 250/79/2 249/80/2
f 248/78/7 247/101/7 251/104/7 252/77/7
f 247/97/3 245/98/3 249/99/3 251/100/3
f 252/97/4 250/98/4 246/99/4 248/100/4
f 256/105/6 254/106/6 253/107/6 255/108/6
f 259/105/1 257/106/1 258/107/1 260/108/1
f 253/108/2 254/105/2 258/106/2 257/107/2
f 255/109/3 253/110/3 257/111/3 259/112/3
f 260/109/4 258/110/4 254/111/4 256/112/4
f 261/113/6 262/114/6 264/115/6 263/116/6
f 266/114/1 265/113/1 267/116/1 268/115/1
f 266/114/2 262/115/2 261/116/2 265/113/2
f 267/113/7 263/116/7 264/115/7 268/114/7
f 265/111/4 261/110/4 263/109/4 267/112/4
f 262/111/3 266/110/3 268/109/3 264/112/3
f 272/115/6 270/114/6 269/113/6 271/116/6
f 275/116/1 273/113/1 274/114/1 276/115/1
f 269/116/2 270/115/2 274/114/2 273/113/2
f 272/115/7 271/116/7 275/113/7 276/114/7
f 271/109/3 269/110/3 273/111/3 275/112/3
f 276/109/4 274/110/4 270/111/4 272/112/4
f 279/112/6 284/117/6 283/118/6 277/119/6
f 277/120/16 283/121/16 285/122/16 281/111/16
f 278/123/6 283/124/6 284/125/6 280/109/6
f 282/110/16 285/126/16 283/127/16 278/128/16
f 292/118/1 293/117/1 288/112/1 286/119/1
f 294/122/17 292/121/17 286/120/17 290/111/17
f 293/125/1 292/124/1 287/123/1 289/109/1
f 292/127/17 294/126/17 291/110/17 287/128/17
f 297/129/3 302/130/3 301/131/3 295/132/3
f 296/133/3 301/131/3 302/130/3 298/134/3
f 304/135/18 300/136/18 299/137/18 303/138/18
f 303/138/18 299/137/18 295/139/18 306/140/18
f 295/139/19 296/141/19 305/142/19 306/140/19
f 296/141/18 300/136/18 304/135/18 305/142/18
f 307/135/19 308/138/19 309/140/19 310/142/19
f 308/138/20 307/135/20 304/143/20 303/144/20
f 309/145/1 308/146/1 303/138/1 306/140/1
f 310/147/21 309/148/21 306/140/21 305/142/21
f 307/142/6 310/135/6 305/149/6 304/150/6
f 314/151/6 312/152/6 311/153/6 313/154/6
f 317/155/1 315/156/1 316/157/1 318/158/1
f 311/159/2 312/152/2 316/157/2 315/160/2
f 314/151/7 313/161/7 317/162/7 318/158/7
f 313/151/3 311/152/3 315/157/3 317/158/3
f 322/163/6 320/164/6 319/165/6 321/166/6
f 325/167/1 323/168/1 324/169/1 326/170/1
f 319/171/2 320/164/2 324/169/2 323/172/2
f 321/163/3 319/164/3 323/169/3 325/170/3
f 330/173/6 328/174/6 327/175/6 329/176/6
f 333/173/1 331/174/1 332/175/1 334/176/1
f 327/177/2 328/178/2 332/179/2 331/180/2
f 330/177/7 329/178/7 333/179/7 334/180/7
f 329/177/3 327/178/3 331/179/3 333/180/3
f 334/177/4 332/178/4 328/179/4 330/180/4
f 338/181/6 336/182/6 335/183/6 337/184/6
f 341/181/1 339/182/1 340/183/1 342/184/1
f 337/185/3 335/186/3 339/187/3 341/188/3
f 342/185/4 340/186/4 336/187/4 338/188/4
f 346/181/6 344/182/6 343/183/6 345/184/6
f 349/181/1 347/182/1 348/183/1 350/184/1
f 345/185/3 343/186/3 347/187/3 349/188/3
f 350/185/4 348/186/4 344/187/4 346/188/4
f 354/189/6 352/190/6 351/191/6 353/192/6
f 357/189/1 355/190/1 356/191/1 358/192/1
f 351/193/2 352/194/2 356/195/2 355/196/2
f 354/193/7 353/194/7 357/195/7 358/196/7
f 353/193/3 351/194/3 355/195/3 357/196/3
f 358/196/4 356/195/4 352/194/4 354/193/4
f 362/189/6 360/190/6 359/191/6 361/192/6
f 365/189/1 363/190/1 364/191/1 366/192/1
f 359/193/2 360/194/2 364/195/2 363/196/2
f 362/193/7 361/194/7 365/195/7 366/196/7
f 361/193/3 359/194/3 363/195/3 365/196/3
f 366/196/4 364/195/4 360/194/4 362/193/4
f 370/189/3 368/190/3 367/191/3 369/192/3
f 377/189/4 375/190/4 376/191/4 378/192/4
f 367/193/2 368/194/2 372/195/2 371/196/2
f 370/193/7 369/194/7 373/195/7 374/196/7
f 369/193/1 367/194/1 371/195/1 373/196/1
f 374/196/6 372/195/6 368/194/6 370/193/6
f 375/197/1 377/198/1 373/199/1 371/200/1
f 376/197/2 375/198/2 371/199/2 372/200/2
f 378/199/6 376/200/6 372/197/6 374/198/6
f 377/201/7 378/202/7 374/203/7 373/204/7
f 382/189/3 380/190/3 379/191/3 381/192/3
f 385/189/4 383/190/4 384/191/4 386/192/4
f 379/193/2 380/194/2 384/195/2 383/196/2
f 382/193/7 381/194/7 385/195/7 386/196/7
f 381/193/1 379/194/1 383/195/1 385/196/1
f 386/196/6 384/195/6 380/194/6 382/193/6
f 390/189/3 388/190/3 387/191/3 389/192/3
f 393/189/4 391/190/4 392/191/4 394/192/4
f 387/193/2 388/194/2 392/195/2 391/196/2
f 390/193/7 389/194/7 393/195/7 394/196/7
f 389/193/1 387/194/1 391/195/1 393/196/1
f 394/196/6 392/195/6 388/194/6 390/193/6
f 398/189/3 396/190/3 395/191/3 397/192/3
f 401/189/4 399/190/4 400/191/4 402/192/4
f 395/193/2 396/194/2 400/195/2 399/196/2
f 398/193/7 397/194/7 401/195/7 402/196/7
f 397/193/1 395/194/1 399/195/1 401/196/1
f 402/196/6 400/195/6 396/194/6 398/193/6
f 406/189/3 404/190/3 403/191/3 405/192/3
f 409/189/4 407/190/4 408/191/4 410/192/4
f 403/205/2 404/206/2 408/200/2 407/199/2
f 406/205/7 405/206/7 409/200/7 410/199/7
f 405/205/1 403/206/1 407/200/1 409/199/1
f 410/205/6 408/206/6 404/200/6 406/199/6
f 414/189/3 412/190/3 411/191/3 413/192/3
f 417/207/4 415/208/4 416/197/4 418/198/4
f 411/209/2 412/189/2 416/192/2 415/210/2
f 414/209/7 413/189/7 417/192/7 418/210/7
f 413/209/1 411/189/1 415/192/1 417/210/1
f 418/207/6 416/208/6 412/197/6 414/198/6
f 425/207/3 423/208/3 424/197/3 426/198/3
f 419/209/2 420/189/2 424/192/2 423/210/2
f 426/207/1 424/208/1 420/197/1 422/198/1
f 427/211/4 429/212/4 421/213/4 419/214/4
f 428/206/2 427/205/2 419/193/2 423/194/2
f 430/213/3 428/214/3 423/211/3 425/212/3
f 436/197/4 435/208/4 437/207/4 438/198/4
f 436/192/2 432/189/2 431/209/2 435/210/2
f 432/197/1 436/208/1 438/207/1 434/198/1
f 433/213/3 441/212/3 439/211/3 431/214/3
f 431/193/2 439/205/2 440/206/2 435/194/2
f 435/211/4 440/214/4 442/213/4 437/212/4
f 443/191/4 444/190/4 446/189/4 445/192/4
f 448/197/3 447/208/3 449/207/3 450/198/3
f 448/192/2 444/189/2 443/209/2 447/210/2
f 449/192/7 445/189/7 446/209/7 450/210/7
f 447/192/1 443/189/1 445/209/1 449/210/1
f 444/197/6 448/208/6 450/207/6 446/198/6
