# Blender 4.2.3 LTS
# www.blender.org
mtllib centrifuge.mtl
o shell
v 2.328428 -0.500000 -0.497962
v 3.500001 -0.500000 0.673611
v 1.500001 -0.500000 1.502038
v 0.671574 -0.500000 -0.497962
v -0.499999 -0.500000 0.673611
v -0.499999 -0.500000 2.330465
v 0.671574 -0.500000 3.502038
v 2.328428 -0.500000 3.502038
v 3.500001 -0.500000 2.330465
v 1.125000 1.000000 -0.872962
v 1.125000 1.000000 -0.497962
v 1.125000 1.375000 -0.497962
v 1.875000 1.375000 -0.435462
v 1.834828 1.375000 -0.106307
v 2.159286 1.375000 -0.106307
v 1.997056 1.375000 -0.497962
v 1.691573 1.375000 -0.435462
v 1.665685 1.375000 -0.497962
v 1.639797 1.375000 -0.435462
v 1.360204 1.375000 -0.435462
v 1.334314 1.375000 -0.497962
v 1.308426 1.375000 -0.435462
v 1.125000 1.375000 -0.435462
v 1.002944 1.375000 -0.497962
v 1.875000 1.875000 -0.435462
v 1.875000 1.375000 -0.497962
v 1.875000 1.875000 -0.872962
v 2.287261 1.403824 3.402653
v 0.712740 1.403824 3.402653
v 0.671574 1.375000 3.502038
v 2.328428 1.375000 3.502038
v 1.490727 1.387364 -0.106307
v 1.509274 1.387364 -0.106307
v 1.832450 1.387364 -0.106307
v 1.832450 1.365727 -0.106307
v 1.875000 1.000000 -0.435462
v 1.167551 1.365727 -0.106307
v 1.125000 1.000000 -0.435462
v 1.167551 1.387364 -0.106307
v 1.167551 1.375000 -0.106307
v 2.363327 1.403824 -0.322510
v 3.500000 1.375000 0.673611
v 2.328428 1.375000 -0.497962
v 2.166198 1.375000 -0.106307
v 0.833802 1.375000 -0.106307
v 0.833802 1.375000 -0.106307
v 0.671573 1.375000 -0.497962
v 2.254562 1.403824 -0.059929
v 2.182890 1.381325 -0.089616
v 2.242265 1.403824 -0.030241
v 0.745438 1.403824 -0.059929
v 0.757735 1.403824 -0.030241
v 0.817110 1.381325 -0.089616
v 2.166198 0.144773 -0.106307
v 1.500001 0.144773 1.502038
v 3.108347 0.144774 0.835840
v 2.166198 1.375000 -0.106307
v 0.833802 0.144773 -0.106307
v 0.840715 1.375000 -0.106307
v 1.165173 1.375000 -0.106307
v 1.832450 1.375000 -0.106307
v -0.108345 0.144773 0.835840
v -0.108345 0.144773 2.168237
v -0.108346 1.403824 0.835840
v -0.108346 1.403824 0.875776
v 0.833802 0.144773 3.110384
v -0.108345 1.403824 2.168237
v -0.077085 1.403824 2.199497
v 2.166199 0.144773 3.110384
v 3.108347 0.144774 2.168237
v -0.874999 -0.375000 3.189538
v -0.874999 -0.250000 3.189538
v -0.624999 -0.250000 3.189538
v 3.000000 2.000000 -0.997962
v 2.000000 2.000000 -0.997962
v 2.000000 2.000000 0.002038
v 2.500000 2.000000 0.002038
v 2.500000 1.843750 -0.997962
v 4.000000 1.843750 0.502038
v 4.000000 2.000000 1.002038
v 4.000000 1.750000 1.002038
v 4.000000 1.562500 1.002038
v 3.000000 1.750000 1.002038
v 3.000000 1.656250 1.002038
v 4.000000 2.000000 0.002038
v 3.000000 2.000000 0.002038
v 3.000000 2.000000 0.502038
v 2.000000 1.562500 0.002038
v 4.000000 1.562500 -0.997962
v 2.500000 1.562500 0.502038
v 3.000000 1.562500 1.002038
v -0.624999 -0.500000 3.189538
v -0.874999 -0.500000 3.189538
v 2.000000 1.750000 -0.997962
v 2.000000 1.750000 0.002038
v 2.000000 1.843750 0.002038
v 4.000000 2.000000 -0.997962
v 2.000000 1.562500 -0.997962
v 2.500000 2.000000 0.502038
v 2.000000 2.000000 0.502038
v 2.500000 2.000000 1.002038
v 2.000000 1.562500 0.502038
v 2.250000 1.562500 0.752038
v 2.500000 1.562500 1.002038
v 1.000000 2.065142 0.002038
v 0.000000 2.065142 0.002038
v 0.000000 2.065142 1.002038
v 1.000000 1.565142 0.002038
v 0.000001 1.565142 1.002038
v 0.000000 1.565142 0.002038
v 3.890166 -0.500000 2.439538
v 2.696923 -0.500000 3.632781
v 2.520147 -0.500000 3.456004
v 3.713390 -0.500000 2.262762
v 3.108346 1.403824 0.835840
v 3.108346 1.403824 0.875776
v 3.400614 1.403824 0.714778
v 1.496543 1.375000 -0.106307
v 1.503458 1.375000 -0.106307
v 1.875000 1.000000 -0.497962
v 1.125000 1.875000 -0.435462
v 1.125000 1.875000 -0.872962
v 0.852963 1.403824 3.110384
v 2.147038 1.403824 3.110384
v -0.499999 1.375000 2.330465
v -0.400615 1.403824 0.714778
v 1.827914 1.375000 -0.106307
v 3.500001 1.375000 2.330465
v -0.400614 1.403824 2.289299
v 0.833802 1.403824 3.110384
v 0.636673 1.403824 -0.322510
v -0.500000 1.375000 0.673611
v -0.212631 0.800963 3.564538
v -0.212631 0.800963 3.627038
v -0.423366 0.962665 3.627038
v -0.423366 0.962665 3.564538
v 3.077087 1.403824 2.199497
v 2.166198 1.403824 3.110384
v 3.400615 1.403824 2.289299
v 1.875000 1.000000 -0.872962
v 3.108347 1.403824 2.168237
v -0.999999 -1.000000 -0.997962
v -0.999999 -1.000000 4.002038
v -0.999999 -0.500000 4.002038
v -0.999999 -0.500000 -0.997962
v 1.172086 1.375000 -0.106307
v 4.000001 -1.000000 -0.997962
v 4.000001 -0.500000 -0.997962
v 3.000000 1.843750 1.002038
v 3.000000 2.000000 1.002038
v 4.000001 -1.000000 4.002038
v 4.000001 -0.500000 4.002038
v 1.000001 -0.500000 3.752038
v 1.000001 -0.500000 3.877038
v 1.000001 0.046875 3.877038
v 1.000001 0.046875 3.752038
v 1.125001 -0.500000 3.752038
v 1.125001 0.046875 3.752038
v 1.125001 -0.500000 3.877038
v 1.125001 0.046875 3.877038
v 2.520147 -0.250000 3.456004
v 3.713390 -0.250000 2.262762
v 3.890166 -0.250000 2.439538
v 2.696923 -0.250000 3.632781
v 1.625001 -0.500000 3.377038
v 1.625001 -0.500000 3.627038
v 1.625001 -0.250000 3.627038
v 1.625001 -0.250000 3.377038
v 2.687501 -0.500000 3.377038
v 2.687501 -0.250000 3.377038
v -0.272916 1.161948 3.634296
v -0.075694 1.010614 3.882888
v 0.047021 0.916451 3.728208
v -0.150200 1.067785 3.479616
v -0.060441 0.999301 3.627038
v -0.060441 0.999301 3.564538
v -0.271176 1.161004 3.564538
v -0.271176 1.161004 3.627038
v 2.687501 -0.500000 3.627038
v 2.687501 -0.250000 3.627038
v 3.562501 -0.500000 2.064538
v 3.562501 -0.500000 2.189538
v 3.562501 -0.187500 2.189538
v 3.562501 -0.187500 2.064538
v 3.937501 -0.500000 2.064538
v 3.937501 -0.187500 2.064538
v 3.937501 -0.500000 2.189538
v 3.937501 -0.187500 2.189538
v 3.562501 -0.500000 1.064538
v 3.562501 -0.500000 1.189538
v 3.562501 -0.187500 1.189538
v 3.562501 -0.187500 1.064538
v 3.937501 -0.500000 1.064538
v 3.937501 -0.187500 1.064538
v 3.937501 -0.500000 1.189538
v 3.937501 -0.187500 1.189538
v -0.937499 -0.500000 1.064538
v -0.937499 -0.500000 1.189538
v -0.937499 -0.187500 1.189538
v -0.937499 -0.187500 1.064538
v -0.562499 -0.500000 1.064538
v -0.562499 -0.187500 1.064538
v -0.562499 -0.500000 1.189538
v -0.562499 -0.187500 1.189538
v -0.937499 -0.500000 2.127038
v -0.937499 -0.500000 2.252038
v -0.937499 -0.187500 2.252038
v -0.937499 -0.187500 2.127038
v -0.562499 -0.500000 2.127038
v -0.562499 -0.187500 2.127038
v -0.562499 -0.500000 2.252038
v -0.562499 -0.187500 2.252038
v 1.000001 -0.062500 3.502038
v 1.000001 -0.062500 3.752038
v 1.000001 0.046875 3.752038
v 1.000001 0.046875 3.502038
v 1.125001 -0.062500 3.502038
v 1.125001 0.046875 3.502038
v 1.125001 -0.062500 3.752038
v 1.125001 0.046875 3.752038
v -0.349111 -0.500000 2.752038
v -0.437499 -0.500000 2.840427
v -0.437499 0.046875 2.840427
v -0.349111 0.046875 2.752038
v -0.260722 -0.500000 2.840427
v -0.260722 0.046875 2.840427
v -0.349111 -0.500000 2.928815
v -0.349111 0.046875 2.928815
v -0.179917 -0.062500 2.582844
v -0.356693 -0.062500 2.759621
v -0.356693 0.046875 2.759621
v -0.179917 0.046875 2.582844
v -0.091528 -0.062500 2.671233
v -0.091528 0.046875 2.671233
v -0.268305 -0.062500 2.848009
v -0.268305 0.046875 2.848009
v -0.425106 0.963609 3.634296
v -0.302391 0.869446 3.479616
v 3.093751 -0.187500 2.788650
v 3.005363 -0.187500 2.877038
v 3.270528 -0.187500 3.142203
v 3.358916 -0.187500 3.053815
v 3.358916 -0.500000 3.053815
v 3.270528 -0.500000 3.142203
v 3.005363 -0.500000 2.877038
v 3.093751 -0.500000 2.788650
v -0.406249 1.250000 3.158288
v -0.406249 1.250000 3.408288
v -0.406249 1.489063 3.408288
v -0.406249 1.489063 3.158288
v -0.156249 1.250000 3.158288
v -0.156249 1.489063 3.158288
v -0.156249 1.250000 3.408288
v -0.156249 1.489063 3.408288
v -0.406250 1.421875 0.970788
v -0.406249 1.421875 3.228601
v -0.406249 1.671875 3.228601
v -0.406250 1.671875 0.970788
v -0.156250 1.421875 0.970788
v -0.156250 1.671875 0.970788
v -0.156249 1.421875 3.228601
v -0.156249 1.671875 3.228601
v -0.156249 1.312175 3.231837
v -0.406249 1.312175 3.231837
v -0.406249 1.488952 3.055060
v -0.156249 1.488952 3.055060
v -0.406249 1.488952 3.408613
v -0.156249 1.488952 3.408613
v -0.156249 1.665728 3.231837
v -0.406249 1.665728 3.231837
v 3.937501 -0.708026 3.340887
v 3.937501 -0.531250 3.164110
v 3.937501 -0.000919 3.694440
v 3.937501 -0.177696 3.871217
v 2.687501 -0.500000 3.064538
v 2.687501 -0.500000 3.189538
v 2.687501 0.984375 3.189538
v 2.687501 0.984375 3.064538
v 2.812501 -0.500000 3.064538
v 2.812501 0.984375 3.064538
v 2.164752 1.562500 -0.833971
v 3.844131 1.562500 0.845407
v 3.932519 1.562500 0.757019
v 2.253141 1.562500 -0.922360
v -0.105169 0.718113 3.728208
v -0.227885 0.812276 3.882888
v 2.812501 -0.500000 3.189538
v 2.812501 0.984375 3.189538
v 2.375000 1.099743 -0.247962
v 2.375000 1.099743 -0.122962
v 2.375000 1.709116 -0.122962
v 2.375000 1.709116 -0.247962
v 2.500000 1.099743 -0.247962
v 2.500000 1.709116 -0.247962
v 2.500000 1.099743 -0.122962
v 2.500000 1.709116 -0.122962
v 2.562500 1.099743 -0.060462
v 2.562500 1.099743 0.064538
v 2.562500 1.709116 0.064538
v 2.562500 1.709116 -0.060462
v 2.687500 1.099743 -0.060462
v 2.687500 1.709116 -0.060462
v 2.687500 1.099743 0.064538
v 2.687500 1.709116 0.064538
v 3.406251 0.750000 1.533288
v 3.645313 0.750000 1.533288
v 3.645313 0.500000 1.533288
v 3.406251 0.500000 1.533288
v 3.406251 0.500000 1.783288
v 3.645313 0.500000 1.783288
v 3.645313 0.750000 1.783288
v 3.406251 0.750000 1.783288
v 3.468425 0.750000 1.606837
v 3.645202 0.750000 1.430060
v 3.645202 0.500000 1.430060
v 3.468425 0.500000 1.606837
v 3.645202 0.500000 1.783614
v 3.821979 0.500000 1.606837
v 3.821979 0.750000 1.606837
v 3.645202 0.750000 1.783614
v 3.578125 0.750000 -0.654212
v 3.828125 0.750000 -0.654212
v 3.828125 0.500000 -0.654212
v 3.578125 0.500000 -0.654212
v 3.578126 0.500000 1.603601
v 3.828126 0.500000 1.603601
v 3.828126 0.750000 1.603601
v 3.578126 0.750000 1.603601
v 3.500001 -0.031250 1.095788
v 3.500001 -0.031250 1.158288
v 3.500001 0.281250 1.158288
v 3.500001 0.281250 1.095788
v 3.875001 -0.031250 1.095788
v 3.875001 0.281250 1.095788
v 3.875001 -0.031250 1.158288
v 3.875001 0.281250 1.158288
v 1.625001 0.875000 3.127038
v 1.625001 0.875000 3.377038
v 1.625001 0.984375 3.377038
v 1.625001 0.984375 3.127038
v 1.750001 0.875000 3.127038
v 1.750001 0.984375 3.127038
v 1.750001 0.875000 3.377038
v 1.750001 0.984375 3.377038
v 1.312501 0.875000 3.127038
v 1.312501 0.875000 3.377038
v 1.312501 0.984375 3.377038
v 1.312501 0.984375 3.127038
v 1.437501 0.875000 3.127038
v 1.437501 0.984375 3.127038
v 1.437501 0.875000 3.377038
v 1.437501 0.984375 3.377038
v 3.375001 -0.500000 2.689538
v 3.375001 -0.500000 3.689538
v 3.375001 -0.250000 3.689538
v 3.375001 -0.250000 2.689538
v 3.625001 -0.500000 2.689538
v 3.625001 -0.250000 2.689538
v 3.625001 -0.500000 3.689538
v 3.625001 -0.250000 3.689538
v 3.312501 -0.500000 3.564538
v 3.312501 -0.500000 3.689538
v 3.312501 -0.187500 3.689538
v 3.312501 -0.187500 3.564538
v 3.687501 -0.500000 3.564538
v 3.687501 -0.187500 3.564538
v -0.624999 -0.375000 3.439538
v -0.624999 -0.250000 3.439538
v 3.687501 -0.500000 3.689538
v 3.687501 -0.187500 3.689538
v 3.312501 -0.500000 3.189538
v 3.312501 -0.500000 3.314538
v 3.312501 -0.187500 3.314538
v 3.312501 -0.187500 3.189538
v 3.687501 -0.500000 3.189538
v 3.687501 -0.187500 3.189538
v 3.687501 -0.500000 3.314538
v 3.687501 -0.187500 3.314538
v 0.812501 -0.062500 3.502038
v 0.812501 -0.062500 3.689538
v 0.812501 0.046875 3.689538
v 0.812501 0.046875 3.502038
v 0.937501 -0.062500 3.502038
v 0.937501 0.046875 3.502038
v 0.937501 -0.062500 3.689538
v 0.937501 0.046875 3.689538
v 0.812501 -0.500000 3.689538
v 0.812501 -0.500000 3.814538
v 0.812501 0.046875 3.814538
v 0.812501 0.046875 3.689538
v 0.937501 -0.500000 3.689538
v 0.937501 0.046875 3.689538
v 0.937501 -0.500000 3.814538
v 0.937501 0.046875 3.814538
v 0.906251 0.281250 3.502038
v 0.781251 0.281250 3.502038
v 0.781251 0.593750 3.502038
v 0.906251 0.593750 3.502038
v 0.906251 0.281250 3.939538
v 0.906251 0.593750 3.939538
v 0.781251 0.281250 3.939538
v 0.781251 0.593750 3.939538
v 1.156251 0.281250 3.502038
v 1.031251 0.281250 3.502038
v 1.031251 0.593750 3.502038
v 1.156251 0.593750 3.502038
v 1.156251 0.281250 3.939538
v 1.156251 0.593750 3.939538
v 1.031251 0.281250 3.939538
v 1.031251 0.593750 3.939538
v 0.437501 0.312500 3.627038
v 0.437501 0.312500 3.877038
v 0.437501 0.562500 3.877038
v 0.437501 0.562500 3.627038
v 1.250001 0.312500 3.627038
v 1.250001 0.562500 3.627038
v 1.250001 0.312500 3.877038
v 1.250001 0.562500 3.877038
v -0.999999 -0.500000 -0.872962
v 0.750001 -0.500000 -0.872962
v 0.750000 1.565142 -0.872962
v -1.000000 1.565142 -0.872962
v -0.999999 -0.500000 -0.997962
v -1.000000 1.565142 -0.997962
v 0.750001 -0.500000 -0.997962
v 0.750000 1.565142 -0.997962
v -0.999999 -0.500000 1.002038
v -0.874999 -0.500000 1.002038
v -0.874999 1.565142 1.002038
v -0.999999 1.565142 1.002038
v -0.999999 -0.500000 -0.872962
v -1.000000 1.565142 -0.872962
v -0.874999 -0.500000 -0.872962
v -0.875000 1.565142 -0.872962
v -0.924397 -0.500000 0.748898
v -0.836009 -0.500000 0.837286
v -0.836009 1.500000 0.837286
v -0.924397 1.500000 0.748898
v 0.754981 -0.500000 -0.930481
v 0.754980 1.500000 -0.930481
v 0.843370 -0.500000 -0.842093
v 0.843369 1.500000 -0.842093
v 3.875001 -0.500000 -0.997962
v 3.875001 -0.500000 1.002038
v 3.875000 1.562500 1.002038
v 3.875000 1.562500 -0.997962
v 4.000001 -0.500000 -0.997962
v 4.000000 1.562500 -0.997962
v 3.844132 -0.500000 0.845407
v 2.164752 -0.500000 -0.833971
v 2.253142 -0.500000 -0.922360
v 3.932520 -0.500000 0.757019
v 4.000001 -0.500000 1.002038
v 4.000000 1.562500 1.002038
v 2.250000 -0.500000 -0.997962
v 2.250000 -0.500000 -0.872962
v 2.250000 1.562500 -0.872962
v 2.250000 1.562500 -0.997962
v 3.875001 -0.500000 -0.997962
v 3.875000 1.562500 -0.997962
v 3.875001 -0.500000 -0.872962
v 3.875000 1.562500 -0.872962
v 2.875001 -0.500000 2.877038
v 2.875001 -0.500000 3.002038
v 2.875001 0.984375 3.002038
v 2.875001 0.984375 2.877038
v 3.000001 -0.500000 2.877038
v 3.000001 0.984375 2.877038
v 3.000001 -0.500000 3.002038
v 3.000001 0.984375 3.002038
v 1.250001 -0.500000 3.377038
v 1.250001 -0.500000 3.939538
v 1.250001 1.250000 3.939538
v 1.250001 1.250000 3.377038
v 1.812501 -0.500000 3.377038
v 1.812501 1.250000 3.377038
v 1.812501 -0.500000 3.939538
v 1.812501 1.250000 3.939538
v 0.431968 0.306345 3.627038
v 0.431968 0.306345 3.877038
v -0.225028 0.810475 3.877038
v -0.225028 0.810475 3.627038
v 0.584159 0.504683 3.877038
v 0.584159 0.504683 3.627038
v -0.072837 1.008813 3.627038
v -0.072837 1.008813 3.877038
v -0.624999 -0.500000 3.439538
v 3.687501 -0.531250 3.164110
v 3.687501 -0.708026 3.340887
v 3.687501 -0.177696 3.871217
v 3.687501 -0.000919 3.694440
v -0.562499 -0.375000 3.439538
v -0.562499 -0.250000 3.439538
v -0.562499 -0.250000 3.189538
v -0.562499 -0.500000 3.189538
v -0.562499 -0.500000 3.439538
v -0.874999 -0.500000 0.502038
v -0.874999 -0.500000 3.189538
v -0.874999 -0.250000 3.189538
v -0.874999 -0.250000 0.502038
v -0.624999 -0.500000 0.502038
v -0.624999 -0.250000 0.502038
v -0.624999 -0.500000 3.189538
v -0.624999 -0.250000 3.189538
v -0.562499 -0.500000 3.189538
v -0.624999 -0.500000 3.189538
v -0.624999 -0.250000 3.189538
v -0.562499 -0.250000 3.189538
v -0.562499 -0.500000 3.002038
v -0.562499 -0.500000 3.564538
v -0.562499 1.250000 3.564538
v -0.562499 1.250000 3.002038
v 3.062501 -0.531250 3.164110
v 3.062501 -0.708026 3.340887
v 3.062501 -0.177696 3.871217
v 3.062501 -0.000920 3.694440
v 0.000001 -0.500000 3.002038
v 0.000001 1.250000 3.002038
v 0.000001 -0.500000 3.564538
v 0.000001 1.250000 3.564538
v 3.625001 -0.500000 0.502038
v 3.625001 -0.500000 2.439538
v 3.625001 -0.250000 2.439538
v 3.625001 -0.250000 0.502038
v 3.875001 -0.500000 0.502038
v 3.875001 -0.250000 0.502038
v 3.875001 -0.500000 2.439538
v 3.875001 -0.250000 2.439538
v 2.500000 1.656250 1.002038
v 2.000000 1.656250 0.502038
v 2.500000 1.843750 1.002038
v 2.500000 1.750000 1.002038
v 2.000000 1.656250 0.002038
v 2.000000 1.750000 0.502038
v 2.000000 1.843750 0.502038
v 1.000000 1.565142 -0.997962
v 0.000000 1.565142 -0.997962
v 0.000000 2.065142 -0.997962
v 1.000000 2.065142 -0.997962
v 0.000000 2.065142 0.002038
v 0.000000 1.565142 0.002038
v -1.000000 1.565142 0.002038
v -0.999999 1.565142 1.002038
v -1.000000 2.065142 1.002038
v -1.000000 2.065142 0.002038
v -1.000000 1.565142 -0.997962
v -1.000000 1.565142 0.002038
v -1.000000 2.065142 0.002038
v -1.000000 2.065142 -0.997962
v 0.000000 1.565142 -0.997962
v 0.000000 2.065142 -0.997962
v 0.000000 2.065142 0.002038
v 0.000000 1.565142 0.002038
v 3.000001 -0.500000 3.689538
v 3.000001 -0.500000 4.002038
v 3.000001 0.000000 4.002038
v 3.000001 0.000000 3.689538
v 4.000001 -0.500000 3.689538
v 4.000001 0.000000 3.689538
v 4.000001 -0.500000 4.002038
v 4.000001 0.000000 4.002038
v 3.312501 -0.708026 3.340887
v 3.312501 -0.531250 3.164110
v 3.312501 -0.000919 3.694440
v 3.312501 -0.177696 3.871217
v 1.000000 -0.500000 -0.997962
v 1.000001 -0.500000 -0.497962
v 1.000000 -0.000000 -0.497962
v 1.000000 -0.000000 -0.997962
v 2.000000 -0.500000 -0.997962
v 2.000000 -0.000000 -0.997962
v 2.000000 -0.500000 -0.497962
v 2.000000 -0.000000 -0.497962
v 1.125000 -0.000000 -0.872962
v 1.125000 -0.000000 -0.435462
v 1.125000 1.000000 -0.435462
v 1.125000 1.000000 -0.872962
v 1.875000 -0.000000 -0.872962
v 1.875000 1.000000 -0.872962
v 1.875000 -0.000000 -0.435462
v 1.875000 1.000000 -0.435462
v 1.250000 1.250000 -0.997962
v 1.250000 1.250000 -0.872962
v 1.250000 1.750000 -0.872962
v 1.250000 1.750000 -0.997962
v 1.750000 1.250000 -0.997962
v 1.750000 1.750000 -0.997962
v 1.750000 1.250000 -0.872962
v 1.750000 1.750000 -0.872962
v 1.250000 0.250000 -0.997962
v 1.250000 0.250000 -0.872962
v 1.250000 0.750000 -0.872962
v 1.250000 0.750000 -0.997962
v 1.750000 0.250000 -0.997962
v 1.750000 0.750000 -0.997962
v 1.750000 0.250000 -0.872962
v 1.750000 0.750000 -0.872962
vn -0.0000 -1.0000 -0.0000
vn -1.0000 -0.0000 -0.0000
vn -0.0000 1.0000 -0.0000
vn 1.0000 -0.0000 -0.0000
vn -0.0000 0.9604 0.2785
vn -0.0000 0.5595 0.8288
vn -0.9917 -0.0000 -0.1282
vn 0.9917 -0.0000 -0.1282
vn 0.1970 0.9604 -0.1970
vn -0.2573 0.9604 -0.1066
vn -0.0000 -0.0000 1.0000
vn 1.0000 -0.0000 -0.0001
vn 0.2573 0.9604 -0.1066
vn -0.7071 -0.0000 0.7071
vn -0.0000 -0.0000 -1.0000
vn 1.0000 0.0001 -0.0000
vn 0.7071 -0.0000 0.7071
vn 0.7071 -0.0000 -0.7071
vn 1.0000 0.0001 -0.0001
vn -0.1969 0.9605 -0.1969
vn -0.1970 0.9604 -0.1969
vn -0.6088 -0.7934 -0.0000
vn 0.1970 0.9604 0.1970
vn -0.1970 0.9604 -0.1970
vn 0.2785 0.9604 -0.0000
vn -0.2785 0.9604 -0.0000
vn -0.1970 0.9604 0.1970
vn -0.7071 -0.0000 -0.7071
vn 0.6088 0.7934 -0.0000
vn -0.5610 0.4305 -0.7071
vn -0.7934 0.6088 -0.0000
vn 0.7934 -0.6088 -0.0000
vn -0.0000 -0.7071 -0.7071
vn -0.0000 0.7071 0.7071
vn -0.0000 0.7071 -0.7071
vn -0.0000 -0.7071 0.7071
vn 0.5610 -0.4305 -0.7071
vn 0.5610 -0.4305 0.7071
vn -0.5610 0.4305 0.7071
vt 0.283203 0.828623
vt 0.246591 0.865234
vt 0.220703 0.802734
vt 0.283203 0.776846
vt 0.246591 0.740234
vt 0.194815 0.740234
vt 0.158203 0.776846
vt 0.158203 0.828623
vt 0.194815 0.865234
vt 0.469727 0.500000
vt 0.481445 0.500000
vt 0.481445 0.511719
vt 0.341081 0.756483
vt 0.330794 0.757738
vt 0.330794 0.747599
vt 0.343034 0.752669
vt 0.280534 0.852891
vt 0.282487 0.853700
vt 0.280534 0.854509
vt 0.280534 0.863246
vt 0.282487 0.864055
vt 0.280534 0.864864
vt 0.280534 0.870596
vt 0.282487 0.870596
vt 0.282487 0.874410
vt 0.040039 0.523438
vt 0.040039 0.507812
vt 0.041992 0.507812
vt 0.053711 0.523438
vt 0.165193 0.904372
vt 0.162423 0.953498
vt 0.159122 0.954600
vt 0.162037 0.902906
vt 0.240524 0.585938
vt 0.239945 0.585938
vt 0.228516 0.604323
vt 0.229845 0.585938
vt 0.175781 0.867188
vt 0.186153 0.867574
vt 0.175781 0.882812
vt 0.186153 0.866898
vt 0.175781 0.855469
vt 0.199219 0.904297
vt 0.188847 0.904007
vt 0.199219 0.892578
vt 0.267578 0.861328
vt 0.257206 0.861715
vt 0.257206 0.861328
vt 0.282571 0.902989
vt 0.251533 0.867377
vt 0.288144 0.903989
vt 0.288103 0.904198
vt 0.275863 0.909267
vt 0.187712 1.000000
vt 0.200960 1.000000
vt 0.274365 0.906388
vt 0.275331 0.908720
vt 0.273437 0.906772
vt 0.272280 0.964799
vt 0.271420 0.964282
vt 0.273580 0.962635
vt 0.343229 0.686733
vt 0.292969 0.707552
vt 0.313787 0.657291
vt 0.265003 0.586990
vt 0.265003 0.548545
vt 0.265741 0.587188
vt 0.159440 0.839844
vt 0.158919 0.839322
vt 0.343230 0.728370
vt 0.343230 0.686733
vt 0.000000 1.000000
vt 0.000000 0.999784
vt 0.065709 0.558594
vt 0.065783 0.558304
vt 0.065783 0.558594
vt 0.086635 0.558594
vt 0.086561 0.558594
vt 0.086561 0.558304
vt 0.313788 0.757812
vt 0.479682 1.000000
vt 0.483044 0.960655
vt 0.482306 0.999297
vt 0.272150 0.757812
vt 0.458319 0.810264
vt 0.458319 0.849609
vt 0.457071 0.849609
vt 0.242708 0.728370
vt 0.458984 0.853233
vt 0.458984 0.892578
vt 0.457603 0.892578
vt 0.242708 0.686733
vt 0.272150 0.657291
vt 0.525391 0.474609
vt 0.525391 0.478516
vt 0.517578 0.478516
vt 0.126953 0.652344
vt 0.126953 0.683594
vt 0.095703 0.683594
vt 0.095703 0.667969
vt 0.501953 0.586914
vt 0.517578 0.589844
vt 0.486328 0.589844
vt 0.457031 0.954102
vt 0.441406 0.957031
vt 0.441406 0.951172
vt 0.507812 0.849609
vt 0.507812 0.855469
vt 0.476562 0.855469
vt 0.476562 0.852539
vt 0.064453 0.621094
vt 0.095703 0.621094
vt 0.095703 0.652344
vt 0.080078 0.652344
vt 0.160156 0.609375
vt 0.191406 0.671875
vt 0.144531 0.625000
vt 0.128906 0.640625
vt 0.517578 0.470703
vt 0.525391 0.470703
vt 0.458984 0.937500
vt 0.490234 0.937500
vt 0.490234 0.940430
vt 0.458984 0.943359
vt 0.441406 0.945312
vt 0.503906 0.945312
vt 0.472656 0.957031
vt 0.455078 0.578125
vt 0.455078 0.589844
vt 0.517578 0.578125
vt 0.080078 0.667969
vt 0.080078 0.683594
vt 0.064453 0.667969
vt 0.144531 0.609375
vt 0.136719 0.617188
vt 0.128906 0.625000
vt 0.438477 0.937500
vt 0.438477 0.968750
vt 0.407227 0.968750
vt 0.260742 0.587891
vt 0.229492 0.556641
vt 0.260742 0.556641
vt 0.332031 0.531250
vt 0.279297 0.531250
vt 0.279297 0.523438
vt 0.332031 0.523438
vt 0.246372 0.879707
vt 0.245124 0.879707
vt 0.250155 0.870574
vt 0.270248 0.858985
vt 0.270248 0.858769
vt 0.325195 0.601562
vt 0.325195 0.589844
vt 0.331736 0.601562
vt 0.193822 0.529297
vt 0.185084 0.529297
vt 0.177734 0.517578
vt 0.201172 0.517578
vt 0.348633 0.589844
vt 0.348633 0.601562
vt 0.342092 0.601562
vt 0.321381 0.601562
vt 0.311026 0.601562
vt 0.311026 0.542969
vt 0.483398 0.527344
vt 0.469727 0.527344
vt 0.483398 0.511719
vt 0.362802 0.542969
vt 0.362802 0.601562
vt 0.352447 0.601562
vt 0.000000 0.986752
vt 0.175293 0.950188
vt 0.166159 0.954570
vt 0.166159 0.905366
vt 0.175293 0.909748
vt 0.119141 0.548828
vt 0.171875 0.548828
vt 0.171875 0.607422
vt 0.119141 0.607422
vt 0.243044 0.996642
vt 0.239072 0.987000
vt 0.240312 0.987141
vt 0.270248 0.848630
vt 0.173828 0.546875
vt 0.226562 0.546875
vt 0.226562 0.605469
vt 0.173828 0.605469
vt 0.194152 0.991105
vt 0.198939 0.982455
vt 0.198078 0.981374
vt 0.361328 0.808594
vt 0.414062 0.808594
vt 0.414062 0.867188
vt 0.361328 0.867188
vt 0.175293 0.950787
vt 0.279691 0.969102
vt 0.243958 1.000000
vt 0.272239 0.964844
vt 0.050781 0.486328
vt 0.052734 0.486328
vt 0.052734 0.494141
vt 0.050781 0.494141
vt 0.203758 0.880684
vt 0.175293 0.909149
vt 0.200952 0.870574
vt 0.285156 0.953125
vt 0.287109 0.953125
vt 0.287109 0.964844
vt 0.285156 0.964844
vt 0.203125 0.517578
vt 0.226562 0.517578
vt 0.226562 0.544922
vt 0.203125 0.544922
vt 0.204735 0.879707
vt 0.509672 0.656250
vt 0.514836 0.666016
vt 0.465633 0.666016
vt 0.469416 0.656250
vt 0.040039 0.496094
vt 0.041992 0.496094
vt 0.251953 0.604323
vt 0.250623 0.585938
vt 0.470703 0.591797
vt 0.484375 0.591797
vt 0.484375 0.615234
vt 0.470703 0.615234
vt 0.053711 0.496094
vt 0.199665 0.867340
vt 0.161133 0.976562
vt 0.172852 0.976562
vt 0.172852 1.000000
vt 0.161133 1.000000
vt 0.201172 0.529297
vt 0.201172 0.544922
vt 0.195440 0.529297
vt 0.177734 0.544922
vt 0.177734 0.529297
vt 0.183466 0.529297
vt 0.159180 1.000000
vt 0.159180 0.976562
vt 0.361328 0.791016
vt 0.517578 0.791016
vt 0.517578 0.806641
vt 0.361328 0.806641
vt 0.390625 0.642578
vt 0.443359 0.642578
vt 0.443359 0.701172
vt 0.390625 0.701172
vt 0.280534 0.847159
vt 0.282487 0.847159
vt 0.330794 0.757812
vt 0.160156 0.896576
vt 0.160156 0.900391
vt 0.158203 0.900391
vt 0.270248 0.879480
vt 0.270248 0.869341
vt 0.270248 0.869125
vt 0.343034 0.742313
vt 0.330794 0.747383
vt 0.270248 0.869266
vt 0.282487 0.884766
vt 0.270248 0.879696
vt 0.186153 0.867188
vt 0.188847 0.904297
vt 0.267578 0.876953
vt 0.285350 0.968895
vt 0.274205 0.961732
vt 0.384766 0.471483
vt 0.376452 0.474609
vt 0.375578 0.471483
vt 0.274188 0.962173
vt 0.251442 0.867340
vt 0.240652 0.987050
vt 0.192510 0.994173
vt 0.076280 0.558594
vt 0.055353 0.520149
vt 0.096991 0.520149
vt 0.306641 0.548545
vt 0.306641 0.587891
vt 0.268365 0.587891
vt 0.361328 0.773438
vt 0.517578 0.773438
vt 0.517578 0.789062
vt 0.361328 0.789062
vt 0.065925 0.558594
vt 0.055569 0.558594
vt 0.055353 0.558594
vt 0.076064 0.558594
vt 0.096991 0.558594
vt 0.096775 0.558594
vt 0.086419 0.558594
vt 0.476562 0.858398
vt 0.483044 0.999099
vt 0.416681 0.810264
vt 0.416681 0.849609
vt 0.417347 0.853233
vt 0.417347 0.892578
vt 0.366499 0.580078
vt 0.365900 0.580078
vt 0.365900 0.540733
vt 0.455700 0.896202
vt 0.455700 0.935547
vt 0.415444 0.935547
vt 0.414062 0.896202
vt 0.407537 0.540733
vt 0.407537 0.580078
vt 0.406939 0.580078
vt 0.414063 0.935547
vt 0.507812 0.861328
vt 0.476562 0.861328
vt 0.410822 0.580078
vt 0.410822 0.540733
vt 0.412070 0.580078
vt 0.441406 0.960655
vt 0.441406 1.000000
vt 0.402344 0.755859
vt 0.558594 0.755859
vt 0.558594 0.771484
vt 0.402344 0.771484
vt 0.402344 0.738281
vt 0.558594 0.738281
vt 0.558594 0.753906
vt 0.402344 0.753906
vt 0.000000 0.843750
vt 0.156250 0.843750
vt 0.156250 1.000000
vt 0.000000 0.685547
vt 0.156250 0.685547
vt 0.156250 0.841797
vt 0.000000 0.841797
vt 0.125000 0.472656
vt 0.128906 0.472656
vt 0.128906 0.490234
vt 0.125000 0.490234
vt 0.130859 0.472656
vt 0.134766 0.472656
vt 0.134766 0.490234
vt 0.130859 0.490234
vt 0.136719 0.472656
vt 0.140625 0.472656
vt 0.140625 0.490234
vt 0.136719 0.490234
vt 0.142578 0.472656
vt 0.146484 0.472656
vt 0.146484 0.490234
vt 0.142578 0.490234
vt 0.164062 0.970703
vt 0.167969 0.970703
vt 0.167969 0.974609
vt 0.164062 0.974609
vt 0.171875 0.955078
vt 0.175781 0.955078
vt 0.175781 0.958984
vt 0.171875 0.958984
vt 0.468750 0.529297
vt 0.521484 0.529297
vt 0.521484 0.537109
vt 0.468750 0.537109
vt 0.519531 0.951172
vt 0.527344 0.951172
vt 0.527344 0.958984
vt 0.519531 0.958984
vt 0.470703 0.617188
vt 0.523438 0.617188
vt 0.523438 0.625000
vt 0.470703 0.625000
vt 0.164062 0.470703
vt 0.171875 0.470703
vt 0.171875 0.478516
vt 0.164062 0.478516
vt 0.236328 0.972656
vt 0.244141 0.972656
vt 0.244141 0.980469
vt 0.236328 0.980469
vt 0.201172 0.972656
vt 0.234375 0.972656
vt 0.234375 0.980469
vt 0.201172 0.980469
vt 0.453125 0.943359
vt 0.441406 0.943359
vt 0.441406 0.937500
vt 0.453125 0.937500
vt 0.095703 0.509766
vt 0.097656 0.509766
vt 0.097656 0.517578
vt 0.095703 0.517578
vt 0.259766 0.992188
vt 0.267578 0.992188
vt 0.267578 1.000000
vt 0.259766 1.000000
vt 0.417969 0.511719
vt 0.451172 0.511719
vt 0.451172 0.519531
vt 0.417969 0.519531
vt 0.435547 0.703125
vt 0.443359 0.703125
vt 0.443359 0.736328
vt 0.435547 0.736328
vt 0.453125 0.486328
vt 0.460938 0.486328
vt 0.460938 0.519531
vt 0.453125 0.519531
vt 0.158203 0.757812
vt 0.162109 0.757812
vt 0.162109 0.767578
vt 0.158203 0.767578
vt 0.173828 0.990234
vt 0.185547 0.990234
vt 0.185547 1.000000
vt 0.173828 1.000000
vt 0.175781 0.740234
vt 0.179688 0.740234
vt 0.179688 0.750000
vt 0.175781 0.750000
vt 0.119141 0.609375
vt 0.130859 0.609375
vt 0.130859 0.619141
vt 0.119141 0.619141
vt 0.158203 0.962891
vt 0.162109 0.962891
vt 0.162109 0.974609
vt 0.158203 0.974609
vt 0.523438 0.839844
vt 0.527344 0.839844
vt 0.527344 0.851562
vt 0.523438 0.851562
vt 0.259766 0.902344
vt 0.263672 0.902344
vt 0.263672 0.912109
vt 0.259766 0.912109
vt 0.244141 0.488281
vt 0.255859 0.488281
vt 0.255859 0.498047
vt 0.244141 0.498047
vt 0.253906 0.656250
vt 0.257812 0.656250
vt 0.257812 0.666016
vt 0.253906 0.666016
vt 0.257812 0.488281
vt 0.269531 0.488281
vt 0.269531 0.498047
vt 0.257812 0.498047
vt 0.523438 0.826172
vt 0.527344 0.826172
vt 0.527344 0.837891
vt 0.523438 0.837891
vt 0.228516 0.464844
vt 0.232422 0.464844
vt 0.232422 0.476562
vt 0.228516 0.476562
vt 0.523438 0.814453
vt 0.527344 0.814453
vt 0.527344 0.824219
vt 0.523438 0.824219
vt 0.468750 0.488281
vt 0.480469 0.488281
vt 0.480469 0.498047
vt 0.468750 0.498047
vt 0.523438 0.712891
vt 0.527344 0.712891
vt 0.527344 0.722656
vt 0.523438 0.722656
vt 0.482422 0.488281
vt 0.494141 0.488281
vt 0.494141 0.498047
vt 0.482422 0.498047
vt 0.234375 0.464844
vt 0.238281 0.464844
vt 0.238281 0.476562
vt 0.234375 0.476562
vt 0.240234 0.464844
vt 0.244141 0.464844
vt 0.244141 0.476562
vt 0.240234 0.476562
vt 0.281250 0.466797
vt 0.285156 0.466797
vt 0.285156 0.476562
vt 0.281250 0.476562
vt 0.496094 0.488281
vt 0.507812 0.488281
vt 0.507812 0.498047
vt 0.496094 0.498047
vt 0.287109 0.466797
vt 0.291016 0.466797
vt 0.291016 0.476562
vt 0.287109 0.476562
vt 0.503906 0.968750
vt 0.515625 0.968750
vt 0.515625 0.978516
vt 0.503906 0.978516
vt 0.246094 0.464844
vt 0.250000 0.464844
vt 0.250000 0.476562
vt 0.246094 0.476562
vt 0.251953 0.464844
vt 0.255859 0.464844
vt 0.255859 0.476562
vt 0.251953 0.476562
vt 0.277344 0.978516
vt 0.285156 0.978516
vt 0.285156 0.982422
vt 0.277344 0.982422
vt 0.195312 0.974609
vt 0.199219 0.974609
vt 0.199219 0.978516
vt 0.195312 0.978516
vt 0.064453 0.679688
vt 0.072266 0.679688
vt 0.072266 0.683594
vt 0.064453 0.683594
vt 0.164062 0.757812
vt 0.167969 0.757812
vt 0.167969 0.761719
vt 0.164062 0.761719
vt 0.335938 0.669922
vt 0.343750 0.669922
vt 0.343750 0.673828
vt 0.335938 0.673828
vt 0.228516 0.568359
vt 0.236328 0.568359
vt 0.236328 0.572266
vt 0.228516 0.572266
vt 0.023438 0.470703
vt 0.027344 0.470703
vt 0.027344 0.488281
vt 0.023438 0.488281
vt 0.017578 0.470703
vt 0.021484 0.470703
vt 0.021484 0.488281
vt 0.017578 0.488281
vt 0.005859 0.470703
vt 0.009766 0.470703
vt 0.009766 0.488281
vt 0.005859 0.488281
vt 0.011719 0.470703
vt 0.015625 0.470703
vt 0.015625 0.488281
vt 0.011719 0.488281
vt 0.246094 0.976562
vt 0.246094 0.972656
vt 0.250000 0.972656
vt 0.250000 0.976562
vt 0.248047 0.890625
vt 0.251953 0.890625
vt 0.251953 0.894531
vt 0.248047 0.894531
vt 0.365234 0.470703
vt 0.373047 0.470703
vt 0.373047 0.474609
vt 0.365234 0.474609
vt 0.500000 0.472656
vt 0.503906 0.472656
vt 0.503906 0.476562
vt 0.500000 0.476562
vt 0.355469 0.470703
vt 0.363281 0.470703
vt 0.363281 0.474609
vt 0.355469 0.474609
vt 0.031250 0.496094
vt 0.035156 0.496094
vt 0.035156 0.500000
vt 0.031250 0.500000
vt 0.417969 0.945312
vt 0.417969 0.937500
vt 0.425781 0.937500
vt 0.425781 0.945312
vt 0.445312 0.582031
vt 0.453125 0.582031
vt 0.453125 0.589844
vt 0.445312 0.589844
vt 0.523438 0.603516
vt 0.523438 0.595703
vt 0.527344 0.595703
vt 0.527344 0.603516
vt 0.515625 0.470703
vt 0.515625 0.478516
vt 0.507812 0.478516
vt 0.507812 0.470703
vt 0.519531 0.931641
vt 0.519531 0.935547
vt 0.507812 0.935547
vt 0.507812 0.931641
vt 0.175781 0.488281
vt 0.173828 0.488281
vt 0.173828 0.480469
vt 0.175781 0.480469
vt 0.261719 0.476562
vt 0.257812 0.476562
vt 0.257812 0.464844
vt 0.261719 0.464844
vt 0.259766 0.505859
vt 0.261719 0.505859
vt 0.261719 0.513672
vt 0.259766 0.513672
vt 0.509766 0.667969
vt 0.517578 0.667969
vt 0.517578 0.675781
vt 0.509766 0.675781
vt 0.154297 0.480469
vt 0.162109 0.480469
vt 0.162109 0.488281
vt 0.154297 0.488281
vt 0.164062 0.480469
vt 0.171875 0.480469
vt 0.171875 0.488281
vt 0.164062 0.488281
vt 0.318359 0.480469
vt 0.326172 0.480469
vt 0.326172 0.488281
vt 0.318359 0.488281
vt 0.511719 0.500000
vt 0.519531 0.500000
vt 0.519531 0.507812
vt 0.511719 0.507812
vt 0.228516 0.478516
vt 0.236328 0.478516
vt 0.236328 0.486328
vt 0.228516 0.486328
vt 0.458984 0.921875
vt 0.529297 0.921875
vt 0.529297 0.929688
vt 0.458984 0.929688
vt 0.238281 0.478516
vt 0.246094 0.478516
vt 0.246094 0.486328
vt 0.238281 0.486328
vt 0.458984 0.912109
vt 0.529297 0.912109
vt 0.529297 0.919922
vt 0.458984 0.919922
vt 0.248047 0.478516
vt 0.255859 0.478516
vt 0.255859 0.486328
vt 0.248047 0.486328
vt 0.458984 0.902344
vt 0.529297 0.902344
vt 0.529297 0.910156
vt 0.458984 0.910156
vt 0.263672 0.533203
vt 0.333984 0.533203
vt 0.333984 0.541016
vt 0.263672 0.541016
vt 0.521484 0.941406
vt 0.529297 0.941406
vt 0.529297 0.949219
vt 0.521484 0.949219
vt 0.519531 0.779297
vt 0.527344 0.779297
vt 0.527344 0.787109
vt 0.519531 0.787109
vt 0.265625 0.486328
vt 0.257812 0.486328
vt 0.257812 0.478516
vt 0.265625 0.478516
vt 0.318359 0.478516
vt 0.318359 0.470703
vt 0.326172 0.470703
vt 0.326172 0.478516
vt 0.183594 0.482422
vt 0.191406 0.482422
vt 0.191406 0.505859
vt 0.183594 0.505859
vt 0.519531 0.968750
vt 0.519531 0.960938
vt 0.527344 0.960938
vt 0.527344 0.968750
vt 0.193359 0.458984
vt 0.197266 0.458984
vt 0.197266 0.505859
vt 0.193359 0.505859
vt 0.199219 0.458984
vt 0.203125 0.458984
vt 0.203125 0.505859
vt 0.199219 0.505859
vt 0.535156 0.812500
vt 0.460938 0.812500
vt 0.460938 0.808594
vt 0.535156 0.808594
vt 0.509766 0.861328
vt 0.509766 0.849609
vt 0.515625 0.849609
vt 0.515625 0.861328
vt 0.505859 0.955078
vt 0.505859 0.947266
vt 0.517578 0.947266
vt 0.517578 0.955078
vt 0.166016 0.894531
vt 0.158203 0.894531
vt 0.158203 0.888672
vt 0.166016 0.888672
vt 0.494141 0.820312
vt 0.494141 0.816406
vt 0.501953 0.816406
vt 0.501953 0.820312
vt 0.205078 0.458984
vt 0.208984 0.458984
vt 0.208984 0.505859
vt 0.205078 0.505859
vt 0.210938 0.458984
vt 0.214844 0.458984
vt 0.214844 0.505859
vt 0.210938 0.505859
vt 0.253906 0.996094
vt 0.257812 0.996094
vt 0.257812 1.000000
vt 0.253906 1.000000
vt 0.181641 0.740234
vt 0.185547 0.740234
vt 0.185547 0.744141
vt 0.181641 0.744141
vt 0.285156 0.914062
vt 0.289062 0.914062
vt 0.289062 0.933594
vt 0.285156 0.933594
vt 0.384766 0.582031
vt 0.388672 0.582031
vt 0.388672 0.601562
vt 0.384766 0.601562
vt 0.271484 0.478516
vt 0.275391 0.478516
vt 0.275391 0.498047
vt 0.271484 0.498047
vt 0.376953 0.476562
vt 0.380859 0.476562
vt 0.380859 0.496094
vt 0.376953 0.496094
vt 0.261719 0.855469
vt 0.265625 0.855469
vt 0.265625 0.859375
vt 0.261719 0.859375
vt 0.240234 0.734375
vt 0.244141 0.734375
vt 0.244141 0.738281
vt 0.240234 0.738281
vt 0.382812 0.476562
vt 0.386719 0.476562
vt 0.386719 0.496094
vt 0.382812 0.496094
vt 0.044922 0.474609
vt 0.048828 0.474609
vt 0.048828 0.494141
vt 0.044922 0.494141
vt 0.507812 0.697266
vt 0.511719 0.697266
vt 0.511719 0.716797
vt 0.507812 0.716797
vt 0.119141 0.470703
vt 0.123047 0.470703
vt 0.123047 0.490234
vt 0.119141 0.490234
vt 0.265625 0.908203
vt 0.269531 0.908203
vt 0.269531 0.912109
vt 0.265625 0.912109
vt 0.277344 0.839844
vt 0.281250 0.839844
vt 0.281250 0.843750
vt 0.277344 0.843750
vt 0.521484 0.716797
vt 0.513672 0.716797
vt 0.513672 0.708984
vt 0.521484 0.708984
vt 0.513672 0.699219
vt 0.521484 0.699219
vt 0.521484 0.707031
vt 0.513672 0.707031
vt 0.402344 0.478516
vt 0.402344 0.486328
vt 0.394531 0.486328
vt 0.394531 0.478516
vt 0.513672 0.603516
vt 0.513672 0.595703
vt 0.521484 0.595703
vt 0.521484 0.603516
vt 0.476562 0.478516
vt 0.476562 0.486328
vt 0.468750 0.486328
vt 0.468750 0.478516
vt 0.478516 0.486328
vt 0.478516 0.478516
vt 0.486328 0.478516
vt 0.486328 0.486328
vt 0.527344 0.677734
vt 0.519531 0.677734
vt 0.519531 0.669922
vt 0.527344 0.669922
vt 0.183594 0.472656
vt 0.191406 0.472656
vt 0.191406 0.480469
vt 0.183594 0.480469
vt 0.527344 0.798828
vt 0.527344 0.806641
vt 0.519531 0.806641
vt 0.519531 0.798828
vt 0.519531 0.593750
vt 0.519531 0.585938
vt 0.527344 0.585938
vt 0.527344 0.593750
vt 0.496094 0.486328
vt 0.488281 0.486328
vt 0.488281 0.478516
vt 0.496094 0.478516
vt 0.505859 0.486328
vt 0.498047 0.486328
vt 0.498047 0.478516
vt 0.505859 0.478516
vt 0.523438 0.697266
vt 0.515625 0.697266
vt 0.515625 0.689453
vt 0.523438 0.689453
vt 0.515625 0.679688
vt 0.523438 0.679688
vt 0.523438 0.687500
vt 0.515625 0.687500
vt 0.531250 0.892578
vt 0.531250 0.900391
vt 0.460938 0.900391
vt 0.460938 0.892578
vt 0.460938 0.890625
vt 0.460938 0.882812
vt 0.531250 0.882812
vt 0.531250 0.890625
vt 0.531250 0.873047
vt 0.531250 0.880859
vt 0.460938 0.880859
vt 0.460938 0.873047
vt 0.460938 0.871094
vt 0.460938 0.863281
vt 0.531250 0.863281
vt 0.531250 0.871094
vt 0.357422 0.910156
vt 0.359375 0.910156
vt 0.359375 0.919922
vt 0.357422 0.919922
vt 0.503906 0.837891
vt 0.515625 0.837891
vt 0.515625 0.847656
vt 0.503906 0.847656
vt 0.357422 0.898438
vt 0.359375 0.898438
vt 0.359375 0.908203
vt 0.357422 0.908203
vt 0.503906 0.826172
vt 0.515625 0.826172
vt 0.515625 0.835938
vt 0.503906 0.835938
vt 0.285156 0.939453
vt 0.287109 0.939453
vt 0.287109 0.951172
vt 0.285156 0.951172
vt 0.357422 0.921875
vt 0.359375 0.921875
vt 0.359375 0.933594
vt 0.357422 0.933594
vt 0.498047 0.669922
vt 0.505859 0.669922
vt 0.505859 0.673828
vt 0.498047 0.673828
vt 0.279297 0.886719
vt 0.283203 0.886719
vt 0.283203 0.890625
vt 0.279297 0.890625
vt 0.480469 0.472656
vt 0.488281 0.472656
vt 0.488281 0.476562
vt 0.480469 0.476562
vt 0.285156 0.908203
vt 0.289062 0.908203
vt 0.289062 0.912109
vt 0.285156 0.912109
vt 0.490234 0.472656
vt 0.498047 0.472656
vt 0.498047 0.476562
vt 0.490234 0.476562
vt 0.525391 0.695312
vt 0.533203 0.695312
vt 0.533203 0.699219
vt 0.525391 0.699219
vt 0.525391 0.689453
vt 0.533203 0.689453
vt 0.533203 0.693359
vt 0.525391 0.693359
vt 0.240234 0.675781
vt 0.244141 0.675781
vt 0.244141 0.679688
vt 0.240234 0.679688
vt 0.525391 0.683594
vt 0.533203 0.683594
vt 0.533203 0.687500
vt 0.525391 0.687500
vt 0.322266 0.753906
vt 0.326172 0.753906
vt 0.326172 0.757812
vt 0.322266 0.757812
vt 0.335938 0.470703
vt 0.343750 0.470703
vt 0.343750 0.474609
vt 0.335938 0.474609
vt 0.345703 0.470703
vt 0.353516 0.470703
vt 0.353516 0.474609
vt 0.345703 0.474609
vt 0.183594 0.507812
vt 0.214844 0.507812
vt 0.214844 0.515625
vt 0.183594 0.515625
vt 0.335938 0.476562
vt 0.343750 0.476562
vt 0.343750 0.484375
vt 0.335938 0.484375
vt 0.484375 0.519531
vt 0.515625 0.519531
vt 0.515625 0.527344
vt 0.484375 0.527344
vt 0.345703 0.476562
vt 0.353516 0.476562
vt 0.353516 0.484375
vt 0.345703 0.484375
vt 0.484375 0.509766
vt 0.515625 0.509766
vt 0.515625 0.517578
vt 0.484375 0.517578
vt 0.486328 0.992188
vt 0.517578 0.992188
vt 0.517578 1.000000
vt 0.486328 1.000000
vt 0.523438 0.515625
vt 0.527344 0.515625
vt 0.527344 0.525391
vt 0.523438 0.525391
vt 0.031250 0.484375
vt 0.042969 0.484375
vt 0.042969 0.494141
vt 0.031250 0.494141
vt 0.474609 0.466797
vt 0.478516 0.466797
vt 0.478516 0.476562
vt 0.474609 0.476562
vt 0.505859 0.957031
vt 0.517578 0.957031
vt 0.517578 0.966797
vt 0.505859 0.966797
vt 0.523438 0.701172
vt 0.527344 0.701172
vt 0.527344 0.710938
vt 0.523438 0.710938
vt 0.503906 0.814453
vt 0.515625 0.814453
vt 0.515625 0.824219
vt 0.503906 0.824219
vt 0.064453 0.560547
vt 0.117188 0.560547
vt 0.117188 0.619141
vt 0.064453 0.619141
vt 0.508483 0.941406
vt 0.519531 0.941406
vt 0.519531 0.945312
vt 0.508483 0.945312
vt 0.292969 0.466797
vt 0.296875 0.466797
vt 0.296875 0.476562
vt 0.292969 0.476562
vt 0.335938 0.486328
vt 0.347656 0.486328
vt 0.347656 0.496094
vt 0.335938 0.496094
vt 0.263672 0.464844
vt 0.267578 0.464844
vt 0.267578 0.476562
vt 0.263672 0.476562
vt 0.523438 0.724609
vt 0.527344 0.724609
vt 0.527344 0.736328
vt 0.523438 0.736328
vt 0.298828 0.466797
vt 0.302734 0.466797
vt 0.302734 0.476562
vt 0.298828 0.476562
vt 0.349609 0.486328
vt 0.361328 0.486328
vt 0.361328 0.496094
vt 0.349609 0.496094
vt 0.304688 0.466797
vt 0.308594 0.466797
vt 0.308594 0.476562
vt 0.304688 0.476562
vt 0.363281 0.486328
vt 0.375000 0.486328
vt 0.375000 0.496094
vt 0.363281 0.496094
vt 0.269531 0.464844
vt 0.273438 0.464844
vt 0.273438 0.476562
vt 0.269531 0.476562
vt 0.275391 0.464844
vt 0.279297 0.464844
vt 0.279297 0.476562
vt 0.275391 0.476562
vt 0.167969 0.849609
vt 0.173828 0.849609
vt 0.173828 0.853516
vt 0.167969 0.853516
vt 0.324219 0.658203
vt 0.328125 0.658203
vt 0.328125 0.662109
vt 0.324219 0.662109
vt 0.173828 0.984375
vt 0.179688 0.984375
vt 0.179688 0.988281
vt 0.173828 0.988281
vt 0.259766 0.656250
vt 0.263672 0.656250
vt 0.263672 0.660156
vt 0.259766 0.660156
vt 0.238281 0.882812
vt 0.244141 0.882812
vt 0.244141 0.886719
vt 0.238281 0.886719
vt 0.259766 0.960938
vt 0.265625 0.960938
vt 0.265625 0.964844
vt 0.259766 0.964844
vt 0.148438 0.472656
vt 0.152344 0.472656
vt 0.152344 0.490234
vt 0.148438 0.490234
vt 0.509766 0.677734
vt 0.513672 0.677734
vt 0.513672 0.695312
vt 0.509766 0.695312
vt 0.509766 0.480469
vt 0.513672 0.480469
vt 0.513672 0.498047
vt 0.509766 0.498047
vt 0.000000 0.470703
vt 0.003906 0.470703
vt 0.003906 0.488281
vt 0.000000 0.488281
vt 0.339844 0.736328
vt 0.343750 0.736328
vt 0.343750 0.740234
vt 0.339844 0.740234
vt 0.132812 0.609375
vt 0.136719 0.609375
vt 0.136719 0.613281
vt 0.132812 0.613281
vt 0.310547 0.466797
vt 0.314453 0.466797
vt 0.314453 0.476562
vt 0.310547 0.476562
vt 0.228516 0.574219
vt 0.242188 0.574219
vt 0.242188 0.583984
vt 0.228516 0.583984
vt 0.394531 0.466797
vt 0.398438 0.466797
vt 0.398438 0.476562
vt 0.394531 0.476562
vt 0.000000 0.490234
vt 0.013672 0.490234
vt 0.013672 0.500000
vt 0.000000 0.500000
vt 0.207031 0.886719
vt 0.207031 0.882812
vt 0.220703 0.882812
vt 0.220703 0.886719
vt 0.236328 0.882812
vt 0.236328 0.886719
vt 0.222656 0.886719
vt 0.222656 0.882812
vt 0.523438 0.527344
vt 0.527344 0.527344
vt 0.527344 0.537109
vt 0.523438 0.537109
vt 0.015625 0.490234
vt 0.029297 0.490234
vt 0.029297 0.500000
vt 0.015625 0.500000
vt 0.468750 0.466797
vt 0.472656 0.466797
vt 0.472656 0.476562
vt 0.468750 0.476562
vt 0.228516 0.488281
vt 0.242188 0.488281
vt 0.242188 0.498047
vt 0.228516 0.498047
vt 0.519531 0.777344
vt 0.519531 0.773438
vt 0.533203 0.773438
vt 0.533203 0.777344
vt 0.533203 0.580078
vt 0.533203 0.583984
vt 0.519531 0.583984
vt 0.519531 0.580078
vt 0.355469 0.476562
vt 0.363281 0.476562
vt 0.363281 0.484375
vt 0.355469 0.484375
vt 0.128906 0.675781
vt 0.154297 0.675781
vt 0.154297 0.683594
vt 0.128906 0.683594
vt 0.365234 0.476562
vt 0.373047 0.476562
vt 0.373047 0.484375
vt 0.365234 0.484375
vt 0.486328 0.595703
vt 0.511719 0.595703
vt 0.511719 0.603516
vt 0.486328 0.603516
vt 0.394531 0.488281
vt 0.402344 0.488281
vt 0.402344 0.513672
vt 0.394531 0.513672
vt 0.417969 0.484375
vt 0.425781 0.484375
vt 0.425781 0.509766
vt 0.417969 0.509766
vt 0.345703 0.703125
vt 0.400391 0.703125
vt 0.400391 0.767578
vt 0.345703 0.767578
vt 0.234375 0.673828
vt 0.238281 0.673828
vt 0.238281 0.738281
vt 0.234375 0.738281
vt 0.253906 0.589844
vt 0.308594 0.589844
vt 0.308594 0.654297
vt 0.253906 0.654297
vt 0.462891 0.455078
vt 0.466797 0.455078
vt 0.466797 0.519531
vt 0.462891 0.519531
vt 0.181641 0.912109
vt 0.181641 0.966797
vt 0.177734 0.966797
vt 0.177734 0.912109
vt 0.388672 0.513672
vt 0.388672 0.458984
vt 0.392578 0.458984
vt 0.392578 0.513672
vt 0.054688 0.453125
vt 0.058594 0.453125
vt 0.058594 0.517578
vt 0.054688 0.517578
vt 0.193359 0.607422
vt 0.251953 0.607422
vt 0.251953 0.671875
vt 0.193359 0.671875
vt 0.060547 0.453125
vt 0.064453 0.453125
vt 0.064453 0.517578
vt 0.060547 0.517578
vt 0.330078 0.603516
vt 0.388672 0.603516
vt 0.388672 0.667969
vt 0.330078 0.667969
vt 0.544922 0.611328
vt 0.544922 0.615234
vt 0.486328 0.615234
vt 0.486328 0.611328
vt 0.486328 0.609375
vt 0.486328 0.605469
vt 0.544922 0.605469
vt 0.544922 0.609375
vt 0.222656 0.453125
vt 0.226562 0.453125
vt 0.226562 0.515625
vt 0.222656 0.515625
vt 0.285156 0.769531
vt 0.359375 0.769531
vt 0.359375 0.832031
vt 0.285156 0.832031
vt 0.216797 0.453125
vt 0.220703 0.453125
vt 0.220703 0.515625
vt 0.216797 0.515625
vt 0.285156 0.833984
vt 0.359375 0.833984
vt 0.359375 0.896484
vt 0.285156 0.896484
vt 0.289062 0.935547
vt 0.351562 0.935547
vt 0.351562 1.000000
vt 0.289062 1.000000
vt 0.066406 0.453125
vt 0.070312 0.453125
vt 0.070312 0.517578
vt 0.066406 0.517578
vt 0.330078 0.521484
vt 0.330078 0.447266
vt 0.333984 0.447266
vt 0.333984 0.521484
vt 0.410156 0.519531
vt 0.335938 0.519531
vt 0.335938 0.515625
vt 0.410156 0.515625
vt 0.000000 0.619141
vt 0.062500 0.619141
vt 0.062500 0.683594
vt 0.000000 0.683594
vt 0.072266 0.453125
vt 0.076172 0.453125
vt 0.076172 0.517578
vt 0.072266 0.517578
vt 0.486328 0.986328
vt 0.548828 0.986328
vt 0.548828 0.990234
vt 0.486328 0.990234
vt 0.486328 0.980469
vt 0.548828 0.980469
vt 0.548828 0.984375
vt 0.486328 0.984375
vt 0.078125 0.453125
vt 0.082031 0.453125
vt 0.082031 0.517578
vt 0.078125 0.517578
vt 0.353516 0.935547
vt 0.404297 0.935547
vt 0.404297 1.000000
vt 0.353516 1.000000
vt 0.083984 0.453125
vt 0.087891 0.453125
vt 0.087891 0.517578
vt 0.083984 0.517578
vt 0.361328 0.869141
vt 0.412109 0.869141
vt 0.412109 0.933594
vt 0.361328 0.933594
vt 0.404297 0.462891
vt 0.408203 0.462891
vt 0.408203 0.513672
vt 0.404297 0.513672
vt 0.427734 0.458984
vt 0.431641 0.458984
vt 0.431641 0.509766
vt 0.427734 0.509766
vt 0.089844 0.453125
vt 0.093750 0.453125
vt 0.093750 0.517578
vt 0.089844 0.517578
vt 0.158203 0.673828
vt 0.232422 0.673828
vt 0.232422 0.738281
vt 0.158203 0.738281
vt 0.177734 0.451172
vt 0.181641 0.451172
vt 0.181641 0.515625
vt 0.177734 0.515625
vt 0.183594 0.906250
vt 0.257812 0.906250
vt 0.257812 0.970703
vt 0.183594 0.970703
vt 0.095703 0.455078
vt 0.099609 0.455078
vt 0.099609 0.501953
vt 0.095703 0.501953
vt 0.101562 0.455078
vt 0.105469 0.455078
vt 0.105469 0.501953
vt 0.101562 0.501953
vt 0.412109 0.445312
vt 0.416016 0.445312
vt 0.416016 0.519531
vt 0.412109 0.519531
vt 0.452459 0.540733
vt 0.452459 0.580078
vt 0.107422 0.455078
vt 0.111328 0.455078
vt 0.111328 0.501953
vt 0.107422 0.501953
vt 0.113281 0.455078
vt 0.117188 0.455078
vt 0.117188 0.501953
vt 0.113281 0.501953
vt 0.406250 0.957031
vt 0.410156 0.957031
vt 0.410156 0.960938
vt 0.406250 0.960938
vt 0.244141 0.580078
vt 0.248047 0.580078
vt 0.248047 0.583984
vt 0.244141 0.583984
vt 0.099609 0.503906
vt 0.117188 0.503906
vt 0.117188 0.558594
vt 0.099609 0.558594
vt 0.000000 0.501953
vt 0.017578 0.501953
vt 0.017578 0.556641
vt 0.000000 0.556641
vt 0.019531 0.501953
vt 0.037109 0.501953
vt 0.037109 0.556641
vt 0.019531 0.556641
vt 0.445312 0.681641
vt 0.462891 0.681641
vt 0.462891 0.736328
vt 0.445312 0.736328
vt 0.310547 0.603516
vt 0.328125 0.603516
vt 0.328125 0.621094
vt 0.310547 0.621094
vt 0.365234 0.583984
vt 0.382812 0.583984
vt 0.382812 0.601562
vt 0.365234 0.601562
vt 0.494141 0.822266
vt 0.501953 0.822266
vt 0.501953 0.847656
vt 0.494141 0.847656
vt 0.443359 0.484375
vt 0.451172 0.484375
vt 0.451172 0.509766
vt 0.443359 0.509766
vt 0.525391 0.666016
vt 0.517578 0.666016
vt 0.517578 0.658203
vt 0.525391 0.658203
vt 0.508483 0.937500
vt 0.519531 0.937500
vt 0.519531 0.992188
vt 0.527344 0.992188
vt 0.527344 1.000000
vt 0.519531 1.000000
vt 0.498047 0.736328
vt 0.498047 0.728516
vt 0.521484 0.728516
vt 0.521484 0.736328
vt 0.341797 0.763672
vt 0.343750 0.763672
vt 0.343750 0.767578
vt 0.341797 0.767578
vt 0.193359 0.974609
vt 0.185547 0.974609
vt 0.185547 0.972656
vt 0.193359 0.972656
vt 0.460938 0.476562
vt 0.453125 0.480469
vt 0.453125 0.476562
vt 0.248047 0.902344
vt 0.255859 0.902344
vt 0.255859 0.904297
vt 0.248047 0.904297
vt 0.455078 0.568359
vt 0.539062 0.568359
vt 0.539062 0.576172
vt 0.455078 0.576172
vt 0.193359 0.982422
vt 0.255859 0.894531
vt 0.515625 0.490234
vt 0.523438 0.490234
vt 0.523438 0.498047
vt 0.515625 0.498047
vt 0.455078 0.558594
vt 0.539062 0.558594
vt 0.539062 0.566406
vt 0.455078 0.566406
vt 0.515625 0.480469
vt 0.523438 0.480469
vt 0.523438 0.488281
vt 0.515625 0.488281
vt 0.455078 0.548828
vt 0.539062 0.548828
vt 0.539062 0.556641
vt 0.455078 0.556641
vt 0.455078 0.539062
vt 0.539062 0.539062
vt 0.539062 0.546875
vt 0.455078 0.546875
vt 0.259766 0.515625
vt 0.261719 0.515625
vt 0.261719 0.523438
vt 0.259766 0.523438
vt 0.341797 0.759766
vt 0.343750 0.759766
vt 0.445312 0.625000
vt 0.462891 0.625000
vt 0.462891 0.679688
vt 0.445312 0.679688
vt 0.484375 0.507812
vt 0.484375 0.500000
vt 0.509766 0.500000
vt 0.509766 0.507812
vt 0.498047 0.726562
vt 0.498047 0.718750
vt 0.521484 0.718750
vt 0.521484 0.726562
vt 0.119141 0.492188
vt 0.136719 0.492188
vt 0.136719 0.546875
vt 0.119141 0.546875
vt 0.138672 0.492188
vt 0.156250 0.492188
vt 0.156250 0.546875
vt 0.138672 0.546875
vt 0.158203 0.490234
vt 0.175781 0.490234
vt 0.175781 0.544922
vt 0.158203 0.544922
vt 0.279297 0.503906
vt 0.296875 0.503906
vt 0.296875 0.521484
vt 0.279297 0.521484
vt 0.298828 0.503906
vt 0.316406 0.503906
vt 0.316406 0.521484
vt 0.298828 0.521484
vt 0.279297 0.759766
vt 0.339844 0.759766
vt 0.339844 0.767578
vt 0.279297 0.767578
vt 0.517578 0.970703
vt 0.525391 0.970703
vt 0.525391 0.978516
vt 0.517578 0.978516
vt 0.464844 0.646484
vt 0.525391 0.646484
vt 0.525391 0.654297
vt 0.464844 0.654297
vt 0.029297 0.474609
vt 0.037109 0.474609
vt 0.037109 0.482422
vt 0.029297 0.482422
vt 0.464844 0.636719
vt 0.525391 0.636719
vt 0.525391 0.644531
vt 0.464844 0.644531
vt 0.464844 0.626953
vt 0.525391 0.626953
vt 0.525391 0.634766
vt 0.464844 0.634766
vt 0.283203 0.914062
vt 0.283203 0.916992
vt 0.261106 0.916992
vt 0.261106 0.914062
vt 0.517578 0.583984
vt 0.476562 0.849609
vt 0.064453 0.652344
vt 0.126953 0.621094
vt 0.191406 0.609375
vt 0.128906 0.671875
vt 0.460938 0.858398
vt 0.460938 0.861328
vt 0.270248 0.848488
vt 0.460938 0.852539
vt 0.460938 0.855469
vt 0.490234 0.934570
vt 0.505859 0.934570
vt 0.505859 0.937500
vt 0.490234 0.931641
vt 0.505859 0.931641
vt 0.458984 0.931641
vt 0.503906 0.957031
vt 0.460938 0.484375
vt 0.453125 0.484375
vt 0.460938 0.849609
vt 0.283203 0.922852
vt 0.283203 0.925781
vt 0.261106 0.925781
vt 0.261106 0.922852
vt 0.283203 0.919922
vt 0.261106 0.919922
vt 0.505859 0.940430
vt 0.505859 0.943359
vt 0.490234 0.943359
vt 0.460938 0.832031
vt 0.492188 0.832031
vt 0.492188 0.847656
vt 0.460938 0.847656
vt 0.460938 0.814453
vt 0.492188 0.814453
vt 0.492188 0.830078
vt 0.460938 0.830078
vt 0.291016 0.902344
vt 0.322266 0.902344
vt 0.322266 0.933594
vt 0.291016 0.933594
vt 0.324219 0.902344
vt 0.355469 0.902344
vt 0.355469 0.933594
vt 0.324219 0.933594
vt 0.335938 0.521484
vt 0.367188 0.521484
vt 0.367188 0.537109
vt 0.335938 0.537109
vt 0.369141 0.521484
vt 0.400391 0.521484
vt 0.400391 0.537109
vt 0.369141 0.537109
vt 0.438477 1.000000
vt 0.407227 1.000000
vt 0.229492 0.525391
vt 0.260742 0.525391
vt 0.402344 0.521484
vt 0.433594 0.521484
vt 0.433594 0.537109
vt 0.402344 0.537109
vt 0.435547 0.521484
vt 0.466797 0.521484
vt 0.466797 0.537109
vt 0.435547 0.537109
vt 0.345703 0.669922
vt 0.376953 0.669922
vt 0.376953 0.701172
vt 0.345703 0.701172
vt 0.402344 0.705078
vt 0.433594 0.705078
vt 0.433594 0.736328
vt 0.402344 0.736328
vt 0.201172 0.904297
vt 0.201172 0.888672
vt 0.246094 0.888672
vt 0.246094 0.904297
vt 0.406250 0.939453
vt 0.416016 0.939453
vt 0.416016 0.955078
vt 0.406250 0.955078
vt 0.464844 0.720703
vt 0.496094 0.720703
vt 0.496094 0.736328
vt 0.464844 0.736328
vt 0.498047 0.675781
vt 0.507812 0.675781
vt 0.507812 0.691406
vt 0.498047 0.691406
vt 0.464844 0.703125
vt 0.496094 0.703125
vt 0.496094 0.718750
vt 0.464844 0.718750
vt 0.378906 0.669922
vt 0.388672 0.669922
vt 0.388672 0.701172
vt 0.378906 0.701172
vt 0.318359 0.490234
vt 0.328125 0.490234
vt 0.328125 0.521484
vt 0.318359 0.521484
vt 0.498047 0.693359
vt 0.505859 0.693359
vt 0.505859 0.716797
vt 0.498047 0.716797
vt 0.298828 0.478516
vt 0.306641 0.478516
vt 0.306641 0.501953
vt 0.298828 0.501953
vt 0.279297 0.478516
vt 0.287109 0.478516
vt 0.287109 0.501953
vt 0.279297 0.501953
vt 0.527344 0.789062
vt 0.527344 0.796875
vt 0.519531 0.796875
vt 0.519531 0.789062
vt 0.062500 0.617188
vt 0.054688 0.617188
vt 0.054688 0.564453
vt 0.062500 0.564453
vt 0.529297 0.931641
vt 0.529297 0.939453
vt 0.521484 0.939453
vt 0.521484 0.931641
vt 0.289062 0.478516
vt 0.296875 0.478516
vt 0.296875 0.501953
vt 0.289062 0.501953
vt 0.308594 0.478516
vt 0.316406 0.478516
vt 0.316406 0.501953
vt 0.308594 0.501953
vt 0.166016 0.853516
vt 0.158203 0.853516
vt 0.158203 0.841797
vt 0.166016 0.841797
vt 0.529297 0.501953
vt 0.529297 0.509766
vt 0.521484 0.509766
vt 0.521484 0.501953
vt 0.525391 0.861328
vt 0.517578 0.861328
vt 0.517578 0.853516
vt 0.525391 0.853516
vt 0.162109 0.470703
vt 0.162109 0.478516
vt 0.154297 0.478516
vt 0.154297 0.470703
vt 0.158203 0.740234
vt 0.173828 0.740234
vt 0.173828 0.755859
vt 0.158203 0.755859
vt 0.464844 0.685547
vt 0.496094 0.685547
vt 0.496094 0.701172
vt 0.464844 0.701172
vt 0.269531 0.984375
vt 0.285156 0.984375
vt 0.285156 1.000000
vt 0.269531 1.000000
vt 0.464844 0.667969
vt 0.496094 0.667969
vt 0.496094 0.683594
vt 0.464844 0.683594
vt 0.158203 0.855469
vt 0.173828 0.855469
vt 0.173828 0.886719
vt 0.158203 0.886719
vt 0.310547 0.623047
vt 0.326172 0.623047
vt 0.326172 0.654297
vt 0.310547 0.654297
vt 0.039062 0.525391
vt 0.052734 0.525391
vt 0.052734 0.556641
vt 0.039062 0.556641
vt 0.259766 0.927734
vt 0.283203 0.927734
vt 0.283203 0.958984
vt 0.259766 0.958984
vt 0.263672 0.500000
vt 0.277344 0.500000
vt 0.277344 0.531250
vt 0.263672 0.531250
vt 0.445312 0.591797
vt 0.468750 0.591797
vt 0.468750 0.623047
vt 0.445312 0.623047
vt 0.228516 0.500000
vt 0.242188 0.500000
vt 0.242188 0.523438
vt 0.228516 0.523438
vt 0.244141 0.500000
vt 0.257812 0.500000
vt 0.257812 0.523438
vt 0.244141 0.523438
vt 0.039062 0.466797
vt 0.042969 0.466797
vt 0.042969 0.482422
vt 0.039062 0.482422
vt 0.486328 0.962891
vt 0.501953 0.962891
vt 0.501953 0.978516
vt 0.486328 0.978516
vt 0.517578 0.835938
vt 0.521484 0.835938
vt 0.521484 0.851562
vt 0.517578 0.851562
vt 0.335938 0.498047
vt 0.351562 0.498047
vt 0.351562 0.513672
vt 0.335938 0.513672
vt 0.517578 0.818359
vt 0.521484 0.818359
vt 0.521484 0.833984
vt 0.517578 0.833984
vt 0.417969 0.466797
vt 0.421875 0.466797
vt 0.421875 0.482422
vt 0.417969 0.482422
vt 0.433594 0.466797
vt 0.437500 0.466797
vt 0.437500 0.482422
vt 0.433594 0.482422
vt 0.353516 0.498047
vt 0.369141 0.498047
vt 0.369141 0.513672
vt 0.353516 0.513672
vt 0.439453 0.466797
vt 0.443359 0.466797
vt 0.443359 0.482422
vt 0.439453 0.482422
vt 0.371094 0.498047
vt 0.386719 0.498047
vt 0.386719 0.513672
vt 0.371094 0.513672
vt 0.445312 0.466797
vt 0.449219 0.466797
vt 0.449219 0.482422
vt 0.445312 0.482422
vt 0.517578 0.511719
vt 0.521484 0.511719
vt 0.521484 0.527344
vt 0.517578 0.527344
vt 0.433594 0.484375
vt 0.441406 0.484375
vt 0.441406 0.509766
vt 0.433594 0.509766
vt 0.390625 0.582031
vt 0.443359 0.582031
vt 0.443359 0.640625
vt 0.390625 0.640625
vt 0.000000 0.558594
vt 0.052734 0.558594
vt 0.052734 0.617188
vt 0.000000 0.617188
s 0
usemtl m_e0ef3de2-51d3-745f-181c-80482a94a875
f 1/1/1 2/2/1 3/3/1
f 4/4/1 1/1/1 3/3/1
f 3/3/1 5/5/1 4/4/1
f 5/5/1 3/3/1 6/6/1
f 7/7/1 6/6/1 3/3/1
f 8/8/1 7/7/1 3/3/1
f 9/9/1 8/8/1 3/3/1
f 3/3/1 2/2/1 9/9/1
f 10/10/2 11/11/2 12/12/2
f 13/13/3 14/14/3 15/15/3 16/16/3
f 17/17/3 18/18/3 19/19/3
f 20/20/3 21/21/3 22/22/3
f 23/23/3 12/24/3 24/25/3
f 25/26/4 13/27/4 26/28/4 27/29/4
f 28/30/5 29/31/5 30/32/5 31/33/5
f 32/34/6 33/35/6 25/36/6
f 25/36/6 33/35/6 34/37/6
f 13/38/7 34/39/7 25/40/7
f 35/41/7 13/38/7 36/42/7
f 23/43/8 37/44/8 38/45/8
f 23/46/8 39/47/8 40/48/8
f 41/49/9 42/50/9 43/51/9
f 41/49/10 43/52/10 44/53/10
f 45/54/11 46/54/4 47/55/12
f 48/56/10 49/57/10 50/58/10
f 51/59/13 52/60/13 53/61/13
f 54/62/3 55/63/3 56/64/3
f 57/65/14 54/66/14 49/67/14
f 44/68/15 57/68/16 49/69/16
f 58/70/3 55/63/3 54/71/3
f 45/72/11 46/72/11 59/73/11
f 60/74/11 37/75/11 40/76/11
f 14/77/11 61/78/11 35/79/11
f 55/63/3 58/70/3 62/80/3
f 52/81/17 58/82/17 53/83/17
f 62/80/3 63/84/3 55/63/3
f 62/85/4 64/86/4 65/87/4
f 66/88/3 55/63/3 63/84/3
f 63/89/18 67/90/18 68/91/18
f 69/92/3 55/63/3 66/88/3
f 70/93/3 55/63/3 69/92/3
f 55/63/3 70/93/3 56/64/3
f 71/94/15 72/95/15 73/96/15
f 74/97/3 75/98/3 76/99/3 77/100/3
f 78/101/15 75/102/15 74/103/15
f 79/104/4 80/105/4 81/106/4
f 82/107/11 81/108/11 83/109/11 84/110/11
f 80/111/3 85/112/3 86/113/3 87/114/3
f 88/115/1 89/116/1 90/117/1
f 89/116/1 91/118/1 90/117/1
f 92/119/15 93/120/15 71/94/15 73/96/15
f 94/121/2 95/122/2 96/123/2 75/124/2
f 82/125/4 79/104/4 81/106/4
f 89/126/4 85/127/4 79/104/4
f 89/128/15 74/103/15 97/129/15
f 98/130/15 78/101/15 89/128/15
f 99/131/3 100/132/3 101/133/3
f 102/134/1 90/117/1 103/135/1
f 90/117/1 104/136/1 103/135/1
f 105/137/3 106/138/3 107/139/3
f 108/140/1 109/141/1 110/142/1
f 111/143/1 112/144/1 113/145/1 114/146/1
f 115/147/3 116/148/3 117/149/3
f 118/150/3 119/151/3 19/19/3 20/20/3
f 48/56/3 50/58/3 115/147/3
f 26/152/15 120/153/15 18/154/15
f 19/155/11 20/156/11 38/157/11 36/158/11
f 11/159/15 12/160/15 21/161/15
f 120/153/15 26/152/15 16/162/15
f 16/162/15 43/163/15 120/153/15
f 43/163/15 1/164/15 120/153/15
f 121/165/2 122/166/2 12/12/2 23/167/2
f 4/168/15 47/169/15 11/159/15
f 24/170/15 12/160/15 11/159/15
f 47/169/15 24/170/15 11/159/15
f 57/72/11 44/72/4 43/171/19
f 123/172/3 29/173/3 28/174/3 124/175/3
f 6/176/14 7/177/14 30/178/14 125/179/14
f 126/180/3 65/181/3 64/182/3
f 127/183/3 17/17/3 19/19/3 119/151/3
f 8/184/17 9/185/17 128/186/17 31/187/17
f 129/188/3 67/189/3 65/181/3 126/180/3
f 129/188/3 68/190/3 67/189/3
f 9/191/4 2/192/4 42/193/4 128/194/4
f 29/173/3 123/172/3 130/195/3
f 131/196/20 132/197/21 126/180/20 51/198/20
f 133/199/22 134/200/22 135/201/22 136/202/22
f 137/203/3 138/204/3 28/174/3 139/205/3
f 11/206/2 38/207/2 23/208/2 12/209/2
f 138/204/3 124/175/3 28/174/3
f 21/161/15 18/154/15 120/153/15 11/159/15
f 140/210/15 10/211/15 122/212/15 27/213/15
f 141/214/3 137/203/3 139/205/3
f 68/215/3 129/216/3 29/217/3 130/218/3
f 13/27/4 36/219/4 120/220/4 26/28/4
f 121/221/6 39/222/6 32/34/6 25/36/6
f 122/166/2 10/10/2 12/12/2
f 25/223/3 27/224/3 122/225/3 121/226/3
f 120/220/4 140/227/4 26/28/4
f 140/227/4 27/29/4 26/28/4
f 31/33/23 128/228/23 139/205/23 28/30/23
f 11/229/1 10/230/1 140/231/1 120/232/1
f 13/233/11 25/234/11 17/235/11
f 116/148/3 141/214/3 139/205/3 117/149/3
f 17/235/11 25/234/11 19/155/11
f 121/236/11 23/237/11 22/238/11
f 121/236/11 22/238/11 20/156/11
f 23/237/11 38/157/11 22/238/11
f 22/238/11 38/157/11 20/156/11
f 36/158/11 13/233/11 17/235/11
f 36/158/11 17/235/11 19/155/11
f 120/232/1 36/239/1 38/240/1 11/229/1
f 142/241/2 143/242/2 144/243/2 145/244/2
f 2/245/18 1/246/18 43/247/18 42/248/18
f 17/17/3 13/249/3 26/250/3 18/18/3
f 13/13/3 61/251/3 14/14/3
f 16/252/3 26/253/3 13/254/3
f 23/23/3 24/25/3 59/255/3 60/256/3
f 22/22/3 146/257/3 118/150/3 20/20/3
f 20/156/11 19/155/11 25/234/11 121/236/11
f 18/18/3 21/21/3 20/20/3 19/19/3
f 43/258/3 16/16/3 15/15/3 57/259/3
f 60/256/3 40/260/3 23/23/3
f 146/257/3 22/22/3 23/23/3 40/260/3
f 120/153/15 1/164/15 4/168/15 11/159/15
f 24/25/3 47/261/3 46/262/3 59/255/3
f 13/38/7 61/263/7 34/39/7
f 35/41/7 61/263/7 13/38/7
f 23/43/8 40/264/8 37/44/8
f 23/46/8 121/265/8 39/47/8
f 41/49/9 117/149/9 42/50/9
f 44/53/10 49/57/10 48/56/10
f 48/56/10 41/49/10 44/53/10
f 47/266/13 131/196/13 45/267/13
f 131/268/13 51/269/13 45/270/13
f 45/271/13 51/59/13 53/61/13
f 131/196/24 47/266/24 132/197/24
f 117/149/25 139/205/25 128/228/25 42/272/25
f 51/59/3 126/180/3 64/273/3 52/60/3
f 129/188/26 126/180/26 132/197/26 125/274/26
f 29/31/27 129/188/27 125/274/27 30/32/27
f 119/275/11 58/276/11 54/277/11 35/79/11
f 56/278/14 115/279/14 50/280/14 54/66/14
f 50/280/14 49/67/14 54/66/14
f 147/281/15 142/282/15 145/283/15 148/284/15
f 146/285/11 40/76/11 37/75/11
f 37/75/11 60/74/11 59/286/11
f 46/72/15 45/72/4 58/72/4
f 37/75/11 59/286/11 58/276/11
f 59/286/11 46/287/11 58/276/11
f 118/288/11 146/285/11 37/75/11
f 119/275/11 118/288/11 58/276/11
f 118/288/11 37/75/11 58/276/11
f 117/149/3 41/49/3 48/56/3 115/147/3
f 54/277/11 57/289/11 15/290/11
f 15/290/11 14/77/11 35/79/11
f 54/277/11 15/290/11 35/79/11
f 35/79/11 61/78/11 127/291/11
f 127/291/11 119/275/11 35/79/11
f 81/108/11 149/292/11 83/109/11
f 58/82/17 45/293/17 53/83/17
f 63/294/4 62/85/4 65/87/4 67/295/4
f 66/296/18 63/89/18 68/91/18 130/297/18
f 124/298/15 138/299/15 69/300/15
f 69/301/28 138/302/28 137/303/28 70/304/28
f 66/305/15 130/306/15 123/307/15
f 141/308/28 70/304/28 137/303/28
f 81/108/11 80/309/11 150/310/11 149/292/11
f 115/311/2 56/312/2 116/313/2
f 62/314/17 58/82/17 52/81/17 64/315/17
f 151/316/4 147/317/4 148/318/4 152/319/4
f 143/320/11 151/321/11 152/322/11 144/323/11
f 152/324/3 148/325/3 145/326/3 144/72/3
f 143/327/1 142/328/1 147/329/1 151/330/1
f 153/331/2 154/332/2 155/333/2 156/334/2
f 157/335/15 153/336/15 156/337/15 158/338/15
f 159/339/4 157/340/4 158/341/4 160/342/4
f 154/343/11 159/344/11 160/345/11 155/346/11
f 160/347/3 158/348/3 156/349/3 155/350/3
f 154/351/1 153/352/1 157/353/1 159/354/1
f 114/355/28 113/356/28 161/357/28 162/358/28
f 111/359/18 114/360/18 162/361/18 163/362/18
f 112/363/17 111/364/17 163/365/17 164/366/17
f 113/367/14 112/368/14 164/369/14 161/370/14
f 165/371/2 166/372/2 167/373/2 168/374/2
f 169/375/15 165/376/15 168/377/15 170/378/15
f 171/379/29 172/380/29 173/381/29 174/382/29
f 175/383/29 176/384/29 177/385/29 178/386/29
f 179/387/4 169/388/4 170/389/4 180/390/4
f 166/391/11 179/392/11 180/393/11 167/394/11
f 180/395/3 170/396/3 168/397/3 167/398/3
f 166/399/1 165/400/1 169/401/1 179/402/1
f 181/403/2 182/404/2 183/405/2 184/406/2
f 185/407/15 181/408/15 184/409/15 186/410/15
f 187/411/4 185/412/4 186/413/4 188/414/4
f 182/415/11 187/416/11 188/417/11 183/418/11
f 188/419/3 186/420/3 184/421/3 183/422/3
f 182/423/1 181/424/1 185/425/1 187/426/1
f 189/427/2 190/428/2 191/429/2 192/430/2
f 193/431/15 189/432/15 192/433/15 194/434/15
f 195/435/4 193/436/4 194/437/4 196/438/4
f 190/439/11 195/440/11 196/441/11 191/442/11
f 196/443/3 194/444/3 192/445/3 191/446/3
f 190/447/1 189/448/1 193/449/1 195/450/1
f 197/451/2 198/452/2 199/453/2 200/454/2
f 201/455/15 197/456/15 200/457/15 202/458/15
f 203/459/4 201/460/4 202/461/4 204/462/4
f 198/463/11 203/464/11 204/465/11 199/466/11
f 204/467/3 202/468/3 200/469/3 199/470/3
f 198/471/1 197/472/1 201/473/1 203/474/1
f 205/475/2 206/476/2 207/477/2 208/478/2
f 209/479/15 205/480/15 208/481/15 210/482/15
f 211/483/4 209/484/4 210/485/4 212/486/4
f 206/487/11 211/488/11 212/489/11 207/490/11
f 212/491/3 210/492/3 208/493/3 207/494/3
f 206/495/1 205/496/1 209/497/1 211/498/1
f 213/499/2 214/500/2 215/501/2 216/502/2
f 217/503/15 213/504/15 216/505/15 218/506/15
f 219/507/4 217/508/4 218/509/4 220/510/4
f 214/511/11 219/512/11 220/513/11 215/514/11
f 220/515/3 218/516/3 216/517/3 215/518/3
f 214/519/1 213/520/1 217/521/1 219/522/1
f 221/523/28 222/524/28 223/525/28 224/526/28
f 225/527/18 221/528/18 224/529/18 226/530/18
f 227/531/17 225/532/17 226/533/17 228/534/17
f 222/535/14 227/536/14 228/537/14 223/538/14
f 228/539/3 226/540/3 224/541/3 223/542/3
f 222/543/1 221/544/1 225/545/1 227/546/1
f 229/547/28 230/548/28 231/549/28 232/550/28
f 233/551/18 229/552/18 232/553/18 234/554/18
f 235/555/17 233/556/17 234/557/17 236/558/17
f 230/559/14 235/560/14 236/561/14 231/562/14
f 176/563/15 133/564/15 136/565/15 177/566/15
f 134/567/11 175/568/11 178/569/11 135/570/11
f 236/571/3 234/572/3 232/573/3 231/574/3
f 237/575/30 171/576/30 174/577/30 238/578/30
f 239/579/3 240/580/3 241/581/3 242/582/3
f 178/583/31 177/584/31 136/585/31 135/586/31
f 243/587/1 244/588/1 245/589/1 246/590/1
f 134/591/32 133/592/32 176/593/32 175/594/32
f 247/595/2 248/596/2 249/597/2 250/598/2
f 251/599/15 247/600/15 250/601/15 252/602/15
f 253/603/4 251/604/4 252/605/4 254/606/4
f 248/607/11 253/608/11 254/609/11 249/610/11
f 254/611/3 252/612/3 250/613/3 249/614/3
f 248/615/1 247/616/1 251/617/1 253/618/1
f 255/619/2 256/620/2 257/621/2 258/622/2
f 259/623/15 255/624/15 258/625/15 260/626/15
f 261/627/4 259/628/4 260/629/4 262/630/4
f 256/631/11 261/632/11 262/633/11 257/634/11
f 262/635/3 260/636/3 258/637/3 257/638/3
f 256/639/1 255/640/1 259/641/1 261/642/1
f 263/643/33 264/644/33 265/645/33 266/646/33
f 267/647/34 268/648/34 269/649/34 270/650/34
f 270/651/2 265/652/2 264/653/2 267/654/2
f 269/655/35 266/656/35 265/657/35 270/658/35
f 271/659/4 272/660/4 273/661/4 274/662/4
f 267/663/36 264/664/36 263/665/36 268/666/36
f 275/667/2 276/668/2 277/669/2 278/670/2
f 279/671/15 275/672/15 278/673/15 280/674/15
f 281/675/3 282/676/3 283/677/3 284/678/3
f 238/679/22 285/680/22 286/681/22 237/682/22
f 173/683/37 285/684/37 238/685/37 174/686/37
f 172/687/38 286/688/38 285/689/38 173/690/38
f 124/298/15 69/300/15 66/305/15 123/307/15
f 235/691/1 230/692/1 229/693/1 233/694/1
f 287/695/4 279/696/4 280/697/4 288/698/4
f 276/699/11 287/700/11 288/701/11 277/702/11
f 288/703/3 280/704/3 278/705/3 277/706/3
f 276/707/1 275/708/1 279/709/1 287/710/1
f 289/711/2 290/712/2 291/713/2 292/714/2
f 293/715/15 289/716/15 292/717/15 294/718/15
f 295/719/4 293/720/4 294/721/4 296/722/4
f 290/723/11 295/724/11 296/725/11 291/726/11
f 296/727/3 294/728/3 292/729/3 291/730/3
f 290/731/1 289/732/1 293/733/1 295/734/1
f 297/735/2 298/736/2 299/737/2 300/738/2
f 301/739/15 297/740/15 300/741/15 302/742/15
f 303/743/4 301/744/4 302/745/4 304/746/4
f 298/747/11 303/748/11 304/749/11 299/750/11
f 304/751/3 302/752/3 300/753/3 299/754/3
f 298/755/1 297/756/1 301/757/1 303/758/1
f 305/759/15 306/760/15 307/761/15 308/762/15
f 309/763/11 310/764/11 311/765/11 312/766/11
f 307/767/4 306/768/4 311/769/4 310/770/4
f 305/771/2 308/772/2 309/773/2 312/774/2
f 308/775/1 307/776/1 310/777/1 309/778/1
f 312/779/3 311/780/3 306/781/3 305/782/3
f 313/783/28 314/784/28 315/785/28 316/786/28
f 317/787/17 318/788/17 319/789/17 320/790/17
f 315/791/18 314/792/18 319/793/18 318/794/18
f 313/795/14 316/796/14 317/797/14 320/798/14
f 318/799/1 317/800/1 316/801/1 315/802/1
f 313/803/3 320/804/3 319/805/3 314/806/3
f 321/807/15 322/808/15 323/809/15 324/810/15
f 325/811/11 326/812/11 327/813/11 328/814/11
f 323/815/4 322/816/4 327/817/4 326/818/4
f 321/819/2 324/820/2 325/821/2 328/822/2
f 324/823/1 323/824/1 326/825/1 325/826/1
f 328/827/3 327/828/3 322/829/3 321/830/3
f 329/831/2 330/832/2 331/833/2 332/834/2
f 333/835/15 329/836/15 332/837/15 334/838/15
f 335/839/4 333/840/4 334/841/4 336/842/4
f 330/843/11 335/844/11 336/845/11 331/846/11
f 336/847/3 334/848/3 332/849/3 331/850/3
f 330/851/1 329/852/1 333/853/1 335/854/1
f 337/855/2 338/856/2 339/857/2 340/858/2
f 341/859/15 337/860/15 340/861/15 342/862/15
f 343/863/4 341/864/4 342/865/4 344/866/4
f 338/867/11 343/868/11 344/869/11 339/870/11
f 344/871/3 342/872/3 340/873/3 339/874/3
f 338/875/1 337/876/1 341/877/1 343/878/1
f 345/879/2 346/880/2 347/881/2 348/882/2
f 349/883/15 345/884/15 348/885/15 350/886/15
f 351/887/4 349/888/4 350/889/4 352/890/4
f 346/891/11 351/892/11 352/893/11 347/894/11
f 352/895/3 350/896/3 348/897/3 347/898/3
f 346/899/1 345/900/1 349/901/1 351/902/1
f 353/903/2 354/904/2 355/905/2 356/906/2
f 357/907/15 353/908/15 356/909/15 358/910/15
f 359/911/4 357/912/4 358/913/4 360/914/4
f 354/915/11 359/916/11 360/917/11 355/918/11
f 360/919/3 358/920/3 356/921/3 355/922/3
f 354/923/1 353/924/1 357/925/1 359/926/1
f 246/927/28 245/928/28 240/929/28 239/930/28
f 243/931/18 246/932/18 239/933/18 242/934/18
f 244/935/17 243/936/17 242/937/17 241/938/17
f 245/939/14 244/940/14 241/941/14 240/942/14
f 361/943/2 362/944/2 363/945/2 364/946/2
f 365/947/15 361/948/15 364/949/15 366/950/15
f 7/951/11 8/952/11 31/953/11 30/954/11
f 71/955/14 367/956/14 368/957/14 72/958/14
f 369/959/4 365/960/4 366/961/4 370/962/4
f 362/963/11 369/964/11 370/965/11 363/966/11
f 370/967/3 366/968/3 364/969/3 363/970/3
f 362/971/1 361/972/1 365/973/1 369/974/1
f 371/975/2 372/976/2 373/977/2 374/978/2
f 375/979/15 371/980/15 374/981/15 376/982/15
f 377/983/4 375/984/4 376/985/4 378/986/4
f 372/987/11 377/988/11 378/989/11 373/990/11
f 378/991/3 376/992/3 374/993/3 373/994/3
f 372/995/1 371/996/1 375/997/1 377/998/1
f 379/999/2 380/1000/2 381/1001/2 382/1002/2
f 383/1003/15 379/1004/15 382/1005/15 384/1006/15
f 385/1007/4 383/1008/4 384/1009/4 386/1010/4
f 380/1011/11 385/1012/11 386/1013/11 381/1014/11
f 386/1015/3 384/1016/3 382/1017/3 381/1018/3
f 380/1019/1 379/1020/1 383/1021/1 385/1022/1
f 387/1023/2 388/1024/2 389/1025/2 390/1026/2
f 391/1027/15 387/1028/15 390/1029/15 392/1030/15
f 393/1031/4 391/1032/4 392/1033/4 394/1034/4
f 388/1035/11 393/1036/11 394/1037/11 389/1038/11
f 394/1039/3 392/1040/3 390/1041/3 389/1042/3
f 388/1043/1 387/1044/1 391/1045/1 393/1046/1
f 395/1047/15 396/1048/15 397/1049/15 398/1050/15
f 399/1051/4 395/1052/4 398/1053/4 400/1054/4
f 401/1055/11 399/1056/11 400/1057/11 402/1058/11
f 396/1059/2 401/1060/2 402/1061/2 397/1062/2
f 402/1063/3 400/1064/3 398/1065/3 397/1066/3
f 396/1067/1 395/1068/1 399/1069/1 401/1070/1
f 403/1071/15 404/1072/15 405/1073/15 406/1074/15
f 407/1075/4 403/1076/4 406/1077/4 408/1078/4
f 409/1079/11 407/1080/11 408/1081/11 410/1082/11
f 404/1083/2 409/1084/2 410/1085/2 405/1086/2
f 410/1087/3 408/1088/3 406/1089/3 405/1090/3
f 404/1091/1 403/1092/1 407/1093/1 409/1094/1
f 411/1095/2 412/1096/2 413/1097/2 414/1098/2
f 415/1099/15 411/1100/15 414/1101/15 416/1102/15
f 417/1103/4 415/1104/4 416/1105/4 418/1106/4
f 412/1107/11 417/1108/11 418/1109/11 413/1110/11
f 418/1111/3 416/1112/3 414/1113/3 413/1114/3
f 412/1115/1 411/1116/1 415/1117/1 417/1118/1
f 419/1119/11 420/1120/11 421/1121/11 422/1122/11
f 423/1123/2 419/1124/2 422/1125/2 424/1126/2
f 425/1127/15 423/1128/15 424/1129/15 426/1130/15
f 420/1131/4 425/1132/4 426/1133/4 421/1134/4
f 426/1135/3 424/1136/3 422/1137/3 421/1138/3
f 420/1139/1 419/1140/1 423/1141/1 425/1142/1
f 427/1143/11 428/1144/11 429/1145/11 430/1146/11
f 431/1147/2 427/1148/2 430/1149/2 432/1150/2
f 433/1151/15 431/1152/15 432/1153/15 434/1154/15
f 428/1155/4 433/1156/4 434/1157/4 429/1158/4
f 434/1159/3 432/1160/3 430/1161/3 429/1162/3
f 428/1163/1 427/1164/1 431/1165/1 433/1166/1
f 435/1167/14 436/1168/14 437/1169/14 438/1170/14
f 439/1171/28 435/1172/28 438/1173/28 440/1174/28
f 441/1175/18 439/1176/18 440/1177/18 442/1178/18
f 436/1179/17 441/1180/17 442/1181/17 437/1182/17
f 443/1183/2 444/1184/2 445/1185/2 446/1186/2
f 447/1187/15 443/1188/15 446/1189/15 448/1190/15
f 449/1191/1 450/1192/1 451/1193/1 452/1194/1
f 441/1195/1 436/1196/1 435/1197/1 439/1198/1
f 453/1199/4 447/1200/4 448/1201/4 454/1202/4
f 444/1203/11 453/1204/11 454/1205/11 445/1206/11
f 454/1207/3 448/1208/3 446/1209/3 445/1210/3
f 444/1211/1 443/1212/1 447/1213/1 453/1214/1
f 455/1215/2 456/1216/2 457/1217/2 458/1218/2
f 459/1219/15 455/1220/15 458/1221/15 460/1222/15
f 461/1223/4 459/1224/4 460/1225/4 462/1226/4
f 456/1227/11 461/1228/11 462/1229/11 457/1230/11
f 462/1231/3 460/1232/3 458/1233/3 457/1234/3
f 456/1235/1 455/1236/1 459/1237/1 461/1238/1
f 451/1239/28 450/1240/28 281/1241/28 284/1242/28
f 452/1243/18 451/1244/18 284/1245/18 283/1246/18
f 449/1247/17 452/1248/17 283/1249/17 282/1250/17
f 450/1251/14 449/1252/14 282/1253/14 281/1254/14
f 463/1255/2 464/1256/2 465/1257/2 466/1258/2
f 467/1259/15 463/1260/15 466/1261/15 468/1262/15
f 442/1263/3 440/1264/3 438/1265/3 437/1266/3
f 70/1267/2 141/1268/2 116/313/2 56/312/2
f 469/1269/4 467/1270/4 468/1271/4 470/1272/4
f 464/1273/11 469/1274/11 470/1275/11 465/1276/11
f 470/1277/3 468/1278/3 466/1279/3 465/1280/3
f 464/1281/1 463/1282/1 467/1283/1 469/1284/1
f 471/1285/2 472/1286/2 473/1287/2 474/1288/2
f 475/1289/15 471/1290/15 474/1291/15 476/1292/15
f 477/1293/4 475/1294/4 476/1295/4 478/1296/4
f 472/1297/11 477/1298/11 478/1299/11 473/1300/11
f 478/1301/3 476/1302/3 474/1303/3 473/1304/3
f 472/1305/1 471/1306/1 475/1307/1 477/1308/1
f 479/1309/22 480/1310/22 481/1311/22 482/1312/22
f 483/1313/29 484/1314/29 485/1315/29 486/1316/29
f 486/1317/31 485/1318/31 482/1319/31 481/1320/31
f 93/1321/14 487/1322/14 367/956/14 71/955/14
f 480/1323/32 479/1324/32 484/1325/32 483/1326/32
f 488/1327/2 489/1328/2 490/1329/2 491/1330/2
f 367/1331/11 492/1332/11 493/1333/11 368/1334/11
f 73/1335/3 368/1336/3 493/1337/3 494/1338/3
f 495/1339/4 492/1340/4 496/1341/4
f 74/97/3 77/100/3 86/113/3
f 487/1342/1 92/1343/1 495/1344/1 496/1345/1
f 497/1346/2 498/1347/2 499/1348/2 500/1349/2
f 73/1335/3 72/1350/3 368/1336/3
f 487/1342/1 93/1351/1 92/1343/1
f 501/1352/15 497/1353/15 500/1354/15 502/1355/15
f 503/1356/4 501/1357/4 502/1358/4 504/1359/4
f 498/1360/11 503/1361/11 504/1362/11 499/1363/11
f 504/1364/3 502/1365/3 500/1366/3 499/1367/3
f 498/1368/1 497/1369/1 501/1370/1 503/1371/1
f 505/1372/15 506/1373/15 507/1374/15 508/1375/15
f 487/1376/11 496/1377/11 492/1332/11 367/1331/11
f 509/1378/2 510/1379/2 511/1380/2 512/1381/2
f 484/1382/15 479/1383/15 482/1384/15 485/1385/15
f 513/1386/2 514/1387/2 515/1388/2 516/1389/2
f 517/1390/15 509/1391/15 512/1392/15 518/1393/15
f 519/1394/4 517/1395/4 518/1396/4 520/1397/4
f 510/1398/11 519/1399/11 520/1400/11 511/1401/11
f 520/1402/3 518/1403/3 512/1404/3 511/1405/3
f 510/1406/1 509/1407/1 517/1408/1 519/1409/1
f 521/1410/2 522/1411/2 523/1412/2 524/1413/2
f 525/1414/15 521/1415/15 524/1416/15 526/1417/15
f 527/1418/4 525/1419/4 526/1420/4 528/1421/4
f 522/1422/11 527/1423/11 528/1424/11 523/1425/11
f 528/1426/3 526/1427/3 524/1428/3 523/1429/3
f 522/1430/1 521/1431/1 525/1432/1 527/1433/1
f 104/1434/14 529/1435/14 530/1436/14 102/1437/14
f 99/131/3 77/100/3 76/99/3 100/132/3
f 78/101/15 94/1438/15 75/102/15
f 79/104/4 85/127/4 80/105/4
f 82/107/11 84/110/11 91/1439/11
f 80/111/3 87/114/3 150/1440/3
f 85/112/3 97/1441/3 74/97/3 86/113/3
f 88/115/1 98/1442/1 89/116/1
f 89/116/1 82/1443/1 91/118/1
f 531/1444/11 149/292/11 150/310/11 101/1445/11
f 13/249/3 17/17/3 127/183/3 61/1446/3
f 529/1447/11 84/110/11 83/109/11 532/1448/11
f 533/1449/2 530/1450/2 534/1451/2 95/122/2
f 88/1452/2 102/1453/2 530/1450/2 533/1449/2
f 98/1454/2 88/1452/2 533/1449/2 94/121/2
f 82/125/4 89/126/4 79/104/4
f 89/126/4 97/1455/4 85/127/4
f 89/128/15 78/101/15 74/103/15
f 98/130/15 94/1438/15 78/101/15
f 22/22/3 21/21/3 12/24/3 23/23/3
f 495/1339/4 494/1456/4 493/1457/4 492/1340/4
f 104/1458/11 91/1439/11 84/110/11 529/1447/11
f 531/1459/14 101/1460/14 100/1461/14 535/1462/14
f 532/1448/11 83/109/11 149/292/11 531/1444/11
f 532/1463/14 531/1459/14 535/1462/14 534/1464/14
f 150/1440/3 87/114/3 99/131/3 101/133/3
f 87/114/3 86/113/3 77/100/3 99/131/3
f 96/123/2 535/1465/2 100/1466/2 76/1467/2
f 95/122/2 534/1451/2 535/1465/2 96/123/2
f 102/134/1 88/115/1 90/117/1
f 90/117/1 91/118/1 104/136/1
f 529/1435/14 532/1463/14 534/1464/14 530/1436/14
f 536/1468/15 537/1469/15 538/1470/15 539/1471/15
f 108/1472/4 536/1473/4 539/1474/4 105/1475/4
f 105/1476/3 539/1477/3 538/1478/3 540/1479/3
f 541/1480/1 537/1481/1 536/1482/1 108/1483/1
f 542/1484/2 543/1485/2 544/1486/2 545/1487/2
f 543/1488/11 109/1489/11 107/1490/11 544/1491/11
f 107/139/3 106/138/3 545/1492/3 544/1493/3
f 543/1494/1 542/1495/1 110/142/1 109/141/1
f 546/1496/2 547/1497/2 548/1498/2 549/1499/2
f 550/1500/15 546/1501/15 549/1502/15 551/1503/15
f 552/1504/3 551/1505/3 549/1506/3 548/1507/3
f 547/1508/1 546/1509/1 550/1510/1 553/1511/1
f 107/1512/17 109/1513/17 108/1514/17 105/1515/17
f 554/1516/2 555/1517/2 556/1518/2 557/1519/2
f 558/1520/15 554/1521/15 557/1522/15 559/1523/15
f 560/1524/4 558/1525/4 559/1526/4 561/1527/4
f 555/1528/11 560/1529/11 561/1530/11 556/1531/11
f 561/1532/3 559/1533/3 557/1534/3 556/1535/3
f 555/1536/1 554/1537/1 558/1538/1 560/1539/1
f 272/1540/35 488/1541/35 491/1542/35 273/1543/35
f 489/1544/36 271/1545/36 274/1546/36 490/1547/36
f 562/1548/4 563/1549/4 564/1550/4 565/1551/4
f 274/1552/34 273/1553/34 491/1554/34 490/1555/34
f 161/1556/3 164/1557/3 163/1558/3 162/1559/3
f 489/1560/33 488/1561/33 272/1562/33 271/1563/33
f 563/1564/35 513/1565/35 516/1566/35 564/1567/35
f 514/1568/36 562/1569/36 565/1570/36 515/1571/36
f 171/1572/39 237/1573/39 286/1574/39 172/1575/39
f 565/1576/34 564/1577/34 516/1578/34 515/1579/34
f 269/1580/4 268/1581/4 263/1582/4 266/1583/4
f 514/1584/33 513/1585/33 563/1586/33 562/1587/33
f 566/1588/2 567/1589/2 568/1590/2 569/1591/2
f 570/1592/15 566/1593/15 569/1594/15 571/1595/15
f 572/1596/4 570/1597/4 571/1598/4 573/1599/4
f 567/1600/11 572/1601/11 573/1602/11 568/1603/11
f 573/1604/3 571/1605/3 569/1606/3 568/1607/3
f 567/1608/1 566/1609/1 570/1610/1 572/1611/1
f 574/1612/2 575/1613/2 576/1614/2 577/1615/2
f 578/1616/15 574/1617/15 577/1618/15 579/1619/15
f 580/1620/4 578/1621/4 579/1622/4 581/1623/4
f 575/1624/11 580/1625/11 581/1626/11 576/1627/11
f 581/1628/3 579/1629/3 577/1630/3 576/1631/3
f 575/1632/1 574/1633/1 578/1634/1 580/1635/1
f 582/1636/2 583/1637/2 584/1638/2 585/1639/2
f 586/1640/15 582/1641/15 585/1642/15 587/1643/15
f 588/1644/4 586/1645/4 587/1646/4 589/1647/4
f 583/1648/11 588/1649/11 589/1650/11 584/1651/11
f 589/1652/3 587/1653/3 585/1654/3 584/1655/3
f 583/1656/1 582/1657/1 586/1658/1 588/1659/1
f 590/1660/2 591/1661/2 592/1662/2 593/1663/2
f 594/1664/15 590/1665/15 593/1666/15 595/1667/15
f 596/1668/4 594/1669/4 595/1670/4 597/1671/4
f 591/1672/11 596/1673/11 597/1674/11 592/1675/11
f 597/1676/3 595/1677/3 593/1678/3 592/1679/3
f 591/1680/1 590/1681/1 594/1682/1 596/1683/1
f 480/1684/11 483/1685/11 486/1686/11 481/1687/11
f 4/1688/28 5/1689/28 132/1690/28 47/1691/28
f 96/123/2 76/1467/2 75/124/2
f 533/1449/2 95/122/2 94/121/2
f 5/1692/2 6/1693/2 125/1694/2 132/1695/2
