# Blender 4.2.2 LTS
# www.blender.org
mtllib centrifuge.mtl
o centrifuge_base
v 0.097272 0.375000 1.821383
v 2.000000 0.000000 2.000000
v 2.000000 -0.000000 -1.000000
v 2.000000 -1.000000 2.000000
v 2.000000 -1.000000 -1.000000
v -1.000000 0.000000 2.000000
v -1.000000 -0.000000 -1.000000
v -1.000000 -1.000000 2.000000
v -1.000000 -1.000000 -1.000000
v 2.000000 2.500000 2.000000
v 2.000000 2.500000 -1.000000
v 2.000000 2.000000 2.000000
v 2.000000 2.000000 -1.000000
v -1.000000 2.500000 2.000000
v -1.000000 2.500000 -1.000000
v -1.000000 2.000000 2.000000
v -1.000000 2.000000 -1.000000
v 1.000000 2.875000 1.000000
v 1.000000 2.875000 -0.000000
v 1.000000 0.000000 1.000000
v 1.000000 -0.000000 -0.000000
v 0.000000 2.875000 1.000000
v 0.000000 2.875000 -0.000000
v 0.000000 0.000000 1.000000
v 0.000000 -0.000000 -0.000000
v 1.000000 1.875000 -0.125000
v 1.000000 1.875000 -1.125000
v 1.000000 0.125000 -0.125000
v 1.000000 0.125000 -1.125000
v 0.000000 1.875000 -0.125000
v 0.000000 1.875000 -1.125000
v 0.000000 0.125000 -0.125000
v 0.000000 0.125000 -1.125000
v 1.000000 1.875000 2.125000
v 1.000000 1.875000 1.125000
v 1.000000 0.125000 2.125000
v 1.000000 0.125000 1.125000
v 0.000000 1.875000 2.125000
v 0.000000 1.875000 1.125000
v 0.000000 0.125000 2.125000
v 0.000000 0.125000 1.125000
v 2.125000 1.875000 1.000000
v 2.125000 1.875000 -0.000000
v 2.125000 0.125000 1.000000
v 2.125000 0.125000 -0.000000
v 1.125000 1.875000 1.000000
v 1.125000 1.875000 -0.000000
v 1.125000 0.125000 1.000000
v 1.125000 0.125000 -0.000000
v -0.125000 1.875000 1.000000
v -0.125000 1.875000 -0.000000
v -0.125000 0.125000 1.000000
v -0.125000 0.125000 -0.000000
v -1.125000 1.875000 1.000000
v -1.125000 1.875000 -0.000000
v -1.125000 0.125000 1.000000
v -1.125000 0.125000 -0.000000
v -0.875000 1.500000 0.088388
v 0.097272 1.500000 -0.883884
v -0.875000 1.375000 0.088388
v 0.097272 1.375000 -0.883884
v -0.963388 1.500000 -0.000000
v 0.008883 1.500000 -0.972272
v -0.963388 1.375000 -0.000000
v 0.008883 1.375000 -0.972272
v -0.875000 0.500000 0.088388
v 0.097272 0.500000 -0.883884
v -0.875000 0.375000 0.088388
v 0.097272 0.375000 -0.883884
v -0.963388 0.500000 -0.000000
v 0.008883 0.500000 -0.972272
v -0.963388 0.375000 -0.000000
v 0.008883 0.375000 -0.972272
v -0.875000 1.000000 0.088388
v 0.097272 1.000000 -0.883884
v -0.875000 0.875000 0.088388
v 0.097272 0.875000 -0.883884
v -0.963388 1.000000 -0.000000
v 0.008883 1.000000 -0.972272
v -0.963388 0.875000 -0.000000
v 0.008883 0.875000 -0.972272
v -0.963388 1.500000 0.937500
v 0.008883 1.500000 1.909772
v -0.963388 1.375000 0.937500
v 0.008883 1.375000 1.909772
v -0.875000 1.500000 0.849111
v 0.097272 1.500000 1.821383
v -0.875000 1.375000 0.849111
v 0.097272 1.375000 1.821383
v -0.963388 0.500000 0.937500
v 0.008883 0.500000 1.909772
v -0.963388 0.375000 0.937500
v 0.008883 0.375000 1.909772
v -0.875000 0.500000 0.849112
v 0.097272 0.500000 1.821383
v -0.875000 0.375000 0.849112
v -0.963388 1.000000 0.937500
v 0.008883 1.000000 1.909772
v -0.963388 0.875000 0.937500
v 0.008883 0.875000 1.909772
v -0.875000 1.000000 0.849111
v 0.097272 1.000000 1.821383
v -0.875000 0.875000 0.849111
v 0.097272 0.875000 1.821383
v 0.849112 1.500000 -0.875000
v 1.821383 1.500000 0.097272
v 0.849112 1.375000 -0.875000
v 1.821383 1.375000 0.097272
v 0.937500 1.500000 -0.963389
v 1.909772 1.500000 0.008883
v 0.937500 1.375000 -0.963389
v 1.909772 1.375000 0.008883
v 0.849112 0.500000 -0.875000
v 1.821383 0.500000 0.097272
v 0.849112 0.375000 -0.875000
v 1.821383 0.375000 0.097272
v 0.937500 0.500000 -0.963388
v 1.909772 0.500000 0.008883
v 0.937500 0.375000 -0.963388
v 1.909772 0.375000 0.008883
v 0.849112 1.000000 -0.875000
v 1.821383 1.000000 0.097272
v 0.849112 0.875000 -0.875000
v 1.821383 0.875000 0.097272
v 0.937500 1.000000 -0.963388
v 1.909772 1.000000 0.008883
v 0.937500 0.875000 -0.963388
v 1.909772 0.875000 0.008883
v 0.937500 1.500000 1.900888
v 1.909772 1.500000 0.928616
v 0.937500 1.375000 1.900888
v 1.909772 1.375000 0.928616
v 0.849112 1.500000 1.812500
v 1.821383 1.500000 0.840228
v 0.849112 1.375000 1.812500
v 1.821383 1.375000 0.840228
v 0.937500 0.500000 1.900888
v 1.909772 0.500000 0.928616
v 0.937500 0.375000 1.900888
v 1.909772 0.375000 0.928616
v 0.849112 0.500000 1.812500
v 1.821383 0.500000 0.840228
v 0.849112 0.375000 1.812500
v 1.821383 0.375000 0.840228
v 0.937500 1.000000 1.900888
v 1.909772 1.000000 0.928616
v 0.937500 0.875000 1.900888
v 1.909772 0.875000 0.928616
v 0.849112 1.000000 1.812500
v 1.821383 1.000000 0.840228
v 0.849112 0.875000 1.812500
v 1.821383 0.875000 0.840228
v 1.312500 0.812500 0.687500
v 1.312500 0.812500 0.312500
v 1.312500 0.437500 0.687500
v 1.312500 0.437500 0.312500
v -0.375000 0.812500 0.687500
v -0.375000 0.812500 0.312500
v -0.375000 0.437500 0.687500
v -0.375000 0.437500 0.312500
v 1.312500 1.562500 0.687500
v 1.312500 1.562500 0.312500
v 1.312500 1.187500 0.687500
v 1.312500 1.187500 0.312500
v -0.375000 1.562500 0.687500
v -0.375000 1.562500 0.312500
v -0.375000 1.187500 0.687500
v -0.375000 1.187500 0.312500
v 0.687500 0.812500 -0.375000
v 0.312500 0.812500 -0.375000
v 0.687500 0.437500 -0.375000
v 0.312500 0.437500 -0.375000
v 0.687500 0.812500 1.375000
v 0.312500 0.812500 1.375000
v 0.687500 0.437500 1.375000
v 0.312500 0.437500 1.375000
v 0.687500 1.562500 -0.375000
v 0.312500 1.562500 -0.375000
v 0.687500 1.187500 -0.375000
v 0.312500 1.187500 -0.375000
v 0.687500 1.562500 1.375000
v 0.312500 1.562500 1.375000
v 0.687500 1.187500 1.375000
v 0.312500 1.187500 1.375000
v 2.062500 -0.250000 0.750000
v 2.062500 -0.250000 0.250000
v 2.062500 -0.750000 0.750000
v 2.062500 -0.750000 0.250000
v 1.937500 -0.250000 0.750000
v 1.937500 -0.250000 0.250000
v 1.937500 -0.750000 0.750000
v 1.937500 -0.750000 0.250000
v -0.937500 -0.250000 -0.250000
v -0.937500 -0.250000 -0.750000
v -0.937500 -0.750000 -0.250000
v -0.937500 -0.750000 -0.750000
v -1.062500 -0.250000 -0.250000
v -1.062500 -0.250000 -0.750000
v -1.062500 -0.750000 -0.250000
v -1.062500 -0.750000 -0.750000
v -0.937500 -0.250000 1.750000
v -0.937500 -0.250000 1.250000
v -0.937500 -0.750000 1.750000
v -0.937500 -0.750000 1.250000
v -1.062500 -0.250000 1.750000
v -1.062500 -0.250000 1.250000
v -1.062500 -0.750000 1.750000
v -1.062500 -0.750000 1.250000
v 0.750000 3.000000 0.750000
v 0.750000 3.000000 0.250000
v 0.750000 2.875000 0.750000
v 0.750000 2.875000 0.250000
v 0.250000 3.000000 0.750000
v 0.250000 3.000000 0.250000
v 0.250000 2.875000 0.750000
v 0.250000 2.875000 0.250000
v 2.062500 2.500000 2.062500
v 2.062500 2.500000 1.937500
v 2.062500 -1.000000 2.062500
v 2.062500 -1.000000 1.937500
v 1.937500 2.500000 2.062500
v 1.937500 2.500000 1.937500
v 1.937500 -1.000000 2.062500
v 1.937500 -1.000000 1.937500
v -0.937500 2.500000 2.062500
v -0.937500 2.500000 1.937500
v -0.937500 -1.000000 2.062500
v -0.937500 -1.000000 1.937500
v -1.062500 2.500000 2.062500
v -1.062500 2.500000 1.937500
v -1.062500 -1.000000 2.062500
v -1.062500 -1.000000 1.937500
v -0.937500 2.500000 -0.937500
v -0.937500 2.500000 -1.062500
v -0.937500 -1.000000 -0.937500
v -0.937500 -1.000000 -1.062500
v -1.062500 2.500000 -0.937500
v -1.062500 2.500000 -1.062500
v -1.062500 -1.000000 -0.937500
v -1.062500 -1.000000 -1.062500
v 2.062500 2.500000 -0.937500
v 2.062500 2.500000 -1.062500
v 2.062500 -1.000000 -0.937500
v 2.062500 -1.000000 -1.062500
v 1.937500 2.500000 -0.937500
v 1.937500 2.500000 -1.062500
v 1.937500 -1.000000 -0.937500
v 1.937500 -1.000000 -1.062500
vn 1.0000 -0.0000 -0.0000
vn -1.0000 -0.0000 -0.0000
vn -0.0000 1.0000 -0.0000
vn -0.0000 -1.0000 -0.0000
vn -0.0000 -0.0000 1.0000
vn -0.0000 -0.0000 -1.0000
vn 0.7071 -0.0000 0.7071
vn -0.7071 -0.0000 -0.7071
vn -0.7071 -0.0000 0.7071
vn 0.7071 -0.0000 -0.7071
vt 0.750000 0.750000
vt 0.750000 0.875000
vt 0.375000 0.875000
vt 0.375000 0.750000
vt 0.750000 0.625000
vt 0.375000 0.625000
vt 0.000000 1.000000
vt 0.000000 0.625000
vt 0.375000 1.000000
vt 0.000000 0.250000
vt 0.375000 0.250000
vt 0.750000 0.500000
vt 0.375000 0.500000
vt 0.750000 1.000000
vt 0.718750 0.539062
vt 0.718750 0.585938
vt 0.406250 0.585938
vt 0.406250 0.539062
vt 0.062500 0.820312
vt 0.062500 1.000000
vt 0.000000 0.820312
vt 0.062500 0.757812
vt 0.125000 0.757812
vt 0.125000 0.820312
vt 0.187500 0.820312
vt 0.187500 0.757812
vt 0.500000 0.562500
vt 0.500000 1.000000
vt 0.250000 1.000000
vt 0.250000 0.562500
vt 0.500000 0.125000
vt 0.250000 0.125000
vt 0.500000 0.750000
vt 0.500000 0.500000
vt 0.000000 0.562500
vt 0.000000 0.125000
vt 0.343750 0.968750
vt 0.343750 1.000000
vt 0.000000 0.968750
vt 0.343750 0.937500
vt 0.000000 0.937500
vt 0.000000 0.593750
vt 0.031250 0.593750
vt 0.031250 0.937500
vt 0.062500 0.937500
vt 0.062500 0.593750
vt 0.218750 0.750000
vt 0.218750 0.781250
vt 0.187500 0.781250
vt 0.187500 0.750000
vt 0.218750 0.812500
vt 0.187500 0.812500
vt 0.406250 0.906250
vt 0.406250 0.937500
vt 0.062500 0.906250
vt 0.406250 0.875000
vt 0.062500 0.875000
vt 0.062500 0.531250
vt 0.093750 0.531250
vt 0.093750 0.875000
vt 0.125000 0.875000
vt 0.125000 0.531250
vt 0.250000 0.750000
vt 0.250000 0.781250
vt 0.250000 0.812500
vt 0.468750 0.843750
vt 0.468750 0.875000
vt 0.125000 0.843750
vt 0.468750 0.812500
vt 0.125000 0.812500
vt 0.125000 0.468750
vt 0.156250 0.468750
vt 0.156250 0.812500
vt 0.187500 0.468750
vt 0.281250 0.781250
vt 0.281250 0.812500
vt 0.218750 0.718750
vt 0.187500 0.718750
vt 0.250000 0.968750
vt 0.031250 0.750000
vt 0.031250 1.000000
vt 0.000000 0.750000
vt 0.031250 0.968750
vt 0.320312 0.914062
vt 0.320312 0.937500
vt 0.296875 0.937500
vt 0.296875 0.914062
vt 0.320312 0.890625
vt 0.296875 0.890625
vt 0.187500 0.765625
vt 0.187500 0.742188
vt 0.292969 0.742188
vt 0.292969 0.765625
vt 0.062500 0.734375
vt 0.167969 0.757812
vt 0.167969 0.734375
vt 0.292969 0.789062
vt 0.187500 0.789062
vt 0.292969 0.812500
vt 0.320312 0.867188
vt 0.296875 0.867188
vt 0.320312 0.843750
vt 0.296875 0.843750
vt 0.273438 0.742188
vt 0.273438 0.718750
vt 0.378906 0.718750
vt 0.378906 0.742188
vt 0.167969 0.695312
vt 0.167969 0.718750
vt 0.273438 0.695312
vt 0.167969 0.710938
vt 0.062500 0.710938
vt 0.167969 0.742188
vt 0.320312 0.820312
vt 0.296875 0.820312
vt 0.320312 0.695312
vt 0.320312 0.718750
vt 0.296875 0.718750
vt 0.296875 0.695312
vt 0.187500 0.953125
vt 0.187500 0.929688
vt 0.296875 0.929688
vt 0.296875 0.953125
vt 0.187500 0.906250
vt 0.296875 0.906250
vt 0.296875 0.976562
vt 0.187500 0.976562
vt 0.296875 1.000000
vt 0.187500 1.000000
vt 0.187500 0.671875
vt 0.187500 0.695312
vt 0.164062 0.695312
vt 0.164062 0.671875
vt 0.210938 0.671875
vt 0.210938 0.695312
vt 0.187500 0.859375
vt 0.187500 0.835938
vt 0.296875 0.835938
vt 0.296875 0.859375
vt 0.296875 0.812500
vt 0.296875 0.882812
vt 0.187500 0.882812
vt 0.328125 0.968750
vt 0.328125 1.000000
vt 0.296875 0.968750
vt 0.328125 0.937500
vt 0.171875 0.812500
vt 0.171875 0.781250
vt 0.179688 0.781250
vt 0.179688 0.812500
vt 0.273438 0.761719
vt 0.273438 0.769531
vt 0.242188 0.769531
vt 0.242188 0.761719
vt 0.273438 0.687500
vt 0.242188 0.695312
vt 0.242188 0.687500
vt 0.292969 0.781250
vt 0.324219 0.781250
vt 0.324219 0.812500
vt 0.292969 0.750000
vt 0.324219 0.750000
vt 0.210938 0.687500
vt 0.289062 0.785156
vt 0.289062 0.792969
vt 0.257812 0.792969
vt 0.257812 0.785156
vt 0.093750 0.492188
vt 0.093750 0.710938
vt 0.085938 0.710938
vt 0.085938 0.492188
vt 0.109375 0.492188
vt 0.109375 0.710938
vt 0.101562 0.710938
vt 0.101562 0.492188
vt 0.167969 0.750000
vt 0.175781 0.742188
vt 0.175781 0.750000
vt 0.183594 0.750000
vt 0.183594 0.742188
vt 0.078125 0.710938
vt 0.078125 0.492188
vt 0.125000 0.492188
vt 0.125000 0.710938
vt 0.117188 0.710938
vt 0.117188 0.492188
vt 0.140625 0.492188
vt 0.140625 0.710938
vt 0.132812 0.710938
vt 0.132812 0.492188
vt 0.226562 0.687500
vt 0.226562 0.679688
vt 0.234375 0.679688
vt 0.234375 0.687500
vt 0.242188 0.679688
vt 0.289062 0.500000
vt 0.289062 0.718750
vt 0.281250 0.718750
vt 0.281250 0.500000
vt 0.070312 0.710938
vt 0.070312 0.492188
vt 0.175781 0.757812
vt 0.183594 0.757812
vt 0.062500 0.492188
vt 0.273438 0.500000
vt 0.156250 0.492188
vt 0.156250 0.710938
vt 0.148438 0.710938
vt 0.148438 0.492188
vt 0.296875 0.500000
vt 0.250000 0.679688
vt 0.250000 0.687500
vt 0.257812 0.687500
vt 0.257812 0.679688
vt 0.164062 0.492188
vt 0.164062 0.710938
s 0
usemtl m_c325d954-4989-09d5-9a8e-95ef56167798
f 5/1/1 3/2/1 2/3/1 4/4/1
f 8/5/2 6/1/2 7/4/2 9/6/2
f 2/7/3 3/8/3 7/6/3 6/9/3
f 5/10/4 4/8/4 8/6/4 9/11/4
f 4/12/5 2/5/5 6/6/5 8/13/5
f 9/2/6 7/14/6 3/9/6 5/3/6
f 13/15/1 11/16/1 10/17/1 12/18/1
f 16/15/2 14/16/2 15/17/2 17/18/2
f 10/6/3 11/9/3 15/7/3 14/8/3
f 13/6/4 12/9/4 16/7/4 17/8/4
f 12/15/5 10/16/5 14/17/5 16/18/5
f 17/15/6 15/16/6 11/17/6 13/18/6
usemtl m_d336763d-a314-c4d5-0008-edbb76633e81
f 21/19/1 19/20/1 18/7/1 20/21/1
f 24/19/2 22/20/2 23/7/2 25/21/2
f 18/19/3 19/22/3 23/23/3 22/24/3
f 21/23/4 20/24/4 24/25/4 25/26/4
f 20/19/5 18/20/5 22/7/5 24/21/5
f 25/19/6 23/20/6 19/7/6 21/21/6
f 156/84/1 154/85/1 153/86/1 155/87/1
f 159/88/2 157/84/2 158/87/2 160/89/2
f 153/90/3 154/91/3 158/92/3 157/93/3
f 156/94/4 155/22/4 159/95/4 160/96/4
f 155/93/5 153/97/5 157/98/5 159/90/5
f 160/97/6 158/99/6 154/52/6 156/98/6
f 164/100/1 162/88/1 161/89/1 163/101/1
f 167/102/2 165/100/2 166/101/2 168/103/2
f 161/104/3 162/105/3 166/106/3 165/107/3
f 164/108/4 163/109/4 167/105/4 168/110/4
f 163/111/5 161/96/5 165/94/5 167/112/5
f 168/105/6 166/104/6 162/113/6 164/109/6
f 172/114/6 170/102/6 169/103/6 171/115/6
f 175/116/5 173/117/5 174/118/5 176/119/5
f 169/120/3 170/121/3 174/122/3 173/123/3
f 172/124/4 171/121/4 175/122/4 176/125/4
f 171/123/1 169/126/1 173/127/1 175/120/1
f 176/126/2 174/128/2 170/129/2 172/127/2
f 180/130/6 178/131/6 177/132/6 179/133/6
f 183/134/5 181/135/5 182/131/5 184/130/5
f 177/136/3 178/137/3 182/138/3 181/139/3
f 180/52/4 179/137/4 183/138/4 184/140/4
f 179/139/1 177/141/1 181/142/1 183/136/1
f 184/141/2 182/125/2 178/124/2 180/142/2
f 188/143/1 186/144/1 185/128/1 187/145/1
f 191/146/2 189/143/2 190/145/2 192/86/2
f 185/147/3 186/148/3 190/149/3 189/150/3
f 188/148/4 187/147/4 191/150/4 192/149/4
f 187/149/5 185/150/5 189/147/5 191/148/5
f 192/149/6 190/150/6 186/147/6 188/148/6
f 196/143/1 194/144/1 193/128/1 195/145/1
f 199/146/2 197/143/2 198/145/2 200/86/2
f 193/147/3 194/148/3 198/149/3 197/150/3
f 196/148/4 195/147/4 199/150/4 200/149/4
f 195/149/5 193/150/5 197/147/5 199/148/5
f 200/149/6 198/150/6 194/147/6 196/148/6
f 204/143/1 202/144/1 201/128/1 203/145/1
f 207/146/2 205/143/2 206/145/2 208/86/2
f 201/147/3 202/148/3 206/149/3 205/150/3
f 204/148/4 203/147/4 207/150/4 208/149/4
f 203/149/5 201/150/5 205/147/5 207/148/5
f 208/149/6 206/150/6 202/147/6 204/148/6
f 212/151/1 210/152/1 209/153/1 211/154/1
f 215/155/2 213/110/2 214/156/2 216/157/2
f 209/99/3 210/158/3 214/159/3 213/160/3
f 212/161/4 211/158/4 215/159/4 216/162/4
f 211/157/5 209/156/5 213/135/5 215/163/5
f 216/164/6 214/165/6 210/166/6 212/167/6
f 220/168/1 218/169/1 217/170/1 219/171/1
f 223/172/2 221/173/2 222/174/2 224/175/2
f 217/176/3 218/113/3 222/177/3 221/178/3
f 220/177/4 219/178/4 223/179/4 224/180/4
f 219/175/5 217/174/5 221/169/5 223/168/5
f 224/171/6 222/170/6 218/181/6 220/182/6
f 228/183/1 226/184/1 225/185/1 227/186/1
f 231/187/2 229/188/2 230/189/2 232/190/2
f 225/191/3 226/192/3 230/193/3 229/194/3
f 228/193/4 227/194/4 231/157/4 232/195/4
f 227/190/5 225/189/5 229/184/5 231/183/5
f 232/186/6 230/185/6 226/173/6 228/172/6
f 236/196/1 234/197/1 233/198/1 235/199/1
f 239/182/2 237/181/2 238/200/2 240/201/2
f 233/95/3 234/176/3 238/178/3 237/202/3
f 236/178/4 235/202/4 239/203/4 240/179/4
f 235/201/5 233/200/5 237/112/5 239/204/5
f 240/199/6 238/198/6 234/105/6 236/205/6
f 244/206/1 242/207/1 241/208/1 243/209/1
f 247/210/2 245/118/2 246/197/2 248/196/2
f 241/157/3 242/195/3 246/211/3 245/212/3
f 244/211/4 243/212/4 247/213/4 248/214/4
f 243/215/5 241/216/5 245/207/5 247/206/5
f 248/209/6 246/208/6 242/188/6 244/187/6
usemtl m_72f7b279-98f9-6ee8-96e7-6d82ff6e52cb
f 29/27/1 27/28/1 26/29/1 28/30/1
f 32/31/2 30/27/2 31/30/2 33/32/2
f 26/28/3 27/33/3 31/1/3 30/14/3
f 29/34/4 28/33/4 32/1/4 33/12/4
f 28/32/5 26/30/5 30/35/5 32/36/5
f 33/30/6 31/29/6 27/7/6 29/35/6
f 37/27/1 35/28/1 34/29/1 36/30/1
f 40/31/2 38/27/2 39/30/2 41/32/2
f 34/28/3 35/33/3 39/1/3 38/14/3
f 37/34/4 36/33/4 40/1/4 41/12/4
f 36/32/5 34/30/5 38/35/5 40/36/5
f 41/30/6 39/29/6 35/7/6 37/35/6
f 45/27/1 43/28/1 42/29/1 44/30/1
f 48/31/2 46/27/2 47/30/2 49/32/2
f 42/28/3 43/33/3 47/1/3 46/14/3
f 45/34/4 44/33/4 48/1/4 49/12/4
f 44/32/5 42/30/5 46/35/5 48/36/5
f 49/30/6 47/29/6 43/7/6 45/35/6
f 53/27/1 51/28/1 50/29/1 52/30/1
f 56/31/2 54/27/2 55/30/2 57/32/2
f 50/28/3 51/33/3 55/1/3 54/14/3
f 53/34/4 52/33/4 56/1/4 57/12/4
f 52/32/5 50/30/5 54/35/5 56/36/5
f 57/30/6 55/29/6 51/7/6 53/35/6
usemtl m_af27fd8c-8e96-b030-18ef-7a749048d5b2
f 61/37/7 59/38/7 58/7/7 60/39/7
f 64/40/8 62/37/8 63/39/8 65/41/8
f 58/41/3 59/42/3 63/43/3 62/44/3
f 61/43/4 60/44/4 64/45/4 65/46/4
f 60/47/9 58/48/9 62/49/9 64/50/9
f 65/48/10 63/51/10 59/52/10 61/49/10
f 69/53/7 67/54/7 66/45/7 68/55/7
f 72/56/8 70/53/8 71/55/8 73/57/8
f 66/57/3 67/58/3 71/59/3 70/60/3
f 69/59/4 68/60/4 72/61/4 73/62/4
f 68/63/9 66/64/9 70/48/9 72/47/9
f 73/64/10 71/65/10 67/51/10 69/48/10
f 77/66/7 75/67/7 74/61/7 76/68/7
f 80/69/8 78/66/8 79/68/8 81/70/8
f 74/70/3 75/71/3 79/72/3 78/73/3
f 77/72/4 76/73/4 80/52/4 81/74/4
f 76/75/9 74/76/9 78/65/9 80/64/9
f 81/77/10 79/47/10 75/50/10 77/78/10
f 85/79/9 83/29/9 82/7/9 84/39/9
f 88/79/10 86/29/10 87/7/10 89/39/10
f 82/80/3 83/81/3 87/7/3 86/82/3
f 85/80/4 84/81/4 88/7/4 89/82/4
f 84/83/8 82/81/8 86/7/8 88/39/8
f 89/83/7 87/81/7 83/7/7 85/39/7
f 93/79/9 91/29/9 90/7/9 92/39/9
f 96/79/10 94/29/10 95/7/10 1/39/10
f 90/80/3 91/81/3 95/7/3 94/82/3
f 93/80/4 92/81/4 96/7/4 1/82/4
f 92/83/8 90/81/8 94/7/8 96/39/8
f 1/83/7 95/81/7 91/7/7 93/39/7
f 100/79/9 98/29/9 97/7/9 99/39/9
f 103/79/10 101/29/10 102/7/10 104/39/10
f 97/80/3 98/81/3 102/7/3 101/82/3
f 100/80/4 99/81/4 103/7/4 104/82/4
f 99/83/8 97/81/8 101/7/8 103/39/8
f 104/83/7 102/81/7 98/7/7 100/39/7
f 108/79/9 106/29/9 105/7/9 107/39/9
f 111/79/10 109/29/10 110/7/10 112/39/10
f 105/80/3 106/81/3 110/7/3 109/82/3
f 108/80/4 107/81/4 111/7/4 112/82/4
f 107/83/8 105/81/8 109/7/8 111/39/8
f 112/83/7 110/81/7 106/7/7 108/39/7
f 116/79/9 114/29/9 113/7/9 115/39/9
f 119/79/10 117/29/10 118/7/10 120/39/10
f 113/80/3 114/81/3 118/7/3 117/82/3
f 116/80/4 115/81/4 119/7/4 120/82/4
f 115/83/8 113/81/8 117/7/8 119/39/8
f 120/83/7 118/81/7 114/7/7 116/39/7
f 124/79/9 122/29/9 121/7/9 123/39/9
f 127/79/10 125/29/10 126/7/10 128/39/10
f 121/80/3 122/81/3 126/7/3 125/82/3
f 124/80/4 123/81/4 127/7/4 128/82/4
f 123/83/8 121/81/8 125/7/8 127/39/8
f 128/83/7 126/81/7 122/7/7 124/39/7
f 132/79/7 130/29/7 129/7/7 131/39/7
f 135/79/8 133/29/8 134/7/8 136/39/8
f 129/80/3 130/81/3 134/7/3 133/82/3
f 132/80/4 131/81/4 135/7/4 136/82/4
f 131/83/9 129/81/9 133/7/9 135/39/9
f 136/83/10 134/81/10 130/7/10 132/39/10
f 140/79/7 138/29/7 137/7/7 139/39/7
f 143/79/8 141/29/8 142/7/8 144/39/8
f 137/80/3 138/81/3 142/7/3 141/82/3
f 140/80/4 139/81/4 143/7/4 144/82/4
f 139/83/9 137/81/9 141/7/9 143/39/9
f 144/83/10 142/81/10 138/7/10 140/39/10
f 148/79/7 146/29/7 145/7/7 147/39/7
f 151/79/8 149/29/8 150/7/8 152/39/8
f 145/80/3 146/81/3 150/7/3 149/82/3
f 148/80/4 147/81/4 151/7/4 152/82/4
f 147/83/9 145/81/9 149/7/9 151/39/9
f 152/83/10 150/81/10 146/7/10 148/39/10
