# Blender 4.2.3 LTS
# www.blender.org
mtllib centrifuge_spinner.mtl
o spinner
v 0.594032 0.000015 -1.434120
v 1.434120 0.000015 -0.594032
v 0.000000 0.000015 -0.000000
v 1.273156 1.846512 -0.527359
v 0.527358 1.846512 -1.273157
v 0.000000 1.846512 -0.000000
v -0.594032 0.000015 -1.434120
v -0.527360 1.846512 -1.273157
v -1.434119 0.000015 -0.594032
v -1.273157 1.846512 -0.527359
v -1.434119 0.000015 0.594031
v -1.273157 1.846512 0.527358
v -0.594032 0.000015 1.434119
v -0.527359 1.846512 1.273156
v 0.594032 0.000015 1.434119
v 0.527359 1.846512 1.273156
v 1.434120 0.000015 0.594031
v 1.273156 1.846512 0.527358
v -1.434119 1.721512 -0.594032
v -0.594033 1.721512 -1.434120
v -1.434119 1.721512 0.594031
v -0.594032 1.721512 1.434119
v 0.594032 1.721512 1.434119
v 1.434120 1.721512 0.594031
v 1.434119 1.721512 -0.594032
v 0.594031 1.721512 -1.434120
vn -0.0000 -1.0000 -0.0000
vn -0.0000 1.0000 -0.0000
vn -0.7071 -0.0000 -0.7071
vn -1.0000 -0.0000 -0.0000
vn -0.7071 -0.0000 0.7071
vn -0.0000 -0.0000 1.0000
vn 0.7071 -0.0000 0.7071
vn 1.0000 -0.0000 -0.0000
vn 0.7071 -0.0000 -0.7071
vn -0.0000 0.7898 -0.6133
vn -0.6134 0.7898 -0.0000
vn 0.4337 0.7898 0.4337
vn -0.0000 0.7898 0.6133
vn 0.6133 0.7898 -0.0000
vn -0.4337 0.7898 0.4337
vn -0.4337 0.7898 -0.4337
vn 0.4337 0.7898 -0.4337
vn -0.0000 -0.0000 -1.0000
vt 0.358952 0.894144
vt 0.253941 0.999155
vt 0.179688 0.819890
vt 0.499514 0.408273
vt 0.592738 0.501498
vt 0.433594 0.567417
vt 0.358952 0.745635
vt 0.592738 0.633337
vt 0.253941 0.640625
vt 0.499514 0.726562
vt 0.105434 0.640625
vt 0.367674 0.726562
vt 0.000423 0.745635
vt 0.274449 0.633337
vt 0.000423 0.894144
vt 0.274449 0.501498
vt 0.105434 0.999155
vt 0.367674 0.408273
vt 0.710938 0.101562
vt 0.859375 0.101562
vt 0.859375 0.320312
vt 0.710938 0.320312
vt 0.000000 0.414062
vt 0.148438 0.414062
vt 0.148438 0.632812
vt 0.000000 0.632812
vt 0.710938 0.546875
vt 0.710938 0.328125
vt 0.859375 0.328125
vt 0.859375 0.546875
vt 0.156250 0.453125
vt 0.156250 0.234375
vt 0.304688 0.234375
vt 0.304688 0.453125
vt 0.312500 0.398438
vt 0.312500 0.179688
vt 0.460938 0.179688
vt 0.460938 0.398438
vt 0.554688 0.226562
vt 0.703125 0.226562
vt 0.703125 0.445312
vt 0.554688 0.445312
vt 0.750000 0.773438
vt 0.601562 0.773438
vt 0.601562 0.554688
vt 0.750000 0.554688
vt 0.519045 1.000000
vt 0.387205 1.000000
vt 0.378871 0.976562
vt 0.527379 0.976562
vt 0.566443 0.896601
vt 0.558108 0.922076
vt 0.426268 0.922076
vt 0.417935 0.896601
vt 0.496579 0.812701
vt 0.390234 0.890625
vt 0.368454 0.875002
vt 0.488245 0.787226
vt 0.511232 0.773438
vt 0.379393 0.773438
vt 0.371058 0.750000
vt 0.519567 0.750000
vt 0.636753 0.787226
vt 0.628419 0.812701
vt 0.664454 1.000000
vt 0.686234 0.984377
vt 0.319921 0.999997
vt 0.298141 0.984374
vt 0.756546 0.874999
vt 0.734767 0.890622
vt 0.148438 0.406250
vt 0.000000 0.406250
vt 0.000000 0.187500
vt 0.148438 0.187500
s 0
usemtl m_b07695b2-492e-b42c-9599-144219298a3c
f 1/1/1 2/2/1 3/3/1
f 4/4/2 5/5/2 6/6/2
f 7/7/1 1/1/1 3/3/1
f 5/5/2 8/8/2 6/6/2
f 9/9/1 7/7/1 3/3/1
f 8/8/2 10/10/2 6/6/2
f 11/11/1 9/9/1 3/3/1
f 10/10/2 12/12/2 6/6/2
f 13/13/1 11/11/1 3/3/1
f 12/12/2 14/14/2 6/6/2
f 15/15/1 13/13/1 3/3/1
f 14/14/2 16/16/2 6/6/2
f 17/17/1 15/15/1 3/3/1
f 16/16/2 18/18/2 6/6/2
f 2/2/1 17/17/1 3/3/1
f 18/18/2 4/4/2 6/6/2
f 7/19/3 9/20/3 19/21/3 20/22/3
f 9/23/4 11/24/4 21/25/4 19/26/4
f 21/27/5 11/28/5 13/29/5 22/30/5
f 22/31/6 13/32/6 15/33/6 23/34/6
f 23/35/7 15/36/7 17/37/7 24/38/7
f 17/39/8 2/40/8 25/41/8 24/42/8
f 26/43/9 25/44/9 2/45/9 1/46/9
f 8/47/10 5/48/10 26/49/10 20/50/10
f 21/51/11 12/52/11 10/53/11 19/54/11
f 18/55/12 16/56/12 23/57/12 24/58/12
f 16/59/13 14/60/13 22/61/13 23/62/13
f 25/63/14 4/64/14 18/55/14 24/58/14
f 14/65/15 12/52/15 21/51/15 22/66/15
f 10/53/16 8/67/16 20/68/16 19/54/16
f 26/69/17 5/70/17 4/64/17 25/63/17
f 20/71/18 26/72/18 1/73/18 7/74/18
