# Blender 4.2.3 LTS
# www.blender.org
mtllib reverberation_furnace.mtl
o reverberation_furnace
v 2.000671 6.000000 -0.999998
v 5.000671 6.000001 -0.999997
v -0.874330 2.000000 4.750002
v -0.874328 2.000000 4.000002
v -0.874328 1.000000 4.000002
v -0.874329 1.000000 4.750002
v 0.000672 0.000001 -0.749999
v 0.000672 0.000001 0.000001
v -0.874328 0.000002 0.000000
v -0.874327 0.000002 -0.750000
v -0.874328 1.000000 3.000002
v -0.874328 2.000001 3.000000
v -0.874328 2.000000 2.000002
v -0.874328 1.000000 2.000002
v -0.874328 0.000000 1.000002
v -0.874328 1.000000 1.000002
v -0.999328 1.000000 1.000002
v -0.999328 0.000000 1.000002
v -0.999328 1.000000 3.000002
v -0.999328 1.000000 4.000002
v -0.874328 2.000000 1.000002
v -0.874328 2.000000 0.000002
v -0.874328 1.000000 0.000002
v -0.999328 0.000000 4.000002
v -0.999328 0.000000 3.000002
v -0.999328 1.000000 0.000002
v -0.999328 0.000000 0.000002
v -0.874328 0.000000 3.000002
v -0.874328 0.000000 4.000002
v 1.000672 2.000000 1.000002
v 2.000672 2.000000 1.000002
v 2.000672 2.000000 0.000002
v 1.000672 2.000000 0.000002
v 1.000671 2.000000 4.000002
v 2.000672 2.000000 4.000002
v 2.000672 2.000000 3.000002
v 1.000671 2.000000 3.000002
v 0.000672 2.000000 4.000002
v -0.874329 2.500000 4.000002
v 0.000671 2.500000 4.000002
v 2.000672 2.000000 -0.999998
v 1.000672 2.000000 -0.749998
v 1.000672 2.500000 -0.749998
v 2.000672 2.500000 -0.999998
v 1.000671 2.500000 2.000002
v 2.000672 2.500000 2.000002
v 2.000672 2.500000 1.000002
v 1.000671 2.500000 1.000002
v 1.000671 2.500000 4.750002
v 2.000671 2.500000 5.000002
v 2.000672 2.500000 4.000002
v 1.000671 2.500000 4.000002
v 1.000672 2.500000 0.000002
v 2.000672 2.500000 0.000002
v 0.000672 2.000000 -0.749998
v 0.000672 2.500000 -0.749998
v -0.874328 2.000000 -0.749998
v -0.874328 2.500000 0.000002
v -0.874328 2.500000 -0.749998
v -0.874329 2.500000 3.000002
v -0.874328 2.500000 2.000002
v 1.000671 2.000000 4.750002
v 2.000672 2.000000 5.000002
v -0.874330 2.500000 4.750002
v 2.500671 9.000000 -0.499999
v 4.500670 9.000001 -0.499999
v 2.000671 6.000000 2.000001
v 5.000672 0.000001 -0.999997
v 2.000672 0.000001 -0.999999
v 5.000669 6.000001 5.000002
v 2.500670 9.000000 4.500001
v 2.500670 9.000000 2.500001
v 2.000671 6.000000 5.000001
v 4.500670 9.000003 4.500000
v 2.500671 9.000000 1.500001
v 4.500670 9.000001 1.500001
v 4.500670 9.000001 2.500001
v 2.938170 11.875001 -0.062499
v 2.938170 12.000001 -0.062499
v 4.063170 12.000001 -0.062499
v 4.063170 11.875001 -0.062499
v 4.000670 11.875001 4.000001
v 4.000670 11.875001 3.000001
v 4.063170 11.875001 2.937501
v 4.063170 11.875001 4.062501
v 4.000670 11.875001 1.000002
v 4.000670 11.875001 0.000002
v 4.063170 11.875001 1.062502
v 2.000672 0.000000 5.000002
v 5.000671 0.000001 5.000003
v 5.000672 0.000001 2.000003
v 0.000672 1.000000 4.750002
v -0.874329 0.000000 4.750002
v 0.000672 0.000000 4.750002
v 1.000672 1.000001 -0.749999
v 2.000672 1.000001 -0.999999
v 1.000672 0.000001 -0.749999
v 4.500671 7.000001 -0.499999
v 4.500670 7.000001 2.500001
v 4.500670 7.000001 4.500001
v 2.500671 7.000000 2.500001
v 2.500671 7.000000 -0.499999
v 2.500671 7.000000 4.500001
v 4.000670 10.000001 4.000001
v 4.000670 11.000001 4.000001
v 3.000670 11.000001 4.000001
v 3.000670 11.000001 3.000001
v 4.000670 10.000001 3.000001
v 4.000670 11.000001 3.000001
v 3.000670 10.000001 1.000001
v 3.000670 11.000001 1.000001
v 3.000670 11.000001 0.000001
v 4.000670 10.000001 0.000002
v 4.000670 11.000001 0.000002
v 4.000670 11.000001 1.000002
v 0.000672 2.500000 2.000002
v 0.000672 2.500000 1.000002
v -0.874328 2.500000 1.000002
v 0.000672 2.500000 0.000002
v -0.874328 1.000001 -0.749999
v 0.000672 1.000001 -0.749999
v 0.875672 0.125000 -0.749998
v 0.125672 0.125000 -0.749998
v 0.125672 0.125000 -0.812498
v 0.875672 0.125000 -0.812498
v 2.000673 1.000001 5.000000
v 1.000673 1.000001 4.750000
v 1.000673 0.000002 4.750000
v 0.875672 0.875000 4.750002
v 0.125672 0.875000 4.750002
v 0.125672 0.875000 4.812502
v 0.875672 0.875000 4.812502
v 0.000672 2.000000 4.750002
v 0.000671 2.500000 4.750002
v 0.000672 2.000000 3.000002
v 0.000672 2.000000 1.000002
v 0.000672 2.000000 0.000002
v 1.000672 0.000000 4.000002
v 0.000672 0.000000 4.000002
v 0.000672 2.500000 3.000002
v 1.000671 2.500000 3.000002
v 2.000672 2.500000 3.000002
v 1.000672 0.000001 0.000001
v 1.000672 0.000000 1.000002
v 0.000672 0.000000 1.000002
v 1.000672 0.000000 2.000002
v 0.000672 0.000000 2.000002
v 1.000672 0.000000 3.000002
v 0.000672 0.000000 3.000002
v -0.874328 0.000000 2.000002
v 2.000672 0.000001 0.000001
v 2.000672 0.000000 1.000002
v 2.000672 0.000000 2.000002
v 2.000672 0.000000 3.000002
v 2.000672 0.000000 4.000002
v 3.000670 11.875001 1.000001
v 3.000670 11.875001 0.000001
v 3.000670 11.875003 3.999999
v 3.000670 11.875003 2.999999
v 2.938170 11.875001 1.062501
v 2.938170 12.000001 1.062501
v 4.063170 12.000001 1.062502
v 2.938170 11.875001 4.062501
v 2.938170 11.875001 2.937501
v 4.063170 12.000001 4.062501
v 2.938170 12.000001 4.062501
v 4.063170 12.000001 2.937501
v 2.938170 12.000001 2.937501
v 0.125672 0.875000 -0.749998
v 0.875672 0.875000 -0.749998
v 0.875672 0.125000 4.750002
v 0.125672 0.125000 4.750002
v 0.125672 0.875000 -0.812498
v 0.875672 0.875000 -0.812498
v 0.125672 0.125000 4.812502
v 0.875672 0.125000 4.812502
v 5.000671 6.000001 2.000003
v 4.500670 7.000001 1.500001
v 2.500671 7.000000 1.500001
v 3.000670 10.000001 4.000001
v 3.000670 10.000003 2.999999
v 3.000670 10.000001 0.000001
v 4.000670 10.000001 1.000002
v 5.000671 3.000001 -0.999997
v 2.000672 3.000000 -0.999998
v 2.000672 3.000000 2.000002
v 2.000672 0.000001 -0.999999
v 5.000671 3.000001 2.000003
v 4.500670 8.000003 4.500000
v 2.500671 8.000000 1.500001
v 4.500670 8.000001 2.500001
v 2.000671 3.000000 5.000002
v 5.000670 3.000001 5.000003
v 2.000672 2.000000 -0.999998
v 2.000672 2.000000 2.000002
v 2.000672 2.000000 5.000002
v 4.500670 8.000001 -0.499999
v 4.500670 8.000001 1.500001
v 2.500671 8.000000 2.500001
v 2.500671 8.000000 -0.499999
v 2.500671 8.000000 4.500001
v 3.500672 0.000000 3.500002
v 3.500672 0.000000 2.000002
v 3.500672 0.000000 0.500002
vn -0.0000 -0.0000 -1.0000
vn -1.0000 -0.0000 -0.0000
vn -0.0000 -1.0000 -0.0000
vn -0.0000 -0.0000 1.0000
vn -0.0000 1.0000 -0.0000
vn -0.2425 -0.0000 -0.9701
vn -0.2425 -0.0000 0.9701
vn 1.0000 -0.0000 -0.0000
vn -0.8944 0.4472 -0.0000
vn -0.0000 0.4472 -0.8944
vn -0.0000 0.4472 0.8944
vn 0.8944 0.4472 -0.0000
vt 0.000000 0.500000
vt 0.375000 0.500000
vt 0.375000 0.875000
vt 0.000000 0.875000
vt 0.343750 0.500000
vt 0.250000 0.500000
vt 0.250000 0.375000
vt 0.343750 0.375000
vt 0.250000 0.906250
vt 0.250000 1.000000
vt 0.140625 1.000000
vt 0.140625 0.906250
vt 0.125000 0.375000
vt 0.125000 0.500000
vt 0.000000 0.375000
vt 0.250000 0.250000
vt 0.234374 0.375000
vt 0.234374 0.250000
vt 0.125000 0.359374
vt 0.250000 0.359374
vt 0.375000 0.375000
vt 0.125000 0.250000
vt 0.140625 0.250000
vt 0.140625 0.375000
vt 0.250000 0.265626
vt 0.125000 0.265626
vt 0.140626 0.250000
vt 0.140626 0.375000
vt 0.234375 0.375000
vt 0.234375 0.250000
vt 0.500000 0.500000
vt 0.500000 0.625000
vt 0.375000 0.625000
vt 0.375000 0.562500
vt 0.484375 0.562500
vt 0.484375 0.625000
vt 0.500000 0.500019
vt 0.500000 0.562519
vt 0.468750 0.500000
vt 0.406250 0.500000
vt 0.500000 0.562500
vt 0.406250 0.562500
vt 0.484375 0.500000
vt 0.468750 0.562500
vt 0.250000 0.875000
vt 0.500000 0.875000
vt 0.500000 1.000000
vt 0.515625 0.718750
vt 0.515625 0.734375
vt 0.375000 0.734375
vt 0.375000 0.718750
vt 0.382812 0.710938
vt 0.507812 0.710938
vt 0.507812 0.718750
vt 0.382812 0.718750
vt 0.375000 0.710938
vt 0.515625 0.710938
vt 0.109375 0.625000
vt 0.000000 0.625000
vt 0.109375 0.500000
vt 0.124984 0.625019
vt 0.125016 0.500019
vt 0.000000 0.750000
vt 0.375000 0.750000
vt 0.125000 0.875000
vt 0.125000 1.000000
vt 0.000000 1.000000
vt 0.500000 0.515625
vt 0.375000 0.515625
vt 0.265625 0.625000
vt 0.265625 0.500000
vt 0.390625 0.390625
vt 0.484375 0.390625
vt 0.484375 0.398438
vt 0.390625 0.398438
vt 0.250000 0.625000
vt 0.484375 0.484375
vt 0.390625 0.484375
vt 0.390625 0.476562
vt 0.484375 0.476562
vt 0.390625 0.500000
vt 0.390625 0.562500
vt 0.500000 0.250000
vt 0.500000 0.375000
vt 0.375000 0.250000
vt 0.250000 0.968750
vt 0.125000 0.968750
vt 0.390625 0.625000
vt 0.031250 0.500000
vt 0.031250 0.375000
vt 0.125000 0.906250
vt 0.234375 0.875000
vt 0.234375 1.000000
vt 0.234375 0.968750
vt 0.250000 0.750000
vt 0.265625 0.750000
vt 0.124984 0.750019
vt 0.109375 0.750000
vt 0.343750 0.250000
vt 0.000000 0.250000
vt 0.031250 0.250000
vt 0.187500 0.687500
vt 0.375000 0.687500
vt 0.562500 0.859375
vt 0.812500 0.859375
vt 0.875000 1.000000
vt 0.812500 0.851562
vt 0.562500 0.851562
vt 0.625000 0.710938
vt 0.750000 0.710938
vt 0.125000 0.984375
vt 0.000000 0.984375
vt 0.515625 0.875000
vt 0.367188 0.710938
vt 0.507813 0.718750
vt 0.375001 0.718750
vt 0.476562 0.484375
vt 0.476562 0.390625
vt 0.398438 0.390625
vt 0.398438 0.484375
vt 0.000000 0.687500
s 0
usemtl reverberation_furnace
f 184/1/1 185/2/1 1/3/1 2/4/1
f 3/5/2 4/6/2 5/7/2 6/8/2
f 7/9/3 8/10/3 9/11/3 10/12/3
f 11/13/2 12/14/2 13/1/2 14/15/2
f 5/7/2 4/6/2 12/14/2 11/13/2
f 15/16/4 16/7/4 17/17/4 18/18/4
f 5/19/5 11/20/5 19/7/5 20/13/5
f 16/7/2 21/6/2 22/14/2 23/13/2
f 16/7/2 14/21/2 13/2/2 21/6/2
f 24/16/2 20/7/2 19/13/2 25/22/2
f 18/16/2 17/7/2 26/13/2 27/22/2
f 11/23/1 28/24/1 25/13/1 19/22/1
f 9/22/3 15/16/3 18/25/3 27/26/3
f 16/19/5 23/20/5 26/7/5 17/13/5
f 23/27/1 9/28/1 27/13/1 26/22/1
f 28/22/3 29/16/3 24/25/3 25/26/3
f 29/16/4 5/7/4 20/29/4 24/30/4
f 30/31/5 31/32/5 32/33/5 33/2/5
f 34/31/5 35/32/5 36/33/5 37/2/5
f 38/34/1 4/35/1 39/36/1 40/33/1
f 41/2/6 42/37/6 43/38/6 44/34/6
f 45/31/5 46/32/5 47/33/5 48/2/5
f 49/39/5 50/32/5 51/33/5 52/2/5
f 53/31/5 54/32/5 44/33/5 43/40/5
f 43/34/1 42/2/1 55/31/1 56/41/1
f 57/40/2 22/31/2 58/41/2 59/42/2
f 57/43/1 59/35/1 56/34/1 55/2/1
f 13/2/2 12/31/2 60/41/2 61/34/2
f 62/2/7 63/31/7 50/41/7 49/34/7
f 4/2/2 3/39/2 64/44/2 39/34/2
f 197/45/1 200/46/1 65/47/1 66/10/1
f 1/4/2 185/1/2 186/2/2 67/3/2
f 68/1/1 187/2/1 185/3/1 184/4/1
f 184/2/8 2/3/8 177/4/8 188/1/8
f 193/1/8 188/2/8 177/3/8 70/4/8
f 199/45/2 201/46/2 71/47/2 72/10/2
f 201/45/4 189/46/4 74/47/4 71/10/4
f 200/45/2 190/46/2 75/47/2 65/10/2
f 190/47/4 198/10/4 76/45/4 75/46/4
f 191/45/1 199/46/1 72/47/1 77/10/1
f 189/45/8 191/46/8 77/47/8 74/10/8
f 198/45/8 197/46/8 66/47/8 76/10/8
f 78/48/1 79/49/1 80/50/1 81/51/1
f 82/52/3 83/53/3 84/48/3 85/51/3
f 86/54/3 87/55/3 81/56/3 88/57/3
f 192/4/4 89/1/4 90/2/4 193/3/4
f 68/2/8 184/3/8 188/4/8 91/1/8
f 188/3/8 193/4/8 90/1/8 91/2/8
f 73/4/4 192/1/4 193/2/4 70/3/4
f 92/58/4 6/59/4 93/1/4 94/60/4
f 95/61/6 96/59/6 69/1/6 97/62/6
f 192/2/2 73/3/2 67/4/2 186/1/2
f 186/3/2 185/4/2 194/63/2 195/64/2
f 186/4/2 195/63/2 196/64/2 192/3/2
f 178/45/8 98/46/8 197/47/8 198/10/8
f 100/45/8 99/46/8 191/47/8 189/10/8
f 99/45/1 101/46/1 199/47/1 191/10/1
f 179/47/4 178/10/4 198/45/4 190/46/4
f 102/45/2 179/46/2 190/47/2 200/10/2
f 103/45/4 100/46/4 189/47/4 201/10/4
f 101/45/2 103/46/2 201/47/2 199/10/2
f 98/45/1 102/46/1 200/47/1 197/10/1
f 180/4/4 104/65/4 105/66/4 106/67/4
f 181/4/2 180/65/2 106/66/2 107/67/2
f 104/4/8 108/65/8 109/66/8 105/67/8
f 108/66/1 181/67/1 107/4/1 109/65/1
f 182/4/2 110/65/2 111/66/2 112/67/2
f 113/66/1 182/67/1 112/4/1 114/65/1
f 183/4/8 113/65/8 114/66/8 115/67/8
f 110/4/4 183/65/4 115/66/4 111/67/4
f 61/68/5 116/32/5 117/33/5 118/69/5
f 116/31/5 45/32/5 48/33/5 117/2/5
f 58/68/5 119/32/5 56/33/5 59/69/5
f 119/31/5 53/32/5 43/33/5 56/2/5
f 120/33/1 121/70/1 7/71/1 10/2/1
f 122/72/3 123/73/3 124/74/3 125/75/3
f 126/33/7 127/76/7 128/6/7 89/2/7
f 129/77/5 130/78/5 131/79/5 132/80/5
f 3/81/4 133/31/4 134/41/4 64/82/4
f 133/2/4 62/31/4 49/41/4 134/34/4
f 64/68/5 134/32/5 40/33/5 39/69/5
f 134/31/5 49/32/5 52/33/5 40/2/5
f 35/34/1 34/41/1 52/32/1 51/33/1
f 34/34/1 38/41/1 40/32/1 52/33/1
f 4/68/5 38/32/5 135/33/5 12/69/5
f 38/83/5 34/84/5 37/21/5 135/85/5
f 21/68/5 136/32/5 137/33/5 22/69/5
f 136/83/5 30/84/5 33/21/5 137/85/5
f 138/45/3 128/86/3 94/87/3 139/65/3
f 32/33/4 54/34/4 53/41/4 33/32/4
f 119/33/4 137/34/4 33/41/4 53/32/4
f 22/82/4 137/41/4 119/32/4 58/88/4
f 31/34/1 30/41/1 48/32/1 47/33/1
f 117/32/1 48/33/1 30/34/1 136/41/1
f 21/35/1 118/36/1 117/33/1 136/34/1
f 12/82/4 135/41/4 140/32/4 60/88/4
f 140/33/4 135/34/4 37/41/4 141/32/4
f 36/41/4 142/32/4 141/33/4 37/34/4
f 140/31/5 141/32/5 45/33/5 116/2/5
f 60/68/5 140/32/5 116/33/5 61/69/5
f 21/2/2 13/31/2 61/41/2 118/34/2
f 141/31/5 142/32/5 46/33/5 45/2/5
f 57/89/2 120/90/2 23/13/2 22/14/2
f 97/9/3 143/10/3 8/66/3 7/91/3
f 143/45/3 144/10/3 145/66/3 8/65/3
f 144/45/3 146/10/3 147/66/3 145/65/3
f 146/45/3 148/10/3 149/66/3 147/65/3
f 148/45/3 138/10/3 139/66/3 149/65/3
f 9/65/3 8/92/3 145/93/3 15/66/3
f 15/65/3 145/92/3 147/93/3 150/66/3
f 150/65/3 147/92/3 149/93/3 28/66/3
f 28/65/3 149/92/3 139/93/3 29/66/3
f 29/65/3 139/92/3 94/94/3 93/87/3
f 62/10/4 133/66/4 92/65/4 127/45/4
f 63/64/7 62/95/7 127/76/7 126/33/7
f 55/10/1 42/66/1 95/65/1 121/45/1
f 57/64/1 55/96/1 121/70/1 120/33/1
f 42/97/6 41/63/6 96/59/6 95/61/6
f 133/98/4 3/63/4 6/59/4 92/58/4
f 93/99/2 6/8/2 5/7/2 29/16/2
f 150/100/2 28/22/2 11/13/2 14/15/2
f 15/16/2 150/85/2 14/21/2 16/7/2
f 10/101/2 9/22/2 23/13/2 120/90/2
f 69/45/3 151/10/3 143/66/3 97/91/3
f 143/65/3 151/45/3 152/10/3 144/66/3
f 144/65/3 152/45/3 153/10/3 146/66/3
f 146/65/3 153/45/3 154/10/3 148/66/3
f 148/65/3 154/45/3 155/10/3 138/66/3
f 89/10/3 128/87/3 138/65/3 155/45/3
s 1
f 154/45/3 202/102/3 89/4/3 155/65/3
f 204/102/3 69/3/3 68/4/3
f 91/3/3 203/103/3 204/102/3 68/4/3
s 0
f 67/47/9 179/104/9 102/105/9 1/106/9
f 1/47/10 102/104/10 98/105/10 2/106/10
f 67/106/11 177/47/11 178/104/11 179/105/11
f 177/106/10 67/47/10 101/104/10 99/105/10
f 67/106/9 73/47/9 103/104/9 101/105/9
f 73/106/11 70/47/11 100/104/11 103/105/11
f 70/106/12 177/47/12 99/104/12 100/105/12
f 177/106/12 2/47/12 98/104/12 178/105/12
f 74/107/12 77/108/12 108/109/12 104/110/12
f 71/107/11 74/108/11 104/109/11 180/110/11
f 72/107/9 71/108/9 180/109/9 181/110/9
f 77/107/10 72/108/10 181/109/10 108/110/10
f 76/107/12 66/108/12 113/109/12 183/110/12
f 75/107/11 76/108/11 183/109/11 110/110/11
f 65/107/9 75/108/9 110/109/9 182/110/9
f 66/107/10 65/108/10 182/109/10 113/110/10
f 112/4/2 111/65/2 156/111/2 157/112/2
f 114/4/1 112/65/1 157/111/1 87/112/1
f 115/4/8 114/65/8 87/111/8 86/112/8
f 111/4/4 115/65/4 86/111/4 156/112/4
f 106/4/4 105/65/4 82/111/4 158/112/4
f 107/4/2 106/65/2 158/111/2 159/112/2
f 105/4/8 109/65/8 83/111/8 82/112/8
f 109/4/1 107/65/1 159/111/1 83/112/1
f 79/50/2 78/51/2 160/48/2 161/49/2
f 79/50/5 161/49/5 162/113/5 80/3/5
f 157/55/3 78/56/3 81/57/3 87/54/3
f 156/53/3 160/48/3 78/51/3 157/52/3
f 162/50/8 88/51/8 81/48/8 80/49/8
f 88/48/4 162/49/4 161/50/4 160/51/4
f 86/53/3 88/48/3 160/51/3 156/52/3
f 158/51/3 163/114/3 164/57/3 159/54/3
f 82/53/3 85/48/3 163/51/3 158/52/3
f 84/57/3 83/115/3 159/116/3 164/114/3
f 163/51/4 85/48/4 165/49/4 166/50/4
f 84/48/8 167/49/8 165/50/8 85/51/8
f 168/50/5 166/49/5 165/113/5 167/3/5
f 164/48/1 168/49/1 167/50/1 84/51/1
f 168/50/2 164/51/2 163/48/2 166/49/2
f 123/73/1 122/72/1 97/21/1 7/84/1
f 169/77/1 123/73/1 7/84/1 121/31/1
f 122/72/1 170/78/1 95/2/1 97/21/1
f 170/78/1 169/77/1 121/31/1 95/2/1
f 171/73/4 172/72/4 94/21/4 128/84/4
f 129/77/4 171/73/4 128/84/4 127/31/4
f 172/72/4 130/78/4 92/2/4 94/21/4
f 130/78/4 129/77/4 127/31/4 92/2/4
f 173/77/1 174/78/1 125/72/1 124/73/1
f 169/77/5 170/78/5 174/79/5 173/80/5
f 123/73/2 169/77/2 173/117/2 124/118/2
f 170/78/8 122/72/8 125/119/8 174/120/8
f 132/77/4 131/78/4 175/72/4 176/73/4
f 171/119/8 129/120/8 132/78/8 176/72/8
f 130/78/2 172/72/2 175/119/2 131/120/2
f 172/72/3 171/73/3 176/74/3 175/75/3
s 1
f 90/3/3 89/4/3 202/102/3
f 90/3/3 202/102/3 203/121/3 91/4/3
f 203/121/3 153/4/3 152/65/3 204/102/3
f 204/102/3 152/65/3 151/45/3 69/3/3
f 203/103/3 202/102/3 154/45/3 153/3/3
