# Blender 4.2.3 LTS
# www.blender.org
mtllib reverberation_furnace_mirrored.mtl
o reverberation_furnace
v 2.000001 6.000000 -0.999999
v -0.999999 6.000001 -0.999998
v 4.875002 2.000000 4.750002
v 4.875000 2.000000 4.000002
v 4.875000 1.000000 4.000002
v 4.875001 1.000000 4.750002
v 4.000000 0.000001 -0.749999
v 4.000000 0.000001 0.000001
v 4.875000 0.000002 -0.000000
v 4.875000 0.000002 -0.750000
v 4.875000 1.000000 3.000002
v 4.875000 2.000001 3.000000
v 4.875000 2.000000 2.000002
v 4.875000 1.000000 2.000002
v 4.875000 0.000000 1.000002
v 4.875000 1.000000 1.000002
v 5.000000 1.000000 1.000002
v 5.000000 0.000000 1.000002
v 5.000000 1.000000 3.000002
v 5.000000 1.000000 4.000002
v 4.875000 2.000000 1.000002
v 4.875000 2.000000 0.000002
v 4.875000 1.000000 0.000002
v 5.000000 0.000000 4.000002
v 5.000000 0.000000 3.000002
v 5.000000 1.000000 0.000002
v 5.000000 0.000000 0.000002
v 4.875000 0.000000 3.000002
v 4.875000 0.000000 4.000002
v 3.000000 2.000000 1.000002
v 2.000000 2.000000 1.000002
v 2.000000 2.000000 0.000002
v 3.000000 2.000000 0.000002
v 3.000001 2.000000 4.000002
v 2.000000 2.000000 4.000002
v 2.000000 2.000000 3.000002
v 3.000001 2.000000 3.000002
v 4.000000 2.000000 4.000002
v 4.875001 2.500000 4.000002
v 4.000001 2.500000 4.000002
v 2.000000 2.000000 -0.999998
v 3.000000 2.000000 -0.749998
v 3.000000 2.500000 -0.749998
v 2.000000 2.500000 -0.999998
v 3.000001 2.500000 2.000002
v 2.000000 2.500000 2.000002
v 2.000000 2.500000 1.000002
v 3.000001 2.500000 1.000002
v 3.000001 2.500000 4.750002
v 2.000001 2.500000 5.000002
v 2.000000 2.500000 4.000002
v 3.000001 2.500000 4.000002
v 3.000000 2.500000 0.000002
v 2.000000 2.500000 0.000002
v 4.000000 2.000000 -0.749998
v 4.000000 2.500000 -0.749998
v 4.875000 2.000000 -0.749998
v 4.875000 2.500000 0.000002
v 4.875000 2.500000 -0.749998
v 4.875001 2.500000 3.000002
v 4.875000 2.500000 2.000002
v 3.000001 2.000000 4.750002
v 2.000000 2.000000 5.000002
v 4.875002 2.500000 4.750002
v 1.500001 9.000000 -0.500000
v -0.499998 9.000001 -0.500000
v 2.000001 6.000000 2.000000
v -1.000000 0.000001 -0.999997
v 2.000000 0.000001 -0.999999
v -0.999997 6.000001 5.000001
v 1.500002 9.000000 4.500000
v 1.500002 9.000000 2.500000
v 2.000001 6.000000 5.000000
v -0.499998 9.000003 4.500000
v 1.500001 9.000000 1.500000
v -0.499998 9.000001 1.500000
v -0.499998 9.000001 2.500000
v 1.062502 11.875001 -0.062500
v 1.062502 12.000001 -0.062500
v -0.062498 12.000001 -0.062500
v -0.062498 11.875001 -0.062500
v 0.000002 11.875001 4.000000
v 0.000002 11.875001 3.000000
v -0.062498 11.875001 2.937500
v -0.062498 11.875001 4.062500
v 0.000002 11.875001 1.000001
v 0.000002 11.875001 0.000001
v -0.062498 11.875001 1.062501
v 2.000000 0.000000 5.000002
v -0.999999 0.000001 5.000003
v -1.000000 0.000001 2.000003
v 4.000000 1.000000 4.750002
v 4.875001 0.000000 4.750002
v 4.000000 0.000000 4.750002
v 3.000000 1.000001 -0.749999
v 2.000000 1.000001 -0.999999
v 3.000000 0.000001 -0.749999
v -0.499999 7.000001 -0.500000
v -0.499998 7.000001 2.500000
v -0.499998 7.000001 4.500000
v 1.500001 7.000000 2.500000
v 1.500001 7.000000 -0.500000
v 1.500001 7.000000 4.500000
v 0.000002 10.000001 4.000000
v 0.000002 11.000001 4.000000
v 1.000002 11.000001 4.000000
v 1.000002 11.000001 3.000000
v 0.000002 10.000001 3.000000
v 0.000002 11.000001 3.000000
v 1.000002 10.000001 1.000000
v 1.000002 11.000001 1.000000
v 1.000002 11.000001 0.000000
v 0.000002 10.000001 0.000001
v 0.000002 11.000001 0.000001
v 0.000002 11.000001 1.000001
v 4.000000 2.500000 2.000002
v 4.000000 2.500000 1.000002
v 4.875000 2.500000 1.000002
v 4.000000 2.500000 0.000002
v 4.875000 1.000001 -0.749999
v 4.000000 1.000001 -0.749999
v 3.125000 0.125000 -0.749998
v 3.875000 0.125000 -0.749998
v 3.875000 0.125000 -0.812498
v 3.125000 0.125000 -0.812498
v 1.999999 1.000001 5.000000
v 2.999999 1.000001 4.750000
v 2.999999 0.000002 4.750000
v 3.125000 0.875000 4.750002
v 3.875000 0.875000 4.750002
v 3.875000 0.875000 4.812502
v 3.125000 0.875000 4.812502
v 4.000000 2.000000 4.750002
v 4.000001 2.500000 4.750002
v 4.000000 2.000000 3.000002
v 4.000000 2.000000 1.000002
v 4.000000 2.000000 0.000002
v 3.000000 0.000000 4.000002
v 4.000000 0.000000 4.000002
v 4.000000 2.500000 3.000002
v 3.000001 2.500000 3.000002
v 2.000000 2.500000 3.000002
v 3.000000 0.000001 0.000001
v 3.000000 0.000000 1.000002
v 4.000000 0.000000 1.000002
v 3.000000 0.000000 2.000002
v 4.000000 0.000000 2.000002
v 3.000000 0.000000 3.000002
v 4.000000 0.000000 3.000002
v 4.875000 0.000000 2.000002
v 2.000000 0.000001 0.000001
v 2.000000 0.000000 1.000002
v 2.000000 0.000000 2.000002
v 2.000000 0.000000 3.000002
v 2.000000 0.000000 4.000002
v 1.000002 11.875001 1.000000
v 1.000002 11.875001 0.000000
v 1.000002 11.875003 3.999998
v 1.000002 11.875003 2.999998
v 1.062502 11.875001 1.062500
v 1.062502 12.000001 1.062500
v -0.062498 12.000001 1.062501
v 1.062502 11.875001 4.062500
v 1.062502 11.875001 2.937500
v -0.062498 12.000001 4.062500
v 1.062502 12.000001 4.062500
v -0.062498 12.000001 2.937500
v 1.062502 12.000001 2.937500
v 3.875000 0.875000 -0.749998
v 3.125000 0.875000 -0.749998
v 3.125000 0.125000 4.750002
v 3.875000 0.125000 4.750002
v 3.875000 0.875000 -0.812498
v 3.125000 0.875000 -0.812498
v 3.875000 0.125000 4.812502
v 3.125000 0.125000 4.812502
v -0.999999 6.000001 2.000003
v -0.499998 7.000001 1.500000
v 1.500001 7.000000 1.500000
v 1.000002 10.000001 4.000000
v 1.000002 10.000003 2.999998
v 1.000002 10.000001 0.000000
v 0.000002 10.000001 1.000001
v -0.999999 3.000001 -0.999997
v 2.000000 3.000000 -0.999998
v 2.000000 3.000000 2.000002
v 2.000000 0.000001 -0.999999
v -0.999999 3.000001 2.000003
v -0.499998 8.000003 4.500000
v 1.500001 8.000000 1.500000
v -0.499998 8.000001 2.500000
v 2.000001 3.000000 5.000002
v -0.999998 3.000001 5.000003
v 2.000000 2.000000 -0.999998
v 2.000000 2.000000 2.000002
v 2.000000 2.000000 5.000002
v -0.499998 8.000001 -0.500000
v -0.499998 8.000001 1.500000
v 1.500001 8.000000 2.500000
v 1.500001 8.000000 -0.500000
v 1.500001 8.000000 4.500000
v 0.500000 0.000000 3.500002
v 0.500000 0.000000 2.000002
v 0.500000 0.000000 0.500002
vn -0.0000 -0.0000 -1.0000
vn 1.0000 -0.0000 -0.0000
vn -0.0000 -1.0000 -0.0000
vn -0.0000 -0.0000 1.0000
vn -0.0000 1.0000 -0.0000
vn 0.2425 -0.0000 -0.9701
vn 0.2425 -0.0000 0.9701
vn -1.0000 -0.0000 -0.0000
vn 0.8944 0.4472 -0.0000
vn -0.0000 0.4472 -0.8944
vn -0.0000 0.4472 0.8944
vn -0.8944 0.4472 -0.0000
vt 0.000000 0.500000
vt 0.000000 0.875000
vt 0.375000 0.875000
vt 0.375000 0.500000
vt 0.343750 0.500000
vt 0.343750 0.375000
vt 0.250000 0.375000
vt 0.250000 0.500000
vt 0.250000 0.906250
vt 0.140625 0.906250
vt 0.140625 1.000000
vt 0.250000 1.000000
vt 0.125000 0.375000
vt 0.000000 0.375000
vt 0.125000 0.500000
vt 0.250000 0.250000
vt 0.234374 0.250000
vt 0.234374 0.375000
vt 0.125000 0.359374
vt 0.250000 0.359374
vt 0.375000 0.375000
vt 0.125000 0.250000
vt 0.140625 0.250000
vt 0.140625 0.375000
vt 0.125000 0.265626
vt 0.250000 0.265626
vt 0.140626 0.250000
vt 0.140626 0.375000
vt 0.234375 0.250000
vt 0.234375 0.375000
vt 0.500000 0.500000
vt 0.375000 0.625000
vt 0.500000 0.625000
vt 0.375000 0.562500
vt 0.484375 0.625000
vt 0.484375 0.562500
vt 0.500000 0.562519
vt 0.500000 0.500019
vt 0.468750 0.500000
vt 0.406250 0.500000
vt 0.500000 0.562500
vt 0.406250 0.562500
vt 0.484375 0.500000
vt 0.468750 0.562500
vt 0.250000 0.875000
vt 0.500000 1.000000
vt 0.500000 0.875000
vt 0.515625 0.718750
vt 0.375000 0.718750
vt 0.375000 0.734375
vt 0.515625 0.734375
vt 0.382812 0.710938
vt 0.507812 0.710938
vt 0.507812 0.718750
vt 0.515625 0.710938
vt 0.375000 0.710938
vt 0.382812 0.718750
vt 0.109375 0.625000
vt 0.109375 0.500000
vt 0.000000 0.625000
vt 0.124984 0.625019
vt 0.125016 0.500019
vt 0.375000 0.750000
vt 0.000000 0.750000
vt 0.000000 1.000000
vt 0.125000 1.000000
vt 0.125000 0.875000
vt 0.500000 0.515625
vt 0.375000 0.515625
vt 0.265625 0.500000
vt 0.265625 0.625000
vt 0.390625 0.390625
vt 0.390625 0.398438
vt 0.484375 0.398438
vt 0.484375 0.390625
vt 0.250000 0.625000
vt 0.484375 0.484375
vt 0.484375 0.476562
vt 0.390625 0.476562
vt 0.390625 0.484375
vt 0.390625 0.500000
vt 0.390625 0.562500
vt 0.500000 0.250000
vt 0.375000 0.250000
vt 0.500000 0.375000
vt 0.125000 0.968750
vt 0.250000 0.968750
vt 0.390625 0.625000
vt 0.031250 0.500000
vt 0.031250 0.375000
vt 0.125000 0.906250
vt 0.234375 1.000000
vt 0.234375 0.875000
vt 0.234375 0.968750
vt 0.250000 0.750000
vt 0.265625 0.750000
vt 0.124984 0.750019
vt 0.109375 0.750000
vt 0.343750 0.250000
vt 0.000000 0.250000
vt 0.031250 0.250000
vt 0.187500 0.687500
vt 0.375000 0.687500
vt 0.875000 1.000000
vt 0.812500 0.859375
vt 0.562500 0.859375
vt 0.812500 0.851562
vt 0.750000 0.710938
vt 0.625000 0.710938
vt 0.562500 0.851562
vt 0.000000 0.984375
vt 0.125000 0.984375
vt 0.515625 0.875000
vt 0.367188 0.710938
vt 0.375001 0.718750
vt 0.507813 0.718750
vt 0.476562 0.390625
vt 0.476562 0.484375
vt 0.398438 0.484375
vt 0.398438 0.390625
vt 0.000000 0.687500
s 0
usemtl reverberation_furnace.003
f 184/1/1 2/2/1 1/3/1 185/4/1
f 3/5/2 6/6/2 5/7/2 4/8/2
f 7/9/3 10/10/3 9/11/3 8/12/3
f 11/13/2 14/14/2 13/1/2 12/15/2
f 5/7/2 11/13/2 12/15/2 4/8/2
f 15/16/4 18/17/4 17/18/4 16/7/4
f 5/19/5 20/13/5 19/7/5 11/20/5
f 16/7/2 23/13/2 22/15/2 21/8/2
f 16/7/2 21/8/2 13/4/2 14/21/2
f 24/16/2 25/22/2 19/13/2 20/7/2
f 18/16/2 27/22/2 26/13/2 17/7/2
f 11/23/1 19/22/1 25/13/1 28/24/1
f 9/22/3 27/25/3 18/26/3 15/16/3
f 16/19/5 17/13/5 26/7/5 23/20/5
f 23/27/1 26/22/1 27/13/1 9/28/1
f 28/22/3 25/25/3 24/26/3 29/16/3
f 29/16/4 24/29/4 20/30/4 5/7/4
f 30/31/5 33/4/5 32/32/5 31/33/5
f 34/31/5 37/4/5 36/32/5 35/33/5
f 38/34/1 40/32/1 39/35/1 4/36/1
f 41/4/6 44/34/6 43/37/6 42/38/6
f 45/31/5 48/4/5 47/32/5 46/33/5
f 49/39/5 52/4/5 51/32/5 50/33/5
f 53/31/5 43/40/5 44/32/5 54/33/5
f 43/34/1 56/41/1 55/31/1 42/4/1
f 57/40/2 59/42/2 58/41/2 22/31/2
f 57/43/1 55/4/1 56/34/1 59/36/1
f 13/4/2 61/34/2 60/41/2 12/31/2
f 62/4/7 49/34/7 50/41/7 63/31/7
f 4/4/2 39/34/2 64/44/2 3/39/2
f 197/45/1 66/12/1 65/46/1 200/47/1
f 1/2/2 67/3/2 186/4/2 185/1/2
f 68/1/1 184/2/1 185/3/1 187/4/1
f 184/4/8 188/1/8 177/2/8 2/3/8
f 193/1/8 70/2/8 177/3/8 188/4/8
f 199/45/2 72/12/2 71/46/2 201/47/2
f 201/45/4 71/12/4 74/46/4 189/47/4
f 200/45/2 65/12/2 75/46/2 190/47/2
f 190/46/4 75/47/4 76/45/4 198/12/4
f 191/45/1 77/12/1 72/46/1 199/47/1
f 189/45/8 74/12/8 77/46/8 191/47/8
f 198/45/8 76/12/8 66/46/8 197/47/8
f 78/48/1 81/49/1 80/50/1 79/51/1
f 82/52/3 85/49/3 84/48/3 83/53/3
f 86/54/3 88/55/3 81/56/3 87/57/3
f 192/2/4 193/3/4 90/4/4 89/1/4
f 68/4/8 91/1/8 188/2/8 184/3/8
f 188/3/8 91/4/8 90/1/8 193/2/8
f 73/2/4 70/3/4 193/4/4 192/1/4
f 92/58/4 94/59/4 93/1/4 6/60/4
f 95/61/6 97/62/6 69/1/6 96/60/6
f 192/4/2 186/1/2 67/2/2 73/3/2
f 186/3/2 195/63/2 194/64/2 185/2/2
f 186/2/2 192/3/2 196/63/2 195/64/2
f 178/45/8 198/12/8 197/46/8 98/47/8
f 100/45/8 189/12/8 191/46/8 99/47/8
f 99/45/1 191/12/1 199/46/1 101/47/1
f 179/46/4 190/47/4 198/45/4 178/12/4
f 102/45/2 200/12/2 190/46/2 179/47/2
f 103/45/4 201/12/4 189/46/4 100/47/4
f 101/45/2 199/12/2 201/46/2 103/47/2
f 98/45/1 197/12/1 200/46/1 102/47/1
f 180/2/4 106/65/4 105/66/4 104/67/4
f 181/2/2 107/65/2 106/66/2 180/67/2
f 104/2/8 105/65/8 109/66/8 108/67/8
f 108/66/1 109/67/1 107/2/1 181/65/1
f 182/2/2 112/65/2 111/66/2 110/67/2
f 113/66/1 114/67/1 112/2/1 182/65/1
f 183/2/8 115/65/8 114/66/8 113/67/8
f 110/2/4 111/65/4 115/66/4 183/67/4
f 61/68/5 118/69/5 117/32/5 116/33/5
f 116/31/5 117/4/5 48/32/5 45/33/5
f 58/68/5 59/69/5 56/32/5 119/33/5
f 119/31/5 56/4/5 43/32/5 53/33/5
f 120/32/1 10/4/1 7/70/1 121/71/1
f 122/72/3 125/73/3 124/74/3 123/75/3
f 126/32/7 89/4/7 128/8/7 127/76/7
f 129/77/5 132/78/5 131/79/5 130/80/5
f 3/81/4 64/82/4 134/41/4 133/31/4
f 133/4/4 134/34/4 49/41/4 62/31/4
f 64/68/5 39/69/5 40/32/5 134/33/5
f 134/31/5 40/4/5 52/32/5 49/33/5
f 35/34/1 51/32/1 52/33/1 34/41/1
f 34/34/1 52/32/1 40/33/1 38/41/1
f 4/68/5 12/69/5 135/32/5 38/33/5
f 38/83/5 135/84/5 37/21/5 34/85/5
f 21/68/5 22/69/5 137/32/5 136/33/5
f 136/83/5 137/84/5 33/21/5 30/85/5
f 138/45/3 139/67/3 94/86/3 128/87/3
f 32/32/4 33/33/4 53/41/4 54/34/4
f 119/32/4 53/33/4 33/41/4 137/34/4
f 22/82/4 58/88/4 119/33/4 137/41/4
f 31/34/1 47/32/1 48/33/1 30/41/1
f 117/33/1 136/41/1 30/34/1 48/32/1
f 21/36/1 136/34/1 117/32/1 118/35/1
f 12/82/4 60/88/4 140/33/4 135/41/4
f 140/32/4 141/33/4 37/41/4 135/34/4
f 36/41/4 37/34/4 141/32/4 142/33/4
f 140/31/5 116/4/5 45/32/5 141/33/5
f 60/68/5 61/69/5 116/32/5 140/33/5
f 21/4/2 118/34/2 61/41/2 13/31/2
f 141/31/5 45/4/5 46/32/5 142/33/5
f 57/89/2 22/15/2 23/13/2 120/90/2
f 97/9/3 7/91/3 8/66/3 143/12/3
f 143/45/3 8/67/3 145/66/3 144/12/3
f 144/45/3 145/67/3 147/66/3 146/12/3
f 146/45/3 147/67/3 149/66/3 148/12/3
f 148/45/3 149/67/3 139/66/3 138/12/3
f 9/67/3 15/66/3 145/92/3 8/93/3
f 15/67/3 150/66/3 147/92/3 145/93/3
f 150/67/3 28/66/3 149/92/3 147/93/3
f 28/67/3 29/66/3 139/92/3 149/93/3
f 29/67/3 93/86/3 94/94/3 139/93/3
f 62/12/4 127/45/4 92/67/4 133/66/4
f 63/63/7 126/32/7 127/76/7 62/95/7
f 55/12/1 121/45/1 95/67/1 42/66/1
f 57/63/1 120/32/1 121/71/1 55/96/1
f 42/97/6 95/61/6 96/60/6 41/64/6
f 133/98/4 92/58/4 6/60/4 3/64/4
f 93/99/2 29/16/2 5/7/2 6/6/2
f 150/100/2 14/14/2 11/13/2 28/22/2
f 15/16/2 16/7/2 14/21/2 150/84/2
f 10/101/2 120/90/2 23/13/2 9/22/2
f 69/45/3 97/91/3 143/66/3 151/12/3
f 143/67/3 144/66/3 152/12/3 151/45/3
f 144/67/3 146/66/3 153/12/3 152/45/3
f 146/67/3 148/66/3 154/12/3 153/45/3
f 148/67/3 138/66/3 155/12/3 154/45/3
f 89/12/3 155/45/3 138/67/3 128/86/3
s 1
f 154/45/3 155/67/3 89/2/3 202/102/3
f 204/102/3 68/2/3 69/3/3
f 91/3/3 68/2/3 204/102/3 203/103/3
s 0
f 67/46/9 1/104/9 102/105/9 179/106/9
f 1/46/10 2/104/10 98/105/10 102/106/10
f 67/104/11 179/105/11 178/106/11 177/46/11
f 177/104/10 99/105/10 101/106/10 67/46/10
f 67/104/9 101/105/9 103/106/9 73/46/9
f 73/104/11 103/105/11 100/106/11 70/46/11
f 70/104/12 100/105/12 99/106/12 177/46/12
f 177/104/12 178/105/12 98/106/12 2/46/12
f 74/107/12 104/108/12 108/109/12 77/110/12
f 71/107/11 180/108/11 104/109/11 74/110/11
f 72/107/9 181/108/9 180/109/9 71/110/9
f 77/107/10 108/108/10 181/109/10 72/110/10
f 76/107/12 183/108/12 113/109/12 66/110/12
f 75/107/11 110/108/11 183/109/11 76/110/11
f 65/107/9 182/108/9 110/109/9 75/110/9
f 66/107/10 113/108/10 182/109/10 65/110/10
f 112/2/2 157/111/2 156/112/2 111/67/2
f 114/2/1 87/111/1 157/112/1 112/67/1
f 115/2/8 86/111/8 87/112/8 114/67/8
f 111/2/4 156/111/4 86/112/4 115/67/4
f 106/2/4 158/111/4 82/112/4 105/67/4
f 107/2/2 159/111/2 158/112/2 106/67/2
f 105/2/8 82/111/8 83/112/8 109/67/8
f 109/2/1 83/111/1 159/112/1 107/67/1
f 79/50/2 161/51/2 160/48/2 78/49/2
f 79/50/5 80/3/5 162/113/5 161/51/5
f 157/57/3 87/54/3 81/55/3 78/56/3
f 156/53/3 157/52/3 78/49/3 160/48/3
f 162/50/8 80/51/8 81/48/8 88/49/8
f 88/48/4 160/49/4 161/50/4 162/51/4
f 86/53/3 156/52/3 160/49/3 88/48/3
f 158/49/3 159/54/3 164/55/3 163/114/3
f 82/53/3 158/52/3 163/49/3 85/48/3
f 84/55/3 164/114/3 159/115/3 83/116/3
f 163/49/4 166/50/4 165/51/4 85/48/4
f 84/48/8 85/49/8 165/50/8 167/51/8
f 168/50/5 167/3/5 165/113/5 166/51/5
f 164/48/1 84/49/1 167/50/1 168/51/1
f 168/50/2 166/51/2 163/48/2 164/49/2
f 123/75/1 7/85/1 97/21/1 122/72/1
f 169/77/1 121/31/1 7/85/1 123/75/1
f 122/72/1 97/21/1 95/4/1 170/80/1
f 170/80/1 95/4/1 121/31/1 169/77/1
f 171/75/4 128/85/4 94/21/4 172/72/4
f 129/77/4 127/31/4 128/85/4 171/75/4
f 172/72/4 94/21/4 92/4/4 130/80/4
f 130/80/4 92/4/4 127/31/4 129/77/4
f 173/77/1 124/75/1 125/72/1 174/80/1
f 169/77/5 173/78/5 174/79/5 170/80/5
f 123/75/2 124/117/2 173/118/2 169/77/2
f 170/80/8 174/119/8 125/120/8 122/72/8
f 132/77/4 176/75/4 175/72/4 131/80/4
f 171/120/8 176/72/8 132/80/8 129/119/8
f 130/80/2 131/119/2 175/120/2 172/72/2
f 172/72/3 175/73/3 176/74/3 171/75/3
s 1
f 90/3/3 202/102/3 89/2/3
f 90/3/3 91/2/3 203/121/3 202/102/3
f 203/121/3 204/102/3 152/67/3 153/2/3
f 204/102/3 69/3/3 151/45/3 152/67/3
f 203/103/3 153/3/3 154/45/3 202/102/3
