# Made in Blockbench 4.11.1
mtllib bloomery.mtl

usemtl bloomery
o cube
v 0.3749999999999999 0.375 0.3750000000000001
v 0.3750000000000001 0.375 1.625
v 0.3749999999999999 0 0.3750000000000001
v 0.3750000000000001 0 1.625
v 1.625 0.375 0.3749999999999999
v 1.625 0.375 1.625
v 1.625 0 0.3749999999999999
v 1.625 0 1.625
v 0.625 0.875 1.625
v 0.6250000000000001 0.875 1.8125
v 0.625 0 1.625
v 0.6250000000000001 0 1.8125
v 1.375 0.875 1.625
v 1.375 0.875 1.8125
v 1.375 0 1.625
v 1.375 0 1.8125
v 0.5625 2.625 0.5625
v 0.5625 2.625 1.4375
v 0.1874999999999999 0.875 0.1875000000000001
v 0.1875000000000001 0.875 1.8125
v 1.4375 2.625 0.5625
v 1.4375 2.625 1.4375
v 1.8125 0.875 0.1874999999999999
v 1.8125 0.875 1.8125
v 0.5625 2.875 1.4375
v 1.4375 2.875 1.4375
v 0.5625 2.875 0.5625
v 1.4375 2.875 0.5625
v 0.75 2.875 0.7500000000000001
v 0.75 2.875 1.25
v 1.25 2.875 1.25
v 1.25 2.875 0.75
v 0.75 2.6875 0.7500000000000001
v 0.75 2.6875 1.25
v 1.25 2.6875 1.25
v 1.25 2.6875 0.75
v 0.1874999999999999 0.875 0.1875000000000001
v 0.1875000000000001 0.875 1.8125
v 0.3749999999999999 0.375 0.3750000000000001
v 0.3750000000000001 0.375 1.625
v 1.8125 0.875 0.1874999999999999
v 1.8125 0.875 1.8125
v 1.625 0.375 0.3749999999999999
v 1.625 0.375 1.625
v 0.625 1.9321032270699776 1.5799031354670838
v 0.625 1.9450977077460876 1.6410373605129467
v 0.6250000000000001 1.320760976611349 1.7098479422281834
v 0.6250000000000001 1.333755457287459 1.7709821672740462
v 1.375 1.9321032270699776 1.5799031354670838
v 1.375 1.9450977077460876 1.6410373605129467
v 1.375 1.320760976611349 1.7098479422281834
v 1.375 1.333755457287459 1.7709821672740462
vt 0.3125 0.21875
vt 0.3125 0.3125
vt 0 0.3125
vt 0 0.21875
vt 0.3125 0.21875
vt 0.3125 0.3125
vt 0 0.3125
vt 0 0.21875
vt 0.75 0.296875
vt 0.75 0.609375
vt 0.4375 0.609375
vt 0.4375 0.296875
vt 0.3125 0.21875
vt 0.3125 0.3125
vt 0 0.3125
vt 0 0.21875
vt 0.3125 0.21875
vt 0.3125 0.3125
vt 0 0.3125
vt 0 0.21875
vt 0.8125 0.546875
vt 0.8125 0.765625
vt 0.765625 0.765625
vt 0.765625 0.546875
vt 0.875 0.546875
vt 0.875 0.765625
vt 0.828125 0.765625
vt 0.828125 0.546875
vt 0.75 0.359375
vt 0.75 0.40625
vt 0.5625 0.40625
vt 0.5625 0.359375
vt 0.953125 0.78125
vt 0.953125 1
vt 0.765625 1
vt 0.765625 0.78125
vt 0.40625 0.49006875000000005
vt 0.3125 0.9375
vt 0.09375 0.9375
vt 0 0.49006875000000005
vt 0.40625 0.49006875000000005
vt 0.3125 0.9375
vt 0.09375 0.9375
vt 0 0.49006875000000005
vt 0.40625 0.49006875000000005
vt 0.3125 0.9375
vt 0.09375 0.9375
vt 0 0.49006875000000005
vt 0.40625 0.49006875000000005
vt 0.3125 0.9375
vt 0.09375 0.9375
vt 0 0.49006875000000005
vt 0.75 0.765625
vt 0.53125 0.765625
vt 0.53125 0.703125
vt 0.75 0.703125
vt 0.75 0.765625
vt 0.53125 0.765625
vt 0.53125 0.703125
vt 0.75 0.703125
vt 0.75 0.765625
vt 0.53125 0.765625
vt 0.53125 0.703125
vt 0.75 0.703125
vt 0.75 0.765625
vt 0.53125 0.765625
vt 0.53125 0.703125
vt 0.75 0.703125
vt 0.703125 0.828125
vt 0.75 0.78125
vt 0.75 1
vt 0.7031249999999999 0.953125
vt 0.75 1
vt 0.53125 1
vt 0.578125 0.953125
vt 0.7031249999999999 0.953125
vt 0.53125 1
vt 0.53125 0.78125
vt 0.578125 0.828125
vt 0.578125 0.953125
vt 0.578125 0.828125
vt 0.53125 0.78125
vt 0.75 0.78125
vt 0.703125 0.828125
vt 0.703125 0.828125
vt 0.7031249999999999 0.953125
vt 0.578125 0.953125
vt 0.578125 0.828125
vt 0.578125 0.640625
vt 0.703125 0.640625
vt 0.703125 0.6875
vt 0.578125 0.6875
vt 0.578125 0.640625
vt 0.703125 0.640625
vt 0.703125 0.6875
vt 0.578125 0.6875
vt 0.578125 0.640625
vt 0.703125 0.640625
vt 0.703125 0.6875
vt 0.578125 0.6875
vt 0.578125 0.640625
vt 0.703125 0.640625
vt 0.703125 0.6875
vt 0.578125 0.6875
vt 0.359375 0.328125
vt 0.40625 0.46875
vt 0 0.46875
vt 0.046875 0.328125
vt 0.359375 0.328125
vt 0.40625 0.46875
vt 0 0.46875
vt 0.046875 0.328125
vt 0.359375 0.328125
vt 0.40625 0.46875
vt 0 0.46875
vt 0.046875 0.328125
vt 0.359375 0.328125
vt 0.40625 0.46875
vt 0 0.46875
vt 0.046875 0.328125
vt 0.78125 0.296875
vt 0.78125 0.453125
vt 0.765625 0.453125
vt 0.765625 0.296875
vt 0.953125 0.296875
vt 0.953125 0.453125
vt 0.9375 0.453125
vt 0.9375 0.296875
vt 0.953125 0.4375
vt 0.953125 0.453125
vt 0.765625 0.453125
vt 0.765625 0.4375
vt 0.953125 0.296875
vt 0.953125 0.3125
vt 0.765625 0.3125
vt 0.765625 0.296875
vt 0.953125 0.296875
vt 0.953125 0.453125
vt 0.765625 0.453125
vt 0.765625 0.296875
vt 0.953125 0.296875
vt 0.953125 0.453125
vt 0.765625 0.453125
vt 0.765625 0.296875
vn -1 0 1.2246467991473532e-16
vn 1 0 -1.2246467991473532e-16
vn 0 -1 0
vn -1.2246467991473532e-16 0 -1
vn 1.2246467991473532e-16 0 1
vn -1 0 1.2246467991473532e-16
vn 1 0 -1.2246467991473532e-16
vn 0 -1 0
vn 1.2246467991473532e-16 0 1
vn -0.9778024140774095 0.20952908873087345 1.1974625965984545e-16
vn 0.9778024140774095 0.20952908873087345 -1.1974625965984545e-16
vn -1.1974625965984545e-16 0.20952908873087345 -0.9778024140774095
vn 1.1974625965984545e-16 0.20952908873087345 0.9778024140774095
vn -1 0 1.2246467991473532e-16
vn 1.2246467991473532e-16 0 1
vn 1 0 -1.2246467991473532e-16
vn -1.2246467991473532e-16 0 -1
vn 0 1 0
vn 0 1 0
vn 0 1 0
vn 0 1 0
vn 0 1 0
vn 1 0 -1.2246467991473532e-16
vn -1.2246467991473532e-16 0 -1
vn -1 0 -9.957992501029599e-17
vn 3.4450928483976665e-16 0 1
vn -0.9363291775690447 -0.3511234415883917 1.1466725302582041e-16
vn 0.9363291775690447 -0.3511234415883917 -1.1466725302582041e-16
vn -1.1466725302582041e-16 -0.3511234415883917 -0.9363291775690447
vn 1.1466725302582041e-16 -0.3511234415883917 0.9363291775690447
vn -1 0 1.2246467991473532e-16
vn 1 0 -1.2246467991473532e-16
vn -2.5461838666528345e-17 0.9781476007338056 -0.2079116908177596
vn 2.5461838666528345e-17 -0.9781476007338056 0.2079116908177596
vn -1.1978853283323184e-16 -0.2079116908177593 -0.9781476007338058
vn 1.1978853283323184e-16 0.2079116908177593 0.9781476007338058
f 4/1/1 2/2/1 1/3/1 3/4/1
f 7/5/2 5/6/2 6/7/2 8/8/2
f 4/9/3 3/10/3 7/11/3 8/12/3
f 3/13/4 1/14/4 5/15/4 7/16/4
f 8/17/5 6/18/5 2/19/5 4/20/5
f 12/21/6 10/22/6 9/23/6 11/24/6
f 15/25/7 13/26/7 14/27/7 16/28/7
f 12/29/8 11/30/8 15/31/8 16/32/8
f 16/33/9 14/34/9 10/35/9 12/36/9
f 20/37/10 18/38/10 17/39/10 19/40/10
f 23/41/11 21/42/11 22/43/11 24/44/11
f 19/45/12 17/46/12 21/47/12 23/48/12
f 24/49/13 22/50/13 18/51/13 20/52/13
f 25/53/14 27/54/14 17/55/14 18/56/14
f 26/57/15 25/58/15 18/59/15 22/60/15
f 28/61/16 26/62/16 22/63/16 21/64/16
f 27/65/17 28/66/17 21/67/17 17/68/17
f 29/69/18 27/70/18 25/71/18 30/72/18
f 25/73/19 26/74/19 31/75/19 30/76/19
f 26/77/20 28/78/20 32/79/20 31/80/20
f 32/81/21 28/82/21 27/83/21 29/84/21
f 33/85/22 34/86/22 35/87/22 36/88/22
f 34/89/23 33/90/23 29/91/23 30/92/23
f 35/93/24 34/94/24 30/95/24 31/96/24
f 36/97/25 35/98/25 31/99/25 32/100/25
f 33/101/26 36/102/26 32/103/26 29/104/26
f 40/105/27 38/106/27 37/107/27 39/108/27
f 43/109/28 41/110/28 42/111/28 44/112/28
f 39/113/29 37/114/29 41/115/29 43/116/29
f 44/117/30 42/118/30 38/119/30 40/120/30
f 48/121/31 46/122/31 45/123/31 47/124/31
f 51/125/32 49/126/32 50/127/32 52/128/32
f 45/129/33 46/130/33 50/131/33 49/132/33
f 48/133/34 47/134/34 51/135/34 52/136/34
f 47/137/35 45/138/35 49/139/35 51/140/35
f 52/141/36 50/142/36 46/143/36 48/144/36