# Blender 4.2.3 LTS
# www.blender.org
mtllib bloomery_industrial.mtl
o cube_selection
v 0.630343 -0.000000 1.879346
v 0.630343 -0.000000 2.004346
v 1.380343 -0.000000 1.879346
v 1.380343 -0.000000 2.004346
v 0.133041 0.003743 0.132044
v 1.877646 0.003743 0.132044
v 1.880343 0.003743 1.873951
v 0.755343 0.875000 1.691846
v 0.755343 0.875000 2.004346
v 0.630343 -0.000000 1.691846
v 0.630343 -0.000000 2.004346
v 1.255343 0.875000 1.691846
v 1.255343 0.875000 2.004346
v 1.380343 -0.000000 1.691846
v 1.380343 -0.000000 2.004346
v 1.641133 1.492514 1.629346
v 0.374948 1.492514 0.373951
v 0.133041 0.003743 1.876649
v 1.635738 1.492514 0.373951
v 0.380343 1.492514 1.640136
v 0.572228 1.950569 0.576693
v 0.572173 1.951719 1.437170
v 1.438994 1.950675 0.576688
v 1.439048 1.951825 1.437175
v 0.640459 2.179127 1.370757
v 1.370760 2.179127 1.370757
v 0.640459 2.180379 0.633857
v 1.370760 2.180379 0.633856
v 0.780290 2.187500 0.779293
v 0.780290 2.187500 1.229932
v 1.230929 2.187500 1.229932
v 1.230929 2.187500 0.779293
v 0.780290 2.000000 0.779293
v 0.780290 2.000000 1.229932
v 1.230929 2.000000 1.229932
v 1.230929 2.000000 0.779293
v 1.568686 1.486668 1.557824
v 0.447392 1.486461 0.446514
v 1.563829 1.486567 0.446509
v 0.452250 1.486562 1.567553
vn -0.0000 -1.0000 -0.0000
vn -0.9899 0.1414 -0.0000
vn 0.9899 0.1414 -0.0000
vn -0.0000 1.0000 -0.0000
vn 0.9874 0.1579 -0.0043
vn -0.9872 0.1597 0.0042
vn -0.0000 0.1604 -0.9871
vn 0.0085 0.1555 0.9878
vn 0.0084 0.1555 0.9878
vn -0.9587 0.2846 0.0005
vn -0.0000 0.2804 0.9599
vn 0.9577 0.2879 0.0005
vn -0.0000 0.2415 -0.9704
vn -0.0526 0.9986 0.0017
vn -0.0000 0.9982 0.0594
vn 0.0526 0.9986 0.0017
vn -0.0000 0.9988 -0.0489
vn 1.0000 -0.0000 -0.0000
vn -0.0000 -0.0000 -1.0000
vn -1.0000 -0.0000 -0.0000
vn -0.0000 -0.0000 1.0000
vn 0.0084 0.2679 0.9634
vn -0.0000 0.2701 -0.9628
vn -0.9684 0.2495 -0.0004
vn -0.9684 0.2496 -0.0004
vn 0.9633 0.2684 -0.0004
vn -0.0822 0.9966 0.0003
vn 0.0820 0.9966 -0.0004
vn -0.0008 0.9966 -0.0825
vn -0.0001 0.9967 0.0817
vt 0.750000 0.359375
vt 0.750000 0.390625
vt 0.562500 0.390625
vt 0.562500 0.359375
vt 1.000000 0.000000
vt 1.000000 0.312500
vt 0.687500 0.312500
vt 0.687500 0.000000
vt 0.781250 0.482153
vt 0.781250 0.703125
vt 0.703125 0.703125
vt 0.703125 0.482153
vt 0.765625 0.482155
vt 0.765625 0.703125
vt 0.687500 0.703125
vt 0.687500 0.482155
vt 0.546875 0.671875
vt 0.671875 0.671875
vt 0.671875 0.750000
vt 0.546875 0.750000
vt 0.340604 0.843750
vt 0.081857 0.843750
vt 0.031250 0.499220
vt 0.389272 0.498883
vt 0.703125 0.468750
vt 0.484375 0.468750
vt 0.484375 0.406250
vt 0.703125 0.406250
vt 0.664062 0.414062
vt 0.710938 0.460938
vt 0.492188 0.460938
vt 0.539062 0.414062
vt 0.687500 0.468750
vt 0.468750 0.468750
vt 0.515625 0.421875
vt 0.640625 0.421875
vt 0.695312 0.445312
vt 0.476562 0.445312
vt 0.523438 0.398438
vt 0.648438 0.398438
vt 0.656250 0.421875
vt 0.531250 0.421875
vt 0.171875 0.312500
vt 0.171875 0.437500
vt 0.046875 0.437500
vt 0.046875 0.312500
vt 0.046875 0.187500
vt 0.171875 0.187500
vt 0.171875 0.234375
vt 0.046875 0.234375
vt 0.086017 0.609375
vt 0.046875 0.517425
vt 0.362084 0.517425
vt 0.320936 0.608470
vt 0.346447 0.501959
vt 0.306311 0.593750
vt 0.071386 0.593750
vt 0.031250 0.501959
vt 0.363421 0.518532
vt 0.321772 0.609375
vt 0.088676 0.609375
vt 0.046875 0.518342
vt 0.334835 0.608645
vt 0.101740 0.609375
vt 0.062500 0.517475
vt 0.376349 0.517475
vt 0.984375 0.000000
vt 1.000000 0.015625
vt 1.000000 0.296875
vt 0.984375 0.312500
vt 0.796875 0.000000
vt 0.812500 0.015625
vt 0.812500 0.296875
vt 0.796875 0.312500
vt 0.734375 0.296875
vt 0.734375 0.015625
vt 0.750000 0.000000
vt 0.750000 0.312500
vt 0.875000 0.296875
vt 0.875000 0.015625
vt 0.890625 0.000000
vt 0.890625 0.312500
vt 0.421875 0.250000
vt 0.390625 0.468750
vt 0.265625 0.468750
vt 0.234375 0.250000
s 0
usemtl bloomery
f 2/1/1 1/2/1 3/3/1 4/4/1
f 18/5/1 5/6/1 6/7/1 7/8/1
f 11/9/2 9/10/2 8/11/2 10/12/2
f 14/13/3 12/14/3 13/15/3 15/16/3
f 12/17/4 8/18/4 9/19/4 13/20/4
f 19/21/5 16/22/5 7/23/5 6/24/5
f 20/21/6 17/22/6 5/23/6 18/24/6
f 17/21/7 19/22/7 6/23/7 5/24/7
f 16/21/8 20/22/9 18/23/8 7/24/9
f 25/25/10 27/26/10 21/27/10 22/28/10
f 26/25/11 25/26/11 22/27/11 24/28/11
f 28/25/12 26/26/12 24/27/12 23/28/12
f 27/25/13 28/26/13 23/27/13 21/28/13
f 29/29/14 27/30/14 25/31/14 30/32/14
f 25/33/15 26/34/15 31/35/15 30/36/15
f 26/37/16 28/38/16 32/39/16 31/40/16
f 32/41/17 28/25/17 27/26/17 29/42/17
f 33/43/4 34/44/4 35/45/4 36/46/4
f 34/47/18 33/48/18 29/49/18 30/50/18
f 35/47/19 34/48/19 30/49/19 31/50/19
f 36/47/20 35/48/20 31/49/20 32/50/20
f 33/47/21 36/48/21 32/49/21 29/50/21
f 22/51/22 40/52/22 37/53/22 24/54/22
f 38/55/23 21/56/23 23/57/23 39/58/23
f 40/59/24 22/60/25 21/61/24 38/62/25
f 23/63/26 24/64/26 37/65/26 39/66/26
f 19/67/27 39/68/27 37/69/27 16/70/27
f 20/71/28 40/72/28 38/73/28 17/74/28
f 37/75/29 40/76/29 20/77/29 16/78/29
f 38/79/30 39/80/30 19/81/30 17/82/30
f 15/83/21 13/84/21 9/85/21 11/86/21
