# Made in Blockbench 4.11.1
mtllib drawing_table.mtl


o scroll_1
v 0.5625 0 0.6875000000000002
v 0.75 0 0.6875000000000002
v 0.75 -9.159339953157541e-16 2.220446049250313e-16
v 0.75 0.18749999999999908 0
v 0.75 0.1875 0.6875
v 0.5625 0.1875 0.6875
v 0.5625 0.18749999999999908 0
v 0.5625 -9.159339953157541e-16 2.220446049250313e-16
vt 0.3333333333333333 0.25
vt 0.5625 0.25
vt 0.5625 0.3125
vt 0.3333333333333333 0.3125
vt 0.3125 0.25
vt 0.3125 0.3125
vt 0.25 0.3125
vt 0.25 0.25
vn 1 0 0
vn -1 0 0
vn 0 -1.1842378929335002e-15 -1
vn 0 1.1842378929335002e-15 1
vn 0 1 -1.3322676295501878e-15
vn 0 -1 1.3322676295501878e-15
usemtl m_f74281d9-4ba1-d8ab-bcd5-548bba4f0cc1
f 2/1/1 3/2/1 4/3/1 5/4/1
f 6/1/2 7/2/2 8/3/2 1/4/2
f 4/5/3 3/6/3 8/7/3 7/8/3
f 2/5/4 5/6/4 6/7/4 1/8/4
f 5/1/5 4/2/5 7/3/5 6/4/5
f 1/1/6 8/2/6 3/3/6 2/4/6

o scroll_2
v 0.5 2.7755575615628914e-17 0.7500000000000002
v 0.559919573139015 -8.881784197001252e-16 0.0651161450619252
v 0.559919573139015 0.18749999999999908 0.06511614506192498
v 0.5 0.1875 0.75
v 0.3132134941077977 0.1875 0.7336582982348141
v 0.37313306724681267 0.18749999999999908 0.04877444329673908
v 0.3731330672468126 -8.881784197001252e-16 0.0487744432967393
v 0.31321349410779764 2.7755575615628914e-17 0.7336582982348143
vt 0.3333333333333333 0.25
vt 0.5625 0.25
vt 0.5625 0.3125
vt 0.3333333333333333 0.3125
vt 0.3125 0.25
vt 0.3125 0.3125
vt 0.25 0.3125
vt 0.25 0.25
vn 0.9961946980917457 1.0765799026668187e-16 0.08715574274765814
vn -0.9961946980917457 2.153159805333638e-16 -0.08715574274765815
vn 0.08715574274765811 -1.1797315102196935e-15 -0.9961946980917455
vn -0.08715574274765812 1.1797315102196933e-15 0.9961946980917455
vn 1.1611477479210834e-16 1 -1.327197948997155e-15
vn -1.1611477479210829e-16 -1 1.3271979489971546e-15
usemtl m_f74281d9-4ba1-d8ab-bcd5-548bba4f0cc1
f 9/9/7 10/10/7 11/11/7 12/12/7
f 13/9/8 14/10/8 15/11/8 16/12/8
f 11/13/9 10/14/9 15/15/9 14/16/9
f 9/13/10 12/14/10 13/15/10 16/16/10
f 12/9/11 11/10/11 14/11/11 13/12/11
f 16/9/12 15/10/12 10/11/12 9/12/12

o scroll_3
v 0.6875 0.1875 0.6875000000000002
v 0.6875 0.18749999999999908 2.220446049250313e-16
v 0.6875 0.3749999999999991 0
v 0.6875 0.375 0.6875
v 0.5 0.375 0.6875
v 0.5 0.3749999999999991 0
v 0.5 0.18749999999999908 2.220446049250313e-16
v 0.5 0.1875 0.6875000000000002
vt 0.3333333333333333 0.25
vt 0.5625 0.25
vt 0.5625 0.3125
vt 0.3333333333333333 0.3125
vt 0.3125 0.25
vt 0.3125 0.3125
vt 0.25 0.3125
vt 0.25 0.25
vn 1 0 0
vn -1 0 0
vn 0 -1.1842378929335e-15 -1
vn 0 1.1842378929335002e-15 1
vn 0 1 -1.2918958832001822e-15
vn 0 -1 1.3322676295501878e-15
usemtl m_f74281d9-4ba1-d8ab-bcd5-548bba4f0cc1
f 17/17/13 18/18/13 19/19/13 20/20/13
f 21/17/14 22/18/14 23/19/14 24/20/14
f 19/21/15 18/22/15 23/23/15 22/24/15
f 17/21/16 20/22/16 21/23/16 24/24/16
f 20/17/17 19/18/17 22/19/17 21/20/17
f 24/17/18 23/18/18 18/19/18 17/20/18

o base_model
v 0.25 0 0.0625
v 0.25 0.8125 0.0625
v 0.25 0.8125 0.25
v 0.25 0 0.25
v 0.0625 0 0.25
v 0.0625 0.8125 0.25
v 0.0625 0.8125 0.0625
v 0.0625 0 0.0625
v 0.25 0 0.75
v 0.25 0.8125 0.75
v 0.25 0.8125 0.9375
v 0.25 0 0.9375
v 0.0625 0 0.9375
v 0.0625 0.8125 0.9375
v 0.0625 0.8125 0.75
v 0.0625 0 0.75
v 0.25 1 0.9375
v 0.25 1 0.75
v 0.0625 1 0.75
v 0.0625 1 0.9375
v 1.9375 0 0.75
v 1.9375 0.8125 0.75
v 1.9375 0.8125 0.9375
v 1.9375 0 0.9375
v 1.75 0 0.9375
v 1.75 0.8125 0.9375
v 1.75 0.8125 0.75
v 1.75 0 0.75
v 1.9375 1 0.9375
v 1.9375 1 0.75
v 1.75 1 0.75
v 1.75 1 0.9375
v 1.9375 0 0.0625
v 1.9375 0.8125 0.0625
v 1.9375 0.8125 0.25
v 1.9375 0 0.25
v 1.75 0 0.25
v 1.75 0.8125 0.25
v 1.75 0.8125 0.0625
v 1.75 0 0.0625
v 2 0.6205904774487396 0.017037086855465844
v 2 0.80170156987794 -0.031491484101256795
v 2 1.0605206149804607 0.9344343421878115
v 2 0.8794095225512604 0.9829629131445341
v 0 0.8794095225512604 0.9829629131445341
v 0 1.0605206149804607 0.9344343421878115
v 0 0.80170156987794 -0.031491484101256795
v 0 0.6205904774487396 0.017037086855465844
v 2 0.8782481243399143 0.01270268972290245
v 2 0.8620719340210068 -0.047667674420164285
v 0 0.8620719340210068 -0.047667674420164285
v 0 0.8782481243399143 0.01270268972290245
v 2 0.8178777601968475 0.028878880041809996
v 0 0.8178777601968475 0.028878880041809996
v 1.75 0.3125 0.75
v 1.75 0.5 0.75
v 1.75 0.5 0.9375
v 1.75 0.3125 0.9375
v 0.25 0.3125 0.9375
v 0.25 0.5 0.9375
v 0.25 0.5 0.75
v 0.25 0.3125 0.75
v 1.414784651272899 0 -0.01575946760650848
v 1.414784651272899 0.625 -0.01575946760650848
v 1.5765465544619743 0.625 0.5879441738241592
v 1.5765465544619743 0 0.5879441738241592
v 0.9728429130313065 0 0.7497060770132347
v 0.9728429130313065 0.625 0.7497060770132347
v 0.8110810098422312 0.625 0.14600243558256693
v 0.8110810098422312 0 0.14600243558256693
v 2 1.0005926648855819 0.9501148536508985
v 2 1.1213333931717153 0.9177624730130834
v 2 1.137509583490623 0.9781328371561502
v 2 1.0167688552044896 1.0104852177939652
v 0 1.0167688552044896 1.0104852177939652
v 0 1.137509583490623 0.9781328371561502
v 0 1.1213333931717153 0.9177624730130834
v 0 1.0005926648855819 0.9501148536508985
v 1.5625 0.7804803367273045 0.0320518789630273
v 1.5625 0.8408507008703714 0.0158756886441197
v 1.5625 1.0996697459728921 0.981801514933188
v 1.5625 1.0392993818298253 0.9979777052520956
v 0.5625 1.0392993818298253 0.9979777052520956
v 0.5625 1.0996697459728921 0.981801514933188
v 0.5625 0.8408507008703714 0.0158756886441197
v 0.5625 0.7804803367273045 0.0320518789630273
v 1.5625000000000002 0.8786905383881024 0.012207010867082313
v 1.875 0.8786905383881025 0.012207010867082424
v 1.875 0.8183201742450358 0.02838320118598997
v 1.5625000000000002 0.8183201742450357 0.028383201185989804
v 1.5625000000000002 0.8344963645639432 0.0887535653290566
v 1.875 0.8344963645639433 0.08875356532905676
v 1.875 0.89486672870701 0.07257737501014916
v 1.5625000000000002 0.8948667287070099 0.07257737501014905
v 1.5000000000000002 0.8565934514760228 0.05048028809806937
v 0.0625 0.8183201742450358 0.02838320118598997
v 0.0625 0.8786905383881025 0.012207010867082424
v 0.3749999999999998 0.8786905383881024 0.012207010867082313
v 0.3749999999999998 0.8183201742450357 0.028383201185989804
v 0.0625 0.89486672870701 0.07257737501014916
v 0.0625 0.8344963645639433 0.08875356532905676
v 0.3749999999999998 0.8344963645639432 0.0887535653290566
v 0.3749999999999998 0.8948667287070099 0.07257737501014905
v 0.4374999999999998 0.8565934514760228 0.05048028809806937
v 1.3195471143844555 0.8781558561048968 0.01021154942025182
v 1.6213989350997893 0.8990893867635781 0.08833654942025171
v 1.6213989350997893 0.8387190226205115 0.1045127397391592
v 1.3195471143844555 0.81778549196183 0.02638773973915931
v 1.303370924065548 0.8334104919618299 0.08470103360742298
v 1.6052227447808818 0.8543440226205113 0.16282603360742298
v 1.6052227447808818 0.9147143867635781 0.14664984328851544
v 1.303370924065548 0.8937808561048967 0.06852484328851549
v 1.2510886550819351 0.8515964679016271 0.031831291513837456
v 1.6375 0.9908095242027309 0.5678240896423326
v 1.6375 1.0511798883457977 0.5516478993234251
v 1.6375 1.180589410897058 1.0346108124679592
v 1.6375 1.1202190467539912 1.0507870027868667
v 1.575 1.1202190467539912 1.0507870027868667
v 1.575 1.180589410897058 1.0346108124679592
v 1.575 1.0511798883457977 0.5516478993234251
v 1.575 0.9908095242027309 0.5678240896423326
v 1.7374999999999998 0.9908095242027309 0.5678240896423326
v 1.7374999999999998 1.0511798883457977 0.5516478993234251
v 1.7374999999999998 1.180589410897058 1.0346108124679592
v 1.7374999999999998 1.1202190467539912 1.0507870027868667
v 1.675 1.1202190467539912 1.0507870027868667
v 1.675 1.180589410897058 1.0346108124679592
v 1.675 1.0511798883457977 0.5516478993234251
v 1.675 0.9908095242027309 0.5678240896423326
v 1.1671020268251515 1.0180603832585826 0.669525680188672
v 1.1671020268251515 1.0784307474016495 0.6533494898697644
v 1.6595059033312556 1.0559590196378756 0.5694838601215041
v 1.6595059033312556 0.9955886554948088 0.5856600504404116
v 1.6703589144354387 1.01151909313507 0.645113253100674
v 1.6703589144354387 1.0718894572781368 0.6289370627817664
v 1.1779550379293346 1.0943611850419106 0.7128026925300267
v 1.1779550379293346 1.0339908208988438 0.7289788828489343
v 1.1497372090584586 0.9925716830341648 0.5744005559322521
v 1.1497372090584586 1.0529420471772315 0.5582243656133447
v 1.6421410855645624 1.0304703194134577 0.47435873586508437
v 1.6421410855645624 0.970099955270391 0.49053492618399186
v 1.6529940966687455 0.9860303929106521 0.5499881288442542
v 1.6529940966687455 1.0464007570537188 0.5338119385253467
v 1.1605902201626415 1.0688724848174926 0.617677568273607
v 1.1605902201626415 1.008502120674426 0.6338537585925146
v 1.5476447564988316 0.9771643531123523 0.49275147219784776
v 1.5476447564988316 1.037534717255419 0.47657528187894027
v 1.7322962101886206 1.029107819344004 0.44512567072334264
v 1.7322962101886206 0.9687374552009371 0.4613018610422502
v 1.76485524350117 1.0165287681217205 0.6396614690230372
v 1.76485524350117 1.0768991322647874 0.6234852787041297
v 1.580203789811381 1.0853260301762027 0.6549348898597274
v 1.580203789811381 1.0249556660331358 0.6711110801786349
v 1.0719423441487885 1.0099173466697404 0.6149873082539926
v 1.0719423441487885 1.0702877108128073 0.5988111179350851
v 0.8710712161217451 1.1322461143359779 0.8300430278394126
v 0.8710712161217451 1.071875750192911 0.8462192181583201
v 0.7753156607318729 1.051080040775061 0.7686085740314645
v 0.7753156607318729 1.1114504049181275 0.7524323837125569
v 0.9761867887589163 1.049492001394957 0.5212004738082294
v 0.9761867887589163 0.9891216372518902 0.5373766641271369
v 1.152290795359606 0.9851339852604721 0.5224945442922616
v 1.152290795359606 1.045504349403539 0.506318353973354
v 0.6410423448943634 0.9163366542894144 0.26573940968314214
v 0.6410423448943634 0.9767070184324811 0.24956321936423453
v 0.7213907961051808 0.9519236570232128 0.15707045540250353
v 0.7213907961051808 0.8915532928801461 0.17324664572141102
v 1.2959241284444136 1.0163275493872468 0.638910510482546
v 1.2959241284444136 1.0766979135303134 0.6227343201636385
v 1.1754014516281877 1.113872955644216 0.761473466106235
v 1.1754014516281877 1.053502591501149 0.7776496564251425
v 1.0317681185433791 1.0223090273743738 0.661233690234859
v 1.0317681185433791 1.0826793915174406 0.6450574999159515
v 1.1522907953596053 1.045504349403538 0.5063183539733549
v 1.1522907953596053 0.9851339852604714 0.5224945442922625
vt 0.75 0.6666666666666667
vt 0.75 0.9375
vt 0.6875 0.9375
vt 0.6875 0.6666666666666667
vt 0.75 1
vt 0.6875 1
vt 0.75 0.875
vt 0.6875 0.875
vt 0.5833333333333334 0.04166666666666663
vt 0.5833333333333334 0.10416666666666663
vt 0.25 0.10416666666666663
vt 0.25 0.04166666666666663
vt 0.3958333333333333 0.04166666666666663
vt 0.3958333333333333 0.10416666666666663
vt 0.0625 0.10416666666666663
vt 0.0625 0.04166666666666663
vt 0.6666666666666666 0.6666666666666667
vt 0.6666666666666666 1
vt 0 1
vt 0 0.6666666666666667
vt 0.6666666666666666 0.04166666666666663
vt 0.6666666666666666 0.10416666666666663
vt 0 0.10416666666666663
vt 0 0.04166666666666663
vt 0.6666666666666666 0.6875
vt 0 0.6875
vt 0.6666666666666666 0.9791666666666666
vt 0 0.9791666666666666
vt 0.3541666666666667 1
vt 0.3333333333333333 1
vt 0.3333333333333333 0.9791666666666666
vt 0.3541666666666667 0.9791666666666666
vt 0.020833333333333332 1
vt 0.020833333333333332 0.9791666666666666
vt 0 0.16666666666666663
vt 0.6666666666666666 0.16666666666666663
vt 0.6666666666666666 0.14583333333333337
vt 0 0.14583333333333337
vt 0.14583333333333334 0.125
vt 0.14583333333333334 0.1875
vt 0.08333333333333333 0.1875
vt 0.08333333333333333 0.125
vt 0.5833333333333334 0.125
vt 0.5833333333333334 0.1875
vt 0.8958333333333334 0.10416666666666663
vt 0.8958333333333334 0.3125
vt 0.6875 0.3125
vt 0.6875 0.10416666666666663
vt 0.6666666666666666 0.33333333333333337
vt 0.6666666666666666 0.5416666666666667
vt 0.4583333333333333 0.5416666666666667
vt 0.4583333333333333 0.33333333333333337
vt 0.020833333333333332 0.1875
vt 0.020833333333333332 0.22916666666666663
vt 0 0.22916666666666663
vt 0 0.1875
vt 0.6666666666666666 0.20833333333333337
vt 0.6666666666666666 0.22916666666666663
vt 0 0.20833333333333337
vt 0.6875 0.1875
vt 0.6875 0.20833333333333337
vt 0.020833333333333332 0.20833333333333337
vt 0.6666666666666666 0.1875
vt 0.6875 0.33333333333333337
vt 0.9791666666666666 0.6666666666666667
vt 1 0.6666666666666667
vt 1 0.33333333333333337
vt 0.9791666666666666 0.33333333333333337
vt 1 0.6458333333333333
vt 0.6666666666666666 0.6458333333333333
vt 1 0.35416666666666663
vt 0.6666666666666666 0.35416666666666663
vt 0.8333333333333334 0.7708333333333334
vt 0.9375 0.7708333333333334
vt 0.9375 0.7916666666666666
vt 0.8333333333333334 0.7916666666666666
vt 0.9166666666666666 0.7708333333333334
vt 0.9166666666666666 0.7916666666666666
vt 0.8125 0.7708333333333334
vt 0.8125 0.7916666666666666
vt 0.9375 0.8333333333333334
vt 0.9375 0.8541666666666666
vt 0.7708333333333334 0.8541666666666666
vt 0.7708333333333334 0.8333333333333334
vt 0.7916666666666666 0.8333333333333334
vt 0.7916666666666666 0.8541666666666666
vt 0.9166666666666666 0.8541666666666666
vt 0.9166666666666666 0.8333333333333334
vt 0.3541666666666667 0.5833333333333333
vt 0.3541666666666667 0.6041666666666667
vt 0.4166666666666667 0.6041666666666667
vt 0.4166666666666667 0.5833333333333333
vt 0.4166666666666667 0.625
vt 0.4166666666666667 0.6458333333333333
vt 0.3541666666666667 0.6458333333333333
vt 0.3541666666666667 0.625
vt 0.3958333333333333 0.5833333333333333
vt 0.3958333333333333 0.6458333333333333
vt 0.375 0.6458333333333333
vt 0.375 0.5833333333333333
vt 0.7708333333333334 0.7083333333333333
vt 0.7916666666666666 0.7083333333333333
vt 0.7916666666666666 0.8125
vt 0.7708333333333334 0.8125
vt 0.8125 0.7083333333333333
vt 0.8125 0.8125
vt 0.7708333333333334 0.7916666666666666
vt 0.7708333333333334 0.6666666666666667
vt 0.7916666666666666 0.6666666666666667
vt 0.9375 0.7083333333333333
vt 0.9583333333333334 0.7083333333333333
vt 0.9583333333333334 0.6666666666666667
vt 0.9375 0.6666666666666667
vt 0.9583333333333334 0.6875
vt 0.7708333333333334 0.6875
vn 1 0 0
vn -1 0 0
vn 0 1 0
vn 0 -1 0
vn 0 0 1
vn 0 0 -1
vn 0 -0.9659258262890683 0.2588190451025208
vn 0 0.2588190451025205 0.9659258262890685
vn 0 -0.25881904510252074 -0.9659258262890684
vn 0 0.9659258262890685 -0.2588190451025201
vn 0 0.9659258262890684 -0.2588190451025207
vn 0 -0.25881904510251963 -0.9659258262890686
vn 0 0.2588190451025209 0.9659258262890683
vn 0.9659258262890684 0 -0.2588190451025206
vn -0.9659258262890684 0 0.2588190451025205
vn 0.2588190451025207 0 0.9659258262890684
vn -0.2588190451025206 0 -0.9659258262890684
vn 0 0.9659258262890678 -0.2588190451025234
vn 0 -0.9659258262890675 0.2588190451025238
vn 0 0.2588190451025201 0.9659258262890685
vn 0 -0.2588190451025209 -0.9659258262890683
vn 0 0.9659258262890683 -0.25881904510252074
vn 0 -0.9659258262890683 0.25881904510252074
vn 0 0.2588190451025213 0.9659258262890682
vn 0 -0.2588190451025213 -0.9659258262890682
vn 4.351167857633662e-16 -0.2588190451025209 -0.9659258262890682
vn -6.066996805515591e-16 0.25881904510252174 0.9659258262890681
vn 2.052392952959143e-16 -0.9659258262890686 0.25881904510251985
vn -2.5121479338940455e-16 0.9659258262890686 -0.2588190451025201
vn -0.4472135954999573 -0.2314947914883277 -0.8639503235220047
vn -0.44721359549995865 -0.8639503235220042 0.23149479148832733
vn -0.4472135954999585 0.23149479148832824 0.8639503235220038
vn -0.44721359549995693 0.8639503235220047 -0.2314947914883277
vn -4.329869796038116e-16 -0.2588190451025209 -0.9659258262890682
vn 6.106226635438368e-16 0.25881904510252174 0.9659258262890681
vn -2.1094237467877988e-16 -0.9659258262890686 0.25881904510251985
vn 2.498001805406606e-16 0.9659258262890686 -0.2588190451025201
vn 0.44721359549995726 -0.23149479148832763 -0.8639503235220045
vn 0.44721359549995865 -0.8639503235220042 0.23149479148832733
vn 0.4472135954999585 0.23149479148832824 0.8639503235220038
vn 0.44721359549995693 0.8639503235220047 -0.2314947914883277
vn 0.2588190451025204 -0.24999999999999983 -0.9330127018922196
vn -0.2588190451025208 0.25000000000000017 0.9330127018922194
vn 0.9659258262890685 0.06698729810778037 0.24999999999999914
vn 4.884981308350689e-16 -0.9659258262890689 0.2588190451025189
vn 5.551115123125784e-17 0.9659258262890683 -0.2588190451025207
vn -0.2004803702726749 -0.25356442818958635 -0.9463153289956892
vn -0.43197516176100315 -0.893907953961612 0.1196913926133372
vn -0.6634699532493302 0.19364916731037035 0.7227085312457103
vn -0.43197516176100254 0.8339926930823965 -0.34329819036331616
vn 0 0.9659258262890683 -0.2588190451025208
vn 0 -0.9659258262890683 0.2588190451025206
vn 0 0.25881904510251963 0.9659258262890686
vn 0 -0.2588190451025201 -0.9659258262890685
vn 0 -0.9659258262890684 0.2588190451025206
vn 0 0.2588190451025196 0.9659258262890686
vn 0 -0.25881904510252 -0.9659258262890685
vn -0.17364817766693025 -0.25488700224417926 -0.9512512425641976
vn 0.17364817766693025 0.25488700224417926 0.9512512425641976
vn -5.551115123125785e-17 0.9659258262890684 -0.2588190451025203
vn 3.122502256758249e-17 -0.9659258262890685 0.2588190451025199
vn 0.9848077530122081 -0.04494345552754755 -0.16773125949652057
vn -0.9848077530122082 0.04494345552754783 0.16773125949652049
vn -0.17364817766693033 -0.2548870022441781 -0.951251242564198
vn 0.17364817766693028 0.25488700224417815 0.951251242564198
vn -5.551115123125794e-17 0.9659258262890685 -0.25881904510252046
vn 5.551115123125789e-17 -0.9659258262890684 0.25881904510252035
vn 0.9848077530122081 -0.04494345552754762 -0.16773125949652054
vn -0.9848077530122088 0.044943455527547096 0.16773125949651713
vn -0.17364817766693028 -0.25488700224417815 -0.9512512425641981
vn 0.17364817766693055 0.25488700224417765 0.951251242564198
vn -9.683611937008309e-16 0.9659258262890682 -0.2588190451025212
vn 1.4186183092432567e-16 -0.9659258262890685 0.2588190451025203
vn 0.9848077530122081 -0.04494345552754766 -0.1677312594965204
vn -0.9848077530122081 0.0449434555275475 0.1677312594965204
vn 0.7660444431189781 0.16636567534280114 0.6208851530148457
vn -0.7660444431189782 -0.16636567534280278 -0.6208851530148453
vn -8.881784197001254e-16 0.9659258262890683 -0.2588190451025212
vn -2.6645352591003786e-16 -0.9659258262890684 0.25881904510252024
vn -0.6427876096865396 0.1982668912741453 0.7399421116938482
vn 0.7660444431189781 0.1663656753428022 0.6208851530148454
vn -0.7660444431189783 -0.16636567534280244 -0.6208851530148451
vn -2.46716227694479e-16 0.9659258262890682 -0.2588190451025208
vn -4.9343245538895844e-17 -0.9659258262890683 0.2588190451025209
vn -0.6427876096865394 0.19826689127414532 0.7399421116938484
vn 0.642787609686539 -0.19826689127414568 -0.7399421116938484
vn 0.7660444431189785 0.1663656753428016 0.6208851530148451
vn -0.7660444431189781 -0.16636567534280114 -0.6208851530148457
vn 6.9080543754454245e-16 0.9659258262890683 -0.25881904510252113
vn 1.7578531223231654e-16 -0.9659258262890685 0.2588190451025204
vn -0.6427876096865388 0.19826689127414546 0.7399421116938488
vn 0.6427876096865398 -0.19826689127414687 -0.7399421116938476
usemtl m_f74281d9-4ba1-d8ab-bcd5-548bba4f0cc1
f 25/25/19 26/26/19 27/27/19 28/28/19
f 29/25/20 30/26/20 31/27/20 32/28/20
f 27/26/21 26/29/21 31/30/21 30/27/21
f 25/26/22 28/29/22 29/30/22 32/27/22
f 28/25/23 27/26/23 30/27/23 29/28/23
f 32/25/24 31/26/24 26/27/24 25/28/24
f 33/25/19 34/26/19 35/27/19 36/28/19
f 37/25/20 38/26/20 39/27/20 40/28/20
f 41/26/21 42/29/21 43/30/21 44/27/21
f 33/26/22 36/29/22 37/30/22 40/27/22
f 36/25/23 35/26/23 38/27/23 37/28/23
f 40/25/24 39/26/24 34/27/24 33/28/24
f 42/31/19 41/32/19 35/27/19 34/26/19
f 43/31/24 42/32/24 34/27/24 39/26/24
f 44/31/20 43/32/20 39/27/20 38/26/20
f 41/31/23 44/32/23 38/27/23 35/26/23
f 45/25/19 46/26/19 47/27/19 48/28/19
f 49/25/20 50/26/20 51/27/20 52/28/20
f 53/26/21 54/29/21 55/30/21 56/27/21
f 45/26/22 48/29/22 49/30/22 52/27/22
f 48/25/23 47/26/23 50/27/23 49/28/23
f 52/25/24 51/26/24 46/27/24 45/28/24
f 54/31/19 53/32/19 47/27/19 46/26/19
f 55/31/24 54/32/24 46/27/24 51/26/24
f 56/31/20 55/32/20 51/27/20 50/26/20
f 53/31/23 56/32/23 50/27/23 47/26/23
f 57/25/19 58/26/19 59/27/19 60/28/19
f 61/25/20 62/26/20 63/27/20 64/28/20
f 59/26/21 58/29/21 63/30/21 62/27/21
f 57/26/22 60/29/22 61/30/22 64/27/22
f 60/25/23 59/26/23 62/27/23 61/28/23
f 64/25/24 63/26/24 58/27/24 57/28/24
f 65/33/19 66/34/19 67/35/19 68/36/19
f 69/37/20 70/38/20 71/39/20 72/40/20
f 65/41/25 68/42/25 69/43/25 72/44/25
f 68/45/26 67/46/26 70/47/26 69/48/26
f 72/45/27 71/46/27 66/47/27 65/48/27
f 73/41/28 74/49/28 75/50/28 76/44/28
f 70/44/29 67/41/29 77/51/29 78/52/29
f 74/53/19 73/54/19 77/55/19 66/56/19
f 75/42/30 74/43/30 66/52/30 71/51/30
f 76/57/20 75/43/20 71/52/20 78/58/20
f 73/59/31 76/60/31 78/61/31 77/62/31
f 79/63/19 80/64/19 81/65/19 82/66/19
f 83/63/20 84/64/20 85/65/20 86/66/20
f 81/67/21 80/68/21 85/65/21 84/66/21
f 79/67/22 82/68/22 83/65/22 86/66/22
f 82/67/23 81/68/23 84/65/23 83/66/23
f 86/67/24 85/68/24 80/65/24 79/66/24
f 87/69/32 88/70/32 89/71/32 90/72/32
f 91/69/33 92/70/33 93/71/33 94/72/33
f 89/69/21 88/70/21 93/71/21 92/72/21
f 87/69/22 90/70/22 91/71/22 94/72/22
f 90/69/34 89/70/34 92/71/34 91/72/34
f 94/73/35 93/74/35 88/75/35 87/76/35
f 95/77/19 96/78/19 97/79/19 98/80/19
f 99/77/20 100/78/20 101/79/20 102/80/20
f 97/81/36 96/82/36 101/79/36 100/83/36
f 95/84/37 98/85/37 99/86/37 102/77/37
f 98/87/38 97/82/38 100/79/38 99/80/38
f 102/80/39 101/79/39 96/82/39 95/87/39
f 103/73/19 104/88/19 105/28/19 106/41/19
f 107/89/20 108/90/20 109/91/20 110/92/20
f 105/41/40 104/73/40 109/91/40 108/90/40
f 103/91/41 106/90/41 107/41/41 110/73/41
f 106/93/42 105/90/42 108/41/42 107/94/42
f 110/91/43 109/95/43 104/96/43 103/73/43
f 111/97/44 112/98/44 113/99/44 114/100/44
f 115/97/45 116/98/45 117/99/45 118/100/45
f 113/101/19 112/98/19 117/99/19 116/102/19
f 114/97/46 113/98/46 116/99/46 115/100/46
f 118/97/47 117/98/47 112/99/47 111/100/47
f 119/103/48 111/100/48 114/104/48
f 119/103/49 114/100/49 115/104/49
f 119/103/50 115/100/50 118/104/50
f 119/97/51 118/100/51 111/104/51
f 120/99/52 121/98/52 122/97/52 123/100/52
f 124/99/53 125/98/53 126/97/53 127/100/53
f 124/99/20 121/98/20 120/101/20 125/102/20
f 125/99/54 120/98/54 123/97/54 126/100/54
f 121/99/55 124/98/55 127/97/55 122/100/55
f 122/100/56 128/103/56 123/104/56
f 123/100/57 128/103/57 126/104/57
f 126/100/58 128/103/58 127/104/58
f 127/100/59 128/97/59 122/104/59
f 129/97/60 130/98/60 131/99/60 132/100/60
f 133/97/61 134/98/61 135/99/61 136/100/61
f 131/101/62 130/98/62 135/99/62 134/102/62
f 132/97/63 131/98/63 134/99/63 133/100/63
f 136/97/64 135/98/64 130/99/64 129/100/64
f 137/103/65 129/100/65 132/104/65
f 137/103/66 132/100/66 133/104/66
f 137/103/67 133/100/67 136/104/67
f 137/97/68 136/100/68 129/104/68
f 138/105/19 139/106/19 140/107/19 141/108/19
f 142/108/20 143/107/20 144/106/20 145/105/20
f 140/108/69 139/105/69 144/106/69 143/107/69
f 138/105/70 141/108/70 142/107/70 145/106/70
f 141/109/71 140/110/71 143/107/71 142/108/71
f 145/105/72 144/106/72 139/111/72 138/112/72
f 146/105/19 147/106/19 148/107/19 149/108/19
f 150/108/20 151/107/20 152/106/20 153/105/20
f 148/108/40 147/105/40 152/106/40 151/107/40
f 146/105/73 149/108/73 150/107/73 153/106/73
f 149/109/74 148/110/74 151/107/74 150/108/74
f 153/105/75 152/106/75 147/111/75 146/112/75
f 154/105/76 155/106/76 156/107/76 157/108/76
f 158/108/77 159/107/77 160/106/77 161/105/77
f 156/108/78 155/105/78 160/106/78 159/107/78
f 154/105/79 157/108/79 158/107/79 161/106/79
f 157/109/80 156/110/80 159/107/80 158/108/80
f 161/105/81 160/106/81 155/111/81 154/112/81
f 162/105/82 163/106/82 164/107/82 165/108/82
f 166/108/83 167/107/83 168/106/83 169/105/83
f 164/108/84 163/105/84 168/106/84 167/107/84
f 162/105/85 165/108/85 166/107/85 169/106/85
f 165/109/86 164/110/86 167/107/86 166/108/86
f 169/105/87 168/106/87 163/111/87 162/112/87
f 170/113/88 171/114/88 172/115/88 173/116/88
f 174/117/89 175/118/89 176/119/89 177/120/89
f 172/116/90 171/118/90 176/119/90 175/113/90
f 170/118/91 173/116/91 174/113/91 177/119/91
f 173/121/92 172/116/92 175/118/92 174/122/92
f 177/119/93 176/123/93 171/124/93 170/113/93
f 178/125/94 179/126/94 180/127/94 181/128/94
f 182/126/95 183/129/95 184/130/95 185/127/95
f 180/125/96 179/128/96 184/130/96 183/129/96
f 178/125/97 181/128/97 182/130/97 185/129/97
f 181/131/98 180/128/98 183/130/98 182/104/98
f 186/132/99 187/133/99 179/126/99 178/125/99
f 188/134/100 189/135/100 190/136/100 191/137/100
f 179/135/101 187/136/101 190/132/101 189/125/101
f 186/132/102 178/125/102 188/135/102 191/136/102
f 178/138/103 179/135/103 189/125/103 188/139/103
f 191/136/104 190/138/104 187/139/104 186/132/104
f 192/113/105 193/114/105 194/115/105 195/116/105
f 196/117/106 197/118/106 198/119/106 199/120/106
f 194/116/107 193/118/107 198/119/107 197/113/107
f 192/118/108 195/116/108 196/113/108 199/119/108
f 195/121/109 194/116/109 197/118/109 196/122/109
f 199/119/110 198/123/110 193/124/110 192/113/110
