# Made in Blockbench 4.11.1
mtllib steam_turbine.mtl

o Cube
v -2 1 -2
v -2 1 -3
v -2 0 -3
v 1 0 -2
v 1 0 -3
v 1 1 -3
v -7 0 3
v -7 0 4
v -7 1 4
v -2 7 4
v 1 4 4
v 1 7 4
v -4 1 4
v -4 7 4
v -2 0 4
v 1 0 4
v 1 1 4
v 1 1 3
v -4 0 4
v -7 1 -2
v -7 1 -3
v -7 0 -3
v -4 0 -3
v -4 0 -2
v -4 1 -3
v -4 0 3
v -7 7 -3
v -4 1 3
v -2 0 3
v 1 0 3
v -2 7 -3
v -2 0 -2
v -7 0 -2
v -10 0 -2
v -10 1 -1
v -10 1 -2
v -2 0 1
v 1 0 1
v -4 0 1
v -7 0 1
v -8 0 3
v -8 0 1
v -4 7 0
v -4 8 0
v -2 8 0
v -7 7 0
v -7 8 0
v -4 7 1
v -4 8 1
v -7 8 1
v -10 0 3
v -10 0 1
v -2 7 1
v -2 8 1
v 4 0 3
v 4 1 2
v 4 1 3
v 3 0 3
v 3 0 1
v 4 0 1
v 3 0 0
v 4 0 0
v -8 5 0
v -9 5 0
v -9 5 1
v 4 1 0
v -8 8 0
v -10 0 0
v -8 0 0
v 0 8 1
v 0 8 0
v -7 0 0
v -4 0 0
v -2 0 0
v 0 7 1
v 1 7 1
v 1 7 0
v 1 0 0
v -10 1 2
v -10 1 1
v -8 0 -2
v -7 1 1
v -7 3 1
v -7 3 0
v 4 0 -2
v 4 1 -2
v -2 7 0
v 3 0 -2
v -9 4 2
v -9 4 3
v -8 4 3
v -8 3 1
v -8 4 2
v -8 1 3
v 1 7 3
v -2 7 3
v -2 2 -1.25
v -2 3 -2
v -4 7 3
v -7 7 3
v -2 1 0.5
v -4 1 0.5
v -4 7 -2
v -4 7 -3
v 1 7 -2
v 1 7 -3
v -7 1 3
v -7 4 1
v 1 2 3
v 1 4 1
v -7 7 1
v -8 1 -2
v -8 4 -1
v -8 3 0
v -10 1 0
v -10 3 0
v -10 3 -1
v -7 7 -2
v -2 4 1
v 0 7 0
v -2 7 -2
v -7 4 0
v -8 5 2
v -8 4 1
v -9 4 -2
v -9 3 -2
v -10 3 -2
v -4 3 3
v -4 4 -2
v -4 3 -2
v 1 2 -2
v 1 1 -2
v 3 1 -2
v -9 1 -2
v -4 1 -2
v -4 4 1
v -9 1 3
v -10 1 3
v -2 1 3
v 2 0 3
v 2 1 3
v -2 1 4
v -2 4 0
v -8 1 1
v -7 1 0
v -7 7 4
v -2 4 -2
v -4 4 0
v -2 3 1
v -4 3 1
v -4 3 0
v -4 1 -0.375
v -4 1 -1.25
v -2 3 0
v -4 4 3
v -2 3 3
v -2 4 3
v -9 1 0
v -8 4 0
v -8 5 1
v -9 5 -1
v -8 4 -2
v -10 4 0
v -10 4 -1
v -8 1 0
v -9 7 0
v -8 7 0
v -8 7 1
v -8 8 1
v -9 8 0
v -9 7 1
v -9 8 1
v -9 4 0
v -9 5 2
v -9 4 1
v -9 1 1
v -10 3 1
v -9 3 3
v -8 5 -1
v -10 4 3
v -10 4 1
v -10 3 2
v -10 4 2
v -10 4 -2
v -10 3 3
v -9 4 -1
v -9 3 1
v -9 3 0
v -9 1 -1
v -9 3 2
v -9 3 -1
v -9 1 2
v 3 1 1
v 3 2 2
v 3 1 2
v 3 1 3
v 2 0 -2
v 2 1 -2
v 2 3 -2
v 2 2 -2
v 2 2 -1
v 3 5 0
v 3 5 1
v 2 4 0
v 2 4 -2
v 2 0 0
v 2 0 1
v 2 5 0
v 2 5 -2
v 2 2 3
v 2 2 2
v 2 4 2
v 2 4 1
v 2 3 1
v 2 3 0
v 1 3 0
v 1 4 0
v 1 3 1
v 2 1 -1
v 1 2 -1
v 4 1 1
v 3 1 0
v 3 5 -2
v 3 5 2
v 2 5 2
v 2 5 1
v 1 2 1
v 3 2 3
v 1 1 1
v 2 1 1
v 2 1 0
v 1 1 -1
v -2 1 -0.375
v -4 2 -0.375
v -4 2 -1.25
v -2 1 -1.25
v -2 2 -0.375
v 2 2 1
v 2 2 0
v 1 2 0
v 1 1 0
vt 0.251953125 0.591796875
vt 0.220703125 0.591796875
vt 0.220703125 0.560546875
vt 0.626953125 0.78125
vt 0.658203125 0.78125
vt 0.658203125 0.8125
vt 0.1875 0.560546875
vt 0.21875 0.560546875
vt 0.21875 0.591796875
vt 0.03515625 0.587890625
vt 0.12890625 0.494140625
vt 0.12890625 0.587890625
vt 0.44140625 0.591796875
vt 0.53515625 0.591796875
vt 0.53515625 0.779296875
vt 0.03515625 0.369140625
vt 0.12890625 0.369140625
vt 0.12890625 0.400390625
vt 0.470703125 0.8125
vt 0.439453125 0.8125
vt 0.439453125 0.78125
vt 0.44140625 0.560546875
vt 0.53515625 0.560546875
vt 0.53515625 0.591796875
vt 0.03125000000000005 0.591796875
vt 5.551115123125783e-17 0.591796875
vt 6.938893903907228e-17 0.560546875
vt 0.44140625 0.33984375
vt 0.53515625 0.33984375
vt 0.53515625 0.37109375
vt 0.408203125 0.33984375
vt 0.439453125 0.33984375
vt 0.439453125 0.37109375
vt 0.09375 1
vt 0.09375 0.96875
vt 0.1875 0.96875
vt 0.44140625 0.37109375
vt 0.53515625 0.37109375
vt 0.53515625 0.55859375
vt 0.251953125 0.37109375
vt 0.220703125 0.37109375
vt 0.220703125 0.33984375
vt 0.537109375 0.560546875
vt 0.630859375 0.560546875
vt 0.630859375 0.591796875
vt 0.25 1
vt 0.25 0.96875
vt 0.34375 0.96875
vt 0.537109375 0.591796875
vt 0.630859375 0.591796875
vt 0.630859375 0.779296875
vt 0.25 0.8125
vt 0.25 0.78125
vt 0.34375 0.78125
vt 0.09375 0.8125
vt 0.09375 0.78125
vt 0.1875 0.78125
vt 0 0.2421875
vt 0.03125 0.2734375
vt 0 0.2734375
vt 0.25 0.96875
vt 0.25 0.90625
vt 0.34375 0.90625
vt 0.1875 0.96875
vt 0.1875 0.90625
vt 0.25 0.90625
vt 0.09375 0.96875
vt 0.09375 0.90625
vt 0.1875 0.90625
vt 0.0625 0.96875
vt 0.0625 0.90625
vt 0.09375 0.90625
vt 0.7578125 0.525390625
vt 0.7578125 0.556640625
vt 0.6953125 0.556640625
vt 0.8515625 0.525390625
vt 0.8515625 0.556640625
vt 0.7578125 0.556640625
vt 0.7890625 0.4921875
vt 0.7890625 0.5234375
vt 0.6953125 0.5234375
vt 0 0.96875
vt 0 0.90625
vt 0.0625 0.90625
vt 0.8515625 0.4921875
vt 0.8515625 0.5234375
vt 0.7890625 0.5234375
vt 0.66015625 0.841796875
vt 0.69140625 0.873046875
vt 0.66015625 0.873046875
vt 0.40625 0.96875
vt 0.40625 0.90625
vt 0.4375 0.90625
vt 0.40625 0.90625
vt 0.40625 0.875
vt 0.4375 0.875
vt 0.255859375 0.23828125
vt 0.224609375 0.23828125
vt 0.224609375 0.20703125
vt 0.72265625 0.841796875
vt 0.75390625 0.841796875
vt 0.75390625 0.873046875
vt 0.6953125 0.458984375
vt 0.6953125 0.490234375
vt 0.6640625 0.490234375
vt 0 0.90625
vt 0 0.875
vt 0.0625 0.875
vt 0.9140625 0.458984375
vt 0.9140625 0.490234375
vt 0.8515625 0.490234375
vt 0.8515625 0.458984375
vt 0.8515625 0.490234375
vt 0.7890625 0.490234375
vt 0.7890625 0.458984375
vt 0.7890625 0.490234375
vt 0.6953125 0.490234375
vt 0.0625 0.90625
vt 0.0625 0.875
vt 0.09375 0.875
vt 0.09375 0.90625
vt 0.09375 0.875
vt 0.1875 0.875
vt 0.1875 0.90625
vt 0.1875 0.875
vt 0.25 0.875
vt 0.599609375 0.43359375
vt 0.630859375 0.43359375
vt 0.630859375 0.46484375
vt 0.25 0.90625
vt 0.25 0.875
vt 0.34375 0.875
vt 0.09375 0.2421875
vt 0.125 0.2734375
vt 0.09375 0.2734375
vt 0.25 0.875
vt 0.25 0.8125
vt 0.34375 0.8125
vt 0.1875 0.875
vt 0.1875 0.8125
vt 0.25 0.8125
vt 0.09375 0.875
vt 0.09375 0.8125
vt 0.1875 0.8125
vt 0.0625 0.875
vt 0.0625 0.8125
vt 0.09375 0.8125
vt 0.125 0.591796875
vt 0.125 0.654296875
vt 0.09375 0.654296875
vt 0 0.875
vt 0 0.8125
vt 0.0625 0.8125
vt 0.75390625 0.841796875
vt 0.81640625 0.841796875
vt 0.81640625 0.873046875
vt 0.6953125 0.525390625
vt 0.6953125 0.556640625
vt 0.6328125 0.556640625
vt 0.40625 0.875
vt 0.40625 0.8125
vt 0.4375 0.8125
vt 0.4453125 0.212890625
vt 0.4453125 0.181640625
vt 0.4765625 0.181640625
vt 0.06250000000000001 0.2421875
vt 0.09375 0.2421875
vt 0.09375 0.2734375
vt 0.6953125 0.748046875
vt 0.6640625 0.779296875
vt 0.6328125 0.685546875
vt 0.630859375 0.33984375
vt 0.630859375 0.37109375
vt 0.537109375 0.37109375
vt 0.275390625 0.623046875
vt 0.251953125 0.654296875
vt 0.251953125 0.591796875
vt 0.572265625 0.244140625
vt 0.572265625 0.275390625
vt 0.478515625 0.275390625
vt 0.193359375 0.529296875
vt 0.130859375 0.529296875
vt 0.130859375 0.451171875
vt 0.66796875 0.271484375
vt 0.66796875 0.302734375
vt 0.57421875 0.302734375
vt 0.630859375 0.52734375
vt 0.630859375 0.55859375
vt 0.537109375 0.55859375
vt 0.1875 0.591796875
vt 0.125 0.685546875
vt 0.125 0.654296875
vt 0.439453125 0.90625
vt 0.470703125 0.84375
vt 0.533203125 0.90625
vt 0.572265625 0.275390625
vt 0.572265625 0.337890625
vt 0.478515625 0.337890625
vt 0.7265625 0.966796875
vt 0.7265625 0.935546875
vt 0.7890625 0.935546875
vt 0.537109375 0.37109375
vt 0.599609375 0.43359375
vt 0.537109375 0.43359375
vt 0.7890625 0.685546875
vt 0.7578125 0.779296875
vt 0.7265625 0.748046875
vt 0.0625 0.2734375
vt 0.0625 0.3359375
vt 0.03125 0.3359375
vt 0.66796875 0.208984375
vt 0.66796875 0.271484375
vt 0.57421875 0.271484375
vt 0.408203125 0.779296875
vt 0.345703125 0.779296875
vt 0.345703125 0.685546875
vt 0.599609375 0.46484375
vt 0.537109375 0.52734375
vt 0.537109375 0.46484375
vt 0.09375000000000006 0.685546875
vt 0.03125000000000008 0.591796875
vt 0.09375000000000006 0.654296875
vt 0.6640625 0.810546875
vt 0.6640625 0.779296875
vt 0.6953125 0.779296875
vt 0.6953125 0.68359375
vt 0.6953125 0.65234375
vt 0.7265625 0.65234375
vt 0.220703125 0.37109375
vt 0.251953125 0.37109375
vt 0.251953125 0.43359375
vt 0.408203125 0.46484375
vt 0.408203125 0.43359375
vt 0.439453125 0.55859375
vt 0.626953125 0.84375
vt 0.626953125 0.8125
vt 0.658203125 0.8125
vt 0.12890625 0.275390625
vt 0.16015625 0.275390625
vt 0.16015625 0.306640625
vt 0.6640625 0.55859375
vt 0.6953125 0.58984375
vt 0.6640625 0.58984375
vt 0.755859375 0.90234375
vt 0.818359375 0.90234375
vt 0.818359375 0.93359375
vt 0.314453125 0.46484375
vt 0.314453125 0.55859375
vt 0.251953125 0.55859375
vt 0.66015625 0.875
vt 0.69140625 0.90625
vt 0.66015625 0.90625
vt 0.2578125 0.208984375
vt 0.3203125 0.208984375
vt 0.3203125 0.240234375
vt 0.669921875 0.240234375
vt 0.701171875 0.240234375
vt 0.701171875 0.271484375
vt 0.408203125 0.560546875
vt 0.439453125 0.560546875
vt 0.439453125 0.591796875
vt 0.345703125 0.779296875
vt 0.314453125 0.779296875
vt 0.314453125 0.685546875
vt 0.03125 0.400390625
vt 0.03125 0.462890625
vt 0 0.462890625
vt 0.03125 0.494140625
vt 0.03125 0.556640625
vt 0 0.556640625
vt 0.21875 0.591796875
vt 0.21875 0.779296875
vt 0.1875 0.779296875
vt 0.03125000000000005 0.591796875
vt 0.03125 0.779296875
vt 0 0.779296875
vt 0.72265625 0.875
vt 0.75390625 0.875
vt 0.75390625 0.90625
vt 0.6328125 0.55859375
vt 0.6640625 0.55859375
vt 0.6640625 0.58984375
vt 0.251953125 0.685546875
vt 0.314453125 0.685546875
vt 0.314453125 0.779296875
vt 0.384765625 0.208984375
vt 0.384765625 0.240234375
vt 0.322265625 0.240234375
vt 0.0625 0.20703125
vt 0.0625 0.23828125
vt 0 0.23828125
vt 0.126953125 0.23828125
vt 0.064453125 0.23828125
vt 0.064453125 0.20703125
vt 0.82421875 0.80859375
vt 0.82421875 0.83984375
vt 0.76171875 0.83984375
vt 0.345703125 0.43359375
vt 0.357421875 0.37109375
vt 0.384765625 0.37109375
vt 0.439453125 0.37109375
vt 0.439453125 0.55859375
vt 0.408203125 0.43359375
vt 0.220703125 0.779296875
vt 0.220703125 0.591796875
vt 0.251953125 0.654296875
vt 0.220703125 0.591796875
vt 0.251953125 0.591796875
vt 0.251953125 0.654296875
vt 0.220703125 0.779296875
vt 0.251953125 0.654296875
vt 0.251953125 0.685546875
vt 0.314453125 0.654296875
vt 0.314453125 0.685546875
vt 0.251953125 0.685546875
vt 0.314453125 0.43359375
vt 0.314453125 0.46484375
vt 0.251953125 0.46484375
vt 0.408203125 0.43359375
vt 0.408203125 0.37109375
vt 0.439453125 0.37109375
vt 0.408203125 0.43359375
vt 0.408203125 0.46484375
vt 0.345703125 0.46484375
vt 0.220703125 0.55859375
vt 0.251953125 0.43359375
vt 0.251953125 0.46484375
vt 0.408203125 0.654296875
vt 0.408203125 0.591796875
vt 0.439453125 0.591796875
vt 0.408203125 0.685546875
vt 0.408203125 0.654296875
vt 0.439453125 0.779296875
vt 0.345703125 0.685546875
vt 0.345703125 0.654296875
vt 0.408203125 0.654296875
vt 0.345703125 0.46484375
vt 0.345703125 0.55859375
vt 0.314453125 0.55859375
vt 0.408203125 0.55859375
vt 0.345703125 0.55859375
vt 0.345703125 0.46484375
vt 0.80078125 0.26171875
vt 0.76953125 0.26171875
vt 0.76953125 0.23046875
vt 0.7265625 0.779296875
vt 0.7265625 0.810546875
vt 0.6953125 0.810546875
vt 0.224609375 0.26953125
vt 0.224609375 0.23828125
vt 0.255859375 0.23828125
vt 0.6640625 0.68359375
vt 0.6953125 0.65234375
vt 0.6953125 0.68359375
vt 0.0625 0.3359375
vt 0.0625 0.3671875
vt 0.03125 0.3671875
vt 0.80078125 0.197265625
vt 0.80078125 0.228515625
vt 0.76953125 0.228515625
vt 0 0.462890625
vt 0.03125 0.462890625
vt 0.03125 0.494140625
vt 0.822265625 0.966796875
vt 0.791015625 0.966796875
vt 0.791015625 0.935546875
vt 0.8828125 0.556640625
vt 0.8515625 0.556640625
vt 0.8515625 0.525390625
vt 0.09375 0.779296875
vt 0.09375 0.685546875
vt 0.125 0.685546875
vt 0.822265625 0.775390625
vt 0.822265625 0.806640625
vt 0.791015625 0.806640625
vt 0.7265625 0.685546875
vt 0.7265625 0.748046875
vt 0.6953125 0.748046875
vt 0.76171875 0.65234375
vt 0.79296875 0.65234375
vt 0.79296875 0.68359375
vt 0.6953125 0.5234375
vt 0.6640625 0.5234375
vt 0.6640625 0.4921875
vt 0.79296875 0.65234375
vt 0.82421875 0.65234375
vt 0.82421875 0.68359375
vt 0.791015625 0.7734375
vt 0.791015625 0.7421875
vt 0.822265625 0.7421875
vt 0.6640625 0.458984375
vt 0.6640625 0.490234375
vt 0.6328125 0.490234375
vt 0.822265625 0.708984375
vt 0.822265625 0.740234375
vt 0.791015625 0.740234375
vt 0.7578125 0.96875
vt 0.7578125 1
vt 0.7265625 1
vt 0.6640625 0.5234375
vt 0.6328125 0.5234375
vt 0.6328125 0.4921875
vt 0.224609375 0.17578125
vt 0.255859375 0.17578125
vt 0.255859375 0.20703125
vt 0.9140625 0.556640625
vt 0.8828125 0.556640625
vt 0.8828125 0.525390625
vt 0.7890625 0.96875
vt 0.7890625 1
vt 0.7578125 1
vt 0.51171875 0.1796875
vt 0.54296875 0.1796875
vt 0.54296875 0.2421875
vt 0.4453125 0.244140625
vt 0.4453125 0.275390625
vt 0.4140625 0.275390625
vt 0.69140625 0.96875
vt 0.72265625 0.90625
vt 0.72265625 1
vt 0.4765625 0.306640625
vt 0.4765625 0.337890625
vt 0.4453125 0.337890625
vt 0.2890625 0.20703125
vt 0.2578125 0.20703125
vt 0.2578125 0.17578125
vt 0.7578125 0.810546875
vt 0.7265625 0.810546875
vt 0.7265625 0.779296875
vt 0.291015625 0.20703125
vt 0.291015625 0.17578125
vt 0.322265625 0.17578125
vt 0.8203125 0.96875
vt 0.8203125 1
vt 0.7890625 1
vt 0.4140625 0.181640625
vt 0.4453125 0.181640625
vt 0.4453125 0.212890625
vt 0.09374999999999994 0.3671875
vt 0.09374999999999997 0.3359375
vt 0.12499999999999997 0.3359375
vt 0.4453125 0.244140625
vt 0.4140625 0.244140625
vt 0.4140625 0.212890625
vt 0.09374999999999997 0.3359375
vt 0.09375 0.2734375
vt 0.125 0.2734375
vt 0.4453125 0.337890625
vt 0.4140625 0.337890625
vt 0.4140625 0.306640625
vt 0.66015625 1
vt 0.66015625 0.96875
vt 0.69140625 0.96875
vt 0.15624999999999997 0.3359375
vt 0.15624999999999994 0.3671875
vt 0.12499999999999994 0.3671875
vt 0.35546875 0.20703125
vt 0.32421875 0.20703125
vt 0.32421875 0.17578125
vt 0.4140625 0.275390625
vt 0.4453125 0.275390625
vt 0.4453125 0.306640625
vt 0.09375 0.3671875
vt 0.0625 0.3671875
vt 0.0625 0.3359375
vt 0 0.3671875
vt 0 0.3359375
vt 0.03125 0.3359375
vt 0.79296875 0.650390625
vt 0.76171875 0.650390625
vt 0.76171875 0.587890625
vt 0.76171875 0.45703125
vt 0.76171875 0.39453125
vt 0.79296875 0.39453125
vt 0.79296875 0.330078125
vt 0.79296875 0.392578125
vt 0.76171875 0.392578125
vt 0.701171875 0.23828125
vt 0.669921875 0.23828125
vt 0.669921875 0.17578125
vt 0.703125 0.17578125
vt 0.734375 0.17578125
vt 0.734375 0.23828125
vt 0.388671875 0.20703125
vt 0.357421875 0.20703125
vt 0.357421875 0.17578125
vt 0.576171875 0.20703125
vt 0.544921875 0.20703125
vt 0.544921875 0.17578125
vt 0.767578125 0.23828125
vt 0.736328125 0.23828125
vt 0.736328125 0.17578125
vt 0.609375 0.20703125
vt 0.578125 0.20703125
vt 0.578125 0.17578125
vt 0.642578125 0.20703125
vt 0.611328125 0.20703125
vt 0.611328125 0.17578125
vt 0.564453125 1
vt 0.533203125 1
vt 0.533203125 0.90625
vt 0.6650390625 0.306640625
vt 0.6337890625 0.337890625
vt 0.6337890625 0.306640625
vt 0.732421875 0.240234375
vt 0.763671875 0.240234375
vt 0.763671875 0.271484375
vt 0.701171875 0.240234375
vt 0.732421875 0.240234375
vt 0.732421875 0.271484375
vt 0.19140625 0.275390625
vt 0.22265625 0.275390625
vt 0.22265625 0.306640625
vt 0.16015625 0.275390625
vt 0.19140625 0.275390625
vt 0.19140625 0.306640625
vt 0.255859375 0.3046875
vt 0.255859375 0.2734375
vt 0.287109375 0.2734375
vt 0.6962890625 0.431640625
vt 0.6650390625 0.431640625
vt 0.6650390625 0.306640625
vt 0.318359375 0.3359375
vt 0.255859375 0.3359375
vt 0.255859375 0.3046875
vt 0.19140625 0.369140625
vt 0.16015625 0.306640625
vt 0.19140625 0.337890625
vt 0.34375 0.875
vt 0.34375 0.8125
vt 0.375 0.8125
vt 0.375 0.875
vt 0.375 0.8125
vt 0.40625 0.8125
vt 0.34375 0.90625
vt 0.34375 0.875
vt 0.375 0.875
vt 0.375 0.90625
vt 0.375 0.875
vt 0.40625 0.875
vt 0.34375 0.96875
vt 0.34375 0.90625
vt 0.375 0.90625
vt 0.375 0.96875
vt 0.375 0.90625
vt 0.40625 0.90625
vt 0.318359375 0.3671875
vt 0.255859375 0.3671875
vt 0.255859375 0.3359375
vt 0.19140625 0.306640625
vt 0.22265625 0.306640625
vt 0.22265625 0.337890625
vt 0.412109375 0.2421875
vt 0.412109375 0.2734375
vt 0.380859375 0.2734375
vt 0.380859375 0.3359375
vt 0.349609375 0.3359375
vt 0.349609375 0.3046875
vt 0 0.173828125
vt 0.03125 0.173828125
vt 0.03125 0.205078125
vt 0.033203125 0.173828125
vt 0.064453125 0.173828125
vt 0.064453125 0.205078125
vt 0.09765625 0.173828125
vt 0.09765625 0.205078125
vt 0.06640625 0.205078125
vt 0.189453125 0.1796875
vt 0.189453125 0.2109375
vt 0.158203125 0.2109375
vt 0.189453125 0.2109375
vt 0.189453125 0.2734375
vt 0.158203125 0.2734375
vt 0.189453125 0.1484375
vt 0.189453125 0.1796875
vt 0.158203125 0.1796875
vt 0.7587890625 0.431640625
vt 0.6962890625 0.431640625
vt 0.6962890625 0.306640625
vt 0.478515625 0.2109375
vt 0.509765625 0.2421875
vt 0.478515625 0.2421875
vt 0.318359375 0.3359375
vt 0.349609375 0.3359375
vt 0.349609375 0.3671875
vt 0.130859375 0.173828125
vt 0.130859375 0.205078125
vt 0.099609375 0.205078125
vt 0.826171875 0.619140625
vt 0.826171875 0.650390625
vt 0.794921875 0.650390625
vt 0.9140625 0.4921875
vt 0.9140625 0.5234375
vt 0.8515625 0.5234375
vt 0.826171875 0.5859375
vt 0.826171875 0.6171875
vt 0.794921875 0.6171875
vt 0.470703125 1
vt 0.439453125 0.90625
vt 0.533203125 0.90625
vt 0.470703125 1
vt 0.439453125 1
vt 0.439453125 0.90625
vt 0.564453125 0.90625
vt 0.626953125 0.84375
vt 0.626953125 1
vt 0.658203125 1
vt 0.626953125 1
vt 0.626953125 0.84375
vt 0.439453125 0.8125
vt 0.470703125 0.8125
vt 0.470703125 0.84375
vt 0.533203125 0.875
vt 0.470703125 0.84375
vt 0.533203125 0.84375
vt 0.189453125 0.1171875
vt 0.189453125 0.1484375
vt 0.158203125 0.1484375
vt 0.732421875 0.271484375
vt 0.732421875 0.302734375
vt 0.701171875 0.302734375
vt 0.19140625 0.2109375
vt 0.22265625 0.2109375
vt 0.22265625 0.2421875
vt 0.19140625 0.2109375
vt 0.19140625 0.1484375
vt 0.22265625 0.1484375
vt 0.826171875 0.42578125
vt 0.826171875 0.45703125
vt 0.794921875 0.45703125
vt 0.22265625 0.2421875
vt 0.22265625 0.2734375
vt 0.19140625 0.2734375
vt 0.0625 0.80859375
vt 0 0.80859375
vt 0 0.78515625
vt 0.193359375 0.556640625
vt 0.130859375 0.556640625
vt 0.130859375 0.529296875
vt 0.76171875 0.328125
vt 0.76171875 0.296875
vt 0.82421875 0.296875
vt 0.0625 1
vt 0 1
vt 0 0.97265625
vt 0.130859375 0.44921875
vt 0.130859375 0.41796875
vt 0.158203125 0.41796875
vt 0.765625 0.294921875
vt 0.765625 0.263671875
vt 0.828125 0.263671875
vt 0.302734375 0.623046875
vt 0.275390625 0.591796875
vt 0.302734375 0.591796875
vt 0.302734375 0.623046875
vt 0.302734375 0.591796875
vt 0.330078125 0.591796875
vt 0.408203125 0.591796875
vt 0.408203125 0.654296875
vt 0.345703125 0.654296875
vt 0.275390625 0.623046875
vt 0.302734375 0.623046875
vt 0.314453125 0.654296875
vt 0.314453125 0.654296875
vt 0.302734375 0.623046875
vt 0.345703125 0.654296875
vt 0.759765625 0.58984375
vt 0.759765625 0.62109375
vt 0.728515625 0.62109375
vt 0.759765625 0.62109375
vt 0.759765625 0.68359375
vt 0.728515625 0.68359375
vt 0.759765625 0.58984375
vt 0.728515625 0.58984375
vt 0.728515625 0.55859375
vt 0.794921875 0.392578125
vt 0.826171875 0.392578125
vt 0.826171875 0.423828125
vt 0.349609375 0.2734375
vt 0.349609375 0.2421875
vt 0.380859375 0.2734375
vt 0.6337890625 0.337890625
vt 0.6025390625 0.337890625
vt 0.6025390625 0.306640625
vt 0.349609375 0.3359375
vt 0.380859375 0.3359375
vt 0.380859375 0.3671875
vt 0.349609375 0.2421875
vt 0.349609375 0.2734375
vt 0.318359375 0.2734375
vt 0.318359375 0.3359375
vt 0.255859375 0.3046875
vt 0.318359375 0.3046875
vt 0.533203125 0.84375
vt 0.564453125 0.84375
vt 0.564453125 0.875
vt 0.349609375 0.3046875
vt 0.318359375 0.3046875
vt 0.318359375 0.2734375
vt 0.564453125 0.875
vt 0.564453125 0.84375
vt 0.595703125 0.84375
vt 0.564453125 0.8125
vt 0.595703125 0.8125
vt 0.595703125 0.84375
vt 0.626953125 0.84375
vt 0.564453125 0.90625
vt 0.564453125 0.875
vt 0.287109375 0.2421875
vt 0.318359375 0.2421875
vt 0.318359375 0.2734375
vt 0.287109375 0.2734375
vt 0.318359375 0.2734375
vt 0.318359375 0.3046875
vt 0.533203125 0.8125
vt 0.564453125 0.8125
vt 0.564453125 0.84375
vt 0.251953125 0.591796875
vt 0.220703125 0.560546875
vt 0.251953125 0.560546875
vt 0.626953125 0.78125
vt 0.658203125 0.8125
vt 0.626953125 0.8125
vt 0.1875 0.560546875
vt 0.21875 0.591796875
vt 0.1875 0.591796875
vt 0.12890625 0.494140625
vt 0.03515625 0.400390625
vt 0.12890625 0.400390625
vt 0.03515625 0.400390625
vt 0.12890625 0.494140625
vt 0.03515625 0.587890625
vt 0.44140625 0.591796875
vt 0.53515625 0.779296875
vt 0.44140625 0.779296875
vt 0.03515625 0.369140625
vt 0.12890625 0.400390625
vt 0.03515625 0.400390625
vt 0.470703125 0.8125
vt 0.439453125 0.78125
vt 0.470703125 0.78125
vt 0.44140625 0.560546875
vt 0.53515625 0.591796875
vt 0.44140625 0.591796875
vt 0.03125000000000005 0.591796875
vt 8.326672684688674e-17 0.560546875
vt 0.031250000000000076 0.560546875
vt 0.44140625 0.33984375
vt 0.53515625 0.37109375
vt 0.44140625 0.37109375
vt 0.408203125 0.33984375
vt 0.439453125 0.37109375
vt 0.408203125 0.37109375
vt 0.09375 1
vt 0.1875 0.96875
vt 0.1875 1
vt 0.44140625 0.37109375
vt 0.53515625 0.55859375
vt 0.44140625 0.55859375
vt 0.251953125 0.37109375
vt 0.220703125 0.33984375
vt 0.251953125 0.33984375
vt 0.537109375 0.560546875
vt 0.630859375 0.591796875
vt 0.537109375 0.591796875
vt 0.25 1
vt 0.34375 0.96875
vt 0.34375 1
vt 0.537109375 0.591796875
vt 0.630859375 0.779296875
vt 0.537109375 0.779296875
vt 0.25 0.8125
vt 0.34375 0.78125
vt 0.34375 0.8125
vt 0.09375 0.8125
vt 0.1875 0.78125
vt 0.1875 0.8125
vt 0.0625 0.2734375
vt 0.03125 0.2734375
vt 0.0625 0.2421875
vt 0.0625 0.2421875
vt 0.03125 0.2734375
vt 0 0.2421875
vt 0.25 0.96875
vt 0.34375 0.90625
vt 0.34375 0.96875
vt 0.1875 0.96875
vt 0.25 0.90625
vt 0.25 0.96875
vt 0.09375 0.96875
vt 0.1875 0.90625
vt 0.1875 0.96875
vt 0.0625 0.96875
vt 0.09375 0.90625
vt 0.09375 0.96875
vt 0.7578125 0.525390625
vt 0.6953125 0.556640625
vt 0.6953125 0.525390625
vt 0.8515625 0.525390625
vt 0.7578125 0.556640625
vt 0.7578125 0.525390625
vt 0.7890625 0.4921875
vt 0.6953125 0.5234375
vt 0.6953125 0.4921875
vt 0 0.96875
vt 0.0625 0.90625
vt 0.0625 0.96875
vt 0.8515625 0.4921875
vt 0.7890625 0.5234375
vt 0.7890625 0.4921875
vt 0.72265625 0.873046875
vt 0.69140625 0.873046875
vt 0.72265625 0.841796875
vt 0.72265625 0.841796875
vt 0.69140625 0.873046875
vt 0.66015625 0.841796875
vt 0.40625 0.96875
vt 0.4375 0.90625
vt 0.4375 0.96875
vt 0.40625 0.90625
vt 0.4375 0.875
vt 0.4375 0.90625
vt 0.255859375 0.23828125
vt 0.224609375 0.20703125
vt 0.255859375 0.20703125
vt 0.72265625 0.841796875
vt 0.75390625 0.873046875
vt 0.72265625 0.873046875
vt 0.6953125 0.458984375
vt 0.6640625 0.490234375
vt 0.6640625 0.458984375
vt 0 0.90625
vt 0.0625 0.875
vt 0.0625 0.90625
vt 0.9140625 0.458984375
vt 0.8515625 0.490234375
vt 0.8515625 0.458984375
vt 0.8515625 0.458984375
vt 0.7890625 0.490234375
vt 0.7890625 0.458984375
vt 0.7890625 0.458984375
vt 0.6953125 0.490234375
vt 0.6953125 0.458984375
vt 0.0625 0.90625
vt 0.09375 0.875
vt 0.09375 0.90625
vt 0.09375 0.90625
vt 0.1875 0.875
vt 0.1875 0.90625
vt 0.1875 0.90625
vt 0.25 0.875
vt 0.25 0.90625
vt 0.599609375 0.43359375
vt 0.630859375 0.46484375
vt 0.599609375 0.46484375
vt 0.25 0.90625
vt 0.34375 0.875
vt 0.34375 0.90625
vt 0.15625 0.2734375
vt 0.125 0.2734375
vt 0.15625 0.2421875
vt 0.15625 0.2421875
vt 0.125 0.2734375
vt 0.09375 0.2421875
vt 0.25 0.875
vt 0.34375 0.8125
vt 0.34375 0.875
vt 0.1875 0.875
vt 0.25 0.8125
vt 0.25 0.875
vt 0.09375 0.875
vt 0.1875 0.8125
vt 0.1875 0.875
vt 0.0625 0.875
vt 0.09375 0.8125
vt 0.09375 0.875
vt 0.125 0.591796875
vt 0.09375 0.654296875
vt 0.09375 0.591796875
vt 0 0.875
vt 0.0625 0.8125
vt 0.0625 0.875
vt 0.75390625 0.841796875
vt 0.81640625 0.873046875
vt 0.75390625 0.873046875
vt 0.6953125 0.525390625
vt 0.6328125 0.556640625
vt 0.6328125 0.525390625
vt 0.40625 0.875
vt 0.4375 0.8125
vt 0.4375 0.875
vt 0.4453125 0.212890625
vt 0.4765625 0.181640625
vt 0.4765625 0.212890625
vt 0.06250000000000001 0.2421875
vt 0.09375 0.2734375
vt 0.0625 0.2734375
vt 0.6640625 0.779296875
vt 0.6953125 0.748046875
vt 0.6953125 0.779296875
vt 0.6953125 0.748046875
vt 0.6328125 0.685546875
vt 0.6953125 0.685546875
vt 0.6328125 0.685546875
vt 0.6640625 0.779296875
vt 0.6328125 0.779296875
vt 0.630859375 0.33984375
vt 0.537109375 0.37109375
vt 0.537109375 0.33984375
vt 0.275390625 0.623046875
vt 0.251953125 0.591796875
vt 0.275390625 0.591796875
vt 0.572265625 0.244140625
vt 0.478515625 0.275390625
vt 0.478515625 0.244140625
vt 0.193359375 0.529296875
vt 0.130859375 0.451171875
vt 0.193359375 0.451171875
vt 0.66796875 0.271484375
vt 0.57421875 0.302734375
vt 0.57421875 0.271484375
vt 0.630859375 0.52734375
vt 0.537109375 0.55859375
vt 0.537109375 0.52734375
vt 0.125 0.779296875
vt 0.125 0.685546875
vt 0.1875 0.779296875
vt 0.1875 0.779296875
vt 0.125 0.685546875
vt 0.1875 0.591796875
vt 0.1875 0.591796875
vt 0.125 0.654296875
vt 0.125 0.591796875
vt 0.572265625 0.275390625
vt 0.478515625 0.337890625
vt 0.478515625 0.275390625
vt 0.7265625 0.966796875
vt 0.7890625 0.935546875
vt 0.7890625 0.966796875
vt 0.599609375 0.43359375
vt 0.630859375 0.37109375
vt 0.630859375 0.43359375
vt 0.630859375 0.37109375
vt 0.599609375 0.43359375
vt 0.537109375 0.37109375
vt 0.7578125 0.779296875
vt 0.7890625 0.685546875
vt 0.7890625 0.779296875
vt 0.7890625 0.685546875
vt 0.7265625 0.748046875
vt 0.7265625 0.685546875
vt 0.7265625 0.748046875
vt 0.7578125 0.779296875
vt 0.7265625 0.779296875
vt 0.0625 0.2734375
vt 0.03125 0.3359375
vt 0.03125 0.2734375
vt 0.66796875 0.208984375
vt 0.57421875 0.271484375
vt 0.57421875 0.208984375
vt 0.408203125 0.779296875
vt 0.345703125 0.685546875
vt 0.408203125 0.685546875
vt 0.537109375 0.52734375
vt 0.599609375 0.46484375
vt 0.630859375 0.52734375
vt 0.630859375 0.52734375
vt 0.599609375 0.46484375
vt 0.630859375 0.46484375
vt 0.03125 0.779296875
vt 0.09375000000000003 0.685546875
vt 0.09375 0.779296875
vt 0.09375 0.654296875
vt 0.031250000000000014 0.591796875
vt 0.09375000000000001 0.591796875
vt 0.03125 0.779296875
vt 0.03125000000000008 0.591796875
vt 0.09375000000000004 0.685546875
vt 0.6640625 0.810546875
vt 0.6953125 0.779296875
vt 0.6953125 0.810546875
vt 0.6953125 0.68359375
vt 0.7265625 0.65234375
vt 0.7265625 0.68359375
vt 0.220703125 0.37109375
vt 0.251953125 0.43359375
vt 0.220703125 0.55859375
vt 0.408203125 0.46484375
vt 0.439453125 0.55859375
vt 0.408203125 0.55859375
vt 0.12890625 0.275390625
vt 0.16015625 0.306640625
vt 0.12890625 0.306640625
vt 0.7265625 0.58984375
vt 0.6953125 0.58984375
vt 0.7265625 0.55859375
vt 0.7265625 0.55859375
vt 0.6953125 0.58984375
vt 0.6640625 0.55859375
vt 0.755859375 0.90234375
vt 0.818359375 0.93359375
vt 0.755859375 0.93359375
vt 0.314453125 0.46484375
vt 0.251953125 0.55859375
vt 0.251953125 0.46484375
vt 0.72265625 0.90625
vt 0.69140625 0.90625
vt 0.72265625 0.875
vt 0.72265625 0.875
vt 0.69140625 0.90625
vt 0.66015625 0.875
vt 0.2578125 0.208984375
vt 0.3203125 0.240234375
vt 0.2578125 0.240234375
vt 0.669921875 0.240234375
vt 0.701171875 0.271484375
vt 0.669921875 0.271484375
vt 0.408203125 0.560546875
vt 0.439453125 0.591796875
vt 0.408203125 0.591796875
vt 0.345703125 0.779296875
vt 0.314453125 0.685546875
vt 0.345703125 0.685546875
vt 0.03125 0.400390625
vt 0 0.462890625
vt 0 0.400390625
vt 0.03125 0.494140625
vt 0 0.556640625
vt 0 0.494140625
vt 0.21875 0.591796875
vt 0.1875 0.779296875
vt 0.1875 0.591796875
vt 0.03125000000000005 0.591796875
vt 0 0.779296875
vt 5.551115123125783e-17 0.591796875
vt 0.72265625 0.875
vt 0.75390625 0.90625
vt 0.72265625 0.90625
vt 0.6328125 0.55859375
vt 0.6640625 0.58984375
vt 0.6328125 0.58984375
vt 0.251953125 0.685546875
vt 0.314453125 0.779296875
vt 0.251953125 0.779296875
vt 0.384765625 0.208984375
vt 0.322265625 0.240234375
vt 0.322265625 0.208984375
vt 0.0625 0.20703125
vt 0 0.23828125
vt 0 0.20703125
vt 0.126953125 0.23828125
vt 0.064453125 0.20703125
vt 0.126953125 0.20703125
vt 0.82421875 0.80859375
vt 0.76171875 0.83984375
vt 0.76171875 0.80859375
vt 0.330078125 0.37109375
vt 0.314453125 0.43359375
vt 0.251953125 0.37109375
vt 0.251953125 0.37109375
vt 0.314453125 0.43359375
vt 0.251953125 0.43359375
vt 0.357421875 0.37109375
vt 0.345703125 0.43359375
vt 0.330078125 0.37109375
vt 0.330078125 0.37109375
vt 0.345703125 0.43359375
vt 0.314453125 0.43359375
vt 0.345703125 0.43359375
vt 0.384765625 0.37109375
vt 0.408203125 0.43359375
vt 0.408203125 0.43359375
vt 0.384765625 0.37109375
vt 0.408203125 0.37109375
vt 0.220703125 0.779296875
vt 0.251953125 0.685546875
vt 0.251953125 0.779296875
vt 0.314453125 0.654296875
vt 0.251953125 0.685546875
vt 0.251953125 0.654296875
vt 0.314453125 0.43359375
vt 0.251953125 0.46484375
vt 0.251953125 0.43359375
vt 0.408203125 0.43359375
vt 0.345703125 0.46484375
vt 0.345703125 0.43359375
vt 0.220703125 0.55859375
vt 0.251953125 0.46484375
vt 0.251953125 0.55859375
vt 0.408203125 0.654296875
vt 0.439453125 0.591796875
vt 0.439453125 0.779296875
vt 0.408203125 0.685546875
vt 0.439453125 0.779296875
vt 0.408203125 0.779296875
vt 0.345703125 0.685546875
vt 0.408203125 0.654296875
vt 0.408203125 0.685546875
vt 0.345703125 0.46484375
vt 0.314453125 0.55859375
vt 0.314453125 0.46484375
vt 0.408203125 0.55859375
vt 0.345703125 0.46484375
vt 0.408203125 0.46484375
vt 0.80078125 0.26171875
vt 0.76953125 0.23046875
vt 0.80078125 0.23046875
vt 0.7265625 0.779296875
vt 0.6953125 0.810546875
vt 0.6953125 0.779296875
vt 0.224609375 0.26953125
vt 0.255859375 0.23828125
vt 0.255859375 0.26953125
vt 0.6953125 0.58984375
vt 0.6953125 0.65234375
vt 0.6640625 0.58984375
vt 0.6640625 0.58984375
vt 0.6953125 0.65234375
vt 0.6640625 0.68359375
vt 0.0625 0.3359375
vt 0.03125 0.3671875
vt 0.03125 0.3359375
vt 0.80078125 0.197265625
vt 0.76953125 0.228515625
vt 0.76953125 0.197265625
vt 0 0.462890625
vt 0.03125 0.494140625
vt 0 0.494140625
vt 0.822265625 0.966796875
vt 0.791015625 0.935546875
vt 0.822265625 0.935546875
vt 0.8828125 0.556640625
vt 0.8515625 0.525390625
vt 0.8828125 0.525390625
vt 0.09375 0.779296875
vt 0.125 0.685546875
vt 0.125 0.779296875
vt 0.822265625 0.775390625
vt 0.791015625 0.806640625
vt 0.791015625 0.775390625
vt 0.7265625 0.685546875
vt 0.6953125 0.748046875
vt 0.6953125 0.685546875
vt 0.76171875 0.65234375
vt 0.79296875 0.68359375
vt 0.76171875 0.68359375
vt 0.6953125 0.5234375
vt 0.6640625 0.4921875
vt 0.6953125 0.4921875
vt 0.79296875 0.65234375
vt 0.82421875 0.68359375
vt 0.79296875 0.68359375
vt 0.791015625 0.7734375
vt 0.822265625 0.7421875
vt 0.822265625 0.7734375
vt 0.6640625 0.458984375
vt 0.6328125 0.490234375
vt 0.6328125 0.458984375
vt 0.822265625 0.708984375
vt 0.791015625 0.740234375
vt 0.791015625 0.708984375
vt 0.7578125 0.96875
vt 0.7265625 1
vt 0.7265625 0.96875
vt 0.6640625 0.5234375
vt 0.6328125 0.4921875
vt 0.6640625 0.4921875
vt 0.224609375 0.17578125
vt 0.255859375 0.20703125
vt 0.224609375 0.20703125
vt 0.9140625 0.556640625
vt 0.8828125 0.525390625
vt 0.9140625 0.525390625
vt 0.7890625 0.96875
vt 0.7578125 1
vt 0.7578125 0.96875
vt 0.51171875 0.1796875
vt 0.54296875 0.2421875
vt 0.51171875 0.2421875
vt 0.4453125 0.244140625
vt 0.4140625 0.275390625
vt 0.4140625 0.244140625
vt 0.72265625 0.90625
vt 0.69140625 0.96875
vt 0.69140625 0.90625
vt 0.69140625 0.96875
vt 0.72265625 1
vt 0.69140625 1
vt 0.4765625 0.306640625
vt 0.4453125 0.337890625
vt 0.4453125 0.306640625
vt 0.2890625 0.20703125
vt 0.2578125 0.17578125
vt 0.2890625 0.17578125
vt 0.7578125 0.810546875
vt 0.7265625 0.779296875
vt 0.7578125 0.779296875
vt 0.291015625 0.20703125
vt 0.322265625 0.17578125
vt 0.322265625 0.20703125
vt 0.8203125 0.96875
vt 0.7890625 1
vt 0.7890625 0.96875
vt 0.4140625 0.181640625
vt 0.4453125 0.212890625
vt 0.4140625 0.212890625
vt 0.09374999999999994 0.3671875
vt 0.12499999999999997 0.3359375
vt 0.12499999999999994 0.3671875
vt 0.4453125 0.244140625
vt 0.4140625 0.212890625
vt 0.4453125 0.212890625
vt 0.09374999999999997 0.3359375
vt 0.125 0.2734375
vt 0.12499999999999997 0.3359375
vt 0.4453125 0.337890625
vt 0.4140625 0.306640625
vt 0.4453125 0.306640625
vt 0.66015625 1
vt 0.69140625 0.96875
vt 0.69140625 1
vt 0.15624999999999997 0.3359375
vt 0.12499999999999994 0.3671875
vt 0.12499999999999997 0.3359375
vt 0.35546875 0.20703125
vt 0.32421875 0.17578125
vt 0.35546875 0.17578125
vt 0.4140625 0.275390625
vt 0.4453125 0.306640625
vt 0.4140625 0.306640625
vt 0.09375 0.3671875
vt 0.0625 0.3359375
vt 0.09375 0.3359375
vt 0 0.3671875
vt 0.03125 0.3359375
vt 0.03125 0.3671875
vt 0.79296875 0.650390625
vt 0.76171875 0.587890625
vt 0.79296875 0.587890625
vt 0.76171875 0.45703125
vt 0.79296875 0.39453125
vt 0.79296875 0.45703125
vt 0.79296875 0.330078125
vt 0.76171875 0.392578125
vt 0.76171875 0.330078125
vt 0.701171875 0.23828125
vt 0.669921875 0.17578125
vt 0.701171875 0.17578125
vt 0.703125 0.17578125
vt 0.734375 0.23828125
vt 0.703125 0.23828125
vt 0.388671875 0.20703125
vt 0.357421875 0.17578125
vt 0.388671875 0.17578125
vt 0.576171875 0.20703125
vt 0.544921875 0.17578125
vt 0.576171875 0.17578125
vt 0.767578125 0.23828125
vt 0.736328125 0.17578125
vt 0.767578125 0.17578125
vt 0.609375 0.20703125
vt 0.578125 0.17578125
vt 0.609375 0.17578125
vt 0.642578125 0.20703125
vt 0.611328125 0.17578125
vt 0.642578125 0.17578125
vt 0.564453125 1
vt 0.533203125 0.90625
vt 0.564453125 0.90625
vt 0.6337890625 0.337890625
vt 0.6650390625 0.431640625
vt 0.6337890625 0.431640625
vt 0.6650390625 0.431640625
vt 0.6337890625 0.337890625
vt 0.6650390625 0.306640625
vt 0.732421875 0.240234375
vt 0.763671875 0.271484375
vt 0.732421875 0.271484375
vt 0.701171875 0.240234375
vt 0.732421875 0.271484375
vt 0.701171875 0.271484375
vt 0.19140625 0.275390625
vt 0.22265625 0.306640625
vt 0.19140625 0.306640625
vt 0.16015625 0.275390625
vt 0.19140625 0.306640625
vt 0.16015625 0.306640625
vt 0.6962890625 0.431640625
vt 0.6650390625 0.306640625
vt 0.6962890625 0.306640625
vt 0.16015625 0.306640625
vt 0.19140625 0.369140625
vt 0.16015625 0.431640625
vt 0.16015625 0.431640625
vt 0.19140625 0.400390625
vt 0.19140625 0.431640625
vt 0.16015625 0.431640625
vt 0.19140625 0.369140625
vt 0.19140625 0.400390625
vt 0.19140625 0.337890625
vt 0.16015625 0.306640625
vt 0.19140625 0.306640625
vt 0.34375 0.875
vt 0.375 0.8125
vt 0.375 0.875
vt 0.375 0.875
vt 0.40625 0.8125
vt 0.40625 0.875
vt 0.34375 0.90625
vt 0.375 0.875
vt 0.375 0.90625
vt 0.375 0.90625
vt 0.40625 0.875
vt 0.40625 0.90625
vt 0.34375 0.96875
vt 0.375 0.90625
vt 0.375 0.96875
vt 0.375 0.96875
vt 0.40625 0.90625
vt 0.40625 0.96875
vt 0.318359375 0.3671875
vt 0.255859375 0.3359375
vt 0.318359375 0.3359375
vt 0.19140625 0.306640625
vt 0.22265625 0.337890625
vt 0.19140625 0.337890625
vt 0.412109375 0.2421875
vt 0.380859375 0.2734375
vt 0.349609375 0.2421875
vt 0.380859375 0.3359375
vt 0.349609375 0.3046875
vt 0.380859375 0.2734375
vt 0 0.173828125
vt 0.03125 0.205078125
vt 0 0.205078125
vt 0.033203125 0.173828125
vt 0.064453125 0.205078125
vt 0.033203125 0.205078125
vt 0.09765625 0.173828125
vt 0.06640625 0.205078125
vt 0.06640625 0.173828125
vt 0.189453125 0.1796875
vt 0.158203125 0.2109375
vt 0.158203125 0.1796875
vt 0.189453125 0.2109375
vt 0.158203125 0.2734375
vt 0.158203125 0.2109375
vt 0.189453125 0.1484375
vt 0.158203125 0.1796875
vt 0.158203125 0.1484375
vt 0.7587890625 0.431640625
vt 0.6962890625 0.306640625
vt 0.7587890625 0.306640625
vt 0.509765625 0.2421875
vt 0.478515625 0.2109375
vt 0.509765625 0.1484375
vt 0.509765625 0.1484375
vt 0.478515625 0.2109375
vt 0.478515625 0.1484375
vt 0.318359375 0.3359375
vt 0.349609375 0.3671875
vt 0.318359375 0.3671875
vt 0.130859375 0.173828125
vt 0.099609375 0.205078125
vt 0.099609375 0.173828125
vt 0.826171875 0.619140625
vt 0.794921875 0.650390625
vt 0.794921875 0.619140625
vt 0.9140625 0.4921875
vt 0.8515625 0.5234375
vt 0.8515625 0.4921875
vt 0.826171875 0.5859375
vt 0.794921875 0.6171875
vt 0.794921875 0.5859375
vt 0.470703125 1
vt 0.533203125 0.90625
vt 0.533203125 1
vt 0.564453125 0.90625
vt 0.626953125 1
vt 0.564453125 1
vt 0.658203125 1
vt 0.626953125 0.84375
vt 0.658203125 0.8125
vt 0.439453125 0.8125
vt 0.470703125 0.84375
vt 0.439453125 0.90625
vt 0.533203125 0.84375
vt 0.470703125 0.8125
vt 0.533203125 0.8125
vt 0.470703125 0.8125
vt 0.533203125 0.84375
vt 0.470703125 0.84375
vt 0.470703125 0.84375
vt 0.533203125 0.875
vt 0.533203125 0.90625
vt 0.189453125 0.1171875
vt 0.158203125 0.1484375
vt 0.158203125 0.1171875
vt 0.732421875 0.271484375
vt 0.701171875 0.302734375
vt 0.701171875 0.271484375
vt 0.19140625 0.2109375
vt 0.22265625 0.2421875
vt 0.19140625 0.2421875
vt 0.19140625 0.2109375
vt 0.22265625 0.1484375
vt 0.22265625 0.2109375
vt 0.826171875 0.42578125
vt 0.794921875 0.45703125
vt 0.794921875 0.42578125
vt 0.22265625 0.2421875
vt 0.19140625 0.2734375
vt 0.19140625 0.2421875
vt 0.0625 0.80859375
vt 0 0.78515625
vt 0.0625 0.78515625
vt 0.193359375 0.556640625
vt 0.130859375 0.529296875
vt 0.193359375 0.529296875
vt 0.76171875 0.328125
vt 0.82421875 0.296875
vt 0.82421875 0.328125
vt 0.0625 1
vt 0 0.97265625
vt 0.0625 0.97265625
vt 0.130859375 0.44921875
vt 0.158203125 0.41796875
vt 0.158203125 0.44921875
vt 0.765625 0.294921875
vt 0.828125 0.263671875
vt 0.828125 0.294921875
vt 0.302734375 0.623046875
vt 0.275390625 0.623046875
vt 0.275390625 0.591796875
vt 0.302734375 0.623046875
vt 0.330078125 0.591796875
vt 0.345703125 0.654296875
vt 0.408203125 0.591796875
vt 0.345703125 0.654296875
vt 0.330078125 0.591796875
vt 0.275390625 0.623046875
vt 0.314453125 0.654296875
vt 0.251953125 0.654296875
vt 0.759765625 0.58984375
vt 0.728515625 0.62109375
vt 0.728515625 0.58984375
vt 0.759765625 0.62109375
vt 0.728515625 0.68359375
vt 0.728515625 0.62109375
vt 0.759765625 0.58984375
vt 0.728515625 0.55859375
vt 0.759765625 0.55859375
vt 0.794921875 0.392578125
vt 0.826171875 0.423828125
vt 0.794921875 0.423828125
vt 0.349609375 0.2734375
vt 0.380859375 0.2734375
vt 0.349609375 0.3046875
vt 0.6337890625 0.337890625
vt 0.6025390625 0.306640625
vt 0.6337890625 0.306640625
vt 0.349609375 0.3359375
vt 0.380859375 0.3671875
vt 0.349609375 0.3671875
vt 0.349609375 0.2421875
vt 0.318359375 0.2734375
vt 0.318359375 0.2421875
vt 0.533203125 0.84375
vt 0.564453125 0.875
vt 0.533203125 0.875
vt 0.349609375 0.3046875
vt 0.318359375 0.2734375
vt 0.349609375 0.2734375
vt 0.564453125 0.875
vt 0.595703125 0.84375
vt 0.626953125 0.84375
vt 0.564453125 0.8125
vt 0.595703125 0.84375
vt 0.564453125 0.84375
vt 0.287109375 0.2421875
vt 0.318359375 0.2734375
vt 0.287109375 0.2734375
vt 0.287109375 0.2734375
vt 0.318359375 0.3046875
vt 0.255859375 0.3046875
vt 0.533203125 0.8125
vt 0.564453125 0.84375
vt 0.533203125 0.84375
vn -1 0 0
vn 1 0 0
vn -1 0 0
vn 0 0 1
vn 0 0 1
vn 0 0 1
vn 1 0 0
vn 0 0 1
vn -1 0 0
vn 0 0 -1
vn 1 0 0
vn 0 -1 0
vn 0 0 -1
vn 1 0 0
vn 0 0 -1
vn 0 -1 0
vn 0 0 -1
vn 0 -1 0
vn 0 -1 0
vn -1 0 0
vn 0 -1 0
vn 0 -1 0
vn 0 -1 0
vn 0 -1 0
vn 0 0 -1
vn 0 0 -1
vn 0 0 1
vn 0 -1 0
vn 0 0 1
vn 1 0 0
vn 0 -1 0
vn 0 -1 0
vn 0 1 0
vn 1 0 0
vn 0 1 0
vn 0 -1 0
vn 0 1 0
vn 0 1 0
vn 0 1 0
vn 0 -1 0
vn 0 -1 0
vn 0 -1 0
vn 0 1 0
vn 0 -1 0
vn -1 0 0
vn 0 -1 0
vn 0 -1 0
vn 0 -1 0
vn 0 -1 0
vn -1 0 0
vn 0 -1 0
vn 1 0 0
vn 0 0 -1
vn 0 -1 0
vn 0 1 0
vn -1 0 0
vn 1 0 0
vn 0 1 0
vn -1 0 0
vn 0 1 0
vn 0 1 0
vn 0 1 0
vn 0 1 0
vn -1 0 0
vn 1 0 0
vn 0 1 0
vn 0 -1 0
vn 0 1 0
vn 1 0 0
vn -1 0 0
vn 0 1 0
vn -1 0 0
vn 0 1 0
vn -1 0 0
vn 1 0 0
vn 0 0 -1
vn 1 0 0
vn 1 0 0
vn 1 0 0
vn 0 0 -1
vn 0 0 -1
vn 0 0 -1
vn 1 0 0
vn 0 0 1
vn 0 0 1
vn 0 0 1
vn -1 0 0
vn -1 0 0
vn 0 1 0
vn 0 1 0
vn -1 0 0
vn -1 0 0
vn 0 0 1
vn 0 0 -1
vn -1 0 0
vn 0 1 0
vn 0 0 1
vn 0 -1 0
vn 0 0 -1
vn 1 0 0
vn 1 0 0
vn -1 0 0
vn -1 0 0
vn -1 0 0
vn -1 0 0
vn 1 0 0
vn 1 0 0
vn 1 0 0
vn 1 0 0
vn -1 0 0
vn -1 0 0
vn -1 0 0
vn 1 0 0
vn 1 0 0
vn 0 1 0
vn 1 0 0
vn 0 1 0
vn 0 0 -1
vn -1 0 0
vn 0 0 1
vn 0 1 0
vn 0 0 -1
vn 0 0 -1
vn -1 0 0
vn 0 -1 0
vn 1 0 0
vn 0 -1 0
vn 0 0 1
vn 0 -1 0
vn 0 1 0
vn 0 1 0
vn -1 0 0
vn -1 0 0
vn 0 0 1
vn 0 1 0
vn 0 0 -1
vn -1 0 0
vn 0 0 -1
vn 0 1 0
vn 0 0 1
vn 0 1 0
vn 0 0 -1
vn 1 0 0
vn 0 0 1
vn -1 0 0
vn 0 1 0
vn -1 0 0
vn 0 1 0
vn -1 0 0
vn 0 1 0
vn 0 0 1
vn -1 0 0
vn 0 1 0
vn 0 1 0
vn -1 0 0
vn -1 0 0
vn -1 0 0
vn -1 0 0
vn -1 0 0
vn 0 0 1
vn 0 0 -1
vn 0 -1 0
vn 0 1 0
vn 0 0 1
vn 0 -1 0
vn 0 -1 0
vn 1 0 0
vn 1 0 0
vn 0 0 1
vn 0 0 1
vn 0 0 -1
vn 0 0 -1
vn -1 0 0
vn 1 0 0
vn -1 0 0
vn 0 0 -1
vn 0 -1 0
vn 0 -1 0
vn 0 -1 0
vn 0 -1 0
vn 0 -1 0
vn 0 -1 0
vn -1 0 0
vn 0 0 -1
vn -1 0 0
vn -1 0 0
vn 0 0 -1
vn 0 0 1
vn 0 0 1
vn 0 1 0
vn 0 1 0
vn 0 1 0
vn 1 0 0
vn 0 0 1
vn -1 0 0
vn 0 1 0
vn 1 0 0
vn 0 0 1
vn 0 -1 0
vn 1 0 0
vn 1 0 0
vn 1 0 0
vn 1 0 0
vn 1 0 0
vn 1 0 0
vn 0 1 0
vn 0 0 1
vn 0 1 0
vn 0 1 0
vn 0 1 0
vn 0 1 0
vn 0 1 0
vn 0 1 0
vn 0 0 1
vn 0 1 0
vn -1 0 0
vn 0 0 -1
vn -1 0 0
vn -1 0 0
vn -1 0 0
vn -1 0 0
vn -1 0 0
vn 0 1 0
vn 0 1 0
vn 0 1 0
vn 0 1 0
vn -1 0 0
vn 1 0 0
vn -1 0 0
vn -1 0 0
vn -1 0 0
vn 1 0 0
vn -1 0 0
vn 1 0 0
vn 1 0 0
vn 1 0 0
vn -1 0 0
vn -1 0 0
vn 1 0 0
vn -1 0 0
vn 1 0 0
vn -1 0 0
vn 0 0 1
vn 0 0 1
vn 0 0 1
vn 0 0 1
vn 1 0 0
vn 0 0 1
vn -1 0 0
vn 0 0 -1
vn 1 0 0
vn 0 -1 0
vn 0 0 -1
vn 1 0 0
vn 0 0 -1
vn 0 -1 0
vn 0 0 -1
vn 0 -1 0
vn 0 -1 0
vn -1 0 0
vn -1 0 0
vn 0 -1 0
vn 0 -1 0
vn 0 -1 0
vn 0 -1 0
vn 0 0 -1
vn 0 0 -1
vn 0 0 1
vn 0 -1 0
vn 0 0 1
vn 1 0 0
vn 1 0 0
vn 0 -1 0
vn 0 -1 0
vn 0 1 0
vn 1 0 0
vn 0 1 0
vn 0 -1 0
vn 0 1 0
vn 0 1 0
vn 0 1 0
vn 0 -1 0
vn 0 -1 0
vn 0 -1 0
vn 0 1 0
vn 0 -1 0
vn -1 0 0
vn -1 0 0
vn 0 -1 0
vn 0 -1 0
vn 0 -1 0
vn 0 -1 0
vn -1 0 0
vn 0 -1 0
vn 1 0 0
vn 0 0 -1
vn 0 -1 0
vn 0 1 0
vn -1 0 0
vn 1 0 0
vn 1 0 0
vn 1 0 0
vn 0 1 0
vn -1 0 0
vn 0 1 0
vn 0 1 0
vn 0 1 0
vn 0 1 0
vn -1 0 0
vn -1 0 0
vn -1 0 0
vn 0 1 0
vn 0 -1 0
vn 0 1 0
vn 0 1 0
vn 1 0 0
vn 1 0 0
vn 1 0 0
vn -1 0 0
vn 0 1 0
vn -1 0 0
vn 0 1 0
vn 0 1 0
vn -1 0 0
vn -1 0 0
vn -1 0 0
vn 1 0 0
vn 0 0 -1
vn 1 0 0
vn 1 0 0
vn 0 0 -1
vn 0 0 -1
vn 0 0 -1
vn 0 0 -1
vn 1 0 0
vn 0 0 1
vn 0 0 1
vn 0 0 1
vn 0 0 1
vn -1 0 0
vn -1 0 0
vn 0 1 0
vn 0 1 0
vn -1 0 0
vn -1 0 0
vn 0 0 1
vn 0 0 -1
vn -1 0 0
vn 0 1 0
vn 0 0 1
vn 0 -1 0
vn 0 0 -1
vn 1 0 0
vn 1 0 0
vn 1 0 0
vn 1 0 0
vn 1 0 0
vn 1 0 0
vn -1 0 0
vn -1 0 0
vn 1 0 0
vn 1 0 0
vn 1 0 0
vn -1 0 0
vn -1 0 0
vn -1 0 0
vn 1 0 0
vn 1 0 0
vn 0 1 0
vn 1 0 0
vn 0 1 0
vn 0 0 -1
vn 0 0 -1
vn -1 0 0
vn 0 0 1
vn 0 1 0
vn 0 0 -1
vn 0 0 -1
vn -1 0 0
vn 0 -1 0
vn 1 0 0
vn 0 -1 0
vn 0 0 1
vn 0 -1 0
vn 0 1 0
vn 0 1 0
vn -1 0 0
vn -1 0 0
vn 0 0 1
vn 0 1 0
vn 0 0 -1
vn -1 0 0
vn 0 0 -1
vn 0 1 0
vn 0 0 1
vn 0 0 1
vn 0 1 0
vn 0 0 -1
vn 1 0 0
vn 0 0 1
vn -1 0 0
vn 0 1 0
vn -1 0 0
vn 0 1 0
vn -1 0 0
vn 0 1 0
vn 0 0 1
vn -1 0 0
vn 0 1 0
vn 0 1 0
vn -1 0 0
vn -1 0 0
vn -1 0 0
vn -1 0 0
vn -1 0 0
vn 0 0 1
vn 0 0 -1
vn 0 -1 0
vn 0 1 0
vn 0 0 1
vn 0 -1 0
vn 0 -1 0
vn 1 0 0
vn 1 0 0
vn 1 0 0
vn 0 0 1
vn 0 0 1
vn 0 0 -1
vn 0 0 -1
vn 1 0 0
vn 0 0 -1
vn 0 0 -1
vn 0 0 -1
vn 0 0 -1
vn 0 -1 0
vn 0 -1 0
vn 0 -1 0
vn 0 -1 0
vn 0 -1 0
vn 0 -1 0
vn -1 0 0
vn 0 0 -1
vn -1 0 0
vn -1 0 0
vn 0 0 -1
vn 0 0 1
vn 0 0 1
vn 0 1 0
vn 0 1 0
vn 0 1 0
vn 1 0 0
vn 0 0 1
vn 0 0 1
vn -1 0 0
vn 0 1 0
vn 1 0 0
vn 0 0 1
vn 0 -1 0
vn 1 0 0
vn 1 0 0
vn 1 0 0
vn 1 0 0
vn 1 0 0
vn 1 0 0
vn 1 0 0
vn 0 1 0
vn 0 0 1
vn 0 1 0
vn 0 1 0
vn 0 1 0
vn 0 1 0
vn 0 1 0
vn 0 1 0
vn 0 0 1
vn 0 1 0
vn -1 0 0
vn 0 0 -1
vn -1 0 0
vn -1 0 0
vn -1 0 0
vn -1 0 0
vn 0 1 0
vn 0 1 0
vn 0 1 0
vn 0 1 0
vn -1 0 0
vn 1 0 0
vn -1 0 0
vn -1 0 0
vn 1 0 0
vn -1 0 0
vn 1 0 0
vn 1 0 0
vn -1 0 0
vn -1 0 0
vn 1 0 0
usemtl m_7ec340ea-349e-ab49-ec67-8e5ef6e4bbd7
f 1/1/1 2/2/1 3/3/1
f 4/4/2 5/5/2 6/6/2
f 7/7/3 8/8/3 9/9/3
f 10/10/4 11/11/4 12/12/4
f 9/13/5 13/14/5 14/15/5
f 15/16/6 16/17/6 17/18/6
f 18/19/7 17/20/7 16/21/7
f 8/22/8 19/23/8 13/24/8
f 20/25/9 21/26/9 22/27/9
f 23/28/10 22/29/10 21/30/10
f 24/31/11 23/32/11 25/33/11
f 8/34/12 7/35/12 26/36/12
f 25/37/13 21/38/13 27/39/13
f 28/40/14 13/41/14 19/42/14
f 5/43/15 3/44/15 2/45/15
f 15/46/16 29/47/16 30/48/16
f 6/49/17 2/50/17 31/51/17
f 32/52/18 3/53/18 5/54/18
f 33/55/19 22/56/19 23/57/19
f 34/58/20 35/59/20 36/60/20
f 29/61/21 37/62/21 38/63/21
f 26/64/22 39/65/22 37/66/22
f 7/67/23 40/68/23 39/69/23
f 41/70/24 42/71/24 40/72/24
f 43/73/25 44/74/25 45/75/25
f 46/76/26 47/77/26 44/78/26
f 48/79/27 49/80/27 50/81/27
f 51/82/28 52/83/28 42/84/28
f 53/85/29 54/86/29 49/87/29
f 55/88/30 56/89/30 57/90/30
f 58/91/31 59/92/31 60/93/31
f 59/94/32 61/95/32 62/96/32
f 63/97/33 64/98/33 65/99/33
f 60/100/34 62/101/34 66/102/34
f 50/103/35 47/104/35 67/105/35
f 52/106/36 68/107/36 69/108/36
f 70/109/37 71/110/37 45/111/37
f 54/112/38 45/113/38 44/114/38
f 49/115/39 44/116/39 47/117/39
f 42/118/40 69/119/40 72/120/40
f 40/121/41 72/122/41 73/123/41
f 39/124/42 73/125/42 74/126/42
f 75/127/43 76/128/43 77/129/43
f 37/130/44 74/131/44 78/132/44
f 52/133/45 79/134/45 80/135/45
f 74/136/46 32/137/46 4/138/46
f 73/139/47 24/140/47 32/141/47
f 72/142/48 33/143/48 24/144/48
f 69/145/49 81/146/49 33/147/49
f 82/148/50 83/149/50 84/150/50
f 68/151/51 34/152/51 81/153/51
f 62/154/52 85/155/52 86/156/52
f 87/157/53 45/158/53 71/159/53
f 61/160/54 88/161/54 85/162/54
f 89/163/55 90/164/55 91/165/55
f 68/166/56 52/167/56 80/168/56
f 92/169/57 93/170/57 94/171/57
f 12/172/58 95/173/58 96/174/58
f 97/175/59 98/176/59 1/177/59
f 14/178/60 99/179/60 100/180/60
f 101/181/61 102/182/61 28/183/61
f 103/184/62 104/185/62 27/186/62
f 105/187/63 106/188/63 31/189/63
f 107/190/64 108/191/64 83/192/64
f 11/193/65 109/194/65 110/195/65
f 99/196/66 48/197/66 111/198/66
f 48/199/67 43/200/67 87/201/67
f 96/202/68 75/203/68 53/204/68
f 112/205/69 113/206/69 114/207/69
f 115/208/70 116/209/70 117/210/70
f 43/211/71 103/212/71 118/213/71
f 96/214/72 53/215/72 119/216/72
f 120/217/73 121/218/73 87/219/73
f 122/220/74 20/221/74 84/222/74
f 123/223/75 93/224/75 124/225/75
f 125/226/76 126/227/76 127/228/76
f 13/229/77 28/230/77 128/231/77
f 129/232/78 130/233/78 104/234/78
f 131/235/79 132/236/79 6/237/79
f 85/238/80 88/239/80 133/240/80
f 81/241/81 134/242/81 112/243/81
f 32/244/82 24/245/82 135/246/82
f 136/247/83 48/248/83 99/249/83
f 51/250/84 137/251/84 138/252/84
f 26/253/85 29/254/85 139/255/85
f 30/256/86 140/257/86 141/258/86
f 29/259/87 15/260/87 142/261/87
f 53/262/88 87/263/88 143/264/88
f 107/265/89 82/266/89 144/267/89
f 145/268/90 20/269/90 112/270/90
f 9/271/91 146/272/91 100/273/91
f 20/274/92 118/275/92 27/276/92
f 41/277/93 7/278/93 107/279/93
f 33/280/94 81/281/94 112/282/94
f 147/283/95 143/284/95 87/285/95
f 119/286/96 143/287/96 148/288/96
f 149/289/97 119/290/97 136/291/97
f 149/292/98 150/293/98 151/294/98
f 151/295/99 148/296/99 143/297/99
f 151/298/100 152/299/100 153/300/100
f 25/301/101 104/302/101 130/303/101
f 31/304/102 2/305/102 98/306/102
f 2/307/103 1/308/103 98/309/103
f 31/310/104 98/311/104 147/312/104
f 154/313/105 143/314/105 147/315/105
f 150/316/106 136/317/106 155/318/106
f 130/319/107 135/320/107 25/321/107
f 130/322/108 129/323/108 148/324/108
f 14/325/109 128/326/109 155/327/109
f 156/328/110 139/329/110 142/330/110
f 157/331/111 156/332/111 10/333/111
f 119/334/112 149/335/112 156/336/112
f 148/337/113 43/338/113 48/339/113
f 103/340/114 43/341/114 148/342/114
f 158/343/115 115/344/115 80/345/115
f 159/346/116 63/347/116 160/348/116
f 161/349/117 64/350/117 63/351/117
f 162/352/118 126/353/118 125/354/118
f 116/355/119 163/356/119 164/357/119
f 83/358/120 108/359/120 124/360/120
f 144/361/121 82/362/121 145/363/121
f 159/364/122 122/365/122 84/366/122
f 67/367/123 47/368/123 46/369/123
f 46/370/124 122/371/124 108/372/124
f 84/373/125 83/374/125 92/375/125
f 165/376/126 114/377/126 92/378/126
f 166/379/127 167/380/127 168/381/127
f 50/382/128 169/383/128 168/384/128
f 167/385/129 46/386/129 111/387/129
f 159/388/130 124/389/130 108/390/130
f 169/391/131 67/392/131 170/393/131
f 171/394/132 172/395/132 170/396/132
f 173/397/133 64/398/133 161/399/133
f 169/400/134 172/401/134 171/402/134
f 174/403/135 123/404/135 160/405/135
f 170/406/136 67/407/136 167/408/136
f 175/409/137 65/410/137 64/411/137
f 176/412/138 80/413/138 177/414/138
f 175/415/139 173/416/139 163/417/139
f 178/418/140 94/419/140 91/420/140
f 113/421/141 162/422/141 125/423/141
f 161/424/142 179/425/142 113/426/142
f 179/427/143 63/428/143 159/429/143
f 174/430/144 89/431/144 93/432/144
f 89/433/145 174/434/145 65/435/145
f 180/436/146 90/437/146 89/438/146
f 181/439/147 177/440/147 182/441/147
f 175/442/148 181/443/148 183/444/148
f 177/445/149 80/446/149 79/447/149
f 125/448/150 184/449/150 164/450/150
f 180/451/151 185/452/151 178/453/151
f 185/454/152 180/455/152 183/456/152
f 134/457/153 36/458/153 35/459/153
f 163/460/154 173/461/154 186/462/154
f 181/463/155 163/464/155 116/465/155
f 184/466/156 127/467/156 117/468/156
f 187/469/157 188/470/157 158/471/157
f 126/472/158 134/473/158 189/474/158
f 137/475/159 178/476/159 190/477/159
f 190/478/160 182/479/160 79/480/160
f 189/481/161 35/482/161 117/483/161
f 191/484/162 117/485/162 127/486/162
f 192/487/163 79/488/163 138/489/163
f 188/490/164 116/491/164 115/492/164
f 187/493/165 177/494/165 116/495/165
f 178/496/166 185/497/166 182/498/166
f 77/499/167 76/500/167 110/501/167
f 193/502/168 194/503/168 195/504/168
f 58/505/169 55/506/169 57/507/169
f 140/508/170 58/509/170 196/510/170
f 197/511/171 4/512/171 132/513/171
f 88/514/172 197/515/172 198/516/172
f 199/517/173 200/518/173 201/519/173
f 202/520/174 203/521/174 193/522/174
f 204/523/175 205/524/175 199/525/175
f 199/526/176 133/527/176 200/528/176
f 78/529/177 4/530/177 197/531/177
f 206/532/178 197/533/178 88/534/178
f 38/535/179 78/536/179 206/537/179
f 207/538/180 206/539/180 61/540/180
f 30/541/181 38/542/181 207/543/181
f 140/544/182 207/545/182 59/546/182
f 208/547/183 209/548/183 205/549/183
f 198/550/184 132/551/184 131/552/184
f 141/553/185 210/554/185 211/555/185
f 212/556/186 213/557/186 214/558/186
f 215/559/187 216/560/187 217/561/187
f 218/562/188 214/563/188 213/564/188
f 219/565/189 201/566/189 220/567/189
f 221/568/190 66/569/190 222/570/190
f 66/571/191 86/572/191 133/573/191
f 56/574/192 221/575/192 193/576/192
f 223/577/193 202/578/193 222/579/193
f 212/580/194 224/581/194 225/582/194
f 204/583/195 213/584/195 226/585/195
f 213/586/196 204/587/196 217/588/196
f 120/589/197 71/590/197 70/591/197
f 75/592/198 70/593/198 54/594/198
f 215/595/199 214/596/199 218/597/199
f 95/598/200 11/599/200 110/600/200
f 95/601/201 12/602/201 11/603/201
f 217/604/202 131/605/202 105/606/202
f 106/607/203 105/608/203 131/609/203
f 17/610/204 18/611/204 109/612/204
f 218/613/205 109/614/205 227/615/205
f 57/616/206 56/617/206 195/618/206
f 196/619/207 228/620/207 210/621/207
f 229/622/208 230/623/208 231/624/208
f 229/625/209 18/626/209 141/627/209
f 201/628/210 200/629/210 131/630/210
f 231/631/211 219/632/211 232/633/211
f 1/634/212 135/635/212 153/636/212
f 233/637/213 152/638/213 102/639/213
f 234/640/214 152/641/214 233/642/214
f 97/643/215 235/644/215 234/645/215
f 235/646/216 153/647/216 152/648/216
f 97/649/217 236/650/217 153/651/217
f 237/652/218 236/653/218 233/654/218
f 237/655/219 233/656/219 101/657/219
f 139/658/220 156/659/220 149/660/220
f 97/661/221 237/662/221 154/663/221
f 154/664/222 237/665/222 149/666/222
f 203/667/223 202/668/223 208/669/223
f 202/670/224 223/671/224 209/672/224
f 203/673/225 226/674/225 225/675/225
f 210/676/226 228/677/226 194/678/226
f 238/679/227 230/680/227 211/681/227
f 194/682/228 228/683/228 196/684/228
f 213/685/229 212/686/229 225/687/229
f 230/688/230 238/689/230 239/690/230
f 204/691/231 199/692/231 215/693/231
f 227/694/232 240/695/232 216/696/232
f 214/697/233 215/698/233 239/699/233
f 216/700/234 240/701/234 220/702/234
f 241/703/235 232/704/235 220/705/235
f 131/706/236 217/707/236 216/708/236
f 219/709/237 231/710/237 239/711/237
f 201/712/238 239/713/238 215/714/238
f 229/715/239 241/716/239 240/717/239
f 1/718/240 3/719/240 32/720/240
f 4/721/241 6/722/241 132/723/241
f 7/724/242 9/725/242 107/726/242
f 11/727/243 142/728/243 17/729/243
f 142/730/244 11/731/244 10/732/244
f 9/733/245 14/734/245 146/735/245
f 15/736/246 17/737/246 142/738/246
f 18/739/247 16/740/247 30/741/247
f 8/742/248 13/743/248 9/744/248
f 20/745/249 22/746/249 33/747/249
f 23/748/250 21/749/250 25/750/250
f 24/751/251 25/752/251 135/753/251
f 8/754/252 26/755/252 19/756/252
f 25/757/253 27/758/253 104/759/253
f 28/760/254 19/761/254 26/762/254
f 5/763/255 2/764/255 6/765/255
f 15/766/256 30/767/256 16/768/256
f 6/769/257 31/770/257 106/771/257
f 32/772/258 5/773/258 4/774/258
f 33/775/259 23/776/259 24/777/259
f 115/778/260 35/779/260 68/780/260
f 68/781/261 35/782/261 34/783/261
f 29/784/262 38/785/262 30/786/262
f 26/787/263 37/788/263 29/789/263
f 7/790/264 39/791/264 26/792/264
f 41/793/265 40/794/265 7/795/265
f 43/796/266 45/797/266 87/798/266
f 46/799/267 44/800/267 43/801/267
f 48/802/268 50/803/268 111/804/268
f 51/805/269 42/806/269 41/807/269
f 53/808/270 49/809/270 48/810/270
f 221/811/271 56/812/271 60/813/271
f 60/814/272 56/815/272 55/816/272
f 58/817/273 60/818/273 55/819/273
f 59/820/274 62/821/274 60/822/274
f 63/823/275 65/824/275 160/825/275
f 60/826/276 66/827/276 221/828/276
f 50/829/277 67/830/277 169/831/277
f 52/832/278 69/833/278 42/834/278
f 70/835/279 45/836/279 54/837/279
f 54/838/280 44/839/280 49/840/280
f 49/841/281 47/842/281 50/843/281
f 42/844/282 72/845/282 40/846/282
f 40/847/283 73/848/283 39/849/283
f 39/850/284 74/851/284 37/852/284
f 75/853/285 77/854/285 120/855/285
f 37/856/286 78/857/286 38/858/286
f 138/859/287 79/860/287 51/861/287
f 51/862/288 79/863/288 52/864/288
f 74/865/289 4/866/289 78/867/289
f 73/868/290 32/869/290 74/870/290
f 72/871/291 24/872/291 73/873/291
f 69/874/292 33/875/292 72/876/292
f 82/877/293 84/878/293 145/879/293
f 68/880/294 81/881/294 69/882/294
f 62/883/295 86/884/295 66/885/295
f 87/886/296 71/887/296 120/888/296
f 61/889/297 85/890/297 62/891/297
f 89/892/298 91/893/298 93/894/298
f 68/895/299 80/896/299 115/897/299
f 93/898/300 92/899/300 124/900/300
f 92/901/301 94/902/301 144/903/301
f 94/904/302 93/905/302 91/906/302
f 12/907/303 96/908/303 10/909/303
f 97/910/304 1/911/304 236/912/304
f 14/913/305 100/914/305 146/915/305
f 101/916/306 28/917/306 139/918/306
f 103/919/307 27/920/307 118/921/307
f 105/922/308 31/923/308 121/924/308
f 111/925/309 108/926/309 100/927/309
f 100/928/310 108/929/310 107/930/310
f 107/931/311 83/932/311 82/933/311
f 99/934/312 111/935/312 100/936/312
f 48/937/313 87/938/313 53/939/313
f 75/940/314 95/941/314 76/942/314
f 95/943/315 75/944/315 96/945/315
f 113/946/316 112/947/316 162/948/316
f 112/949/317 114/950/317 165/951/317
f 114/952/318 113/953/318 159/954/318
f 115/955/319 117/956/319 35/957/319
f 43/958/320 118/959/320 46/960/320
f 96/961/321 119/962/321 157/963/321
f 121/964/322 120/965/322 105/966/322
f 105/967/323 120/968/323 77/969/323
f 118/970/324 122/971/324 46/972/324
f 84/973/325 20/974/325 145/975/325
f 118/976/326 20/977/326 122/978/326
f 123/979/327 124/980/327 160/981/327
f 125/982/328 127/983/328 184/984/328
f 13/985/329 128/986/329 14/987/329
f 129/988/330 104/989/330 103/990/330
f 85/991/331 133/992/331 86/993/331
f 36/994/332 134/995/332 34/996/332
f 34/997/333 134/998/333 81/999/333
f 32/1000/334 135/1001/334 1/1002/334
f 136/1003/335 99/1004/335 155/1005/335
f 94/1006/336 137/1007/336 41/1008/336
f 41/1009/337 137/1010/337 51/1011/337
f 26/1012/338 139/1013/338 28/1014/338
f 30/1015/339 141/1016/339 18/1017/339
f 29/1018/340 142/1019/340 139/1020/340
f 53/1021/341 143/1022/341 119/1023/341
f 107/1024/342 144/1025/342 94/1026/342
f 145/1027/343 112/1028/343 165/1029/343
f 9/1030/344 100/1031/344 107/1032/344
f 20/1033/345 27/1034/345 21/1035/345
f 41/1036/346 107/1037/346 94/1038/346
f 33/1039/347 112/1040/347 20/1041/347
f 147/1042/348 87/1043/348 121/1044/348
f 119/1045/349 148/1046/349 136/1047/349
f 149/1048/350 136/1049/350 150/1050/350
f 149/1051/351 151/1052/351 154/1053/351
f 151/1054/352 143/1055/352 154/1056/352
f 102/1057/353 150/1058/353 28/1059/353
f 28/1060/354 150/1061/354 128/1062/354
f 152/1063/355 151/1064/355 102/1065/355
f 102/1066/356 151/1067/356 150/1068/356
f 151/1069/357 153/1070/357 130/1071/357
f 130/1072/358 153/1073/358 135/1074/358
f 31/1075/359 147/1076/359 121/1077/359
f 154/1078/360 147/1079/360 98/1080/360
f 150/1081/361 155/1082/361 128/1083/361
f 130/1084/362 148/1085/362 151/1086/362
f 14/1087/363 155/1088/363 99/1089/363
f 156/1090/364 142/1091/364 10/1092/364
f 157/1093/365 10/1094/365 96/1095/365
f 119/1096/366 156/1097/366 157/1098/366
f 148/1099/367 48/1100/367 136/1101/367
f 103/1102/368 148/1103/368 129/1104/368
f 158/1105/369 80/1106/369 176/1107/369
f 159/1108/370 160/1109/370 124/1110/370
f 161/1111/371 63/1112/371 179/1113/371
f 134/1114/372 126/1115/372 112/1116/372
f 112/1117/373 126/1118/373 162/1119/373
f 116/1120/374 164/1121/374 117/1122/374
f 83/1123/375 124/1124/375 92/1125/375
f 144/1126/376 145/1127/376 165/1128/376
f 159/1129/377 84/1130/377 114/1131/377
f 67/1132/378 46/1133/378 167/1134/378
f 46/1135/379 108/1136/379 111/1137/379
f 84/1138/380 92/1139/380 114/1140/380
f 165/1141/381 92/1142/381 144/1143/381
f 166/1144/382 168/1145/382 171/1146/382
f 50/1147/383 168/1148/383 111/1149/383
f 167/1150/384 111/1151/384 168/1152/384
f 159/1153/385 108/1154/385 122/1155/385
f 169/1156/386 170/1157/386 172/1158/386
f 171/1159/387 170/1160/387 166/1161/387
f 173/1162/388 161/1163/388 186/1164/388
f 169/1165/389 171/1166/389 168/1167/389
f 174/1168/390 160/1169/390 65/1170/390
f 170/1171/391 167/1172/391 166/1173/391
f 175/1174/392 64/1175/392 173/1176/392
f 176/1177/393 177/1178/393 187/1179/393
f 175/1180/394 163/1181/394 181/1182/394
f 94/1183/395 178/1184/395 137/1185/395
f 178/1186/396 91/1187/396 90/1188/396
f 113/1189/397 125/1190/397 186/1191/397
f 161/1192/398 113/1193/398 186/1194/398
f 179/1195/399 159/1196/399 113/1197/399
f 174/1198/400 93/1199/400 123/1200/400
f 89/1201/401 65/1202/401 175/1203/401
f 180/1204/402 89/1205/402 183/1206/402
f 181/1207/403 182/1208/403 183/1209/403
f 175/1210/404 183/1211/404 89/1212/404
f 177/1213/405 79/1214/405 182/1215/405
f 125/1216/406 164/1217/406 186/1218/406
f 180/1219/407 178/1220/407 90/1221/407
f 185/1222/408 183/1223/408 182/1224/408
f 134/1225/409 35/1226/409 189/1227/409
f 163/1228/410 186/1229/410 164/1230/410
f 181/1231/411 116/1232/411 177/1233/411
f 184/1234/412 117/1235/412 164/1236/412
f 187/1237/413 158/1238/413 176/1239/413
f 126/1240/414 189/1241/414 191/1242/414
f 137/1243/415 190/1244/415 192/1245/415
f 190/1246/416 79/1247/416 192/1248/416
f 189/1249/417 117/1250/417 191/1251/417
f 191/1252/418 127/1253/418 126/1254/418
f 192/1255/419 138/1256/419 137/1257/419
f 188/1258/420 115/1259/420 158/1260/420
f 187/1261/421 116/1262/421 188/1263/421
f 178/1264/422 182/1265/422 190/1266/422
f 77/1267/423 110/1268/423 217/1269/423
f 194/1270/424 203/1271/424 224/1272/424
f 203/1273/425 194/1274/425 193/1275/425
f 58/1276/426 57/1277/426 196/1278/426
f 140/1279/427 196/1280/427 141/1281/427
f 197/1282/428 132/1283/428 198/1284/428
f 88/1285/429 198/1286/429 133/1287/429
f 202/1288/430 193/1289/430 222/1290/430
f 133/1291/431 199/1292/431 223/1293/431
f 223/1294/432 205/1295/432 209/1296/432
f 223/1297/433 199/1298/433 205/1299/433
f 200/1300/434 133/1301/434 198/1302/434
f 78/1303/435 197/1304/435 206/1305/435
f 206/1306/436 88/1307/436 61/1308/436
f 38/1309/437 206/1310/437 207/1311/437
f 207/1312/438 61/1313/438 59/1314/438
f 30/1315/439 207/1316/439 140/1317/439
f 140/1318/440 59/1319/440 58/1320/440
f 208/1321/441 205/1322/441 204/1323/441
f 198/1324/442 131/1325/442 200/1326/442
f 141/1327/443 211/1328/443 230/1329/443
f 212/1330/444 214/1331/444 211/1332/444
f 215/1333/445 217/1334/445 204/1335/445
f 218/1336/446 213/1337/446 110/1338/446
f 219/1339/447 220/1340/447 232/1341/447
f 221/1342/448 222/1343/448 193/1344/448
f 66/1345/449 133/1346/449 222/1347/449
f 56/1348/450 193/1349/450 195/1350/450
f 223/1351/451 222/1352/451 133/1353/451
f 224/1354/452 212/1355/452 194/1356/452
f 194/1357/453 212/1358/453 211/1359/453
f 204/1360/454 226/1361/454 208/1362/454
f 213/1363/455 217/1364/455 110/1365/455
f 120/1366/456 70/1367/456 75/1368/456
f 75/1369/457 54/1370/457 53/1371/457
f 215/1372/458 218/1373/458 216/1374/458
f 95/1375/459 110/1376/459 76/1377/459
f 217/1378/460 105/1379/460 77/1380/460
f 106/1381/461 131/1382/461 6/1383/461
f 17/1384/462 109/1385/462 11/1386/462
f 227/1387/463 18/1388/463 229/1389/463
f 18/1390/464 227/1391/464 109/1392/464
f 109/1393/465 218/1394/465 110/1395/465
f 57/1396/466 195/1397/466 196/1398/466
f 196/1399/467 210/1400/467 141/1401/467
f 229/1402/468 231/1403/468 241/1404/468
f 229/1405/469 141/1406/469 230/1407/469
f 201/1408/470 131/1409/470 220/1410/470
f 231/1411/471 232/1412/471 241/1413/471
f 1/1414/472 153/1415/472 236/1416/472
f 233/1417/473 102/1418/473 101/1419/473
f 234/1420/474 233/1421/474 237/1422/474
f 97/1423/475 234/1424/475 237/1425/475
f 235/1426/476 152/1427/476 234/1428/476
f 97/1429/477 153/1430/477 235/1431/477
f 237/1432/478 97/1433/478 236/1434/478
f 237/1435/479 101/1436/479 149/1437/479
f 139/1438/480 149/1439/480 101/1440/480
f 97/1441/481 154/1442/481 98/1443/481
f 203/1444/482 208/1445/482 226/1446/482
f 202/1447/483 209/1448/483 208/1449/483
f 203/1450/484 225/1451/484 224/1452/484
f 210/1453/485 194/1454/485 211/1455/485
f 238/1456/486 211/1457/486 214/1458/486
f 194/1459/487 196/1460/487 195/1461/487
f 213/1462/488 225/1463/488 226/1464/488
f 230/1465/489 239/1466/489 231/1467/489
f 227/1468/490 216/1469/490 218/1470/490
f 214/1471/491 239/1472/491 238/1473/491
f 216/1474/492 220/1475/492 131/1476/492
f 241/1477/493 220/1478/493 240/1479/493
f 219/1480/494 239/1481/494 201/1482/494
f 201/1483/495 215/1484/495 199/1485/495
f 229/1486/496 240/1487/496 227/1488/496