# Blender 4.2.3 LTS
# www.blender.org
mtllib steam_turbine_rotor.mtl
o turbine_selection
v 0.500000 0.500000 -3.500000
v 0.500000 0.500000 -3.187500
v 0.500000 -0.500000 -3.500000
v 0.500000 -0.500000 -3.187500
v -0.500000 0.500000 -3.500000
v -0.500000 0.500000 -3.187500
v -0.500000 -0.500000 -3.500000
v -0.500000 -0.500000 -3.187500
v -0.375000 0.375000 -3.187500
v 0.375000 0.375000 -3.187500
v -0.375000 -0.375000 -3.187500
v 0.375000 -0.375000 -3.187500
v 0.500000 0.500000 -2.812500
v 0.500000 0.500000 -2.500000
v 0.500000 -0.500000 -2.812500
v 0.500000 -0.500000 -2.500000
v -0.500000 0.500000 -2.812500
v -0.500000 0.500000 -2.500000
v -0.500000 -0.500000 -2.812500
v -0.500000 -0.500000 -2.500000
v 0.375000 0.375000 -2.812500
v -0.375000 0.375000 -2.812500
v 0.375000 -0.375000 -2.812500
v -0.375000 -0.375000 -2.812500
v 0.375000 0.375000 -3.187500
v 0.375000 0.375000 -2.812500
v 0.375000 -0.375000 -3.187500
v 0.375000 -0.375000 -2.812500
v -0.375000 0.375000 -3.187500
v -0.375000 0.375000 -2.812500
v -0.375000 -0.375000 -3.187500
v -0.375000 -0.375000 -2.812500
v 0.500000 0.500000 2.500000
v 0.500000 0.500000 2.812500
v 0.500000 -0.500000 2.500000
v 0.500000 -0.500000 2.812500
v -0.500000 0.500000 2.500000
v -0.500000 0.500000 2.812500
v -0.500000 -0.500000 2.500000
v -0.500000 -0.500000 2.812500
v -0.375000 0.375000 2.812500
v 0.375000 0.375000 2.812500
v -0.375000 -0.375000 2.812500
v 0.375000 -0.375000 2.812500
v 0.500000 0.500000 3.187500
v 0.500000 0.500000 3.500000
v 0.500000 -0.500000 3.187500
v 0.500000 -0.500000 3.500000
v -0.500000 0.500000 3.187500
v -0.500000 0.500000 3.500000
v -0.500000 -0.500000 3.187500
v -0.500000 -0.500000 3.500000
v 0.375000 0.375000 3.187500
v -0.375000 0.375000 3.187500
v 0.375000 -0.375000 3.187500
v -0.375000 -0.375000 3.187500
v 0.375000 0.375000 2.812500
v 0.375000 0.375000 3.187500
v 0.375000 -0.375000 2.812500
v 0.375000 -0.375000 3.187500
v -0.375000 0.375000 2.812500
v -0.375000 0.375000 3.187500
v -0.375000 -0.375000 2.812500
v -0.375000 -0.375000 3.187500
vn 1.0000 -0.0000 -0.0000
vn -1.0000 -0.0000 -0.0000
vn -0.0000 1.0000 -0.0000
vn -0.0000 -1.0000 -0.0000
vn -0.0000 -0.0000 1.0000
vn -0.0000 -0.0000 -1.0000
vt 0.653846 0.682692
vt 0.653846 0.759615
vt 0.629808 0.759615
vt 0.629808 0.682692
vt 0.615385 0.750000
vt 0.615385 0.692308
vt 0.625000 0.682692
vt 0.625000 0.759615
vt 0.557692 0.750000
vt 0.548077 0.759615
vt 0.557692 0.692308
vt 0.548077 0.682692
vt 0.610577 0.826923
vt 0.552885 0.826923
vt 0.552885 0.798077
vt 0.610577 0.798077
vt 0.394231 0.600962
vt 0.394231 0.677885
vt 0.317308 0.677885
vt 0.317308 0.600962
s 0
usemtl steam_turbine
f 4/1/1 3/4/1 1/3/1 2/2/1
f 7/1/2 8/4/2 6/3/2 5/2/2
f 1/4/3 5/3/3 6/2/3 2/1/3
f 4/4/4 8/3/4 7/2/4 3/1/4
f 9/5/5 6/8/5 8/7/5 11/6/5
f 10/9/5 2/10/5 6/8/5 9/5/5
f 12/11/5 4/12/5 2/10/5 10/9/5
f 11/6/5 8/7/5 4/12/5 12/11/5
f 16/1/1 15/4/1 13/3/1 14/2/1
f 19/1/2 20/4/2 18/3/2 17/2/2
f 13/4/3 17/3/3 18/2/3 14/1/3
f 16/4/4 20/3/4 19/2/4 15/1/4
f 21/5/6 13/8/6 15/7/6 23/6/6
f 22/9/6 17/10/6 13/8/6 21/5/6
f 24/11/6 19/12/6 17/10/6 22/9/6
f 23/6/6 15/7/6 19/12/6 24/11/6
f 28/13/1 27/16/1 25/15/1 26/14/1
f 31/13/2 32/16/2 30/15/2 29/14/2
f 25/16/3 29/15/3 30/14/3 26/13/3
f 28/16/4 32/15/4 31/14/4 27/13/4
f 3/17/6 7/20/6 5/19/6 1/18/6
f 36/1/1 35/4/1 33/3/1 34/2/1
f 39/1/2 40/4/2 38/3/2 37/2/2
f 33/4/3 37/3/3 38/2/3 34/1/3
f 36/4/4 40/3/4 39/2/4 35/1/4
f 41/5/5 38/8/5 40/7/5 43/6/5
f 42/9/5 34/10/5 38/8/5 41/5/5
f 44/11/5 36/12/5 34/10/5 42/9/5
f 43/6/5 40/7/5 36/12/5 44/11/5
f 48/1/1 47/4/1 45/3/1 46/2/1
f 51/1/2 52/4/2 50/3/2 49/2/2
f 45/4/3 49/3/3 50/2/3 46/1/3
f 48/4/4 52/3/4 51/2/4 47/1/4
f 53/5/6 45/8/6 47/7/6 55/6/6
f 54/9/6 49/10/6 45/8/6 53/5/6
f 56/11/6 51/12/6 49/10/6 54/9/6
f 55/6/6 47/7/6 51/12/6 56/11/6
f 60/13/1 59/16/1 57/15/1 58/14/1
f 63/13/2 64/16/2 62/15/2 61/14/2
f 57/16/3 61/15/3 62/14/3 58/13/3
f 60/16/4 64/15/4 63/14/4 59/13/4
