# Made in Blockbench 4.11.1
mtllib steam_turbine.mtl

o FrontEngineSpinner
v 2.220446049250313e-16 -0.23743686707645817 0.25
v 2.220446049250313e-16 -0.23743686707645817 -0.25
v -1.2374368670764582 0.9999999999999998 0.25
v -1.2374368670764582 0.9999999999999998 -0.25
v 1.2374368670764582 1.0000000000000002 -0.25
v 1.2374368670764582 1.0000000000000002 0.25
v -2.220446049250313e-16 2.2374368670764584 -0.25
v -2.220446049250313e-16 2.2374368670764584 0.25
vt 0.38671875 0.453125
vt 0.49609375 0.453125
vt 0.49609375 0.34375
vt 0.38671875 0.34375
vt 0.71484375 0.25
vt 0.74609375 0.25
vt 0.74609375 0.140625
vt 0.71484375 0.140625
vt 0.5 0.453125
vt 0.609375 0.453125
vt 0.609375 0.34375
vt 0.5 0.34375
vt 0.75 0.25
vt 0.78125 0.25
vt 0.78125 0.140625
vt 0.75 0.140625
vt 0.8359375 0.79296875
vt 0.7265625 0.79296875
vt 0.7265625 0.82421875
vt 0.8359375 0.82421875
vt 0.8359375 0.7890625
vt 0.7265625 0.7890625
vt 0.7265625 0.7578125
vt 0.8359375 0.7578125
vn 0 0 -1
vn -0.7071067811865475 -0.7071067811865477 0
vn 0 0 1
vn 0.7071067811865475 0.7071067811865477 0
vn 0.7071067811865477 -0.7071067811865475 0
vn -0.7071067811865477 0.7071067811865475 0
usemtl turbine
f 4/4/1 7/3/1 5/2/1 2/1/1
f 3/8/2 4/7/2 2/6/2 1/5/2
f 8/12/3 3/11/3 1/10/3 6/9/3
f 7/16/4 8/15/4 6/14/4 5/13/4
f 6/20/5 1/19/5 2/18/5 5/17/5
f 7/24/6 4/23/6 3/22/6 8/21/6
