# Blender 4.2.3 LTS
# www.blender.org
mtllib steam_turbine_item.mtl
o turbine_selection
v 1.000000 1.000000 -2.000000
v 1.000000 1.000000 -1.687500
v 1.000000 -0.000000 -2.000000
v 1.000000 -0.000000 -1.687500
v 0.000000 1.000000 -2.000000
v 0.000000 1.000000 -1.687500
v 0.000000 -0.000000 -2.000000
v 0.000000 -0.000000 -1.687500
v 0.125000 0.875000 -1.687500
v 0.875000 0.875000 -1.687500
v 0.125000 0.125000 -1.687500
v 0.875000 0.125000 -1.687500
v 1.000000 1.000000 -1.312500
v 1.000000 1.000000 -1.000000
v 1.000000 -0.000000 -1.312500
v 1.000000 -0.000000 -1.000000
v 0.000000 1.000000 -1.312500
v 0.000000 1.000000 -1.000000
v 0.000000 -0.000000 -1.312500
v 0.000000 -0.000000 -1.000000
v 0.875000 0.875000 -1.312500
v 0.125000 0.875000 -1.312500
v 0.875000 0.125000 -1.312500
v 0.125000 0.125000 -1.312500
v 0.875000 0.875000 -1.687500
v 0.875000 0.875000 -1.312500
v 0.875000 0.125000 -1.687500
v 0.875000 0.125000 -1.312500
v 0.125000 0.875000 -1.687500
v 0.125000 0.875000 -1.312500
v 0.125000 0.125000 -1.687500
v 0.125000 0.125000 -1.312500
v 1.000000 1.000000 4.000000
v 1.000000 1.000000 4.312500
v 1.000000 0.000000 4.000000
v 1.000000 0.000000 4.312500
v 0.000000 1.000000 4.000000
v 0.000000 1.000000 4.312500
v 0.000000 0.000000 4.000000
v 0.000000 0.000000 4.312500
v 0.125000 0.875000 4.312500
v 0.875000 0.875000 4.312500
v 0.125000 0.125000 4.312500
v 0.875000 0.125000 4.312500
v 1.000000 1.000000 4.687500
v 1.000000 1.000000 5.000000
v 1.000000 0.000000 4.687500
v 1.000000 0.000000 5.000000
v 0.000000 1.000000 4.687500
v 0.000000 1.000000 5.000000
v 0.000000 0.000000 4.687500
v 0.000000 0.000000 5.000000
v 0.875000 0.875000 4.687500
v 0.125000 0.875000 4.687500
v 0.875000 0.125000 4.687500
v 0.125000 0.125000 4.687500
v 0.875000 0.875000 4.312500
v 0.875000 0.875000 4.687500
v 0.875000 0.125000 4.312500
v 0.875000 0.125000 4.687500
v 0.125000 0.875000 4.312500
v 0.125000 0.875000 4.687500
v 0.125000 0.125000 4.312500
v 0.125000 0.125000 4.687500
vn 1.0000 -0.0000 -0.0000
vn -1.0000 -0.0000 -0.0000
vn -0.0000 1.0000 -0.0000
vn -0.0000 -1.0000 -0.0000
vn -0.0000 -0.0000 1.0000
vn -0.0000 -0.0000 -1.0000
vt 0.653846 0.682692
vt 0.653846 0.759615
vt 0.629808 0.759615
vt 0.629808 0.682692
vt 0.615385 0.750000
vt 0.615385 0.692308
vt 0.625000 0.682692
vt 0.625000 0.759615
vt 0.557692 0.750000
vt 0.548077 0.759615
vt 0.557692 0.692308
vt 0.548077 0.682692
vt 0.610577 0.826923
vt 0.552885 0.826923
vt 0.552885 0.798077
vt 0.610577 0.798077
vt 0.394231 0.600962
vt 0.394231 0.677885
vt 0.317308 0.677885
vt 0.317308 0.600962
s 0
usemtl steam_turbine
f 4/1/1 3/4/1 1/3/1 2/2/1
f 7/1/2 8/4/2 6/3/2 5/2/2
f 1/4/3 5/3/3 6/2/3 2/1/3
f 4/4/4 8/3/4 7/2/4 3/1/4
f 9/5/5 6/8/5 8/7/5 11/6/5
f 10/9/5 2/10/5 6/8/5 9/5/5
f 12/11/5 4/12/5 2/10/5 10/9/5
f 11/6/5 8/7/5 4/12/5 12/11/5
f 16/1/1 15/4/1 13/3/1 14/2/1
f 19/1/2 20/4/2 18/3/2 17/2/2
f 13/4/3 17/3/3 18/2/3 14/1/3
f 16/4/4 20/3/4 19/2/4 15/1/4
f 21/5/6 13/8/6 15/7/6 23/6/6
f 22/9/6 17/10/6 13/8/6 21/5/6
f 24/11/6 19/12/6 17/10/6 22/9/6
f 23/6/6 15/7/6 19/12/6 24/11/6
f 28/13/1 27/16/1 25/15/1 26/14/1
f 31/13/2 32/16/2 30/15/2 29/14/2
f 25/16/3 29/15/3 30/14/3 26/13/3
f 28/16/4 32/15/4 31/14/4 27/13/4
f 3/17/6 7/20/6 5/19/6 1/18/6
f 36/1/1 35/4/1 33/3/1 34/2/1
f 39/1/2 40/4/2 38/3/2 37/2/2
f 33/4/3 37/3/3 38/2/3 34/1/3
f 36/4/4 40/3/4 39/2/4 35/1/4
f 41/5/5 38/8/5 40/7/5 43/6/5
f 42/9/5 34/10/5 38/8/5 41/5/5
f 44/11/5 36/12/5 34/10/5 42/9/5
f 43/6/5 40/7/5 36/12/5 44/11/5
f 48/1/1 47/4/1 45/3/1 46/2/1
f 51/1/2 52/4/2 50/3/2 49/2/2
f 45/4/3 49/3/3 50/2/3 46/1/3
f 48/4/4 52/3/4 51/2/4 47/1/4
f 53/5/6 45/8/6 47/7/6 55/6/6
f 54/9/6 49/10/6 45/8/6 53/5/6
f 56/11/6 51/12/6 49/10/6 54/9/6
f 55/6/6 47/7/6 51/12/6 56/11/6
f 60/13/1 59/16/1 57/15/1 58/14/1
f 63/13/2 64/16/2 62/15/2 61/14/2
f 57/16/3 61/15/3 62/14/3 58/13/3
f 60/16/4 64/15/4 63/14/4 59/13/4
o turbine.001
v 0.125000 0.625002 9.562500
v 0.125000 0.312502 9.562500
v 0.125000 0.625002 8.750000
v 0.125000 0.312502 8.750000
v 0.250000 0.625002 9.562500
v 0.250000 0.312502 9.562500
v 0.250000 0.625002 8.750000
v 0.250000 0.312502 8.750000
v 1.812500 1.687500 1.000000
v 1.812500 1.687500 -1.000000
v 0.500000 2.000000 1.000000
v 0.500000 2.000000 -1.000000
v -0.812500 1.687500 1.000000
v -0.812500 1.687500 -1.000000
v 2.500000 0.000000 1.000000
v 2.500000 -0.000000 -1.000000
v -1.500000 -0.000000 -1.000000
v -1.500000 0.000000 1.000000
v -0.812500 1.687500 -0.000000
v 0.500000 2.000000 -0.000000
v 1.812500 1.687500 -0.000000
v 2.500000 0.000000 0.000000
v -1.500000 0.000000 0.000000
v 2.500000 0.375000 -0.000000
v 2.500000 0.375000 1.000000
v -1.500000 0.375000 1.000000
v -1.500000 0.375000 -0.000000
v -1.500000 0.375000 -1.000000
v 2.500000 0.375000 -1.000000
v 1.812500 1.687500 1.000000
v 0.500000 2.000000 1.000000
v -0.812500 1.687500 1.000000
v 2.500000 0.000000 1.000000
v -1.500000 0.000000 1.000000
v 2.500000 0.375000 1.000000
v -1.500000 0.375000 1.000000
v 1.812500 1.687500 -1.000000
v 0.500000 2.000000 -1.000000
v -0.812500 1.687500 -1.000000
v 2.500000 -0.000000 -1.000000
v -1.500000 -0.000000 -1.000000
v 2.500000 0.375000 -1.000000
v -1.500000 0.375000 -1.000000
v 1.812500 1.687500 4.000000
v 0.500000 2.000000 4.000000
v -0.812500 1.687500 4.000000
v 2.500000 0.000000 4.000000
v -1.500000 0.000000 4.000000
v 2.500000 0.375000 4.000000
v -1.500000 0.375000 4.000000
v 1.812500 1.687500 2.000000
v 0.500000 2.000000 2.000000
v -0.812500 1.687500 2.000000
v 2.500000 0.000000 2.000000
v -1.500000 0.000000 2.000000
v 2.500000 0.375000 2.000000
v -1.500000 0.375000 2.000000
v 1.812500 1.687500 4.000000
v 1.812500 1.687500 2.000000
v 0.500000 2.000000 4.000000
v 0.500000 2.000000 2.000000
v -0.812500 1.687500 4.000000
v -0.812500 1.687500 2.000000
v 2.500000 0.000000 4.000000
v 2.500000 0.000000 2.000000
v -1.500000 0.000000 2.000000
v -1.500000 0.000000 4.000000
v -0.812500 1.687500 3.000000
v 0.500000 2.000000 3.000000
v 1.812500 1.687500 3.000000
v 2.500000 0.000000 3.000000
v -1.500000 0.000000 3.000000
v 2.500000 0.375000 3.000000
v 2.500000 0.375000 4.000000
v -1.500000 0.375000 4.000000
v -1.500000 0.375000 3.000000
v -1.500000 0.375000 2.000000
v 2.500000 0.375000 2.000000
v 1.484375 1.265625 2.000000
v 1.484375 1.265625 1.000000
v 0.500000 1.500000 2.000000
v 0.500000 1.500000 1.000000
v -0.484375 1.265625 2.000000
v -0.484375 1.265625 1.000000
v 2.000000 0.000000 2.000000
v 2.000000 0.000000 1.000000
v -1.000000 0.000000 1.000000
v -1.000000 0.000000 2.000000
v 2.000000 0.281250 2.000000
v -1.000000 0.281250 2.000000
v -1.000000 0.281250 1.000000
v 2.000000 0.281250 1.000000
v 0.500000 1.500002 7.375000
v 0.500000 1.500000 6.000000
v -0.484375 1.265627 7.375000
v -0.484375 1.265625 6.000000
v -1.000000 0.000000 6.000000
v -1.000000 0.000002 7.375000
v -1.000000 0.281252 7.375000
v -1.000000 0.281250 6.000000
v 0.500000 1.500000 6.000000
v 1.484375 1.265627 7.375000
v 1.484375 1.265625 6.000000
v 2.000000 0.000000 6.000000
v 2.000000 0.000002 7.375000
v 2.000000 0.281252 7.375000
v 2.000000 0.281250 6.000000
v 0.500000 1.500000 6.000000
v -0.484375 1.265625 6.000000
v -1.000000 0.000000 6.000000
v -1.000000 0.281250 6.000000
v 1.484375 1.265625 6.000000
v 2.000000 0.000000 6.000000
v 2.000000 0.281250 6.000000
v 0.500000 1.500002 7.375000
v -0.484375 1.265627 7.375000
v -1.000000 0.000002 7.375000
v -1.000000 0.281252 7.375000
v 1.484375 1.265627 7.375000
v 2.000000 0.000002 7.375000
v 2.000000 0.281252 7.375000
v -0.109375 0.953127 9.000000
v -0.109375 0.953127 7.000000
v 0.500000 1.125002 9.000000
v 0.500000 1.125000 7.000000
v -0.500000 0.000002 9.000000
v -0.500000 0.000002 7.000000
v -0.500000 0.281252 9.000000
v -0.500000 0.281252 7.000000
v 1.109375 0.953127 9.000000
v 1.109375 0.953127 7.000000
v 1.500000 0.000002 9.000000
v 1.500000 0.000002 7.000000
v 1.500000 0.281252 9.000000
v 1.500000 0.281252 7.000000
v -0.109375 0.953127 9.000000
v -0.500000 0.000002 9.000000
v -0.500000 0.281252 9.000000
v 1.109375 0.953127 9.000000
v 1.500000 0.000002 9.000000
v 1.500000 0.281252 9.000000
v 0.500000 0.953127 9.000000
v 0.500000 0.281252 9.000000
v 0.500000 0.000002 9.000000
v 2.000000 0.000000 1.000000
v 2.000000 0.000000 2.000000
v 2.000000 -1.000000 1.000000
v 2.000000 -1.000000 2.000000
v -1.000000 0.000000 1.000000
v -1.000000 0.000000 2.000000
v -1.000000 -1.000000 1.000000
v -1.000000 -1.000000 2.000000
v 2.500000 -0.000000 -1.000000
v 2.500000 0.000000 1.000000
v 2.500000 -1.000000 -1.000000
v 2.500000 -1.000000 1.000000
v -1.500000 -0.000000 -1.000000
v -1.500000 0.000000 1.000000
v -1.500000 -1.000000 -1.000000
v -1.500000 -1.000000 1.000000
v 2.500000 0.000000 2.000000
v 2.500000 0.000000 4.000000
v 2.500000 -1.000000 2.000000
v 2.500000 -1.000000 4.000000
v -1.500000 0.000000 2.000000
v -1.500000 0.000000 4.000000
v -1.500000 -1.000000 2.000000
v -1.500000 -1.000000 4.000000
v 2.061733 1.333284 -0.312500
v 2.061733 1.333284 0.312500
v 1.951009 1.275276 -0.312500
v 1.951009 1.275276 0.312500
v 2.351777 0.779660 -0.312500
v 2.351777 0.779660 0.312500
v 2.241052 0.721651 -0.312500
v 2.241052 0.721651 0.312500
v -1.061733 1.333284 -0.312500
v -1.061733 1.333284 0.312500
v -0.951009 1.275276 -0.312500
v -0.951009 1.275276 0.312500
v -1.351777 0.779660 -0.312500
v -1.351777 0.779660 0.312500
v -1.241052 0.721651 -0.312500
v -1.241052 0.721651 0.312500
v -1.061733 1.333284 2.687500
v -1.061733 1.333284 3.312500
v -0.951009 1.275275 2.687500
v -0.951009 1.275275 3.312500
v -1.351777 0.779660 2.687500
v -1.351777 0.779660 3.312500
v -1.241052 0.721651 2.687500
v -1.241052 0.721651 3.312500
v 2.061733 1.333284 2.687500
v 2.061733 1.333284 3.312500
v 1.951009 1.275275 2.687500
v 1.951009 1.275275 3.312500
v 2.351777 0.779660 2.687500
v 2.351777 0.779660 3.312500
v 2.241052 0.721651 2.687500
v 2.241052 0.721651 3.312500
v 1.000000 3.500000 0.937500
v 1.000000 3.500000 5.937500
v 1.000000 2.500000 0.937500
v 1.000000 2.500000 5.937500
v 0.000000 3.500000 0.937500
v 0.000000 3.500000 5.937500
v 0.000000 2.500000 0.937500
v 0.000000 2.500000 5.937500
v 0.250000 2.750000 6.437500
v 0.750000 2.750000 6.437500
v 0.250000 2.750000 6.937500
v 0.750000 2.750000 6.937500
v 0.250000 1.562500 6.437500
v 0.750000 1.562500 6.437500
v 0.750000 1.562500 6.937500
v 0.250000 1.562500 6.937500
v 0.750000 3.250000 6.437500
v 0.750000 3.250000 6.937500
v 0.250000 3.250000 6.437500
v 0.250000 3.250000 6.937500
v 0.250000 2.750000 6.062500
v 0.750000 2.750000 6.062500
v 0.750000 3.250000 6.062500
v 0.250000 3.250000 6.062500
v 0.750000 3.250000 6.437500
v 0.250000 3.250000 6.437500
v 0.250000 2.750000 6.437500
v 0.750000 2.750000 6.437500
v 0.250000 2.500000 1.250000
v 0.750000 2.500000 1.250000
v 0.250000 2.500000 1.750000
v 0.750000 2.500000 1.750000
v 0.250000 1.500000 1.250000
v 0.750000 1.500000 1.250000
v 0.750000 1.500000 1.750000
v 0.250000 1.500000 1.750000
v 0.875000 1.562500 6.312500
v 0.875000 1.562500 7.062500
v 0.875000 1.375000 6.312500
v 0.875000 1.375000 7.062500
v 0.125000 1.562500 6.312500
v 0.125000 1.562500 7.062500
v 0.125000 1.375000 6.312500
v 0.125000 1.375000 7.062500
v 0.875000 1.562500 1.125000
v 0.875000 1.562500 1.875000
v 0.875000 1.375000 1.125000
v 0.875000 1.375000 1.875000
v 0.125000 1.562500 1.125000
v 0.125000 1.562500 1.875000
v 0.125000 1.375000 1.125000
v 0.125000 1.375000 1.875000
v 0.750000 0.250002 9.750000
v 0.750000 0.750002 9.250000
v 0.750000 0.250002 9.250000
v 0.250000 0.250002 9.750000
v 0.250000 0.250002 9.250000
v 0.250000 0.750003 9.750000
v 0.250000 0.750003 9.250000
v 0.750000 0.750002 9.937500
v 0.750000 0.250002 9.937500
v 0.250000 0.250002 9.937500
v 0.250000 0.750003 9.937500
v 0.250000 0.250002 9.750000
v 0.750000 0.750002 9.750000
v 0.750000 0.250002 9.750000
v 0.250000 1.250003 9.750000
v 0.250000 1.250003 9.250000
v 0.750000 1.250003 9.250000
v 0.875000 0.875002 10.062500
v 0.875000 0.125002 10.062500
v 0.875000 0.875002 9.937500
v 0.875000 0.125002 9.937500
v 0.125000 0.875003 10.062500
v 0.125000 0.125002 10.062500
v 0.125000 0.875003 9.937500
v 0.125000 0.125002 9.937500
v 0.750000 1.750002 9.250000
v 0.250000 1.250002 9.250000
v 0.250000 1.750002 9.250000
v 0.250000 1.750002 9.750000
v 0.250000 1.250002 9.750000
v 1.312500 1.250002 9.250000
v 1.312500 1.750002 9.250000
v 1.312500 1.750002 9.750000
v 1.312500 1.250002 9.750000
v 0.750000 1.750002 9.750000
v 0.750000 1.250002 9.750000
v 0.750000 1.250002 9.250000
v 0.750000 1.750002 9.250000
v 1.500000 0.875002 8.187500
v 1.500000 0.375002 8.187500
v 2.000000 0.875002 8.187500
v 2.000000 0.375002 8.187500
v 1.500000 0.375002 7.687500
v 2.000000 0.375002 7.687500
v 1.500000 0.875002 7.687500
v 2.000000 0.875002 7.687500
v 0.750000 0.875002 8.187500
v 0.750000 0.375002 8.187500
v 0.750000 0.375002 7.687500
v 0.750000 0.875002 7.687500
v 2.000000 0.875002 8.187500
v 2.000000 0.375002 8.187500
v 1.500000 0.875002 9.250000
v 2.000000 0.375002 9.250000
v 1.500000 0.375002 9.250000
v 1.500000 0.875002 9.250000
v 1.500000 0.375002 9.250000
v 2.000000 0.875002 9.250000
v 2.000000 0.375002 9.250000
v 1.500000 0.375002 9.750000
v 2.000000 0.375002 9.750000
v 1.500000 0.875002 9.750000
v 2.000000 0.875002 9.750000
v 1.500000 1.250002 9.750000
v 2.000000 1.250002 9.750000
v 2.000000 1.250002 9.250000
v 1.500000 1.250002 9.250000
v 1.500000 1.750002 9.250000
v 1.999999 1.250002 9.250000
v 2.000000 1.750002 9.250000
v 1.500000 1.750002 9.750000
v 2.000000 1.750002 9.750000
v 1.500000 1.250002 9.750000
v 2.000000 1.250002 9.750000
v 1.312500 1.250002 9.250000
v 1.312500 1.750002 9.250000
v 1.500000 1.750002 9.750000
v 1.500000 1.250002 9.750000
v 1.500000 1.250002 9.250000
v 1.500000 1.750002 9.250000
v 0.875000 3.375000 6.062500
v 0.875000 2.625000 6.062500
v 0.875000 3.375000 5.937500
v 0.875000 2.625000 5.937500
v 0.125000 3.375000 6.062500
v 0.125000 2.625000 6.062500
v 0.125000 3.375000 5.937500
v 0.125000 2.625000 5.937500
v 2.125000 1.000002 8.750000
v 2.125000 0.250002 8.750000
v 2.125000 1.000002 8.625000
v 2.125000 0.250002 8.625000
v 1.375000 1.000002 8.750000
v 1.375000 0.250002 8.750000
v 1.375000 1.000002 8.625000
v 1.375000 0.250002 8.625000
v 2.125000 1.000002 8.562500
v 2.125000 0.250002 8.562500
v 2.125000 1.000002 8.625000
v 2.125000 0.250002 8.625000
v 1.375000 1.000002 8.562500
v 1.375000 0.250002 8.562500
v 1.375000 1.000002 8.625000
v 1.375000 0.250002 8.625000
v 1.187500 1.875002 9.875000
v 1.187500 1.125002 9.875000
v 1.312500 1.875002 9.875000
v 1.312500 1.125002 9.875000
v 1.187500 1.875002 9.125000
v 1.187500 1.125002 9.125000
v 1.312500 1.875002 9.125000
v 1.312500 1.125002 9.125000
v 1.375000 1.875002 9.875000
v 1.375000 1.125002 9.875000
v 1.312500 1.875002 9.875000
v 1.312500 1.125002 9.875000
v 1.375000 1.875002 9.125000
v 1.375000 1.125002 9.125000
v 1.312500 1.875002 9.125000
v 1.312500 1.125002 9.125000
v 0.875000 2.375000 1.125000
v 0.875000 2.375000 1.875000
v 0.875000 2.500000 1.125000
v 0.875000 2.500000 1.875000
v 0.125000 2.375000 1.125000
v 0.125000 2.375000 1.875000
v 0.125000 2.500000 1.125000
v 0.125000 2.500000 1.875000
v 2.000000 0.000000 6.000000
v 2.000000 0.000002 7.375000
v 2.000000 -1.000000 6.000000
v 2.000000 -0.999998 7.375000
v -1.000000 0.000000 6.000000
v -1.000000 0.000002 7.375000
v -1.000000 -1.000000 6.000000
v -1.000000 -0.999998 7.375000
v -1.000000 0.000002 6.687500
v -1.000000 -1.000000 6.687500
v 2.000000 -1.000000 6.687500
v 2.000000 0.000002 6.687500
v -0.625000 -1.000000 6.687500
v -0.625000 -1.000000 6.375000
v 1.625000 -1.000000 6.375000
v 1.625000 -1.000000 6.687500
v 1.500000 0.000002 7.375000
v 1.500000 0.000002 9.000000
v 1.500000 -0.999998 7.375000
v 1.500000 -0.999998 9.000000
v -0.500000 0.000002 7.375000
v -0.500000 0.000002 9.000000
v -0.500000 -0.999998 7.375000
v -0.500000 -0.999998 9.000000
v 0.500000 -0.999998 9.000000
v 0.500000 -0.999998 7.375000
v 1.000000 1.500000 5.000000
v 1.000000 1.500000 6.000000
v 1.500000 1.000000 5.000000
v 1.500000 1.000000 6.000000
v 0.000000 1.500000 5.000000
v 0.000000 1.500000 6.000000
v -0.500000 1.000000 5.000000
v -0.500000 1.000000 6.000000
v 1.000000 1.000000 6.000000
v 1.000000 1.500000 6.000000
v 0.000000 1.000000 6.000000
v 0.000000 1.500000 6.000000
v 0.000000 1.000000 5.000000
v 0.000000 1.500000 5.000000
v 1.000000 1.000000 5.000000
v 1.000000 1.500000 5.000000
v 1.500000 1.000000 5.000000
v 1.500000 -1.000000 5.000000
v -0.500000 1.000000 5.000000
v -0.500000 -1.000000 5.000000
v 1.500000 1.000000 6.000000
v 1.500000 -1.000000 6.000000
v -0.500000 1.000000 6.000000
v -0.500000 -1.000000 6.000000
v 1.664786 0.913872 7.125000
v 1.664786 0.913870 6.250000
v 1.954829 0.360247 7.125000
v 1.954829 0.360245 6.250000
v 1.720148 0.942876 7.125000
v 1.720148 0.942873 6.250000
v 2.010191 0.389252 7.125000
v 2.010191 0.389249 6.250000
v -0.500000 1.000002 9.875000
v -1.000000 1.000002 9.875000
v -0.500000 0.000002 9.875000
v -1.000000 0.000002 9.875000
v -0.500000 1.000002 9.125000
v -1.000000 1.000002 9.125000
v -0.500000 0.000002 9.125000
v -1.000000 0.000002 9.125000
v -1.000000 1.000002 9.500000
v -0.500000 1.000002 9.500000
v -0.500000 1.000002 9.875000
v -0.500000 0.000002 9.875000
v -0.500000 1.000002 9.125000
v -0.500000 0.000002 9.125000
v 1.000000 1.000002 9.000000
v 1.000000 1.000002 9.187500
v 1.000000 0.000002 9.000000
v 1.000000 0.000002 9.187500
v 0.000000 1.000002 9.000000
v 0.000000 1.000002 9.187500
v 0.000000 0.000002 9.000000
v 0.000000 0.000002 9.187500
v 0.875000 0.625002 9.562500
v 0.875000 0.312502 9.562500
v 0.875000 0.625002 8.750000
v 0.875000 0.312502 8.750000
v 0.750000 0.625002 9.562500
v 0.750000 0.312502 9.562500
v 0.750000 0.625002 8.750000
v 0.750000 0.312502 8.750000
v 2.000000 0.000002 9.000000
v 2.000000 0.000002 10.000000
v 2.000000 -0.999998 9.000000
v 2.000000 -0.999998 10.000000
v -1.000000 0.000002 9.000000
v -1.000000 0.000002 10.000000
v -1.000000 -0.999998 9.000000
v -1.000000 -0.999998 10.000000
v 1.546851 0.322457 7.562500
v 1.546851 0.322457 8.312500
v 1.439314 0.258734 7.562500
v 1.439314 0.258734 8.312500
v 1.164506 0.967680 7.562500
v 1.164506 0.967680 8.312500
v 1.056969 0.903957 7.562500
v 1.056969 0.903957 8.312500
vn -1.0000 -0.0000 -0.0000
vn 1.0000 -0.0000 -0.0000
vn -0.0000 -0.0000 1.0000
vn -0.0000 -0.0000 -1.0000
vn -0.0000 1.0000 -0.0000
vn -0.0000 -1.0000 -0.0000
vn 0.2316 0.9728 -0.0000
vn -0.2316 0.9728 -0.0000
vn 0.8858 0.4640 -0.0000
vn -0.8858 0.4640 -0.0000
vn -0.2715 0.9624 -0.0000
vn -0.8645 0.5026 -0.0000
vn 0.2715 0.9624 -0.0000
vn 0.8645 0.5026 -0.0000
vn -0.4641 0.8858 -0.0000
vn 0.4641 -0.8858 -0.0000
vn 0.8858 0.4641 -0.0000
vn -0.8858 -0.4641 -0.0000
vn 0.4641 0.8858 -0.0000
vn -0.4641 -0.8858 -0.0000
vn -0.8858 0.4641 -0.0000
vn 0.8858 -0.4641 -0.0000
vn 0.7071 0.7071 -0.0000
vn -0.7071 0.7071 -0.0000
vn 0.5098 -0.8603 -0.0000
vn -0.5098 0.8603 -0.0000
vn 0.8603 0.5098 -0.0000
vn -0.8603 -0.5098 -0.0000
vt 0.788462 0.836538
vt 0.725962 0.836538
vt 0.725962 0.812500
vt 0.788462 0.812500
vt 0.788462 0.807692
vt 0.764423 0.807692
vt 0.764423 0.817308
vt 0.788462 0.817308
vt 0.725962 0.807692
vt 0.725962 0.817308
vt 0.000000 0.879808
vt 0.000000 0.985577
vt 0.076923 0.985577
vt 0.076923 0.879808
vt 0.312500 0.985577
vt 0.312500 0.879808
vt 0.235577 0.879808
vt 0.235577 0.985577
vt 0.312500 0.764423
vt 0.235577 0.764423
vt 0.235577 0.793269
vt 0.312500 0.793269
vt 0.076923 0.764423
vt 0.000000 0.764423
vt 0.000000 0.793269
vt 0.076923 0.793269
vt 0.158654 0.879808
vt 0.158654 0.985577
vt 0.153846 0.985577
vt 0.153846 0.879808
vt 0.153846 0.764423
vt 0.153846 0.793269
vt 0.158654 0.764423
vt 0.158654 0.793269
vt 0.000000 0.908654
vt 0.076923 0.908654
vt 0.153846 0.908654
vt 0.158654 0.908654
vt 0.235577 0.908654
vt 0.312500 0.908654
vt 0.153846 0.442308
vt 0.254808 0.418269
vt 0.052885 0.418269
vt 0.307692 0.317308
vt 0.000000 0.317308
vt 0.307692 0.288462
vt 0.000000 0.288462
vt 0.475962 0.677885
vt 0.475962 0.600962
vt 0.399038 0.600962
vt 0.399038 0.677885
vt 0.475962 0.596154
vt 0.475962 0.519231
vt 0.399038 0.519231
vt 0.399038 0.596154
vt 0.475962 0.653846
vt 0.399038 0.653846
vt 0.399038 0.538462
vt 0.475962 0.538462
vt 0.475962 0.514423
vt 0.399038 0.514423
vt 0.475962 0.567308
vt 0.399038 0.567308
vt 0.399038 0.625000
vt 0.475962 0.625000
vt 0.572115 0.302885
vt 0.572115 0.225962
vt 0.466346 0.225962
vt 0.466346 0.302885
vt 0.572115 0.254808
vt 0.572115 0.168269
vt 0.466346 0.168269
vt 0.466346 0.254808
vt 0.572115 0.144231
vt 0.466346 0.144231
vt 0.466346 0.221154
vt 0.572115 0.221154
vt 0.572115 0.298077
vt 0.466346 0.298077
vt 0.000000 0.019231
vt 0.230769 0.019231
vt 0.230769 0.043269
vt 0.000000 0.043269
vt 0.000000 0.044471
vt 0.230769 0.044471
vt 0.191106 0.121394
vt 0.039663 0.121394
vt 0.115385 0.139423
vt 0.312500 0.899038
vt 0.158654 0.899038
vt 0.158654 0.850962
vt 0.312500 0.850962
vt 0.158654 0.788462
vt 0.312500 0.788462
vt 0.153846 0.850962
vt 0.153846 0.899038
vt 0.000000 0.899038
vt 0.000000 0.850962
vt 0.153846 0.788462
vt 0.000000 0.788462
vt 0.000000 0.447115
vt 0.000000 0.471154
vt 0.076923 0.471154
vt 0.076923 0.447115
vt 0.000000 0.466346
vt 0.030048 0.519231
vt 0.076923 0.519231
vt 0.076923 0.466346
vt 0.085337 0.524038
vt 0.038462 0.524038
vt 0.085337 0.538462
vt 0.143029 0.519231
vt 0.173077 0.466346
vt 0.096154 0.466346
vt 0.096154 0.519231
vt 0.173077 0.471154
vt 0.173077 0.447115
vt 0.096154 0.447115
vt 0.096154 0.471154
vt 0.132212 0.524038
vt 0.846154 0.307692
vt 0.769231 0.307692
vt 0.769231 0.384615
vt 0.846154 0.384615
vt 0.009615 0.990385
vt 0.000000 0.990385
vt 0.000000 1.000000
vt 0.009615 1.000000
vt 0.836538 0.596154
vt 0.605769 0.596154
vt 0.605769 0.673077
vt 0.836538 0.673077
vt 0.461538 0.230769
vt 0.307692 0.230769
vt 0.307692 0.307692
vt 0.461538 0.307692
vt 0.615385 0.307692
vt 0.307692 0.384615
vt 0.615385 0.384615
vt 0.615385 0.308173
vt 0.307692 0.308173
vt 0.307692 0.385096
vt 0.615385 0.385096
vt 0.875000 0.596154
vt 0.567308 0.596154
vt 0.567308 0.442308
vt 0.875000 0.442308
vt 0.615865 0.307692
vt 0.308173 0.307692
vt 0.308173 0.384615
vt 0.615865 0.384615
vt 0.370192 1.000000
vt 0.370192 0.995192
vt 0.322115 0.995192
vt 0.322115 1.000000
vt 0.322115 0.956731
vt 0.322115 0.947115
vt 0.370192 0.947115
vt 0.370192 0.956731
vt 0.370192 0.951923
vt 0.322115 0.951923
vt 0.365385 0.951923
vt 0.375000 0.951923
vt 0.375000 1.000000
vt 0.365385 1.000000
vt 0.326923 1.000000
vt 0.317308 1.000000
vt 0.317308 0.951923
vt 0.326923 0.951923
vt 0.158654 0.682692
vt 0.543269 0.682692
vt 0.543269 0.759615
vt 0.158654 0.759615
vt 0.076923 0.149038
vt 0.461538 0.149038
vt 0.461538 0.225962
vt 0.076923 0.225962
vt 0.625000 0.682692
vt 0.548077 0.682692
vt 0.548077 0.759615
vt 0.625000 0.759615
vt 0.326923 0.822115
vt 0.326923 0.860577
vt 0.365385 0.860577
vt 0.365385 0.822115
vt 0.326923 0.855769
vt 0.365385 0.855769
vt 0.365385 0.764423
vt 0.326923 0.764423
vt 0.365385 0.947115
vt 0.365385 0.908654
vt 0.326923 0.908654
vt 0.326923 0.947115
vt 0.365385 0.826923
vt 0.326923 0.826923
vt 0.326923 0.846154
vt 0.365385 0.846154
vt 0.365385 0.769231
vt 0.326923 0.769231
vt 0.317308 0.668269
vt 0.317308 0.610577
vt 0.302885 0.610577
vt 0.302885 0.668269
vt 0.240385 0.610577
vt 0.240385 0.668269
vt 0.254808 0.668269
vt 0.254808 0.610577
vt 0.307692 0.610577
vt 0.250000 0.610577
vt 0.250000 0.668269
vt 0.307692 0.668269
vt 0.307692 0.600962
vt 0.250000 0.600962
vt 0.250000 0.615385
vt 0.307692 0.615385
vt 0.250000 0.677885
vt 0.307692 0.677885
vt 0.307692 0.663462
vt 0.250000 0.663462
vt 0.326923 0.899038
vt 0.365385 0.899038
vt 0.365385 0.836538
vt 0.326923 0.836538
vt 0.326923 0.875000
vt 0.365385 0.875000
vt 0.365385 0.850962
vt 0.326923 0.850962
vt 0.326924 0.865385
vt 0.365385 0.865385
vt 0.326923 0.884615
vt 0.365385 0.884615
vt 0.365385 0.850961
vt 0.326923 0.889423
vt 0.365385 0.889423
vt 0.365385 0.812500
vt 0.326923 0.812500
vt 0.355769 0.812500
vt 0.355769 0.870192
vt 0.365385 0.870192
vt 0.201923 0.596154
vt 0.259615 0.596154
vt 0.259615 0.538462
vt 0.201923 0.538462
vt 0.322115 0.538462
vt 0.264423 0.538462
vt 0.264423 0.596154
vt 0.322115 0.596154
vt 0.326923 0.879808
vt 0.365385 0.879808
vt 0.365385 0.841346
vt 0.326923 0.841346
vt 0.326923 0.894231
vt 0.365385 0.894231
vt 0.326923 0.865385
vt 0.326923 0.903846
vt 0.365385 0.903846
vt 0.326923 0.870192
vt 0.326923 0.774038
vt 0.365385 0.774038
vt 0.365385 0.831731
vt 0.326923 0.831731
vt 0.360577 0.836538
vt 0.331731 0.836538
vt 0.331731 0.865385
vt 0.360577 0.865385
vt 0.365385 0.817308
vt 0.326923 0.817308
vt 0.326924 0.817308
vt 0.326923 0.788462
vt 0.365385 0.788462
vt 0.365385 0.817307
vt 0.365385 0.913462
vt 0.355769 0.855769
vt 0.355769 0.913462
vt 0.355769 0.846154
vt 0.355769 0.903846
vt 0.336538 0.812500
vt 0.336538 0.870192
vt 0.360577 0.870192
vt 0.360577 0.812500
vt 0.408654 0.230769
vt 0.408654 0.307692
vt 0.360577 0.307692
vt 0.360577 0.230769
vt 0.894231 0.918269
vt 0.663462 0.918269
vt 0.663462 0.865385
vt 0.894231 0.865385
vt 0.538462 0.384615
vt 0.307692 0.461538
vt 0.538462 0.461538
vt 0.692308 0.870192
vt 0.692308 0.894231
vt 0.663462 0.894231
vt 0.663462 0.841346
vt 0.894231 0.894231
vt 0.865385 0.894231
vt 0.865385 0.870192
vt 0.894231 0.841346
vt 0.831731 0.475962
vt 0.831731 0.500000
vt 0.658654 0.500000
vt 0.658654 0.475962
vt 0.485577 0.384615
vt 0.360577 0.384615
vt 0.360577 0.461538
vt 0.485577 0.461538
vt 0.740385 0.442308
vt 0.615385 0.442308
vt 0.615385 0.519231
vt 0.740385 0.519231
vt 0.538462 0.774038
vt 0.461538 0.774038
vt 0.461538 0.826923
vt 0.538462 0.826923
vt 0.302885 0.461538
vt 0.225962 0.461538
vt 0.225962 0.538462
vt 0.302885 0.538462
vt 0.658654 0.961538
vt 0.620192 0.961538
vt 0.658654 1.000000
vt 0.653846 0.230769
vt 0.615385 0.230769
vt 0.653846 0.269231
vt 0.730769 0.269231
vt 0.730769 0.230769
vt 0.769231 0.230769
vt 0.379808 0.826923
vt 0.456731 0.826923
vt 0.456731 0.788462
vt 0.379808 0.788462
vt 0.000000 0.605769
vt 0.000000 0.759615
vt 0.076923 0.759615
vt 0.076923 0.605769
vt 0.153846 0.759615
vt 0.153846 0.605769
vt 0.769231 0.076923
vt 0.615385 0.076923
vt 0.817308 0.923077
vt 0.663462 0.923077
vt 0.663462 1.000000
vt 0.817308 1.000000
vt 0.326923 0.543269
vt 0.394231 0.543269
vt 0.394231 0.591346
vt 0.326923 0.591346
vt 0.326923 0.548077
vt 0.394231 0.548077
vt 0.389423 0.543269
vt 0.389423 0.591346
vt 0.331731 0.543269
vt 0.331731 0.591346
vt 0.182692 0.461538
vt 0.221154 0.461538
vt 0.221154 0.538462
vt 0.182692 0.538462
vt 0.182692 0.509615
vt 0.221154 0.509615
vt 0.221154 0.490385
vt 0.182692 0.490385
vt 0.754808 0.384615
vt 0.754808 0.307692
vt 0.697115 0.307692
vt 0.697115 0.384615
vt 0.721154 0.759615
vt 0.663462 0.759615
vt 0.663462 0.836538
vt 0.721154 0.836538
vt 0.562500 0.057692
vt 0.548077 0.057692
vt 0.548077 0.134615
vt 0.562500 0.134615
vt 0.543269 0.038462
vt 0.466346 0.038462
vt 0.466346 0.052885
vt 0.543269 0.052885
vt 0.543269 0.057692
vt 0.466346 0.057692
vt 0.466346 0.134615
vt 0.543269 0.134615
vt 0.692308 0.307692
vt 0.692308 0.384615
vt 0.312500 0.668269
vt 0.312500 0.610577
s 0
usemtl steam_turbine.001
f 65/21/7 67/22/7 68/23/7 66/24/7
f 70/21/8 72/22/8 71/23/8 69/24/8
f 70/25/9 69/26/9 65/27/9 66/28/9
f 71/28/10 72/27/10 68/26/10 67/25/10
f 69/25/11 71/29/11 67/30/11 65/28/11
f 66/28/12 68/30/12 72/29/12 70/25/12
f 74/31/13 76/32/13 84/33/13 85/34/13
f 76/35/14 78/36/14 83/37/14 84/38/14
f 81/39/7 87/40/7 91/41/7 92/42/7
f 86/43/8 80/44/8 93/45/8 88/46/8
f 77/47/14 75/48/14 84/38/14 83/37/14
f 75/49/13 73/50/13 85/34/13 84/33/13
f 79/51/8 86/43/8 88/46/8 89/52/8
f 87/40/7 82/53/7 90/54/7 91/41/7
f 88/46/15 93/45/15 74/55/15 85/56/15
f 85/56/15 73/57/15 89/52/15 88/46/15
f 91/41/16 90/54/16 77/58/16 83/59/16
f 83/59/16 78/60/16 92/42/16 91/41/16
f 95/61/9 96/62/9 94/63/9
f 96/62/9 100/64/9 99/65/9 94/63/9
f 98/66/9 97/67/9 99/65/9 100/64/9
f 101/63/10 103/62/10 102/61/10
f 106/65/10 107/64/10 103/62/10 101/63/10
f 106/65/10 104/67/10 105/66/10 107/64/10
f 109/61/9 110/62/9 108/63/9
f 110/62/9 114/64/9 113/65/9 108/63/9
f 112/66/9 111/67/9 113/65/9 114/64/9
f 115/63/10 117/62/10 116/61/10
f 120/65/10 121/64/10 117/62/10 115/63/10
f 120/65/10 118/67/10 119/66/10 121/64/10
f 123/31/13 125/32/13 133/33/13 134/34/13
f 125/35/14 127/36/14 132/37/14 133/38/14
f 130/39/7 136/40/7 140/41/7 141/42/7
f 135/43/8 129/44/8 142/45/8 137/46/8
f 126/47/14 124/48/14 133/38/14 132/37/14
f 124/49/13 122/50/13 134/34/13 133/33/13
f 128/51/8 135/43/8 137/46/8 138/52/8
f 136/40/7 131/53/7 139/54/7 140/41/7
f 137/46/15 142/45/15 123/55/15 134/56/15
f 134/56/15 122/57/15 138/52/15 137/46/15
f 140/41/16 139/54/16 126/58/16 132/59/16
f 132/59/16 127/60/16 141/42/16 140/41/16
f 146/68/14 148/69/14 147/70/14 145/71/14
f 144/72/13 146/73/13 145/74/13 143/75/13
f 149/71/8 150/68/8 156/76/8 153/77/8
f 154/78/7 155/79/7 151/80/7 152/81/7
f 153/77/15 156/76/15 144/82/15 143/83/15
f 155/79/16 154/78/16 147/84/16 148/85/16
f 158/86/14 160/87/14 159/88/14 157/89/14
f 160/90/16 164/91/16 163/92/16 159/93/16
f 164/91/7 161/94/7 162/95/7 163/92/7
f 166/96/13 167/97/13 165/98/13 157/99/13
f 170/92/15 171/91/15 167/90/15 166/93/15
f 169/95/8 168/94/8 171/91/8 170/92/8
f 177/100/10 174/101/10 175/102/10 178/103/10
f 178/104/10 175/105/10 173/106/10 176/107/10
f 172/108/10 176/107/10 173/106/10
f 182/102/9 181/101/9 184/100/9 185/103/9
f 180/106/9 182/105/9 185/104/9 183/107/9
f 180/106/9 183/107/9 179/108/9
f 188/109/17 189/110/17 187/111/17 186/112/17
f 193/113/7 191/53/7 190/39/7 192/114/7
f 187/111/18 193/113/18 192/114/18 186/112/18
f 195/115/19 189/116/19 188/117/19 194/118/19
f 196/44/8 197/51/8 199/119/8 198/120/8
f 198/120/20 199/119/20 195/115/20 194/118/20
f 204/121/9 205/122/9 207/123/9 208/124/9
f 205/125/9 203/126/9 206/127/9 207/128/9
f 206/129/9 203/130/9 188/131/9
f 200/132/9 202/133/9 207/134/9 206/135/9
f 202/136/9 201/137/9 208/138/9 207/139/9
f 206/129/9 188/131/9 200/140/9
f 212/141/8 211/142/8 209/143/8 210/144/8
f 215/141/7 216/142/7 214/143/7 213/144/7
f 209/145/11 213/146/11 214/147/11 210/148/11
f 212/149/12 216/150/12 215/151/12 211/152/12
f 220/153/8 219/154/8 217/155/8 218/156/8
f 223/153/7 224/154/7 222/155/7 221/156/7
f 219/157/10 223/155/10 221/158/10 217/159/10
f 224/160/9 220/161/9 218/162/9 222/163/9
f 220/164/12 224/165/12 223/166/12 219/167/12
f 228/153/8 227/154/8 225/155/8 226/156/8
f 231/153/7 232/154/7 230/155/7 229/156/7
f 227/168/10 231/169/10 229/170/10 225/171/10
f 232/157/9 228/155/9 226/158/9 230/159/9
f 228/167/12 232/166/12 231/165/12 227/164/12
f 233/172/21 235/173/21 236/174/21 234/175/21
f 238/176/22 240/177/22 239/178/22 237/179/22
f 238/172/23 237/180/23 233/181/23 234/175/23
f 239/172/24 240/180/24 236/181/24 235/175/24
f 237/182/10 239/183/10 235/184/10 233/185/10
f 234/186/9 236/187/9 240/188/9 238/189/9
f 244/174/25 243/173/25 241/172/25 242/175/25
f 247/178/26 248/177/26 246/176/26 245/179/26
f 241/181/27 245/180/27 246/172/27 242/175/27
f 244/181/28 248/180/28 247/172/28 243/175/28
f 243/184/10 247/183/10 245/182/10 241/185/10
f 248/188/9 244/187/9 242/186/9 246/189/9
f 252/174/25 251/173/25 249/172/25 250/175/25
f 255/178/26 256/177/26 254/176/26 253/179/26
f 249/181/27 253/180/27 254/172/27 250/175/27
f 252/181/28 256/180/28 255/172/28 251/175/28
f 251/184/10 255/183/10 253/182/10 249/185/10
f 256/188/9 252/187/9 250/186/9 254/189/9
f 257/172/21 259/173/21 260/174/21 258/175/21
f 262/176/22 264/177/22 263/178/22 261/179/22
f 262/172/23 261/180/23 257/181/23 258/175/23
f 263/172/24 264/180/24 260/181/24 259/175/24
f 261/182/10 263/183/10 259/184/10 257/185/10
f 258/186/9 260/187/9 264/188/9 262/189/9
f 268/190/8 267/191/8 265/192/8 266/193/8
f 271/194/7 272/195/7 270/196/7 269/197/7
f 265/192/11 269/191/11 270/190/11 266/193/11
f 268/193/12 272/190/12 271/191/12 267/192/12
f 267/198/10 271/199/10 269/200/10 265/201/10
f 272/198/9 268/199/9 266/200/9 270/201/9
f 283/202/11 284/203/11 282/204/11 281/205/11
f 273/206/10 274/207/10 278/208/10 277/209/10
f 274/206/8 276/207/8 279/208/8 278/209/8
f 276/206/9 275/207/9 280/208/9 279/209/9
f 275/206/7 273/207/7 277/208/7 280/209/7
f 282/210/8 276/211/8 274/212/8 281/213/8
f 284/204/9 275/205/9 276/202/9 282/203/9
f 283/213/7 273/212/7 275/211/7 284/210/7
f 287/214/11 288/215/11 290/206/11 289/207/11
f 285/206/12 286/207/12 292/214/12 291/215/12
f 288/214/7 285/215/7 291/206/7 290/207/7
f 286/206/8 287/207/8 289/214/8 292/215/8
f 293/216/10 294/217/10 298/218/10 297/219/10
f 294/216/8 296/217/8 299/218/8 298/219/8
f 296/216/9 295/217/9 300/218/9 299/219/9
f 295/216/7 293/217/7 297/218/7 300/219/7
f 304/220/8 303/221/8 301/222/8 302/223/8
f 307/224/7 308/225/7 306/226/7 305/227/7
f 301/228/11 305/229/11 306/230/11 302/231/11
f 304/228/12 308/229/12 307/230/12 303/231/12
f 303/232/10 307/233/10 305/234/10 301/235/10
f 308/236/9 304/237/9 302/238/9 306/239/9
f 312/220/8 311/221/8 309/222/8 310/223/8
f 315/224/7 316/225/7 314/226/7 313/227/7
f 309/228/11 313/229/11 314/230/11 310/231/11
f 312/228/12 316/229/12 315/230/12 311/231/12
f 311/232/10 315/233/10 313/234/10 309/235/10
f 316/236/9 312/237/9 310/238/9 314/239/9
f 322/212/7 323/213/7 321/210/7 320/211/7
f 321/204/12 319/203/12 317/240/12 320/241/12
f 323/242/10 318/243/10 319/244/10 321/245/10
f 326/243/7 327/242/7 322/246/7 328/247/7
f 324/243/8 325/242/8 330/246/8 329/247/8
f 325/243/12 326/242/12 328/246/12 330/247/12
f 329/212/8 317/213/8 319/210/8 318/211/8
f 317/147/10 329/147/10 330/147/10
f 327/246/11 324/247/11 329/243/11 322/242/11
f 322/248/9 329/249/9 352/214/9 331/215/9
f 323/217/7 322/216/7 331/250/7 332/251/7
f 318/252/10 323/247/10 332/253/10 333/254/10
f 329/255/8 318/256/8 333/247/8 352/246/8
f 337/257/8 336/258/8 334/259/8 335/255/8
f 340/257/7 341/258/7 339/259/7 338/255/7
f 334/260/9 338/261/9 339/262/9 335/263/9
f 337/264/10 341/265/10 340/266/10 336/267/10
f 336/257/11 340/258/11 338/259/11 334/255/11
f 341/257/12 337/258/12 335/259/12 339/255/12
f 345/210/9 346/213/9 352/212/9 351/211/9
f 342/250/11 344/216/11 345/217/11 351/251/11
f 344/244/7 343/243/7 346/242/7 345/245/7
f 352/243/9 350/268/9 349/269/9 351/242/9
f 354/255/10 348/207/10 347/206/10 353/256/10
f 353/270/12 347/251/12 350/250/12 352/271/12
f 351/247/11 349/272/11 348/273/11 354/246/11
f 344/210/10 342/213/10 353/212/10 343/211/10
f 354/147/10 353/147/10 342/147/10
f 361/274/10 362/275/10 360/276/10 359/249/10
f 360/210/12 358/211/12 356/212/12 359/213/12
f 362/276/8 357/249/8 358/274/8 360/275/8
f 361/213/11 355/212/11 357/211/11 362/210/11
f 365/269/10 366/268/10 361/202/10 359/205/10
f 363/243/9 364/242/9 356/273/9 355/272/9
f 366/259/11 363/277/11 355/256/11 361/255/11
f 364/278/12 365/279/12 359/280/12 356/281/12
f 367/282/10 368/283/10 356/284/10 355/285/10
f 369/286/11 374/287/11 367/240/11 355/241/11
f 370/286/12 371/287/12 356/240/12 368/241/12
f 374/286/8 370/287/8 368/240/8 367/241/8
f 355/286/7 356/287/7 371/240/7 369/241/7
f 377/249/9 379/276/9 378/275/9 376/274/9
f 373/206/12 375/207/12 377/273/12 376/272/12
f 375/211/8 374/212/8 379/213/8 377/210/8
f 372/212/7 373/213/7 376/210/7 378/211/7
f 380/288/9 378/289/9 379/290/9 381/291/9
f 381/287/8 379/289/8 374/290/8 382/286/8
f 383/287/7 372/289/7 378/290/7 380/286/7
f 374/290/10 369/289/10 383/288/10 382/291/10
f 389/212/9 390/213/9 388/210/9 387/211/9
f 388/217/11 386/216/11 384/250/11 387/251/11
f 390/242/8 385/243/8 386/244/8 388/245/8
f 349/243/9 350/242/9 394/246/9 393/247/9
f 391/243/10 392/242/10 396/246/10 395/247/10
f 350/246/12 391/247/12 395/243/12 394/242/12
f 392/243/11 349/242/11 393/246/11 396/247/11
f 395/212/10 384/213/10 386/210/10 385/211/10
f 384/147/10 395/147/10 396/147/10
f 400/257/8 399/258/8 397/259/8 398/255/8
f 403/257/7 404/258/7 402/259/7 401/255/7
f 397/264/9 401/265/9 402/266/9 398/267/9
f 400/264/10 404/265/10 403/266/10 399/267/10
f 399/257/11 403/258/11 401/259/11 397/255/11
f 404/257/12 400/258/12 398/259/12 402/255/12
f 408/292/8 407/207/8 405/293/8 406/294/8
f 411/259/7 412/255/7 410/257/7 409/258/7
f 405/264/9 409/265/9 410/266/9 406/267/9
f 408/264/10 412/265/10 411/266/10 407/267/10
f 407/276/11 411/217/11 409/295/11 405/296/11
f 412/277/12 408/256/12 406/297/12 410/298/12
f 413/258/8 415/299/8 416/300/8 414/257/8
f 418/258/7 420/299/7 419/300/7 417/257/7
f 418/266/10 417/265/10 413/264/10 414/267/10
f 419/266/9 420/265/9 416/264/9 415/267/9
f 417/258/11 419/299/11 415/300/11 413/257/11
f 414/258/12 416/299/12 420/300/12 418/257/12
f 424/292/9 423/207/9 421/293/9 422/294/9
f 427/259/10 428/255/10 426/257/10 425/258/10
f 421/264/7 425/265/7 426/266/7 422/267/7
f 424/264/8 428/265/8 427/266/8 423/267/8
f 423/276/11 427/217/11 425/295/11 421/296/11
f 428/277/12 424/256/12 422/297/12 426/298/12
f 429/258/9 431/299/9 432/300/9 430/257/9
f 434/258/10 436/299/10 435/300/10 433/257/10
f 434/266/8 433/265/8 429/264/8 430/267/8
f 435/266/7 436/265/7 432/264/7 431/267/7
f 433/258/11 435/299/11 431/300/11 429/257/11
f 430/258/12 432/299/12 436/300/12 434/257/12
f 437/259/8 439/258/8 440/257/8 438/255/8
f 442/259/7 444/258/7 443/257/7 441/255/7
f 442/266/12 441/265/12 437/264/12 438/267/12
f 443/266/11 444/265/11 440/264/11 439/267/11
f 441/259/10 443/258/10 439/257/10 437/255/10
f 438/259/9 440/258/9 444/257/9 442/255/9
f 446/156/8 448/153/8 455/301/8 456/302/8
f 452/154/7 450/155/7 453/303/7 454/304/7
f 448/305/12 452/306/12 454/307/12 455/308/12
f 447/309/10 451/158/10 449/310/10 445/311/10
f 452/309/9 448/158/9 446/310/9 450/311/9
f 449/156/7 451/153/7 454/301/7 453/302/7
f 447/154/8 445/155/8 456/303/8 455/304/8
f 458/312/12 457/313/12 454/314/12 451/315/12
f 455/316/12 460/317/12 459/318/12 447/319/12
f 447/319/12 459/318/12 458/312/12 451/315/12
f 459/320/12 460/321/12 457/322/12 458/323/12
f 464/324/8 463/325/8 461/326/8 462/327/8
f 467/324/7 468/325/7 466/326/7 465/327/7
f 463/328/12 464/329/12 469/330/12 470/331/12
f 468/328/12 467/329/12 470/330/12 469/331/12
f 474/332/29 473/333/29 471/334/29 472/335/29
f 477/332/30 478/333/30 476/334/30 475/335/30
f 471/336/11 475/337/11 476/338/11 472/339/11
f 479/340/9 474/341/9 480/342/9
f 482/342/9 478/341/9 481/340/9
f 483/343/10 477/344/10 484/345/10
f 484/345/10 486/346/10 485/347/10 483/343/10
f 486/346/10 473/348/10 485/347/10
f 480/349/9 482/350/9 481/351/9 479/352/9
f 488/353/8 487/354/8 491/355/8 492/356/8
f 489/357/7 490/358/7 494/356/7 493/355/7
f 488/359/10 490/360/10 489/344/10 487/348/10
f 492/361/12 494/362/12 490/363/12 488/364/12
f 501/365/23 502/366/23 500/367/23 499/368/23
f 495/365/21 499/369/21 500/370/21 496/366/21
f 498/365/22 502/369/22 501/370/22 497/366/22
f 497/366/9 501/371/9 499/372/9 495/367/9
f 502/373/10 498/365/10 496/368/10 500/374/10
f 506/375/9 505/376/9 503/377/9 504/378/9
f 509/377/10 510/378/10 508/375/10 507/376/10
f 507/377/11 508/378/11 511/379/11 512/380/11
f 504/375/11 503/376/11 512/381/11 511/382/11
f 508/383/7 510/384/7 506/385/7 504/386/7
f 514/387/8 516/388/8 515/389/8 513/390/8
f 520/391/8 519/392/8 517/393/8 518/394/8
f 523/391/7 524/392/7 522/393/7 521/394/7
f 517/395/11 521/396/11 522/397/11 518/398/11
f 524/399/9 520/400/9 518/401/9 522/402/9
f 528/23/8 527/22/8 525/21/8 526/24/8
f 531/23/7 532/22/7 530/21/7 529/24/7
f 525/27/9 529/26/9 530/25/9 526/28/9
f 528/26/10 532/27/10 531/28/10 527/25/10
f 527/30/11 531/29/11 529/25/11 525/28/11
f 532/29/12 528/30/12 526/28/12 530/25/12
f 536/403/8 535/157/8 533/159/8 534/404/8
f 539/403/7 540/157/7 538/159/7 537/404/7
f 533/319/11 537/315/11 538/306/11 534/305/11
f 536/319/12 540/315/12 539/306/12 535/305/12
f 535/309/10 539/158/10 537/310/10 533/311/10
f 536/158/9 534/310/9 538/311/9 540/309/9
f 544/222/31 543/223/31 541/405/31 542/406/31
f 547/222/32 548/223/32 546/405/32 545/406/32
f 541/228/33 545/229/33 546/230/33 542/231/33
f 544/228/34 548/229/34 547/230/34 543/231/34
f 543/222/10 547/223/10 545/405/10 541/406/10
f 548/222/9 544/223/9 542/405/9 546/406/9
