# Blender v2.93.4 OBJ File: 'crystalyzer.blend'
# www.blender.org
mtllib crystallizer.mtl
o Cube_Cube.005
v -1.937500 2.250000 1.937500
v 0.937500 2.250000 -0.937500
v 0.937500 2.250000 1.937500
v -1.937500 2.250000 -0.937500
v 0.999500 0.000000 -1.000000
v -2.000000 0.000000 2.000000
v -2.000000 0.000000 -1.000000
v 0.999500 0.000000 2.000000
v -1.937500 2.250000 1.000000
v -1.937500 2.250000 0.000000
v -1.000000 2.250000 -0.937500
v 0.000000 2.250000 -0.937500
v 0.937500 2.250000 0.000000
v 0.937500 2.250000 1.000000
v 0.000000 2.250000 1.937500
v -1.000000 2.250000 1.937500
v 0.000000 2.500000 0.000000
v 0.000000 2.500000 1.000000
v -1.000000 2.500000 0.000000
v -1.000000 2.500000 1.000000
v -0.125000 2.500000 0.125000
v -0.125000 2.500000 0.875000
v -0.875000 2.500000 0.125000
v -0.875000 2.500000 0.875000
v -0.125000 2.750000 0.125000
v -0.125000 2.750000 0.875000
v -0.875000 2.750000 0.125000
v -0.875000 2.750000 0.875000
v -0.250000 2.750000 0.250000
v -0.250000 2.750000 0.750000
v -0.750000 2.750000 0.250000
v -0.750000 2.750000 0.750000
v -0.250000 2.999500 0.250000
v -0.250000 2.999500 0.750000
v -0.750000 2.999500 0.250000
v -0.750000 2.999500 0.750000
v -1.937500 1.000000 1.937500
v -1.937500 1.000000 -0.937500
v 0.937500 1.000000 1.937500
v 0.937500 1.000000 -0.937500
v -2.000000 0.500000 -1.000000
v 0.999500 0.500000 -1.000000
v 0.999500 0.500000 2.000000
v -2.000000 0.500000 2.000000
v -1.687500 1.000000 1.937500
v -1.687500 1.000000 -0.937500
v 0.687500 1.000000 1.937500
v 0.687500 1.000000 -0.937500
v -0.750000 0.500000 0.750000
v -0.750000 0.625000 0.750000
v -0.250000 0.625000 0.750000
v -0.250000 0.500000 0.750000
v -0.750000 0.625000 0.250000
v -0.750000 0.500000 0.250000
v -0.250000 0.625000 0.250000
v -0.250000 0.500000 0.250000
v 0.687500 0.500000 -0.937500
v 0.687500 0.500000 -0.687500
v 0.687500 0.500000 1.687500
v 0.687500 0.500000 1.937500
v 0.937500 0.500000 -0.937500
v 0.937500 0.500000 -0.687500
v 0.937500 0.500000 1.687500
v 0.937500 0.500000 1.937500
v 0.687500 1.000000 1.687500
v 0.687500 1.000000 1.937500
v 0.937500 1.000000 1.687500
v 0.687500 1.000000 -0.937500
v 0.687500 1.000000 -0.687500
v 0.937500 1.000000 -0.687500
v -1.687500 0.500000 1.937500
v -1.687500 0.500000 1.687500
v -1.687500 0.500000 -0.687500
v -1.687500 0.500000 -0.937500
v -1.937500 0.500000 1.937500
v -1.937500 0.500000 1.687500
v -1.937500 0.500000 -0.687500
v -1.937500 0.500000 -0.937500
v -1.687500 1.000000 1.937500
v -1.687500 1.000000 1.687500
v -1.937500 1.000000 1.937500
v -1.937500 1.000000 1.687500
v -0.750000 1.250000 -0.937500
v -0.250000 1.250000 -0.937500
v -0.750000 1.750000 -0.937500
v -0.250000 1.750000 -0.937500
v -0.750000 1.250000 -1.000000
v -0.250000 1.250000 -1.000000
v -0.750000 1.750000 -1.000000
v -0.250000 1.750000 -1.000000
v -0.625000 1.750000 -0.937500
v -0.375000 1.750000 -0.937500
v -0.625000 1.750000 -1.000000
v -0.375000 1.750000 -1.000000
v -0.625000 2.000000 -0.937500
v -0.375000 2.000000 -0.937500
v -0.625000 2.000000 -1.000000
v -0.375000 2.000000 -1.000000
v -1.000000 1.000000 1.937500
v 0.000000 1.000000 1.937500
v -1.000000 2.000000 1.937500
v 0.000000 2.000000 1.937500
v -1.000000 1.000000 1.999500
v 0.000000 1.000000 1.999500
v -1.000000 2.000000 1.999500
v 0.000000 2.000000 1.999500
v -1.937500 1.000000 1.687500
v -1.937500 1.000000 -0.687500
v -1.687500 1.000000 -0.687500
v -1.937500 1.000000 1.000000
v -1.937500 1.000000 0.000000
v 0.937500 1.000000 1.000000
v 0.937500 1.000000 0.000000
v -1.000000 1.000000 -0.937500
v -0.000000 1.000000 -0.937500
v 0.687500 1.000000 1.000000
v 0.687500 1.000000 -0.000000
v -0.000000 1.000000 -0.687500
v -1.000000 1.000000 -0.687500
v -1.687500 1.000000 1.000000
v -1.687500 1.000000 0.000000
v -0.000000 1.000000 1.687500
v -1.000000 1.000000 1.687500
v 0.000000 0.000000 -1.000000
v -1.000000 0.000000 -1.000000
v 0.000000 0.500000 -1.000000
v -1.000000 0.500000 -1.000000
v 0.000000 0.500000 -0.937500
v -1.000000 0.500000 -0.937500
v 0.000000 0.500000 -0.687500
v -1.000000 0.500000 -0.687500
v 0.999500 0.500000 0.000000
v 0.999500 0.500000 1.000000
v 0.687500 0.500000 -0.000000
v 0.687500 0.500000 1.000000
v 0.937500 0.500000 -0.000000
v 0.937500 0.500000 1.000000
v 0.999500 0.000000 1.000000
v 0.999500 0.000000 0.000000
v -1.000000 0.000000 2.000000
v 0.000000 0.000000 2.000000
v 0.000000 0.500000 1.687500
v -1.000000 0.500000 1.687500
v -1.000000 0.500000 2.000000
v 0.000000 0.500000 2.000000
v -1.000000 0.500000 1.937500
v -0.000000 0.500000 1.937500
v -2.000000 0.000000 0.000000
v -2.000000 0.000000 1.000000
v -2.000000 0.500000 1.000000
v -2.000000 0.500000 0.000000
v -1.687500 0.500000 1.000000
v -1.687500 0.500000 -0.000000
v -1.937500 0.500000 1.000000
v -1.937500 0.500000 -0.000000
v 0.000000 0.000000 0.000000
v 0.000000 0.000000 1.000000
v -1.000000 0.000000 0.000000
v -1.000000 0.000000 1.000000
v -1.937500 2.062500 0.000000
v -1.937500 2.062500 1.000000
v -1.937500 1.187500 0.000000
v -1.937500 1.187500 1.000000
v -1.937500 2.062500 0.187500
v -1.937500 2.062500 0.812500
v -1.937500 1.187500 0.187500
v -1.937500 1.187500 0.812500
v -2.000000 2.062500 0.187500
v -2.000000 2.062500 0.812500
v -2.000000 1.187500 0.187500
v -2.000000 1.187500 0.812500
v 0.937500 2.062500 0.937500
v 0.937500 2.062500 0.062500
v 0.937500 1.187500 0.937500
v 0.937500 1.187500 0.062500
v 0.999500 2.062500 0.937500
v 0.999500 2.062500 0.062500
v 0.999500 1.187500 0.937500
v 0.999500 1.187500 0.062500
vt 0.117188 0.718750
vt 0.242188 0.718750
vt 0.242188 0.843750
vt 0.117188 0.843750
vt 0.117188 0.843750
vt -0.000000 0.843750
vt 0.117188 0.718750
vt 0.117188 0.843750
vt 0.000000 0.843750
vt 0.117188 0.718750
vt 0.117188 0.843750
vt 0.539062 0.867188
vt 0.531250 0.867188
vt 0.531250 0.929688
vt 0.539062 0.929688
vt 0.460938 0.867188
vt 0.460938 0.929688
vt 0.468750 0.929688
vt 0.468750 0.867188
vt 0.242188 0.718750
vt 0.242188 0.843750
vt 0.117188 0.843750
vt 0.242188 0.843750
vt 0.132812 0.703125
vt 0.226562 0.703125
vt 0.226562 0.703125
vt 0.132812 0.703125
vt 0.226562 0.703125
vt 0.242188 0.718750
vt 0.132812 0.703125
vt 0.265625 0.968750
vt 0.265625 0.875000
vt 0.296875 0.875000
vt 0.296875 0.968750
vt 0.265625 0.968750
vt 0.265625 0.875000
vt 0.296875 0.875000
vt 0.296875 0.968750
vt 0.265625 0.968750
vt 0.265625 0.875000
vt 0.296875 0.875000
vt 0.296875 0.968750
vt 0.265625 0.968750
vt 0.265625 0.875000
vt 0.296875 0.875000
vt 0.296875 0.968750
vt 0.312500 0.953125
vt 0.312500 0.890625
vt 0.343750 0.890625
vt 0.343750 0.953125
vt 0.312500 0.890625
vt 0.312500 0.953125
vt 0.312500 0.890625
vt 0.312500 0.953125
vt 0.312500 0.890625
vt 0.312500 0.953125
vt 0.406250 0.953125
vt 0.343750 0.953125
vt 0.343750 0.890625
vt 0.406250 0.890625
vt 0.343750 0.890625
vt 0.343750 0.953125
vt 0.343750 0.890625
vt 0.343750 0.953125
vt 0.117188 0.843750
vt 0.000000 0.843750
vt 0.117188 0.718750
vt 0.117188 0.843750
vt 0.000000 0.843750
vt 0.117188 0.843750
vt 0.125000 0.695312
vt -0.000000 0.695312
vt -0.000000 0.632812
vt 0.125000 0.632812
vt 0.250000 0.632812
vt 0.375000 0.632812
vt 0.375000 0.695312
vt 0.250000 0.695312
vt 0.125000 0.632812
vt 0.125000 0.695312
vt -0.000000 0.695312
vt -0.000000 0.632812
vt 0.328125 0.875000
vt 0.265625 0.875000
vt 0.265625 0.859375
vt 0.328125 0.859375
vt 0.265625 0.875000
vt 0.328125 0.875000
vt 0.328125 0.859375
vt 0.265625 0.859375
vt 0.328125 0.859375
vt 0.328125 0.875000
vt 0.265625 0.875000
vt 0.265625 0.859375
vt 0.257812 0.968750
vt 0.257812 0.843750
vt 0.265625 0.851562
vt 0.265625 0.968750
vt 0.250000 0.843750
vt 0.250000 0.968750
vt 0.242188 0.968750
vt 0.242188 0.851562
vt 0.265625 0.968750
vt 0.257812 0.968750
vt 0.257812 0.843750
vt 0.265625 0.851562
vt 0.335938 1.000000
vt 0.250000 1.000000
vt 0.250000 0.968750
vt 0.335938 0.968750
vt 0.335938 1.000000
vt 0.250000 1.000000
vt 0.250000 0.968750
vt 0.335938 0.968750
vt 0.117188 0.843750
vt 0.242188 0.843750
vt 0.242188 1.000000
vt 0.117188 1.000000
vt 0.476562 0.937500
vt 0.460938 0.937500
vt 0.460938 0.929688
vt 0.476562 0.929688
vt 0.531250 0.859375
vt 0.468750 0.859375
vt 0.242188 0.843750
vt 0.539062 0.937500
vt 0.523438 0.937500
vt 0.523438 0.929688
vt 0.539062 0.929688
vt 0.476562 0.929688
vt 0.484375 0.929688
vt 0.484375 0.960938
vt 0.476562 0.960938
vt 0.515625 0.968750
vt 0.484375 0.968750
vt 0.515625 0.960938
vt 0.515625 0.929688
vt 0.523438 0.929688
vt 0.523438 0.960938
vt -0.000000 1.000000
vt -0.000000 0.843750
vt 0.117188 0.843750
vt 0.117188 1.000000
vt 0.382812 0.687500
vt 0.382812 0.562500
vt 0.390625 0.562500
vt 0.390625 0.687500
vt 0.515625 0.687500
vt 0.515625 0.562500
vt 0.515625 0.695312
vt 0.390625 0.695312
vt 0.390625 0.554688
vt 0.515625 0.554688
vt 0.523438 0.562500
vt 0.523438 0.687500
vt 0.242188 1.000000
vt 0.117188 1.000000
vt 0.117188 0.968750
vt 0.242188 0.968750
vt 0.460938 1.000000
vt 0.546875 1.000000
vt 0.546875 0.968750
vt 0.460938 0.968750
vt 0.250000 0.632812
vt 0.375000 0.632812
vt 0.375000 0.695312
vt 0.250000 0.695312
vt 0.453125 0.695312
vt 0.328125 0.695312
vt 0.328125 0.726562
vt 0.453125 0.726562
vt 0.539062 0.726562
vt 0.539062 0.695312
vt 0.539062 0.726562
vt 0.421875 0.851562
vt 0.453125 0.726562
vt 0.242188 0.726562
vt 0.328125 0.726562
vt 0.359375 0.851562
vt 0.453125 0.726562
vt 0.000000 0.757812
vt 0.000000 0.695312
vt 0.031250 0.695312
vt 0.031250 0.757812
vt 0.031250 0.695312
vt 0.062500 0.695312
vt 0.062500 0.757812
vt 0.031250 0.757812
vt 0.062500 0.695312
vt 0.062500 0.757812
vt 0.031250 0.757812
vt 0.031250 0.695312
vt 0.000000 0.757812
vt 0.000000 0.695312
vt 0.000000 0.695312
vt 0.031250 0.695312
vt 0.031250 0.757812
vt 0.000000 0.757812
vt 0.031250 0.695312
vt 0.062500 0.695312
vt 0.062500 0.757812
vt 0.031250 0.757812
vt 0.062500 0.695312
vt 0.062500 0.757812
vt 0.031250 0.757812
vt 0.031250 0.695312
vt 0.000000 0.757812
vt 0.000000 0.695312
vt 0.031250 0.695312
vt 0.062500 0.695312
vt 0.062500 0.757812
vt 0.031250 0.757812
vt -0.000000 0.695312
vt -0.000000 0.757812
vt 0.062500 0.695312
vt 0.062500 0.757812
vt 0.031250 0.757812
vt 0.031250 0.695312
vt -0.000000 0.695312
vt 0.031250 0.695312
vt 0.031250 0.757812
vt -0.000000 0.757812
vt 0.062500 0.757812
vt 0.031250 0.757812
vt 0.031250 0.695312
vt 0.062500 0.695312
vt 0.062500 0.695312
vt 0.062500 0.757812
vt 0.031250 0.757812
vt 0.031250 0.695312
vt 0.000000 0.757812
vt 0.000000 0.695312
vt 0.000000 0.695312
vt 0.031250 0.695312
vt 0.031250 0.757812
vt 0.000000 0.757812
vt -0.000000 1.000000
vt -0.000000 0.843750
vt 0.117188 0.843750
vt 0.117188 1.000000
vt 0.242188 1.000000
vt 0.242188 0.976562
vt 0.117188 0.976562
vt 0.117188 0.843750
vt 0.000000 1.000000
vt 0.117188 1.000000
vt 0.117188 0.843750
vt 0.000000 0.843750
vt 0.000000 1.000000
vt 0.117188 1.000000
vt 0.117188 0.843750
vt 0.000000 0.843750
vt 0.117188 1.000000
vt 0.117188 0.843750
vt 0.117188 1.000000
vt 0.117188 0.843750
vt 0.328125 0.726562
vt 0.328125 0.695312
vt 0.242188 0.695312
vt 0.242188 0.726562
vt 0.453125 0.695312
vt 0.539062 0.695312
vt 0.453125 0.695312
vt 0.539062 0.695312
vt 0.328125 0.695312
vt 0.242188 0.695312
vt 0.359375 0.851562
vt 0.453125 0.726562
vt 0.453125 0.695312
vt 0.539062 0.695312
vt 0.328125 0.726562
vt 0.328125 0.695312
vt 0.242188 0.695312
vt 0.421875 0.851562
vt 0.242188 0.695312
vt 0.468750 0.867188
vt 0.531250 0.867188
vt 0.531250 0.929688
vt 0.468750 0.929688
vt 0.375000 0.632812
vt 0.375000 0.695312
vt 0.250000 0.695312
vt 0.250000 0.632812
vt 0.250000 1.000000
vt 0.335938 1.000000
vt 0.335938 0.968750
vt 0.546875 1.000000
vt 0.460938 1.000000
vt 0.460938 0.968750
vt 0.546875 0.968750
vt 0.242188 0.851562
vt 0.250000 0.843750
vt 0.250000 0.968750
vt 0.242188 0.968750
vt 0.257812 0.843750
vt 0.250000 0.843750
vt 0.250000 0.968750
vt 0.257812 0.968750
vt 0.375000 0.695312
vt 0.250000 0.695312
vt 0.250000 0.632812
vt 0.375000 0.632812
vt 0.546875 1.000000
vt 0.460938 1.000000
vt 0.460938 0.968750
vt -0.000000 0.632812
vt 0.125000 0.632812
vt 0.125000 0.695312
vt -0.000000 0.695312
vt 0.125000 0.695312
vt 0.125000 0.632812
vt -0.000000 0.632812
vt -0.000000 0.695312
vt 0.250000 0.968750
vt 0.250000 0.843750
vt 0.257812 0.843750
vt 0.257812 0.968750
vt 0.242188 0.968750
vt 0.242188 0.851562
vt 0.250000 0.843750
vt 0.265625 0.851562
vt 0.265625 0.968750
vt 0.257812 0.968750
vt 0.257812 0.843750
vt 0.539062 0.914062
vt 0.656250 0.882812
vt 0.539062 1.000000
vt 0.539062 0.789062
vt 0.656250 0.820312
vt 0.539062 0.703125
vt 0.625000 0.703125
vt 0.250000 0.968750
vt 0.250000 0.843750
vt 0.257812 0.843750
vt 0.718750 0.820312
vt 0.750000 0.703125
vt 0.835938 0.703125
vt 0.835938 0.789062
vt 0.250000 0.968750
vt 0.242188 0.968750
vt 0.242188 0.851562
vt 0.250000 0.843750
vt 0.265625 0.968750
vt 0.257812 0.968750
vt 0.257812 0.843750
vt 0.265625 0.851562
vt 0.257812 0.843750
vt 0.250000 0.968750
vt 0.250000 0.843750
vt 0.835938 1.000000
vt 0.718750 0.882812
vt 0.835938 0.914062
vt 0.750000 1.000000
vt 0.625000 1.000000
vt 0.250000 1.000000
vt 0.250000 0.968750
vt 0.335938 0.968750
vt 0.335938 1.000000
vt 0.460938 0.968750
vt 0.460938 1.000000
vt 0.546875 0.968750
vt 0.546875 1.000000
vt 0.914062 0.328125
vt 0.914062 0.453125
vt 0.789062 0.453125
vt 0.789062 0.328125
vt 0.914062 0.578125
vt 0.789062 0.578125
vt 0.789062 0.703125
vt 0.914062 0.703125
vt 0.664062 0.453125
vt 0.664062 0.328125
vt 0.539062 0.453125
vt 0.539062 0.328125
vt 0.664062 0.578125
vt 0.539062 0.578125
vt 0.664062 0.703125
vt 0.539062 0.703125
vt 0.117188 0.867188
vt 0.242188 0.867188
vt 0.242188 0.843750
vt 0.218750 0.976562
vt 0.218750 0.867188
vt 0.242188 0.867188
vt 0.242188 0.976562
vt 0.117188 0.976562
vt 0.117188 0.867188
vt 0.140625 0.867188
vt 0.140625 0.976562
vt 0.093750 0.515625
vt 0.093750 0.625000
vt 0.085938 0.625000
vt 0.085938 0.515625
vt 0.007812 0.625000
vt 0.007812 0.515625
vt 0.007812 0.507812
vt 0.085938 0.507812
vt 0.085938 0.632812
vt 0.007812 0.632812
vt 0.000000 0.625000
vt 0.000000 0.515625
vt 0.210938 0.921875
vt 0.210938 0.882812
vt 0.148438 0.882812
vt 0.148438 0.921875
vt 0.210938 0.625000
vt 0.101562 0.625000
vt 0.101562 0.515625
vt 0.210938 0.515625
vt 0.093750 0.625000
vt 0.093750 0.515625
vt 0.101562 0.507812
vt 0.210938 0.507812
vt 0.218750 0.515625
vt 0.218750 0.625000
vt 0.210938 0.632812
vt 0.101562 0.632812
vt 0.242188 1.000000
vt 0.125000 0.976562
vt 0.234375 0.976562
vt 0.242188 0.843750
vt 0.234375 0.867188
vt 0.125000 0.867188
vn 0.0000 0.9662 0.2577
vn 0.0000 0.9662 -0.2577
vn 0.2577 0.9662 0.0000
vn -0.2577 0.9662 0.0000
vn 1.0000 0.0000 0.0000
vn -1.0000 0.0000 0.0000
vn 0.0000 1.0000 0.0000
vn 0.0000 0.0000 -1.0000
vn 0.0000 0.0000 1.0000
vn 0.0000 -1.0000 0.0000
vn 0.3714 -0.9285 0.0000
vn 0.0000 -0.9285 0.3714
vn -0.3714 -0.9285 0.0000
vn 0.0000 -0.9285 -0.3714
usemtl Material.001
s off
f 18/1/1 20/2/1 16/3/1 15/4/1
f 11/5/2 4/6/2 19/7/2
f 13/8/3 2/9/3 17/10/3
f 4/6/4 10/11/4 19/7/4
f 84/12/5 88/13/5 90/14/5 86/15/5
f 83/16/6 85/17/6 89/18/6 87/19/6
f 13/8/3 17/10/3 18/20/3 14/21/3
f 2/9/2 12/22/2 17/10/2
f 19/7/4 10/11/4 9/23/4 20/2/4
f 21/24/7 22/25/7 18/20/7 17/10/7
f 24/26/7 23/27/7 19/7/7 20/2/7
f 23/27/7 21/28/7 17/29/7 19/7/7
f 22/30/7 24/26/7 20/2/7 18/1/7
f 22/31/5 21/32/5 25/33/5 26/34/5
f 21/35/8 23/36/8 27/37/8 25/38/8
f 23/39/6 24/40/6 28/41/6 27/42/6
f 24/43/9 22/44/9 26/45/9 28/46/9
f 29/47/8 31/48/8 35/49/8 33/50/8
f 29/51/7 30/52/7 26/34/7 25/33/7
f 32/53/7 31/54/7 27/42/7 28/41/7
f 31/48/7 29/47/7 25/38/7 27/37/7
f 30/55/7 32/56/7 28/46/7 26/45/7
f 33/57/7 35/58/7 36/59/7 34/60/7
f 30/52/5 29/51/5 33/61/5 34/62/5
f 32/56/9 30/55/9 34/63/9 36/64/9
f 31/54/6 32/53/6 36/59/6 35/58/6
f 9/65/4 1/66/4 20/67/4
f 16/68/1 20/67/1 1/66/1
f 15/4/1 3/69/1 18/1/1
f 14/70/3 18/1/3 3/69/3
f 144/71/9 44/72/9 6/73/9 140/74/9
f 149/75/6 6/76/6 44/77/6 150/78/6
f 124/79/8 126/80/8 42/81/8 5/82/8
f 51/83/9 50/84/9 49/85/9 52/86/9
f 53/87/8 55/88/8 56/89/8 54/90/8
f 54/91/6 49/85/6 50/84/6 53/92/6
f 55/88/5 51/93/5 52/94/5 56/89/5
f 127/95/7 41/96/7 78/97/7 129/98/7
f 42/99/7 126/100/7 128/101/7 61/102/7
f 147/103/7 145/104/7 43/105/7 64/106/7
f 136/107/7 62/108/7 58/109/7 134/110/7
f 154/111/7 76/112/7 72/113/7 152/114/7
f 115/115/8 114/116/8 11/117/8 12/118/8
f 92/119/7 86/120/7 90/121/7 94/122/7
f 84/123/10 83/124/10 87/19/10 88/13/10
f 17/29/2 12/125/2 11/5/2 19/7/2
f 85/126/7 91/127/7 93/128/7 89/129/7
f 92/130/5 94/131/5 98/132/5 96/133/5
f 95/134/7 96/135/7 98/132/7 97/136/7
f 94/131/8 93/137/8 97/136/8 98/132/8
f 93/137/6 91/138/6 95/139/6 97/136/6
f 4/140/6 38/141/6 111/142/6 10/143/6
f 101/144/6 99/145/6 103/146/6 105/147/6
f 106/148/9 105/147/9 103/146/9 104/149/9
f 102/150/7 101/151/7 105/147/7 106/148/7
f 99/152/10 100/153/10 104/149/10 103/146/10
f 100/154/5 102/155/5 106/148/5 104/149/5
f 15/156/9 16/157/9 101/158/9 102/159/9
f 129/160/7 74/161/7 73/162/7 131/163/7
f 139/164/5 5/165/5 42/166/5 132/167/5
f 114/168/10 115/169/10 118/170/10 119/171/10
f 119/171/10 109/172/10 46/173/10 114/168/10
f 65/174/11 51/175/11 116/176/11
f 69/177/11 117/178/11 55/179/11
f 65/174/12 122/180/12 51/175/12
f 46/181/8 74/182/8 78/183/8 38/184/8
f 73/185/5 74/186/5 46/187/5 109/188/5
f 73/189/9 109/190/9 108/191/9 77/192/9
f 38/193/6 78/194/6 77/192/6 108/191/6
f 76/195/6 75/196/6 81/197/6 82/198/6
f 72/199/8 76/200/8 82/201/8 80/202/8
f 72/203/5 80/204/5 79/205/5 71/206/5
f 71/206/9 79/205/9 81/207/9 75/208/9
f 63/209/8 59/210/8 65/211/8 67/212/8
f 64/213/5 63/209/5 67/212/5 39/214/5
f 60/215/6 66/216/6 65/217/6 59/218/6
f 60/219/9 64/220/9 39/221/9 66/222/9
f 69/223/6 68/224/6 57/225/6 58/226/6
f 62/227/9 70/228/9 69/229/9 58/230/9
f 68/224/8 40/231/8 61/232/8 57/225/8
f 62/233/5 61/234/5 40/235/5 70/236/5
f 16/157/9 1/237/9 81/238/9 99/239/9
f 9/240/6 10/241/6 160/242/6 161/243/6
f 9/240/6 110/244/6 81/238/6 1/237/6
f 3/245/9 15/246/9 100/247/9 39/248/9
f 2/249/5 13/250/5 113/251/5 40/252/5
f 14/253/5 3/245/5 39/248/5 112/254/5
f 2/249/8 40/252/8 115/115/8 12/118/8
f 11/255/8 114/256/8 38/141/8 4/140/8
f 55/179/11 117/178/11 116/176/11 51/175/11
f 123/257/10 99/258/10 79/259/10 80/260/10
f 99/258/10 123/257/10 122/180/10 100/261/10
f 65/174/10 66/262/10 100/261/10 122/180/10
f 65/174/10 116/176/10 112/263/10 67/264/10
f 113/265/10 112/263/10 116/176/10 117/178/10
f 69/177/10 70/266/10 113/265/10 117/178/10
f 80/260/12 50/267/12 123/257/12
f 50/267/12 51/175/12 122/180/12 123/257/12
f 121/268/10 111/269/10 108/270/10 109/172/10
f 111/269/10 121/268/10 120/271/10 110/272/10
f 80/260/10 107/273/10 110/272/10 120/271/10
f 109/172/13 53/274/13 121/268/13
f 80/260/13 120/271/13 50/267/13
f 53/274/13 50/267/13 120/271/13 121/268/13
f 69/177/10 118/170/10 115/169/10 68/275/10
f 69/177/14 55/179/14 118/170/14
f 109/172/14 119/171/14 53/274/14
f 53/274/14 119/171/14 118/170/14 55/179/14
f 88/276/8 87/277/8 89/278/8 90/279/8
f 7/280/8 41/281/8 127/282/8 125/283/8
f 125/283/8 127/282/8 126/80/8 124/79/8
f 57/284/7 128/285/7 130/286/7 58/109/7
f 128/285/7 129/160/7 131/163/7 130/286/7
f 63/287/7 137/288/7 135/289/7 59/290/7
f 137/288/7 136/107/7 134/110/7 135/289/7
f 75/291/7 44/292/7 144/293/7 146/294/7
f 146/295/7 144/296/7 145/297/7 147/298/7
f 43/299/9 145/300/9 141/301/9 8/302/9
f 145/300/9 144/71/9 140/74/9 141/301/9
f 77/303/7 155/304/7 153/305/7 73/162/7
f 155/304/7 154/111/7 152/114/7 153/305/7
f 7/306/6 148/307/6 151/308/6 41/309/6
f 148/307/6 149/75/6 150/78/6 151/308/6
f 132/167/5 133/310/5 138/311/5 139/164/5
f 8/312/5 138/311/5 133/310/5 43/313/5
f 133/314/7 132/315/7 136/316/7 137/317/7
f 137/318/7 64/319/7 43/320/7 133/314/7
f 61/321/7 136/322/7 132/323/7 42/324/7
f 135/325/7 52/326/7 59/327/7
f 52/326/7 135/325/7 134/328/7 56/329/7
f 58/330/7 56/329/7 134/328/7
f 58/330/7 130/331/7 56/329/7
f 127/95/7 129/332/7 128/333/7 126/334/7
f 54/335/7 56/329/7 130/331/7 131/336/7
f 73/337/7 54/335/7 131/336/7
f 73/337/7 153/338/7 54/335/7
f 151/339/7 155/340/7 78/341/7 41/342/7
f 154/343/7 150/344/7 44/345/7 75/346/7
f 151/347/7 150/344/7 154/348/7 155/349/7
f 72/350/7 49/351/7 152/352/7
f 54/335/7 153/338/7 152/352/7 49/351/7
f 143/353/7 49/351/7 72/350/7
f 49/351/7 143/353/7 142/354/7 52/326/7
f 59/327/7 52/326/7 142/354/7
f 60/355/7 59/356/7 142/357/7 147/358/7
f 142/357/7 143/359/7 146/360/7 147/358/7
f 143/359/7 72/361/7 71/362/7 146/360/7
f 6/363/10 149/364/10 159/365/10 140/366/10
f 149/364/10 148/367/10 158/368/10 159/365/10
f 125/369/10 158/368/10 148/367/10 7/370/10
f 140/366/10 159/365/10 157/371/10 141/372/10
f 141/372/10 157/371/10 138/373/10 8/374/10
f 138/373/10 157/371/10 156/375/10 139/376/10
f 157/371/10 159/365/10 158/368/10 156/375/10
f 139/376/10 156/375/10 124/377/10 5/378/10
f 125/369/10 124/377/10 156/375/10 158/368/10
f 110/244/6 163/379/6 162/380/6 111/381/6
f 165/382/6 167/383/6 163/384/6 161/385/6
f 160/386/6 162/387/6 166/388/6 164/389/6
f 167/390/9 165/391/9 169/392/9 171/393/9
f 168/394/6 170/395/6 171/393/6 169/392/6
f 166/396/10 167/397/10 171/393/10 170/395/10
f 165/398/7 164/399/7 168/394/7 169/392/7
f 164/400/8 166/401/8 170/395/8 168/394/8
f 173/402/6 175/403/6 174/404/6 172/405/6
f 177/406/5 176/407/5 178/408/5 179/409/5
f 172/410/9 174/411/9 178/408/9 176/407/9
f 174/412/10 175/413/10 179/409/10 178/408/10
f 175/414/8 173/415/8 177/406/8 179/409/8
f 173/416/7 172/417/7 176/407/7 177/406/7
f 13/418/5 14/253/5 172/419/5 173/420/5
f 113/421/5 13/418/5 173/420/5 175/422/5
f 112/254/5 113/421/5 175/422/5 174/423/5
f 14/253/5 112/254/5 174/423/5 172/419/5
l 45 37
l 39 47
l 48 40
l 115 48
l 64 59
l 91 92
l 37 99
l 37 107
l 48 69
