# Blender 4.2.0
# www.blender.org
mtllib techportal.mtl
o portal_frame_bot
v 4.000000 3.000000 2.000000
v 9.000000 3.000000 2.000000
v 4.000000 2.000000 2.000000
v 9.000000 2.000000 2.000000
v 4.000000 3.000000 1.000000
v 9.000000 3.000000 1.000000
v 4.000000 2.000000 1.000000
v 9.000000 2.000000 1.000000
v 4.000001 9.000000 2.000000
v 9.000001 9.000000 2.000000
v 4.000000 8.000000 2.000000
v 9.000000 8.000000 2.000000
v 4.000001 9.000000 1.000000
v 9.000001 9.000000 1.000000
v 4.000001 8.000000 1.000000
v 9.000001 8.000000 1.000000
v 9.000000 8.000000 2.000000
v 10.000000 8.000000 2.000000
v 9.000000 3.000000 2.000000
v 10.000000 3.000000 2.000000
v 9.000001 8.000000 1.000000
v 10.000001 8.000000 1.000000
v 9.000000 3.000000 1.000000
v 10.000000 3.000000 1.000000
v 7.000000 3.500000 0.000000
v 8.000000 3.500000 0.000000
v 7.000000 -0.000000 0.000000
v 8.000000 -0.000000 0.000000
v 7.000000 3.500000 -1.000000
v 8.000000 3.500000 -1.000000
v 7.000000 -0.000000 -1.000000
v 8.000000 -0.000000 -1.000000
v 5.000000 3.500000 -0.000000
v 6.000000 3.500000 0.000000
v 5.000000 0.000000 -0.000000
v 6.000000 0.000000 0.000000
v 5.000000 3.500000 -1.000000
v 6.000000 3.500000 -1.000000
v 5.000000 0.000000 -1.000000
v 6.000000 0.000000 -1.000000
v 5.000000 3.500000 5.000000
v 6.000000 3.500000 5.000000
v 5.000000 0.000000 5.000000
v 6.000000 0.000000 5.000000
v 5.000000 3.500000 4.000000
v 6.000000 3.500000 4.000000
v 5.000000 0.000000 4.000000
v 6.000000 0.000000 4.000000
v 7.000000 3.500000 5.000000
v 8.000000 3.500000 5.000000
v 7.000000 -0.000000 5.000000
v 8.000000 -0.000000 5.000000
v 7.000000 3.500000 4.000000
v 8.000000 3.500000 4.000000
v 7.000000 -0.000000 4.000000
v 8.000000 -0.000000 4.000000
v 3.000000 8.000000 2.000000
v 4.000000 8.000000 2.000000
v 3.000000 3.000000 2.000000
v 4.000000 3.000000 2.000000
v 3.000001 8.000000 1.000000
v 4.000001 8.000000 1.000000
v 3.000000 3.000000 1.000000
v 4.000000 3.000000 1.000000
v 3.010185 5.961010 2.000000
v 3.717292 5.253903 2.000000
v 0.049175 3.000000 2.000000
v 0.756281 2.292894 2.000000
v 3.010185 5.961010 1.000000
v 3.717292 5.253903 1.000000
v 0.049175 3.000000 1.000000
v 0.756281 2.292894 1.000000
v 12.961010 2.989815 2.000000
v 12.253902 2.282708 2.000000
v 10.000000 5.950825 2.000000
v 9.292893 5.243719 2.000000
v 12.961010 2.989815 1.000000
v 12.253902 2.282708 1.000000
v 10.000000 5.950825 1.000000
v 9.292893 5.243719 1.000000
v 5.000000 3.984375 5.000000
v 8.000000 3.984375 5.000000
v 5.000000 3.484375 5.000000
v 8.000000 3.484375 5.000000
v 5.000000 3.984375 -1.000000
v 8.000000 3.984375 -1.000000
v 5.000000 3.484375 -1.000000
v 8.000000 3.484375 -1.000000
v 5.000000 0.531250 8.890625
v 8.000000 0.531250 8.890625
v 5.000000 0.031250 8.890625
v 8.000000 0.031250 8.890625
v 5.000000 0.531250 8.156250
v 8.000000 0.531250 8.156250
v 5.000000 0.031250 8.156250
v 8.000000 0.031250 8.156250
v 5.000000 0.405402 8.904211
v 8.000000 0.405402 8.904211
v 5.000000 0.036764 8.566416
v 8.000000 0.036763 8.566416
v 5.000000 3.973363 5.010466
v 8.000000 3.973363 5.010466
v 5.000000 3.604724 4.672670
v 8.000000 3.604724 4.672670
v -1.000000 3.000000 3.000000
v 3.000000 3.000000 3.000000
v -1.000000 0.000001 3.000000
v 3.000000 0.000000 3.000000
v -1.000000 3.000000 -0.000000
v 3.000000 3.000000 -0.000000
v -1.000000 0.000001 -0.000000
v 3.000000 0.000000 -0.000000
v 10.000000 3.000000 3.000000
v 14.000000 3.000000 3.000000
v 10.000000 -0.000000 3.000000
v 14.000000 -0.000001 3.000000
v 10.000000 3.000000 0.000000
v 14.000000 3.000000 0.000000
v 10.000000 -0.000000 0.000000
v 14.000000 -0.000001 0.000000
v 9.000000 1.000000 3.000000
v 10.000000 1.000000 3.000000
v 9.000000 -0.000000 3.000000
v 10.000000 -0.000000 3.000000
v 9.000000 1.000000 0.000000
v 10.000000 1.000000 0.000000
v 9.000000 -0.000000 0.000000
v 10.000000 -0.000000 0.000000
v 3.000000 1.000000 3.000000
v 4.000000 1.000000 3.000000
v 3.000000 0.000000 3.000000
v 4.000000 0.000000 3.000000
v 3.000000 1.000000 -0.000000
v 4.000000 1.000000 -0.000000
v 3.000000 0.000000 -0.000000
v 4.000000 0.000000 -0.000000
vn -0.0000 -0.0000 1.0000
vn -0.0000 -0.0000 -1.0000
vn -0.0000 1.0000 -0.0000
vn -0.0000 -1.0000 -0.0000
vn -1.0000 -0.0000 -0.0000
vn 1.0000 -0.0000 -0.0000
vn 0.7071 0.7071 -0.0000
vn -0.7071 -0.7071 -0.0000
vn -0.7071 0.7071 -0.0000
vn 0.7071 -0.7071 -0.0000
vn -0.0000 -0.6756 0.7373
vn -0.0000 0.6756 -0.7373
vn -0.0000 0.7373 0.6756
vn -0.0000 -0.7373 -0.6756
vt 0.537109 0.681641
vt 0.537109 0.712891
vt 0.380859 0.712891
vt 0.380859 0.681641
vt 0.251953 0.537109
vt 0.251953 0.568359
vt 0.095703 0.568359
vt 0.095703 0.537109
vt 0.476562 0.523438
vt 0.476562 0.679688
vt 0.445312 0.679688
vt 0.445312 0.523438
vt 0.126953 0.378906
vt 0.126953 0.535156
vt 0.095703 0.535156
vt 0.095703 0.378906
vt 0.542969 0.537109
vt 0.542969 0.568359
vt 0.511719 0.568359
vt 0.511719 0.537109
vt 0.484375 0.332031
vt 0.484375 0.363281
vt 0.453125 0.363281
vt 0.453125 0.332031
vt 0.632812 0.873047
vt 0.632812 0.904297
vt 0.476562 0.904297
vt 0.476562 0.873047
vt 0.285156 0.492188
vt 0.285156 0.523438
vt 0.128906 0.523438
vt 0.128906 0.492188
vt 0.507812 0.714844
vt 0.507812 0.871094
vt 0.476562 0.871094
vt 0.476562 0.714844
vt 0.318359 0.367188
vt 0.318359 0.523438
vt 0.287109 0.523438
vt 0.287109 0.367188
vt 0.222656 0.326172
vt 0.222656 0.357422
vt 0.191406 0.357422
vt 0.191406 0.326172
vt 0.255859 0.326172
vt 0.255859 0.357422
vt 0.224609 0.357422
vt 0.224609 0.326172
vt 0.351562 0.367188
vt 0.351562 0.523438
vt 0.320312 0.523438
vt 0.320312 0.367188
vt 0.384766 0.367188
vt 0.384766 0.523438
vt 0.353516 0.523438
vt 0.353516 0.367188
vt 0.675781 0.728516
vt 0.675781 0.759766
vt 0.644531 0.759766
vt 0.644531 0.728516
vt 0.675781 0.695312
vt 0.675781 0.726562
vt 0.644531 0.726562
vt 0.644531 0.695312
vt 0.417969 0.367188
vt 0.417969 0.523438
vt 0.386719 0.523438
vt 0.386719 0.367188
vt 0.031250 0.365234
vt 0.031250 0.521484
vt 0.000000 0.521484
vt 0.000000 0.365234
vt 0.542969 0.570312
vt 0.542969 0.679688
vt 0.511719 0.679688
vt 0.511719 0.570312
vt 0.517578 0.378906
vt 0.517578 0.488281
vt 0.486328 0.488281
vt 0.486328 0.378906
vt 0.675781 0.662109
vt 0.675781 0.693359
vt 0.644531 0.693359
vt 0.644531 0.662109
vt 0.675781 0.628906
vt 0.675781 0.660156
vt 0.644531 0.660156
vt 0.644531 0.628906
vt 0.550781 0.378906
vt 0.550781 0.488281
vt 0.519531 0.488281
vt 0.519531 0.378906
vt 0.574219 0.761719
vt 0.574219 0.871094
vt 0.542969 0.871094
vt 0.542969 0.761719
vt 0.576172 0.650391
vt 0.576172 0.759766
vt 0.544922 0.759766
vt 0.544922 0.650391
vt 0.576172 0.539062
vt 0.576172 0.648438
vt 0.544922 0.648438
vt 0.544922 0.539062
vt 0.675781 0.595703
vt 0.675781 0.626953
vt 0.644531 0.626953
vt 0.644531 0.595703
vt 0.675781 0.562500
vt 0.675781 0.593750
vt 0.644531 0.593750
vt 0.644531 0.562500
vt 0.583984 0.378906
vt 0.583984 0.488281
vt 0.552734 0.488281
vt 0.552734 0.378906
vt 0.607422 0.761719
vt 0.607422 0.871094
vt 0.576172 0.871094
vt 0.576172 0.761719
vt 0.609375 0.650391
vt 0.609375 0.759766
vt 0.578125 0.759766
vt 0.578125 0.650391
vt 0.609375 0.539062
vt 0.609375 0.648438
vt 0.578125 0.648438
vt 0.578125 0.539062
vt 0.683594 0.529297
vt 0.683594 0.560547
vt 0.652344 0.560547
vt 0.652344 0.529297
vt 0.683594 0.496094
vt 0.683594 0.527344
vt 0.652344 0.527344
vt 0.652344 0.496094
vt 0.617188 0.378906
vt 0.617188 0.488281
vt 0.585938 0.488281
vt 0.585938 0.378906
vt 0.640625 0.761719
vt 0.640625 0.871094
vt 0.609375 0.871094
vt 0.609375 0.761719
vt 0.642578 0.650391
vt 0.642578 0.759766
vt 0.611328 0.759766
vt 0.611328 0.650391
vt 0.642578 0.539062
vt 0.642578 0.648438
vt 0.611328 0.648438
vt 0.611328 0.539062
vt 0.683594 0.462891
vt 0.683594 0.494141
vt 0.652344 0.494141
vt 0.652344 0.462891
vt 0.683594 0.429688
vt 0.683594 0.460938
vt 0.652344 0.460938
vt 0.652344 0.429688
vt 0.650391 0.427734
vt 0.650391 0.537109
vt 0.619141 0.537109
vt 0.619141 0.427734
vt 0.650391 0.316406
vt 0.650391 0.425781
vt 0.619141 0.425781
vt 0.619141 0.316406
vt 0.064453 0.365234
vt 0.064453 0.521484
vt 0.033203 0.521484
vt 0.033203 0.365234
vt 0.509766 0.523438
vt 0.509766 0.679688
vt 0.478516 0.679688
vt 0.478516 0.523438
vt 0.683594 0.396484
vt 0.683594 0.427734
vt 0.652344 0.427734
vt 0.652344 0.396484
vt 0.683594 0.363281
vt 0.683594 0.394531
vt 0.652344 0.394531
vt 0.652344 0.363281
vt 0.451172 0.365234
vt 0.451172 0.521484
vt 0.419922 0.521484
vt 0.419922 0.365234
vt 0.484375 0.365234
vt 0.484375 0.521484
vt 0.453125 0.521484
vt 0.453125 0.365234
vt 0.486328 0.490234
vt 0.617188 0.490234
vt 0.617188 0.521484
vt 0.486328 0.521484
vt 0.158203 0.677734
vt 0.158203 0.808594
vt 0.126953 0.808594
vt 0.126953 0.677734
vt 0.291016 0.332031
vt 0.291016 0.300781
vt 0.322266 0.300781
vt 0.322266 0.332031
vt 0.355469 0.300781
vt 0.355469 0.332031
vt 0.324219 0.332031
vt 0.324219 0.300781
vt 0.226562 0.359375
vt 0.226562 0.490234
vt 0.195312 0.490234
vt 0.195312 0.359375
vt 0.541016 0.740234
vt 0.541016 0.871094
vt 0.509766 0.871094
vt 0.509766 0.740234
vt 0.128906 0.490234
vt 0.128906 0.359375
vt 0.160156 0.359375
vt 0.160156 0.490234
vt 0.638672 1.000000
vt 0.507812 1.000000
vt 0.507812 0.968750
vt 0.638672 0.968750
vt 0.000000 0.330078
vt 0.000000 0.298828
vt 0.031250 0.298828
vt 0.031250 0.330078
vt 0.064453 0.298828
vt 0.064453 0.330078
vt 0.033203 0.330078
vt 0.033203 0.298828
vt 0.228516 0.490234
vt 0.228516 0.359375
vt 0.259766 0.359375
vt 0.259766 0.490234
vt 0.162109 0.490234
vt 0.162109 0.359375
vt 0.193359 0.359375
vt 0.193359 0.490234
vt 0.601562 0.916016
vt 0.601562 0.931641
vt 0.507812 0.931641
vt 0.507812 0.916016
vt 0.736328 0.832031
vt 0.736328 0.847656
vt 0.642578 0.847656
vt 0.642578 0.832031
vt 0.187500 0.906250
vt 0.187500 1.000000
vt 0.000000 1.000000
vt 0.000000 0.906250
vt 0.187500 0.810547
vt 0.187500 0.904297
vt 0.000000 0.904297
vt 0.000000 0.810547
vt 0.695312 0.951172
vt 0.695312 0.966797
vt 0.507812 0.966797
vt 0.507812 0.951172
vt 0.695312 0.933594
vt 0.695312 0.949219
vt 0.507812 0.949219
vt 0.507812 0.933594
vt 0.736328 0.814453
vt 0.736328 0.830078
vt 0.642578 0.830078
vt 0.642578 0.814453
vt 0.736328 0.796875
vt 0.736328 0.812500
vt 0.642578 0.812500
vt 0.642578 0.796875
vt 0.183594 0.714844
vt 0.183594 0.808594
vt 0.160156 0.808594
vt 0.160156 0.714844
vt 0.089844 0.427734
vt 0.089844 0.521484
vt 0.066406 0.521484
vt 0.066406 0.427734
vt 0.183594 0.697266
vt 0.183594 0.712891
vt 0.160156 0.712891
vt 0.160156 0.697266
vt 0.183594 0.679688
vt 0.183594 0.695312
vt 0.160156 0.695312
vt 0.160156 0.679688
vt 0.736328 0.779297
vt 0.736328 0.794922
vt 0.642578 0.794922
vt 0.642578 0.779297
vt 0.736328 0.761719
vt 0.736328 0.777344
vt 0.642578 0.777344
vt 0.642578 0.761719
vt 0.189453 0.833984
vt 0.283203 0.833984
vt 0.283203 1.000000
vt 0.189453 1.000000
vt 0.189453 0.666016
vt 0.283203 0.666016
vt 0.283203 0.832031
vt 0.189453 0.832031
vt 0.582031 0.210938
vt 0.597656 0.210938
vt 0.597656 0.376953
vt 0.582031 0.376953
vt 0.808594 0.849609
vt 0.808594 0.865234
vt 0.642578 0.865234
vt 0.642578 0.849609
vt 0.125000 0.714844
vt 0.125000 0.808594
vt 0.000000 0.808594
vt 0.000000 0.714844
vt 0.410156 0.906250
vt 0.410156 1.000000
vt 0.285156 1.000000
vt 0.285156 0.906250
vt 0.378906 0.779297
vt 0.378906 0.904297
vt 0.285156 0.904297
vt 0.285156 0.779297
vt 0.378906 0.652344
vt 0.378906 0.777344
vt 0.285156 0.777344
vt 0.285156 0.652344
vt 0.474609 0.810547
vt 0.474609 0.904297
vt 0.380859 0.904297
vt 0.380859 0.810547
vt 0.474609 0.714844
vt 0.474609 0.808594
vt 0.380859 0.808594
vt 0.380859 0.714844
vt 0.125000 0.619141
vt 0.125000 0.712891
vt 0.000000 0.712891
vt 0.000000 0.619141
vt 0.251953 0.570312
vt 0.251953 0.664062
vt 0.126953 0.664062
vt 0.126953 0.570312
vt 0.347656 0.525391
vt 0.347656 0.650391
vt 0.253906 0.650391
vt 0.253906 0.525391
vt 0.443359 0.525391
vt 0.443359 0.650391
vt 0.349609 0.650391
vt 0.349609 0.525391
vt 0.093750 0.523438
vt 0.093750 0.617188
vt 0.000000 0.617188
vt 0.000000 0.523438
vt 0.505859 0.906250
vt 0.505859 1.000000
vt 0.412109 1.000000
vt 0.412109 0.906250
vt 0.683594 0.330078
vt 0.683594 0.361328
vt 0.652344 0.361328
vt 0.652344 0.330078
vt 0.517578 0.312500
vt 0.517578 0.343750
vt 0.486328 0.343750
vt 0.486328 0.312500
vt 0.580078 0.345703
vt 0.580078 0.376953
vt 0.486328 0.376953
vt 0.486328 0.345703
vt 0.728516 0.900391
vt 0.728516 0.931641
vt 0.634766 0.931641
vt 0.634766 0.900391
vt 0.355469 0.333984
vt 0.355469 0.365234
vt 0.261719 0.365234
vt 0.261719 0.333984
vt 0.093750 0.332031
vt 0.093750 0.363281
vt 0.000000 0.363281
vt 0.000000 0.332031
vt 0.550781 0.312500
vt 0.550781 0.343750
vt 0.519531 0.343750
vt 0.519531 0.312500
vt 0.289062 0.300781
vt 0.289062 0.332031
vt 0.257812 0.332031
vt 0.257812 0.300781
vt 0.451172 0.332031
vt 0.451172 0.363281
vt 0.357422 0.363281
vt 0.357422 0.332031
vt 0.734375 0.968750
vt 0.734375 1.000000
vt 0.640625 1.000000
vt 0.640625 0.968750
vt 0.189453 0.326172
vt 0.189453 0.357422
vt 0.095703 0.357422
vt 0.095703 0.326172
vt 0.736328 0.867188
vt 0.736328 0.898438
vt 0.642578 0.898438
vt 0.642578 0.867188
s 0
usemtl m_0999b800-805b-3c3a-5f3a-4ecb8166f7a3
f 4/1/1 2/2/1 1/3/1 3/4/1
f 7/5/2 5/6/2 6/7/2 8/8/2
f 1/9/3 2/10/3 6/11/3 5/12/3
f 4/13/4 3/14/4 7/15/4 8/16/4
f 3/17/5 1/18/5 5/19/5 7/20/5
f 8/21/6 6/22/6 2/23/6 4/24/6
f 12/25/1 10/26/1 9/27/1 11/28/1
f 15/29/2 13/30/2 14/31/2 16/32/2
f 9/33/3 10/34/3 14/35/3 13/36/3
f 12/37/4 11/38/4 15/39/4 16/40/4
f 11/41/5 9/42/5 13/43/5 15/44/5
f 16/45/6 14/46/6 10/47/6 12/48/6
f 20/49/1 18/50/1 17/51/1 19/52/1
f 23/53/2 21/54/2 22/55/2 24/56/2
f 17/57/3 18/58/3 22/59/3 21/60/3
f 20/61/4 19/62/4 23/63/4 24/64/4
f 19/65/5 17/66/5 21/67/5 23/68/5
f 24/69/6 22/70/6 18/71/6 20/72/6
f 28/73/1 26/74/1 25/75/1 27/76/1
f 31/77/2 29/78/2 30/79/2 32/80/2
f 25/81/3 26/82/3 30/83/3 29/84/3
f 28/85/4 27/86/4 31/87/4 32/88/4
f 27/89/5 25/90/5 29/91/5 31/92/5
f 32/93/6 30/94/6 26/95/6 28/96/6
f 36/97/1 34/98/1 33/99/1 35/100/1
f 39/101/2 37/102/2 38/103/2 40/104/2
f 33/105/3 34/106/3 38/107/3 37/108/3
f 36/109/4 35/110/4 39/111/4 40/112/4
f 35/113/5 33/114/5 37/115/5 39/116/5
f 40/117/6 38/118/6 34/119/6 36/120/6
f 44/121/1 42/122/1 41/123/1 43/124/1
f 47/125/2 45/126/2 46/127/2 48/128/2
f 41/129/3 42/130/3 46/131/3 45/132/3
f 44/133/4 43/134/4 47/135/4 48/136/4
f 43/137/5 41/138/5 45/139/5 47/140/5
f 48/141/6 46/142/6 42/143/6 44/144/6
f 52/145/1 50/146/1 49/147/1 51/148/1
f 55/149/2 53/150/2 54/151/2 56/152/2
f 49/153/3 50/154/3 54/155/3 53/156/3
f 52/157/4 51/158/4 55/159/4 56/160/4
f 51/161/5 49/162/5 53/163/5 55/164/5
f 56/165/6 54/166/6 50/167/6 52/168/6
f 60/169/1 58/170/1 57/171/1 59/172/1
f 63/173/2 61/174/2 62/175/2 64/176/2
f 57/177/3 58/178/3 62/179/3 61/180/3
f 60/181/4 59/182/4 63/183/4 64/184/4
f 59/185/5 57/186/5 61/187/5 63/188/5
f 64/189/6 62/190/6 58/191/6 60/192/6
f 68/193/1 66/194/1 65/195/1 67/196/1
f 71/197/2 69/198/2 70/199/2 72/200/2
f 65/201/7 66/202/7 70/203/7 69/204/7
f 68/205/8 67/206/8 71/207/8 72/208/8
f 67/209/9 65/210/9 69/211/9 71/212/9
f 72/213/10 70/214/10 66/215/10 68/216/10
f 76/217/1 74/218/1 73/219/1 75/220/1
f 79/221/2 77/222/2 78/223/2 80/224/2
f 73/225/10 74/226/10 78/227/10 77/228/10
f 76/229/9 75/230/9 79/231/9 80/232/9
f 75/233/7 73/234/7 77/235/7 79/236/7
f 80/237/8 78/238/8 74/239/8 76/240/8
f 84/241/1 82/242/1 81/243/1 83/244/1
f 87/245/2 85/246/2 86/247/2 88/248/2
f 81/249/3 82/250/3 86/251/3 85/252/3
f 84/253/4 83/254/4 87/255/4 88/256/4
f 83/257/5 81/258/5 85/259/5 87/260/5
f 88/261/6 86/262/6 82/263/6 84/264/6
f 92/265/1 90/266/1 89/267/1 91/268/1
f 95/269/2 93/270/2 94/271/2 96/272/2
f 89/273/3 90/274/3 94/275/3 93/276/3
f 92/277/4 91/278/4 95/279/4 96/280/4
f 91/281/5 89/282/5 93/283/5 95/284/5
f 96/285/6 94/286/6 90/287/6 92/288/6
f 100/289/11 98/290/11 97/291/11 99/292/11
f 103/293/12 101/294/12 102/295/12 104/296/12
f 97/297/13 98/298/13 102/299/13 101/300/13
f 100/301/14 99/302/14 103/303/14 104/304/14
f 99/305/5 97/306/5 101/307/5 103/308/5
f 104/309/6 102/310/6 98/311/6 100/312/6
f 108/313/1 106/314/1 105/315/1 107/316/1
f 111/317/2 109/318/2 110/319/2 112/320/2
f 105/321/3 106/322/3 110/323/3 109/324/3
f 108/325/4 107/326/4 111/327/4 112/328/4
f 107/329/5 105/330/5 109/331/5 111/332/5
f 112/333/6 110/334/6 106/335/6 108/336/6
f 116/337/1 114/338/1 113/339/1 115/340/1
f 119/341/2 117/342/2 118/343/2 120/344/2
f 113/345/3 114/346/3 118/347/3 117/348/3
f 116/349/4 115/350/4 119/351/4 120/352/4
f 115/353/5 113/354/5 117/355/5 119/356/5
f 120/357/6 118/358/6 114/359/6 116/360/6
f 124/361/1 122/362/1 121/363/1 123/364/1
f 127/365/2 125/366/2 126/367/2 128/368/2
f 121/369/3 122/370/3 126/371/3 125/372/3
f 124/373/4 123/374/4 127/375/4 128/376/4
f 123/377/5 121/378/5 125/379/5 127/380/5
f 128/381/6 126/382/6 122/383/6 124/384/6
f 132/385/1 130/386/1 129/387/1 131/388/1
f 135/389/2 133/390/2 134/391/2 136/392/2
f 129/393/3 130/394/3 134/395/3 133/396/3
f 132/397/4 131/398/4 135/399/4 136/400/4
f 131/401/5 129/402/5 133/403/5 135/404/5
f 136/405/6 134/406/6 130/407/6 132/408/6
