# Made in Blockbench 4.11.1
mtllib fancycube.mtl

o cube
v 2 -1 2
v 2 2 2
v -1 2 2
v -1 -1 2
v -1 -1 -1
v -1 2 -1
v 2 2 -1
v 2 -1 -1
vt 1 0
vt 1 1
vt 0 1
vt 0 0
vt 1 0
vt 1 1
vt 0 1
vt 0 0
vt 0 0
vt 1 0
vt 1 1
vt 0 1
vt 1 1
vt 0 1
vt 0 0
vt 1 0
vt 1 0
vt 1 1
vt 0 1
vt 0 0
vt 1 0
vt 1 1
vt 0 1
vt 0 0
vn 0 0 1
vn 0 0 -1
vn -1 0 0
vn 1 0 0
vn 0 1 0
vn 0 -1 0
usemtl m_602076eb-b715-d179-4377-d812a4711b91
f 1/1/1 2/2/1 3/3/1 4/4/1
usemtl m_c2ba056d-2c6d-7e9d-b15f-77575e87bf88
f 5/5/2 6/6/2 7/7/2 8/8/2
f 5/9/3 4/10/3 3/11/3 6/12/3
f 7/13/4 2/14/4 1/15/4 8/16/4
usemtl m_940190a8-a504-dc7c-ddcd-a3910b73b144
f 6/17/5 3/18/5 2/19/5 7/20/5
f 8/21/6 1/22/6 4/23/6 5/24/6