# Blender v2.93.4 OBJ File: 'tank2.blend'
# www.blender.org
mtllib chemicalvat.mtl
o glass_cube.014
v -0.387413 3.251625 0.376041
v -0.387413 1.248375 0.376041
v -2.637412 3.251625 0.374792
v -2.637413 1.248375 0.374792
v -2.638661 3.251625 2.624792
v -2.638661 1.248375 2.624792
v -0.388662 3.251625 2.626040
v -0.388662 1.248375 2.626040
vt 0.953125 0.953125
vt 0.703125 0.953125
vt 0.953125 0.671875
vt 0.703125 0.671875
vt 0.953125 0.953125
vt 0.703125 0.953125
vt 0.953125 0.671875
vt 0.703125 0.671875
vt 0.440366 0.861048
vt 0.440366 0.848548
vt 0.452866 0.861048
vt 0.452866 0.848548
vt 0.440366 0.861048
vt 0.440366 0.848548
vt 0.452866 0.861048
vt 0.452866 0.848548
vt 0.953125 0.953125
vt 0.703125 0.953125
vt 0.953125 0.671875
vt 0.703125 0.671875
vt 0.953125 0.953125
vt 0.703125 0.953125
vt 0.953125 0.671875
vt 0.703125 0.671875
vn 0.0006 -0.0000 -1.0000
vn -0.0006 0.0000 1.0000
vn 0.0000 1.0000 0.0000
vn -0.0000 -1.0000 0.0000
vn 1.0000 -0.0000 0.0006
vn -1.0000 0.0000 -0.0006
usemtl Material
s 1
f 1/1/1 2/2/1 3/3/1
f 2/2/1 4/4/1 3/3/1
f 5/5/2 6/6/2 7/7/2
f 6/6/2 8/8/2 7/7/2
f 5/9/3 7/10/3 3/11/3
f 7/10/3 1/12/3 3/11/3
f 8/13/4 6/14/4 2/15/4
f 6/14/4 4/16/4 2/15/4
f 7/17/5 8/18/5 1/19/5
f 8/18/5 2/20/5 1/19/5
f 3/21/6 4/22/6 5/23/6
f 4/22/6 6/24/6 5/23/6
o Cube_Cube.001
v -2.000555 0.000000 3.000139
v -2.000555 1.000000 3.000139
v -3.000555 0.000000 2.999584
v -3.000555 1.000000 2.999584
v -2.000000 0.000000 2.000139
v -2.812951 1.000000 2.812188
v -3.000000 0.000000 1.999584
v -3.000000 1.000000 1.999584
v -1.000555 0.000000 3.000694
v -1.000555 1.000000 3.000694
v -0.187951 1.000000 2.813645
v -1.000000 0.000000 2.000694
v -2.999445 1.000000 0.999584
v -2.999445 0.000000 0.999584
v -1.999445 0.000000 1.000139
v -2.811494 1.000000 0.187188
v -0.186494 1.000000 0.188645
v -0.999445 0.000000 1.000694
v -2.998890 1.000000 -0.000416
v -2.998890 0.000000 -0.000416
v -1.998890 0.000000 0.000139
v -1.998890 1.000000 0.000139
v -0.998890 1.000000 0.000694
v -0.998890 0.000000 0.000694
v -0.000000 1.000000 2.001249
v 0.000555 1.000000 1.001249
v -0.000555 0.000000 3.001249
v -0.000555 1.000000 3.001249
v -0.000000 0.000000 2.001249
v 0.000555 0.000000 1.001249
v 0.001110 1.000000 0.001249
v 0.001110 0.000000 0.001249
v 1.000000 1.000000 2.001804
v 1.000555 1.000000 1.001804
v 0.999444 0.000000 3.001803
v 0.999444 1.000000 3.001803
v 1.000000 0.000000 2.001804
v 1.000555 0.000000 1.001804
v 1.001110 1.000000 0.001804
v 1.001110 0.000000 0.001804
v -0.187951 1.250000 2.813645
v -0.186494 1.250000 0.188645
v -2.812951 1.250000 2.812188
v -2.811494 1.250000 0.187188
v -0.187951 4.000000 2.813645
v -0.186494 4.000000 0.188645
v -2.812951 4.000000 2.812188
v -2.811494 4.000000 0.187188
v -0.187951 3.250000 2.813645
v -0.186494 3.250000 0.188645
v -2.812951 3.250000 2.812188
v -2.811494 3.250000 0.187188
v 0.000555 2.000000 1.001249
v 0.001006 2.000000 0.188749
v 1.000555 2.000000 1.001804
v 1.001005 2.000000 0.189304
v 0.125069 1.000000 1.876318
v 0.125485 1.000000 1.126318
v 0.875069 1.000000 1.876734
v 0.875485 1.000000 1.126734
v 0.874514 1.000000 2.876734
v 0.124514 1.000000 2.876318
v 0.124930 1.000000 2.126318
v 0.874930 1.000000 2.126734
v 0.125069 1.187500 1.876318
v 0.125485 1.187500 1.126318
v 0.875069 1.187500 1.876734
v 0.875485 1.187500 1.126734
v 0.874514 1.187500 2.876734
v 0.124514 1.187500 2.876318
v 0.124930 1.187500 2.126318
v 0.874930 1.187500 2.126734
v 0.250138 1.187500 1.751388
v 0.250416 1.187500 1.251388
v 0.750138 1.187500 1.751665
v 0.750416 1.187500 1.251665
v 0.749583 1.187500 2.751665
v 0.249583 1.187500 2.751387
v 0.249861 1.187500 2.251387
v 0.749861 1.187500 2.251665
v 0.250138 3.250000 1.751388
v 0.250416 3.250000 1.251388
v 0.750138 3.250000 1.751665
v 0.750416 3.250000 1.251665
v 0.749583 3.250000 2.751665
v 0.249583 3.250000 2.751387
v 0.249861 3.250000 2.251387
v 0.749861 3.250000 2.251665
v 0.125069 3.250000 1.876318
v 0.125485 3.250000 1.126318
v 0.875069 3.250000 1.876734
v 0.875485 3.250000 1.126734
v 0.874514 3.250000 2.876734
v 0.124514 3.250000 2.876318
v 0.124930 3.250000 2.126318
v 0.874930 3.250000 2.126734
v 0.125069 3.375000 1.876318
v 0.125485 3.375000 1.126318
v 0.875069 3.375000 1.876734
v 0.875485 3.375000 1.126734
v 0.874514 3.375000 2.876734
v 0.124514 3.375000 2.876318
v 0.124930 3.375000 2.126318
v 0.874930 3.375000 2.126734
v 0.250138 3.375000 1.751388
v 0.250416 3.375000 1.251388
v 0.750138 3.375000 1.751665
v 0.750416 3.375000 1.251665
v 0.749583 3.375000 2.751665
v 0.249583 3.375000 2.751387
v 0.249861 3.375000 2.251387
v 0.749861 3.375000 2.251665
v -1.062951 4.000000 2.813159
v -1.937951 4.000000 2.812673
v -1.061494 4.000000 0.188159
v -1.936494 4.000000 0.187674
v -1.062951 3.250000 2.813159
v -1.937951 3.250000 2.812673
v -1.061494 3.250000 0.188159
v -1.936494 3.250000 0.187674
v -0.187466 4.000000 1.938645
v -0.186980 4.000000 1.063645
v -2.811980 4.000000 1.062188
v -2.812465 4.000000 1.937188
v -0.187466 3.250000 1.938645
v -0.186980 3.250000 1.063645
v -2.811980 3.250000 1.062188
v -2.812465 3.250000 1.937188
v -1.937465 3.250000 1.937673
v -1.936980 3.250000 1.062674
v -1.062465 3.250000 1.938159
v -1.061980 3.250000 1.063159
v -1.936980 4.000000 1.062674
v -1.937465 4.000000 1.937673
v -1.061980 4.000000 1.063159
v -1.062465 4.000000 1.938159
v 0.562638 3.875000 1.751561
v 0.562916 3.875000 1.251561
v 0.750138 3.687500 1.751665
v 0.750416 3.687500 1.251665
v 0.749583 3.687500 2.751665
v 0.562083 3.875000 2.751561
v 0.562361 3.875000 2.251561
v 0.749861 3.687500 2.251665
v 0.187638 3.375000 1.751353
v 0.187916 3.375000 1.251353
v 0.187361 3.375000 2.251353
v 0.187083 3.375000 2.751353
v 0.187638 3.875000 1.751353
v 0.187916 3.875000 1.251353
v 0.187361 3.875000 2.251353
v 0.187083 3.875000 2.751353
v -0.187917 3.875000 2.751145
v -0.187917 3.375000 2.751145
v -0.187639 3.875000 2.251145
v -0.187639 3.375000 2.251145
v -0.187362 3.875000 1.751145
v -0.187084 3.875000 1.251145
v -0.187362 3.375000 1.751145
v -0.187084 3.375000 1.251145
vt 0.000013 0.875013
vt 0.124987 0.875013
vt 0.124987 0.999987
vt 0.000013 0.999987
vt 0.500013 0.999987
vt 0.624987 0.999987
vt 0.624987 0.875013
vt 0.500013 0.875013
vt 0.750000 1.000000
vt 0.648438 0.976562
vt 0.976562 0.976562
vt 0.875000 1.000000
vt 0.000013 0.750013
vt 0.124987 0.750013
vt 0.125013 0.999987
vt 0.125013 0.875013
vt 0.249987 0.875013
vt 0.249987 0.999987
vt 0.625000 0.875000
vt 0.648438 0.648438
vt 0.625000 0.750000
vt 0.625000 0.625000
vt 0.750000 0.625000
vt 0.374987 0.875013
vt 0.374987 0.999987
vt 0.140625 0.703125
vt 0.468750 0.703125
vt 0.468750 0.734375
vt 0.140625 0.734375
vt 0.976562 0.648438
vt 1.000000 0.750000
vt 1.000000 0.875000
vt 0.249987 0.875013
vt 0.249987 0.999987
vt 0.125012 0.999987
vt 0.125013 0.875013
vt 0.500013 0.750013
vt 0.624987 0.750013
vt 0.624987 0.874987
vt 0.500013 0.874987
vt 0.250013 0.875013
vt 0.374988 0.875013
vt 0.374988 0.999987
vt 0.250013 0.999987
vt 0.249987 0.000013
vt 0.249987 0.124987
vt 0.125013 0.124987
vt 0.125012 0.000013
vt 0.374987 0.875013
vt 0.374987 0.999987
vt 0.499987 0.125013
vt 0.499988 0.249987
vt 0.375013 0.249987
vt 0.375012 0.125013
vt 0.250013 0.249987
vt 0.250012 0.125013
vt 0.124987 0.875013
vt 0.000013 0.875013
vt 0.000013 0.999987
vt 0.124987 0.999987
vt 1.000000 1.000000
vt 0.624987 0.999987
vt 0.500013 0.999987
vt 0.250013 0.875013
vt 0.374987 0.875013
vt 0.374987 0.999987
vt 0.250013 0.999987
vt 0.125013 0.249987
vt 0.125013 0.125013
vt 0.249987 0.125013
vt 0.249987 0.249987
vt 0.625013 0.125012
vt 0.749987 0.125012
vt 0.749987 0.249987
vt 0.648445 0.249987
vt 0.125012 0.874987
vt 0.125013 0.750013
vt 0.249987 0.750013
vt 0.249987 0.874987
vt 0.125013 0.999987
vt 0.125013 0.875013
vt 0.875000 0.625000
vt 1.000000 0.625000
vt 0.000013 0.874987
vt 0.124987 0.874988
vt 0.124987 0.750013
vt 0.000013 0.750012
vt 0.125013 0.875013
vt 0.125013 0.999987
vt 0.000012 0.124987
vt 0.124987 0.124987
vt 0.124987 0.000013
vt 0.000012 0.000013
vt 0.000013 0.000013
vt 0.124987 0.000013
vt 0.000012 0.749987
vt 0.000012 0.625013
vt 0.124987 0.625013
vt 0.124987 0.749987
vt 0.250027 0.249982
vt 0.125044 0.249982
vt 0.140667 0.234360
vt 0.234404 0.234360
vt 0.125044 0.125018
vt 0.250027 0.125018
vt 0.234404 0.140640
vt 0.140667 0.140640
vt 0.874987 0.124987
vt 0.750013 0.124987
vt 0.750013 0.000013
vt 0.874987 0.000013
vt 0.499987 0.125013
vt 0.499988 0.249987
vt 0.375013 0.249987
vt 0.375012 0.125013
vt 0.249987 0.125013
vt 0.249987 0.249987
vt 0.125013 0.249987
vt 0.125013 0.125013
vt 0.656250 0.296875
vt 0.984375 0.296875
vt 0.984375 0.625000
vt 0.656250 0.625000
vt 0.140625 0.703125
vt 0.468750 0.703125
vt 0.468750 0.734375
vt 0.140625 0.734375
vt 0.140625 0.703125
vt 0.468750 0.703125
vt 0.468750 0.734375
vt 0.140625 0.734375
vt 0.140625 0.703125
vt 0.468750 0.703125
vt 0.468750 0.734375
vt 0.140625 0.734375
vt 0.218750 0.515625
vt 0.218750 0.625000
vt 0.328125 0.625000
vt 0.328125 0.515625
vt 0.546875 0.406250
vt 0.656250 0.406250
vt 0.656250 0.296875
vt 0.546875 0.296875
vt 0.250000 0.734375
vt 0.250000 0.640625
vt 0.140625 0.640625
vt 0.140625 0.734375
vt 0.250000 0.734375
vt 0.250000 0.640625
vt 0.140625 0.640625
vt 0.140625 0.734375
vt 0.359375 0.640625
vt 0.359375 0.734375
vt 0.468750 0.734375
vt 0.468750 0.640625
vt 0.359375 0.640625
vt 0.359375 0.734375
vt 0.468750 0.734375
vt 0.468750 0.640625
vt 1.000000 0.250000
vt 0.898438 0.250000
vt 0.898438 0.125000
vt 1.000000 0.125000
vt 0.625013 0.125012
vt 0.749987 0.125012
vt 0.749987 0.249987
vt 0.625013 0.249987
vt 0.625013 0.125012
vt 0.648445 0.249987
vt 0.751083 0.123942
vt 0.873917 0.123942
vt 0.875000 0.250000
vt 0.750000 0.250000
vt 0.031250 0.140625
vt 0.125000 0.140625
vt 0.125000 0.164062
vt 0.031250 0.164062
vt 0.250027 0.250000
vt 0.234404 0.234377
vt 0.125044 0.250000
vt 0.140667 0.234377
vt 0.125000 0.140625
vt 0.125000 0.164062
vt 0.125044 0.125000
vt 0.140667 0.140623
vt 0.250026 0.125000
vt 0.234404 0.140623
vt 0.125000 0.257812
vt 0.031250 0.257812
vt 0.046875 0.242188
vt 0.109375 0.242188
vt 0.125000 0.164062
vt 0.125000 0.257812
vt 0.109375 0.242188
vt 0.109375 0.179688
vt 0.125000 0.140625
vt 0.031250 0.140625
vt 0.031250 0.164062
vt 0.125000 0.164062
vt 0.125000 0.140625
vt 0.031250 0.140625
vt 0.031250 0.164062
vt 0.125000 0.164062
vt 0.031250 0.140625
vt 0.125000 0.140625
vt 0.125000 0.164062
vt 0.031250 0.164062
vt 0.125000 0.140625
vt 0.125000 0.164062
vt 0.031250 0.140625
vt 0.031250 0.164062
vt 0.031250 0.140625
vt 0.031250 0.164062
vt 0.562500 0.000000
vt 0.625000 0.000000
vt 0.625000 0.250000
vt 0.562500 0.250000
vt 0.046875 0.179688
vt 0.125000 0.164062
vt 0.109375 0.179688
vt 0.562500 0.000000
vt 0.625000 0.000000
vt 0.625000 0.250000
vt 0.562500 0.250000
vt 0.031250 0.257812
vt 0.046875 0.242188
vt 0.046875 0.179688
vt 0.109375 0.179688
vt 0.046875 0.179688
vt 0.031250 0.164062
vt 0.125000 0.164062
vt 0.046875 0.242188
vt 0.109375 0.242188
vt 0.125000 0.257812
vt 0.031250 0.257812
vt 0.562500 0.000000
vt 0.625000 0.000000
vt 0.625000 0.250000
vt 0.562500 0.250000
vt 0.562500 0.000000
vt 0.625000 0.000000
vt 0.625000 0.250000
vt 0.562500 0.250000
vt 0.562500 0.000000
vt 0.625000 0.000000
vt 0.625000 0.250000
vt 0.562500 0.250000
vt 0.562500 0.000000
vt 0.625000 0.000000
vt 0.625000 0.250000
vt 0.562500 0.250000
vt 0.562500 0.000000
vt 0.625000 0.000000
vt 0.625000 0.250000
vt 0.562500 0.250000
vt 0.562500 0.000000
vt 0.625000 0.000000
vt 0.625000 0.250000
vt 0.562500 0.250000
vt 0.031250 0.148438
vt 0.125000 0.148438
vt 0.125000 0.164062
vt 0.031250 0.164062
vt 0.125000 0.164062
vt 0.031250 0.164062
vt 0.031250 0.148438
vt 0.125000 0.148438
vt 0.109375 0.242188
vt 0.125000 0.257812
vt 0.109375 0.179688
vt 0.125000 0.164062
vt 0.046875 0.179688
vt 0.031250 0.164062
vt 0.046875 0.242188
vt 0.031250 0.257812
vt 0.031250 0.164062
vt 0.125000 0.164062
vt 0.109375 0.179688
vt 0.046875 0.179688
vt 0.031250 0.257812
vt 0.046875 0.242188
vt 0.031250 0.148438
vt 0.125000 0.148438
vt 0.125000 0.164062
vt 0.031250 0.164062
vt 0.031250 0.148438
vt 0.125000 0.148438
vt 0.125000 0.164062
vt 0.031250 0.164062
vt 0.031250 0.148438
vt 0.125000 0.148438
vt 0.031250 0.148438
vt 0.125000 0.148438
vt 0.125000 0.164062
vt 0.031250 0.164062
vt 0.125000 0.164062
vt 0.031250 0.164062
vt 0.031250 0.148438
vt 0.125000 0.148438
vt 0.031250 0.148438
vt 0.125000 0.148438
vt 0.625000 0.246309
vt 0.562500 0.246309
vt 0.562500 0.215059
vt 0.625000 0.215059
vt 0.500189 0.061865
vt 0.500189 0.000723
vt 0.538403 0.000723
vt 0.561331 0.023651
vt 0.031250 0.164062
vt 0.125000 0.164062
vt 0.109375 0.179688
vt 0.046875 0.179688
vt 0.125000 0.257812
vt 0.109375 0.242188
vt 0.125000 0.257812
vt 0.109375 0.242188
vt 0.031250 0.257812
vt 0.046875 0.242188
vt 0.140625 0.640625
vt 0.140625 0.734375
vt 0.250000 0.734375
vt 0.250000 0.640625
vt 0.468750 0.734375
vt 0.468750 0.640625
vt 0.359375 0.640625
vt 0.359375 0.734375
vt 0.546875 0.625000
vt 0.656250 0.625000
vt 0.656250 0.515625
vt 0.546875 0.515625
vt 0.218750 0.296875
vt 0.218750 0.406250
vt 0.328125 0.406250
vt 0.328125 0.296875
vt 0.000000 0.406250
vt 0.000000 0.515625
vt 0.109375 0.515625
vt 0.109375 0.406250
vt 0.000000 0.296875
vt 0.109375 0.296875
vt 0.328125 0.515625
vt 0.437500 0.515625
vt 0.437500 0.406250
vt 0.328125 0.406250
vt 0.328125 0.625000
vt 0.437500 0.625000
vt 0.250000 0.734375
vt 0.210938 0.718750
vt 0.148438 0.718750
vt 0.140625 0.734375
vt 0.273438 0.718750
vt 0.273438 0.656250
vt 0.250000 0.640625
vt 0.468750 0.734375
vt 0.468750 0.640625
vt 0.359375 0.640625
vt 0.359375 0.734375
vt 0.437500 0.296875
vt 0.328125 0.296875
vt 0.000000 0.625000
vt 0.109375 0.625000
vt 0.562500 0.191621
vt 0.625000 0.191621
vt 0.562500 0.191621
vt 0.625000 0.191621
vt 0.625000 0.215059
vt 0.562500 0.215059
vt 0.625000 0.246309
vt 0.562500 0.246309
vt 0.500189 0.061865
vt 0.500189 0.000723
vt 0.538403 0.000723
vt 0.561331 0.023651
vt 0.500189 0.000723
vt 0.500189 0.061865
vt 0.561331 0.023651
vt 0.538403 0.000723
vt 0.500189 0.069507
vt 0.561331 0.069507
vt 0.500189 0.000723
vt 0.500189 0.061865
vt 0.561331 0.023651
vt 0.538403 0.000723
vt 0.562500 0.152559
vt 0.625000 0.152559
vt 0.210938 0.656250
vt 0.500189 0.069507
vt 0.561331 0.069507
vt 0.561331 0.115364
vt 0.500189 0.115364
vt 0.500189 0.069507
vt 0.561331 0.069507
vt 0.625000 0.750000
vt 0.625000 0.750000
vt 0.625000 0.750000
vt 0.625000 0.750000
vt 0.562500 0.152559
vt 0.625000 0.152559
vt 0.561331 0.069507
vt 0.500189 0.069507
vt 0.625000 0.750000
vt 0.875000 0.750000
vt 0.875000 0.750000
vt 0.625000 0.750000
vt 0.140625 0.640625
vt 0.148438 0.656250
vt 0.335938 0.718750
vt 0.335938 0.656250
vt 0.562500 0.174649
vt 0.562500 0.135587
vt 0.625000 0.135587
vt 0.625000 0.174649
vt 0.500189 0.115364
vt 0.561331 0.115364
vt 0.625000 0.181416
vt 0.562500 0.181416
vt 0.562500 0.134541
vt 0.625000 0.134541
vt 0.562500 0.174649
vt 0.562500 0.135587
vt 0.625000 0.135587
vt 0.625000 0.174649
vt 0.500189 0.115364
vt 0.561331 0.115364
vt 0.625000 0.181416
vt 0.562500 0.181416
vt 0.562500 0.134541
vt 0.625000 0.134541
vt 0.561331 0.115364
vt 0.500189 0.115364
vn -0.0006 0.0000 1.0000
vn -1.0000 0.0000 -0.0006
vn 0.0000 1.0000 0.0000
vn 0.0000 -1.0000 0.0000
vn 0.0006 0.0000 -1.0000
vn 1.0000 0.0000 0.0006
vn 0.0005 0.1843 -0.9829
vn 0.7071 0.7071 0.0004
usemtl Material
s off
f 9/25/7 10/26/7 12/27/7 11/28/7
f 11/29/8 12/30/8 16/31/8 15/32/8
f 16/33/9 14/34/9 24/35/9 21/36/9
f 10/26/7 9/25/7 17/37/7 18/38/7
f 11/39/10 15/40/10 13/41/10 9/42/10
f 16/33/9 12/30/9 10/43/9 14/34/9
f 19/44/9 18/45/9 36/46/9 33/47/9
f 9/42/10 13/41/10 20/48/10 17/49/10
f 14/34/9 10/43/9 18/45/9 19/44/9
f 14/50/7 19/51/7 49/52/7 51/53/7
f 24/35/9 25/54/9 31/55/9 30/56/9
f 23/57/10 22/58/10 28/59/10 29/60/10
f 15/61/8 16/62/8 21/63/8 22/64/8
f 20/65/10 26/66/10 38/67/10 37/68/10
f 20/69/10 13/70/10 23/71/10 26/72/10
f 13/73/10 15/74/10 22/58/10 23/57/10
f 28/75/11 27/76/11 30/77/11 29/78/11
f 29/78/11 30/77/11 31/79/11 32/80/11
f 18/81/7 17/82/7 35/83/7 36/84/7
f 21/36/9 24/35/9 30/56/9 27/85/9
f 22/64/8 21/63/8 27/86/8 28/87/8
f 26/88/10 23/89/10 29/90/10 32/91/10
f 37/92/10 38/93/10 46/94/10 45/95/10
f 39/96/8 34/97/8 61/98/8 62/99/8
f 36/100/7 35/101/7 43/102/7 44/103/7
f 26/88/10 32/91/10 40/104/10 38/105/10
f 25/54/9 19/44/9 33/47/9 34/106/9
f 31/55/9 25/54/9 34/106/9 39/107/9
f 32/108/11 31/109/11 39/110/11 40/111/11
f 17/112/10 20/65/10 37/68/10 35/113/10
f 45/114/12 41/115/12 44/116/12 43/117/12
f 41/115/12 45/114/12 46/118/12 42/119/12
f 42/120/12 46/121/12 48/122/12 47/123/12
f 41/124/9 33/125/9 71/126/9 72/127/9
f 42/128/9 34/129/9 66/130/9 68/131/9
f 38/132/10 40/133/10 48/134/10 46/135/10
f 40/136/11 39/137/11 47/138/11 48/139/11
f 35/140/10 37/141/10 45/142/10 43/143/10
f 51/144/9 49/145/9 50/146/9 52/147/9
f 25/148/11 24/149/11 52/150/11 50/151/11
f 19/152/12 25/153/12 50/154/12 49/155/12
f 24/156/8 14/157/8 51/158/8 52/159/8
f 143/160/9 130/161/9 54/162/9 123/163/9
f 140/164/10 127/165/10 58/166/10 134/167/10
f 132/168/8 136/169/8 59/170/8 55/171/8
f 121/172/7 125/173/7 57/174/7 53/175/7
f 124/176/11 128/177/11 60/178/11 56/179/11
f 130/180/12 134/181/12 58/182/12 54/183/12
f 62/184/9 61/185/9 63/186/9 64/187/9
f 34/188/7 42/189/7 63/190/7 61/191/7
f 42/189/12 47/192/12 64/193/12 63/190/12
f 47/194/13 39/195/13 62/196/13 64/197/13
f 67/198/12 68/199/12 76/200/12 75/201/12
f 34/129/9 33/202/9 65/203/9 66/130/9
f 41/204/9 42/128/9 68/131/9 67/205/9
f 33/202/9 41/204/9 67/205/9 65/203/9
f 65/206/7 67/198/7 75/201/7 73/207/7
f 33/125/9 36/208/9 70/209/9 71/126/9
f 36/208/9 44/210/9 69/211/9 70/209/9
f 44/210/9 41/124/9 72/127/9 69/211/9
f 76/212/9 74/213/9 82/214/9 84/215/9
f 80/216/9 79/217/9 87/218/9 88/219/9
f 69/220/12 72/221/12 80/222/12 77/223/12
f 70/224/7 69/225/7 77/226/7 78/227/7
f 68/228/11 66/229/11 74/230/11 76/231/11
f 72/221/11 71/232/11 79/233/11 80/222/11
f 66/229/8 65/234/8 73/235/8 74/230/8
f 71/232/8 70/236/8 78/237/8 79/233/8
f 88/238/11 87/239/11 95/240/11 96/241/11
f 74/213/9 73/235/9 81/242/9 82/214/9
f 73/235/9 75/243/9 83/244/9 81/242/9
f 75/243/9 76/212/9 84/215/9 83/244/9
f 84/245/11 82/246/11 90/247/11 92/248/11
f 79/217/9 78/249/9 86/250/9 87/218/9
f 77/226/9 80/216/9 88/219/9 85/251/9
f 78/249/9 77/226/9 85/251/9 86/250/9
f 93/252/10 96/253/10 104/254/10 101/255/10
f 91/256/10 92/257/10 100/258/10 99/259/10
f 82/260/8 81/261/8 89/262/8 90/263/8
f 87/264/8 86/265/8 94/266/8 95/267/8
f 81/268/7 83/269/7 91/270/7 89/271/7
f 83/272/12 84/273/12 92/274/12 91/275/12
f 85/276/12 88/277/12 96/278/12 93/279/12
f 86/280/7 85/281/7 93/282/7 94/283/7
f 103/284/8 102/285/8 110/286/8 111/287/8
f 104/288/11 103/289/11 111/290/11 112/291/11
f 94/292/10 93/252/10 101/255/10 102/293/10
f 92/257/10 90/294/10 98/295/10 100/258/10
f 90/294/10 89/296/10 97/297/10 98/295/10
f 96/253/10 95/298/10 103/299/10 104/254/10
f 95/298/10 94/292/10 102/293/10 103/299/10
f 89/296/10 91/256/10 99/259/10 97/297/10
f 106/300/9 105/301/9 113/302/9 114/303/9
f 108/304/9 106/300/9 114/303/9 116/305/9
f 97/306/7 99/307/7 107/308/7 105/309/7
f 99/310/12 100/311/12 108/312/12 107/313/12
f 101/255/12 104/254/12 112/314/12 109/315/12
f 102/316/7 101/317/7 109/318/7 110/319/7
f 100/320/11 98/321/11 106/322/11 108/323/11
f 98/295/8 97/297/8 105/324/8 106/325/8
f 115/326/12 116/327/12 148/328/12 147/329/12
f 113/330/7 115/331/7 147/332/7 145/333/7
f 112/334/9 111/335/9 119/336/9 120/337/9
f 111/335/9 110/338/9 118/339/9 119/336/9
f 105/301/9 107/340/9 115/341/9 113/302/9
f 107/340/9 108/304/9 116/305/9 115/341/9
f 109/342/9 112/334/9 120/337/9 117/343/9
f 110/338/9 109/342/9 117/343/9 118/339/9
f 54/344/11 58/345/11 127/346/11 123/347/11
f 123/347/11 127/346/11 128/177/11 124/176/11
f 55/348/7 59/349/7 126/350/7 122/351/7
f 122/351/7 126/350/7 125/173/7 121/172/7
f 135/352/10 60/353/10 128/354/10 138/355/10
f 138/355/10 128/354/10 127/165/10 140/164/10
f 131/356/9 141/357/9 124/358/9 56/359/9
f 141/357/9 143/160/9 123/163/9 124/358/9
f 122/360/9 121/361/9 144/362/9 142/363/9
f 142/363/9 144/362/9 143/160/9 141/357/9
f 55/364/9 122/360/9 142/363/9 132/365/9
f 132/365/9 142/363/9 141/357/9 131/356/9
f 126/366/10 137/367/10 139/368/10 125/369/10
f 137/367/10 138/355/10 140/164/10 139/368/10
f 59/370/10 136/371/10 137/367/10 126/366/10
f 136/371/10 135/352/10 138/355/10 137/367/10
f 133/372/12 164/373/12 162/374/12 57/375/12
f 133/372/12 167/376/12 165/377/12 129/378/12
f 56/379/8 60/380/8 135/381/8 131/382/8
f 131/382/8 135/381/8 136/169/8 132/168/8
f 125/369/10 139/368/10 133/383/10 57/384/10
f 139/368/10 140/164/10 134/167/10 133/383/10
f 121/361/9 53/385/9 129/386/9 144/362/9
f 144/362/9 129/386/9 130/161/9 143/160/9
f 146/387/14 145/388/14 147/329/14 148/328/14
f 151/389/14 150/390/14 149/391/14 152/392/14
f 117/393/12 120/394/12 152/392/12 149/391/12
f 118/395/7 117/396/7 149/397/7 150/398/7
f 116/399/11 114/400/11 146/401/11 148/402/11
f 146/401/11 114/400/11 154/403/11 158/404/11
f 120/405/11 119/406/11 151/407/11 152/408/11
f 150/390/9 151/389/9 159/409/9 160/410/9
f 129/378/12 163/411/12 164/373/12 133/372/12
f 156/412/7 160/413/7 161/414/7 162/415/7
f 151/407/11 119/406/11 155/416/11 159/417/11
f 118/395/7 150/398/7 160/413/7 156/412/7
f 114/418/10 113/419/10 153/420/10 154/421/10
f 145/388/9 146/387/9 158/422/9 157/423/9
f 113/330/7 145/333/7 157/424/7 153/425/7
f 119/426/10 118/427/10 156/428/10 155/429/10
f 53/430/12 161/431/12 163/411/12 129/378/12
f 57/375/12 162/374/12 161/431/12 53/430/12
f 134/181/12 168/432/12 167/376/12 133/372/12
f 130/180/12 166/433/12 168/432/12 134/181/12
f 129/378/12 165/377/12 166/433/12 130/180/12
f 159/434/9 163/435/9 161/436/9 160/437/9
f 155/416/11 164/438/11 163/439/11 159/417/11
f 155/440/10 156/441/10 162/442/10 164/443/10
f 158/444/9 166/445/9 165/446/9 157/447/9
f 154/403/11 168/448/11 166/449/11 158/404/11
f 154/450/10 153/451/10 167/452/10 168/453/10
f 153/425/7 157/424/7 165/454/7 167/455/7
