# Blender v2.93.4 OBJ File: ''
# www.blender.org
mtllib chemicalvat.mtl
o glass_cube.014
v -0.387413 3.251625 2.584127
v -0.387413 1.248375 2.584127
v -2.637412 3.251625 2.585376
v -2.637413 1.248375 2.585376
v -2.638661 3.251625 0.335376
v -2.638661 1.248375 0.335376
v -0.388662 3.251625 0.334128
v -0.388662 1.248375 0.334128
vt 0.953125 0.953125
vt 0.953125 0.671875
vt 0.703125 0.953125
vt 0.703125 0.671875
vt 0.953125 0.953125
vt 0.953125 0.671875
vt 0.703125 0.953125
vt 0.703125 0.671875
vt 0.440366 0.861048
vt 0.452866 0.861048
vt 0.440366 0.848548
vt 0.452866 0.848548
vt 0.440366 0.861048
vt 0.452866 0.861048
vt 0.440366 0.848548
vt 0.452866 0.848548
vt 0.953125 0.953125
vt 0.953125 0.671875
vt 0.703125 0.953125
vt 0.703125 0.671875
vt 0.953125 0.953125
vt 0.953125 0.671875
vt 0.703125 0.953125
vt 0.703125 0.671875
vn 0.0006 0.0000 1.0000
vn -0.0006 -0.0000 -1.0000
vn -0.0000 1.0000 -0.0000
vn 0.0000 -1.0000 0.0000
vn 1.0000 0.0000 -0.0006
vn -1.0000 0.0000 0.0006
usemtl None
s 1
f 1/1/1 3/2/1 2/3/1
f 2/3/1 3/2/1 4/4/1
f 5/5/2 7/6/2 6/7/2
f 6/7/2 7/6/2 8/8/2
f 5/9/3 3/10/3 7/11/3
f 7/11/3 3/10/3 1/12/3
f 8/13/4 2/14/4 6/15/4
f 6/15/4 2/14/4 4/16/4
f 7/17/5 1/18/5 8/19/5
f 8/19/5 1/18/5 2/20/5
f 3/21/6 5/22/6 4/23/6
f 4/23/6 5/22/6 6/24/6
o Cube_Cube.001
v -2.000555 -0.000000 -0.039971
v -2.000555 1.000000 -0.039971
v -3.000555 1.000000 -0.039416
v -3.000555 -0.000000 -0.039416
v -3.000000 1.000000 0.960584
v -3.000000 -0.000000 0.960584
v -2.812951 1.000000 0.147980
v -2.811494 1.000000 2.772980
v -2.999445 1.000000 1.960584
v -1.000555 -0.000000 -0.040526
v -1.000555 1.000000 -0.040526
v -2.000000 -0.000000 0.960029
v -0.187951 1.000000 0.146523
v -0.000555 1.000000 -0.041081
v 0.000000 1.000000 0.958919
v -1.000000 -0.000000 0.959474
v -0.187951 1.250000 0.146523
v -2.812951 1.250000 0.147980
v -0.186494 1.000000 2.771523
v -0.998890 1.000000 2.959474
v -1.998890 1.000000 2.960029
v -1.999445 -0.000000 1.960029
v -2.999445 -0.000000 1.960584
v -2.998890 0.000000 2.960584
v -1.998890 -0.000000 2.960029
v -0.999445 -0.000000 1.959474
v 0.000555 -0.000000 1.958919
v 0.000000 -0.000000 0.958919
v -2.998890 1.000000 2.960584
v -0.998890 -0.000000 2.959474
v -0.000555 -0.000000 -0.041081
v 1.000555 -0.000000 1.958364
v 1.000000 -0.000000 0.958364
v 0.001110 1.000000 2.958919
v 0.000555 1.000000 1.958919
v 0.000555 2.000000 1.958919
v 0.001006 2.000000 2.771419
v 0.999444 -0.000000 -0.041635
v 0.999444 1.000000 -0.041635
v 0.001110 -0.000000 2.958919
v 1.000000 1.000000 0.958364
v 1.000555 1.000000 1.958364
v 1.001110 -0.000000 2.958364
v 1.001110 1.000000 2.958364
v 0.124930 1.000000 0.833850
v 0.874930 1.000000 0.833434
v 0.125485 1.000000 1.833850
v 0.875485 1.000000 1.833434
v -0.186494 1.250000 2.771523
v -2.811494 1.250000 2.772980
v -1.061980 4.000000 1.897009
v -0.186980 4.000000 1.896523
v -0.186494 4.000000 2.771523
v -1.061494 4.000000 2.772009
v -1.061980 3.250000 1.897009
v -1.061494 3.250000 2.772009
v -0.186494 3.250000 2.771523
v -0.186980 3.250000 1.896523
v -2.812465 4.000000 1.022980
v -2.812465 3.250000 1.022980
v -2.812951 3.250000 0.147980
v -2.812951 4.000000 0.147980
v -1.062951 4.000000 0.147009
v -1.062951 3.250000 0.147009
v -0.187951 3.250000 0.146523
v -0.187951 4.000000 0.146523
v -1.936494 4.000000 2.772494
v -1.936494 3.250000 2.772494
v -2.811494 3.250000 2.772980
v -2.811494 4.000000 2.772980
v 1.000555 2.000000 1.958364
v 1.001005 2.000000 2.770864
v 0.875069 1.000000 1.083434
v 0.875485 1.187500 1.833434
v 0.875069 1.187500 1.083434
v 0.125069 1.000000 1.083850
v 0.125069 1.187500 1.083850
v 0.124514 1.000000 0.083850
v 0.874514 1.000000 0.083434
v 0.125485 1.187500 1.833850
v 0.250416 1.187500 1.708780
v 0.750416 1.187500 1.708503
v 0.874930 1.187500 0.833434
v 0.124930 1.187500 0.833850
v 0.249861 1.187500 0.708781
v 0.749861 1.187500 0.708503
v 0.874514 1.187500 0.083434
v 0.124514 1.187500 0.083850
v 0.249861 3.250000 0.708781
v 0.749861 3.250000 0.708503
v 0.250138 1.187500 1.208780
v 0.750138 1.187500 1.208503
v 0.250416 3.250000 1.708780
v 0.750416 3.250000 1.708503
v 0.249583 1.187500 0.208781
v 0.749583 1.187500 0.208503
v 0.749583 3.250000 0.208503
v 0.874930 3.250000 0.833434
v 0.874514 3.250000 0.083434
v 0.750138 3.250000 1.208503
v 0.875485 3.250000 1.833434
v 0.875069 3.250000 1.083434
v 0.250138 3.250000 1.208780
v 0.249583 3.250000 0.208781
v 0.124930 3.250000 0.833850
v 0.124514 3.250000 0.083850
v 0.124514 3.375000 0.083850
v 0.124930 3.375000 0.833850
v 0.874930 3.375000 0.833434
v 0.125485 3.250000 1.833850
v 0.125069 3.250000 1.083850
v 0.125485 3.375000 1.833850
v 0.125069 3.375000 1.083850
v 0.250138 3.375000 1.208780
v 0.250416 3.375000 1.708780
v 0.875485 3.375000 1.833434
v 0.750416 3.375000 1.708503
v 0.875069 3.375000 1.083434
v 0.874514 3.375000 0.083434
v 0.750138 3.375000 1.208503
v 0.750416 3.687500 1.708503
v 0.750138 3.687500 1.208503
v 0.562638 3.875000 1.208607
v 0.249861 3.375000 0.708781
v 0.749861 3.375000 0.708503
v 0.249583 3.375000 0.208781
v 0.749583 3.375000 0.208503
v -1.937951 3.250000 0.147495
v -1.937951 4.000000 0.147495
v -2.811980 3.250000 1.897980
v -1.936980 3.250000 1.897494
v -2.811980 4.000000 1.897980
v -1.936980 4.000000 1.897494
v -1.062465 4.000000 1.022009
v -1.937465 4.000000 1.022495
v -1.937465 3.250000 1.022495
v -1.062465 3.250000 1.022009
v -0.187466 3.250000 1.021523
v -0.187639 3.375000 0.709023
v -0.187917 3.375000 0.209023
v -0.187362 3.375000 1.209023
v -0.187362 3.875000 1.209023
v -0.187466 4.000000 1.021523
v 0.562916 3.875000 1.708607
v 0.562361 3.875000 0.708607
v 0.562083 3.875000 0.208607
v 0.749583 3.687500 0.208503
v 0.749861 3.687500 0.708503
v 0.187916 3.375000 1.708815
v 0.187916 3.875000 1.708815
v 0.187361 3.875000 0.708815
v 0.187083 3.875000 0.208815
v -0.187639 3.875000 0.709023
v 0.187083 3.375000 0.208815
v -0.187917 3.875000 0.209023
v 0.187361 3.375000 0.708815
v 0.187638 3.375000 1.208815
v 0.187638 3.875000 1.208815
v -0.187084 3.375000 1.709023
v -0.187084 3.875000 1.709023
vt 0.000013 0.875013
vt 0.000013 0.999987
vt 0.124987 0.999987
vt 0.124987 0.875013
vt 0.500013 0.999987
vt 0.500013 0.875013
vt 0.624987 0.875013
vt 0.624987 0.999987
vt 0.750000 1.000000
vt 0.875000 1.000000
vt 0.976562 0.976562
vt 0.648438 0.976562
vt 0.124987 0.750013
vt 0.000013 0.750013
vt 0.125013 0.999987
vt 0.249987 0.999987
vt 0.249987 0.875013
vt 0.125013 0.875013
vt 0.625000 0.875000
vt 0.648438 0.648438
vt 0.750000 0.625000
vt 0.625000 0.625000
vt 0.625000 0.750000
vt 0.374987 0.999987
vt 0.374987 0.875013
vt 0.140625 0.703125
vt 0.140625 0.734375
vt 0.468750 0.734375
vt 0.468750 0.703125
vt 1.000000 0.875000
vt 1.000000 0.750000
vt 0.976562 0.648438
vt 0.249987 0.875013
vt 0.125013 0.875013
vt 0.125012 0.999987
vt 0.249987 0.999987
vt 0.500013 0.750013
vt 0.500013 0.874987
vt 0.624987 0.874987
vt 0.624987 0.750013
vt 0.250013 0.875013
vt 0.250013 0.999987
vt 0.374988 0.999987
vt 0.374988 0.875013
vt 0.249987 0.000013
vt 0.125012 0.000013
vt 0.125013 0.124987
vt 0.249987 0.124987
vt 0.374987 0.875013
vt 0.374987 0.999987
vt 0.499987 0.125013
vt 0.375012 0.125013
vt 0.375013 0.249987
vt 0.499988 0.249987
vt 0.250012 0.125013
vt 0.250013 0.249987
vt 0.124987 0.875013
vt 0.124987 0.999987
vt 0.000013 0.999987
vt 0.000013 0.875013
vt 1.000000 1.000000
vt 0.500013 0.999987
vt 0.624987 0.999987
vt 0.250013 0.875013
vt 0.250013 0.999987
vt 0.374987 0.999987
vt 0.374987 0.875013
vt 0.125013 0.249987
vt 0.249987 0.249987
vt 0.249987 0.125013
vt 0.125013 0.125013
vt 0.625013 0.125012
vt 0.648445 0.249987
vt 0.749987 0.249987
vt 0.749987 0.125012
vt 0.125012 0.874987
vt 0.249987 0.874987
vt 0.249987 0.750013
vt 0.125013 0.750013
vt 0.125013 0.875013
vt 0.125013 0.999987
vt 0.875000 0.625000
vt 1.000000 0.625000
vt 0.000013 0.874987
vt 0.000013 0.750012
vt 0.124987 0.750013
vt 0.124987 0.874988
vt 0.125013 0.875013
vt 0.125013 0.999987
vt 0.000012 0.124987
vt 0.000012 0.000013
vt 0.124987 0.000013
vt 0.124987 0.124987
vt 0.124987 0.000013
vt 0.000013 0.000013
vt 0.000012 0.749987
vt 0.124987 0.749987
vt 0.124987 0.625013
vt 0.000012 0.625013
vt 0.250027 0.249982
vt 0.234404 0.234360
vt 0.140667 0.234360
vt 0.125044 0.249982
vt 0.125044 0.125018
vt 0.140667 0.140640
vt 0.234404 0.140640
vt 0.250027 0.125018
vt 0.874987 0.124987
vt 0.874987 0.000013
vt 0.750013 0.000013
vt 0.750013 0.124987
vt 0.499987 0.125013
vt 0.375012 0.125013
vt 0.375013 0.249987
vt 0.499988 0.249987
vt 0.249987 0.125013
vt 0.125013 0.125013
vt 0.125013 0.249987
vt 0.249987 0.249987
vt 0.656250 0.296875
vt 0.656250 0.625000
vt 0.984375 0.625000
vt 0.984375 0.296875
vt 0.140625 0.703125
vt 0.140625 0.734375
vt 0.468750 0.734375
vt 0.468750 0.703125
vt 0.140625 0.703125
vt 0.140625 0.734375
vt 0.468750 0.734375
vt 0.468750 0.703125
vt 0.140625 0.703125
vt 0.140625 0.734375
vt 0.468750 0.734375
vt 0.468750 0.703125
vt 0.218750 0.515625
vt 0.328125 0.515625
vt 0.328125 0.625000
vt 0.218750 0.625000
vt 0.546875 0.406250
vt 0.546875 0.296875
vt 0.656250 0.296875
vt 0.656250 0.406250
vt 0.250000 0.734375
vt 0.140625 0.734375
vt 0.140625 0.640625
vt 0.250000 0.640625
vt 0.250000 0.734375
vt 0.140625 0.734375
vt 0.140625 0.640625
vt 0.250000 0.640625
vt 0.359375 0.640625
vt 0.468750 0.640625
vt 0.468750 0.734375
vt 0.359375 0.734375
vt 0.359375 0.640625
vt 0.468750 0.640625
vt 0.468750 0.734375
vt 0.359375 0.734375
vt 1.000000 0.250000
vt 1.000000 0.125000
vt 0.898438 0.125000
vt 0.898438 0.250000
vt 0.625013 0.125012
vt 0.625013 0.249987
vt 0.749987 0.249987
vt 0.749987 0.125012
vt 0.648445 0.249987
vt 0.625013 0.125012
vt 0.751083 0.123942
vt 0.750000 0.250000
vt 0.875000 0.250000
vt 0.873917 0.123942
vt 0.031250 0.140625
vt 0.031250 0.164062
vt 0.125000 0.164062
vt 0.125000 0.140625
vt 0.234404 0.234377
vt 0.250027 0.250000
vt 0.125044 0.250000
vt 0.140667 0.234377
vt 0.125000 0.140625
vt 0.125000 0.164062
vt 0.140667 0.140623
vt 0.125044 0.125000
vt 0.234404 0.140623
vt 0.250026 0.125000
vt 0.125000 0.257812
vt 0.109375 0.242188
vt 0.046875 0.242188
vt 0.031250 0.257812
vt 0.125000 0.164062
vt 0.109375 0.179688
vt 0.109375 0.242188
vt 0.125000 0.257812
vt 0.125000 0.140625
vt 0.125000 0.164062
vt 0.031250 0.164062
vt 0.031250 0.140625
vt 0.125000 0.140625
vt 0.125000 0.164062
vt 0.031250 0.164062
vt 0.031250 0.140625
vt 0.031250 0.140625
vt 0.031250 0.164062
vt 0.125000 0.164062
vt 0.125000 0.140625
vt 0.125000 0.164062
vt 0.125000 0.140625
vt 0.031250 0.164062
vt 0.031250 0.140625
vt 0.031250 0.164062
vt 0.031250 0.140625
vt 0.562500 0.000000
vt 0.562500 0.250000
vt 0.625000 0.250000
vt 0.625000 0.000000
vt 0.046875 0.179688
vt 0.109375 0.179688
vt 0.125000 0.164062
vt 0.562500 0.000000
vt 0.562500 0.250000
vt 0.625000 0.250000
vt 0.625000 0.000000
vt 0.046875 0.242188
vt 0.031250 0.257812
vt 0.046875 0.179688
vt 0.109375 0.179688
vt 0.125000 0.164062
vt 0.031250 0.164062
vt 0.046875 0.179688
vt 0.046875 0.242188
vt 0.031250 0.257812
vt 0.125000 0.257812
vt 0.109375 0.242188
vt 0.562500 0.000000
vt 0.562500 0.250000
vt 0.625000 0.250000
vt 0.625000 0.000000
vt 0.562500 0.000000
vt 0.562500 0.250000
vt 0.625000 0.250000
vt 0.625000 0.000000
vt 0.562500 0.000000
vt 0.562500 0.250000
vt 0.625000 0.250000
vt 0.625000 0.000000
vt 0.562500 0.000000
vt 0.562500 0.250000
vt 0.625000 0.250000
vt 0.625000 0.000000
vt 0.562500 0.000000
vt 0.562500 0.250000
vt 0.625000 0.250000
vt 0.625000 0.000000
vt 0.562500 0.000000
vt 0.562500 0.250000
vt 0.625000 0.250000
vt 0.625000 0.000000
vt 0.031250 0.148438
vt 0.031250 0.164062
vt 0.125000 0.164062
vt 0.125000 0.148438
vt 0.125000 0.164062
vt 0.125000 0.148438
vt 0.031250 0.148438
vt 0.031250 0.164062
vt 0.109375 0.242188
vt 0.125000 0.257812
vt 0.125000 0.164062
vt 0.109375 0.179688
vt 0.031250 0.164062
vt 0.046875 0.179688
vt 0.031250 0.257812
vt 0.046875 0.242188
vt 0.031250 0.164062
vt 0.046875 0.179688
vt 0.109375 0.179688
vt 0.125000 0.164062
vt 0.031250 0.257812
vt 0.046875 0.242188
vt 0.031250 0.148438
vt 0.031250 0.164062
vt 0.125000 0.164062
vt 0.125000 0.148438
vt 0.031250 0.148438
vt 0.031250 0.164062
vt 0.125000 0.164062
vt 0.125000 0.148438
vt 0.125000 0.148438
vt 0.031250 0.148438
vt 0.031250 0.148438
vt 0.031250 0.164062
vt 0.125000 0.164062
vt 0.125000 0.148438
vt 0.125000 0.164062
vt 0.125000 0.148438
vt 0.031250 0.148438
vt 0.031250 0.164062
vt 0.125000 0.148438
vt 0.031250 0.148438
vt 0.625000 0.246309
vt 0.625000 0.215059
vt 0.562500 0.215059
vt 0.562500 0.246309
vt 0.500189 0.061865
vt 0.561331 0.023651
vt 0.538403 0.000723
vt 0.500189 0.000723
vt 0.031250 0.164062
vt 0.046875 0.179688
vt 0.109375 0.179688
vt 0.125000 0.164062
vt 0.109375 0.242188
vt 0.125000 0.257812
vt 0.109375 0.242188
vt 0.125000 0.257812
vt 0.031250 0.257812
vt 0.046875 0.242188
vt 0.140625 0.640625
vt 0.250000 0.640625
vt 0.250000 0.734375
vt 0.140625 0.734375
vt 0.468750 0.734375
vt 0.359375 0.734375
vt 0.359375 0.640625
vt 0.468750 0.640625
vt 0.546875 0.625000
vt 0.546875 0.515625
vt 0.656250 0.515625
vt 0.656250 0.625000
vt 0.218750 0.296875
vt 0.328125 0.296875
vt 0.328125 0.406250
vt 0.218750 0.406250
vt 0.000000 0.406250
vt 0.109375 0.406250
vt 0.109375 0.515625
vt 0.000000 0.515625
vt 0.000000 0.296875
vt 0.109375 0.296875
vt 0.328125 0.515625
vt 0.328125 0.406250
vt 0.437500 0.406250
vt 0.437500 0.515625
vt 0.328125 0.625000
vt 0.437500 0.625000
vt 0.250000 0.734375
vt 0.140625 0.734375
vt 0.148438 0.718750
vt 0.210938 0.718750
vt 0.250000 0.640625
vt 0.273438 0.656250
vt 0.273438 0.718750
vt 0.468750 0.734375
vt 0.359375 0.734375
vt 0.359375 0.640625
vt 0.468750 0.640625
vt 0.328125 0.296875
vt 0.437500 0.296875
vt 0.109375 0.625000
vt 0.000000 0.625000
vt 0.562500 0.191621
vt 0.625000 0.191621
vt 0.562500 0.191621
vt 0.562500 0.215059
vt 0.625000 0.215059
vt 0.625000 0.191621
vt 0.625000 0.246309
vt 0.562500 0.246309
vt 0.500189 0.061865
vt 0.561331 0.023651
vt 0.538403 0.000723
vt 0.500189 0.000723
vt 0.500189 0.000723
vt 0.538403 0.000723
vt 0.561331 0.023651
vt 0.500189 0.061865
vt 0.561331 0.069507
vt 0.500189 0.069507
vt 0.500189 0.000723
vt 0.538403 0.000723
vt 0.561331 0.023651
vt 0.500189 0.061865
vt 0.625000 0.152559
vt 0.562500 0.152559
vt 0.210938 0.656250
vt 0.500189 0.069507
vt 0.500189 0.115364
vt 0.561331 0.115364
vt 0.561331 0.069507
vt 0.561331 0.069507
vt 0.500189 0.069507
vt 0.625000 0.750000
vt 0.625000 0.750000
vt 0.625000 0.750000
vt 0.625000 0.750000
vt 0.625000 0.152559
vt 0.562500 0.152559
vt 0.500189 0.069507
vt 0.561331 0.069507
vt 0.625000 0.750000
vt 0.625000 0.750000
vt 0.875000 0.750000
vt 0.875000 0.750000
vt 0.140625 0.640625
vt 0.148438 0.656250
vt 0.335938 0.718750
vt 0.335938 0.656250
vt 0.562500 0.174649
vt 0.625000 0.174649
vt 0.625000 0.135587
vt 0.562500 0.135587
vt 0.561331 0.115364
vt 0.500189 0.115364
vt 0.625000 0.181416
vt 0.625000 0.134541
vt 0.562500 0.134541
vt 0.562500 0.181416
vt 0.562500 0.174649
vt 0.625000 0.174649
vt 0.625000 0.135587
vt 0.562500 0.135587
vt 0.561331 0.115364
vt 0.500189 0.115364
vt 0.625000 0.181416
vt 0.625000 0.134541
vt 0.562500 0.134541
vt 0.562500 0.181416
vt 0.500189 0.115364
vt 0.561331 0.115364
vn -0.0006 -0.0000 -1.0000
vn -1.0000 0.0000 0.0006
vn 0.0000 1.0000 -0.0000
vn 0.0000 -1.0000 0.0000
vn 0.0006 0.0000 1.0000
vn 1.0000 0.0000 -0.0006
vn 0.0005 0.1843 0.9829
vn 0.7071 0.7071 -0.0004
vn 1.0000 0.0000 -0.0005
usemtl None
s off
f 9/25/7 12/26/7 11/27/7 10/28/7
f 12/29/8 14/30/8 13/31/8 11/32/8
f 13/33/9 17/34/9 16/35/9 15/36/9
f 10/28/7 19/37/7 18/38/7 9/25/7
f 12/39/10 9/40/10 20/41/10 14/42/10
f 13/33/9 15/36/9 10/43/9 11/32/9
f 21/44/9 23/45/9 22/46/9 19/47/9
f 9/40/10 18/48/10 24/49/10 20/41/10
f 15/36/9 21/44/9 19/47/9 10/43/9
f 15/50/7 26/51/7 25/52/7 21/53/7
f 16/35/9 29/54/9 28/55/9 27/56/9
f 30/57/10 33/58/10 32/59/10 31/60/10
f 14/61/8 31/62/8 17/63/8 13/64/8
f 24/65/10 36/66/10 35/67/10 34/68/10
f 24/69/10 34/70/10 30/71/10 20/72/10
f 20/73/10 30/57/10 31/60/10 14/74/10
f 32/75/11 33/76/11 29/77/11 37/78/11
f 33/76/11 38/79/11 28/80/11 29/77/11
f 19/81/7 22/82/7 39/83/7 18/84/7
f 17/34/9 37/85/9 29/54/9 16/35/9
f 31/62/8 32/86/8 37/87/8 17/63/8
f 34/88/10 38/89/10 33/90/10 30/91/10
f 36/92/10 41/93/10 40/94/10 35/95/10
f 42/96/8 45/97/8 44/98/8 43/99/8
f 22/100/7 47/101/7 46/102/7 39/103/7
f 34/88/10 35/104/10 48/105/10 38/89/10
f 27/56/9 43/106/9 23/45/9 21/44/9
f 28/55/9 42/107/9 43/106/9 27/56/9
f 38/108/11 48/109/11 42/110/11 28/111/11
f 18/112/10 39/113/10 36/66/10 24/65/10
f 41/114/12 46/115/12 47/116/12 49/117/12
f 49/117/12 50/118/12 40/119/12 41/114/12
f 50/120/12 52/121/12 51/122/12 40/123/12
f 49/124/9 54/125/9 53/126/9 23/127/9
f 50/128/9 56/129/9 55/130/9 43/131/9
f 35/132/10 40/133/10 51/134/10 48/135/10
f 48/136/11 51/137/11 52/138/11 42/139/11
f 39/140/10 46/141/10 41/142/10 36/143/10
f 26/144/9 58/145/9 57/146/9 25/147/9
f 27/148/11 57/149/11 58/150/11 16/151/11
f 21/152/12 25/153/12 57/154/12 27/155/12
f 16/156/8 58/157/8 26/158/8 15/159/8
f 59/160/9 62/161/9 61/162/9 60/163/9
f 63/164/10 66/165/10 65/166/10 64/167/10
f 67/168/8 70/169/8 69/170/8 68/171/8
f 71/172/7 74/173/7 73/174/7 72/175/7
f 75/176/11 78/177/11 77/178/11 76/179/11
f 60/180/12 61/181/12 65/182/12 66/183/12
f 45/184/9 80/185/9 79/186/9 44/187/9
f 43/188/7 44/189/7 79/190/7 50/191/7
f 50/191/12 79/190/12 80/192/12 52/193/12
f 52/194/13 80/195/13 45/196/13 42/197/13
f 81/198/12 83/199/12 82/200/12 56/201/12
f 43/131/9 55/130/9 84/202/9 23/203/9
f 49/204/9 81/205/9 56/129/9 50/128/9
f 23/203/9 84/202/9 81/205/9 49/204/9
f 84/206/7 85/207/7 83/199/7 81/198/7
f 23/127/9 53/126/9 86/208/9 22/209/9
f 22/209/9 86/208/9 87/210/9 47/211/9
f 47/211/9 87/210/9 54/125/9 49/124/9
f 82/212/9 90/213/9 89/214/9 88/215/9
f 91/216/9 94/217/9 93/218/9 92/219/9
f 87/220/12 95/221/12 91/222/12 54/223/12
f 86/224/7 96/225/7 95/226/7 87/227/7
f 56/228/11 82/229/11 88/230/11 55/231/11
f 54/223/11 91/222/11 92/232/11 53/233/11
f 55/231/8 88/230/8 85/234/8 84/235/8
f 53/233/8 92/232/8 96/236/8 86/237/8
f 94/238/11 98/239/11 97/240/11 93/241/11
f 88/215/9 89/214/9 99/242/9 85/234/9
f 85/234/9 99/242/9 100/243/9 83/244/9
f 83/244/9 100/243/9 90/213/9 82/212/9
f 90/245/11 102/246/11 101/247/11 89/248/11
f 92/219/9 93/218/9 103/249/9 96/250/9
f 95/226/9 104/251/9 94/217/9 91/216/9
f 96/250/9 103/249/9 104/251/9 95/226/9
f 105/252/10 107/253/10 106/254/10 98/255/10
f 108/256/10 110/257/10 109/258/10 102/259/10
f 89/260/8 101/261/8 111/262/8 99/263/8
f 93/264/8 97/265/8 112/266/8 103/267/8
f 99/268/7 111/269/7 108/270/7 100/271/7
f 100/272/12 108/273/12 102/274/12 90/275/12
f 104/276/12 105/277/12 98/278/12 94/279/12
f 103/280/7 112/281/7 105/282/7 104/283/7
f 113/284/8 116/285/8 115/286/8 114/287/8
f 106/288/11 117/289/11 116/290/11 113/291/11
f 112/292/10 114/293/10 107/253/10 105/252/10
f 102/259/10 109/258/10 118/294/10 101/295/10
f 101/295/10 118/294/10 119/296/10 111/297/10
f 98/255/10 106/254/10 113/298/10 97/299/10
f 97/299/10 113/298/10 114/293/10 112/292/10
f 111/297/10 119/296/10 110/257/10 108/256/10
f 120/300/9 123/301/9 122/302/9 121/303/9
f 124/304/9 125/305/9 123/301/9 120/300/9
f 119/306/7 121/307/7 126/308/7 110/309/7
f 110/310/12 126/311/12 124/312/12 109/313/12
f 107/253/12 127/314/12 117/315/12 106/254/12
f 114/316/7 115/317/7 127/318/7 107/319/7
f 109/320/11 124/321/11 120/322/11 118/323/11
f 118/294/8 120/324/8 121/325/8 119/296/8
f 128/326/12 130/327/12 129/328/12 125/329/12
f 122/330/7 131/331/7 130/332/7 128/333/7
f 117/334/9 133/335/9 132/336/9 116/337/9
f 116/337/9 132/336/9 134/338/9 115/339/9
f 121/303/9 122/302/9 128/340/9 126/341/9
f 126/341/9 128/340/9 125/305/9 124/304/9
f 127/342/9 135/343/9 133/335/9 117/334/9
f 115/339/9 134/338/9 135/343/9 127/342/9
f 61/344/11 62/345/11 64/346/11 65/347/11
f 62/345/11 75/176/11 76/179/11 64/346/11
f 70/348/7 137/349/7 136/350/7 69/351/7
f 137/349/7 71/172/7 72/175/7 136/350/7
f 138/352/10 139/353/10 76/354/10 77/355/10
f 139/353/10 63/164/10 64/167/10 76/354/10
f 140/356/9 78/357/9 75/358/9 141/359/9
f 141/359/9 75/358/9 62/161/9 59/160/9
f 137/360/9 143/361/9 142/362/9 71/363/9
f 143/361/9 141/359/9 59/160/9 142/362/9
f 70/364/9 67/365/9 143/361/9 137/360/9
f 67/365/9 140/356/9 141/359/9 143/361/9
f 136/366/10 72/367/10 145/368/10 144/369/10
f 144/369/10 145/368/10 63/164/10 139/353/10
f 69/370/10 136/366/10 144/369/10 68/371/10
f 68/371/10 144/369/10 139/353/10 138/352/10
f 146/372/12 73/373/12 148/374/12 147/375/12
f 146/372/12 151/376/12 150/377/12 149/378/12
f 78/379/8 140/380/8 138/381/8 77/382/8
f 140/380/8 67/168/8 68/171/8 138/381/8
f 72/367/10 73/383/10 146/384/10 145/368/10
f 145/368/10 146/384/10 66/165/10 63/164/10
f 71/363/9 142/362/9 151/385/9 74/386/9
f 142/362/9 59/160/9 60/163/9 151/385/9
f 152/387/14 129/328/14 130/327/14 131/388/14
f 153/389/14 156/390/14 155/391/14 154/392/14
f 135/393/12 155/391/12 156/390/12 133/394/12
f 134/395/7 154/396/7 155/397/7 135/398/7
f 125/399/11 129/400/11 152/401/11 123/402/11
f 152/401/11 158/403/11 157/404/11 123/402/11
f 133/405/11 156/406/11 153/407/11 132/408/11
f 154/392/9 160/409/9 159/410/9 153/389/9
f 151/376/12 146/372/12 147/375/12 161/411/12
f 162/412/7 148/413/7 163/414/7 160/415/7
f 153/407/11 159/416/11 164/417/11 132/408/11
f 134/395/7 162/412/7 160/415/7 154/396/7
f 123/418/10 157/419/10 165/420/10 122/421/10
f 131/388/9 166/422/9 158/423/9 152/387/9
f 122/330/7 165/424/7 166/425/7 131/331/7
f 132/426/10 164/427/10 162/428/10 134/429/10
f 74/430/12 151/376/12 161/411/12 163/431/12
f 73/373/15 74/430/15 163/431/15 148/374/15
f 66/183/12 146/372/12 149/378/12 167/432/12
f 60/180/12 66/183/12 167/432/12 168/433/12
f 151/376/12 60/180/12 168/433/12 150/377/12
f 159/434/9 160/435/9 163/436/9 161/437/9
f 164/417/11 159/416/11 161/438/11 147/439/11
f 164/440/10 147/441/10 148/442/10 162/443/10
f 158/444/9 166/445/9 150/446/9 168/447/9
f 157/404/11 158/403/11 168/448/11 167/449/11
f 157/450/10 167/451/10 149/452/10 165/453/10
f 165/424/7 149/454/7 150/455/7 166/425/7
