# Blender 4.2.0
# www.blender.org
mtllib industrial_sluice.mtl
o Cube_Cube.001
v 0.000000 0.000000 1.000000
v 0.000000 0.500000 1.000000
v 1.000000 0.000000 1.000000
v 1.000000 0.500000 1.000000
v -0.000000 0.000000 3.000000
v -0.000000 0.500000 3.000000
v 1.500000 0.000000 3.000000
v 1.500000 0.500000 3.000000
v 0.750000 0.000000 1.000000
v 0.500000 0.000000 1.000000
v 0.125000 0.000000 1.000000
v 0.125000 0.500000 1.000000
v 0.750000 0.500000 1.000000
v 0.125000 0.000000 3.000000
v 0.500000 0.000000 3.000000
v 0.750000 0.000000 3.000000
v 1.250000 0.500000 3.000000
v 0.125000 0.500000 3.000000
v 0.125000 0.250000 1.000000
v 0.500000 0.250000 1.000000
v 0.750000 0.250000 1.000000
v 1.250000 0.250000 3.000000
v 0.500000 0.250000 3.000000
v 0.125000 0.250000 3.000000
v -0.125000 0.000000 1.000000
v -0.125000 0.500000 1.000000
v -0.125000 0.000000 3.000000
v -0.125000 0.500000 3.000000
v -0.125000 0.250000 1.000000
v -0.125000 0.250000 3.000000
v -0.625000 0.000000 1.000000
v -1.125000 0.000000 3.000000
v -0.625000 0.250000 1.000000
v -1.125000 0.250000 3.000000
v -0.875000 0.000000 1.000000
v -1.375000 0.000000 3.000000
v -0.625000 0.500000 1.000000
v -1.125000 0.500000 3.000000
v -0.875000 0.500000 1.000000
v -1.375000 0.500000 3.000000
v 0.750000 0.500000 1.000000
v 1.000000 0.500000 1.000000
v 1.000000 0.000000 1.000000
v 0.750000 0.000000 1.000000
v 0.750000 0.250000 1.000000
v 0.500000 0.250000 -0.000000
v 0.125000 0.250000 -0.000000
v 0.125000 0.500000 -0.000000
v 0.500000 0.500000 -0.000000
v -0.125000 0.250000 -0.000000
v -0.125000 0.500000 -0.000000
v -0.375000 0.250000 -0.000000
v -0.375000 0.500000 -0.000000
v -0.625000 0.500000 1.000000
v 0.750000 0.500000 1.000000
v 0.500000 0.750000 -0.000000
v -0.375000 0.750000 -0.000000
v 1.000000 0.500000 1.000000
v 0.750000 0.750000 -0.000000
v -0.875000 0.500000 1.000000
v -0.625000 0.750000 -0.000000
v -0.625000 0.250000 -0.000000
v -0.625000 0.500000 -0.000000
v 0.750000 0.250000 -0.000000
v 0.750000 0.500000 -0.000000
v 0.121154 0.000000 -2.949039
v 0.121154 0.500000 -2.949039
v -0.878846 0.000000 -2.949039
v -0.878846 0.500000 -2.949039
v 0.121154 0.000000 -4.949039
v 0.121154 0.500000 -4.949039
v -1.378846 0.000000 -4.949039
v -1.378846 0.500000 -4.949039
v -0.628846 0.000000 -2.949039
v -0.378846 0.000000 -2.949039
v -0.003846 0.000000 -2.949039
v -0.003846 0.500000 -2.949039
v -0.628846 0.500000 -2.949039
v -0.003846 0.000000 -4.949039
v -0.378846 0.000000 -4.949039
v -0.628846 0.000000 -4.949039
v -1.128846 0.500000 -4.949039
v -0.003846 0.500000 -4.949039
v -0.003846 0.250000 -2.949039
v -0.378846 0.250000 -2.949039
v -0.628846 0.250000 -2.949039
v -1.128846 0.250000 -4.949039
v -0.378846 0.250000 -4.949039
v -0.003846 0.250000 -4.949039
v 0.246154 0.000000 -2.949039
v 0.246154 0.500000 -2.949039
v 0.246154 0.000000 -4.949039
v 0.246154 0.500000 -4.949039
v 0.246154 0.250000 -2.949039
v 0.246154 0.250000 -4.949039
v 0.746154 0.000000 -2.949039
v 1.246154 0.000000 -4.949039
v 0.746154 0.250000 -2.949039
v 1.246154 0.250000 -4.949039
v 0.996154 0.000000 -2.949039
v 1.496154 0.000000 -4.949039
v 0.746154 0.500000 -2.949039
v 1.246154 0.500000 -4.949039
v 0.996154 0.500000 -2.949039
v 1.496154 0.500000 -4.949039
v -0.628846 0.500000 -2.949039
v -0.878846 0.500000 -2.949039
v -0.878846 0.000000 -2.949039
v -0.628846 0.000000 -2.949039
v -0.628846 0.250000 -2.949039
v -0.378846 0.250000 -1.949039
v -0.003846 0.250000 -1.949039
v -0.003846 0.500000 -1.949039
v -0.378846 0.500000 -1.949039
v 0.246154 0.250000 -1.949039
v 0.246154 0.500000 -1.949039
v 0.496154 0.250000 -1.949039
v 0.496154 0.500000 -1.949039
v 0.746154 0.500000 -2.949039
v -0.628846 0.500000 -2.949039
v -0.378846 0.750000 -1.949039
v 0.496154 0.750000 -1.949039
v -0.878846 0.500000 -2.949039
v -0.628846 0.750000 -1.949039
v 0.996154 0.500000 -2.949039
v 0.746154 0.750000 -1.949039
v 0.746154 0.250000 -1.949039
v 0.746154 0.500000 -1.949039
v -0.628846 0.250000 -1.949039
v -0.628846 0.500000 -1.949039
v -1.000000 0.000000 -2.000000
v -1.000000 2.000000 -2.000000
v 5.000000 -0.000000 -2.000000
v 5.000000 2.000000 -2.000000
v -1.000000 0.000000 -0.000000
v -1.000000 2.000000 -0.000000
v 5.000000 -0.000000 0.000000
v 5.000000 2.000000 0.000000
v -0.750000 0.250000 -2.000000
v -0.750000 1.750000 -2.000000
v 4.750000 1.750000 -2.000000
v 4.750000 0.250000 -2.000000
v 5.000000 0.250000 -1.750000
v 5.000000 1.750000 -1.750000
v 5.000000 1.750000 -0.250000
v 5.000000 0.250000 -0.250000
v 4.750000 0.250000 0.000000
v 4.750000 1.750000 0.000000
v -0.750000 1.750000 -0.000000
v -0.750000 0.250000 -0.000000
v -1.000000 0.250000 -0.250000
v -1.000000 1.750000 -0.250000
v -1.000000 1.750000 -1.750000
v -1.000000 0.250000 -1.750000
v 4.750000 -0.000000 -1.750000
v 4.750000 -0.000000 -0.250000
v -0.750000 0.000000 -0.250000
v -0.750000 0.000000 -1.750000
v 4.750000 2.000000 -0.250000
v 4.750000 2.000000 -1.750000
v -0.750000 2.000000 -1.750000
v -0.750000 2.000000 -0.250000
v -0.750000 1.750000 -0.250000
v -0.750000 0.250000 -0.250000
v -0.750000 0.250000 -1.750000
v -0.750000 1.750000 -1.750000
v 4.750000 1.750000 -0.250000
v 4.750000 0.250000 -0.250000
v -0.750000 0.250000 -0.250000
v -0.750000 1.750000 -0.250000
v -0.750000 0.250000 -1.750000
v -0.750000 1.750000 -1.750000
v 4.750000 1.750000 -1.750000
v 4.750000 0.250000 -1.750000
v 4.750000 0.250000 -1.750000
v 4.750000 1.750000 -1.750000
v 4.750000 1.750000 -0.250000
v 4.750000 0.250000 -0.250000
v 4.750000 0.250000 -1.750000
v 4.750000 0.250000 -0.250000
v -0.750000 0.250000 -0.250000
v -0.750000 0.250000 -1.750000
v 4.750000 1.750000 -0.250000
v 4.750000 1.750000 -1.750000
v -0.750000 1.750000 -1.750000
v -0.750000 1.750000 -0.250000
v 3.000000 2.000000 -2.000000
v 3.000000 4.000000 -2.500000
v 5.000000 2.000000 -2.000000
v 5.000000 4.000000 -2.500000
v 3.000000 2.000000 0.000000
v 3.000000 4.000000 0.500000
v 5.000000 2.000000 0.000000
v 5.000000 4.000000 0.500000
v 3.000000 2.500000 -2.125000
v 3.000000 3.000000 -2.250000
v 3.000000 3.500000 -2.375000
v 3.000000 3.500000 0.375000
v 3.000000 3.000000 0.250000
v 3.000000 2.500000 0.125000
v 3.000000 2.000000 -1.500000
v 3.000000 2.000000 -1.000000
v 3.000000 2.000000 -0.500000
v 3.000000 4.000000 -0.250000
v 3.000000 4.000000 -1.000000
v 3.000000 4.000000 -1.750000
v 3.000000 2.500000 -0.437500
v 3.000000 2.500000 -1.000000
v 3.000000 2.500000 -1.562500
v 3.000000 3.000000 -0.375000
v 3.000000 3.000000 -1.625000
v 3.000000 3.500000 -0.312500
v 3.000000 3.500000 -1.000000
v 3.000000 3.500000 -1.687500
v -1.000000 2.500000 -0.437500
v -1.000000 2.500000 -1.000000
v -1.000000 2.500000 -1.562500
v -1.000000 3.000000 -0.375000
v -1.000000 3.000000 -1.000000
v -1.000000 3.000000 -1.625000
v -1.000000 3.500000 -0.312500
v -1.000000 3.500000 -1.000000
v -1.000000 3.500000 -1.687500
vn 0.9701 -0.0000 -0.2425
vn -0.0000 -1.0000 -0.0000
vn -0.0000 1.0000 -0.0000
vn -0.0000 -0.0000 1.0000
vn 1.0000 -0.0000 -0.0000
vn -0.9701 -0.0000 0.2425
vn -1.0000 -0.0000 -0.0000
vn 0.9701 -0.0000 0.2425
vn -0.9701 -0.0000 -0.2425
vn -0.0000 -0.9701 -0.2425
vn -0.0000 0.9701 0.2425
vn -0.0000 -0.0000 -1.0000
vn -0.0000 -0.9701 0.2425
vn -0.0000 0.9701 -0.2425
vn -0.0000 -0.2425 -0.9701
vn -0.0000 -0.2425 0.9701
vn -0.0000 -0.1240 0.9923
vn -0.0000 -0.1240 -0.9923
vt 0.834817 -0.000000
vt 0.871515 -0.000000
vt 0.871515 0.146790
vt 0.834817 0.146790
vt 0.100918 0.587159
vt 0.100918 0.440369
vt 0.110092 0.440369
vt 0.110092 0.587159
vt 0.990786 0.036697
vt 0.990786 0.183487
vt 0.981612 0.183487
vt 0.981612 0.036697
vt 0.106805 0.963682
vt 0.106805 0.812375
vt 0.124606 0.807925
vt 0.124606 0.959232
vt 0.761432 0.110092
vt 0.761432 0.100918
vt 0.779779 0.110092
vt 0.036697 0.587159
vt -0.000000 0.440369
vt 0.055046 0.440369
vt 0.055046 0.587159
vt 0.073395 0.440369
vt 0.073395 0.587159
vt 0.761432 0.211010
vt 0.779779 0.192661
vt 0.798125 0.155964
vt 0.798125 0.211010
vt 0.798125 0.100918
vt 0.798125 0.110092
vt 0.798125 0.137615
vt 0.779779 0.137615
vt 0.422020 0.660554
vt 0.458718 0.513764
vt 0.477067 0.513764
vt 0.477067 0.660554
vt 0.504590 0.513764
vt 0.504590 0.660554
vt 0.160756 0.807925
vt 0.160756 0.954714
vt 0.142407 0.954714
vt 0.142407 0.807925
vt 0.179104 0.807925
vt 0.179104 0.954714
vt 0.761432 0.192661
vt 0.972438 0.183487
vt 0.972438 0.036697
vt 0.119267 0.440369
vt 0.119267 0.587159
vt 0.197453 0.807925
vt 0.197453 0.954714
vt 0.179104 0.954714
vt 0.179104 0.807925
vt 0.522938 0.660554
vt 0.522938 0.513764
vt 0.559636 0.513764
vt 0.596333 0.660554
vt 0.192661 0.440369
vt 0.155964 0.587159
vt 0.211010 0.440369
vt 0.174313 0.587159
vt 0.197453 0.954714
vt 0.197453 0.807925
vt 0.215802 0.807925
vt 0.215802 0.954714
vt 0.550742 0.954133
vt 0.550742 0.807343
vt 0.587440 0.807343
vt 0.587440 0.954133
vt 0.089004 0.812375
vt 0.089004 0.963682
vt 0.071204 0.959232
vt 0.071204 0.807925
vt 0.779779 0.018349
vt 0.798125 0.018349
vt 0.798125 0.091744
vt 0.779779 0.091744
vt 0.761432 0.091744
vt 0.761432 0.000000
vt 0.798125 0.000000
vt 0.761432 0.018349
vt 0.100918 0.660554
vt 0.073395 0.660554
vt 0.477067 0.440369
vt 0.504590 0.440369
vt 0.587440 0.825692
vt 0.605786 0.825692
vt 0.605786 0.844041
vt 0.587440 0.844041
vt 0.522938 0.440369
vt 0.119267 0.660554
vt 0.541287 0.440369
vt 0.678626 0.891897
vt 0.678626 0.967551
vt 0.660825 0.972001
vt 0.660825 0.896348
vt 0.678626 0.967551
vt 0.678626 0.891897
vt 0.696427 0.896348
vt 0.696427 0.972001
vt 0.714227 0.891897
vt 0.714227 0.967551
vt 0.696426 0.972001
vt 0.696426 0.896348
vt 0.071204 0.896929
vt 0.071204 0.972583
vt 0.053403 0.968132
vt 0.053403 0.892479
vt 0.605786 0.807343
vt 0.587440 0.889913
vt 0.605786 0.889913
vt 0.605786 0.908261
vt 0.587440 0.908261
vt 0.660825 0.891897
vt 0.660825 0.816244
vt 0.696426 0.807343
vt 0.696426 0.882997
vt 0.055046 0.660554
vt 0.624132 0.889913
vt 0.624132 0.908261
vt 0.587440 0.862390
vt 0.605786 0.862390
vt 0.732028 0.891897
vt 0.696426 0.882997
vt 0.696426 0.807343
vt 0.732028 0.816244
vt 0.624132 0.807343
vt 0.624132 0.825692
vt 0.155964 0.660554
vt 0.137615 0.660554
vt 0.853164 0.165138
vt 0.834817 0.165138
vt 0.834817 0.146790
vt 0.853164 0.146790
vt 0.853164 0.155964
vt 0.889913 0.733949
vt 0.926610 0.733949
vt 0.926610 0.880738
vt 0.889913 0.880738
vt 0.321102 0.513764
vt 0.321102 0.660554
vt 0.311928 0.660554
vt 0.311928 0.513764
vt 0.972438 0.330277
vt 0.972438 0.183487
vt 0.981612 0.183487
vt 0.981612 0.330277
vt 0.142407 0.807925
vt 0.142407 0.959232
vt 0.124606 0.963682
vt 0.124606 0.812375
vt 0.834817 0.100918
vt 0.834817 0.110092
vt 0.816471 0.100918
vt 0.385323 0.513764
vt 0.366974 0.660554
vt 0.366974 0.513764
vt 0.348626 0.660554
vt 0.348626 0.513764
vt 0.834817 0.000000
vt 0.816471 0.018349
vt 0.798125 0.055046
vt 0.798125 0.110092
vt 0.798125 0.100918
vt 0.798125 0.073395
vt 0.816471 0.073395
vt 0.761432 -0.000000
vt 0.724735 0.146790
vt 0.706386 0.146790
vt 0.706386 -0.000000
vt 0.678863 0.146790
vt 0.678863 0.000000
vt 0.234151 0.807925
vt 0.234151 0.954714
vt 0.215802 0.954714
vt 0.215802 0.807925
vt 0.252499 0.807925
vt 0.252499 0.954714
vt 0.234151 0.954714
vt 0.234151 0.807925
vt 0.834817 0.018349
vt 0.990786 0.183487
vt 0.990786 0.330277
vt 0.302754 0.660554
vt 0.302754 0.513764
vt 0.270848 0.807925
vt 0.270848 0.954714
vt 0.252499 0.954714
vt 0.252499 0.807925
vt 0.660514 0.000000
vt 0.660514 0.146790
vt 0.623817 0.146790
vt 0.587120 0.000000
vt 0.229359 0.660554
vt 0.266056 0.513764
vt 0.211010 0.660554
vt 0.247708 0.513764
vt 0.270848 0.954715
vt 0.270848 0.807925
vt 0.289197 0.807925
vt 0.289197 0.954715
vt 0.514045 0.954133
vt 0.514045 0.807343
vt 0.550742 0.954133
vt 0.089004 0.959232
vt 0.089004 0.807925
vt 0.106805 0.812375
vt 0.106805 0.963682
vt 0.816471 0.192661
vt 0.798125 0.192661
vt 0.798125 0.119267
vt 0.816471 0.119267
vt 0.834817 0.119267
vt 0.834817 0.211010
vt 0.834817 0.192661
vt 0.321102 0.440369
vt 0.348626 0.440369
vt 0.706386 0.220185
vt 0.678863 0.220185
vt 0.660825 0.889913
vt 0.642478 0.889913
vt 0.642478 0.871564
vt 0.660825 0.871564
vt 0.660514 0.220185
vt 0.302754 0.440369
vt 0.642166 0.220185
vt 0.732028 0.967551
vt 0.714227 0.972001
vt 0.714227 0.896348
vt 0.000000 0.968132
vt 0.000000 0.892479
vt 0.017801 0.896929
vt 0.017801 0.972583
vt 0.035602 0.972583
vt 0.035602 0.896929
vt 0.053403 0.892479
vt 0.053403 0.968133
vt 0.017801 0.968132
vt 0.017801 0.892479
vt 0.035602 0.896929
vt 0.035602 0.972583
vt 0.660825 0.908261
vt 0.642478 0.908261
vt 0.660825 0.825692
vt 0.642478 0.825692
vt 0.642478 0.807343
vt 0.660825 0.807343
vt -0.000000 0.892479
vt -0.000000 0.816825
vt 0.035602 0.807925
vt 0.035602 0.883578
vt 0.366974 0.440369
vt 0.624132 0.807343
vt 0.660825 0.853215
vt 0.642478 0.853215
vt 0.071203 0.892479
vt 0.035602 0.883578
vt 0.035602 0.807925
vt 0.071203 0.816825
vt 0.266056 0.440369
vt 0.284405 0.440369
vt 0.834817 0.165138
vt 0.853164 0.165138
vt 0.853164 0.183487
vt 0.834817 0.183487
vt 0.834817 0.174313
vt 0.880699 0.440369
vt 0.880699 0.036697
vt 0.899048 0.036697
vt 0.899048 0.440369
vt 0.981651 0.550447
vt 0.981651 0.440369
vt 1.000000 0.440369
vt 1.000000 0.550447
vt 0.293579 0.000000
vt 0.440349 0.000000
vt 0.422003 0.018349
vt 0.311926 0.018349
vt 0.440349 0.440369
vt 0.422003 0.422020
vt 0.293579 0.440369
vt 0.311926 0.422020
vt 0.587440 0.660554
vt 0.734229 0.660554
vt 0.715881 0.678902
vt 0.605788 0.678902
vt 0.734229 0.807343
vt 0.715881 0.788995
vt 0.605788 0.788995
vt 0.587120 0.440369
vt 0.440350 0.440369
vt 0.458696 0.422020
vt 0.568773 0.422020
vt 0.440350 0.000000
vt 0.458696 0.018349
vt 0.587120 0.000000
vt 0.568773 0.018349
vt 0.743123 0.733949
vt 0.889913 0.733949
vt 0.871564 0.752297
vt 0.761472 0.752297
vt 0.871564 0.862390
vt 0.743123 0.880738
vt 0.761472 0.862390
vt 0.146790 0.440369
vt 0.000000 0.440369
vt 0.018349 0.422020
vt 0.128441 0.422020
vt 0.000000 0.000000
vt 0.018349 0.018349
vt 0.146790 0.000000
vt 0.128441 0.018349
vt 0.293579 0.440369
vt 0.165138 0.422020
vt 0.275231 0.422020
vt 0.165138 0.018349
vt 0.275231 0.018349
vt 0.963307 0.954133
vt 0.963307 0.844041
vt 0.981656 0.844041
vt 0.981656 0.954133
vt 0.972438 0.440369
vt 0.972438 0.330277
vt 0.990786 0.330277
vt 0.990786 0.440369
vt 0.889913 0.990816
vt 0.889913 0.880738
vt 0.908261 0.880738
vt 0.908261 0.990816
vt 0.761472 0.880738
vt 0.761472 0.990831
vt 0.743123 0.990831
vt 0.779820 0.880738
vt 0.779820 0.990831
vt 0.917396 0.036697
vt 0.917396 0.440369
vt 0.798169 0.990831
vt 0.798169 0.880738
vt 0.935745 0.440369
vt 0.935745 0.036697
vt 0.816518 0.880738
vt 0.816518 0.990831
vt 0.926610 0.440369
vt 0.944959 0.440369
vt 0.944959 0.844041
vt 0.926610 0.844041
vt 0.926610 0.990816
vt 0.908261 0.990816
vt 0.926610 0.880738
vt 0.834867 0.990831
vt 0.816518 0.990831
vt 0.834867 0.880738
vt 1.000000 0.660524
vt 0.981651 0.660524
vt 0.981651 0.550447
vt 1.000000 0.550447
vt 0.853215 0.990831
vt 0.853215 0.880738
vt 0.944959 0.954133
vt 0.926610 0.954133
vt 0.954091 0.036697
vt 0.972438 0.036697
vt 0.972438 0.440369
vt 0.954091 0.440369
vt 0.963307 0.844041
vt 0.963307 0.954133
vt 0.981651 0.844041
vt 0.963305 0.844041
vt 0.963305 0.440369
vt 0.981651 0.440369
vt 0.871564 0.990831
vt 0.871564 0.880738
vt 0.935745 0.036697
vt 0.935745 0.440369
vt 0.889913 0.990831
vt 0.963305 0.844041
vt 0.944959 0.844041
vt 0.944959 0.440369
vt 0.963305 0.440369
vt 0.000000 0.807925
vt 0.000000 0.771082
vt 0.000000 0.734239
vt 0.000000 0.697396
vt 0.000000 0.660554
vt 0.146790 0.660554
vt 0.146790 0.807925
vt 0.587120 0.256882
vt 0.733909 0.220185
vt 0.733909 0.440369
vt 0.587120 0.403672
vt 0.293579 0.660554
vt 0.293579 0.807925
vt 0.146790 0.807925
vt 0.146790 0.771082
vt 0.146790 0.734239
vt 0.146790 0.697396
vt 0.146790 0.660554
vt 0.706425 0.600920
vt 0.743123 0.605508
vt 0.743123 0.660554
vt 0.706425 0.651379
vt 0.587440 0.660554
vt 0.587440 0.807343
vt 0.440650 0.807343
vt 0.440650 0.770646
vt 0.440650 0.733949
vt 0.440650 0.697251
vt 0.440650 0.660554
vt 0.880699 0.220185
vt 0.880699 0.440369
vt 0.733909 0.440369
vt 0.733909 0.385323
vt 0.733909 0.330277
vt 0.733909 0.275231
vt 0.733909 0.220185
vt 0.596333 0.587159
vt 0.633031 0.591746
vt 0.633031 0.633031
vt 0.596333 0.623856
vt 0.669728 0.596333
vt 0.669728 0.642205
vt 0.596333 0.477067
vt 0.633031 0.467892
vt 0.633031 0.509177
vt 0.596333 0.513764
vt 0.633031 0.550461
vt 0.596333 0.550461
vt 0.669728 0.458718
vt 0.669728 0.504590
vt 0.330347 0.954133
vt 0.293579 0.954133
vt 0.293579 0.660554
vt 0.330347 0.660554
vt 0.440650 0.954133
vt 0.403882 0.954133
vt 0.403882 0.660554
vt 0.440650 0.660554
vt 0.706425 0.449543
vt 0.706425 0.500002
vt 0.793582 0.733949
vt 0.743123 0.440369
vt 0.793582 0.440369
vt 0.885325 0.733949
vt 0.844041 0.733949
vt 0.844041 0.440369
vt 0.885325 0.440369
vt 0.743123 0.495415
vt 0.743123 0.550461
vt 0.706425 0.550461
vt 0.440650 0.816518
vt 0.477347 0.811931
vt 0.477347 0.857802
vt 0.440650 0.857802
vt 0.477347 0.903674
vt 0.440650 0.899087
vt 0.514045 0.807343
vt 0.514045 0.857802
vt 0.514045 0.908261
vt 0.926610 0.733949
vt 0.367115 0.954133
vt 0.367115 0.660554
s 0
usemtl None
f 3/1/1 4/2/1 8/3/1 7/4/1
f 11/5/2 14/6/2 5/7/2 1/8/2
f 18/9/3 12/10/3 2/11/3 6/12/3
f 8/13/3 4/14/3 13/15/3 17/16/3
f 18/17/4 6/18/4 24/19/4
f 3/20/2 7/21/2 16/22/2 9/23/2
f 9/23/2 16/22/2 15/24/2 10/25/2
f 10/25/2 15/24/2 14/6/2 11/5/2
f 8/26/4 22/27/4 16/28/4 7/29/4
f 6/18/4 5/30/4 14/31/4 24/19/4
f 15/32/4 16/28/4 22/27/4 23/33/4
f 22/34/3 21/35/3 20/36/3 23/37/3
f 23/37/3 20/36/3 19/38/3 24/39/3
f 14/31/4 15/32/4 23/33/4 24/19/4
f 12/40/5 18/41/5 24/42/5 19/43/5
f 17/44/6 13/45/6 21/41/6 22/40/6
f 17/46/4 22/27/4 8/26/4
f 6/12/3 2/11/3 26/47/3 28/48/3
f 1/8/2 5/7/2 27/49/2 25/50/2
f 28/51/7 26/52/7 29/53/7 30/54/7
f 30/55/3 29/56/3 33/57/3 34/58/3
f 25/50/2 27/49/2 32/59/2 31/60/2
f 31/60/2 32/59/2 36/61/2 35/62/2
f 34/63/8 33/64/8 37/65/8 38/66/8
f 35/67/9 36/68/9 40/69/9 39/70/9
f 38/71/3 37/72/3 39/73/3 40/74/3
f 34/75/4 32/76/4 27/77/4 30/78/4
f 5/30/4 6/18/4 30/78/4 27/77/4
f 28/79/4 30/78/4 6/18/4
f 32/76/4 34/75/4 40/80/4 36/81/4
f 34/75/4 38/82/4 40/80/4
f 10/25/10 11/5/10 47/83/10 46/84/10
f 19/38/11 20/36/11 49/85/11 48/86/11
f 52/87/12 53/88/12 51/89/12 50/90/12
f 29/56/11 19/38/11 48/86/11 51/91/11
f 50/92/10 47/83/10 11/5/10 25/50/10
f 33/57/11 29/56/11 51/91/11 53/93/11
f 49/85/11 20/36/11 45/35/11
f 46/84/10 44/23/10 10/25/10
f 33/94/8 53/95/8 57/96/8 54/97/8
f 49/98/6 45/99/6 55/100/6 56/101/6
f 56/102/11 55/103/11 58/104/11 59/105/11
f 54/106/11 57/107/11 61/108/11 60/109/11
f 53/88/12 52/87/12 62/69/12 63/110/12
f 46/111/12 49/112/12 65/113/12 64/114/12
f 59/115/1 58/116/1 43/117/1 64/118/1
f 46/84/10 64/119/10 43/20/10 44/23/10
f 49/112/12 56/120/12 59/121/12 65/113/12
f 46/111/12 47/122/12 48/123/12 49/112/12
f 51/89/12 48/123/12 47/122/12 50/90/12
f 61/124/9 62/125/9 35/126/9 60/127/9
f 53/88/12 63/110/12 61/128/12 57/129/12
f 35/62/10 62/130/10 52/131/10 31/60/10
f 31/60/10 52/131/10 50/92/10 25/50/10
f 12/132/12 19/133/12 29/134/12 26/135/12 2/136/12
f 68/137/6 69/138/6 73/139/6 72/140/6
f 76/141/2 79/142/2 70/143/2 66/144/2
f 83/145/3 77/146/3 67/147/3 71/148/3
f 73/149/3 69/150/3 78/151/3 82/152/3
f 83/153/12 71/154/12 89/155/12
f 68/156/2 72/34/2 81/157/2 74/158/2
f 74/158/2 81/157/2 80/159/2 75/160/2
f 75/160/2 80/159/2 79/142/2 76/141/2
f 73/161/12 87/162/12 81/163/12 72/81/12
f 71/154/12 70/164/12 79/165/12 89/155/12
f 80/166/12 81/163/12 87/162/12 88/167/12
f 87/168/3 86/169/3 85/170/3 88/171/3
f 88/171/3 85/170/3 84/172/3 89/173/3
f 79/165/12 80/166/12 88/167/12 89/155/12
f 77/174/7 83/175/7 89/176/7 84/177/7
f 82/178/1 78/179/1 86/180/1 87/181/1
f 82/182/12 87/162/12 73/161/12
f 71/148/3 67/147/3 91/183/3 93/184/3
f 66/144/2 70/143/2 92/185/2 90/186/2
f 93/187/5 91/188/5 94/189/5 95/190/5
f 95/191/3 94/192/3 98/193/3 99/194/3
f 90/186/2 92/185/2 97/195/2 96/196/2
f 96/196/2 97/195/2 101/197/2 100/198/2
f 99/199/9 98/200/9 102/201/9 103/202/9
f 100/203/8 101/204/8 105/68/8 104/205/8
f 103/206/3 102/207/3 104/208/3 105/209/3
f 99/210/12 97/211/12 92/212/12 95/213/12
f 70/164/12 71/154/12 95/213/12 92/212/12
f 93/214/12 95/213/12 71/154/12
f 97/211/12 99/210/12 105/215/12 101/29/12
f 99/210/12 103/216/12 105/215/12
f 75/160/13 76/141/13 112/217/13 111/218/13
f 84/172/14 85/170/14 114/219/14 113/220/14
f 117/221/4 118/222/4 116/223/4 115/224/4
f 94/192/14 84/172/14 113/220/14 116/225/14
f 115/226/13 112/217/13 76/141/13 90/186/13
f 98/193/14 94/192/14 116/225/14 118/227/14
f 114/219/14 85/170/14 110/169/14
f 111/218/13 109/158/13 75/160/13
f 98/124/9 118/228/9 122/229/9 119/230/9
f 114/231/1 110/232/1 120/233/1 121/234/1
f 121/235/14 120/236/14 123/237/14 124/238/14
f 119/239/14 122/240/14 126/241/14 125/242/14
f 118/222/4 117/221/4 127/243/4 128/244/4
f 111/245/4 114/246/4 130/247/4 129/248/4
f 124/249/6 123/250/6 108/251/6 129/252/6
f 111/218/13 129/253/13 108/156/13 109/158/13
f 114/246/4 121/129/4 124/254/4 130/247/4
f 111/245/4 112/255/4 113/256/4 114/246/4
f 116/223/4 113/256/4 112/255/4 115/224/4
f 126/257/8 127/258/8 100/259/8 125/260/8
f 118/222/4 128/244/4 126/121/4 122/120/4
f 100/198/13 127/261/13 117/262/13 96/196/13
f 96/196/13 117/262/13 115/226/13 90/186/13
f 77/263/4 84/264/4 94/265/4 91/266/4 67/267/4
f 148/268/2 149/269/2 170/270/2 167/271/2
f 153/272/4 154/273/4 165/274/4 166/275/4
f 131/276/12 132/277/12 140/278/12 139/279/12
f 132/277/12 134/280/12 141/281/12 140/278/12
f 134/280/12 133/282/12 142/283/12 141/281/12
f 133/282/12 131/276/12 139/279/12 142/283/12
f 133/284/5 134/285/5 144/286/5 143/287/5
f 134/285/5 138/288/5 145/289/5 144/286/5
f 138/288/5 137/69/5 146/290/5 145/289/5
f 137/69/5 133/284/5 143/287/5 146/290/5
f 137/291/4 138/292/4 148/293/4 147/294/4
f 138/292/4 136/295/4 149/296/4 148/293/4
f 136/295/4 135/297/4 150/298/4 149/296/4
f 135/297/4 137/291/4 147/294/4 150/298/4
f 135/299/7 136/300/7 152/301/7 151/302/7
f 136/300/7 132/140/7 153/303/7 152/301/7
f 132/140/7 131/304/7 154/305/7 153/303/7
f 131/304/7 135/299/7 151/302/7 154/305/7
f 133/306/2 137/307/2 156/308/2 155/309/2
f 137/307/2 135/310/2 157/311/2 156/308/2
f 135/310/2 131/312/2 158/313/2 157/311/2
f 131/312/2 133/306/2 155/309/2 158/313/2
f 138/314/3 134/306/3 160/315/3 159/316/3
f 134/306/3 132/312/3 161/317/3 160/315/3
f 132/312/3 136/276/3 162/318/3 161/317/3
f 136/276/3 138/314/3 159/316/3 162/318/3
f 154/319/3 151/320/3 164/321/3 165/322/3
f 152/323/2 153/324/2 166/325/2 163/326/2
f 151/327/12 152/328/12 163/329/12 164/330/12
f 147/331/7 148/332/7 167/333/7 168/304/7
f 149/332/5 150/331/5 169/334/5 170/335/5
f 150/336/3 147/337/3 168/271/3 169/270/3
f 140/338/5 172/335/5 171/334/5 139/339/5
f 141/340/2 173/337/2 172/336/2 140/341/2
f 142/339/7 174/342/7 173/343/7 141/338/7
f 139/344/3 171/345/3 174/346/3 142/347/3
f 144/348/4 176/349/4 175/329/4 143/350/4
f 145/351/2 177/352/2 176/342/2 144/353/2
f 146/354/12 178/355/12 177/356/12 145/357/12
f 143/358/3 175/351/3 178/353/3 146/359/3
f 156/347/7 180/346/7 179/360/7 155/361/7
f 157/362/12 181/363/12 180/364/12 156/365/12
f 158/346/5 182/366/5 181/367/5 157/360/5
f 155/368/4 179/369/4 182/370/4 158/371/4
f 160/372/7 184/358/7 183/359/7 159/373/7
f 161/374/4 185/362/4 184/365/4 160/375/4
f 162/376/5 186/372/5 185/373/5 161/140/5
f 159/377/12 183/378/12 186/379/12 162/380/12
f 187/381/15 195/382/15 196/383/15 197/384/15 188/385/15 190/386/15 189/387/15
f 189/388/5 190/389/5 194/390/5 193/391/5
f 193/392/16 194/393/16 192/394/16 198/395/16 199/396/16 200/397/16 191/398/16
f 214/399/7 206/400/7 188/401/7 197/402/7
f 189/403/2 193/404/2 191/405/2 203/406/2 202/407/2 201/408/2 187/409/2
f 194/410/3 190/411/3 188/412/3 206/413/3 205/414/3 204/415/3 192/416/3
f 201/417/7 209/418/7 195/419/7 187/420/7
f 209/418/7 211/421/7 196/422/7 195/419/7
f 211/421/7 214/399/7 197/402/7 196/422/7
f 191/423/7 200/424/7 207/425/7 203/426/7
f 203/426/7 207/425/7 208/427/7 202/428/7
f 202/428/7 208/427/7 209/418/7 201/417/7
f 200/424/7 199/429/7 210/430/7 207/425/7
f 210/431/17 212/432/17 221/433/17 218/434/17
f 214/435/18 211/436/18 220/437/18 223/438/18
f 199/429/7 198/439/7 212/440/7 210/430/7
f 213/441/3 214/299/3 223/442/3 222/443/3
f 208/444/2 207/445/2 215/446/2 216/447/2
f 198/439/7 192/442/7 204/448/7 212/440/7
f 212/440/7 204/448/7 205/449/7 213/450/7
f 213/450/7 205/449/7 206/400/7 214/399/7
f 215/451/7 218/452/7 219/453/7 216/454/7
f 216/454/7 219/453/7 220/455/7 217/456/7
f 218/452/7 221/457/7 222/458/7 219/453/7
f 219/453/7 222/458/7 223/459/7 220/455/7
f 209/460/2 208/444/2 216/447/2 217/344/2
f 212/445/3 213/441/3 222/443/3 221/446/3
f 211/436/18 209/461/18 217/462/18 220/437/18
f 207/461/17 210/431/17 218/434/17 215/462/17
l 9 21
l 3 43
l 4 42
l 9 44
l 13 41
l 21 45
l 74 86
l 68 108
l 69 107
l 74 109
l 78 106
l 86 110
