# Blender 4.2.3 LTS
# www.blender.org
mtllib alternator.mtl
o electro
v -0.625002 0.375000 -2.250000
v -0.625002 2.625000 -2.000000
v -0.625002 2.625000 -2.250000
v -0.625002 2.375000 -2.000000
v -0.625002 2.375000 -2.250000
v -0.875002 2.625000 -2.000000
v -0.875002 2.625000 -2.250000
v -0.875002 2.375000 -2.000000
v -0.875002 2.375000 -2.250000
v -0.625002 2.750000 -2.250000
v -0.625002 2.750000 -2.750000
v -0.625002 2.250000 -2.250000
v -0.625002 2.250000 -2.750000
v -1.000002 2.750000 -2.250000
v -1.000002 2.750000 -2.750000
v -1.000002 2.250000 -2.250000
v -1.000002 2.250000 -2.750000
v -0.625002 1.625000 -2.000000
v -0.625002 1.625000 -2.250000
v -0.625002 1.375000 -2.000000
v -0.625002 1.375000 -2.250000
v -0.875002 1.625000 -2.000000
v -0.875002 1.625000 -2.250000
v -0.875002 1.375000 -2.000000
v -0.875002 1.375000 -2.250000
v -0.625002 1.750000 -2.250000
v -0.625002 1.750000 -2.750000
v -0.625002 1.250000 -2.250000
v -0.625002 1.250000 -2.750000
v -1.000002 1.750000 -2.250000
v -1.000002 1.750000 -2.750000
v -1.000002 1.250000 -2.250000
v -1.000002 1.250000 -2.750000
v -0.625002 0.625000 -2.000000
v -0.625002 0.625000 -2.250000
v -0.625002 0.375000 -2.000000
v -0.875002 0.625000 -2.000000
v -0.875002 0.625000 -2.250000
v -0.875002 0.375000 -2.000000
v -0.875002 0.375000 -2.250000
v -0.625002 0.750000 -2.250000
v -0.625002 0.750000 -2.750000
v -0.625002 0.250000 -2.250000
v -0.625002 0.250000 -2.750000
v -1.000002 0.750000 -2.250000
v -1.000002 0.750000 -2.750000
v -1.000002 0.250000 -2.250000
v -1.000002 0.250000 -2.750000
v -1.000001 0.000000 1.000000
v -1.000000 0.000000 2.000000
v -3.000001 0.000000 1.000001
v -3.000000 0.000000 2.000001
v -2.000001 0.000000 1.000001
v -3.000001 0.000000 1.000001
v -2.000001 0.000000 -0.999999
v -3.000001 0.000000 -0.999999
v -3.000001 0.000000 0.000001
v -2.000001 0.000000 0.000001
v -1.000001 0.000000 -1.000000
v -1.000002 0.000000 -2.000000
v -3.000001 0.000000 -0.999999
v -3.000002 0.000000 -1.999999
v 1.999998 0.000000 -2.000000
v 1.999999 0.000000 -1.000000
v -1.000002 0.000000 -2.000000
v -1.000001 0.000000 -1.000000
v 0.499999 0.000000 -1.000000
v 0.499998 0.000000 -2.000000
v 3.999999 0.000000 -1.000001
v 3.999998 0.000000 -2.000001
v 1.999999 0.000000 -1.000000
v 1.999998 0.000000 -2.000000
v 2.999999 0.000000 0.999999
v 3.999999 0.000000 0.999999
v 2.999999 0.000000 -1.000001
v 3.999999 0.000000 -1.000001
v 3.999999 0.000000 -0.000001
v 2.999999 0.000000 -0.000001
v 3.999999 0.000000 0.999999
v 4.000000 0.000000 1.999999
v 1.999999 0.000000 1.000000
v 2.000000 0.000000 2.000000
v 1.999999 0.000000 1.000000
v 2.000000 0.000000 2.000000
v -1.000001 0.000000 1.000000
v -1.000000 0.000000 2.000000
v 0.500000 0.000000 2.000000
v 0.499999 0.000000 1.000000
v -1.000001 0.500000 1.000000
v -1.000000 0.500000 2.000000
v -3.000001 0.500000 1.000001
v -3.000000 0.500000 2.000001
v -2.000001 0.500000 1.000001
v -3.000001 0.500000 1.000001
v -2.000001 0.500000 -0.999999
v -3.000001 0.500000 -0.999999
v -3.000001 0.500000 0.000001
v -2.000001 0.500000 0.000001
v -1.000001 0.500000 -1.000000
v -1.000002 0.500000 -2.000000
v -3.000001 0.500000 -0.999999
v -3.000002 0.500000 -1.999999
v 1.999998 0.500000 -2.000000
v 1.999999 0.500000 -1.000000
v -1.000002 0.500000 -2.000000
v -1.000001 0.500000 -1.000000
v 0.499999 0.500000 -1.000000
v 0.499998 0.500000 -2.000000
v 3.999999 0.500000 -1.000001
v 3.999998 0.500000 -2.000001
v 1.999999 0.500000 -1.000000
v 1.999998 0.500000 -2.000000
v 2.999999 0.500000 0.999999
v 3.999999 0.500000 0.999999
v 2.999999 0.500000 -1.000001
v 3.999999 0.500000 -1.000001
v 3.999999 0.500000 -0.000001
v 2.999999 0.500000 -0.000001
v 3.999999 0.500000 0.999999
v 4.000000 0.500000 1.999999
v 1.999999 0.500000 1.000000
v 2.000000 0.500000 2.000000
v 1.999999 0.500000 1.000000
v 2.000000 0.500000 2.000000
v -1.000001 0.500000 1.000000
v -1.000000 0.500000 2.000000
v 0.500000 0.500000 2.000000
v 0.499999 0.500000 1.000000
v 2.999999 0.500000 0.999999
v 3.999999 0.500000 0.999999
v 2.999999 0.000000 0.999999
v 2.999999 0.500000 -1.000001
v 3.999999 0.500000 -1.000001
v 2.999999 0.000000 -1.000001
v 3.999999 0.000000 0.999999
v 3.999999 0.000000 -1.000001
v 3.999999 0.500000 -0.000001
v 3.999999 0.000000 -0.000001
v 2.999999 0.500000 -0.000001
v 2.999999 0.000000 -0.000001
v 4.000000 0.500000 1.999999
v 2.000000 0.500000 2.000000
v 4.000000 0.000000 1.999999
v 2.000000 0.000000 2.000000
v 3.999999 0.500000 0.999999
v 4.000000 0.500000 1.999999
v 3.999999 0.000000 0.999999
v 4.000000 0.000000 1.999999
v 3.999999 0.500000 -1.000001
v 3.999998 0.500000 -2.000001
v 3.999999 0.000000 -1.000001
v 1.999998 0.500000 -2.000000
v 3.999998 0.000000 -2.000001
v 1.999998 0.000000 -2.000000
v 1.999998 0.500000 -2.000000
v 1.999998 0.000000 -2.000000
v -1.000002 0.500000 -2.000000
v -1.000002 0.000000 -2.000000
v 0.499998 0.500000 -2.000000
v 0.499998 0.000000 -2.000000
v -1.000002 0.500000 -2.000000
v -3.000001 0.500000 -0.999999
v -3.000002 0.500000 -1.999999
v -3.000001 0.000000 -0.999999
v -1.000002 0.000000 -2.000000
v -3.000002 0.000000 -1.999999
v -2.000001 0.500000 1.000001
v -3.000001 0.500000 1.000001
v -2.000001 0.000000 1.000001
v -2.000001 0.500000 -0.999999
v -3.000001 0.500000 -0.999999
v -2.000001 0.000000 -0.999999
v -3.000001 0.000000 1.000001
v -3.000001 0.000000 -0.999999
v -3.000001 0.500000 0.000001
v -3.000001 0.000000 0.000001
v -2.000001 0.500000 0.000001
v -2.000001 0.000000 0.000001
v -1.000000 0.500000 2.000000
v -3.000001 0.500000 1.000001
v -3.000000 0.500000 2.000001
v -3.000001 0.000000 1.000001
v -1.000000 0.000000 2.000000
v -3.000000 0.000000 2.000001
v 2.000000 0.500000 2.000000
v -1.000000 0.500000 2.000000
v 2.000000 0.000000 2.000000
v -1.000000 0.000000 2.000000
v 0.500000 0.500000 2.000000
v 0.500000 0.000000 2.000000
v 1.999999 0.500000 1.000000
v 2.999999 0.500000 0.999999
v 1.999999 0.000000 1.000000
v 2.999999 0.000000 0.999999
v 1.999999 0.500000 1.000000
v -1.000001 0.500000 1.000000
v 1.999999 0.000000 1.000000
v -1.000001 0.000000 1.000000
v 0.499999 0.500000 1.000000
v 0.499999 0.000000 1.000000
v -1.000001 0.500000 1.000000
v -2.000001 0.500000 1.000001
v -1.000001 0.000000 1.000000
v -2.000001 0.000000 1.000001
v 1.999999 0.500000 -1.000000
v 2.999999 0.500000 -1.000001
v 1.999999 0.000000 -1.000000
v 2.999999 0.000000 -1.000001
v 1.999999 0.500000 -1.000000
v -1.000001 0.500000 -1.000000
v 1.999999 0.000000 -1.000000
v -1.000001 0.000000 -1.000000
v 0.499999 0.500000 -1.000000
v 0.499999 0.000000 -1.000000
v -1.000001 0.500000 -1.000000
v -2.000001 0.500000 -0.999999
v -1.000001 0.000000 -1.000000
v -2.000001 0.000000 -0.999999
v 1.499999 2.500000 1.000000
v 1.500000 2.500000 2.000000
v 1.499999 0.500000 1.000000
v 1.500000 0.500000 2.000000
v -0.500001 2.500000 1.000000
v -0.500000 2.500000 2.000000
v -0.500001 0.500000 1.000000
v -0.500000 0.500000 2.000000
v 2.062498 2.125000 -2.125000
v 1.999998 2.125000 -2.125000
v 2.062498 1.125000 -2.125000
v 1.999998 1.125000 -2.125000
v 2.062498 2.125000 -2.875000
v 1.999998 2.125000 -2.875000
v 2.062498 1.125000 -2.875000
v 1.999998 1.125000 -2.875000
v 1.999998 3.000000 -2.000000
v 1.999998 3.000000 -3.000000
v 1.999998 0.000000 -2.000000
v 1.999998 0.000000 -3.000000
v -0.625002 3.000000 -2.000000
v -0.625002 3.000000 -3.000000
v -0.625002 0.000000 -2.000000
v -0.625002 0.000000 -3.000000
v 1.499999 3.000000 -1.000000
v 1.499998 3.000000 -2.000000
v 1.999999 2.500000 -1.000000
v 1.999998 2.500000 -2.000000
v -0.500001 3.000000 -1.000000
v -0.500002 3.000000 -2.000000
v -1.000001 2.500000 -1.000000
v -1.000002 2.500000 -2.000000
v 1.999999 2.500000 -1.000000
v 1.999998 2.500000 -2.000000
v 1.999999 0.500000 -1.000000
v 1.999998 0.500000 -2.000000
v -1.000001 2.500000 -1.000000
v -1.000002 2.500000 -2.000000
v -1.000001 0.500000 -1.000000
v -1.000002 0.500000 -2.000000
v -0.937501 4.500000 1.000001
v 1.937499 4.500000 1.000000
v -0.757813 3.750000 1.000001
v 1.757812 3.750000 1.000000
v -2.500001 2.937500 1.000001
v -2.500001 0.062500 1.000001
v -1.750001 2.757813 1.000001
v -1.750001 0.242188 1.000001
v -0.937501 -1.500000 1.000000
v 1.937499 -1.500000 1.000000
v -0.757813 -0.750000 1.000000
v 1.757812 -0.750000 1.000000
v 3.499999 2.937500 0.999999
v 3.499999 0.062500 0.999999
v 2.749999 2.757813 1.000000
v 2.749999 0.242188 0.999999
v -0.757813 3.750000 1.062501
v -0.937501 4.500000 1.062501
v 1.757812 3.750000 1.062500
v 1.937499 4.500000 1.062500
v -2.500001 2.937500 1.062501
v -1.750001 2.757813 1.062501
v -1.750001 0.242188 1.062501
v -2.500001 0.062500 1.062501
v -0.757813 -0.750000 1.062500
v -0.937501 -1.500000 1.062500
v 1.757812 -0.750000 1.062500
v 1.937499 -1.500000 1.062500
v 3.499999 2.937500 1.062499
v 2.749999 2.757813 1.062500
v 2.749999 0.242188 1.062499
v 3.499999 0.062500 1.062499
v -0.757813 3.750000 1.000001
v 1.757812 3.750000 1.000000
v -1.750001 2.757813 1.000001
v -1.750001 0.242188 1.000001
v -0.757813 -0.750000 1.000000
v 1.757812 -0.750000 1.000000
v 2.749999 2.757813 1.000000
v 2.749999 0.242188 0.999999
v -0.937501 4.500000 1.000001
v 1.937499 4.500000 1.000000
v -2.500001 2.937500 1.000001
v -2.500001 0.062500 1.000001
v -0.937501 -1.500000 1.000000
v 1.937499 -1.500000 1.000000
v 3.499999 2.937500 0.999999
v 3.499999 0.062500 0.999999
v 1.757812 3.750000 1.000000
v 2.749999 2.757813 1.000000
v 1.937499 4.500000 1.000000
v 3.499999 2.937500 0.999999
v -0.757813 3.750000 1.000001
v -1.750001 2.757813 1.000001
v -0.937501 4.500000 1.000001
v -2.500001 2.937500 1.000001
v -0.757813 -0.750000 1.000000
v -1.750001 0.242188 1.000001
v -0.937501 -1.500000 1.000000
v -2.500001 0.062500 1.000001
v 1.757812 -0.750000 1.000000
v 2.749999 0.242188 0.999999
v 1.937499 -1.500000 1.000000
v 3.499999 0.062500 0.999999
v -0.757813 3.750000 1.062501
v 1.757812 3.750000 1.062500
v -1.750001 2.757813 1.062501
v -1.750001 0.242188 1.062501
v -0.757813 -0.750000 1.062500
v 1.757812 -0.750000 1.062500
v 2.749999 2.757813 1.062500
v 2.749999 0.242188 1.062499
v -0.937501 4.500000 1.062501
v 1.937499 4.500000 1.062500
v -2.500001 2.937500 1.062501
v -2.500001 0.062500 1.062501
v -0.937501 -1.500000 1.062500
v 1.937499 -1.500000 1.062500
v 3.499999 2.937500 1.062499
v 3.499999 0.062500 1.062499
v 1.757812 3.750000 1.062500
v 2.749999 2.757813 1.062500
v 1.937499 4.500000 1.062500
v 3.499999 2.937500 1.062499
v -0.757813 3.750000 1.062501
v -1.750001 2.757813 1.062501
v -0.937501 4.500000 1.062501
v -2.500001 2.937500 1.062501
v -0.757813 -0.750000 1.062500
v -1.750001 0.242188 1.062501
v -0.937501 -1.500000 1.062500
v -2.500001 0.062500 1.062501
v 1.757812 -0.750000 1.062500
v 2.749999 0.242188 1.062499
v 1.937499 -1.500000 1.062500
v 3.499999 0.062500 1.062499
v -0.937501 4.500000 -0.999999
v -0.937501 4.500000 1.000001
v 1.937499 4.500000 -1.000000
v 1.937499 4.500000 1.000000
v -0.757814 4.000000 -1.000000
v -0.757813 4.000000 1.000001
v 1.757811 4.000000 -1.000000
v 1.757812 4.000000 1.000000
v -2.500001 2.937500 -0.999999
v -2.500001 2.937500 1.000001
v -2.500001 0.062500 -0.999999
v -2.500001 0.062500 1.000001
v -2.000001 2.757813 -0.999999
v -2.000001 2.757813 1.000001
v -2.000001 0.242188 -0.999999
v -2.000001 0.242188 1.000001
v -0.937501 -1.500000 -1.000000
v -0.937501 -1.500000 1.000000
v 1.937499 -1.500000 -1.000000
v 1.937499 -1.500000 1.000000
v -0.757814 -1.000000 -1.000000
v -0.757813 -1.000000 1.000000
v 1.757811 -1.000000 -1.000000
v 1.757812 -1.000000 1.000000
v 3.499999 2.937500 -1.000001
v 3.499999 2.937500 0.999999
v 3.499999 0.062500 -1.000001
v 3.499999 0.062500 0.999999
v 2.999999 2.757813 -1.000000
v 2.999999 2.757813 0.999999
v 2.999999 0.242188 -1.000001
v 2.999999 0.242188 0.999999
v -0.937501 4.500000 -0.999999
v 1.937499 4.500000 -1.000000
v -0.757814 4.000000 -1.000000
v 1.757811 4.000000 -1.000000
v -2.500001 2.937500 -0.999999
v -2.500001 0.062500 -0.999999
v -2.000001 2.757813 -0.999999
v -2.000001 0.242188 -0.999999
v -0.937501 -1.500000 -1.000000
v 1.937499 -1.500000 -1.000000
v -0.757814 -1.000000 -1.000000
v 1.757811 -1.000000 -1.000000
v 3.499999 2.937500 -1.000001
v 3.499999 0.062500 -1.000001
v 2.999999 2.757813 -1.000000
v 2.999999 0.242188 -1.000001
v -0.937501 4.500000 -1.062499
v 1.937499 4.500000 -1.062500
v -0.757814 3.750000 -1.062500
v 1.757811 3.750000 -1.062500
v -2.500001 2.937500 -1.062499
v -2.500001 0.062500 -1.062499
v -1.750001 2.757813 -1.062499
v -1.750001 0.242188 -1.062499
v -0.937501 -1.500000 -1.062500
v 1.937499 -1.500000 -1.062500
v -0.757814 -0.750000 -1.062500
v 1.757811 -0.750000 -1.062500
v 3.499999 2.937500 -1.062501
v 3.499999 0.062500 -1.062501
v 2.749999 2.757813 -1.062500
v 2.749999 0.242188 -1.062500
v -0.757814 3.750000 -1.000000
v -0.937501 4.500000 -0.999999
v 1.757811 3.750000 -1.000000
v 1.937499 4.500000 -1.000000
v -2.500001 2.937500 -0.999999
v -1.750001 2.757813 -0.999999
v -1.750001 0.242188 -0.999999
v -2.500001 0.062500 -0.999999
v -0.757814 -0.750000 -1.000000
v -0.937501 -1.500000 -1.000000
v 1.757811 -0.750000 -1.000000
v 1.937499 -1.500000 -1.000000
v 3.499999 2.937500 -1.000001
v 2.749999 2.757813 -1.000000
v 2.749999 0.242188 -1.000000
v 3.499999 0.062500 -1.000001
v -0.757814 3.750000 -1.062500
v 1.757811 3.750000 -1.062500
v -1.750001 2.757813 -1.062499
v -1.750001 0.242188 -1.062499
v -0.757814 -0.750000 -1.062500
v 1.757811 -0.750000 -1.062500
v 2.749999 2.757813 -1.062500
v 2.749999 0.242188 -1.062500
v -0.937501 4.500000 -1.062499
v 1.937499 4.500000 -1.062500
v -2.500001 2.937500 -1.062499
v -2.500001 0.062500 -1.062499
v -0.937501 -1.500000 -1.062500
v 1.937499 -1.500000 -1.062500
v 3.499999 2.937500 -1.062501
v 3.499999 0.062500 -1.062501
v 1.757811 3.750000 -1.062500
v 2.749999 2.757813 -1.062500
v 1.937499 4.500000 -1.062500
v 3.499999 2.937500 -1.062501
v -0.757814 3.750000 -1.062500
v -1.750001 2.757813 -1.062499
v -0.937501 4.500000 -1.062499
v -2.500001 2.937500 -1.062499
v -0.757814 -0.750000 -1.062500
v -1.750001 0.242188 -1.062499
v -0.937501 -1.500000 -1.062500
v -2.500001 0.062500 -1.062499
v 1.757811 -0.750000 -1.062500
v 2.749999 0.242188 -1.062500
v 1.937499 -1.500000 -1.062500
v 3.499999 0.062500 -1.062501
v -0.757814 3.750000 -1.000000
v 1.757811 3.750000 -1.000000
v -1.750001 2.757813 -0.999999
v -1.750001 0.242188 -0.999999
v -0.757814 -0.750000 -1.000000
v 1.757811 -0.750000 -1.000000
v 2.749999 2.757813 -1.000000
v 2.749999 0.242188 -1.000000
v -0.937501 4.500000 -0.999999
v 1.937499 4.500000 -1.000000
v -2.500001 2.937500 -0.999999
v -2.500001 0.062500 -0.999999
v -0.937501 -1.500000 -1.000000
v 1.937499 -1.500000 -1.000000
v 3.499999 2.937500 -1.000001
v 3.499999 0.062500 -1.000001
v 1.757811 3.750000 -1.000000
v 2.749999 2.757813 -1.000000
v 1.937499 4.500000 -1.000000
v 3.499999 2.937500 -1.000001
v -0.757814 3.750000 -1.000000
v -1.750001 2.757813 -0.999999
v -0.937501 4.500000 -0.999999
v -2.500001 2.937500 -0.999999
v -0.757814 -0.750000 -1.000000
v -1.750001 0.242188 -0.999999
v -0.937501 -1.500000 -1.000000
v -2.500001 0.062500 -0.999999
v 1.757811 -0.750000 -1.000000
v 2.749999 0.242188 -1.000000
v 1.937499 -1.500000 -1.000000
v 3.499999 0.062500 -1.000001
v 1.312499 3.875000 -0.875000
v 1.312499 3.875000 0.875000
v 0.937499 3.875000 -0.875000
v 0.937499 3.875000 0.875000
v 1.312499 4.187500 -0.875000
v 1.312499 4.187500 0.875000
v 0.937499 4.187500 -0.875000
v 0.937499 4.187500 0.875000
v 0.687499 3.875000 -0.875000
v 0.687499 3.875000 0.875000
v 0.312499 3.875000 -0.875000
v 0.312499 3.875000 0.875000
v 0.687499 4.187500 -0.875000
v 0.687499 4.187500 0.875000
v 0.312499 4.187500 -0.875000
v 0.312499 4.187500 0.875000
v 0.062499 3.875000 -0.875000
v 0.062499 3.875000 0.875000
v -0.312501 3.875000 -0.875000
v -0.312501 3.875000 0.875000
v 0.062499 4.187500 -0.875000
v 0.062499 4.187500 0.875000
v -0.312501 4.187500 -0.875000
v -0.312501 4.187500 0.875000
v 2.753902 2.604855 -0.875000
v 2.753902 2.604855 0.875000
v 2.488737 2.870020 -0.875000
v 2.488737 2.870020 0.875000
v 2.974872 2.825825 -0.875000
v 2.974873 2.825825 0.875000
v 2.709707 3.090990 -0.875000
v 2.709708 3.090990 0.875000
v 2.311960 3.046797 -0.875000
v 2.311960 3.046797 0.875000
v 2.046795 3.311961 -0.875000
v 2.046795 3.311961 0.875000
v 2.532930 3.267767 -0.875000
v 2.532931 3.267767 0.875000
v 2.267766 3.532932 -0.875000
v 2.267766 3.532932 0.875000
v 1.870018 3.488738 -0.875000
v 1.870018 3.488738 0.875000
v 1.604853 3.753903 -0.875000
v 1.604854 3.753903 0.875000
v 2.090989 3.709709 -0.875000
v 2.090989 3.709709 0.875000
v 1.825824 3.974874 -0.875000
v 1.825824 3.974874 0.875000
v 2.874999 0.687500 -0.875001
v 2.874999 0.687500 0.874999
v 2.874999 1.062500 -0.875000
v 2.874999 1.062500 0.874999
v 3.187499 0.687500 -0.875001
v 3.187499 0.687500 0.874999
v 3.187499 1.062500 -0.875001
v 3.187499 1.062500 0.874999
v 2.874999 1.312500 -0.875000
v 2.874999 1.312500 0.874999
v 2.874999 1.687500 -0.875000
v 2.874999 1.687500 0.874999
v 3.187499 1.312500 -0.875001
v 3.187499 1.312500 0.874999
v 3.187499 1.687500 -0.875001
v 3.187499 1.687500 0.874999
v 2.874999 1.937500 -0.875000
v 2.874999 1.937500 0.874999
v 2.874999 2.312500 -0.875000
v 2.874999 2.312500 0.874999
v 3.187499 1.937500 -0.875001
v 3.187499 1.937500 0.874999
v 3.187499 2.312500 -0.875000
v 3.187499 2.312500 0.874999
v -0.604856 3.753903 -0.875000
v -0.604855 3.753903 0.875001
v -0.870021 3.488738 -0.875000
v -0.870020 3.488738 0.875001
v -0.825826 3.974874 -0.874999
v -0.825826 3.974874 0.875001
v -1.090991 3.709709 -0.874999
v -1.090991 3.709709 0.875001
v -1.046798 3.311961 -0.874999
v -1.046797 3.311961 0.875001
v -1.311963 3.046797 -0.874999
v -1.311962 3.046797 0.875001
v -1.267768 3.532932 -0.874999
v -1.267768 3.532932 0.875001
v -1.532933 3.267767 -0.874999
v -1.532933 3.267767 0.875001
v -1.488740 2.870020 -0.874999
v -1.488739 2.870020 0.875001
v -1.753905 2.604855 -0.874999
v -1.753904 2.604855 0.875001
v -1.709710 3.090990 -0.874999
v -1.709710 3.090990 0.875001
v -1.974875 2.825825 -0.874999
v -1.974875 2.825825 0.875001
v -1.875001 2.312500 -0.874999
v -1.875001 2.312500 0.875001
v -1.875001 1.937500 -0.874999
v -1.875001 1.937500 0.875001
v -2.187501 2.312500 -0.874999
v -2.187501 2.312500 0.875001
v -2.187501 1.937500 -0.874999
v -2.187501 1.937500 0.875001
v -1.875001 1.687500 -0.874999
v -1.875001 1.687500 0.875001
v -1.875001 1.312500 -0.874999
v -1.875001 1.312500 0.875001
v -2.187501 1.687500 -0.874999
v -2.187501 1.687500 0.875001
v -2.187501 1.312500 -0.874999
v -2.187501 1.312500 0.875001
v -1.875001 1.062500 -0.874999
v -1.875001 1.062500 0.875001
v -1.875001 0.687500 -0.874999
v -1.875001 0.687500 0.875001
v -2.187501 1.062500 -0.874999
v -2.187501 1.062500 0.875001
v -2.187501 0.687500 -0.874999
v -2.187501 0.687500 0.875001
v -1.753905 0.395146 -0.874999
v -1.753904 0.395146 0.875001
v -1.488740 0.129981 -0.875000
v -1.488739 0.129981 0.875001
v -1.974875 0.174175 -0.874999
v -1.974875 0.174175 0.875001
v -1.709710 -0.090990 -0.875000
v -1.709710 -0.090990 0.875001
v -1.311963 -0.046796 -0.875000
v -1.311962 -0.046796 0.875000
v -1.046798 -0.311961 -0.875000
v -1.046797 -0.311961 0.875000
v -1.532933 -0.267767 -0.875000
v -1.532933 -0.267767 0.875001
v -1.267768 -0.532932 -0.875000
v -1.267768 -0.532932 0.875000
v -0.870021 -0.488738 -0.875000
v -0.870020 -0.488738 0.875000
v -0.604856 -0.753903 -0.875000
v -0.604855 -0.753903 0.875000
v -1.090991 -0.709708 -0.875000
v -1.090991 -0.709709 0.875000
v -0.825826 -0.974873 -0.875000
v -0.825826 -0.974874 0.875000
v -0.312501 -0.875000 -0.875000
v -0.312501 -0.875000 0.875000
v 0.062499 -0.875000 -0.875000
v 0.062499 -0.875000 0.875000
v -0.312501 -1.187500 -0.875000
v -0.312501 -1.187500 0.875000
v 0.062499 -1.187500 -0.875000
v 0.062499 -1.187500 0.875000
v 0.312499 -0.875000 -0.875000
v 0.312499 -0.875000 0.875000
v 0.687499 -0.875000 -0.875000
v 0.687499 -0.875000 0.875000
v 0.312499 -1.187500 -0.875000
v 0.312499 -1.187500 0.875000
v 0.687499 -1.187500 -0.875000
v 0.687499 -1.187500 0.875000
v 0.937499 -0.875000 -0.875000
v 0.937499 -0.875000 0.875000
v 1.312499 -0.875000 -0.875000
v 1.312499 -0.875000 0.875000
v 0.937499 -1.187500 -0.875000
v 0.937499 -1.187500 0.875000
v 1.312499 -1.187500 -0.875000
v 1.312499 -1.187500 0.875000
v 1.604853 -0.753903 -0.875000
v 1.604854 -0.753903 0.875000
v 1.870018 -0.488738 -0.875000
v 1.870018 -0.488738 0.875000
v 1.825824 -0.974873 -0.875000
v 1.825824 -0.974874 0.875000
v 2.090989 -0.709708 -0.875000
v 2.090989 -0.709709 0.875000
v 2.046795 -0.311961 -0.875000
v 2.046795 -0.311961 0.875000
v 2.311960 -0.046796 -0.875000
v 2.311960 -0.046796 0.875000
v 2.267766 -0.532932 -0.875000
v 2.267766 -0.532932 0.874999
v 2.532930 -0.267767 -0.875000
v 2.532931 -0.267767 0.874999
v 2.488737 0.129981 -0.875000
v 2.488737 0.129981 0.874999
v 2.753902 0.395146 -0.875000
v 2.753902 0.395146 0.874999
v 2.709707 -0.090990 -0.875001
v 2.709708 -0.090990 0.874999
v 2.974872 0.174175 -0.875001
v 2.974873 0.174175 0.874999
v -2.500001 2.250000 -0.437499
v -2.500001 2.250000 0.437501
v -2.500001 1.625000 -0.437499
v -2.500001 1.625000 0.437501
v -2.562501 2.250000 -0.437499
v -2.562501 2.250000 0.437501
v -2.562501 1.625000 -0.437499
v -2.562501 1.625000 0.437501
v 3.499999 2.250000 0.437499
v 3.499999 2.250000 -0.437501
v 3.499999 1.625000 0.437499
v 3.499999 1.625000 -0.437501
v 3.562499 2.250000 0.437499
v 3.562499 2.250000 -0.437501
v 3.562499 1.625000 0.437499
v 3.562499 1.625000 -0.437501
v 2.249998 1.000000 -2.187500
v 1.999998 1.000000 -2.187500
v 2.249998 0.375000 -2.187500
v 1.999998 0.375000 -2.187500
v 2.249998 1.000000 -2.812500
v 1.999998 1.000000 -2.812500
v 2.249998 0.375000 -2.812500
v 1.999998 0.375000 -2.812500
v 3.312498 1.687500 -1.437501
v 3.312498 1.687500 -1.312501
v 3.312498 1.312500 -1.437501
v 3.312498 1.312500 -1.312501
v 2.937498 1.687500 -1.437500
v 2.937498 1.687500 -1.312500
v 2.937498 1.312500 -1.437500
v 2.937498 1.312500 -1.312500
v 3.312498 1.687500 -1.812501
v 2.937498 1.687500 -1.812500
v 3.312498 1.312500 -1.812501
v 2.937498 1.312500 -1.812500
v 3.312498 0.875000 -1.812501
v 2.937498 0.875000 -1.812501
v 2.937498 0.875000 -1.437501
v 3.312498 0.875000 -1.437501
v 3.312498 0.500000 -1.812501
v 2.937498 0.500000 -1.812501
v 2.937498 0.500000 -1.437501
v 3.312498 0.500000 -1.437501
v 2.937498 0.500000 -2.312501
v 3.312498 0.500000 -2.312501
v 3.312498 0.875000 -2.312501
v 2.937498 0.875000 -2.312501
v 2.937498 0.500000 -2.687501
v 3.312498 0.500000 -2.687501
v 3.312498 0.875000 -2.687501
v 2.937498 0.875000 -2.687501
v 2.249998 0.500000 -2.687500
v 2.249998 0.875000 -2.687500
v 2.249998 0.875000 -2.312500
v 2.249998 0.500000 -2.312500
v 3.437498 1.812500 -1.312501
v 3.437499 1.812500 -1.062501
v 3.437498 1.187500 -1.312501
v 3.437499 1.187500 -1.062501
v 2.812498 1.812500 -1.312500
v 2.812499 1.812500 -1.062500
v 2.812498 1.187500 -1.312500
v 2.812499 1.187500 -1.062500
v -3.000000 1.375000 1.875001
v -3.000000 1.375000 2.000001
v -3.000000 0.500000 1.875001
v -3.000000 0.500000 2.000001
v -2.875000 1.375000 1.875001
v -2.875000 1.375000 2.000001
v -2.875000 0.500000 1.875001
v -2.875000 0.500000 2.000001
v -3.000001 1.375000 0.750001
v -3.000001 1.375000 0.875001
v -3.000001 0.500000 0.750001
v -3.000001 0.500000 0.875001
v -2.875001 1.375000 0.750001
v -2.875001 1.375000 0.875001
v -2.875001 0.500000 0.750001
v -2.875001 0.500000 0.875001
v -1.750000 1.375000 1.875001
v -1.750000 1.375000 2.000001
v -1.750000 0.500000 1.875001
v -1.750000 0.500000 2.000001
v -1.875000 1.375000 1.875001
v -1.875000 1.375000 2.000001
v -1.875000 0.500000 1.875001
v -1.875000 0.500000 2.000001
v -0.500000 1.375000 1.875000
v -0.500000 1.375000 2.000000
v -0.500000 0.500000 1.875000
v -0.500000 0.500000 2.000000
v -0.625000 1.375000 1.875000
v -0.625000 1.375000 2.000000
v -0.625000 0.500000 1.875000
v -0.625000 0.500000 2.000000
v -0.500000 1.375000 1.875000
v -0.500000 1.375000 2.000000
v -3.000000 1.375000 1.875001
v -3.000000 1.375000 2.000001
v -0.500000 1.500000 1.875000
v -0.500000 1.500000 2.000000
v -3.000000 1.500000 1.875001
v -3.000000 1.500000 2.000001
v -1.750000 1.500000 2.000001
v -1.750000 1.500000 1.875001
v -1.750000 1.375000 1.875001
v -1.750000 1.375000 2.000001
v -2.875000 1.375000 1.875001
v -3.000000 1.375000 1.875001
v -2.875001 1.375000 0.000001
v -3.000001 1.375000 0.000001
v -2.875000 1.500000 1.875001
v -3.000000 1.500000 1.875001
v -2.875001 1.500000 0.000001
v -3.000001 1.500000 0.000001
v 1.500000 1.375000 1.875000
v 1.500000 1.375000 2.000000
v 1.500000 0.500000 1.875000
v 1.500000 0.500000 2.000000
v 1.625000 1.375000 1.875000
v 1.625000 1.375000 2.000000
v 1.625000 0.500000 1.875000
v 1.625000 0.500000 2.000000
v 1.500000 1.375000 1.875000
v 1.500000 1.375000 2.000000
v 4.000000 1.375000 1.874999
v 4.000000 1.375000 1.999999
v 1.500000 1.500000 1.875000
v 1.500000 1.500000 2.000000
v 4.000000 1.500000 1.874999
v 4.000000 1.500000 1.999999
v 2.750000 1.500000 1.999999
v 2.750000 1.500000 1.874999
v 2.750000 1.375000 1.874999
v 2.750000 1.375000 1.999999
v 2.750000 1.375000 1.874999
v 2.750000 1.375000 1.999999
v 2.750000 0.500000 1.874999
v 2.750000 0.500000 1.999999
v 2.875000 1.375000 1.874999
v 2.875000 1.375000 1.999999
v 2.875000 0.500000 1.874999
v 2.875000 0.500000 1.999999
v 4.000000 1.375000 1.874999
v 4.000000 1.375000 1.999999
v 4.000000 0.500000 1.874999
v 4.000000 0.500000 1.999999
v 3.875000 1.375000 1.874999
v 3.875000 1.375000 1.999999
v 3.875000 0.500000 1.874999
v 3.875000 0.500000 1.999999
v 3.875000 1.375000 1.874999
v 4.000000 1.375000 1.874999
v 3.874999 1.375000 -0.000001
v 3.999999 1.375000 -0.000001
v 3.875000 1.500000 1.874999
v 4.000000 1.500000 1.874999
v 3.874999 1.500000 -0.000001
v 3.999999 1.500000 -0.000001
v 3.999999 1.375000 0.937499
v 3.999999 1.375000 1.062499
v 3.999999 0.500000 0.937499
v 3.999999 0.500000 1.062499
v 3.874999 1.375000 0.937499
v 3.874999 1.375000 1.062499
v 3.874999 0.500000 0.937499
v 3.874999 0.500000 1.062499
v 3.999999 1.375000 -0.000001
v 3.999999 1.375000 0.124999
v 3.999999 0.500000 -0.000001
v 3.999999 0.500000 0.124999
v 3.874999 1.375000 -0.000001
v 3.874999 1.375000 0.124999
v 3.874999 0.500000 -0.000001
v 3.874999 0.500000 0.124999
v -2.875001 1.375000 0.000001
v -3.000001 1.375000 0.000001
v -2.875002 1.375000 -1.874999
v -3.000002 1.375000 -1.874999
v -2.875001 1.500000 0.000001
v -3.000001 1.500000 0.000001
v -2.875002 1.500000 -1.874999
v -3.000002 1.500000 -1.874999
v -1.750002 1.375000 -1.999999
v -1.750002 1.375000 -1.874999
v -1.750002 0.500000 -1.999999
v -1.750002 0.500000 -1.874999
v -1.875002 1.375000 -1.999999
v -1.875002 1.375000 -1.874999
v -1.875002 0.500000 -1.999999
v -1.875002 0.500000 -1.874999
v -1.000002 1.375000 -2.000000
v -1.000002 1.375000 -1.875000
v -3.000002 1.375000 -1.999999
v -3.000002 1.375000 -1.874999
v -1.000002 1.500000 -2.000000
v -1.000002 1.500000 -1.875000
v -3.000002 1.500000 -1.999999
v -3.000002 1.500000 -1.874999
v -3.000002 1.375000 -1.999999
v -3.000002 1.375000 -1.874999
v -3.000002 0.500000 -1.999999
v -3.000002 0.500000 -1.874999
v -2.875002 1.375000 -1.999999
v -2.875002 1.375000 -1.874999
v -2.875002 0.500000 -1.999999
v -2.875002 0.500000 -1.874999
v -3.000001 1.375000 -0.874999
v -3.000001 1.375000 -0.749999
v -3.000001 0.500000 -0.874999
v -3.000001 0.500000 -0.749999
v -2.875001 1.375000 -0.874999
v -2.875001 1.375000 -0.749999
v -2.875001 0.500000 -0.874999
v -2.875001 0.500000 -0.749999
vn -1.0000 -0.0000 -0.0000
vn -0.0000 1.0000 -0.0000
vn -0.0000 -1.0000 -0.0000
vn -0.0000 -0.0000 1.0000
vn -0.0000 -0.0000 -1.0000
vn 1.0000 -0.0000 -0.0000
vn 0.7071 0.7071 -0.0000
vn -0.7071 0.7071 -0.0000
vn 0.7071 -0.7071 -0.0000
vn -0.7071 -0.7071 -0.0000
vt 0.255208 0.302083
vt 0.255208 0.281250
vt 0.276042 0.281250
vt 0.276042 0.302083
vt 0.338542 0.338542
vt 0.317708 0.338542
vt 0.317708 0.317708
vt 0.338542 0.317708
vt 0.541667 0.916667
vt 0.500000 0.916667
vt 0.500000 0.875000
vt 0.541667 0.875000
vt 0.552083 0.875000
vt 0.583333 0.875000
vt 0.583333 0.916667
vt 0.552083 0.916667
vt 0.510417 0.192708
vt 0.510417 0.276042
vt 0.343750 0.276042
vt 0.343750 0.192708
vt 0.395833 0.109375
vt 0.395833 0.192708
vt 0.479167 0.192708
vt 0.479167 0.109375
vt 0.468750 0.192708
vt 0.468750 0.109375
vt 0.385417 0.109375
vt 0.385417 0.192708
vt 0.364583 0.109375
vt 0.364583 0.192708
vt 0.489583 0.192708
vt 0.489583 0.109375
vt 0.427083 0.192708
vt 0.427083 0.276042
vt 0.083333 0.208333
vt 0.083333 0.250000
vt 0.000000 0.250000
vt 0.000000 0.208333
vt 0.109375 0.208333
vt 0.109375 0.166667
vt 0.026042 0.166667
vt 0.026042 0.208333
vt 0.140625 0.166667
vt 0.140625 0.208333
vt 0.223958 0.208333
vt 0.223958 0.166667
vt 0.166667 0.208333
vt 0.166667 0.250000
vt 0.166667 0.166667
vt 0.000000 0.166667
vt 0.083333 0.166667
vt 0.250000 0.208333
vt 0.250000 0.166667
vt 0.208333 0.208333
vt 0.208333 0.166667
vt 0.098958 0.166667
vt 0.098958 0.208333
vt 0.041667 0.208333
vt 0.041667 0.166667
vt 0.520833 0.489583
vt 0.520833 0.656250
vt 0.604167 0.656250
vt 0.604167 0.489583
vt 0.515625 0.661458
vt 0.515625 0.828125
vt 0.432292 0.828125
vt 0.432292 0.661458
vt 0.427083 0.661458
vt 0.427083 0.828125
vt 0.260417 0.828125
vt 0.260417 0.661458
vt 0.604167 0.828125
vt 0.520833 0.828125
vt 0.520833 0.661458
vt 0.604167 0.661458
vt 0.239583 0.255208
vt 0.239583 0.338542
vt 0.234375 0.338542
vt 0.234375 0.255208
vt 0.182292 0.255208
vt 0.182292 0.338542
vt 0.177083 0.338542
vt 0.177083 0.255208
vt 0.239583 0.333333
vt 0.177083 0.333333
vt 0.239583 0.260417
vt 0.177083 0.260417
vt 1.000000 1.000000
vt 0.916667 1.000000
vt 0.916667 0.750000
vt 1.000000 0.750000
vt 0.218750 0.166667
vt 0.218750 0.083333
vt 0.000000 0.083333
vt 0.515625 0.078125
vt 0.734375 0.078125
vt 0.734375 0.161458
vt 0.515625 0.161458
vt 0.218750 1.000000
vt 0.000000 1.000000
vt 0.000000 0.750000
vt 0.218750 0.750000
vt 0.520833 0.484375
vt 0.604167 0.484375
vt 0.604167 0.427083
vt 0.520833 0.427083
vt 0.750000 0.750000
vt 0.708333 0.708333
vt 0.958333 0.708333
vt 0.958333 0.666667
vt 0.708333 0.666667
vt 0.708333 0.500000
vt 0.958333 0.500000
vt 0.307292 0.437500
vt 0.307292 0.645833
vt 0.302083 0.645833
vt 0.302083 0.437500
vt 0.302083 0.661458
vt 0.302083 0.421875
vt 0.307292 0.421875
vt 0.307292 0.661458
vt 0.203125 0.640625
vt 0.203125 0.458333
vt 0.208333 0.458333
vt 0.208333 0.640625
vt 0.135417 0.520833
vt 0.135417 0.635417
vt 0.130208 0.635417
vt 0.130208 0.520833
vt 0.302083 0.635417
vt 0.302083 0.427083
vt 0.307292 0.427083
vt 0.307292 0.635417
vt 0.130208 0.640625
vt 0.130208 0.526042
vt 0.135417 0.526042
vt 0.135417 0.640625
vt 0.135417 0.479167
vt 0.135417 0.661458
vt 0.130208 0.661458
vt 0.130208 0.479167
vt 0.302083 0.651042
vt 0.302083 0.442708
vt 0.307292 0.442708
vt 0.307292 0.651042
vt 0.302083 0.463542
vt 0.307292 0.463542
vt 0.307292 0.489583
vt 0.307292 0.604167
vt 0.302083 0.604167
vt 0.302083 0.489583
vt 0.302083 0.520833
vt 0.307292 0.520833
vt 0.307292 0.458333
vt 0.307292 0.640625
vt 0.302083 0.640625
vt 0.302083 0.458333
vt 0.817708 0.760417
vt 0.755208 0.775391
vt 0.755208 0.985026
vt 0.817708 1.000000
vt 0.817708 0.775391
vt 0.817708 0.985026
vt 0.755208 1.000000
vt 0.755208 0.760417
vt 0.833333 0.935482
vt 0.895833 0.968750
vt 0.895833 0.786458
vt 0.833333 0.819727
vt 0.171875 0.661458
vt 0.171875 0.421875
vt 0.338542 0.421875
vt 0.338542 0.661458
vt 0.338542 0.437500
vt 0.338542 0.645833
vt 0.171875 0.645833
vt 0.171875 0.437500
vt 0.000000 0.661458
vt 0.000000 0.479167
vt 0.166667 0.479167
vt 0.166667 0.661458
vt 0.338542 0.468750
vt 0.338542 0.614583
vt 0.171875 0.614583
vt 0.171875 0.468750
vt 0.380208 0.588542
vt 0.338542 0.603516
vt 0.338542 0.813151
vt 0.380208 0.828125
vt 0.385417 0.783398
vt 0.427083 0.802083
vt 0.427083 0.619792
vt 0.385417 0.638477
vt 0.296875 0.645833
vt 0.296875 0.437500
vt 0.296875 0.661458
vt 0.296875 0.421875
vt 0.125000 0.661458
vt 0.125000 0.479167
vt 0.125000 0.635417
vt 0.125000 0.520833
vt 0.296875 0.635417
vt 0.296875 0.427083
vt 0.125000 0.640625
vt 0.125000 0.526042
vt 0.296875 0.651042
vt 0.296875 0.442708
vt 0.296875 0.463542
vt 0.296875 0.604167
vt 0.296875 0.489583
vt 0.296875 0.520833
vt 0.296875 0.640625
vt 0.296875 0.458333
vt 0.927083 0.208333
vt 0.927083 0.239583
vt 0.901042 0.239583
vt 0.901042 0.208333
vt 0.921875 0.208333
vt 0.921875 0.239583
vt 0.895833 0.239583
vt 0.895833 0.208333
vt 0.989583 0.276042
vt 0.843750 0.276042
vt 0.843750 0.302083
vt 0.989583 0.302083
vt 0.989583 0.239583
vt 0.843750 0.239583
vt 0.843750 0.208333
vt 0.989583 0.208333
vt 0.843750 0.250000
vt 0.989583 0.250000
vt 0.005208 0.687500
vt 0.005208 0.739583
vt 0.078125 0.739583
vt 0.078125 0.687500
vt 0.005208 0.739583
vt 0.005208 0.734375
vt 0.078125 0.734375
vt 0.005208 0.692708
vt 0.078125 0.692708
vt 0.005208 0.687500
vt 0.072917 0.739583
vt 0.072917 0.687500
vt 0.010417 0.687500
vt 0.010417 0.739583
vt 0.166667 0.687500
vt 0.166667 0.739583
vt 0.145833 0.739583
vt 0.145833 0.687500
vt 0.135417 0.687500
vt 0.135417 0.739583
vt 0.083333 0.739583
vt 0.083333 0.687500
vt 0.630208 0.703125
vt 0.661458 0.703125
vt 0.661458 0.713542
vt 0.630208 0.713542
vt 0.661458 0.796875
vt 0.661458 0.828125
vt 0.630208 0.828125
vt 0.630208 0.796875
vt 0.661458 0.869792
vt 0.661458 0.838542
vt 0.630208 0.838542
vt 0.630208 0.869792
vt 0.630208 0.765625
vt 0.661458 0.765625
vt 0.546875 0.843750
vt 0.515625 0.843750
vt 0.515625 0.812500
vt 0.546875 0.812500
vt 0.630208 0.718750
vt 0.661458 0.718750
vt 0.661458 0.755208
vt 0.630208 0.755208
vt 0.661458 0.760417
vt 0.661458 0.791667
vt 0.630208 0.791667
vt 0.630208 0.760417
vt 0.630208 0.776042
vt 0.661458 0.776042
vt 0.661458 0.807292
vt 0.630208 0.807292
vt 0.661458 0.802083
vt 0.630208 0.802083
vt 0.630208 0.750000
vt 0.661458 0.750000
vt 0.630208 0.744792
vt 0.661458 0.744792
vt 0.661458 0.786458
vt 0.630208 0.786458
vt 0.661458 0.817708
vt 0.630208 0.817708
vt 0.500000 0.739583
vt 0.500000 0.770833
vt 0.468750 0.770833
vt 0.468750 0.739583
vt 0.630208 0.708333
vt 0.661458 0.708333
vt 0.010417 0.973958
vt 0.000000 0.973958
vt 0.000000 0.901042
vt 0.010417 0.901042
vt 0.208333 1.000000
vt 0.104167 1.000000
vt 0.104167 0.989583
vt 0.208333 0.989583
vt 0.000000 0.989583
vt 0.114583 1.000000
vt 0.114583 0.989583
vt 0.218750 0.989583
vt 0.010417 0.989583
vt 0.010417 1.000000
vt 0.026042 1.000000
vt 0.130208 1.000000
vt 0.130208 0.989583
vt 0.026042 0.989583
vt 0.187500 1.000000
vt 0.031250 1.000000
vt 0.031250 0.989583
vt 0.187500 0.989583
vt 0.156250 1.000000
vt 0.156250 0.989583
vt 0.010417 0.968750
vt 0.000000 0.968750
vt 0.000000 0.958333
vt 0.010417 0.958333
vt 0.166667 1.000000
vt 0.166667 0.989583
vt 0.182292 1.000000
vt 0.015625 1.000000
vt 0.015625 0.989583
vt 0.182292 0.989583
s 0
usemtl alternator
f 7/1/1 9/4/1 8/3/1 6/2/1
f 7/1/2 6/2/2 2/3/2 3/4/2
f 8/2/3 9/1/3 5/4/3 4/3/3
f 6/5/4 8/8/4 4/7/4 2/6/4
f 15/9/1 17/12/1 16/11/1 14/10/1
f 15/13/2 14/16/2 10/15/2 11/14/2
f 16/13/3 17/16/3 13/15/3 12/14/3
f 14/15/4 16/14/4 12/13/4 10/16/4
f 11/15/5 13/14/5 17/13/5 15/16/5
f 23/1/1 25/4/1 24/3/1 22/2/1
f 23/1/2 22/2/2 18/3/2 19/4/2
f 24/2/3 25/1/3 21/4/3 20/3/3
f 22/5/4 24/8/4 20/7/4 18/6/4
f 31/9/1 33/12/1 32/11/1 30/10/1
f 31/13/2 30/16/2 26/15/2 27/14/2
f 32/13/3 33/16/3 29/15/3 28/14/3
f 30/15/4 32/14/4 28/13/4 26/16/4
f 27/15/5 29/14/5 33/13/5 31/16/5
f 38/1/1 40/4/1 39/3/1 37/2/1
f 38/1/2 37/2/2 34/3/2 35/4/2
f 39/2/3 40/1/3 1/4/3 36/3/3
f 37/5/4 39/8/4 36/7/4 34/6/4
f 46/9/1 48/12/1 47/11/1 45/10/1
f 46/13/2 45/16/2 41/15/2 42/14/2
f 47/13/3 48/16/3 44/15/3 43/14/3
f 45/15/4 47/14/4 43/13/4 41/16/4
f 42/15/5 44/14/5 48/13/5 46/16/5
f 51/17/3 49/20/3 50/19/3 52/18/3
f 58/21/3 53/24/3 54/23/3 57/22/3
f 57/25/3 56/28/3 55/27/3 58/26/3
f 60/19/3 59/20/3 61/17/3 62/18/3
f 68/29/3 63/32/3 64/31/3 67/30/3
f 67/31/3 66/30/3 65/29/3 68/32/3
f 70/18/3 69/17/3 71/20/3 72/19/3
f 74/23/3 73/24/3 78/21/3 77/22/3
f 75/33/3 76/34/3 77/19/3 78/20/3
f 81/20/3 79/17/3 80/18/3 82/19/3
f 88/29/3 83/32/3 84/31/3 87/30/3
f 87/31/3 86/30/3 85/29/3 88/32/3
f 90/19/2 89/20/2 91/17/2 92/18/2
f 94/23/2 93/24/2 98/21/2 97/22/2
f 95/27/2 96/28/2 97/25/2 98/26/2
f 101/17/2 99/20/2 100/19/2 102/18/2
f 104/31/2 103/32/2 108/29/2 107/30/2
f 105/29/2 106/30/2 107/31/2 108/32/2
f 111/20/2 109/17/2 110/18/2 112/19/2
f 118/21/2 113/24/2 114/23/2 117/22/2
f 117/19/2 116/34/2 115/33/2 118/20/2
f 120/18/2 119/17/2 121/20/2 122/19/2
f 124/31/2 123/32/2 128/29/2 127/30/2
f 125/29/2 126/30/2 127/31/2 128/32/2
f 140/35/1 131/38/1 129/37/1 139/36/1
f 137/39/6 130/42/6 135/41/6 138/40/6
f 138/43/6 136/46/6 133/45/6 137/44/6
f 139/36/1 132/48/1 134/47/1 140/35/1
f 144/49/4 143/50/4 141/38/4 142/47/4
f 148/50/6 147/51/6 145/35/6 146/38/6
f 149/47/6 151/49/6 153/53/6 150/52/6
f 150/38/5 153/50/5 154/49/5 152/47/5
f 155/35/5 156/51/5 160/55/5 159/54/5
f 158/46/5 157/45/5 159/57/5 160/56/5
f 163/52/1 166/53/1 164/49/1 162/47/1
f 161/35/5 165/51/5 166/53/5 163/52/5
f 167/48/6 169/47/6 178/35/6 177/36/6
f 173/41/1 168/42/1 175/39/1 176/40/1
f 171/45/1 174/46/1 176/43/1 175/44/1
f 172/38/6 170/37/6 177/36/6 178/35/6
f 182/51/1 184/50/1 181/38/1 180/35/1
f 184/53/4 183/51/4 179/35/4 181/52/4
f 187/51/4 185/35/4 189/54/4 190/55/4
f 186/47/4 188/49/4 190/59/4 189/58/4
f 191/35/5 192/38/5 194/50/5 193/51/5
f 199/54/5 195/35/5 197/51/5 200/55/5
f 200/59/5 198/49/5 196/47/5 199/58/5
f 204/53/5 202/52/5 201/47/5 203/49/5
f 208/50/4 206/38/4 205/35/4 207/51/4
f 211/51/4 209/35/4 213/54/4 214/55/4
f 210/47/4 212/49/4 214/59/4 213/58/4
f 215/47/4 216/52/4 218/53/4 217/49/4
f 222/60/6 221/63/6 219/62/6 220/61/6
f 225/64/1 226/67/1 224/66/1 223/65/1
f 221/68/5 225/71/5 223/70/5 219/69/5
f 226/68/4 222/71/4 220/70/4 224/69/4
f 219/72/2 223/75/2 224/74/2 220/73/2
f 230/76/4 229/79/4 227/78/4 228/77/4
f 233/80/5 234/83/5 232/82/5 231/81/5
f 227/84/2 231/85/2 232/82/2 228/77/2
f 230/76/3 234/83/3 233/87/3 229/86/3
f 229/76/6 233/83/6 231/82/6 227/77/6
f 235/88/6 237/91/6 238/90/6 236/89/6
f 240/88/1 242/91/1 241/90/1 239/89/1
f 240/50/2 239/94/2 235/93/2 236/92/2
f 241/95/3 242/98/3 238/97/3 237/96/3
f 239/99/4 241/102/4 237/101/4 235/100/4
f 236/99/5 238/102/5 242/101/5 240/100/5
f 243/103/7 245/106/7 246/105/7 244/104/7
f 248/104/8 250/105/8 249/106/8 247/103/8
f 247/90/4 249/109/4 245/108/4 243/107/4
f 244/90/5 246/109/5 250/108/5 248/107/5
f 248/72/2 247/73/2 243/74/2 244/75/2
f 251/73/6 253/74/6 254/75/6 252/72/6
f 256/65/1 258/64/1 257/67/1 255/66/1
f 255/110/4 257/113/4 253/112/4 251/111/4
f 252/110/5 254/113/5 258/112/5 256/111/5
f 275/114/3 261/117/3 262/116/3 277/115/3
f 278/118/2 260/121/2 259/120/2 276/119/2
f 276/122/8 259/125/8 263/124/8 279/123/8
f 280/126/9 265/129/9 261/128/9 275/127/9
f 281/130/6 266/133/6 265/132/6 280/131/6
f 279/118/1 263/121/1 264/120/1 282/119/1
f 283/134/7 269/137/7 266/136/7 281/135/7
f 282/138/10 264/141/10 267/140/10 284/139/10
f 285/142/2 270/145/2 269/144/2 283/143/2
f 284/120/3 267/119/3 268/118/3 286/121/3
f 287/116/7 271/115/7 260/147/7 278/146/7
f 277/148/10 262/151/10 273/150/10 288/149/10
f 288/130/1 273/133/1 274/132/1 289/131/1
f 290/120/6 272/119/6 271/118/6 287/121/6
f 289/130/8 274/133/8 270/153/8 285/152/8
f 286/154/9 268/157/9 272/156/9 290/155/9
f 299/158/5 300/161/5 292/160/5 291/159/5
f 294/162/5 302/165/5 301/164/5 293/163/5
f 296/159/5 304/158/5 303/161/5 295/160/5
f 305/158/5 306/161/5 298/160/5 297/159/5
f 308/166/5 307/169/5 309/168/5 310/167/5
f 313/167/5 311/166/5 312/169/5 314/168/5
f 316/166/5 315/169/5 317/168/5 318/167/5
f 321/167/5 319/166/5 320/169/5 322/168/5
f 324/160/4 332/161/4 331/158/4 323/159/4
f 333/161/4 334/158/4 326/159/4 325/160/4
f 335/161/4 336/158/4 328/159/4 327/160/4
f 330/160/4 338/161/4 337/158/4 329/159/4
f 341/168/4 339/169/4 340/166/4 342/167/4
f 344/169/4 343/166/4 345/167/4 346/168/4
f 349/168/4 347/169/4 348/166/4 350/167/4
f 352/169/4 351/166/4 353/167/4 354/168/4
f 358/170/2 357/173/2 355/172/2 356/171/2
f 361/174/3 362/177/3 360/176/3 359/175/3
f 363/173/1 365/172/1 366/171/1 364/170/1
f 368/177/6 370/176/6 369/175/6 367/174/6
f 371/171/3 373/170/3 374/173/3 372/172/3
f 376/177/2 378/176/2 377/175/2 375/174/2
f 382/172/6 381/171/6 379/170/6 380/173/6
f 385/174/1 386/177/1 384/176/1 383/175/1
f 380/178/7 379/181/7 357/180/7 358/179/7
f 383/182/10 384/185/10 362/184/10 361/183/10
f 377/182/8 378/185/8 386/184/8 385/183/8
f 374/180/9 373/179/9 381/178/9 382/181/9
f 368/184/9 367/183/9 359/182/9 360/185/9
f 363/180/8 364/179/8 356/178/8 355/181/8
f 369/182/7 370/185/7 376/184/7 375/183/7
f 366/180/10 365/179/10 371/178/10 372/181/10
f 387/186/5 388/189/5 390/188/5 389/187/5
f 394/187/5 392/186/5 391/189/5 393/188/5
f 398/188/5 396/189/5 395/186/5 397/187/5
f 399/186/5 400/189/5 402/188/5 401/187/5
f 401/190/5 390/193/5 388/192/5 399/191/5
f 400/192/5 396/191/5 398/190/5 402/193/5
f 389/190/5 393/193/5 391/192/5 387/191/5
f 395/191/5 392/192/5 394/193/5 397/190/5
f 419/117/3 405/195/3 406/194/3 421/116/3
f 422/196/2 404/118/2 403/119/2 420/197/2
f 420/198/8 403/140/8 407/141/8 423/199/8
f 424/129/9 409/201/9 405/200/9 419/128/9
f 425/202/6 410/130/6 409/131/6 424/203/6
f 423/196/1 407/118/1 408/119/1 426/197/1
f 427/204/7 413/134/7 410/135/7 425/205/7
f 426/141/10 408/199/10 411/198/10 428/140/10
f 429/206/2 414/142/2 413/143/2 427/207/2
f 428/119/3 411/197/3 412/196/3 430/118/3
f 431/194/7 415/116/7 404/146/7 422/208/7
f 421/151/10 406/210/10 417/209/10 432/150/10
f 432/202/1 417/130/1 418/131/1 433/203/1
f 434/119/6 416/197/6 415/196/6 431/118/6
f 433/202/8 418/130/8 414/152/8 429/211/8
f 430/157/9 412/213/9 416/212/9 434/156/9
f 443/158/5 444/161/5 436/160/5 435/159/5
f 438/159/5 446/158/5 445/161/5 437/160/5
f 440/159/5 448/158/5 447/161/5 439/160/5
f 449/158/5 450/161/5 442/160/5 441/159/5
f 452/166/5 451/169/5 453/168/5 454/167/5
f 457/167/5 455/166/5 456/169/5 458/168/5
f 460/166/5 459/169/5 461/168/5 462/167/5
f 465/167/5 463/166/5 464/169/5 466/168/5
f 468/160/4 476/161/4 475/158/4 467/159/4
f 477/164/4 478/165/4 470/162/4 469/163/4
f 479/161/4 480/158/4 472/159/4 471/160/4
f 474/160/4 482/161/4 481/158/4 473/159/4
f 485/168/4 483/169/4 484/166/4 486/167/4
f 488/169/4 487/166/4 489/167/4 490/168/4
f 493/168/4 491/169/4 492/166/4 494/167/4
f 496/169/4 495/166/4 497/167/4 498/168/4
f 501/214/5 505/217/5 503/216/5 499/215/5
f 506/218/4 502/221/4 500/220/4 504/219/4
f 504/222/6 500/225/6 499/224/6 503/223/6
f 500/226/3 502/229/3 501/228/3 499/227/3
f 502/230/1 506/223/1 505/222/1 501/231/1
f 509/214/5 513/217/5 511/216/5 507/215/5
f 514/218/4 510/221/4 508/220/4 512/219/4
f 512/222/6 508/225/6 507/224/6 511/223/6
f 508/226/3 510/229/3 509/228/3 507/227/3
f 510/230/1 514/223/1 513/222/1 509/231/1
f 517/214/5 521/217/5 519/216/5 515/215/5
f 522/218/4 518/221/4 516/220/4 520/219/4
f 520/222/6 516/225/6 515/224/6 519/223/6
f 516/226/3 518/229/3 517/228/3 515/227/3
f 518/230/1 522/223/1 521/222/1 517/231/1
f 525/214/5 529/217/5 527/216/5 523/215/5
f 530/218/4 526/221/4 524/220/4 528/219/4
f 528/222/9 524/225/9 523/224/9 527/223/9
f 524/226/10 526/229/10 525/228/10 523/227/10
f 526/230/8 530/223/8 529/222/8 525/231/8
f 533/214/5 537/217/5 535/216/5 531/215/5
f 538/218/4 534/221/4 532/220/4 536/219/4
f 536/222/9 532/225/9 531/224/9 535/223/9
f 532/226/10 534/229/10 533/228/10 531/227/10
f 534/230/8 538/223/8 537/222/8 533/231/8
f 541/214/5 545/217/5 543/216/5 539/215/5
f 546/218/4 542/221/4 540/220/4 544/219/4
f 544/222/9 540/225/9 539/224/9 543/223/9
f 540/226/10 542/229/10 541/228/10 539/227/10
f 542/230/8 546/223/8 545/222/8 541/231/8
f 549/214/5 553/217/5 551/216/5 547/215/5
f 554/218/4 550/221/4 548/220/4 552/219/4
f 552/222/3 548/225/3 547/224/3 551/223/3
f 548/226/1 550/229/1 549/228/1 547/227/1
f 550/230/2 554/223/2 553/222/2 549/231/2
f 557/214/5 561/217/5 559/216/5 555/215/5
f 562/218/4 558/221/4 556/220/4 560/219/4
f 560/222/3 556/225/3 555/224/3 559/223/3
f 556/226/1 558/229/1 557/228/1 555/227/1
f 558/230/2 562/223/2 561/222/2 557/231/2
f 565/214/5 569/217/5 567/216/5 563/215/5
f 570/218/4 566/221/4 564/220/4 568/219/4
f 568/222/3 564/225/3 563/224/3 567/223/3
f 564/226/1 566/229/1 565/228/1 563/227/1
f 566/230/2 570/223/2 569/222/2 565/231/2
f 573/214/5 577/217/5 575/216/5 571/215/5
f 578/218/4 574/221/4 572/220/4 576/219/4
f 576/222/7 572/225/7 571/224/7 575/223/7
f 572/226/9 574/229/9 573/228/9 571/227/9
f 574/230/10 578/223/10 577/222/10 573/231/10
f 581/214/5 585/217/5 583/216/5 579/215/5
f 586/218/4 582/221/4 580/220/4 584/219/4
f 584/222/7 580/225/7 579/224/7 583/223/7
f 580/226/9 582/229/9 581/228/9 579/227/9
f 582/230/10 586/223/10 585/222/10 581/231/10
f 589/214/5 593/217/5 591/216/5 587/215/5
f 594/218/4 590/221/4 588/220/4 592/219/4
f 592/222/7 588/225/7 587/224/7 591/223/7
f 588/226/9 590/229/9 589/228/9 587/227/9
f 590/230/10 594/223/10 593/222/10 589/231/10
f 597/214/5 601/217/5 599/216/5 595/215/5
f 602/218/4 598/221/4 596/220/4 600/219/4
f 600/222/2 596/225/2 595/224/2 599/223/2
f 596/226/6 598/229/6 597/228/6 595/227/6
f 598/230/3 602/223/3 601/222/3 597/231/3
f 605/214/5 609/217/5 607/216/5 603/215/5
f 610/218/4 606/221/4 604/220/4 608/219/4
f 608/222/2 604/225/2 603/224/2 607/223/2
f 604/226/6 606/229/6 605/228/6 603/227/6
f 606/230/3 610/223/3 609/222/3 605/231/3
f 613/214/5 617/217/5 615/216/5 611/215/5
f 618/218/4 614/221/4 612/220/4 616/219/4
f 616/222/2 612/225/2 611/224/2 615/223/2
f 612/226/6 614/229/6 613/228/6 611/227/6
f 614/230/3 618/223/3 617/222/3 613/231/3
f 621/214/5 625/217/5 623/216/5 619/215/5
f 626/218/4 622/221/4 620/220/4 624/219/4
f 624/222/8 620/225/8 619/224/8 623/223/8
f 620/226/7 622/229/7 621/228/7 619/227/7
f 622/230/9 626/223/9 625/222/9 621/231/9
f 629/214/5 633/217/5 631/216/5 627/215/5
f 634/218/4 630/221/4 628/220/4 632/219/4
f 632/222/8 628/225/8 627/224/8 631/223/8
f 628/226/7 630/229/7 629/228/7 627/227/7
f 630/230/9 634/223/9 633/222/9 629/231/9
f 637/214/5 641/217/5 639/216/5 635/215/5
f 642/218/4 638/221/4 636/220/4 640/219/4
f 640/222/8 636/225/8 635/224/8 639/223/8
f 636/226/7 638/229/7 637/228/7 635/227/7
f 638/230/9 642/223/9 641/222/9 637/231/9
f 645/214/5 649/217/5 647/216/5 643/215/5
f 650/218/4 646/221/4 644/220/4 648/219/4
f 648/222/1 644/225/1 643/224/1 647/223/1
f 644/226/2 646/229/2 645/228/2 643/227/2
f 646/230/6 650/223/6 649/222/6 645/231/6
f 653/214/5 657/217/5 655/216/5 651/215/5
f 658/218/4 654/221/4 652/220/4 656/219/4
f 656/222/1 652/225/1 651/224/1 655/223/1
f 652/226/2 654/229/2 653/228/2 651/227/2
f 654/230/6 658/223/6 657/222/6 653/231/6
f 661/214/5 665/217/5 663/216/5 659/215/5
f 666/218/4 662/221/4 660/220/4 664/219/4
f 664/222/1 660/225/1 659/224/1 663/223/1
f 660/226/2 662/229/2 661/228/2 659/227/2
f 662/230/6 666/223/6 665/222/6 661/231/6
f 669/214/5 673/217/5 671/216/5 667/215/5
f 674/218/4 670/221/4 668/220/4 672/219/4
f 672/222/10 668/225/10 667/224/10 671/223/10
f 668/226/8 670/229/8 669/228/8 667/227/8
f 670/230/7 674/223/7 673/222/7 669/231/7
f 677/214/5 681/217/5 679/216/5 675/215/5
f 682/218/4 678/221/4 676/220/4 680/219/4
f 680/222/10 676/225/10 675/224/10 679/223/10
f 676/226/8 678/229/8 677/228/8 675/227/8
f 678/230/7 682/223/7 681/222/7 677/231/7
f 685/214/5 689/217/5 687/216/5 683/215/5
f 690/218/4 686/221/4 684/220/4 688/219/4
f 688/222/10 684/225/10 683/224/10 687/223/10
f 684/226/8 686/229/8 685/228/8 683/227/8
f 686/230/7 690/223/7 689/222/7 685/231/7
f 697/232/1 698/235/1 696/234/1 695/233/1
f 691/234/2 695/238/2 696/237/2 692/236/2
f 694/239/3 698/241/3 697/235/3 693/240/3
f 693/235/5 697/243/5 695/242/5 691/234/5
f 698/244/4 694/241/4 692/236/4 696/245/4
f 705/232/6 706/235/6 704/234/6 703/233/6
f 699/234/2 703/238/2 704/237/2 700/236/2
f 702/239/3 706/241/3 705/235/3 701/240/3
f 701/235/4 705/243/4 703/242/4 699/234/4
f 706/244/5 702/241/5 700/236/5 704/245/5
f 710/246/4 709/249/4 707/248/4 708/247/4
f 713/249/5 714/246/5 712/247/5 711/248/5
f 707/248/2 711/249/2 712/246/2 708/247/2
f 710/247/3 714/246/3 713/249/3 709/248/3
f 709/250/6 713/253/6 711/252/6 707/251/6
f 718/254/6 717/257/6 715/256/6 716/255/6
f 721/254/1 722/257/1 720/256/1 719/255/1
f 715/255/2 719/254/2 720/257/2 716/256/2
f 718/255/3 722/254/3 721/257/3 717/256/3
f 725/258/5 726/261/5 724/260/5 723/259/5
f 722/258/4 718/261/4 716/260/4 720/259/4
f 723/262/6 715/265/6 717/264/6 725/263/6
f 724/266/2 719/261/2 715/258/2 723/267/2
f 726/263/1 721/264/1 719/265/1 724/262/1
f 731/268/3 734/271/3 733/270/3 732/269/3
f 728/272/5 726/275/5 725/274/5 727/273/5
f 729/272/1 721/275/1 726/274/1 728/273/1
f 730/272/4 717/275/4 721/274/4 729/273/4
f 727/272/6 725/275/6 717/274/6 730/273/6
f 739/276/5 742/279/5 741/278/5 740/277/5
f 733/262/1 729/263/1 728/264/1 732/265/1
f 734/280/4 730/283/4 729/282/4 733/281/4
f 731/265/6 727/264/6 730/263/6 734/262/6
f 736/284/3 731/276/3 732/279/3 735/285/3
f 737/277/6 727/287/6 731/286/6 736/278/6
f 738/288/2 728/291/2 727/290/2 737/289/2
f 735/292/1 732/281/1 728/280/1 738/293/1
f 740/262/3 736/263/3 735/264/3 739/265/3
f 741/279/6 737/278/6 736/277/6 740/276/6
f 742/265/2 738/264/2 737/263/2 741/262/2
f 743/294/1 746/297/1 745/296/1 744/295/1
f 744/267/5 742/299/5 739/298/5 743/266/5
f 745/267/2 738/299/2 742/298/2 744/266/2
f 746/298/4 735/266/4 738/267/4 745/299/4
f 743/267/3 739/299/3 735/298/3 746/266/3
f 750/246/6 749/249/6 747/248/6 748/247/6
f 753/249/1 754/246/1 752/247/1 751/248/1
f 747/248/2 751/249/2 752/246/2 748/247/2
f 750/247/3 754/246/3 753/249/3 749/248/3
f 749/250/5 753/253/5 751/252/5 747/251/5
f 755/300/1 757/303/1 758/302/1 756/301/1
f 760/300/6 762/303/6 761/302/6 759/301/6
f 759/300/5 761/303/5 757/302/5 755/301/5
f 756/301/4 758/302/4 762/303/4 760/300/4
f 763/300/1 765/303/1 766/302/1 764/301/1
f 768/300/6 770/303/6 769/302/6 767/301/6
f 767/300/5 769/303/5 765/302/5 763/301/5
f 764/301/4 766/302/4 770/303/4 768/300/4
f 774/302/6 773/303/6 771/300/6 772/301/6
f 777/302/1 778/303/1 776/300/1 775/301/1
f 773/303/5 777/302/5 775/301/5 771/300/5
f 778/303/4 774/302/4 772/301/4 776/300/4
f 782/302/6 781/303/6 779/300/6 780/301/6
f 785/302/1 786/303/1 784/300/1 783/301/1
f 781/302/5 785/303/5 783/300/5 779/301/5
f 786/303/4 782/302/4 780/301/4 784/300/4
f 790/304/3 789/307/3 797/306/3 798/305/3
f 793/308/2 794/100/2 795/305/2 796/306/2
f 789/307/5 793/304/5 796/305/5 797/306/5
f 794/99/4 790/311/4 798/310/4 795/309/4
f 790/308/1 794/100/1 793/313/1 789/312/1
f 792/314/2 791/317/2 796/316/2 795/315/2
f 791/100/5 787/308/5 797/306/5 796/305/5
f 787/308/3 788/100/3 798/305/3 797/306/3
f 788/308/4 792/100/4 795/305/4 798/306/4
f 802/318/3 801/321/3 799/320/3 800/319/3
f 805/321/2 806/318/2 804/319/2 803/320/2
f 801/321/6 805/318/6 803/319/6 799/320/6
f 806/318/1 802/321/1 800/320/1 804/319/1
f 807/300/1 809/303/1 810/302/1 808/301/1
f 812/300/6 814/303/6 813/302/6 811/301/6
f 811/300/5 813/303/5 809/302/5 807/301/5
f 808/301/4 810/302/4 814/303/4 812/300/4
f 825/306/3 817/307/3 818/304/3 826/305/3
f 823/305/2 822/100/2 821/308/2 824/306/2
f 824/305/5 821/304/5 817/307/5 825/306/5
f 826/310/4 818/311/4 822/99/4 823/309/4
f 821/313/6 822/100/6 818/308/6 817/312/6
f 824/316/2 819/317/2 820/314/2 823/315/2
f 825/306/5 815/308/5 819/100/5 824/305/5
f 826/305/3 816/100/3 815/308/3 825/306/3
f 823/305/4 820/100/4 816/308/4 826/306/4
f 827/300/1 829/303/1 830/302/1 828/301/1
f 832/300/6 834/303/6 833/302/6 831/301/6
f 831/301/5 833/302/5 829/303/5 827/300/5
f 828/301/4 830/302/4 834/303/4 832/300/4
f 838/302/6 837/303/6 835/300/6 836/301/6
f 841/302/1 842/303/1 840/300/1 839/301/1
f 837/302/5 841/303/5 839/300/5 835/301/5
f 842/303/4 838/302/4 836/301/4 840/300/4
f 843/320/3 845/321/3 846/318/3 844/319/3
f 848/319/2 850/318/2 849/321/2 847/320/2
f 847/322/1 849/100/1 845/308/1 843/323/1
f 844/323/6 846/308/6 850/100/6 848/322/6
f 845/324/5 849/327/5 850/326/5 846/325/5
f 854/302/6 853/303/6 851/300/6 852/301/6
f 857/302/1 858/303/1 856/300/1 855/301/1
f 853/302/5 857/303/5 855/300/5 851/301/5
f 858/303/4 854/302/4 852/301/4 856/300/4
f 862/303/6 861/302/6 859/301/6 860/300/6
f 865/302/1 866/303/1 864/300/1 863/301/1
f 861/302/5 865/303/5 863/300/5 859/301/5
f 866/303/4 862/302/4 860/301/4 864/300/4
f 870/318/3 869/321/3 867/320/3 868/319/3
f 873/321/2 874/318/2 872/319/2 871/320/2
f 869/321/6 873/318/6 871/319/6 867/320/6
f 874/318/1 870/321/1 868/320/1 872/319/1
f 878/302/6 877/303/6 875/300/6 876/301/6
f 881/302/1 882/303/1 880/300/1 879/301/1
f 877/303/5 881/302/5 879/301/5 875/300/5
f 882/303/4 878/302/4 876/301/4 880/300/4
f 886/328/3 885/329/3 883/308/3 884/100/3
f 889/100/2 890/308/2 888/329/2 887/328/2
f 886/312/1 890/313/1 889/100/1 885/308/1
f 885/308/5 889/100/5 887/328/5 883/329/5
f 890/330/4 886/333/4 884/332/4 888/331/4
f 891/301/1 893/302/1 894/303/1 892/300/1
f 896/300/6 898/303/6 897/302/6 895/301/6
f 895/300/5 897/303/5 893/302/5 891/301/5
f 892/301/4 894/302/4 898/303/4 896/300/4
f 899/301/1 901/302/1 902/303/1 900/300/1
f 904/300/6 906/303/6 905/302/6 903/301/6
f 903/300/5 905/303/5 901/302/5 899/301/5
f 900/301/4 902/302/4 906/303/4 904/300/4
