# Blender 4.2.3 LTS
# www.blender.org
mtllib alternator.mtl
o small_wheel
v 0.437500 -0.437500 0.991379
v 0.437500 -0.437500 -1.008621
v -0.437500 -0.437500 0.991379
v -0.437500 -0.437500 -1.008621
v 0.437500 0.437500 0.991379
v 0.437500 0.437500 -1.008621
v -0.437500 0.437500 0.991379
v -0.437500 0.437500 -1.008621
v 1.875000 -0.250000 -0.133621
v 1.875000 -0.250000 -0.633621
v 0.437500 -0.250000 -0.133621
v 0.437500 -0.250000 -0.633621
v 1.875000 0.250000 -0.133621
v 1.875000 0.250000 -0.633621
v 0.437500 0.250000 -0.133621
v 0.437500 0.250000 -0.633621
v -0.250000 -1.750000 -0.133621
v -0.250000 -1.750000 -0.633621
v -0.250000 -0.312500 -0.133621
v -0.250000 -0.312500 -0.633621
v 0.250000 -1.750000 -0.133621
v 0.250000 -1.750000 -0.633621
v 0.250000 -0.312500 -0.133621
v 0.250000 -0.312500 -0.633621
v -0.437500 -0.250000 -0.133621
v -0.437500 -0.250000 -0.633621
v -1.875000 -0.250000 -0.133621
v -1.875000 -0.250000 -0.633621
v -0.437500 0.250000 -0.133621
v -0.437500 0.250000 -0.633621
v -1.875000 0.250000 -0.133621
v -1.875000 0.250000 -0.633621
v -0.250000 0.312500 -0.133621
v -0.250000 0.312500 -0.633621
v -0.250000 1.750000 -0.133621
v -0.250000 1.750000 -0.633621
v 0.250000 0.312500 -0.133621
v 0.250000 0.312500 -0.633621
v 0.250000 1.750000 -0.133621
v 0.250000 1.750000 -0.633621
v 1.502602 1.149049 0.678879
v 1.502602 1.149049 0.178879
v 0.441942 0.088388 0.678879
v 0.441942 0.088388 0.178879
v 1.149049 1.502602 0.678879
v 1.149049 1.502602 0.178879
v 0.088388 0.441942 0.678879
v 0.088388 0.441942 0.178879
v 1.149049 -1.502602 0.678879
v 1.149049 -1.502602 0.178879
v 0.044194 -0.397747 0.678879
v 0.044194 -0.397747 0.178879
v 1.502602 -1.149048 0.678879
v 1.502602 -1.149048 0.178879
v 0.397747 -0.044194 0.678879
v 0.397747 -0.044194 0.178879
v -0.088388 -0.441941 0.678879
v -0.088388 -0.441942 0.178879
v -1.149049 -1.502602 0.678879
v -1.149049 -1.502602 0.178879
v -0.441942 -0.088388 0.678879
v -0.441942 -0.088388 0.178879
v -1.502602 -1.149048 0.678879
v -1.502602 -1.149048 0.178879
v -0.397747 0.044195 0.678879
v -0.397747 0.044195 0.178879
v -1.502602 1.149049 0.678879
v -1.502602 1.149049 0.178879
v -0.044194 0.397748 0.678879
v -0.044194 0.397748 0.178879
v -1.149049 1.502602 0.678879
v -1.149049 1.502602 0.178879
v 1.875000 0.812500 0.991379
v 1.875000 0.812500 -1.008621
v 1.875000 -0.812500 0.991379
v 1.875000 -0.812500 -1.008621
v 1.500000 0.710938 0.991379
v 1.500000 0.710938 -1.008621
v 1.500000 -0.710937 0.991379
v 1.500000 -0.710937 -1.008621
v 0.812500 1.875000 0.991379
v 0.812500 1.875000 -1.008621
v -0.812500 1.875000 0.991379
v -0.812500 1.875000 -1.008621
v 0.710938 1.500000 0.991379
v 0.710938 1.500000 -1.008621
v -0.710938 1.500000 0.991379
v -0.710938 1.500000 -1.008621
v -1.875000 0.812500 0.991379
v -1.875000 0.812500 -1.008621
v -1.875000 -0.812500 0.991379
v -1.875000 -0.812500 -1.008621
v -1.500000 0.710938 0.991379
v -1.500000 0.710938 -1.008621
v -1.500000 -0.710937 0.991379
v -1.500000 -0.710937 -1.008621
v 0.812500 -1.875000 0.991379
v 0.812500 -1.875000 -1.008621
v -0.812500 -1.875000 0.991379
v -0.812500 -1.875000 -1.008621
v 0.710938 -1.500000 0.991379
v 0.710938 -1.500000 -1.008621
v -0.710938 -1.500000 0.991379
v -0.710938 -1.500000 -1.008621
v 1.679379 -1.502602 0.866379
v 1.679379 -1.502602 -0.883621
v 1.370019 -1.193242 0.866379
v 1.370019 -1.193242 -0.883621
v 2.121320 -1.060660 0.866379
v 2.121320 -1.060660 -0.883621
v 1.811961 -0.751301 0.866379
v 1.811961 -0.751301 -0.883621
v 1.060660 -2.121320 0.866379
v 1.060660 -2.121320 -0.883621
v 0.751301 -1.811961 0.866379
v 0.751301 -1.811961 -0.883621
v 1.502602 -1.679378 0.866379
v 1.502602 -1.679378 -0.883621
v 1.193243 -1.370019 0.866379
v 1.193243 -1.370019 -0.883621
v 2.250000 -0.750000 0.866379
v 2.250000 -0.750000 -0.883621
v 1.812500 -0.750000 0.866379
v 1.812500 -0.750000 -0.883621
v 2.250000 -0.125000 0.866379
v 2.250000 -0.125000 -0.883621
v 1.812500 -0.125000 0.866379
v 1.812500 -0.125000 -0.883621
v 2.250000 0.125000 0.866379
v 2.250000 0.125000 -0.883621
v 1.812500 0.125000 0.866379
v 1.812500 0.125000 -0.883621
v 2.250000 0.750000 0.866379
v 2.250000 0.750000 -0.883621
v 1.812500 0.750000 0.866379
v 1.812500 0.750000 -0.883621
v 1.502602 1.679379 0.866379
v 1.502602 1.679379 -0.883621
v 1.193243 1.370020 0.866379
v 1.193243 1.370020 -0.883621
v 1.060660 2.121320 0.866379
v 1.060660 2.121320 -0.883621
v 0.751301 1.811961 0.866379
v 0.751301 1.811961 -0.883621
v 2.121320 1.060660 0.866379
v 2.121320 1.060660 -0.883621
v 1.811961 0.751301 0.866379
v 1.811961 0.751301 -0.883621
v 1.679379 1.502602 0.866379
v 1.679379 1.502602 -0.883621
v 1.370019 1.193243 0.866379
v 1.370019 1.193243 -0.883621
v 0.125000 -2.250000 0.866379
v 0.125000 -2.250000 -0.883621
v 0.125000 -1.812500 0.866379
v 0.125000 -1.812500 -0.883621
v 0.750000 -2.250000 0.866379
v 0.750000 -2.250000 -0.883621
v 0.750000 -1.812500 0.866379
v 0.750000 -1.812500 -0.883621
v -0.750000 -2.250000 0.866379
v -0.750000 -2.250000 -0.883621
v -0.750000 -1.812500 0.866379
v -0.750000 -1.812500 -0.883621
v -0.125000 -2.250000 0.866379
v -0.125000 -2.250000 -0.883621
v -0.125000 -1.812500 0.866379
v -0.125000 -1.812500 -0.883621
v -0.125000 2.250000 0.866379
v -0.125000 2.250000 -0.883621
v -0.125000 1.812500 0.866379
v -0.125000 1.812500 -0.883621
v -0.750000 2.250000 0.866379
v -0.750000 2.250000 -0.883621
v -0.750000 1.812500 0.866379
v -0.750000 1.812500 -0.883621
v 0.750000 2.250000 0.866379
v 0.750000 2.250000 -0.883621
v 0.750000 1.812500 0.866379
v 0.750000 1.812500 -0.883621
v 0.125000 2.250000 0.866379
v 0.125000 2.250000 -0.883621
v 0.125000 1.812500 0.866379
v 0.125000 1.812500 -0.883621
v -1.679379 1.502602 0.866379
v -1.679379 1.502602 -0.883621
v -1.370019 1.193243 0.866379
v -1.370019 1.193243 -0.883621
v -2.121320 1.060660 0.866379
v -2.121320 1.060660 -0.883621
v -1.811961 0.751301 0.866379
v -1.811961 0.751301 -0.883621
v -1.060660 2.121320 0.866379
v -1.060660 2.121320 -0.883621
v -0.751301 1.811961 0.866379
v -0.751301 1.811961 -0.883621
v -1.502602 1.679379 0.866379
v -1.502602 1.679379 -0.883621
v -1.193243 1.370020 0.866379
v -1.193243 1.370020 -0.883621
v -2.250000 -0.125000 0.866379
v -2.250000 -0.125000 -0.883621
v -1.812500 -0.125000 0.866379
v -1.812500 -0.125000 -0.883621
v -2.250000 -0.750000 0.866379
v -2.250000 -0.750000 -0.883621
v -1.812500 -0.750000 0.866379
v -1.812500 -0.750000 -0.883621
v -2.250000 0.750000 0.866379
v -2.250000 0.750000 -0.883621
v -1.812500 0.750000 0.866379
v -1.812500 0.750000 -0.883621
v -2.250000 0.125000 0.866379
v -2.250000 0.125000 -0.883621
v -1.812500 0.125000 0.866379
v -1.812500 0.125000 -0.883621
v -1.502602 -1.679378 0.866379
v -1.502602 -1.679378 -0.883621
v -1.193243 -1.370019 0.866379
v -1.193243 -1.370019 -0.883621
v -1.060660 -2.121320 0.866379
v -1.060660 -2.121320 -0.883621
v -0.751301 -1.811961 0.866379
v -0.751301 -1.811961 -0.883621
v -2.121320 -1.060660 0.866379
v -2.121320 -1.060660 -0.883621
v -1.811961 -0.751301 0.866379
v -1.811961 -0.751301 -0.883621
v -1.679379 -1.502602 0.866379
v -1.679379 -1.502602 -0.883621
v -1.370019 -1.193242 0.866379
v -1.370019 -1.193242 -0.883621
vn -0.0000 -1.0000 -0.0000
vn -0.0000 1.0000 -0.0000
vn 1.0000 -0.0000 -0.0000
vn -1.0000 -0.0000 -0.0000
vn -0.0000 -0.0000 1.0000
vn -0.0000 -0.0000 -1.0000
vn 0.7071 -0.7071 -0.0000
vn -0.7071 0.7071 -0.0000
vn -0.7071 -0.7071 -0.0000
vn 0.7071 0.7071 -0.0000
vt 0.338542 0.343750
vt 0.338542 0.416667
vt 0.171875 0.416667
vt 0.171875 0.343750
vt 0.750000 0.843750
vt 0.750000 0.963542
vt 0.708333 0.963542
vt 0.708333 0.843750
vt 0.750000 0.838542
vt 0.708333 0.838542
vt 0.750000 0.833333
vt 0.708333 0.833333
vt 0.343750 0.432292
vt 0.343750 0.296875
vt 0.510417 0.296875
vt 0.510417 0.432292
vt 0.166667 0.541667
vt 0.166667 0.656250
vt 0.000000 0.656250
vt 0.000000 0.541667
vt 0.343750 0.583333
vt 0.343750 0.458333
vt 0.510417 0.458333
vt 0.510417 0.583333
vt 0.510417 0.317708
vt 0.510417 0.411458
vt 0.343750 0.411458
vt 0.343750 0.317708
vt 0.697917 0.812500
vt 0.666667 0.802083
vt 0.666667 0.968750
vt 0.697917 0.958333
vt 0.697917 0.932292
vt 0.697917 0.765625
vt 0.666667 0.776042
vt 0.666667 0.921875
vt 0.697917 1.000000
vt 0.697917 0.833333
vt 0.666667 0.843750
vt 0.666667 0.989583
vt 0.666667 0.942708
vt 0.697917 0.953125
vt 0.697917 0.786458
vt 0.666667 0.796875
vt 0.666667 0.949074
vt 0.697917 0.963542
vt 0.666667 0.847801
vt 0.666667 0.876157
vt 0.697917 0.890625
vt 0.697917 0.760417
vt 0.666667 0.774884
vt 0.666667 0.906250
vt 0.697917 0.891782
vt 0.697917 0.790509
vt 0.666667 0.969907
vt 0.697917 0.984375
vt 0.697917 0.854167
vt 0.666667 0.868634
vt 0.937500 0.208333
vt 0.937500 0.244792
vt 0.885417 0.244792
vt 0.885417 0.208333
vt 0.932292 0.208333
vt 0.932292 0.244792
vt 0.880208 0.244792
vt 0.880208 0.208333
vt 0.843750 0.208333
vt 0.989583 0.208333
vt 0.989583 0.244792
vt 0.843750 0.244792
vt 0.843750 0.250000
vt 0.989583 0.250000
vt 0.989583 0.302083
vt 0.843750 0.302083
s 0
usemtl alternator
f 4/1/1 2/2/1 1/3/1 3/4/1
f 7/1/2 5/2/2 6/3/2 8/4/2
f 1/2/3 2/3/3 6/4/3 5/1/3
f 4/2/4 3/3/4 7/4/4 8/1/4
f 12/5/1 10/6/1 9/7/1 11/8/1
f 15/5/2 13/6/2 14/7/2 16/8/2
f 11/5/5 9/6/5 13/7/5 15/8/5
f 16/5/6 14/6/6 10/7/6 12/8/6
f 20/5/4 18/6/4 17/7/4 19/8/4
f 23/5/3 21/6/3 22/7/3 24/8/3
f 19/5/5 17/6/5 21/7/5 23/8/5
f 24/5/6 22/6/6 18/7/6 20/8/6
f 28/5/1 26/6/1 25/7/1 27/8/1
f 31/5/2 29/6/2 30/7/2 32/8/2
f 27/5/5 25/6/5 29/7/5 31/8/5
f 32/5/6 30/6/6 26/7/6 28/8/6
f 36/5/4 34/6/4 33/7/4 35/8/4
f 39/5/3 37/6/3 38/7/3 40/8/3
f 35/5/5 33/6/5 37/7/5 39/8/5
f 40/5/6 38/6/6 34/7/6 36/8/6
f 44/9/7 42/6/7 41/7/7 43/10/7
f 47/9/8 45/6/8 46/7/8 48/10/8
f 43/9/5 41/6/5 45/7/5 47/10/5
f 48/9/6 46/6/6 42/7/6 44/10/6
f 52/11/9 50/6/9 49/7/9 51/12/9
f 55/11/10 53/6/10 54/7/10 56/12/10
f 51/11/5 49/6/5 53/7/5 55/12/5
f 56/11/6 54/6/6 50/7/6 52/12/6
f 60/9/7 58/6/7 57/7/7 59/10/7
f 63/9/8 61/6/8 62/7/8 64/10/8
f 59/9/5 57/6/5 61/7/5 63/10/5
f 64/9/6 62/6/6 58/7/6 60/10/6
f 68/11/9 66/6/9 65/7/9 67/12/9
f 71/11/10 69/6/10 70/7/10 72/12/10
f 67/11/5 65/6/5 69/7/5 71/12/5
f 72/11/6 70/6/6 66/7/6 68/12/6
f 76/13/3 74/14/3 73/15/3 75/16/3
f 79/17/4 77/18/4 78/19/4 80/20/4
f 81/16/2 82/13/2 84/14/2 83/15/2
f 86/20/1 85/17/1 87/18/1 88/19/1
f 89/16/4 90/13/4 92/14/4 91/15/4
f 94/20/3 93/17/3 95/18/3 96/19/3
f 100/13/1 98/14/1 97/15/1 99/16/1
f 103/17/2 101/18/2 102/19/2 104/20/2
f 98/21/7 76/22/7 75/23/7 97/24/7
f 101/25/8 79/26/8 80/27/8 102/28/8
f 95/25/10 103/26/10 104/27/10 96/28/10
f 92/21/9 100/22/9 99/23/9 91/24/9
f 86/27/9 78/28/9 77/25/9 85/26/9
f 81/23/10 73/24/10 74/21/10 82/22/10
f 87/25/7 93/26/7 94/27/7 88/28/7
f 84/21/8 90/22/8 89/23/8 83/24/8
f 78/29/6 74/30/6 76/31/6 80/32/6
f 84/33/6 82/34/6 86/35/6 88/36/6
f 92/37/6 90/38/6 94/39/6 96/40/6
f 102/41/6 98/42/6 100/43/6 104/44/6
f 80/45/6 76/46/6 98/38/6 102/47/6
f 104/48/6 100/49/6 92/50/6 96/51/6
f 74/52/6 78/53/6 86/54/6 82/35/6
f 94/55/6 90/56/6 84/57/6 88/58/6
f 75/31/5 73/30/5 77/29/5 79/32/5
f 85/35/5 81/34/5 83/33/5 87/36/5
f 93/39/5 89/38/5 91/37/5 95/40/5
f 99/43/5 97/42/5 101/41/5 103/44/5
f 97/38/5 75/46/5 79/45/5 101/47/5
f 91/50/5 99/49/5 103/48/5 95/51/5
f 85/54/5 77/53/5 73/52/5 81/35/5
f 83/57/5 89/56/5 93/55/5 87/58/5
f 107/59/5 105/60/5 109/61/5 111/62/5
f 112/63/6 110/64/6 106/65/6 108/66/6
f 112/67/10 111/68/10 109/69/10 110/70/10
f 110/71/7 109/72/7 105/73/7 106/74/7
f 106/69/9 105/70/9 107/67/9 108/68/9
f 115/59/5 113/60/5 117/61/5 119/62/5
f 120/63/6 118/64/6 114/65/6 116/66/6
f 120/67/10 119/68/10 117/69/10 118/70/10
f 118/71/7 117/72/7 113/73/7 114/74/7
f 114/69/9 113/70/9 115/67/9 116/68/9
f 123/59/5 121/60/5 125/61/5 127/62/5
f 128/63/6 126/64/6 122/65/6 124/66/6
f 128/67/2 127/68/2 125/69/2 126/70/2
f 126/71/3 125/72/3 121/73/3 122/74/3
f 122/69/1 121/70/1 123/67/1 124/68/1
f 131/59/5 129/60/5 133/61/5 135/62/5
f 136/63/6 134/64/6 130/65/6 132/66/6
f 136/67/2 135/68/2 133/69/2 134/70/2
f 134/71/3 133/72/3 129/73/3 130/74/3
f 130/69/1 129/70/1 131/67/1 132/68/1
f 139/59/5 137/60/5 141/61/5 143/62/5
f 144/63/6 142/64/6 138/65/6 140/66/6
f 144/67/8 143/68/8 141/69/8 142/70/8
f 142/71/10 141/72/10 137/73/10 138/74/10
f 138/69/7 137/70/7 139/67/7 140/68/7
f 147/59/5 145/60/5 149/61/5 151/62/5
f 152/63/6 150/64/6 146/65/6 148/66/6
f 152/67/8 151/68/8 149/69/8 150/70/8
f 150/71/10 149/72/10 145/73/10 146/74/10
f 146/69/7 145/70/7 147/67/7 148/68/7
f 155/59/5 153/60/5 157/61/5 159/62/5
f 160/63/6 158/64/6 154/65/6 156/66/6
f 160/67/3 159/68/3 157/69/3 158/70/3
f 158/71/1 157/72/1 153/73/1 154/74/1
f 154/69/4 153/70/4 155/67/4 156/68/4
f 163/59/5 161/60/5 165/61/5 167/62/5
f 168/63/6 166/64/6 162/65/6 164/66/6
f 168/67/3 167/68/3 165/69/3 166/70/3
f 166/71/1 165/72/1 161/73/1 162/74/1
f 162/69/4 161/70/4 163/67/4 164/68/4
f 171/59/5 169/60/5 173/61/5 175/62/5
f 176/63/6 174/64/6 170/65/6 172/66/6
f 176/67/4 175/68/4 173/69/4 174/70/4
f 174/71/2 173/72/2 169/73/2 170/74/2
f 170/69/3 169/70/3 171/67/3 172/68/3
f 179/59/5 177/60/5 181/61/5 183/62/5
f 184/63/6 182/64/6 178/65/6 180/66/6
f 184/67/4 183/68/4 181/69/4 182/70/4
f 182/71/2 181/72/2 177/73/2 178/74/2
f 178/69/3 177/70/3 179/67/3 180/68/3
f 187/59/5 185/60/5 189/61/5 191/62/5
f 192/63/6 190/64/6 186/65/6 188/66/6
f 192/67/9 191/68/9 189/69/9 190/70/9
f 190/71/8 189/72/8 185/73/8 186/74/8
f 186/69/10 185/70/10 187/67/10 188/68/10
f 195/59/5 193/60/5 197/61/5 199/62/5
f 200/63/6 198/64/6 194/65/6 196/66/6
f 200/67/9 199/68/9 197/69/9 198/70/9
f 198/71/8 197/72/8 193/73/8 194/74/8
f 194/69/10 193/70/10 195/67/10 196/68/10
f 203/59/5 201/60/5 205/61/5 207/62/5
f 208/63/6 206/64/6 202/65/6 204/66/6
f 208/67/1 207/68/1 205/69/1 206/70/1
f 206/71/4 205/72/4 201/73/4 202/74/4
f 202/69/2 201/70/2 203/67/2 204/68/2
f 211/59/5 209/60/5 213/61/5 215/62/5
f 216/63/6 214/64/6 210/65/6 212/66/6
f 216/67/1 215/68/1 213/69/1 214/70/1
f 214/71/4 213/72/4 209/73/4 210/74/4
f 210/69/2 209/70/2 211/67/2 212/68/2
f 219/59/5 217/60/5 221/61/5 223/62/5
f 224/63/6 222/64/6 218/65/6 220/66/6
f 224/67/7 223/68/7 221/69/7 222/70/7
f 222/71/9 221/72/9 217/73/9 218/74/9
f 218/69/8 217/70/8 219/67/8 220/68/8
f 227/59/5 225/60/5 229/61/5 231/62/5
f 232/63/6 230/64/6 226/65/6 228/66/6
f 232/67/7 231/68/7 229/69/7 230/70/7
f 230/71/9 229/72/9 225/73/9 226/74/9
f 226/69/8 225/70/8 227/67/8 228/68/8
