# Blender v2.93.4 OBJ File: ''
# www.blender.org
mtllib bloomery.mtl

o Cube.001
v 0.000000 0.000000 1.000000
v 0.000000 1.000000 1.000000
v 0.000000 1.000000 0.000000
v 0.000000 0.000000 0.000000
v 1.000000 1.000000 0.000000
v 1.000000 0.000000 0.000000
v 1.000000 1.000000 1.000000
v 1.000000 0.000000 1.000000
v 0.250000 1.750000 0.250000
v 0.750000 1.750000 0.250000
v 0.250000 1.750000 0.750000
v 0.750000 1.750000 0.750000
vt 0.500000 0.500000
vt 0.500000 1.000000
vt 0.000000 1.000000
vt 0.000000 0.500000
vt 1.000000 0.500000
vt 1.000000 1.000000
vt 0.000000 -0.000000
vt 0.500000 -0.000000
vt 0.375000 0.375000
vt 0.125000 0.375000
vt 0.750000 0.250000
vt 0.750000 -0.000000
vt 1.000000 -0.000000
vt 1.000000 0.250000
vt -0.000000 -0.000000
vt -0.000000 0.000000
vt 0.500000 0.000000
vn -1.0000 0.0000 0.0000
vn 0.0000 0.0000 -1.0000
vn 1.0000 0.0000 0.0000
vn 0.0000 -0.0000 1.0000
vn 0.0000 -1.0000 -0.0000
vn 0.0000 0.3162 -0.9487
vn 0.0000 1.0000 0.0000
vn 0.9487 0.3162 0.0000
vn -0.9487 0.3162 0.0000
vn 0.0000 0.3162 0.9487
usemtl Material.001
f 1/1/1 2/2/1 3/3/1 4/4/1
f 4/1/2 3/2/2 5/3/2 6/4/2
f 6/5/3 5/6/3 7/2/3 8/1/3
f 8/1/4 7/2/4 2/3/4 1/4/4
f 4/4/5 6/1/5 8/2/5 1/3/5
f 5/7/6 3/8/6 9/9/6 10/10/6
f 10/11/7 9/12/7 11/13/7 12/14/7
f 7/15/8 5/8/8 10/9/8 12/10/8
f 3/16/9 2/17/9 11/9/9 9/10/9
f 2/15/10 7/8/10 12/9/10 11/10/10
