# Blender v2.93.4 OBJ File: 'bloomery.blend'
# www.blender.org
mtllib bloomery.mtl
o Cube.001
v 0.000000 0.000000 0.000000
v 0.000000 1.000000 0.000000
v 0.000000 0.000000 -1.000000
v 0.000000 1.000000 -1.000000
v 1.000000 0.000000 0.000000
v 1.000000 1.000000 0.000000
v 1.000000 0.000000 -1.000000
v 1.000000 1.000000 -1.000000
v 0.250000 1.750000 -0.250000
v 0.250000 1.750000 -0.750000
v 0.750000 1.750000 -0.750000
v 0.750000 1.750000 -0.250000
vt 0.500000 0.500000
vt 0.500000 1.000000
vt 0.000000 1.000000
vt 0.000000 0.500000
vt 0.500000 0.500000
vt 0.500000 1.000000
vt 0.000000 1.000000
vt 0.000000 0.500000
vt 1.000000 0.500000
vt 1.000000 1.000000
vt 0.500000 1.000000
vt 0.500000 0.500000
vt 0.000000 1.000000
vt 0.000000 0.500000
vt 0.500000 0.500000
vt 0.500000 1.000000
vt 0.000000 1.000000
vt 0.000000 -0.000000
vt 0.500000 -0.000000
vt 0.375000 0.375000
vt 0.125000 0.375000
vt 0.750000 0.250000
vt 0.750000 -0.000000
vt 1.000000 -0.000000
vt 1.000000 0.250000
vt -0.000000 -0.000000
vt 0.500000 -0.000000
vt 0.375000 0.375000
vt 0.125000 0.375000
vt -0.000000 0.000000
vt 0.500000 0.000000
vt 0.375000 0.375000
vt 0.125000 0.375000
vt -0.000000 -0.000000
vt 0.500000 -0.000000
vt 0.375000 0.375000
vt 0.125000 0.375000
vn -1.0000 0.0000 0.0000
vn 0.0000 0.0000 -1.0000
vn 1.0000 0.0000 0.0000
vn 0.0000 0.0000 1.0000
vn 0.0000 -1.0000 0.0000
vn 0.0000 0.3162 -0.9487
vn 0.0000 1.0000 0.0000
vn 0.9487 0.3162 0.0000
vn -0.9487 0.3162 0.0000
vn 0.0000 0.3162 0.9487
usemtl Material.001
s off
f 1/1/1 2/2/1 4/3/1 3/4/1
f 3/5/2 4/6/2 8/7/2 7/8/2
f 7/9/3 8/10/3 6/11/3 5/12/3
f 5/12/4 6/11/4 2/13/4 1/14/4
f 3/4/5 7/15/5 5/16/5 1/17/5
f 8/18/6 4/19/6 10/20/6 11/21/6
f 11/22/7 10/23/7 9/24/7 12/25/7
f 6/26/8 8/27/8 11/28/8 12/29/8
f 4/30/9 2/31/9 9/32/9 10/33/9
f 2/34/10 6/35/10 12/36/10 9/37/10
