# Blender v3.2.0 OBJ File: ''
# www.blender.org
mtllib crystallizer.mtl
o crystallizer
v 1.001368 2.500000 0.998632
v 2.001368 2.500000 0.999316
v 2.002009 2.250000 0.061816
v 1.002009 2.250000 0.061133
v 2.000043 2.250000 2.936816
v 2.937543 2.250000 2.937457
v 2.000684 2.500000 1.999316
v 0.063184 2.250000 1.997991
v 0.062543 2.250000 2.935491
v 1.000684 2.500000 1.998632
v 2.938184 2.250000 1.999957
v 1.250043 1.250000 2.936303
v 1.250000 1.250000 2.998803
v 1.250000 1.750000 2.998803
v 1.250043 1.750000 2.936303
v 1.750043 1.250000 2.936645
v 1.750043 1.750000 2.936645
v 1.750000 1.750000 2.999145
v 1.750000 1.250000 2.999145
v 0.063869 2.250000 0.997991
v 1.000043 2.250000 2.936132
v 2.938868 2.250000 0.999957
v 1.125770 2.500000 1.873718
v 1.126283 2.500000 1.123718
v 1.876282 2.500000 1.124231
v 1.875770 2.500000 1.874231
v 1.125770 2.750000 1.873718
v 1.126283 2.750000 1.123718
v 1.875770 2.750000 1.874230
v 1.876282 2.750000 1.124231
v 1.250855 2.750000 1.748803
v 1.750855 2.750000 1.749145
v 1.750855 2.999500 1.749145
v 1.250855 2.999500 1.748803
v 1.251197 2.750000 1.248803
v 1.751197 2.750000 1.249145
v 1.751197 2.999500 1.249145
v 1.251197 2.999500 1.248803
v 2.939509 2.250000 0.062458
v 0.064510 2.250000 0.060492
v 2.002052 0.500000 -0.000683
v 3.002052 0.500000 0.000001
v 3.002052 -0.000000 0.000001
v 2.002052 -0.000000 -0.000683
v 3.001368 -0.000000 1.000000
v 3.001368 0.500000 1.000000
v 1.000000 0.000000 2.998632
v 1.000000 0.500000 2.998632
v 0.000501 0.500000 2.997949
v 0.000501 0.000000 2.997949
v 1.251197 0.625000 1.248804
v 1.751197 0.625000 1.249146
v 1.751197 0.500000 1.249146
v 1.251197 0.500000 1.248804
v 1.750855 0.625000 1.749145
v 1.250855 0.625000 1.748803
v 1.250855 0.500000 1.748803
v 1.750855 0.500000 1.749145
v 2.000000 0.500000 2.999316
v 3.000000 0.500000 3.000000
v 2.937543 0.500000 2.937457
v 2.000043 0.500000 2.936816
v 1.000043 0.500000 2.936132
v 0.062543 0.500000 2.935491
v 1.002009 0.500000 0.061133
v 1.002052 0.500000 -0.001367
v 0.002552 0.500000 -0.002051
v 0.064510 0.500000 0.060492
v 0.063184 0.500000 1.997991
v 0.062714 0.500000 2.685491
v 0.312714 0.500000 2.685662
v 0.313184 0.500000 1.998162
v 2.938868 0.500000 0.999958
v 2.939338 0.500000 0.312458
v 2.689338 0.500000 0.312287
v 2.688868 0.500000 0.999787
v 1.000043 1.000000 2.936132
v 2.000043 1.000000 2.936816
v 1.375043 1.750000 2.936388
v 1.375000 1.750000 2.998888
v 1.625043 1.750000 2.936559
v 1.625000 1.750000 2.999059
v 1.375000 2.000000 2.998888
v 1.375043 2.000000 2.936388
v 1.625043 2.000000 2.936559
v 1.625000 2.000000 2.999059
v 2.937543 1.000000 2.937457
v 2.938184 1.000000 1.999957
v 2.002009 2.000000 0.061816
v 2.002009 1.000000 0.061817
v 2.002052 1.000000 -0.000183
v 2.002052 2.000000 -0.000184
v 1.002052 2.000000 -0.000867
v 1.002052 1.000000 -0.000867
v 1.002009 2.000000 0.061133
v 1.002009 1.000000 0.061133
v 2.687543 0.500000 2.937286
v 2.687714 0.500000 2.687286
v 2.000214 0.500000 2.686816
v 0.001184 -0.000000 1.997949
v 0.001184 0.500000 1.997949
v 1.000214 1.000000 2.686132
v 2.000214 1.000000 2.686816
v 2.687714 1.000000 2.687286
v 2.687543 1.000000 2.937286
v 0.314339 1.000000 0.310663
v 0.313869 1.000000 0.998163
v 0.312714 1.000000 2.685662
v 0.313184 1.000000 1.998162
v 1.001838 1.000000 0.311133
v 2.937714 1.000000 2.687457
v 2.937714 0.500000 2.687457
v 2.939509 0.500000 0.062458
v 2.939509 1.000000 0.062458
v 2.939338 1.000000 0.312458
v 2.689338 1.000000 0.312287
v 2.689509 1.000000 0.062287
v 2.689509 0.500000 0.062287
v 0.064339 0.500000 0.310492
v 0.314339 0.500000 0.310663
v 0.064339 1.000000 0.310492
v 0.064510 1.000000 0.060492
v 0.314510 0.500000 0.060663
v 0.314510 1.000000 0.060663
v 0.312543 1.000000 2.935662
v 0.312543 0.500000 2.935662
v 0.062714 1.000000 2.685491
v 0.062543 1.000000 2.935491
v 2.938184 2.062500 1.999957
v 2.938868 2.062500 0.999957
v 2.938868 1.000000 0.999958
v 0.063184 1.000000 1.997991
v 0.063869 1.000000 0.997991
v 2.001838 1.000000 0.311817
v 2.688184 1.000000 1.999786
v 2.688868 1.000000 0.999787
v 3.000000 0.000000 3.000000
v 2.000000 0.000000 2.999316
v 1.000214 0.500000 2.686132
v 0.063869 0.500000 0.997992
v 0.313869 0.500000 0.998163
v 2.002009 0.500000 0.061817
v 1.002052 -0.000000 -0.001367
v 0.002552 -0.000000 -0.002051
v 2.938184 0.500000 1.999957
v 2.688184 0.500000 1.999786
v 3.000684 -0.000000 2.000000
v 3.000684 0.500000 2.000000
v 0.001868 0.500000 0.997949
v 0.001868 -0.000000 0.997949
v 2.001838 0.500000 0.311817
v 1.001838 0.500000 0.311133
v 2.001368 -0.000000 0.999317
v 2.000684 -0.000000 1.999316
v 1.001368 -0.000000 0.998633
v 1.000684 -0.000000 1.998633
v 2.938868 1.187500 0.999958
v 2.938184 1.187500 1.999957
v 2.938740 2.062500 1.187457
v 2.938740 1.187500 1.187458
v 2.938312 1.187500 1.812457
v 2.938312 2.062500 1.812457
v 3.001240 2.062500 1.187500
v 3.001240 1.187500 1.187500
v 3.000812 2.062500 1.812500
v 3.000812 1.187500 1.812500
v 0.063227 2.062500 1.935491
v 0.063227 1.187500 1.935491
v 0.063826 1.187500 1.060491
v 0.063826 2.062500 1.060491
v 0.001227 2.062500 1.935449
v 0.001826 2.062500 1.060449
v 0.001826 1.187500 1.060449
v 0.001227 1.187500 1.935449
vt 0.117188 0.718750
vt 0.242188 0.718750
vt 0.242188 0.843750
vt 0.117188 0.843750
vt 0.117188 0.843750
vt -0.000000 0.843750
vt 0.117188 0.718750
vt 0.117188 0.843750
vt 0.000000 0.843750
vt 0.117188 0.718750
vt 0.117188 0.843750
vt 0.539062 0.867188
vt 0.531250 0.867188
vt 0.531250 0.929688
vt 0.539062 0.929688
vt 0.460938 0.867188
vt 0.460938 0.929688
vt 0.468750 0.929688
vt 0.468750 0.867188
vt 0.242188 0.718750
vt 0.242188 0.843750
vt 0.117188 0.843750
vt 0.242188 0.843750
vt 0.132812 0.703125
vt 0.226562 0.703125
vt 0.226562 0.703125
vt 0.132812 0.703125
vt 0.226562 0.703125
vt 0.242188 0.718750
vt 0.132812 0.703125
vt 0.265625 0.968750
vt 0.265625 0.875000
vt 0.296875 0.875000
vt 0.296875 0.968750
vt 0.265625 0.968750
vt 0.265625 0.875000
vt 0.296875 0.875000
vt 0.296875 0.968750
vt 0.265625 0.968750
vt 0.265625 0.875000
vt 0.296875 0.875000
vt 0.296875 0.968750
vt 0.265625 0.968750
vt 0.265625 0.875000
vt 0.296875 0.875000
vt 0.296875 0.968750
vt 0.312500 0.953125
vt 0.312500 0.890625
vt 0.343750 0.890625
vt 0.343750 0.953125
vt 0.312500 0.890625
vt 0.312500 0.953125
vt 0.312500 0.890625
vt 0.312500 0.953125
vt 0.312500 0.890625
vt 0.312500 0.953125
vt 0.406250 0.953125
vt 0.343750 0.953125
vt 0.343750 0.890625
vt 0.406250 0.890625
vt 0.343750 0.890625
vt 0.343750 0.953125
vt 0.343750 0.890625
vt 0.343750 0.953125
vt 0.117188 0.843750
vt 0.000000 0.843750
vt 0.117188 0.718750
vt 0.117188 0.843750
vt 0.000000 0.843750
vt 0.117188 0.843750
vt 0.125000 0.695312
vt -0.000000 0.695312
vt -0.000000 0.632812
vt 0.125000 0.632812
vt 0.250000 0.632812
vt 0.375000 0.632812
vt 0.375000 0.695312
vt 0.250000 0.695312
vt 0.125000 0.632812
vt 0.125000 0.695312
vt -0.000000 0.695312
vt -0.000000 0.632812
vt 0.328125 0.875000
vt 0.265625 0.875000
vt 0.265625 0.859375
vt 0.328125 0.859375
vt 0.265625 0.875000
vt 0.328125 0.875000
vt 0.328125 0.859375
vt 0.265625 0.859375
vt 0.328125 0.859375
vt 0.328125 0.875000
vt 0.265625 0.875000
vt 0.265625 0.859375
vt 0.257812 0.968750
vt 0.257812 0.843750
vt 0.265625 0.851562
vt 0.265625 0.968750
vt 0.250000 0.843750
vt 0.250000 0.968750
vt 0.242188 0.968750
vt 0.242188 0.851562
vt 0.265625 0.968750
vt 0.257812 0.968750
vt 0.257812 0.843750
vt 0.265625 0.851562
vt 0.335938 1.000000
vt 0.250000 1.000000
vt 0.250000 0.968750
vt 0.335938 0.968750
vt 0.335938 1.000000
vt 0.250000 1.000000
vt 0.250000 0.968750
vt 0.335938 0.968750
vt 0.117188 0.843750
vt 0.242188 0.843750
vt 0.242188 1.000000
vt 0.117188 1.000000
vt 0.476562 0.937500
vt 0.460938 0.937500
vt 0.460938 0.929688
vt 0.476562 0.929688
vt 0.531250 0.859375
vt 0.468750 0.859375
vt 0.242188 0.843750
vt 0.539062 0.937500
vt 0.523438 0.937500
vt 0.523438 0.929688
vt 0.539062 0.929688
vt 0.476562 0.929688
vt 0.484375 0.929688
vt 0.484375 0.960938
vt 0.476562 0.960938
vt 0.515625 0.968750
vt 0.484375 0.968750
vt 0.515625 0.960938
vt 0.515625 0.929688
vt 0.523438 0.929688
vt 0.523438 0.960938
vt -0.000000 1.000000
vt -0.000000 0.843750
vt 0.117188 0.843750
vt 0.117188 1.000000
vt 0.382812 0.687500
vt 0.382812 0.562500
vt 0.390625 0.562500
vt 0.390625 0.687500
vt 0.515625 0.687500
vt 0.515625 0.562500
vt 0.515625 0.695312
vt 0.390625 0.695312
vt 0.390625 0.554688
vt 0.515625 0.554688
vt 0.523438 0.562500
vt 0.523438 0.687500
vt 0.242188 1.000000
vt 0.117188 1.000000
vt 0.117188 0.968750
vt 0.242188 0.968750
vt 0.460938 1.000000
vt 0.546875 1.000000
vt 0.546875 0.968750
vt 0.460938 0.968750
vt 0.250000 0.632812
vt 0.375000 0.632812
vt 0.375000 0.695312
vt 0.250000 0.695312
vt 0.453125 0.695312
vt 0.328125 0.695312
vt 0.328125 0.726562
vt 0.453125 0.726562
vt 0.539062 0.726562
vt 0.539062 0.695312
vt 0.539062 0.726562
vt 0.421875 0.851562
vt 0.453125 0.726562
vt 0.242188 0.726562
vt 0.328125 0.726562
vt 0.359375 0.851562
vt 0.453125 0.726562
vt 0.000000 0.757812
vt 0.000000 0.695312
vt 0.031250 0.695312
vt 0.031250 0.757812
vt 0.031250 0.695312
vt 0.062500 0.695312
vt 0.062500 0.757812
vt 0.031250 0.757812
vt 0.062500 0.695312
vt 0.062500 0.757812
vt 0.031250 0.757812
vt 0.031250 0.695312
vt 0.000000 0.757812
vt 0.000000 0.695312
vt 0.000000 0.695312
vt 0.031250 0.695312
vt 0.031250 0.757812
vt 0.000000 0.757812
vt 0.031250 0.695312
vt 0.062500 0.695312
vt 0.062500 0.757812
vt 0.031250 0.757812
vt 0.062500 0.695312
vt 0.062500 0.757812
vt 0.031250 0.757812
vt 0.031250 0.695312
vt 0.000000 0.757812
vt 0.000000 0.695312
vt 0.031250 0.695312
vt 0.062500 0.695312
vt 0.062500 0.757812
vt 0.031250 0.757812
vt -0.000000 0.695312
vt -0.000000 0.757812
vt 0.062500 0.695312
vt 0.062500 0.757812
vt 0.031250 0.757812
vt 0.031250 0.695312
vt -0.000000 0.695312
vt 0.031250 0.695312
vt 0.031250 0.757812
vt -0.000000 0.757812
vt 0.062500 0.757812
vt 0.031250 0.757812
vt 0.031250 0.695312
vt 0.062500 0.695312
vt 0.062500 0.695312
vt 0.062500 0.757812
vt 0.031250 0.757812
vt 0.031250 0.695312
vt 0.000000 0.757812
vt 0.000000 0.695312
vt 0.000000 0.695312
vt 0.031250 0.695312
vt 0.031250 0.757812
vt 0.000000 0.757812
vt -0.000000 1.000000
vt -0.000000 0.843750
vt 0.117188 0.843750
vt 0.117188 1.000000
vt 0.242188 1.000000
vt 0.242188 0.976562
vt 0.117188 0.976562
vt 0.117188 0.843750
vt 0.000000 1.000000
vt 0.117188 1.000000
vt 0.117188 0.843750
vt 0.000000 0.843750
vt 0.000000 1.000000
vt 0.117188 1.000000
vt 0.117188 0.843750
vt 0.000000 0.843750
vt 0.117188 1.000000
vt 0.117188 0.843750
vt 0.117188 1.000000
vt 0.117188 0.843750
vt 0.328125 0.726562
vt 0.328125 0.695312
vt 0.242188 0.695312
vt 0.242188 0.726562
vt 0.453125 0.695312
vt 0.539062 0.695312
vt 0.453125 0.695312
vt 0.539062 0.695312
vt 0.328125 0.695312
vt 0.242188 0.695312
vt 0.359375 0.851562
vt 0.453125 0.726562
vt 0.453125 0.695312
vt 0.539062 0.695312
vt 0.328125 0.726562
vt 0.328125 0.695312
vt 0.242188 0.695312
vt 0.421875 0.851562
vt 0.242188 0.695312
vt 0.468750 0.867188
vt 0.531250 0.867188
vt 0.531250 0.929688
vt 0.468750 0.929688
vt 0.375000 0.632812
vt 0.375000 0.695312
vt 0.250000 0.695312
vt 0.250000 0.632812
vt 0.250000 1.000000
vt 0.335938 1.000000
vt 0.335938 0.968750
vt 0.546875 1.000000
vt 0.460938 1.000000
vt 0.460938 0.968750
vt 0.546875 0.968750
vt 0.242188 0.851562
vt 0.250000 0.843750
vt 0.250000 0.968750
vt 0.242188 0.968750
vt 0.257812 0.843750
vt 0.250000 0.843750
vt 0.250000 0.968750
vt 0.257812 0.968750
vt 0.375000 0.695312
vt 0.250000 0.695312
vt 0.250000 0.632812
vt 0.375000 0.632812
vt 0.546875 1.000000
vt 0.460938 1.000000
vt 0.460938 0.968750
vt -0.000000 0.632812
vt 0.125000 0.632812
vt 0.125000 0.695312
vt -0.000000 0.695312
vt 0.125000 0.695312
vt 0.125000 0.632812
vt -0.000000 0.632812
vt -0.000000 0.695312
vt 0.250000 0.968750
vt 0.250000 0.843750
vt 0.257812 0.843750
vt 0.257812 0.968750
vt 0.242188 0.968750
vt 0.242188 0.851562
vt 0.250000 0.843750
vt 0.265625 0.851562
vt 0.265625 0.968750
vt 0.257812 0.968750
vt 0.257812 0.843750
vt 0.539062 0.914062
vt 0.656250 0.882812
vt 0.539062 1.000000
vt 0.539062 0.789062
vt 0.656250 0.820312
vt 0.539062 0.703125
vt 0.625000 0.703125
vt 0.250000 0.968750
vt 0.250000 0.843750
vt 0.257812 0.843750
vt 0.718750 0.820312
vt 0.750000 0.703125
vt 0.835938 0.703125
vt 0.835938 0.789062
vt 0.250000 0.968750
vt 0.242188 0.968750
vt 0.242188 0.851562
vt 0.250000 0.843750
vt 0.265625 0.968750
vt 0.257812 0.968750
vt 0.257812 0.843750
vt 0.265625 0.851562
vt 0.257812 0.843750
vt 0.250000 0.968750
vt 0.250000 0.843750
vt 0.835938 1.000000
vt 0.718750 0.882812
vt 0.835938 0.914062
vt 0.750000 1.000000
vt 0.625000 1.000000
vt 0.250000 1.000000
vt 0.250000 0.968750
vt 0.335938 0.968750
vt 0.335938 1.000000
vt 0.460938 0.968750
vt 0.460938 1.000000
vt 0.546875 0.968750
vt 0.546875 1.000000
vt 0.914062 0.328125
vt 0.914062 0.453125
vt 0.789062 0.453125
vt 0.789062 0.328125
vt 0.914062 0.578125
vt 0.789062 0.578125
vt 0.789062 0.703125
vt 0.914062 0.703125
vt 0.664062 0.453125
vt 0.664062 0.328125
vt 0.539062 0.453125
vt 0.539062 0.328125
vt 0.664062 0.578125
vt 0.539062 0.578125
vt 0.664062 0.703125
vt 0.539062 0.703125
vt 0.117188 0.867188
vt 0.242188 0.867188
vt 0.242188 0.843750
vt 0.218750 0.976562
vt 0.218750 0.867188
vt 0.242188 0.867188
vt 0.242188 0.976562
vt 0.117188 0.976562
vt 0.117188 0.867188
vt 0.140625 0.867188
vt 0.140625 0.976562
vt 0.093750 0.515625
vt 0.093750 0.625000
vt 0.085938 0.625000
vt 0.085938 0.515625
vt 0.007812 0.625000
vt 0.007812 0.515625
vt 0.007812 0.507812
vt 0.085938 0.507812
vt 0.085938 0.632812
vt 0.007812 0.632812
vt 0.000000 0.625000
vt 0.000000 0.515625
vt 0.210938 0.921875
vt 0.210938 0.882812
vt 0.148438 0.882812
vt 0.148438 0.921875
vt 0.210938 0.625000
vt 0.101562 0.625000
vt 0.101562 0.515625
vt 0.210938 0.515625
vt 0.093750 0.625000
vt 0.093750 0.515625
vt 0.101562 0.507812
vt 0.210938 0.507812
vt 0.218750 0.515625
vt 0.218750 0.625000
vt 0.210938 0.632812
vt 0.101562 0.632812
vt 0.242188 1.000000
vt 0.125000 0.976562
vt 0.234375 0.976562
vt 0.242188 0.843750
vt 0.234375 0.867188
vt 0.125000 0.867188
vn 0.0002 0.9662 -0.2577
vn 0.0005 0.6932 -0.7208
vn 0.0005 0.7722 -0.6354
vn -0.0005 0.6396 0.7687
vn 0.5067 0.8532 0.1238
vn 0.0928 0.9877 0.1254
vn -0.6770 0.7360 -0.0006
vn -0.8934 0.4492 -0.0006
vn -0.2577 0.9662 -0.0002
vn 0.5544 0.8323 0.0004
vn -1.0000 0.0000 -0.0007
vn 0.7071 -0.7071 0.0005
vn 1.0000 -0.0000 0.0007
vn 0.5770 0.5773 0.5778
vn 0.4656 -0.6805 0.5658
vn -0.6409 0.7676 -0.0004
vn -0.0134 0.9966 0.0808
vn -0.1013 0.9949 -0.0001
vn -0.9732 0.2301 -0.0007
vn -0.0004 0.8264 0.5630
vn -0.0005 0.7805 0.6252
vn 0.2577 0.9662 0.0002
vn 0.0567 0.9984 0.0000
vn -0.0379 0.9416 0.3346
vn -0.2321 0.9616 -0.1465
vn 0.3491 0.8894 -0.2951
vn 0.6448 0.5927 0.4826
vn 0.4879 0.6872 0.5382
vn -0.0000 0.9985 0.0545
vn 0.5016 0.8651 -0.0034
vn 0.0001 0.9782 -0.2077
vn -0.0007 0.0000 1.0000
vn -0.0004 0.7658 0.6431
vn -0.3824 0.4357 0.8148
vn -0.0004 1.0000 -0.0000
vn -0.0911 0.9958 -0.0001
vn 0.0000 1.0000 -0.0000
vn -0.5777 0.5774 0.5770
vn 0.3013 0.9045 0.3017
vn -0.3633 0.9317 -0.0001
vn 0.8744 -0.0000 -0.4852
vn -0.3013 0.9045 -0.3017
vn 0.0007 0.0000 -1.0000
vn 0.9365 0.0000 -0.3507
vn -0.3456 -0.0001 0.9384
vn -0.5974 -0.7779 0.1951
vn -0.7623 0.0000 -0.6472
vn 0.7522 -0.6589 0.0005
vn 0.8734 -0.4871 0.0006
vn 0.0005 0.6560 -0.7548
vn 0.6147 0.3787 0.6919
vn -0.0943 0.8588 0.5036
vn -0.0004 -0.8365 0.5480
vn -0.0007 -0.1832 0.9831
vn -0.6064 0.7951 -0.0005
vn -0.7424 0.6699 -0.0005
vn 0.0000 -1.0000 0.0000
vn -0.0005 -0.4660 0.8848
vn -0.0875 0.6596 0.7465
vn -0.9147 0.4042 -0.0006
vn 0.7071 0.7071 0.0007
vn 0.3691 0.6162 0.6957
vn 0.6757 0.0000 0.7372
vn 0.6757 0.0002 0.7372
vn 0.7071 0.7071 0.0005
vn 0.3691 0.6161 0.6958
vn 0.5067 0.8532 0.1239
vn 0.7599 0.2905 -0.5815
vn 0.6812 0.7321 0.0005
vn 0.0007 -0.5429 -0.8398
vn -0.5622 -0.5498 -0.6178
vn 0.0003 0.8596 -0.5110
vn -0.9774 -0.2114 -0.0007
vn -0.8284 -0.5601 -0.0006
vn -0.8492 0.5281 -0.0006
vn -0.6856 -0.7280 -0.0005
vn -0.3205 -0.9473 -0.0004
vn -0.1153 -0.9831 -0.1423
vn -0.1637 -0.9615 -0.2209
vn -0.1663 -0.9861 -0.0001
vn 0.2063 -0.8114 -0.5469
vn -0.3714 -0.9285 -0.0003
vn -0.1151 -0.9566 0.2677
vn 0.0003 -0.9285 -0.3713
vn 0.4998 -0.0001 0.8661
vn 0.6130 -0.0000 0.7901
vn 0.9946 0.0000 -0.1042
vn 0.1100 0.0000 -0.9939
vn 0.7405 0.0000 -0.6721
vn 0.3531 -0.6299 0.6918
vn 0.3004 -0.7688 0.5645
vn -0.3684 0.0000 -0.9297
vn -0.7302 0.0975 -0.6762
vn 0.8187 0.0000 0.5742
vn 0.9066 0.0001 0.4220
vn -0.7066 -0.0000 -0.7076
vn 0.5777 0.5774 -0.5769
vn 0.6451 -0.0812 0.7598
vn 0.4599 0.0003 0.8880
vn 0.4809 0.0000 -0.8768
vn -0.9569 0.0000 -0.2904
vn -0.2675 -0.6848 -0.6778
vn 0.6453 -0.0810 0.7596
vn -0.4438 0.0000 0.8961
vn -0.5651 0.0000 0.8250
vn 0.4599 0.0000 0.8880
vn -0.7071 -0.7071 -0.0004
vn 0.0001 -0.9926 -0.1216
vn -0.6738 -0.7389 -0.0005
vn -0.5439 -0.8391 -0.0004
vn -0.5439 -0.8391 -0.0003
vn 0.0003 -0.9285 -0.3714
vn 0.2272 -0.9738 0.0002
vn 0.0985 -0.9951 0.0001
vn 0.0421 -0.9991 0.0000
vn 0.3714 -0.9285 0.0003
vn -0.0001 -0.9847 0.1742
vn -0.0003 -0.9285 0.3714
vn -0.0005 -0.7122 0.7020
vn -0.0001 -0.9829 0.1844
vn 0.0003 0.9083 -0.4183
vn 0.0005 -0.6239 -0.7815
vn -0.5132 -0.6910 -0.5091
vn 0.0004 -0.8306 -0.5568
vn 0.1078 -0.9942 0.0001
vn 0.0864 -0.9963 0.0000
vn 0.4781 0.8783 0.0003
vn 0.1308 0.9914 0.0001
vn 0.8104 0.5858 0.0005
vn 0.9089 0.4171 0.0006
vn -0.9788 0.2047 -0.0007
vn -0.5654 -0.8248 -0.0004
vn -0.5770 0.5774 -0.5777
vn 0.7071 0.7071 0.0004
vn 0.0006 -0.5182 -0.8553
vn 0.0007 0.4995 -0.8663
vn 0.6729 0.6728 -0.3074
vn 0.7076 -0.0000 -0.7066
vn 0.6608 0.0921 0.7449
vn 0.7060 0.0000 0.7082
vn -0.7076 0.0000 0.7066
vn -0.5071 0.3002 -0.8079
vn -0.4607 -0.3863 -0.7991
vn -0.8150 -0.4100 0.4094
vn 0.0005 0.7075 -0.7067
vn 0.0006 -0.6485 -0.7612
usemtl crystallizerMaterial
s 1
f 1/1/1 2/2/1 3/3/2 4/4/3
f 5/5/4 6/6/5 7/7/6
f 8/8/7 9/9/8 10/10/9
f 6/6/5 11/11/10 7/7/6
f 12/12/11 13/13/11 14/14/11 15/15/11
f 16/16/12 17/17/13 18/18/14 19/19/15
f 8/8/16 10/10/17 1/20/18 20/21/19
f 9/9/20 21/22/21 10/10/17
f 7/7/6 11/11/10 22/23/22 2/2/23
f 23/24/24 24/25/25 1/20/18 10/10/17
f 25/26/26 26/27/27 7/7/6 2/2/23
f 26/27/27 23/28/24 10/29/17 7/7/6
f 24/30/25 25/26/26 2/2/23 1/1/18
f 24/31/25 23/32/24 27/33/11 28/34/11
f 23/35/24 26/36/27 29/37/28 27/38/29
f 26/39/27 25/40/26 30/41/30 29/42/28
f 25/43/26 24/44/25 28/45/31 30/46/30
f 31/47/32 32/48/32 33/49/33 34/50/34
f 31/51/35 35/52/36 28/34/37 27/33/38
f 36/53/37 32/54/39 29/42/28 30/41/30
f 32/48/37 31/47/37 27/38/29 29/37/28
f 35/55/37 36/56/37 30/46/30 28/45/31
f 34/57/34 33/58/33 37/59/37 38/60/40
f 35/52/36 31/51/35 34/61/34 38/62/40
f 36/56/41 35/55/42 38/63/43 37/64/44
f 32/54/13 36/53/41 37/59/44 33/58/14
f 22/65/22 39/66/22 2/67/22
f 3/68/2 2/67/1 39/66/1
f 4/4/3 40/69/1 1/1/1
f 20/70/9 1/1/9 40/69/9
f 41/71/43 42/72/43 43/73/43 44/74/43
f 45/75/13 43/76/13 42/77/13 46/78/13
f 47/79/32 48/80/32 49/81/45 50/82/46
f 51/83/43 52/84/43 53/85/43 54/86/47
f 55/87/32 56/88/32 57/89/32 58/90/32
f 58/91/13 53/85/13 52/84/48 55/92/49
f 56/88/11 51/93/43 54/94/47 57/89/11
f 59/95/37 60/96/37 61/97/37 62/98/37
f 49/99/37 48/100/37 63/101/37 64/102/37
f 65/103/37 66/104/50 67/105/37 68/106/37
f 69/107/37 70/108/37 71/109/37 72/110/37
f 73/111/37 74/112/51 75/113/52 76/114/37
f 77/115/53 78/116/54 5/117/4 21/118/21
f 79/119/55 15/120/37 14/121/37 80/122/56
f 12/123/57 16/124/12 19/19/15 13/13/58
f 10/29/17 21/125/21 5/5/4 7/7/6
f 17/126/37 81/127/37 82/128/37 18/129/37
f 79/130/55 80/131/56 83/132/59 84/133/60
f 85/134/61 84/135/60 83/132/59 86/136/62
f 80/131/56 82/137/63 86/136/62 83/132/59
f 82/137/64 81/138/65 85/139/13 86/136/66
f 6/140/67 87/141/13 88/142/13 11/143/10
f 89/144/68 90/145/13 91/146/13 92/147/69
f 93/148/43 92/147/43 91/146/70 94/149/71
f 95/150/72 89/151/68 92/147/69 93/148/37
f 90/152/57 96/153/73 94/149/71 91/146/70
f 96/154/73 95/155/11 93/148/11 94/149/71
f 4/156/3 3/157/2 89/158/68 95/159/72
f 62/160/37 97/161/37 98/162/37 99/163/37
f 100/164/74 50/165/46 49/166/45 101/167/75
f 78/168/54 77/169/53 102/170/57 103/171/57
f 103/171/57 104/172/76 105/173/77 78/168/57
f 106/174/78 51/175/79 107/176/80
f 108/177/81 109/178/82 56/179/83
f 106/174/78 110/180/84 51/175/79
f 105/181/32 97/182/32 61/183/85 87/184/86
f 98/185/11 97/186/11 105/187/77 104/188/76
f 98/189/43 104/190/43 111/191/43 112/192/87
f 87/193/86 61/194/85 112/192/87 111/191/43
f 74/195/51 113/196/88 114/197/89 115/198/90
f 75/199/52 74/200/51 115/201/90 116/202/91
f 75/203/52 116/204/11 117/205/92 118/206/93
f 118/206/93 117/205/92 114/207/89 113/208/88
f 119/209/32 120/210/94 106/211/95 121/212/32
f 68/213/11 119/209/11 121/212/11 122/214/96
f 123/215/97 124/216/13 106/217/95 120/218/94
f 123/219/43 68/220/43 122/221/43 124/222/43
f 108/223/81 125/224/98 126/225/99 71/226/100
f 70/227/101 127/228/102 108/229/81 71/230/100
f 125/224/103 128/231/104 64/232/105 126/225/106
f 70/233/101 64/234/105 128/235/104 127/236/102
f 3/157/43 39/237/43 114/238/43 90/239/43
f 22/240/13 11/241/13 129/242/13 130/243/13
f 22/240/13 131/244/13 114/238/13 39/237/13
f 40/245/43 4/246/43 96/247/43 122/248/43
f 9/249/8 8/250/7 132/251/107 128/252/11
f 20/253/19 40/245/11 122/248/11 133/254/11
f 9/249/20 128/252/32 77/115/53 21/118/21
f 5/255/4 78/256/54 87/141/32 6/140/32
f 56/179/82 109/178/82 107/176/80 51/175/79
f 134/257/108 90/258/57 117/259/57 116/260/57
f 90/258/57 134/257/108 110/180/84 96/261/57
f 106/174/57 124/262/57 96/261/57 110/180/57
f 106/174/78 107/176/80 133/263/109 121/264/57
f 132/265/110 133/263/109 107/176/80 109/178/57
f 108/177/81 127/266/102 132/265/111 109/178/57
f 116/260/112 52/267/112 134/257/112
f 52/267/112 51/175/79 110/180/84 134/257/108
f 135/268/113 88/269/57 111/270/57 104/172/114
f 88/269/57 135/268/57 136/271/115 131/272/57
f 116/260/91 115/273/90 131/272/57 136/271/115
f 104/172/114 55/274/116 135/268/113
f 116/260/91 136/271/115 52/267/116
f 55/274/49 52/267/48 136/271/116 135/268/116
f 108/177/81 102/170/117 77/169/57 125/275/98
f 108/177/81 56/179/83 102/170/117
f 104/172/118 103/171/118 55/274/118
f 55/274/118 103/171/118 102/170/117 56/179/83
f 13/276/58 19/277/15 18/278/32 14/279/32
f 137/280/32 60/281/32 59/282/32 138/283/119
f 138/283/119 59/282/32 48/80/32 47/79/120
f 126/284/37 63/285/37 139/286/37 71/109/37
f 63/285/37 62/160/37 99/163/37 139/286/37
f 119/287/37 140/288/37 141/289/37 120/290/37
f 140/288/37 69/107/37 72/110/37 141/289/37
f 113/291/37 42/292/37 41/293/121 142/294/37
f 142/295/37 41/296/121 66/297/50 65/298/37
f 67/299/43 66/300/50 143/301/122 144/302/123
f 66/300/50 41/71/121 44/74/124 143/301/122
f 112/303/37 145/304/37 146/305/37 98/162/37
f 145/304/37 73/111/37 76/114/37 146/305/37
f 137/306/125 147/307/126 148/308/127 60/309/128
f 147/307/13 45/75/13 46/78/129 148/308/130
f 101/167/75 149/310/131 150/311/11 100/164/74
f 144/312/123 150/311/132 149/310/11 67/313/133
f 149/314/131 101/315/75 69/316/37 140/317/37
f 140/318/37 68/319/37 67/320/37 149/314/37
f 64/321/37 69/322/37 101/323/75 49/324/37
f 141/325/37 54/326/37 120/327/37
f 54/326/37 141/325/37 72/328/37 57/329/37
f 71/330/37 57/329/37 72/328/37
f 71/330/37 139/331/37 57/329/37
f 59/95/37 62/332/37 63/333/37 48/334/37
f 58/335/37 57/329/37 139/331/37 99/336/37
f 98/337/37 58/335/37 99/336/37
f 98/337/37 146/338/37 58/335/37
f 148/339/127 145/340/37 61/341/37 60/342/128
f 73/343/37 46/344/134 42/345/37 113/346/37
f 148/347/130 46/344/129 73/348/37 145/349/37
f 75/350/52 53/351/37 76/352/37
f 58/335/37 146/338/37 76/352/37 53/351/37
f 151/353/37 53/351/37 75/350/52
f 53/351/37 151/353/37 152/354/37 54/326/37
f 120/327/37 54/326/37 152/354/37
f 123/355/37 120/356/37 152/357/37 65/358/37
f 152/357/37 151/359/37 142/360/37 65/358/37
f 151/359/37 75/361/52 118/362/93 142/360/37
f 43/363/57 45/364/57 153/365/57 44/366/124
f 45/364/57 147/367/126 154/368/57 153/365/57
f 138/369/119 154/368/57 147/367/126 137/370/125
f 44/366/124 153/365/57 155/371/57 143/372/122
f 143/372/122 155/371/57 150/373/132 144/374/123
f 150/373/132 155/371/57 156/375/57 100/376/74
f 155/371/57 153/365/57 154/368/57 156/375/57
f 100/376/74 156/375/57 47/377/120 50/378/46
f 138/369/119 47/377/120 156/375/57 154/368/57
f 131/244/13 157/379/13 158/380/13 88/381/13
f 159/382/13 160/383/13 157/384/13 130/385/13
f 129/386/13 158/387/13 161/388/13 162/389/13
f 160/390/135 159/391/136 163/392/137 164/393/138
f 165/394/139 166/395/140 164/393/138 163/392/137
f 161/396/57 160/397/135 164/393/138 166/395/57
f 159/398/136 162/399/37 165/394/139 163/392/137
f 162/400/32 161/401/32 166/395/140 165/394/139
f 167/402/13 168/403/13 169/404/13 170/405/13
f 171/406/141 172/407/142 173/408/143 174/409/144
f 170/410/145 169/411/146 173/408/143 172/407/142
f 169/412/146 168/413/57 174/409/144 173/408/143
f 168/414/32 167/415/32 171/406/141 174/409/144
f 167/416/37 170/417/145 172/407/142 171/406/37
f 8/418/16 20/253/19 170/419/11 167/420/11
f 132/421/110 8/418/11 167/420/11 168/422/11
f 133/254/109 132/421/110 168/422/11 169/423/11
f 20/253/19 133/254/11 169/423/11 170/419/11
