# Blender 4.2.3 LTS
# www.blender.org
mtllib coredrill.mtl
o tube
v -0.253522 0.750000 -3.500000
v -0.253522 0.750000 -3.750000
v -0.191553 0.537894 -3.500000
v -0.191553 0.537894 -3.750000
v -0.718750 0.284772 -3.500000
v -0.718750 0.284772 -3.750000
v -0.506645 0.222803 -3.500000
v -0.506645 0.222803 -3.750000
v -0.718750 -0.284772 -3.500000
v -0.718750 -0.284772 -3.750000
v -0.506645 -0.222803 -3.500000
v -0.506645 -0.222803 -3.750000
v -0.253522 -0.750000 -3.500000
v -0.253522 -0.750000 -3.750000
v -0.191553 -0.537895 -3.500000
v -0.191553 -0.537895 -3.750000
v 0.316022 -0.750000 -3.500000
v 0.316022 -0.750000 -3.750000
v 0.254053 -0.537895 -3.500000
v 0.254053 -0.537895 -3.750000
v 0.781250 -0.284772 -3.500000
v 0.781250 -0.284772 -3.750000
v 0.569145 -0.222803 -3.500000
v 0.569145 -0.222803 -3.750000
v 0.781250 0.284772 -3.500000
v 0.781250 0.284772 -3.750000
v 0.569145 0.222803 -3.500000
v 0.569145 0.222803 -3.750000
v 0.316022 0.750000 -3.500000
v 0.316022 0.750000 -3.750000
v 0.254053 0.537894 -3.500000
v 0.254053 0.537894 -3.750000
v -0.253522 -0.750000 -3.500000
v -0.191553 -0.537895 -3.500000
v -0.718750 -0.284772 -3.500000
v -0.506645 -0.222803 -3.500000
v -0.718750 0.284772 -3.500000
v -0.506645 0.222803 -3.500000
v -0.253522 0.750000 -3.500000
v -0.191553 0.537894 -3.500000
v 0.316022 0.750000 -3.500000
v 0.254053 0.537894 -3.500000
v 0.781250 0.284772 -3.500000
v 0.569145 0.222803 -3.500000
v 0.781250 -0.284772 -3.500000
v 0.569145 -0.222803 -3.500000
v 0.316022 -0.750000 -3.500000
v 0.254053 -0.537895 -3.500000
v -0.218750 0.250000 -3.750000
v -0.218750 -0.250000 -3.750000
v -0.218750 0.250000 -3.500000
v -0.218750 -0.250000 -3.500000
v 0.281250 0.250000 -3.750000
v 0.281250 -0.250000 -3.750000
v 0.281250 0.250000 -3.500000
v 0.281250 -0.250000 -3.500000
v -0.218750 -0.562500 -3.625000
v -0.531250 -0.250000 -3.625000
v 0.281250 -0.562500 -3.625000
v 0.593750 -0.250000 -3.625000
v -0.531250 0.250000 -3.625000
v -0.531250 -0.250000 -3.625000
v 0.593750 0.250000 -3.625000
v 0.593750 -0.250000 -3.625000
v -0.218750 0.562500 -3.625000
v -0.531250 0.250000 -3.625000
v 0.281250 0.562500 -3.625000
v 0.593750 0.250000 -3.625000
v -0.218750 0.562500 -3.618751
v -0.531250 0.250000 -3.618751
v 0.281250 0.562500 -3.618751
v 0.593750 0.250000 -3.618751
v -0.531250 -0.250000 -3.618751
v -0.531250 0.250000 -3.618751
v 0.593750 -0.250000 -3.618751
v 0.593750 0.250000 -3.618751
v -0.218750 -0.562500 -3.618751
v -0.531250 -0.250000 -3.618751
v 0.281250 -0.562500 -3.618751
v 0.593750 -0.250000 -3.618751
v 0.156250 0.937500 -3.750000
v 0.281250 0.937500 -3.750000
v 0.156250 0.937500 -3.500000
v 0.281250 0.937500 -3.500000
v 0.125000 0.750000 -3.750000
v 0.312500 0.750000 -3.750000
v 0.125000 0.750000 -3.500000
v 0.312500 0.750000 -3.500000
v -0.218750 0.937500 -3.750000
v -0.093750 0.937500 -3.750000
v -0.218750 0.937500 -3.500000
v -0.093750 0.937500 -3.500000
v -0.250000 0.750000 -3.750000
v -0.062500 0.750000 -3.750000
v -0.250000 0.750000 -3.500000
v -0.062500 0.750000 -3.500000
v -0.906250 0.125000 -3.750000
v -0.906250 0.250000 -3.750000
v -0.906250 0.125000 -3.500000
v -0.906250 0.250000 -3.500000
v -0.718750 0.093750 -3.750000
v -0.718750 0.281250 -3.750000
v -0.718750 0.093750 -3.500000
v -0.718750 0.281250 -3.500000
v -0.906250 -0.250000 -3.750000
v -0.906250 -0.125000 -3.750000
v -0.906250 -0.250000 -3.500000
v -0.906250 -0.125000 -3.500000
v -0.718750 -0.281250 -3.750000
v -0.718750 -0.093750 -3.750000
v -0.718750 -0.281250 -3.500000
v -0.718750 -0.093750 -3.500000
v 0.968750 0.125000 -3.750000
v 0.968750 0.250000 -3.750000
v 0.968750 0.125000 -3.500000
v 0.968750 0.250000 -3.500000
v 0.781250 0.093750 -3.750000
v 0.781250 0.281250 -3.750000
v 0.781250 0.093750 -3.500000
v 0.781250 0.281250 -3.500000
v 0.968750 -0.250000 -3.750000
v 0.968750 -0.125000 -3.750000
v 0.968750 -0.250000 -3.500000
v 0.968750 -0.125000 -3.500000
v 0.781250 -0.281250 -3.750000
v 0.781250 -0.093750 -3.750000
v 0.781250 -0.281250 -3.500000
v 0.781250 -0.093750 -3.500000
v 0.156250 -0.937500 -3.750000
v 0.281250 -0.937500 -3.750000
v 0.156250 -0.937500 -3.500000
v 0.281250 -0.937500 -3.500000
v 0.125000 -0.750000 -3.750000
v 0.312500 -0.750000 -3.750000
v 0.125000 -0.750000 -3.500000
v 0.312500 -0.750000 -3.500000
v -0.218750 -0.937500 -3.750000
v -0.093750 -0.937500 -3.750000
v -0.218750 -0.937500 -3.500000
v -0.093750 -0.937500 -3.500000
v -0.250000 -0.750000 -3.750000
v -0.062500 -0.750000 -3.750000
v -0.250000 -0.750000 -3.500000
v -0.062500 -0.750000 -3.500000
v 0.764200 -0.563801 -3.750000
v 0.852589 -0.475413 -3.750000
v 0.764200 -0.563801 -3.500000
v 0.852589 -0.475413 -3.500000
v 0.609521 -0.453316 -3.750000
v 0.742103 -0.320733 -3.750000
v 0.609521 -0.453316 -3.500000
v 0.742103 -0.320733 -3.500000
v 0.499035 -0.828966 -3.750000
v 0.587424 -0.740578 -3.750000
v 0.499035 -0.828966 -3.500000
v 0.587424 -0.740578 -3.500000
v 0.344356 -0.718481 -3.750000
v 0.476938 -0.585898 -3.750000
v 0.344356 -0.718481 -3.500000
v 0.476938 -0.585898 -3.500000
v 0.764200 0.563801 -3.750000
v 0.852589 0.475413 -3.750000
v 0.764200 0.563801 -3.500000
v 0.852589 0.475413 -3.500000
v 0.609521 0.453315 -3.750000
v 0.742103 0.320733 -3.750000
v 0.609521 0.453315 -3.500000
v 0.742103 0.320733 -3.500000
v 0.499035 0.828966 -3.750000
v 0.587424 0.740577 -3.750000
v 0.499035 0.828966 -3.500000
v 0.587424 0.740577 -3.500000
v 0.344356 0.718480 -3.750000
v 0.476938 0.585898 -3.750000
v 0.344356 0.718480 -3.500000
v 0.476938 0.585898 -3.500000
v -0.701700 0.563801 -3.750000
v -0.790089 0.475413 -3.750000
v -0.701700 0.563801 -3.500000
v -0.790089 0.475413 -3.500000
v -0.547021 0.453315 -3.750000
v -0.679603 0.320733 -3.750000
v -0.547021 0.453315 -3.500000
v -0.679603 0.320733 -3.500000
v -0.436535 0.828966 -3.750000
v -0.524924 0.740577 -3.750000
v -0.436535 0.828966 -3.500000
v -0.524924 0.740577 -3.500000
v -0.281856 0.718480 -3.750000
v -0.414438 0.585898 -3.750000
v -0.281856 0.718480 -3.500000
v -0.414438 0.585898 -3.500000
v -0.701700 -0.563801 -3.750000
v -0.790089 -0.475413 -3.750000
v -0.701700 -0.563801 -3.500000
v -0.790089 -0.475413 -3.500000
v -0.547021 -0.453316 -3.750000
v -0.679603 -0.320733 -3.750000
v -0.547021 -0.453316 -3.500000
v -0.679603 -0.320733 -3.500000
v -0.436535 -0.828966 -3.750000
v -0.524924 -0.740578 -3.750000
v -0.436535 -0.828966 -3.500000
v -0.524924 -0.740578 -3.500000
v -0.281856 -0.718481 -3.750000
v -0.414438 -0.585898 -3.750000
v -0.281856 -0.718481 -3.500000
v -0.414438 -0.585898 -3.500000
v -0.316022 0.750000 -2.250000
v -0.316022 0.750000 -2.500000
v -0.254053 0.537895 -2.250000
v -0.254053 0.537895 -2.500000
v -0.781250 0.284772 -2.250000
v -0.781250 0.284772 -2.500000
v -0.569145 0.222803 -2.250000
v -0.569145 0.222803 -2.500000
v -0.781250 -0.284772 -2.250000
v -0.781250 -0.284772 -2.500000
v -0.569145 -0.222803 -2.250000
v -0.569145 -0.222803 -2.500000
v -0.316022 -0.750000 -2.250000
v -0.316022 -0.750000 -2.500000
v -0.254053 -0.537895 -2.250000
v -0.254053 -0.537895 -2.500000
v 0.253522 -0.750000 -2.250000
v 0.253522 -0.750000 -2.500000
v 0.191553 -0.537895 -2.250000
v 0.191553 -0.537895 -2.500000
v 0.718750 -0.284772 -2.250000
v 0.718750 -0.284772 -2.500000
v 0.506645 -0.222803 -2.250000
v 0.506645 -0.222803 -2.500000
v 0.718750 0.284772 -2.250000
v 0.718750 0.284772 -2.500000
v 0.506645 0.222803 -2.250000
v 0.506645 0.222803 -2.500000
v 0.253522 0.750000 -2.250000
v 0.253522 0.750000 -2.500000
v 0.191553 0.537895 -2.250000
v 0.191553 0.537895 -2.500000
v -0.316022 -0.750000 -2.250000
v -0.254053 -0.537895 -2.250000
v -0.781250 -0.284772 -2.250000
v -0.569145 -0.222803 -2.250000
v -0.781250 0.284772 -2.250000
v -0.569145 0.222803 -2.250000
v -0.316022 0.750000 -2.250000
v -0.254053 0.537895 -2.250000
v 0.253522 0.750000 -2.250000
v 0.191553 0.537895 -2.250000
v 0.718750 0.284772 -2.250000
v 0.506645 0.222803 -2.250000
v 0.718750 -0.284772 -2.250000
v 0.506645 -0.222803 -2.250000
v 0.253522 -0.750000 -2.250000
v 0.191553 -0.537895 -2.250000
v -0.281250 0.250000 -2.500000
v -0.281250 -0.250000 -2.500000
v -0.281250 0.250000 -2.250000
v -0.281250 -0.250000 -2.250000
v 0.218750 0.250000 -2.500000
v 0.218750 -0.250000 -2.500000
v 0.218750 0.250000 -2.250000
v 0.218750 -0.250000 -2.250000
v -0.281250 -0.562500 -2.375000
v -0.593750 -0.250000 -2.375000
v 0.218750 -0.562500 -2.375000
v 0.531250 -0.250000 -2.375000
v -0.593750 0.250000 -2.375000
v -0.593750 -0.250000 -2.375000
v 0.531250 0.250000 -2.375000
v 0.531250 -0.250000 -2.375000
v -0.281250 0.562500 -2.375000
v -0.593750 0.250000 -2.375000
v 0.218750 0.562500 -2.375000
v 0.531250 0.250000 -2.375000
v -0.281250 0.562500 -2.368751
v -0.593750 0.250000 -2.368751
v 0.218750 0.562500 -2.368751
v 0.531250 0.250000 -2.368751
v -0.593750 -0.250000 -2.368751
v -0.593750 0.250000 -2.368751
v 0.531250 -0.250000 -2.368751
v 0.531250 0.250000 -2.368751
v -0.281250 -0.562500 -2.368751
v -0.593750 -0.250000 -2.368751
v 0.218750 -0.562500 -2.368751
v 0.531250 -0.250000 -2.368751
v 0.093750 0.937500 -2.500000
v 0.218750 0.937500 -2.500000
v 0.093750 0.937500 -2.250000
v 0.218750 0.937500 -2.250000
v 0.062500 0.750000 -2.500000
v 0.250000 0.750000 -2.500000
v 0.062500 0.750000 -2.250000
v 0.250000 0.750000 -2.250000
v -0.281250 0.937500 -2.500000
v -0.156250 0.937500 -2.500000
v -0.281250 0.937500 -2.250000
v -0.156250 0.937500 -2.250000
v -0.312500 0.750000 -2.500000
v -0.125000 0.750000 -2.500000
v -0.312500 0.750000 -2.250000
v -0.125000 0.750000 -2.250000
v -0.968750 0.125000 -2.500000
v -0.968750 0.250000 -2.500000
v -0.968750 0.125000 -2.250000
v -0.968750 0.250000 -2.250000
v -0.781250 0.093750 -2.500000
v -0.781250 0.281250 -2.500000
v -0.781250 0.093750 -2.250000
v -0.781250 0.281250 -2.250000
v -0.968750 -0.250000 -2.500000
v -0.968750 -0.125000 -2.500000
v -0.968750 -0.250000 -2.250000
v -0.968750 -0.125000 -2.250000
v -0.781250 -0.281250 -2.500000
v -0.781250 -0.093750 -2.500000
v -0.781250 -0.281250 -2.250000
v -0.781250 -0.093750 -2.250000
v 0.906250 0.125000 -2.500000
v 0.906250 0.250000 -2.500000
v 0.906250 0.125000 -2.250000
v 0.906250 0.250000 -2.250000
v 0.718750 0.093750 -2.500000
v 0.718750 0.281250 -2.500000
v 0.718750 0.093750 -2.250000
v 0.718750 0.281250 -2.250000
v 0.906250 -0.250000 -2.500000
v 0.906250 -0.125000 -2.500000
v 0.906250 -0.250000 -2.250000
v 0.906250 -0.125000 -2.250000
v 0.718750 -0.281250 -2.500000
v 0.718750 -0.093750 -2.500000
v 0.718750 -0.281250 -2.250000
v 0.718750 -0.093750 -2.250000
v 0.093750 -0.937500 -2.500000
v 0.218750 -0.937500 -2.500000
v 0.093750 -0.937500 -2.250000
v 0.218750 -0.937500 -2.250000
v 0.062500 -0.750000 -2.500000
v 0.250000 -0.750000 -2.500000
v 0.062500 -0.750000 -2.250000
v 0.250000 -0.750000 -2.250000
v -0.281250 -0.937500 -2.500000
v -0.156250 -0.937500 -2.500000
v -0.281250 -0.937500 -2.250000
v -0.156250 -0.937500 -2.250000
v -0.312500 -0.750000 -2.500000
v -0.125000 -0.750000 -2.500000
v -0.312500 -0.750000 -2.250000
v -0.125000 -0.750000 -2.250000
v 0.701700 -0.563801 -2.500000
v 0.790089 -0.475413 -2.500000
v 0.701700 -0.563801 -2.250000
v 0.790089 -0.475413 -2.250000
v 0.547021 -0.453316 -2.500000
v 0.679603 -0.320733 -2.500000
v 0.547021 -0.453316 -2.250000
v 0.679603 -0.320733 -2.250000
v 0.436535 -0.828966 -2.500000
v 0.524924 -0.740578 -2.500000
v 0.436535 -0.828966 -2.250000
v 0.524924 -0.740578 -2.250000
v 0.281856 -0.718481 -2.500000
v 0.414438 -0.585898 -2.500000
v 0.281856 -0.718481 -2.250000
v 0.414438 -0.585898 -2.250000
v 0.701700 0.563801 -2.500000
v 0.790089 0.475413 -2.500000
v 0.701700 0.563801 -2.250000
v 0.790089 0.475413 -2.250000
v 0.547021 0.453316 -2.500000
v 0.679603 0.320733 -2.500000
v 0.547021 0.453316 -2.250000
v 0.679603 0.320733 -2.250000
v 0.436535 0.828966 -2.500000
v 0.524924 0.740578 -2.500000
v 0.436535 0.828966 -2.250000
v 0.524924 0.740578 -2.250000
v 0.281856 0.718480 -2.500000
v 0.414438 0.585898 -2.500000
v 0.281856 0.718480 -2.250000
v 0.414438 0.585898 -2.250000
v -0.764200 0.563801 -2.500000
v -0.852589 0.475413 -2.500000
v -0.764200 0.563801 -2.250000
v -0.852589 0.475413 -2.250000
v -0.609521 0.453316 -2.500000
v -0.742103 0.320733 -2.500000
v -0.609521 0.453316 -2.250000
v -0.742103 0.320733 -2.250000
v -0.499035 0.828966 -2.500000
v -0.587424 0.740578 -2.500000
v -0.499035 0.828966 -2.250000
v -0.587424 0.740578 -2.250000
v -0.344356 0.718480 -2.500000
v -0.476938 0.585898 -2.500000
v -0.344356 0.718480 -2.250000
v -0.476938 0.585898 -2.250000
v -0.764200 -0.563801 -2.500000
v -0.852589 -0.475413 -2.500000
v -0.764200 -0.563801 -2.250000
v -0.852589 -0.475413 -2.250000
v -0.609521 -0.453316 -2.500000
v -0.742103 -0.320733 -2.500000
v -0.609521 -0.453316 -2.250000
v -0.742103 -0.320733 -2.250000
v -0.499035 -0.828966 -2.500000
v -0.587424 -0.740578 -2.500000
v -0.499035 -0.828966 -2.250000
v -0.587424 -0.740578 -2.250000
v -0.344356 -0.718481 -2.500000
v -0.476938 -0.585898 -2.500000
v -0.344356 -0.718481 -2.250000
v -0.476938 -0.585898 -2.250000
v -0.316022 0.750000 2.250000
v -0.316022 0.750000 2.500000
v -0.254053 0.537895 2.250000
v -0.254053 0.537895 2.500000
v -0.781250 0.284772 2.250000
v -0.781250 0.284772 2.500000
v -0.569145 0.222803 2.250000
v -0.569145 0.222803 2.500000
v -0.781250 -0.284772 2.250000
v -0.781250 -0.284772 2.500000
v -0.569145 -0.222803 2.250000
v -0.569145 -0.222803 2.500000
v -0.316022 -0.750000 2.250000
v -0.316022 -0.750000 2.500000
v -0.254053 -0.537895 2.250000
v -0.254053 -0.537895 2.500000
v 0.253522 -0.750000 2.250000
v 0.253522 -0.750000 2.500000
v 0.191553 -0.537895 2.250000
v 0.191553 -0.537895 2.500000
v 0.718750 -0.284772 2.250000
v 0.718750 -0.284772 2.500000
v 0.506645 -0.222803 2.250000
v 0.506645 -0.222803 2.500000
v 0.718750 0.284772 2.250000
v 0.718750 0.284772 2.500000
v 0.506645 0.222803 2.250000
v 0.506645 0.222803 2.500000
v 0.253522 0.750000 2.250000
v 0.253522 0.750000 2.500000
v 0.191553 0.537895 2.250000
v 0.191553 0.537895 2.500000
v -0.316022 -0.750000 2.250000
v -0.254053 -0.537895 2.250000
v -0.781250 -0.284772 2.250000
v -0.569145 -0.222803 2.250000
v -0.781250 0.284772 2.250000
v -0.569145 0.222803 2.250000
v -0.316022 0.750000 2.250000
v -0.254053 0.537895 2.250000
v 0.253522 0.750000 2.250000
v 0.191553 0.537895 2.250000
v 0.718750 0.284772 2.250000
v 0.506645 0.222803 2.250000
v 0.718750 -0.284772 2.250000
v 0.506645 -0.222803 2.250000
v 0.253522 -0.750000 2.250000
v 0.191553 -0.537895 2.250000
v -0.281250 0.250000 2.500000
v -0.281250 -0.250000 2.500000
v -0.281250 0.250000 2.250000
v -0.281250 -0.250000 2.250000
v 0.218750 0.250000 2.500000
v 0.218750 -0.250000 2.500000
v 0.218750 0.250000 2.250000
v 0.218750 -0.250000 2.250000
v -0.281250 -0.562500 2.375000
v -0.593750 -0.250000 2.375000
v 0.218750 -0.562500 2.375000
v 0.531250 -0.250000 2.375000
v -0.593750 0.250000 2.375000
v -0.593750 -0.250000 2.375000
v 0.531250 0.250000 2.375000
v 0.531250 -0.250000 2.375000
v -0.281250 0.562500 2.375000
v -0.593750 0.250000 2.375000
v 0.218750 0.562500 2.375000
v 0.531250 0.250000 2.375000
v -0.281250 0.562500 2.368750
v -0.593750 0.250000 2.368750
v 0.218750 0.562500 2.368750
v 0.531250 0.250000 2.368750
v -0.593750 -0.250000 2.368750
v -0.593750 0.250000 2.368750
v 0.531250 -0.250000 2.368750
v 0.531250 0.250000 2.368750
v -0.281250 -0.562500 2.368750
v -0.593750 -0.250000 2.368750
v 0.218750 -0.562500 2.368750
v 0.531250 -0.250000 2.368750
v 0.093750 0.937500 2.500000
v 0.218750 0.937500 2.500000
v 0.093750 0.937500 2.250000
v 0.218750 0.937500 2.250000
v 0.062500 0.750000 2.500000
v 0.250000 0.750000 2.500000
v 0.062500 0.750000 2.250000
v 0.250000 0.750000 2.250000
v -0.281250 0.937500 2.500000
v -0.156250 0.937500 2.500000
v -0.281250 0.937500 2.250000
v -0.156250 0.937500 2.250000
v -0.312500 0.750000 2.500000
v -0.125000 0.750000 2.500000
v -0.312500 0.750000 2.250000
v -0.125000 0.750000 2.250000
v -0.968750 0.125000 2.500000
v -0.968750 0.250000 2.500000
v -0.968750 0.125000 2.250000
v -0.968750 0.250000 2.250000
v -0.781250 0.093750 2.500000
v -0.781250 0.281250 2.500000
v -0.781250 0.093750 2.250000
v -0.781250 0.281250 2.250000
v -0.968750 -0.250000 2.500000
v -0.968750 -0.125000 2.500000
v -0.968750 -0.250000 2.250000
v -0.968750 -0.125000 2.250000
v -0.781250 -0.281250 2.500000
v -0.781250 -0.093750 2.500000
v -0.781250 -0.281250 2.250000
v -0.781250 -0.093750 2.250000
v 0.906250 0.125000 2.500000
v 0.906250 0.250000 2.500000
v 0.906250 0.125000 2.250000
v 0.906250 0.250000 2.250000
v 0.718750 0.093750 2.500000
v 0.718750 0.281250 2.500000
v 0.718750 0.093750 2.250000
v 0.718750 0.281250 2.250000
v 0.906250 -0.250000 2.500000
v 0.906250 -0.125000 2.500000
v 0.906250 -0.250000 2.250000
v 0.906250 -0.125000 2.250000
v 0.718750 -0.281250 2.500000
v 0.718750 -0.093750 2.500000
v 0.718750 -0.281250 2.250000
v 0.718750 -0.093750 2.250000
v 0.093750 -0.937500 2.500000
v 0.218750 -0.937500 2.500000
v 0.093750 -0.937500 2.250000
v 0.218750 -0.937500 2.250000
v 0.062500 -0.750000 2.500000
v 0.250000 -0.750000 2.500000
v 0.062500 -0.750000 2.250000
v 0.250000 -0.750000 2.250000
v -0.281250 -0.937500 2.500000
v -0.156250 -0.937500 2.500000
v -0.281250 -0.937500 2.250000
v -0.156250 -0.937500 2.250000
v -0.312500 -0.750000 2.500000
v -0.125000 -0.750000 2.500000
v -0.312500 -0.750000 2.250000
v -0.125000 -0.750000 2.250000
v 0.701700 -0.563801 2.500000
v 0.790089 -0.475413 2.500000
v 0.701700 -0.563801 2.250000
v 0.790089 -0.475413 2.250000
v 0.547021 -0.453316 2.500000
v 0.679603 -0.320733 2.500000
v 0.547021 -0.453316 2.250000
v 0.679603 -0.320733 2.250000
v 0.436535 -0.828966 2.500000
v 0.524924 -0.740578 2.500000
v 0.436535 -0.828966 2.250000
v 0.524924 -0.740578 2.250000
v 0.281856 -0.718480 2.500000
v 0.414438 -0.585898 2.500000
v 0.281856 -0.718480 2.250000
v 0.414438 -0.585898 2.250000
v 0.701700 0.563801 2.500000
v 0.790089 0.475413 2.500000
v 0.701700 0.563801 2.250000
v 0.790089 0.475413 2.250000
v 0.547021 0.453316 2.500000
v 0.679603 0.320733 2.500000
v 0.547021 0.453316 2.250000
v 0.679603 0.320733 2.250000
v 0.436535 0.828966 2.500000
v 0.524924 0.740578 2.500000
v 0.436535 0.828966 2.250000
v 0.524924 0.740578 2.250000
v 0.281856 0.718481 2.500000
v 0.414438 0.585898 2.500000
v 0.281856 0.718481 2.250000
v 0.414438 0.585898 2.250000
v -0.764200 0.563801 2.500000
v -0.852589 0.475413 2.500000
v -0.764200 0.563801 2.250000
v -0.852589 0.475413 2.250000
v -0.609521 0.453316 2.500000
v -0.742103 0.320733 2.500000
v -0.609521 0.453316 2.250000
v -0.742103 0.320733 2.250000
v -0.499035 0.828966 2.500000
v -0.587424 0.740578 2.500000
v -0.499035 0.828966 2.250000
v -0.587424 0.740578 2.250000
v -0.344356 0.718481 2.500000
v -0.476938 0.585898 2.500000
v -0.344356 0.718481 2.250000
v -0.476938 0.585898 2.250000
v -0.764200 -0.563801 2.500000
v -0.852589 -0.475413 2.500000
v -0.764200 -0.563801 2.250000
v -0.852589 -0.475413 2.250000
v -0.609521 -0.453316 2.500000
v -0.742103 -0.320733 2.500000
v -0.609521 -0.453316 2.250000
v -0.742103 -0.320733 2.250000
v -0.499035 -0.828966 2.500000
v -0.587424 -0.740578 2.500000
v -0.499035 -0.828966 2.250000
v -0.587424 -0.740578 2.250000
v -0.344356 -0.718480 2.500000
v -0.476938 -0.585898 2.500000
v -0.344356 -0.718480 2.250000
v -0.476938 -0.585898 2.250000
v -0.253522 0.750000 3.500000
v -0.253522 0.750000 3.750000
v -0.191553 0.537895 3.500000
v -0.191553 0.537895 3.750000
v -0.718750 0.284772 3.500000
v -0.718750 0.284772 3.750000
v -0.506645 0.222803 3.500000
v -0.506645 0.222803 3.750000
v -0.718750 -0.284772 3.500000
v -0.718750 -0.284772 3.750000
v -0.506645 -0.222803 3.500000
v -0.506645 -0.222803 3.750000
v -0.253522 -0.750000 3.500000
v -0.253522 -0.750000 3.750000
v -0.191553 -0.537894 3.500000
v -0.191553 -0.537894 3.750000
v 0.316022 -0.750000 3.500000
v 0.316022 -0.750000 3.750000
v 0.254053 -0.537894 3.500000
v 0.254053 -0.537894 3.750000
v 0.781250 -0.284772 3.500000
v 0.781250 -0.284772 3.750000
v 0.569145 -0.222803 3.500000
v 0.569145 -0.222803 3.750000
v 0.781250 0.284772 3.500000
v 0.781250 0.284772 3.750000
v 0.569145 0.222803 3.500000
v 0.569145 0.222803 3.750000
v 0.316022 0.750000 3.500000
v 0.316022 0.750000 3.750000
v 0.254053 0.537895 3.500000
v 0.254053 0.537895 3.750000
v -0.253522 -0.750000 3.500000
v -0.191553 -0.537894 3.500000
v -0.718750 -0.284772 3.500000
v -0.506645 -0.222803 3.500000
v -0.718750 0.284772 3.500000
v -0.506645 0.222803 3.500000
v -0.253522 0.750000 3.500000
v -0.191553 0.537895 3.500000
v 0.316022 0.750000 3.500000
v 0.254053 0.537895 3.500000
v 0.781250 0.284772 3.500000
v 0.569145 0.222803 3.500000
v 0.781250 -0.284772 3.500000
v 0.569145 -0.222803 3.500000
v 0.316022 -0.750000 3.500000
v 0.254053 -0.537894 3.500000
v -0.218750 0.250000 3.750000
v -0.218750 -0.250000 3.750000
v -0.218750 0.250000 3.500000
v -0.218750 -0.250000 3.500000
v 0.281250 0.250000 3.750000
v 0.281250 -0.250000 3.750000
v 0.281250 0.250000 3.500000
v 0.281250 -0.250000 3.500000
v -0.218750 -0.562500 3.625000
v -0.531250 -0.250000 3.625000
v 0.281250 -0.562500 3.625000
v 0.593750 -0.250000 3.625000
v -0.531250 0.250000 3.625000
v -0.531250 -0.250000 3.625000
v 0.593750 0.250000 3.625000
v 0.593750 -0.250000 3.625000
v -0.218750 0.562500 3.625000
v -0.531250 0.250000 3.625000
v 0.281250 0.562500 3.625000
v 0.593750 0.250000 3.625000
v -0.218750 0.562500 3.618750
v -0.531250 0.250000 3.618750
v 0.281250 0.562500 3.618750
v 0.593750 0.250000 3.618750
v -0.531250 -0.250000 3.618750
v -0.531250 0.250000 3.618750
v 0.593750 -0.250000 3.618750
v 0.593750 0.250000 3.618750
v -0.218750 -0.562500 3.618750
v -0.531250 -0.250000 3.618750
v 0.281250 -0.562500 3.618750
v 0.593750 -0.250000 3.618750
v 0.156250 0.937500 3.750000
v 0.281250 0.937500 3.750000
v 0.156250 0.937500 3.500000
v 0.281250 0.937500 3.500000
v 0.125000 0.750000 3.750000
v 0.312500 0.750000 3.750000
v 0.125000 0.750000 3.500000
v 0.312500 0.750000 3.500000
v -0.218750 0.937500 3.750000
v -0.093750 0.937500 3.750000
v -0.218750 0.937500 3.500000
v -0.093750 0.937500 3.500000
v -0.250000 0.750000 3.750000
v -0.062500 0.750000 3.750000
v -0.250000 0.750000 3.500000
v -0.062500 0.750000 3.500000
v -0.906250 0.125000 3.750000
v -0.906250 0.250000 3.750000
v -0.906250 0.125000 3.500000
v -0.906250 0.250000 3.500000
v -0.718750 0.093750 3.750000
v -0.718750 0.281250 3.750000
v -0.718750 0.093750 3.500000
v -0.718750 0.281250 3.500000
v -0.906250 -0.250000 3.750000
v -0.906250 -0.125000 3.750000
v -0.906250 -0.250000 3.500000
v -0.906250 -0.125000 3.500000
v -0.718750 -0.281250 3.750000
v -0.718750 -0.093750 3.750000
v -0.718750 -0.281250 3.500000
v -0.718750 -0.093750 3.500000
v 0.968750 0.125000 3.750000
v 0.968750 0.250000 3.750000
v 0.968750 0.125000 3.500000
v 0.968750 0.250000 3.500000
v 0.781250 0.093750 3.750000
v 0.781250 0.281250 3.750000
v 0.781250 0.093750 3.500000
v 0.781250 0.281250 3.500000
v 0.968750 -0.250000 3.750000
v 0.968750 -0.125000 3.750000
v 0.968750 -0.250000 3.500000
v 0.968750 -0.125000 3.500000
v 0.781250 -0.281250 3.750000
v 0.781250 -0.093750 3.750000
v 0.781250 -0.281250 3.500000
v 0.781250 -0.093750 3.500000
v 0.156250 -0.937500 3.750000
v 0.281250 -0.937500 3.750000
v 0.156250 -0.937500 3.500000
v 0.281250 -0.937500 3.500000
v 0.125000 -0.750000 3.750000
v 0.312500 -0.750000 3.750000
v 0.125000 -0.750000 3.500000
v 0.312500 -0.750000 3.500000
v -0.218750 -0.937500 3.750000
v -0.093750 -0.937500 3.750000
v -0.218750 -0.937500 3.500000
v -0.093750 -0.937500 3.500000
v -0.250000 -0.750000 3.750000
v -0.062500 -0.750000 3.750000
v -0.250000 -0.750000 3.500000
v -0.062500 -0.750000 3.500000
v 0.764200 -0.563801 3.750000
v 0.852589 -0.475413 3.750000
v 0.764200 -0.563801 3.500000
v 0.852589 -0.475413 3.500000
v 0.609521 -0.453315 3.750000
v 0.742103 -0.320733 3.750000
v 0.609521 -0.453315 3.500000
v 0.742103 -0.320733 3.500000
v 0.499035 -0.828966 3.750000
v 0.587424 -0.740577 3.750000
v 0.499035 -0.828966 3.500000
v 0.587424 -0.740577 3.500000
v 0.344356 -0.718480 3.750000
v 0.476938 -0.585898 3.750000
v 0.344356 -0.718480 3.500000
v 0.476938 -0.585898 3.500000
v 0.764200 0.563801 3.750000
v 0.852589 0.475413 3.750000
v 0.764200 0.563801 3.500000
v 0.852589 0.475413 3.500000
v 0.609521 0.453316 3.750000
v 0.742103 0.320733 3.750000
v 0.609521 0.453316 3.500000
v 0.742103 0.320733 3.500000
v 0.499035 0.828966 3.750000
v 0.587424 0.740578 3.750000
v 0.499035 0.828966 3.500000
v 0.587424 0.740578 3.500000
v 0.344356 0.718481 3.750000
v 0.476938 0.585898 3.750000
v 0.344356 0.718481 3.500000
v 0.476938 0.585898 3.500000
v -0.701700 0.563801 3.750000
v -0.790089 0.475413 3.750000
v -0.701700 0.563801 3.500000
v -0.790089 0.475413 3.500000
v -0.547021 0.453316 3.750000
v -0.679603 0.320733 3.750000
v -0.547021 0.453316 3.500000
v -0.679603 0.320733 3.500000
v -0.436535 0.828966 3.750000
v -0.524924 0.740578 3.750000
v -0.436535 0.828966 3.500000
v -0.524924 0.740578 3.500000
v -0.281856 0.718481 3.750000
v -0.414438 0.585898 3.750000
v -0.281856 0.718481 3.500000
v -0.414438 0.585898 3.500000
v -0.701700 -0.563801 3.750000
v -0.790089 -0.475413 3.750000
v -0.701700 -0.563801 3.500000
v -0.790089 -0.475413 3.500000
v -0.547021 -0.453315 3.750000
v -0.679603 -0.320733 3.750000
v -0.547021 -0.453315 3.500000
v -0.679603 -0.320733 3.500000
v -0.436535 -0.828966 3.750000
v -0.524924 -0.740577 3.750000
v -0.436535 -0.828966 3.500000
v -0.524924 -0.740577 3.500000
v -0.281856 -0.718480 3.750000
v -0.414438 -0.585898 3.750000
v -0.281856 -0.718480 3.500000
v -0.414438 -0.585898 3.500000
vn -0.7071 0.7071 -0.0000
vn 0.7071 -0.7071 -0.0000
vn -0.0000 -0.0000 -1.0000
vn -1.0000 -0.0000 -0.0000
vn 1.0000 -0.0000 -0.0000
vn -0.7071 -0.7071 -0.0000
vn 0.7071 0.7071 -0.0000
vn -0.0000 -1.0000 -0.0000
vn -0.0000 1.0000 -0.0000
vn -0.0000 -0.0000 1.0000
vn -0.9864 0.1644 -0.0000
vn 0.9864 0.1644 -0.0000
vn -0.1644 -0.9864 -0.0000
vn -0.1644 0.9864 -0.0000
vn 0.1644 -0.9864 -0.0000
vn 0.1644 0.9864 -0.0000
vn -0.9864 -0.1644 -0.0000
vn 0.9864 -0.1644 -0.0000
vn -0.5812 -0.8137 -0.0000
vn 0.8137 0.5812 -0.0000
vn -0.5812 0.8137 -0.0000
vn 0.8137 -0.5812 -0.0000
vn 0.5812 0.8137 -0.0000
vn -0.8137 -0.5812 -0.0000
vn 0.5812 -0.8137 -0.0000
vn -0.8137 0.5812 -0.0000
vt 0.332031 0.312500
vt 0.332031 0.296875
vt 0.289062 0.296875
vt 0.289062 0.312500
vt 0.324219 0.296875
vt 0.324219 0.312500
vt 0.351562 0.312500
vt 0.351562 0.296875
vt 0.269531 0.285156
vt 0.285156 0.292969
vt 0.285156 0.253906
vt 0.269531 0.257812
vt 0.296875 0.296875
vt 0.296875 0.312500
vt 0.285156 0.289062
vt 0.308594 0.296875
vt 0.308594 0.312500
vt 0.300781 0.296875
vt 0.300781 0.312500
vt 0.328125 0.312500
vt 0.328125 0.296875
vt 0.292969 0.296875
vt 0.292969 0.312500
vt 0.343750 0.312500
vt 0.343750 0.296875
vt 0.312500 0.296875
vt 0.312500 0.312500
vt 0.339844 0.312500
vt 0.339844 0.296875
vt 0.316406 0.312500
vt 0.316406 0.296875
vt 0.347656 0.312500
vt 0.347656 0.296875
vt 0.304688 0.296875
vt 0.304688 0.312500
vt 0.320312 0.296875
vt 0.320312 0.312500
vt 0.324219 0.292969
vt 0.355469 0.292969
vt 0.355469 0.277344
vt 0.324219 0.277344
vt 0.289062 0.292969
vt 0.320312 0.292969
vt 0.320312 0.261719
vt 0.289062 0.261719
vt 0.368608 0.269114
vt 0.390194 0.247529
vt 0.312484 0.247529
vt 0.334070 0.269114
vt 0.390194 0.212991
vt 0.312484 0.212991
vt 0.368608 0.191405
vt 0.334070 0.191405
vt 0.273438 0.265625
vt 0.273438 0.281250
vt 0.281250 0.281250
vt 0.281250 0.265625
vt 0.277344 0.296875
vt 0.277344 0.312500
vt 0.269531 0.312500
vt 0.269531 0.296875
vt 0.273438 0.273438
vt 0.285156 0.281250
vt 0.285156 0.269531
vt 0.273438 0.269531
vt 0.273438 0.285156
vt 0.285156 0.285156
s 0
usemtl default
f 6/1/1 5/2/1 1/3/1 2/4/1
f 7/5/2 8/6/2 4/7/2 3/8/2
f 8/9/3 6/10/3 2/11/3 4/12/3
f 10/6/4 9/5/4 5/3/4 6/4/4
f 11/13/5 12/14/5 8/6/5 7/5/5
f 12/9/3 10/15/3 6/11/3 8/12/3
f 14/7/6 13/8/6 9/16/6 10/17/6
f 15/18/7 16/19/7 12/20/7 11/21/7
f 16/9/3 14/10/3 10/11/3 12/12/3
f 18/20/8 17/21/8 13/22/8 14/23/8
f 19/13/9 20/14/9 16/6/9 15/5/9
f 20/9/3 18/15/3 14/11/3 16/12/3
f 22/24/2 21/25/2 17/18/2 18/19/2
f 23/26/1 24/27/1 20/28/1 19/29/1
f 24/9/3 22/10/3 18/11/3 20/12/3
f 26/24/5 25/25/5 21/16/5 22/17/5
f 27/3/4 28/4/4 24/30/4 23/31/4
f 28/12/3 26/11/3 22/15/3 24/9/3
f 30/32/7 29/33/7 25/34/7 26/35/7
f 31/5/6 32/6/6 28/7/6 27/8/6
f 32/12/3 30/11/3 26/10/3 28/9/3
f 2/7/9 1/8/9 29/31/9 30/30/9
f 3/36/8 4/37/8 32/32/8 31/33/8
f 4/9/3 2/15/3 30/11/3 32/12/3
f 36/9/10 35/10/10 33/11/10 34/12/10
f 38/9/10 37/15/10 35/11/10 36/12/10
f 40/9/10 39/10/10 37/11/10 38/12/10
f 42/9/10 41/15/10 39/11/10 40/12/10
f 44/9/10 43/10/10 41/11/10 42/12/10
f 46/12/10 45/11/10 43/15/10 44/9/10
f 48/12/10 47/11/10 45/10/10 46/9/10
f 34/9/10 33/15/10 47/11/10 48/12/10
f 49/38/4 50/39/4 52/40/4 51/41/4
f 54/38/5 53/39/5 55/40/5 56/41/5
f 54/42/3 50/43/3 49/44/3 53/45/3
f 55/42/10 51/43/10 52/44/10 56/45/10
f 53/38/9 49/39/9 51/40/9 55/41/9
f 50/38/8 54/39/8 56/40/8 52/41/8
f 57/46/3 58/47/3 60/48/3 59/49/3
f 64/48/3 62/47/3 61/50/3 63/51/3
f 68/51/3 66/50/3 65/52/3 67/53/3
f 69/46/10 70/47/10 72/48/10 71/49/10
f 76/48/10 74/47/10 73/50/10 75/51/10
f 80/51/10 78/50/10 77/52/10 79/53/10
f 84/54/9 82/55/9 81/56/9 83/57/9
f 87/58/8 85/59/8 86/60/8 88/61/8
f 81/62/3 82/55/3 86/63/3 85/64/3
f 84/62/10 83/55/10 87/63/10 88/64/10
f 83/65/11 81/66/11 85/67/11 87/64/11
f 88/64/12 86/67/12 82/66/12 84/65/12
f 92/54/9 90/55/9 89/56/9 91/57/9
f 95/58/8 93/59/8 94/60/8 96/61/8
f 89/62/3 90/55/3 94/63/3 93/64/3
f 92/62/10 91/55/10 95/63/10 96/64/10
f 91/65/11 89/66/11 93/67/11 95/64/11
f 96/64/12 94/67/12 90/66/12 92/65/12
f 100/54/4 98/55/4 97/56/4 99/57/4
f 103/58/5 101/59/5 102/60/5 104/61/5
f 97/62/3 98/55/3 102/63/3 101/64/3
f 100/62/10 99/55/10 103/63/10 104/64/10
f 99/65/13 97/66/13 101/67/13 103/64/13
f 104/64/14 102/67/14 98/66/14 100/65/14
f 108/54/4 106/55/4 105/56/4 107/57/4
f 111/58/5 109/59/5 110/60/5 112/61/5
f 105/62/3 106/55/3 110/63/3 109/64/3
f 108/62/10 107/55/10 111/63/10 112/64/10
f 107/65/13 105/66/13 109/67/13 111/64/13
f 112/64/14 110/67/14 106/66/14 108/65/14
f 113/56/5 114/55/5 116/54/5 115/57/5
f 118/60/4 117/59/4 119/58/4 120/61/4
f 118/63/3 114/55/3 113/62/3 117/64/3
f 119/63/10 115/55/10 116/62/10 120/64/10
f 117/67/15 113/66/15 115/65/15 119/64/15
f 114/66/16 118/67/16 120/64/16 116/65/16
f 121/56/5 122/55/5 124/54/5 123/57/5
f 126/60/4 125/59/4 127/58/4 128/61/4
f 126/63/3 122/55/3 121/62/3 125/64/3
f 127/63/10 123/55/10 124/62/10 128/64/10
f 125/67/15 121/66/15 123/65/15 127/64/15
f 122/66/16 126/67/16 128/64/16 124/65/16
f 129/56/8 130/55/8 132/54/8 131/57/8
f 134/60/9 133/59/9 135/58/9 136/61/9
f 134/63/3 130/55/3 129/62/3 133/64/3
f 135/63/10 131/55/10 132/62/10 136/64/10
f 133/67/17 129/66/17 131/65/17 135/64/17
f 130/66/18 134/67/18 136/64/18 132/65/18
f 137/56/8 138/55/8 140/54/8 139/57/8
f 142/60/9 141/59/9 143/58/9 144/61/9
f 142/63/3 138/55/3 137/62/3 141/64/3
f 143/63/10 139/55/10 140/62/10 144/64/10
f 141/67/17 137/66/17 139/65/17 143/64/17
f 138/66/18 142/67/18 144/64/18 140/65/18
f 145/56/2 146/55/2 148/54/2 147/57/2
f 150/60/1 149/59/1 151/58/1 152/61/1
f 150/63/3 146/55/3 145/62/3 149/64/3
f 151/63/10 147/55/10 148/62/10 152/64/10
f 149/67/19 145/66/19 147/65/19 151/64/19
f 146/66/20 150/67/20 152/64/20 148/65/20
f 153/56/2 154/55/2 156/54/2 155/57/2
f 158/60/1 157/59/1 159/58/1 160/61/1
f 158/63/3 154/55/3 153/62/3 157/64/3
f 159/63/10 155/55/10 156/62/10 160/64/10
f 157/67/19 153/66/19 155/65/19 159/64/19
f 154/66/20 158/67/20 160/64/20 156/65/20
f 164/54/7 162/55/7 161/56/7 163/57/7
f 167/58/6 165/59/6 166/60/6 168/61/6
f 161/62/3 162/55/3 166/63/3 165/64/3
f 164/62/10 163/55/10 167/63/10 168/64/10
f 163/65/21 161/66/21 165/67/21 167/64/21
f 168/64/22 166/67/22 162/66/22 164/65/22
f 172/54/7 170/55/7 169/56/7 171/57/7
f 175/58/6 173/59/6 174/60/6 176/61/6
f 169/62/3 170/55/3 174/63/3 173/64/3
f 172/62/10 171/55/10 175/63/10 176/64/10
f 171/65/21 169/66/21 173/67/21 175/64/21
f 176/64/22 174/67/22 170/66/22 172/65/22
f 177/56/1 178/55/1 180/54/1 179/57/1
f 182/60/2 181/59/2 183/58/2 184/61/2
f 182/63/3 178/55/3 177/62/3 181/64/3
f 183/63/10 179/55/10 180/62/10 184/64/10
f 181/67/23 177/66/23 179/65/23 183/64/23
f 178/66/24 182/67/24 184/64/24 180/65/24
f 185/56/1 186/55/1 188/54/1 187/57/1
f 190/60/2 189/59/2 191/58/2 192/61/2
f 190/63/3 186/55/3 185/62/3 189/64/3
f 191/63/10 187/55/10 188/62/10 192/64/10
f 189/67/23 185/66/23 187/65/23 191/64/23
f 186/66/24 190/67/24 192/64/24 188/65/24
f 196/54/6 194/55/6 193/56/6 195/57/6
f 199/58/7 197/59/7 198/60/7 200/61/7
f 193/62/3 194/55/3 198/63/3 197/64/3
f 196/62/10 195/55/10 199/63/10 200/64/10
f 195/65/25 193/66/25 197/67/25 199/64/25
f 200/64/26 198/67/26 194/66/26 196/65/26
f 204/54/6 202/55/6 201/56/6 203/57/6
f 207/58/7 205/59/7 206/60/7 208/61/7
f 201/62/3 202/55/3 206/63/3 205/64/3
f 204/62/10 203/55/10 207/63/10 208/64/10
f 203/65/25 201/66/25 205/67/25 207/64/25
f 208/64/26 206/67/26 202/66/26 204/65/26
f 214/1/1 213/2/1 209/3/1 210/4/1
f 215/5/2 216/6/2 212/7/2 211/8/2
f 216/9/3 214/10/3 210/11/3 212/12/3
f 218/6/4 217/5/4 213/3/4 214/4/4
f 219/13/5 220/14/5 216/6/5 215/5/5
f 220/9/3 218/15/3 214/11/3 216/12/3
f 222/7/6 221/8/6 217/16/6 218/17/6
f 223/18/7 224/19/7 220/20/7 219/21/7
f 224/9/3 222/10/3 218/11/3 220/12/3
f 226/20/8 225/21/8 221/22/8 222/23/8
f 227/13/9 228/14/9 224/6/9 223/5/9
f 228/9/3 226/15/3 222/11/3 224/12/3
f 230/24/2 229/25/2 225/18/2 226/19/2
f 231/26/1 232/27/1 228/28/1 227/29/1
f 232/9/3 230/10/3 226/11/3 228/12/3
f 234/24/5 233/25/5 229/16/5 230/17/5
f 235/3/4 236/4/4 232/30/4 231/31/4
f 236/12/3 234/11/3 230/15/3 232/9/3
f 238/32/7 237/33/7 233/34/7 234/35/7
f 239/5/6 240/6/6 236/7/6 235/8/6
f 240/12/3 238/11/3 234/10/3 236/9/3
f 210/7/9 209/8/9 237/31/9 238/30/9
f 211/36/8 212/37/8 240/32/8 239/33/8
f 212/9/3 210/15/3 238/11/3 240/12/3
f 244/9/10 243/10/10 241/11/10 242/12/10
f 246/9/10 245/15/10 243/11/10 244/12/10
f 248/9/10 247/10/10 245/11/10 246/12/10
f 250/9/10 249/15/10 247/11/10 248/12/10
f 252/9/10 251/10/10 249/11/10 250/12/10
f 254/12/10 253/11/10 251/15/10 252/9/10
f 256/12/10 255/11/10 253/10/10 254/9/10
f 242/9/10 241/15/10 255/11/10 256/12/10
f 257/38/4 258/39/4 260/40/4 259/41/4
f 262/38/5 261/39/5 263/40/5 264/41/5
f 262/42/3 258/43/3 257/44/3 261/45/3
f 263/42/10 259/43/10 260/44/10 264/45/10
f 261/38/9 257/39/9 259/40/9 263/41/9
f 258/38/8 262/39/8 264/40/8 260/41/8
f 265/46/3 266/47/3 268/48/3 267/49/3
f 272/48/3 270/47/3 269/50/3 271/51/3
f 276/51/3 274/50/3 273/52/3 275/53/3
f 277/46/10 278/47/10 280/48/10 279/49/10
f 284/48/10 282/47/10 281/50/10 283/51/10
f 288/51/10 286/50/10 285/52/10 287/53/10
f 292/54/9 290/55/9 289/56/9 291/57/9
f 295/58/8 293/59/8 294/60/8 296/61/8
f 289/62/3 290/55/3 294/63/3 293/64/3
f 292/62/10 291/55/10 295/63/10 296/64/10
f 291/65/11 289/66/11 293/67/11 295/64/11
f 296/64/12 294/67/12 290/66/12 292/65/12
f 300/54/9 298/55/9 297/56/9 299/57/9
f 303/58/8 301/59/8 302/60/8 304/61/8
f 297/62/3 298/55/3 302/63/3 301/64/3
f 300/62/10 299/55/10 303/63/10 304/64/10
f 299/65/11 297/66/11 301/67/11 303/64/11
f 304/64/12 302/67/12 298/66/12 300/65/12
f 308/54/4 306/55/4 305/56/4 307/57/4
f 311/58/5 309/59/5 310/60/5 312/61/5
f 305/62/3 306/55/3 310/63/3 309/64/3
f 308/62/10 307/55/10 311/63/10 312/64/10
f 307/65/13 305/66/13 309/67/13 311/64/13
f 312/64/14 310/67/14 306/66/14 308/65/14
f 316/54/4 314/55/4 313/56/4 315/57/4
f 319/58/5 317/59/5 318/60/5 320/61/5
f 313/62/3 314/55/3 318/63/3 317/64/3
f 316/62/10 315/55/10 319/63/10 320/64/10
f 315/65/13 313/66/13 317/67/13 319/64/13
f 320/64/14 318/67/14 314/66/14 316/65/14
f 321/56/5 322/55/5 324/54/5 323/57/5
f 326/60/4 325/59/4 327/58/4 328/61/4
f 326/63/3 322/55/3 321/62/3 325/64/3
f 327/63/10 323/55/10 324/62/10 328/64/10
f 325/67/15 321/66/15 323/65/15 327/64/15
f 322/66/16 326/67/16 328/64/16 324/65/16
f 329/56/5 330/55/5 332/54/5 331/57/5
f 334/60/4 333/59/4 335/58/4 336/61/4
f 334/63/3 330/55/3 329/62/3 333/64/3
f 335/63/10 331/55/10 332/62/10 336/64/10
f 333/67/15 329/66/15 331/65/15 335/64/15
f 330/66/16 334/67/16 336/64/16 332/65/16
f 337/56/8 338/55/8 340/54/8 339/57/8
f 342/60/9 341/59/9 343/58/9 344/61/9
f 342/63/3 338/55/3 337/62/3 341/64/3
f 343/63/10 339/55/10 340/62/10 344/64/10
f 341/67/17 337/66/17 339/65/17 343/64/17
f 338/66/18 342/67/18 344/64/18 340/65/18
f 345/56/8 346/55/8 348/54/8 347/57/8
f 350/60/9 349/59/9 351/58/9 352/61/9
f 350/63/3 346/55/3 345/62/3 349/64/3
f 351/63/10 347/55/10 348/62/10 352/64/10
f 349/67/17 345/66/17 347/65/17 351/64/17
f 346/66/18 350/67/18 352/64/18 348/65/18
f 353/56/2 354/55/2 356/54/2 355/57/2
f 358/60/1 357/59/1 359/58/1 360/61/1
f 358/63/3 354/55/3 353/62/3 357/64/3
f 359/63/10 355/55/10 356/62/10 360/64/10
f 357/67/19 353/66/19 355/65/19 359/64/19
f 354/66/20 358/67/20 360/64/20 356/65/20
f 361/56/2 362/55/2 364/54/2 363/57/2
f 366/60/1 365/59/1 367/58/1 368/61/1
f 366/63/3 362/55/3 361/62/3 365/64/3
f 367/63/10 363/55/10 364/62/10 368/64/10
f 365/67/19 361/66/19 363/65/19 367/64/19
f 362/66/20 366/67/20 368/64/20 364/65/20
f 372/54/7 370/55/7 369/56/7 371/57/7
f 375/58/6 373/59/6 374/60/6 376/61/6
f 369/62/3 370/55/3 374/63/3 373/64/3
f 372/62/10 371/55/10 375/63/10 376/64/10
f 371/65/21 369/66/21 373/67/21 375/64/21
f 376/64/22 374/67/22 370/66/22 372/65/22
f 380/54/7 378/55/7 377/56/7 379/57/7
f 383/58/6 381/59/6 382/60/6 384/61/6
f 377/62/3 378/55/3 382/63/3 381/64/3
f 380/62/10 379/55/10 383/63/10 384/64/10
f 379/65/21 377/66/21 381/67/21 383/64/21
f 384/64/22 382/67/22 378/66/22 380/65/22
f 385/56/1 386/55/1 388/54/1 387/57/1
f 390/60/2 389/59/2 391/58/2 392/61/2
f 390/63/3 386/55/3 385/62/3 389/64/3
f 391/63/10 387/55/10 388/62/10 392/64/10
f 389/67/23 385/66/23 387/65/23 391/64/23
f 386/66/24 390/67/24 392/64/24 388/65/24
f 393/56/1 394/55/1 396/54/1 395/57/1
f 398/60/2 397/59/2 399/58/2 400/61/2
f 398/63/3 394/55/3 393/62/3 397/64/3
f 399/63/10 395/55/10 396/62/10 400/64/10
f 397/67/23 393/66/23 395/65/23 399/64/23
f 394/66/24 398/67/24 400/64/24 396/65/24
f 404/54/6 402/55/6 401/56/6 403/57/6
f 407/58/7 405/59/7 406/60/7 408/61/7
f 401/62/3 402/55/3 406/63/3 405/64/3
f 404/62/10 403/55/10 407/63/10 408/64/10
f 403/65/25 401/66/25 405/67/25 407/64/25
f 408/64/26 406/67/26 402/66/26 404/65/26
f 412/54/6 410/55/6 409/56/6 411/57/6
f 415/58/7 413/59/7 414/60/7 416/61/7
f 409/62/3 410/55/3 414/63/3 413/64/3
f 412/62/10 411/55/10 415/63/10 416/64/10
f 411/65/25 409/66/25 413/67/25 415/64/25
f 416/64/26 414/67/26 410/66/26 412/65/26
f 417/3/1 421/2/1 422/1/1 418/4/1
f 420/7/2 424/6/2 423/5/2 419/8/2
f 418/11/10 422/10/10 424/9/10 420/12/10
f 421/3/4 425/5/4 426/6/4 422/4/4
f 424/6/5 428/14/5 427/13/5 423/5/5
f 422/11/10 426/15/10 428/9/10 424/12/10
f 425/16/6 429/8/6 430/7/6 426/17/6
f 428/20/7 432/19/7 431/18/7 427/21/7
f 426/11/10 430/10/10 432/9/10 428/12/10
f 429/22/8 433/21/8 434/20/8 430/23/8
f 432/6/9 436/14/9 435/13/9 431/5/9
f 430/11/10 434/15/10 436/9/10 432/12/10
f 433/18/2 437/25/2 438/24/2 434/19/2
f 436/28/1 440/27/1 439/26/1 435/29/1
f 434/11/10 438/10/10 440/9/10 436/12/10
f 437/16/5 441/25/5 442/24/5 438/17/5
f 440/30/4 444/4/4 443/3/4 439/31/4
f 438/15/10 442/11/10 444/12/10 440/9/10
f 441/34/7 445/33/7 446/32/7 442/35/7
f 444/7/6 448/6/6 447/5/6 443/8/6
f 442/10/10 446/11/10 448/12/10 444/9/10
f 445/31/9 417/8/9 418/7/9 446/30/9
f 448/32/8 420/37/8 419/36/8 447/33/8
f 446/11/10 418/15/10 420/9/10 448/12/10
f 449/11/3 451/10/3 452/9/3 450/12/3
f 451/11/3 453/15/3 454/9/3 452/12/3
f 453/11/3 455/10/3 456/9/3 454/12/3
f 455/11/3 457/15/3 458/9/3 456/12/3
f 457/11/3 459/10/3 460/9/3 458/12/3
f 459/15/3 461/11/3 462/12/3 460/9/3
f 461/10/3 463/11/3 464/12/3 462/9/3
f 463/11/3 449/15/3 450/9/3 464/12/3
f 468/40/4 466/39/4 465/38/4 467/41/4
f 471/40/5 469/39/5 470/38/5 472/41/5
f 465/44/10 466/43/10 470/42/10 469/45/10
f 468/44/3 467/43/3 471/42/3 472/45/3
f 467/40/9 465/39/9 469/38/9 471/41/9
f 472/40/8 470/39/8 466/38/8 468/41/8
f 476/48/10 474/47/10 473/46/10 475/49/10
f 477/50/10 478/47/10 480/48/10 479/51/10
f 481/52/10 482/50/10 484/51/10 483/53/10
f 488/48/3 486/47/3 485/46/3 487/49/3
f 489/50/3 490/47/3 492/48/3 491/51/3
f 493/52/3 494/50/3 496/51/3 495/53/3
f 497/56/9 498/55/9 500/54/9 499/57/9
f 502/60/8 501/59/8 503/58/8 504/61/8
f 502/63/10 498/55/10 497/62/10 501/64/10
f 503/63/3 499/55/3 500/62/3 504/64/3
f 501/67/11 497/66/11 499/65/11 503/64/11
f 498/66/12 502/67/12 504/64/12 500/65/12
f 505/56/9 506/55/9 508/54/9 507/57/9
f 510/60/8 509/59/8 511/58/8 512/61/8
f 510/63/10 506/55/10 505/62/10 509/64/10
f 511/63/3 507/55/3 508/62/3 512/64/3
f 509/67/11 505/66/11 507/65/11 511/64/11
f 506/66/12 510/67/12 512/64/12 508/65/12
f 513/56/4 514/55/4 516/54/4 515/57/4
f 518/60/5 517/59/5 519/58/5 520/61/5
f 518/63/10 514/55/10 513/62/10 517/64/10
f 519/63/3 515/55/3 516/62/3 520/64/3
f 517/67/13 513/66/13 515/65/13 519/64/13
f 514/66/14 518/67/14 520/64/14 516/65/14
f 521/56/4 522/55/4 524/54/4 523/57/4
f 526/60/5 525/59/5 527/58/5 528/61/5
f 526/63/10 522/55/10 521/62/10 525/64/10
f 527/63/3 523/55/3 524/62/3 528/64/3
f 525/67/13 521/66/13 523/65/13 527/64/13
f 522/66/14 526/67/14 528/64/14 524/65/14
f 532/54/5 530/55/5 529/56/5 531/57/5
f 535/58/4 533/59/4 534/60/4 536/61/4
f 529/62/10 530/55/10 534/63/10 533/64/10
f 532/62/3 531/55/3 535/63/3 536/64/3
f 531/65/15 529/66/15 533/67/15 535/64/15
f 536/64/16 534/67/16 530/66/16 532/65/16
f 540/54/5 538/55/5 537/56/5 539/57/5
f 543/58/4 541/59/4 542/60/4 544/61/4
f 537/62/10 538/55/10 542/63/10 541/64/10
f 540/62/3 539/55/3 543/63/3 544/64/3
f 539/65/15 537/66/15 541/67/15 543/64/15
f 544/64/16 542/67/16 538/66/16 540/65/16
f 548/54/8 546/55/8 545/56/8 547/57/8
f 551/58/9 549/59/9 550/60/9 552/61/9
f 545/62/10 546/55/10 550/63/10 549/64/10
f 548/62/3 547/55/3 551/63/3 552/64/3
f 547/65/17 545/66/17 549/67/17 551/64/17
f 552/64/18 550/67/18 546/66/18 548/65/18
f 556/54/8 554/55/8 553/56/8 555/57/8
f 559/58/9 557/59/9 558/60/9 560/61/9
f 553/62/10 554/55/10 558/63/10 557/64/10
f 556/62/3 555/55/3 559/63/3 560/64/3
f 555/65/17 553/66/17 557/67/17 559/64/17
f 560/64/18 558/67/18 554/66/18 556/65/18
f 564/54/2 562/55/2 561/56/2 563/57/2
f 567/58/1 565/59/1 566/60/1 568/61/1
f 561/62/10 562/55/10 566/63/10 565/64/10
f 564/62/3 563/55/3 567/63/3 568/64/3
f 563/65/19 561/66/19 565/67/19 567/64/19
f 568/64/20 566/67/20 562/66/20 564/65/20
f 572/54/2 570/55/2 569/56/2 571/57/2
f 575/58/1 573/59/1 574/60/1 576/61/1
f 569/62/10 570/55/10 574/63/10 573/64/10
f 572/62/3 571/55/3 575/63/3 576/64/3
f 571/65/19 569/66/19 573/67/19 575/64/19
f 576/64/20 574/67/20 570/66/20 572/65/20
f 577/56/7 578/55/7 580/54/7 579/57/7
f 582/60/6 581/59/6 583/58/6 584/61/6
f 582/63/10 578/55/10 577/62/10 581/64/10
f 583/63/3 579/55/3 580/62/3 584/64/3
f 581/67/21 577/66/21 579/65/21 583/64/21
f 578/66/22 582/67/22 584/64/22 580/65/22
f 585/56/7 586/55/7 588/54/7 587/57/7
f 590/60/6 589/59/6 591/58/6 592/61/6
f 590/63/10 586/55/10 585/62/10 589/64/10
f 591/63/3 587/55/3 588/62/3 592/64/3
f 589/67/21 585/66/21 587/65/21 591/64/21
f 586/66/22 590/67/22 592/64/22 588/65/22
f 596/54/1 594/55/1 593/56/1 595/57/1
f 599/58/2 597/59/2 598/60/2 600/61/2
f 593/62/10 594/55/10 598/63/10 597/64/10
f 596/62/3 595/55/3 599/63/3 600/64/3
f 595/65/23 593/66/23 597/67/23 599/64/23
f 600/64/24 598/67/24 594/66/24 596/65/24
f 604/54/1 602/55/1 601/56/1 603/57/1
f 607/58/2 605/59/2 606/60/2 608/61/2
f 601/62/10 602/55/10 606/63/10 605/64/10
f 604/62/3 603/55/3 607/63/3 608/64/3
f 603/65/23 601/66/23 605/67/23 607/64/23
f 608/64/24 606/67/24 602/66/24 604/65/24
f 609/56/6 610/55/6 612/54/6 611/57/6
f 614/60/7 613/59/7 615/58/7 616/61/7
f 614/63/10 610/55/10 609/62/10 613/64/10
f 615/63/3 611/55/3 612/62/3 616/64/3
f 613/67/25 609/66/25 611/65/25 615/64/25
f 610/66/26 614/67/26 616/64/26 612/65/26
f 617/56/6 618/55/6 620/54/6 619/57/6
f 622/60/7 621/59/7 623/58/7 624/61/7
f 622/63/10 618/55/10 617/62/10 621/64/10
f 623/63/3 619/55/3 620/62/3 624/64/3
f 621/67/25 617/66/25 619/65/25 623/64/25
f 618/66/26 622/67/26 624/64/26 620/65/26
f 625/3/1 629/2/1 630/1/1 626/4/1
f 628/7/2 632/6/2 631/5/2 627/8/2
f 626/11/10 630/10/10 632/9/10 628/12/10
f 629/3/4 633/5/4 634/6/4 630/4/4
f 632/6/5 636/14/5 635/13/5 631/5/5
f 630/11/10 634/15/10 636/9/10 632/12/10
f 633/16/6 637/8/6 638/7/6 634/17/6
f 636/20/7 640/19/7 639/18/7 635/21/7
f 634/11/10 638/10/10 640/9/10 636/12/10
f 637/22/8 641/21/8 642/20/8 638/23/8
f 640/6/9 644/14/9 643/13/9 639/5/9
f 638/11/10 642/15/10 644/9/10 640/12/10
f 641/18/2 645/25/2 646/24/2 642/19/2
f 644/28/1 648/27/1 647/26/1 643/29/1
f 642/11/10 646/10/10 648/9/10 644/12/10
f 645/16/5 649/25/5 650/24/5 646/17/5
f 648/30/4 652/4/4 651/3/4 647/31/4
f 646/15/10 650/11/10 652/12/10 648/9/10
f 649/34/7 653/33/7 654/32/7 650/35/7
f 652/7/6 656/6/6 655/5/6 651/8/6
f 650/10/10 654/11/10 656/12/10 652/9/10
f 653/31/9 625/8/9 626/7/9 654/30/9
f 656/32/8 628/37/8 627/36/8 655/33/8
f 654/11/10 626/15/10 628/9/10 656/12/10
f 657/11/3 659/10/3 660/9/3 658/12/3
f 659/11/3 661/15/3 662/9/3 660/12/3
f 661/11/3 663/10/3 664/9/3 662/12/3
f 663/11/3 665/15/3 666/9/3 664/12/3
f 665/11/3 667/10/3 668/9/3 666/12/3
f 667/15/3 669/11/3 670/12/3 668/9/3
f 669/10/3 671/11/3 672/12/3 670/9/3
f 671/11/3 657/15/3 658/9/3 672/12/3
f 676/40/4 674/39/4 673/38/4 675/41/4
f 679/40/5 677/39/5 678/38/5 680/41/5
f 673/44/10 674/43/10 678/42/10 677/45/10
f 676/44/3 675/43/3 679/42/3 680/45/3
f 675/40/9 673/39/9 677/38/9 679/41/9
f 680/40/8 678/39/8 674/38/8 676/41/8
f 684/48/10 682/47/10 681/46/10 683/49/10
f 685/50/10 686/47/10 688/48/10 687/51/10
f 689/52/10 690/50/10 692/51/10 691/53/10
f 696/48/3 694/47/3 693/46/3 695/49/3
f 697/50/3 698/47/3 700/48/3 699/51/3
f 701/52/3 702/50/3 704/51/3 703/53/3
f 705/56/9 706/55/9 708/54/9 707/57/9
f 710/60/8 709/59/8 711/58/8 712/61/8
f 710/63/10 706/55/10 705/62/10 709/64/10
f 711/63/3 707/55/3 708/62/3 712/64/3
f 709/67/11 705/66/11 707/65/11 711/64/11
f 706/66/12 710/67/12 712/64/12 708/65/12
f 713/56/9 714/55/9 716/54/9 715/57/9
f 718/60/8 717/59/8 719/58/8 720/61/8
f 718/63/10 714/55/10 713/62/10 717/64/10
f 719/63/3 715/55/3 716/62/3 720/64/3
f 717/67/11 713/66/11 715/65/11 719/64/11
f 714/66/12 718/67/12 720/64/12 716/65/12
f 721/56/4 722/55/4 724/54/4 723/57/4
f 726/60/5 725/59/5 727/58/5 728/61/5
f 726/63/10 722/55/10 721/62/10 725/64/10
f 727/63/3 723/55/3 724/62/3 728/64/3
f 725/67/13 721/66/13 723/65/13 727/64/13
f 722/66/14 726/67/14 728/64/14 724/65/14
f 729/56/4 730/55/4 732/54/4 731/57/4
f 734/60/5 733/59/5 735/58/5 736/61/5
f 734/63/10 730/55/10 729/62/10 733/64/10
f 735/63/3 731/55/3 732/62/3 736/64/3
f 733/67/13 729/66/13 731/65/13 735/64/13
f 730/66/14 734/67/14 736/64/14 732/65/14
f 740/54/5 738/55/5 737/56/5 739/57/5
f 743/58/4 741/59/4 742/60/4 744/61/4
f 737/62/10 738/55/10 742/63/10 741/64/10
f 740/62/3 739/55/3 743/63/3 744/64/3
f 739/65/15 737/66/15 741/67/15 743/64/15
f 744/64/16 742/67/16 738/66/16 740/65/16
f 748/54/5 746/55/5 745/56/5 747/57/5
f 751/58/4 749/59/4 750/60/4 752/61/4
f 745/62/10 746/55/10 750/63/10 749/64/10
f 748/62/3 747/55/3 751/63/3 752/64/3
f 747/65/15 745/66/15 749/67/15 751/64/15
f 752/64/16 750/67/16 746/66/16 748/65/16
f 756/54/8 754/55/8 753/56/8 755/57/8
f 759/58/9 757/59/9 758/60/9 760/61/9
f 753/62/10 754/55/10 758/63/10 757/64/10
f 756/62/3 755/55/3 759/63/3 760/64/3
f 755/65/17 753/66/17 757/67/17 759/64/17
f 760/64/18 758/67/18 754/66/18 756/65/18
f 764/54/8 762/55/8 761/56/8 763/57/8
f 767/58/9 765/59/9 766/60/9 768/61/9
f 761/62/10 762/55/10 766/63/10 765/64/10
f 764/62/3 763/55/3 767/63/3 768/64/3
f 763/65/17 761/66/17 765/67/17 767/64/17
f 768/64/18 766/67/18 762/66/18 764/65/18
f 772/54/2 770/55/2 769/56/2 771/57/2
f 775/58/1 773/59/1 774/60/1 776/61/1
f 769/62/10 770/55/10 774/63/10 773/64/10
f 772/62/3 771/55/3 775/63/3 776/64/3
f 771/65/19 769/66/19 773/67/19 775/64/19
f 776/64/20 774/67/20 770/66/20 772/65/20
f 780/54/2 778/55/2 777/56/2 779/57/2
f 783/58/1 781/59/1 782/60/1 784/61/1
f 777/62/10 778/55/10 782/63/10 781/64/10
f 780/62/3 779/55/3 783/63/3 784/64/3
f 779/65/19 777/66/19 781/67/19 783/64/19
f 784/64/20 782/67/20 778/66/20 780/65/20
f 785/56/7 786/55/7 788/54/7 787/57/7
f 790/60/6 789/59/6 791/58/6 792/61/6
f 790/63/10 786/55/10 785/62/10 789/64/10
f 791/63/3 787/55/3 788/62/3 792/64/3
f 789/67/21 785/66/21 787/65/21 791/64/21
f 786/66/22 790/67/22 792/64/22 788/65/22
f 793/56/7 794/55/7 796/54/7 795/57/7
f 798/60/6 797/59/6 799/58/6 800/61/6
f 798/63/10 794/55/10 793/62/10 797/64/10
f 799/63/3 795/55/3 796/62/3 800/64/3
f 797/67/21 793/66/21 795/65/21 799/64/21
f 794/66/22 798/67/22 800/64/22 796/65/22
f 804/54/1 802/55/1 801/56/1 803/57/1
f 807/58/2 805/59/2 806/60/2 808/61/2
f 801/62/10 802/55/10 806/63/10 805/64/10
f 804/62/3 803/55/3 807/63/3 808/64/3
f 803/65/23 801/66/23 805/67/23 807/64/23
f 808/64/24 806/67/24 802/66/24 804/65/24
f 812/54/1 810/55/1 809/56/1 811/57/1
f 815/58/2 813/59/2 814/60/2 816/61/2
f 809/62/10 810/55/10 814/63/10 813/64/10
f 812/62/3 811/55/3 815/63/3 816/64/3
f 811/65/23 809/66/23 813/67/23 815/64/23
f 816/64/24 814/67/24 810/66/24 812/65/24
f 817/56/6 818/55/6 820/54/6 819/57/6
f 822/60/7 821/59/7 823/58/7 824/61/7
f 822/63/10 818/55/10 817/62/10 821/64/10
f 823/63/3 819/55/3 820/62/3 824/64/3
f 821/67/25 817/66/25 819/65/25 823/64/25
f 818/66/26 822/67/26 824/64/26 820/65/26
f 825/56/6 826/55/6 828/54/6 827/57/6
f 830/60/7 829/59/7 831/58/7 832/61/7
f 830/63/10 826/55/10 825/62/10 829/64/10
f 831/63/3 827/55/3 828/62/3 832/64/3
f 829/67/25 825/66/25 827/65/25 831/64/25
f 826/66/26 830/67/26 832/64/26 828/65/26
