# Blender 4.2.3 LTS
# www.blender.org
mtllib coredrill.mtl
o cube
v 0.593750 9.937500 0.362499
v 0.662913 10.500000 2.695844
v 0.618718 10.500000 2.740038
v 0.662913 9.812500 2.695844
v 0.618718 9.812500 2.740038
v 1.281631 10.500000 3.314562
v 1.237437 10.500000 3.358757
v 1.281631 9.812500 3.314562
v 1.237437 9.812500 3.358757
v 0.250000 9.812500 1.749999
v 0.250000 9.812500 0.249999
v 0.250000 8.062500 1.749999
v 0.250000 8.062500 0.249999
v 1.750000 9.812500 1.749999
v 1.750000 9.812500 0.249999
v 1.750000 8.062500 1.749999
v 1.750000 8.062500 0.249999
v 3.750000 9.812500 1.749999
v 3.750000 9.812500 0.249999
v 3.750000 8.062500 1.749999
v 3.750000 8.062500 0.249999
v 2.250000 9.812500 1.749999
v 2.250000 9.812500 0.249999
v 2.250000 8.062500 1.749999
v 2.250000 8.062500 0.249999
v 3.750000 9.812500 3.749999
v 3.750000 9.812500 2.249999
v 3.750000 8.062500 3.749999
v 3.750000 8.062500 2.249999
v 2.250000 9.812500 3.749999
v 2.250000 9.812500 2.249999
v 2.250000 8.062500 3.749999
v 2.250000 8.062500 2.249999
v 0.250000 9.812500 3.749999
v 0.250000 9.812500 2.249999
v 0.250000 8.062500 3.749999
v 0.250000 8.062500 2.249999
v 1.750000 9.812500 3.749999
v 1.750000 9.812500 2.249999
v 1.750000 8.062500 3.749999
v 1.750000 8.062500 2.249999
v 1.062500 9.125000 4.062500
v 1.062500 9.125000 3.749999
v 1.062500 8.812500 4.062500
v 1.062500 8.812500 3.749999
v 1.750000 9.125000 4.062500
v 1.750000 9.125000 3.749999
v 1.750000 8.812500 4.062500
v 1.750000 8.812500 3.749999
v 2.062500 8.812500 4.062500
v 2.062500 8.812500 3.749999
v 1.750000 8.812500 4.062500
v 1.750000 8.812500 3.749999
v 2.062500 8.187500 4.062500
v 2.062500 8.187500 3.749999
v 1.750000 8.187500 4.062500
v 1.750000 8.187500 3.749999
v 2.062500 8.187500 4.062500
v 2.062500 8.187500 3.749999
v 1.750000 8.187500 4.062500
v 1.750000 8.187500 3.749999
v 2.062500 7.562500 4.062500
v 2.062500 7.562500 3.750000
v 1.750000 7.562500 4.062500
v 1.750000 7.562500 3.750000
v 2.062500 7.250000 3.750000
v 2.062500 7.562500 3.750000
v 1.750000 7.250000 3.750000
v 1.750000 7.562500 3.750000
v 2.062500 7.250000 3.500000
v 2.062500 7.562500 3.500000
v 1.750000 7.250000 3.500000
v 1.750000 7.562500 3.500000
v 2.062500 8.812500 4.062500
v 2.062500 9.125000 4.062500
v 1.750000 8.812500 4.062500
v 1.750000 9.125000 4.062500
v 2.062500 8.812500 3.749999
v 2.062500 9.125000 3.749999
v 1.750000 8.812500 3.749999
v 1.750000 9.125000 3.749999
v 2.062500 7.250000 4.062500
v 2.062500 7.562500 4.062500
v 1.750000 7.250000 4.062500
v 1.750000 7.562500 4.062500
v 2.062500 7.250000 3.750000
v 2.062500 7.562500 3.750000
v 1.750000 7.250000 3.750000
v 1.750000 7.562500 3.750000
v 4.062500 8.062500 3.187499
v 3.750000 8.062500 3.187499
v 4.062500 8.062500 2.874999
v 3.750000 8.062500 2.874999
v 4.062500 8.750000 3.187499
v 3.750000 8.750000 3.187499
v 4.062500 8.750000 2.874999
v 3.750000 8.750000 2.874999
v 4.062500 9.062500 2.874999
v 3.750000 9.062500 2.874999
v 4.062500 8.750000 2.874999
v 3.750000 8.750000 2.874999
v 4.062500 9.062500 2.187499
v 3.750000 9.062500 2.187499
v 4.062500 8.750000 2.187499
v 3.750000 8.750000 2.187499
v 3.750000 9.062500 1.874999
v 3.750000 9.062500 2.187499
v 3.750000 8.750000 1.874999
v 3.750000 8.750000 2.187499
v 3.500000 9.062500 1.874999
v 3.500000 9.062500 2.187499
v 3.500000 8.750000 1.874999
v 3.500000 8.750000 2.187499
v 4.062500 9.062500 2.874999
v 4.062500 9.062500 3.187499
v 4.062500 8.750000 2.874999
v 4.062500 8.750000 3.187499
v 3.750000 9.062500 2.874999
v 3.750000 9.062500 3.187499
v 3.750000 8.750000 2.874999
v 3.750000 8.750000 3.187499
v 4.062500 8.062500 2.874999
v 4.062500 8.062500 3.187499
v 4.062500 7.750000 2.875000
v 4.062500 7.750000 3.187500
v 3.750000 8.062500 2.874999
v 3.750000 8.062500 3.187499
v 3.750000 7.750000 2.875000
v 3.750000 7.750000 3.187500
v 3.750000 8.062500 2.874999
v 3.750000 8.062500 3.187499
v 3.750000 7.750000 2.875000
v 3.750000 7.750000 3.187500
v 3.250000 8.062500 2.874999
v 3.250000 8.062500 3.187499
v 3.250000 7.750000 2.875000
v 3.250000 7.750000 3.187500
v 3.250000 8.062500 2.874999
v 3.250000 8.062500 3.187499
v 3.250000 7.750000 2.875000
v 3.250000 7.750000 3.187500
v 2.750000 8.062500 2.874999
v 2.750000 8.062500 3.187499
v 2.750000 7.750000 2.875000
v 2.750000 7.750000 3.187500
v 4.062500 9.062500 1.874999
v 4.062500 9.062500 2.187499
v 4.062500 8.750000 1.874999
v 4.062500 8.750000 2.187499
v 3.750000 9.062500 1.874999
v 3.750000 9.062500 2.187499
v 3.750000 8.750000 1.874999
v 3.750000 8.750000 2.187499
v 2.187500 8.062500 0.187499
v 2.187500 8.062500 0.499999
v 2.187500 7.750000 0.187499
v 2.187500 7.750000 0.499999
v 1.500000 8.062500 0.187499
v 1.500000 8.062500 0.499999
v 1.500000 7.750000 0.187499
v 1.500000 7.750000 0.499999
v 1.500000 8.062500 0.187499
v 1.500000 8.062500 0.499999
v 1.500000 7.750000 0.187499
v 1.500000 7.750000 0.499999
v 0.812500 8.062500 0.187499
v 0.812500 8.062500 0.499999
v 0.812500 7.750000 0.187499
v 0.812500 7.750000 0.499999
v 2.875000 8.062500 0.187499
v 2.875000 8.062500 0.499999
v 2.875000 7.750000 0.187499
v 2.875000 7.750000 0.499999
v 2.187500 8.062500 0.187499
v 2.187500 8.062500 0.499999
v 2.187500 7.750000 0.187499
v 2.187500 7.750000 0.499999
v 0.815260 8.062500 0.185754
v 0.815260 8.062500 0.502696
v 0.815260 7.750000 0.185754
v 0.815260 7.750000 0.502696
v 0.329124 8.062500 0.671890
v 0.550095 8.062500 0.892861
v 0.329124 7.750000 0.671890
v 0.550095 7.750000 0.892861
v 0.329124 8.062500 0.671890
v 0.550095 8.062500 0.892861
v 0.329124 7.750000 0.671890
v 0.550095 7.750000 0.892861
v 0.063959 8.062500 0.937055
v 0.284930 8.062500 1.158026
v 0.063959 7.750000 0.937055
v 0.284930 7.750000 1.158026
v 0.063959 8.875000 0.937055
v 0.284930 8.875000 1.158026
v 0.063959 8.062500 0.937055
v 0.284930 8.062500 1.158026
v -0.157012 8.875000 1.158026
v 0.063959 8.875000 1.378997
v -0.157012 8.062500 1.158026
v 0.063959 8.062500 1.378997
v 0.063959 9.187500 0.937055
v 0.284930 9.187500 1.158026
v 0.063959 8.875000 0.937055
v 0.284930 8.875000 1.158026
v -0.157012 9.187500 1.158026
v 0.063959 9.187500 1.378997
v -0.157012 8.875000 1.158026
v 0.063959 8.875000 1.378997
v 0.063959 8.062500 0.937055
v 0.284930 8.062500 1.158026
v 0.063959 7.750000 0.937055
v 0.284930 7.750000 1.158026
v -0.157012 8.062500 1.158026
v 0.063959 8.062500 1.378997
v -0.157012 7.750000 1.158026
v 0.063959 7.750000 1.378997
v 0.284930 9.187500 1.158026
v 0.505901 9.187500 1.378997
v 0.284930 8.875000 1.158026
v 0.505901 8.875000 1.378997
v 0.063959 9.187500 1.378997
v 0.284930 9.187500 1.599968
v 0.063959 8.875000 1.378997
v 0.284930 8.875000 1.599968
v 2.875000 8.062500 0.187499
v 3.187500 8.062500 0.187499
v 2.875000 7.750000 0.187499
v 3.187500 7.750000 0.187499
v 2.875000 8.062500 0.499999
v 3.187500 8.062500 0.499999
v 2.875000 7.750000 0.499999
v 3.187500 7.750000 0.499999
v 2.875000 8.062500 0.499999
v 3.187500 8.062500 0.499999
v 2.875000 7.750000 0.499999
v 3.187500 7.750000 0.499999
v 2.875000 8.062500 1.187499
v 3.187500 8.062500 1.187499
v 2.875000 7.750000 1.187499
v 3.187500 7.750000 1.187499
v 3.592068 10.437500 2.619796
v 4.078204 10.437500 2.840766
v 3.592068 9.937500 2.619796
v 4.078204 9.937500 2.840766
v 3.105932 10.437500 3.105931
v 3.459486 10.437500 3.459485
v 3.105932 9.937500 3.105931
v 3.459486 9.937500 3.459485
v 3.575000 10.437500 1.968749
v 4.075000 10.437500 1.968749
v 3.575000 9.937500 1.968749
v 4.075000 9.937500 1.968749
v 3.575000 10.437500 2.656249
v 4.075000 10.437500 2.843749
v 3.575000 9.937500 2.656249
v 4.075000 9.937500 2.843749
v 3.575000 10.437500 1.968749
v 4.075000 10.437500 1.968749
v 3.575000 9.937500 1.968749
v 4.075000 9.937500 1.968749
v 3.575000 10.437500 1.281249
v 4.075000 10.437500 1.093749
v 3.575000 9.937500 1.281249
v 4.075000 9.937500 1.093749
v 3.592068 10.437500 1.317703
v 4.078204 10.437500 1.096732
v 3.592068 9.937500 1.317703
v 4.078204 9.937500 1.096732
v 3.105932 10.437500 0.831567
v 3.459486 10.437500 0.478014
v 3.105932 9.937500 0.831567
v 3.459486 9.937500 0.478014
v 3.108960 10.437500 0.833097
v 3.462513 10.437500 0.479543
v 3.108960 9.937500 0.833097
v 3.462513 9.937500 0.479543
v 2.622824 10.437500 0.346961
v 2.843795 10.437500 -0.139175
v 2.622824 9.937500 0.346961
v 2.843795 9.937500 -0.139175
v 2.656250 10.437500 0.362499
v 2.843750 10.437500 -0.137501
v 2.656250 9.937500 0.362499
v 2.843750 9.937500 -0.137501
v 1.968750 10.437500 0.362499
v 1.968750 10.437500 -0.137501
v 1.968750 9.937500 0.362499
v 1.968750 9.937500 -0.137501
v 1.093750 10.437500 0.362499
v 1.093750 10.437500 -0.137501
v 1.093750 9.937500 0.362499
v 1.093750 9.937500 -0.137501
v 1.968750 10.437500 0.362499
v 1.968750 10.437500 -0.137501
v 1.968750 9.937500 0.362499
v 1.968750 9.937500 -0.137501
v 0.593750 10.437500 0.362499
v 1.093750 10.437500 0.362499
v 0.593750 9.937500 0.362499
v 1.093750 9.937500 0.362499
v 0.593750 10.437500 1.237499
v 1.093750 10.437500 1.237499
v 0.593750 9.937500 1.237499
v 1.093750 9.937500 1.237499
v 0.593750 10.437500 1.237499
v 1.093750 10.437500 1.237499
v 0.593750 9.937500 1.237499
v 1.093750 9.937500 1.237499
v 0.593750 10.437500 2.112499
v 1.093750 10.437500 2.112499
v 0.593750 9.937500 2.112499
v 1.093750 9.937500 2.112499
v 0.593750 10.437500 0.362499
v 0.593750 10.437500 -0.137501
v 0.593750 9.937500 -0.137501
v 1.093750 10.437500 0.362499
v 1.093750 10.437500 -0.137501
v 1.093750 9.937500 0.362499
v 1.093750 9.937500 -0.137501
v 3.105932 10.437500 3.813038
v 2.752379 10.437500 3.459485
v 3.105932 9.937500 3.813038
v 2.752379 9.937500 3.459485
v 3.459486 10.437500 3.459485
v 3.105932 10.437500 3.105931
v 3.459486 9.937500 3.459485
v 3.105932 9.937500 3.105931
v 2.752379 10.437500 3.459485
v 2.398825 10.437500 3.105931
v 2.752379 9.937500 3.459485
v 2.398825 9.937500 3.105931
v 3.105932 10.437500 3.105931
v 2.752379 10.437500 2.752378
v 3.105932 9.937500 3.105931
v 2.752379 9.937500 2.752378
v 0.500000 7.500000 2.250000
v 0.500000 7.500000 1.749999
v 0.500000 7.000000 2.250000
v 0.500000 7.000000 1.750000
v 0.437500 7.500000 2.250000
v 0.437500 7.500000 1.749999
v 0.437500 7.000000 2.250000
v 0.437500 7.000000 1.750000
v 0.500000 8.125000 2.249999
v 0.500000 8.125000 1.749999
v 0.500000 7.625000 2.250000
v 0.500000 7.625000 1.749999
v 0.437500 8.125000 2.249999
v 0.437500 8.125000 1.749999
v 0.437500 7.625000 2.250000
v 0.437500 7.625000 1.749999
v 0.500000 9.375000 2.249999
v 0.500000 9.375000 1.749999
v 0.500000 8.875000 2.249999
v 0.500000 8.875000 1.749999
v 0.437500 9.375000 2.249999
v 0.437500 9.375000 1.749999
v 0.437500 8.875000 2.249999
v 0.437500 8.875000 1.749999
v 0.500000 8.750000 2.249999
v 0.500000 8.750000 1.749999
v 0.500000 8.250000 2.249999
v 0.500000 8.250000 1.749999
v 0.437500 8.750000 2.249999
v 0.437500 8.750000 1.749999
v 0.437500 8.250000 2.249999
v 0.437500 8.250000 1.749999
v 3.562500 8.562500 2.187499
v 3.562500 8.562500 1.812499
v 3.562500 8.187500 2.187499
v 3.562500 8.187500 1.812499
v 3.500000 8.562500 2.187499
v 3.500000 8.562500 1.812499
v 3.500000 8.187500 2.187499
v 3.500000 8.187500 1.812499
v 3.562500 9.625000 2.187499
v 3.562500 9.625000 1.812499
v 3.562500 9.250000 2.187499
v 3.562500 9.250000 1.812499
v 3.500000 9.625000 2.187499
v 3.500000 9.625000 1.812499
v 3.500000 9.250000 2.187499
v 3.500000 9.250000 1.812499
v 3.562500 8.062500 2.187499
v 3.562500 8.062500 1.812499
v 3.562500 7.687500 2.187500
v 3.562500 7.687500 1.812499
v 3.500000 8.062500 2.187499
v 3.500000 8.062500 1.812499
v 3.500000 7.687500 2.187500
v 3.500000 7.687500 1.812499
v 3.562500 7.500000 2.250000
v 3.562500 7.500000 1.749999
v 3.562500 7.000000 2.250000
v 3.562500 7.000000 1.750000
v 3.500000 7.500000 2.250000
v 3.500000 7.500000 1.749999
v 3.500000 7.000000 2.250000
v 3.500000 7.000000 1.750000
v 0.500000 10.562500 2.499999
v 0.500000 10.562500 1.499999
v 0.500000 6.562500 2.500000
v 0.500000 6.562500 1.500000
v 1.500000 10.562500 3.499999
v 1.500000 10.562500 0.499999
v 1.500000 6.562500 3.500000
v 1.500000 6.562500 0.499999
v 2.500000 10.562500 3.499999
v 2.500000 10.562500 0.499999
v 2.500000 6.562500 3.500000
v 2.500000 6.562500 0.499999
v 1.500000 10.562500 3.499999
v 1.500000 10.562500 0.499999
v 1.500000 6.562500 3.500000
v 1.500000 6.562500 0.499999
v 3.500000 10.562500 2.499999
v 3.500000 10.562500 1.499999
v 3.500000 6.562500 2.500000
v 3.500000 6.562500 1.500000
v 2.500000 10.562500 3.499999
v 2.500000 10.562500 0.499999
v 2.500000 6.562500 3.500000
v 2.500000 6.562500 0.499999
v 2.312500 6.562500 0.062500
v 2.312500 5.937500 0.062500
v 2.312500 6.562500 1.062500
v 2.312500 5.937500 1.062500
v 1.687500 6.562500 0.062500
v 1.687500 5.937500 0.062500
v 1.687500 6.562500 1.062500
v 1.687500 5.937500 1.062500
v 3.608690 6.562500 0.868023
v 3.608690 5.937500 0.868023
v 2.901583 6.562500 1.575130
v 2.901583 5.937500 1.575130
v 3.166749 6.562500 0.426081
v 3.166749 5.937500 0.426081
v 2.459642 6.562500 1.133188
v 2.459642 5.937500 1.133188
v 1.575758 6.562500 2.900955
v 1.575758 5.937500 2.900955
v 0.868651 6.562500 3.608062
v 0.868651 5.937500 3.608062
v 1.133816 6.562500 2.459013
v 1.133816 5.937500 2.459013
v 0.426710 6.562500 3.166120
v 0.426710 5.937500 3.166120
v 3.937500 6.562500 2.312500
v 3.937500 5.937500 2.312500
v 2.937500 6.562500 2.312500
v 2.937500 5.937500 2.312500
v 3.937500 6.562500 1.687500
v 3.937500 5.937500 1.687500
v 2.937500 6.562500 1.687500
v 2.937500 5.937500 1.687500
v 3.135813 6.562500 3.603642
v 3.135813 5.937500 3.603642
v 2.428706 6.562500 2.896535
v 2.428706 5.937500 2.896535
v 3.577754 6.562500 3.161700
v 3.577754 5.937500 3.161700
v 2.870647 6.562500 2.454594
v 2.870647 5.937500 2.454594
v 1.102881 6.562500 1.570710
v 1.102881 5.937500 1.570710
v 0.395774 6.562500 0.863603
v 0.395774 5.937500 0.863603
v 1.544822 6.562500 1.128768
v 1.544822 5.937500 1.128768
v 0.837716 6.562500 0.421662
v 0.837716 5.937500 0.421662
v 1.062500 6.562500 2.312500
v 1.062500 5.937500 2.312500
v 0.062500 6.562500 2.312500
v 0.062500 5.937500 2.312500
v 1.062500 6.562500 1.687500
v 1.062500 5.937500 1.687500
v 0.062500 6.562500 1.687500
v 0.062500 5.937500 1.687500
v 2.312500 6.562500 2.937500
v 2.312500 5.937500 2.937500
v 2.312500 6.562500 3.937500
v 2.312500 5.937500 3.937500
v 1.687500 6.562500 2.937500
v 1.687500 5.937500 2.937500
v 1.687500 6.562500 3.937500
v 1.687500 5.937500 3.937500
v 2.000000 5.901270 2.000000
v 2.000000 6.562500 2.000000
v 2.465990 5.901270 3.125000
v 2.465990 6.562500 3.125000
v 3.125000 5.901270 2.465990
v 3.125000 6.562500 2.465990
v 3.125000 5.901270 1.534009
v 3.125000 6.562500 1.534009
v 2.465990 5.901270 0.875000
v 2.465990 6.562500 0.875000
v 1.534010 5.901270 0.875000
v 1.534010 6.562500 0.875000
v 0.875000 5.901270 1.534009
v 0.875000 6.562500 1.534009
v 0.875000 5.901270 2.465990
v 0.875000 6.562500 2.465990
v 1.534010 5.901270 3.125000
v 1.534010 6.562500 3.125000
vn -0.7071 -0.0000 -0.7071
vn 0.7071 -0.0000 0.7071
vn -0.0000 1.0000 -0.0000
vn -0.0000 -1.0000 -0.0000
vn 0.7071 -0.0000 -0.7071
vn -0.7071 -0.0000 0.7071
vn -1.0000 -0.0000 -0.0000
vn 1.0000 -0.0000 -0.0000
vn -0.0000 -0.0000 1.0000
vn -0.0000 -0.0000 -1.0000
vn 0.8271 -0.0000 0.5621
vn 0.4138 -0.0000 -0.9104
vn -0.3511 -0.0000 0.9363
vn -0.3511 -0.0000 -0.9363
vn 0.4138 -0.0000 0.9104
vn -0.9104 -0.0000 -0.4138
vn 0.9363 -0.0000 0.3511
vt 0.742188 0.890625
vt 0.742188 0.929688
vt 0.738281 0.929688
vt 0.738281 0.890625
vt 0.789062 0.890625
vt 0.789062 0.929688
vt 0.785156 0.929688
vt 0.785156 0.890625
vt 0.738281 0.925781
vt 0.789062 0.925781
vt 0.789062 0.894531
vt 0.738281 0.894531
vt 0.187500 0.523438
vt 0.093750 0.523438
vt 0.093750 0.414062
vt 0.187500 0.414062
vt 0.000000 0.523438
vt 0.000000 0.414062
vt 0.093750 0.429688
vt 0.187500 0.429688
vt 0.187500 0.507812
vt 0.093750 0.507812
vt 0.523438 0.437500
vt 0.523438 0.457031
vt 0.503906 0.457031
vt 0.503906 0.437500
vt 0.566406 0.457031
vt 0.546875 0.457031
vt 0.546875 0.437500
vt 0.566406 0.437500
vt 0.542969 0.390625
vt 0.542969 0.437500
vt 0.523438 0.390625
vt 0.542969 0.398438
vt 0.542969 0.441406
vt 0.523438 0.441406
vt 0.523438 0.398438
vt 0.542969 0.414062
vt 0.542969 0.457031
vt 0.523438 0.414062
vt 0.542969 0.429688
vt 0.542969 0.445312
vt 0.523438 0.445312
vt 0.523438 0.429688
vt 0.566406 0.429688
vt 0.546875 0.429688
vt 0.546875 0.406250
vt 0.566406 0.406250
vt 0.542969 0.433594
vt 0.523438 0.433594
vt 0.523438 0.410156
vt 0.542969 0.410156
vt 0.542969 0.417969
vt 0.542969 0.453125
vt 0.523438 0.453125
vt 0.523438 0.417969
vt 0.523438 0.449219
vt 0.503906 0.449219
vt 0.503906 0.429688
vt 0.562500 0.457031
vt 0.562500 0.437500
vt 0.531250 0.441406
vt 0.542969 0.425781
vt 0.523438 0.425781
vt 0.542969 0.449219
vt 0.523438 0.394531
vt 0.542969 0.394531
vt 0.503906 0.453125
vt 0.503906 0.433594
vt 0.597656 0.457031
vt 0.566406 0.425781
vt 0.597656 0.425781
vt 0.597656 0.394531
vt 0.597656 0.335938
vt 0.566406 0.347656
vt 0.566406 0.394531
vt 0.566406 0.335938
vt 0.597656 0.382812
vt 0.625000 0.335938
vt 0.625000 0.382812
vt 0.625000 0.394531
vt 0.597656 0.347656
vt 0.625000 0.351562
vt 0.625000 0.386719
vt 0.597656 0.386719
vt 0.597656 0.351562
vt 0.597656 0.390625
vt 0.566406 0.390625
vt 0.625000 0.355469
vt 0.625000 0.390625
vt 0.597656 0.355469
vt 0.625000 0.339844
vt 0.625000 0.398438
vt 0.597656 0.398438
vt 0.597656 0.339844
vt 0.625000 0.363281
vt 0.597656 0.363281
vt 0.000000 0.527344
vt 0.000000 0.558594
vt 0.031250 0.558594
vt 0.031250 0.527344
vt 0.031250 0.554688
vt 0.000000 0.554688
vt 0.031250 0.531250
vt 0.000000 0.531250
vt 0.027344 0.558594
vt 0.027344 0.527344
vt 0.003906 0.527344
vt 0.003906 0.558594
vt 0.085938 0.531250
vt 0.085938 0.554688
vt 0.062500 0.554688
vt 0.062500 0.531250
vt 0.082031 0.554688
vt 0.082031 0.531250
vt 0.085938 0.535156
vt 0.062500 0.535156
vt 0.066406 0.531250
vt 0.066406 0.554688
vt 0.484375 0.742188
vt 0.421875 0.742188
vt 0.421875 0.496094
vt 0.484375 0.496094
vt 0.253906 0.503906
vt 0.191406 0.441406
vt 0.191406 0.382812
vt 0.253906 0.316406
vt 0.574219 0.742188
vt 0.488281 0.742188
vt 0.488281 0.496094
vt 0.574219 0.496094
vt 0.312500 0.316406
vt 0.312500 0.503906
vt 0.378906 0.382812
vt 0.378906 0.441406
vt 0.539062 0.750000
vt 0.539062 0.812500
vt 0.500000 0.812500
vt 0.500000 0.750000
vt 0.472656 0.761719
vt 0.472656 0.800781
vt 0.433594 0.800781
vt 0.433594 0.761719
vt 0.335938 0.390625
vt 0.308594 0.460938
vt 0.234375 0.390625
vt 0.425781 0.496094
vt 0.484375 0.535156
vt 0.425781 0.535156
vt 0.000000 0.500000
vt 0.074219 0.531250
vt 0.000000 0.601562
vt 0.328125 0.382812
vt 0.328125 0.460938
vt 0.234375 0.421875
vt 0.093750 0.601562
vt 0.000000 0.562500
vt 0.234375 0.359375
vt 0.308594 0.390625
vt 0.234375 0.460938
vt 0.101562 0.531250
vt 0.074219 0.601562
vt 0.234375 0.367188
vt 0.312500 0.367188
vt 0.273438 0.460938
vt 0.078125 0.601562
vt 0.039062 0.507812
vt 0.265625 0.390625
vt 0.335938 0.460938
vt 0.000000 0.574219
vt 0.074219 0.500000
vt 0.234375 0.382812
vt 0.328125 0.421875
vt 0.093750 0.562500
vt 0.234375 0.433594
vt 0.308594 0.359375
vt 0.101562 0.601562
vt 0.312500 0.460938
vt 0.273438 0.367188
vt 0.000000 0.507812
vt 0.078125 0.507812
vt 0.039062 0.601562
s 0
usemtl default
f 5/1/1 3/2/1 2/3/1 4/4/1
f 8/5/2 6/6/2 7/7/2 9/8/2
f 2/9/3 3/3/3 7/6/3 6/10/3
f 5/5/4 4/11/4 8/12/4 9/4/4
f 4/4/5 2/3/5 6/6/5 8/5/5
f 9/5/6 7/6/6 3/3/6 5/4/6
f 10/13/7 11/14/7 13/15/7 12/16/7
f 15/14/8 14/17/8 16/18/8 17/15/8
f 15/13/3 11/14/3 10/19/3 14/20/3
f 16/21/4 12/22/4 13/15/4 17/16/4
f 14/14/9 10/17/9 12/18/9 16/15/9
f 11/13/10 15/14/10 17/15/10 13/16/10
f 21/18/8 19/17/8 18/14/8 20/15/8
f 24/15/7 22/14/7 23/17/7 25/18/7
f 18/20/3 19/13/3 23/14/3 22/19/3
f 21/16/4 20/21/4 24/22/4 25/15/4
f 20/15/9 18/14/9 22/17/9 24/18/9
f 25/15/10 23/14/10 19/17/10 21/18/10
f 29/16/8 27/13/8 26/14/8 28/15/8
f 32/16/7 30/13/7 31/14/7 33/15/7
f 26/16/3 27/21/3 31/22/3 30/15/3
f 29/16/4 28/21/4 32/22/4 33/15/4
f 28/16/9 26/13/9 30/14/9 32/15/9
f 33/15/10 31/14/10 27/17/10 29/18/10
f 34/14/7 35/17/7 37/18/7 36/15/7
f 39/14/8 38/17/8 40/18/8 41/15/8
f 39/21/3 35/22/3 34/15/3 38/16/3
f 40/21/4 36/22/4 37/15/4 41/16/4
f 38/13/9 34/14/9 36/15/9 40/16/9
f 35/14/10 39/17/10 41/18/10 37/15/10
f 42/23/7 43/24/7 45/25/7 44/26/7
f 47/27/8 46/28/8 48/29/8 49/30/8
f 47/31/3 43/32/3 42/23/3 46/33/3
f 48/31/4 44/32/4 45/23/4 49/33/4
f 46/31/9 42/32/9 44/23/9 48/33/9
f 43/31/10 47/32/10 49/23/10 45/33/10
f 50/27/3 51/28/3 53/29/3 52/30/3
f 55/27/4 54/28/4 56/29/4 57/30/4
f 55/34/8 51/35/8 50/36/8 54/37/8
f 56/34/7 52/35/7 53/36/7 57/37/7
f 54/34/9 50/35/9 52/36/9 56/37/9
f 51/34/10 55/35/10 57/36/10 53/37/10
f 58/27/3 59/28/3 61/29/3 60/30/3
f 63/27/4 62/28/4 64/29/4 65/30/4
f 63/38/8 59/39/8 58/24/8 62/40/8
f 64/38/7 60/39/7 61/24/7 65/40/7
f 62/38/9 58/39/9 60/24/9 64/40/9
f 59/38/10 63/39/10 65/24/10 61/40/10
f 66/27/9 67/28/9 69/29/9 68/30/9
f 71/27/10 70/28/10 72/29/10 73/30/10
f 71/41/8 67/42/8 66/43/8 70/44/8
f 72/41/7 68/42/7 69/43/7 73/44/7
f 70/41/4 66/42/4 68/43/4 72/44/4
f 67/42/3 71/41/3 73/44/3 69/43/3
f 74/45/9 75/46/9 77/47/9 76/48/9
f 79/24/10 78/25/10 80/26/10 81/23/10
f 79/24/8 75/25/8 74/26/8 78/23/8
f 80/24/7 76/25/7 77/26/7 81/23/7
f 78/24/4 74/25/4 76/26/4 80/23/4
f 75/24/3 79/25/3 81/26/3 77/23/3
f 82/23/9 83/24/9 85/25/9 84/26/9
f 87/27/10 86/28/10 88/29/10 89/30/10
f 87/48/8 83/47/8 82/46/8 86/45/8
f 88/45/7 84/46/7 85/47/7 89/48/7
f 86/23/4 82/24/4 84/25/4 88/26/4
f 83/49/3 87/50/3 89/51/3 85/52/3
f 90/30/4 91/27/4 93/28/4 92/29/4
f 95/27/3 94/28/3 96/29/3 97/30/3
f 95/52/9 91/39/9 90/24/9 94/51/9
f 96/52/10 92/39/10 93/24/10 97/51/10
f 94/52/8 90/39/8 92/24/8 96/51/8
f 91/52/7 95/39/7 97/24/7 93/51/7
f 98/27/9 99/28/9 101/29/9 100/30/9
f 103/27/10 102/28/10 104/29/10 105/30/10
f 103/38/3 99/39/3 98/24/3 102/40/3
f 104/38/4 100/39/4 101/24/4 105/40/4
f 102/38/8 98/39/8 100/24/8 104/40/8
f 99/38/7 103/39/7 105/24/7 101/40/7
f 106/27/8 107/28/8 109/29/8 108/30/8
f 111/27/7 110/28/7 112/29/7 113/30/7
f 111/41/3 107/42/3 106/43/3 110/44/3
f 112/41/4 108/42/4 109/43/4 113/44/4
f 110/41/10 106/42/10 108/43/10 112/44/10
f 107/42/9 111/41/9 113/44/9 109/43/9
f 114/45/8 115/46/8 117/47/8 116/48/8
f 119/24/7 118/25/7 120/26/7 121/23/7
f 119/24/3 115/25/3 114/26/3 118/23/3
f 120/24/4 116/25/4 117/26/4 121/23/4
f 118/24/10 114/25/10 116/26/10 120/23/10
f 115/24/9 119/25/9 121/26/9 117/23/9
f 122/24/8 123/25/8 125/26/8 124/23/8
f 127/27/7 126/28/7 128/29/7 129/30/7
f 127/27/3 123/28/3 122/29/3 126/30/3
f 128/23/4 124/24/4 125/25/4 129/26/4
f 126/48/10 122/47/10 124/46/10 128/45/10
f 123/47/9 127/48/9 129/45/9 125/46/9
f 130/27/8 131/28/8 133/29/8 132/30/8
f 135/27/7 134/28/7 136/29/7 137/30/7
f 135/53/3 131/54/3 130/55/3 134/56/3
f 136/54/4 132/53/4 133/56/4 137/55/4
f 134/54/10 130/53/10 132/56/10 136/55/10
f 131/53/9 135/54/9 137/55/9 133/56/9
f 138/27/8 139/28/8 141/29/8 140/30/8
f 143/27/7 142/28/7 144/29/7 145/30/7
f 143/53/3 139/54/3 138/55/3 142/56/3
f 144/54/4 140/53/4 141/56/4 145/55/4
f 142/53/10 138/54/10 140/55/10 144/56/10
f 139/53/9 143/54/9 145/55/9 141/56/9
f 146/23/8 147/24/8 149/25/8 148/26/8
f 151/27/7 150/28/7 152/29/7 153/30/7
f 151/48/3 147/47/3 146/46/3 150/45/3
f 152/45/4 148/46/4 149/47/4 153/48/4
f 150/44/10 146/57/10 148/58/10 152/59/10
f 147/27/9 151/28/9 153/29/9 149/30/9
f 154/27/8 155/28/8 157/29/8 156/30/8
f 159/27/7 158/28/7 160/29/7 161/30/7
f 159/52/3 155/54/3 154/55/3 158/51/3
f 160/52/4 156/54/4 157/55/4 161/51/4
f 158/52/10 154/54/10 156/55/10 160/51/10
f 155/52/9 159/54/9 161/55/9 157/51/9
f 162/27/8 163/28/8 165/29/8 164/30/8
f 167/27/7 166/28/7 168/29/7 169/30/7
f 167/52/3 163/54/3 162/55/3 166/51/3
f 168/52/4 164/54/4 165/55/4 169/51/4
f 166/52/10 162/54/10 164/55/10 168/51/10
f 163/52/9 167/54/9 169/55/9 165/51/9
f 170/27/8 171/28/8 173/29/8 172/30/8
f 175/27/7 174/28/7 176/29/7 177/30/7
f 175/52/3 171/54/3 170/55/3 174/51/3
f 176/52/4 172/54/4 173/55/4 177/51/4
f 174/52/10 170/54/10 172/55/10 176/51/10
f 171/52/9 175/54/9 177/55/9 173/51/9
f 178/60/8 179/39/8 181/32/8 180/61/8
f 183/60/6 182/39/6 184/32/6 185/61/6
f 183/38/3 179/39/3 178/24/3 182/40/3
f 184/52/4 180/39/4 181/62/4 185/51/4
f 182/39/1 178/38/1 180/40/1 184/24/1
f 179/63/11 183/39/11 185/24/11 181/64/11
f 186/27/5 187/28/5 189/29/5 188/30/5
f 191/27/6 190/28/6 192/29/6 193/30/6
f 191/63/3 187/65/3 186/57/3 190/64/3
f 192/63/4 188/65/4 189/57/4 193/64/4
f 190/63/1 186/65/1 188/57/1 192/64/1
f 187/65/2 191/63/2 193/64/2 189/57/2
f 194/65/5 195/57/5 197/66/5 196/67/5
f 199/65/6 198/57/6 200/66/6 201/67/6
f 199/27/3 195/28/3 194/29/3 198/30/3
f 200/27/4 196/28/4 197/29/4 201/30/4
f 198/65/1 194/57/1 196/66/1 200/67/1
f 195/65/2 199/57/2 201/66/2 197/67/2
f 202/46/5 203/45/5 205/48/5 204/47/5
f 207/45/6 206/46/6 208/47/6 209/48/6
f 207/55/3 203/68/3 202/69/3 206/50/3
f 208/27/4 204/28/4 205/29/4 209/30/4
f 206/24/1 202/25/1 204/26/1 208/23/1
f 203/27/2 207/28/2 209/29/2 205/30/2
f 210/27/5 211/28/5 213/29/5 212/30/5
f 215/24/6 214/25/6 216/26/6 217/23/6
f 215/27/3 211/28/3 210/29/3 214/30/3
f 216/23/4 212/24/4 213/25/4 217/26/4
f 214/47/1 210/48/1 212/45/1 216/46/1
f 211/48/2 215/47/2 217/46/2 213/45/2
f 218/27/5 219/28/5 221/29/5 220/30/5
f 223/63/6 222/42/6 224/43/6 225/64/6
f 223/42/3 219/43/3 218/64/3 222/63/3
f 224/42/4 220/43/4 221/64/4 225/63/4
f 222/42/1 218/43/1 220/64/1 224/63/1
f 219/27/2 223/28/2 225/29/2 221/30/2
f 226/44/10 227/57/10 229/58/10 228/59/10
f 231/27/9 230/28/9 232/29/9 233/30/9
f 231/45/3 227/46/3 226/47/3 230/48/3
f 232/48/4 228/47/4 229/46/4 233/45/4
f 230/27/7 226/28/7 228/29/7 232/30/7
f 227/23/8 231/24/8 233/25/8 229/26/8
f 234/45/10 235/46/10 237/47/10 236/48/10
f 239/27/9 238/28/9 240/29/9 241/30/9
f 239/27/3 235/28/3 234/29/3 238/30/3
f 240/42/4 236/34/4 237/37/4 241/43/4
f 238/42/7 234/34/7 236/37/7 240/43/7
f 235/34/8 239/42/8 241/43/8 237/37/8
f 242/70/12 243/27/12 245/71/12 244/72/12
f 247/70/6 246/27/6 248/71/6 249/72/6
f 247/73/3 243/74/3 242/75/3 246/76/3
f 248/76/4 244/75/4 245/74/4 249/73/4
f 246/74/1 242/73/1 244/76/1 248/77/1
f 243/74/2 247/73/2 249/76/2 245/77/2
f 250/70/10 251/27/10 253/71/10 252/72/10
f 255/70/13 254/27/13 256/71/13 257/72/13
f 255/76/3 251/77/3 250/74/3 254/78/3
f 256/78/4 252/74/4 253/77/4 257/76/4
f 254/74/7 250/73/7 252/76/7 256/77/7
f 251/74/8 255/73/8 257/76/8 253/77/8
f 261/71/9 259/27/9 258/70/9 260/72/9
f 264/71/14 262/27/14 263/70/14 265/72/14
f 258/79/3 259/74/3 263/73/3 262/80/3
f 261/74/4 260/79/4 264/80/4 265/73/4
f 260/73/7 258/81/7 262/79/7 264/74/7
f 265/73/8 263/81/8 259/79/8 261/74/8
f 269/71/15 267/27/15 266/70/15 268/72/15
f 272/71/1 270/27/1 271/70/1 273/72/1
f 266/82/3 267/79/3 271/81/3 270/73/3
f 269/79/4 268/82/4 272/73/4 273/81/4
f 268/73/6 266/81/6 270/79/6 272/74/6
f 273/73/5 271/81/5 267/79/5 269/74/5
f 277/71/2 275/27/2 274/70/2 276/72/2
f 280/71/16 278/27/16 279/70/16 281/72/16
f 274/79/3 275/74/3 279/73/3 278/80/3
f 277/74/4 276/79/4 280/80/4 281/73/4
f 276/73/6 274/81/6 278/79/6 280/74/6
f 281/73/5 279/81/5 275/79/5 277/74/5
f 285/71/17 283/27/17 282/70/17 284/72/17
f 288/71/7 286/27/7 287/70/7 289/72/7
f 282/82/3 283/79/3 287/81/3 286/73/3
f 285/79/4 284/82/4 288/73/4 289/81/4
f 284/73/9 282/81/9 286/79/9 288/74/9
f 289/73/10 287/81/10 283/79/10 285/74/10
f 290/70/7 291/27/7 293/71/7 292/72/7
f 295/70/8 294/27/8 296/71/8 297/72/8
f 295/74/3 291/73/3 290/76/3 294/77/3
f 296/74/4 292/73/4 293/76/4 297/77/4
f 294/74/9 290/73/9 292/76/9 296/77/9
f 291/73/10 295/74/10 297/77/10 293/76/10
f 298/70/10 299/27/10 301/71/10 300/72/10
f 303/70/9 302/27/9 304/71/9 305/72/9
f 303/74/3 299/73/3 298/76/3 302/77/3
f 304/74/4 300/73/4 301/76/4 305/77/4
f 302/74/7 298/73/7 300/76/7 304/77/7
f 299/73/8 303/74/8 305/77/8 301/76/8
f 306/70/10 307/27/10 309/71/10 308/72/10
f 311/70/9 310/27/9 312/71/9 313/72/9
f 311/74/3 307/73/3 306/76/3 310/77/3
f 312/74/4 308/73/4 309/76/4 313/77/4
f 310/74/7 306/73/7 308/76/7 312/77/7
f 307/73/8 311/74/8 313/77/8 309/76/8
f 314/83/7 315/84/7 316/85/7 1/86/7
f 318/70/8 317/27/8 319/71/8 320/72/8
f 318/71/3 315/72/3 314/87/3 317/88/3
f 319/88/4 1/87/4 316/72/4 320/71/4
f 317/70/9 314/27/9 1/71/9 319/72/9
f 315/83/10 318/84/10 320/85/10 316/86/10
f 321/89/6 322/90/6 324/87/6 323/91/6
f 326/70/5 325/27/5 327/71/5 328/72/5
f 326/88/3 322/87/3 321/72/3 325/71/3
f 327/71/4 323/72/4 324/87/4 328/88/4
f 325/92/2 321/93/2 323/94/2 327/95/2
f 322/70/1 326/27/1 328/71/1 324/72/1
f 329/89/6 330/90/6 332/87/6 331/91/6
f 334/96/5 333/93/5 335/94/5 336/97/5
f 334/90/3 330/87/3 329/91/3 333/89/3
f 335/90/4 331/87/4 332/91/4 336/89/4
f 333/92/2 329/93/2 331/94/2 335/95/2
f 330/70/1 334/27/1 336/71/1 332/72/1
f 340/98/8 338/99/8 337/100/8 339/101/8
f 343/101/7 341/100/7 342/99/7 344/98/7
f 337/102/3 338/103/3 342/99/3 341/100/3
f 340/98/4 339/101/4 343/104/4 344/105/4
f 339/101/9 337/100/9 341/106/9 343/107/9
f 344/108/10 342/109/10 338/99/10 340/98/10
f 348/98/8 346/99/8 345/100/8 347/101/8
f 351/101/7 349/100/7 350/99/7 352/98/7
f 345/102/3 346/103/3 350/99/3 349/100/3
f 348/98/4 347/101/4 351/104/4 352/105/4
f 347/101/9 345/100/9 349/106/9 351/107/9
f 352/108/10 350/109/10 346/99/10 348/98/10
f 356/98/8 354/99/8 353/100/8 355/101/8
f 359/101/7 357/100/7 358/99/7 360/98/7
f 353/102/3 354/103/3 358/99/3 357/100/3
f 356/98/4 355/101/4 359/104/4 360/105/4
f 355/101/9 353/100/9 357/106/9 359/107/9
f 360/108/10 358/109/10 354/99/10 356/98/10
f 364/98/8 362/99/8 361/100/8 363/101/8
f 367/101/7 365/100/7 366/99/7 368/98/7
f 361/102/3 362/103/3 366/99/3 365/100/3
f 364/98/4 363/101/4 367/104/4 368/105/4
f 363/101/9 361/100/9 365/106/9 367/107/9
f 368/108/10 366/109/10 362/99/10 364/98/10
f 372/110/8 370/111/8 369/112/8 371/113/8
f 375/110/7 373/111/7 374/112/7 376/113/7
f 369/110/3 370/111/3 374/114/3 373/115/3
f 372/113/4 371/110/4 375/116/4 376/117/4
f 371/110/9 369/111/9 373/114/9 375/115/9
f 376/118/10 374/119/10 370/112/10 372/113/10
f 380/110/8 378/111/8 377/112/8 379/113/8
f 383/110/7 381/111/7 382/112/7 384/113/7
f 377/110/3 378/111/3 382/114/3 381/115/3
f 380/113/4 379/110/4 383/116/4 384/117/4
f 379/110/9 377/111/9 381/114/9 383/115/9
f 384/118/10 382/119/10 378/112/10 380/113/10
f 388/110/8 386/111/8 385/112/8 387/113/8
f 391/110/7 389/111/7 390/112/7 392/113/7
f 385/110/3 386/111/3 390/114/3 389/115/3
f 388/113/4 387/110/4 391/116/4 392/117/4
f 387/110/9 385/111/9 389/114/9 391/115/9
f 392/118/10 390/119/10 386/112/10 388/113/10
f 396/98/8 394/99/8 393/100/8 395/101/8
f 399/101/7 397/100/7 398/99/7 400/98/7
f 393/102/3 394/103/3 398/99/3 397/100/3
f 396/98/4 395/101/4 399/104/4 400/105/4
f 395/101/9 393/100/9 397/106/9 399/107/9
f 400/108/10 398/109/10 394/99/10 396/98/10
f 401/120/7 402/121/7 404/122/7 403/123/7
f 406/124/3 402/125/3 401/126/3 405/127/3
f 407/124/4 403/125/4 404/126/4 408/127/4
f 405/128/6 401/129/6 403/130/6 407/131/6
f 402/128/1 406/129/1 408/130/1 404/131/1
f 409/132/3 410/133/3 414/124/3 413/127/3
f 412/132/4 411/133/4 415/124/4 416/127/4
f 411/123/9 409/120/9 413/121/9 415/122/9
f 416/123/10 414/120/10 410/121/10 412/122/10
f 420/123/8 418/120/8 417/121/8 419/122/8
f 417/134/3 418/135/3 422/133/3 421/132/3
f 420/134/4 419/135/4 423/133/4 424/132/4
f 419/131/2 417/128/2 421/129/2 423/130/2
f 424/131/5 422/128/5 418/129/5 420/130/5
f 428/136/8 426/137/8 425/138/8 427/139/8
f 431/136/7 429/137/7 430/138/7 432/139/7
f 425/140/10 426/141/10 430/142/10 429/143/10
f 428/140/9 427/141/9 431/142/9 432/143/9
f 427/136/3 425/137/3 429/138/3 431/139/3
f 432/136/4 430/137/4 426/138/4 428/139/4
f 436/136/2 434/137/2 433/138/2 435/139/2
f 439/136/1 437/137/1 438/138/1 440/139/1
f 433/140/5 434/141/5 438/142/5 437/143/5
f 436/140/6 435/141/6 439/142/6 440/143/6
f 435/136/3 433/137/3 437/138/3 439/139/3
f 440/136/4 438/137/4 434/138/4 436/139/4
f 444/136/2 442/137/2 441/138/2 443/139/2
f 447/136/1 445/137/1 446/138/1 448/139/1
f 441/140/5 442/141/5 446/142/5 445/143/5
f 444/140/6 443/141/6 447/142/6 448/143/6
f 443/136/3 441/137/3 445/138/3 447/139/3
f 448/136/4 446/137/4 442/138/4 444/139/4
f 452/136/9 450/137/9 449/138/9 451/139/9
f 455/136/10 453/137/10 454/138/10 456/139/10
f 449/140/8 450/141/8 454/142/8 453/143/8
f 452/140/7 451/141/7 455/142/7 456/143/7
f 451/136/3 449/137/3 453/138/3 455/139/3
f 456/136/4 454/137/4 450/138/4 452/139/4
f 460/136/6 458/137/6 457/138/6 459/139/6
f 463/136/5 461/137/5 462/138/5 464/139/5
f 457/140/2 458/141/2 462/142/2 461/143/2
f 460/140/1 459/141/1 463/142/1 464/143/1
f 459/136/3 457/137/3 461/138/3 463/139/3
f 464/136/4 462/137/4 458/138/4 460/139/4
f 468/136/6 466/137/6 465/138/6 467/139/6
f 471/136/5 469/137/5 470/138/5 472/139/5
f 465/140/2 466/141/2 470/142/2 469/143/2
f 468/140/1 467/141/1 471/142/1 472/143/1
f 467/136/3 465/137/3 469/138/3 471/139/3
f 472/136/4 470/137/4 466/138/4 468/139/4
f 476/136/9 474/137/9 473/138/9 475/139/9
f 479/136/10 477/137/10 478/138/10 480/139/10
f 473/140/8 474/141/8 478/142/8 477/143/8
f 476/140/7 475/141/7 479/142/7 480/143/7
f 475/136/3 473/137/3 477/138/3 479/139/3
f 480/136/4 478/137/4 474/138/4 476/139/4
f 484/136/8 482/137/8 481/138/8 483/139/8
f 487/136/7 485/137/7 486/138/7 488/139/7
f 481/140/10 482/141/10 486/142/10 485/143/10
f 484/140/9 483/141/9 487/142/9 488/143/9
f 483/136/3 481/137/3 485/138/3 487/139/3
f 488/136/4 486/137/4 482/138/4 484/139/4
f 493/144/4 491/145/4 489/146/4
f 491/147/2 493/123/2 494/148/2 492/149/2
f 492/150/3 494/151/3 490/152/3
f 495/153/4 493/154/4 489/155/4
f 493/147/8 495/123/8 496/148/8 494/149/8
f 494/14/3 496/156/3 490/157/3
f 497/158/4 495/159/4 489/160/4
f 495/147/5 497/123/5 498/148/5 496/149/5
f 496/161/3 498/162/3 490/105/3
f 499/163/4 497/164/4 489/165/4
f 497/147/10 499/123/10 500/148/10 498/149/10
f 498/166/3 500/152/3 490/167/3
f 501/160/4 499/168/4 489/169/4
f 499/147/1 501/123/1 502/148/1 500/149/1
f 500/162/3 502/170/3 490/171/3
f 503/160/4 501/172/4 489/173/4
f 501/147/7 503/123/7 504/148/7 502/149/7
f 502/152/3 504/17/3 490/174/3
f 505/145/4 503/175/4 489/176/4
f 503/147/6 505/123/6 506/148/6 504/149/6
f 504/152/3 506/104/3 490/177/3
f 491/178/4 505/160/4 489/179/4
f 505/147/9 491/123/9 492/148/9 506/149/9
f 506/180/3 492/181/3 490/182/3
