# Blender 4.2.3 LTS
# www.blender.org
mtllib coredrill.mtl
o cube
v 0.062500 6.312500 5.750000
v 0.062500 6.812500 -1.750000
v 0.062500 6.812500 -2.000000
v 0.062500 6.312500 -1.750000
v 0.062500 6.312500 -2.000000
v 0.812500 6.812500 -1.750000
v 0.812500 6.812500 -2.000000
v 0.812500 6.312500 -1.750000
v 0.812500 6.312500 -2.000000
v 0.062500 6.312500 -1.750000
v 0.062500 6.312500 -2.000000
v 0.062500 5.562500 -1.750000
v 0.062500 5.562500 -2.000000
v 0.812500 6.312500 -1.750000
v 0.812500 6.312500 -2.000000
v 0.187500 5.562500 -1.750000
v 0.187500 5.562500 -2.000000
v -2.062500 6.812500 -1.750000
v -2.062500 6.812500 -2.000000
v -2.062500 5.562500 -1.750000
v -2.062500 5.562500 -2.000000
v 0.062500 6.812500 -1.750000
v 0.062500 6.812500 -2.000000
v 0.062500 5.562500 -1.750000
v 0.062500 5.562500 -2.000000
v -2.062500 6.812500 -1.750000
v -2.062500 6.812500 -2.000000
v -2.062500 6.312500 -1.750000
v -2.062500 6.312500 -2.000000
v -2.812500 6.812500 -1.750000
v -2.812500 6.812500 -2.000000
v -2.812500 6.312500 -1.750000
v -2.812500 6.312500 -2.000000
v -2.062500 6.312500 -1.750000
v -2.062500 6.312500 -2.000000
v -2.062500 5.562500 -1.750000
v -2.062500 5.562500 -2.000000
v -2.812500 6.312500 -1.750000
v -2.812500 6.312500 -2.000000
v -2.187500 5.562500 -1.750000
v -2.187500 5.562500 -2.000000
v 0.062500 6.812500 -0.000001
v 0.062500 6.812500 -0.250001
v 0.062500 6.312500 -0.000000
v 0.062500 6.312500 -0.250000
v 0.812500 6.812500 -0.000001
v 0.812500 6.812500 -0.250001
v 0.812500 6.312500 -0.000000
v 0.812500 6.312500 -0.250000
v 0.062500 6.312500 -0.000000
v 0.062500 6.312500 -0.250000
v 0.062500 5.562500 -0.000000
v 0.062500 5.562500 -0.250000
v 0.812500 6.312500 -0.000000
v 0.812500 6.312500 -0.250000
v 0.187500 5.562500 -0.000000
v 0.187500 5.562500 -0.250000
v -2.062500 6.812500 -0.000001
v -2.062500 6.812500 -0.250001
v -2.062500 5.562500 -0.000000
v -2.062500 5.562500 -0.250000
v 0.062500 6.812500 -0.000001
v 0.062500 6.812500 -0.250001
v 0.062500 5.562500 -0.000000
v 0.062500 5.562500 -0.250000
v -2.062500 6.812500 -0.000001
v -2.062500 6.812500 -0.250001
v -2.062500 6.312500 -0.000000
v -2.062500 6.312500 -0.250000
v -2.812500 6.812500 -0.000001
v -2.812500 6.812500 -0.250001
v -2.812500 6.312500 -0.000000
v -2.812500 6.312500 -0.250000
v -2.062500 6.312500 -0.000000
v -2.062500 6.312500 -0.250000
v -2.062500 5.562500 -0.000000
v -2.062500 5.562500 -0.250000
v -2.812500 6.312500 -0.000000
v -2.812500 6.312500 -0.250000
v -2.187500 5.562500 -0.000000
v -2.187500 5.562500 -0.250000
v -1.500000 6.812500 -0.500001
v -1.500000 6.812500 -1.500000
v -1.500000 6.312500 -0.500000
v -1.500000 6.312500 -1.500000
v -2.812500 6.812500 -0.500001
v -2.812500 6.812500 -1.500000
v -2.812500 6.312500 -0.500000
v -2.812500 6.312500 -1.500000
v -1.500000 6.312500 -0.500000
v -1.500000 6.312500 -1.500000
v -1.500000 5.562500 -0.500000
v -1.500000 5.562500 -1.500000
v -2.812500 6.312500 -0.500000
v -2.812500 6.312500 -1.500000
v -2.187500 5.562500 -0.500000
v -2.187500 5.562500 -1.500000
v -0.500000 6.812500 -0.500001
v -0.500000 6.812500 -1.500000
v -0.500000 6.312500 -0.500000
v -0.500000 6.312500 -1.500000
v 0.812500 6.812500 -0.500001
v 0.812500 6.812500 -1.500000
v 0.812500 6.312500 -0.500000
v 0.812500 6.312500 -1.500000
v -0.500000 6.312500 -0.500000
v -0.500000 6.312500 -1.500000
v -0.500000 5.562500 -0.500000
v -0.500000 5.562500 -1.500000
v 0.812500 6.312500 -0.500000
v 0.812500 6.312500 -1.500000
v 0.187500 5.562500 -0.500000
v 0.187500 5.562500 -1.500000
v 0.062500 6.812500 5.750000
v 0.062500 6.812500 6.000000
v 0.062500 6.312500 5.750000
v 0.062500 6.312500 6.000000
v 0.812500 6.812500 5.750000
v 0.812500 6.812500 6.000000
v 0.812500 6.312500 5.750000
v 0.812500 6.312500 6.000000
v 0.062500 6.312500 6.000000
v 0.062500 5.562500 5.750000
v 0.062500 5.562500 6.000000
v 0.812500 6.312500 5.750000
v 0.812500 6.312500 6.000000
v 0.187500 5.562500 5.750000
v 0.187500 5.562500 6.000000
v -2.062500 6.812500 5.750000
v -2.062500 6.812500 6.000000
v -2.062500 5.562500 5.750000
v -2.062500 5.562500 6.000000
v 0.062500 6.812500 5.750000
v 0.062500 6.812500 6.000000
v 0.062500 5.562500 5.750000
v 0.062500 5.562500 6.000000
v -2.062500 6.812500 5.750000
v -2.062500 6.812500 6.000000
v -2.062500 6.312500 5.750000
v -2.062500 6.312500 6.000000
v -2.812500 6.812500 5.750000
v -2.812500 6.812500 6.000000
v -2.812500 6.312500 5.750000
v -2.812500 6.312500 6.000000
v -2.062500 6.312500 5.750000
v -2.062500 6.312500 6.000000
v -2.062500 5.562500 5.750000
v -2.062500 5.562500 6.000000
v -2.812500 6.312500 5.750000
v -2.812500 6.312500 6.000000
v -2.187500 5.562500 5.750000
v -2.187500 5.562500 6.000000
v 0.062500 6.812500 4.000000
v 0.062500 6.812500 4.250000
v 0.062500 6.312500 4.000000
v 0.062500 6.312500 4.250000
v 0.812500 6.812500 4.000000
v 0.812500 6.812500 4.250000
v 0.812500 6.312500 4.000000
v 0.812500 6.312500 4.250000
v 0.062500 6.312500 4.000000
v 0.062500 6.312500 4.250000
v 0.062500 5.562500 4.000000
v 0.062500 5.562500 4.250000
v 0.812500 6.312500 4.000000
v 0.812500 6.312500 4.250000
v 0.187500 5.562500 4.000000
v 0.187500 5.562500 4.250000
v -2.062500 6.812500 4.000000
v -2.062500 6.812500 4.250000
v -2.062500 5.562500 4.000000
v -2.062500 5.562500 4.250000
v 0.062500 6.812500 4.000000
v 0.062500 6.812500 4.250000
v 0.062500 5.562500 4.000000
v 0.062500 5.562500 4.250000
v -2.062500 6.812500 4.000000
v -2.062500 6.812500 4.250000
v -2.062500 6.312500 4.000000
v -2.062500 6.312500 4.250000
v -2.812500 6.812500 4.000000
v -2.812500 6.812500 4.250000
v -2.812500 6.312500 4.000000
v -2.812500 6.312500 4.250000
v -2.062500 6.312500 4.000000
v -2.062500 6.312500 4.250000
v -2.062500 5.562500 4.000000
v -2.062500 5.562500 4.250000
v -2.812500 6.312500 4.000000
v -2.812500 6.312500 4.250000
v -2.187500 5.562500 4.000000
v -2.187500 5.562500 4.250000
v -1.500000 6.812500 4.500000
v -1.500000 6.812500 5.500000
v -1.500000 6.312500 4.500000
v -1.500000 6.312500 5.500000
v -2.812500 6.812500 4.500000
v -2.812500 6.812500 5.500000
v -2.812500 6.312500 4.500000
v -2.812500 6.312500 5.500000
v -1.500000 6.312500 4.500000
v -1.500000 6.312500 5.500000
v -1.500000 5.562500 4.500000
v -1.500000 5.562500 5.500000
v -2.812500 6.312500 4.500000
v -2.812500 6.312500 5.500000
v -2.187500 5.562500 4.500000
v -2.187500 5.562500 5.500000
v -0.500000 6.812500 4.500000
v -0.500000 6.812500 5.500000
v -0.500000 6.312500 4.500000
v -0.500000 6.312500 5.500000
v 0.812500 6.812500 4.500000
v 0.812500 6.812500 5.500000
v 0.812500 6.312500 4.500000
v 0.812500 6.312500 5.500000
v -0.500000 6.312500 4.500000
v -0.500000 6.312500 5.500000
v -0.500000 5.562500 4.500000
v -0.500000 5.562500 5.500000
v 0.812500 6.312500 4.500000
v 0.812500 6.312500 5.500000
v 0.187500 5.562500 4.500000
v 0.187500 5.562500 5.500000
v 1.441942 6.750000 3.305456
v 0.734835 6.750000 4.012563
v 1.441942 5.875000 3.305456
v 0.734835 5.875000 4.012563
v 0.734835 6.750000 2.598349
v -0.679379 6.750000 4.012563
v 0.734835 5.875000 2.598349
v -0.679379 5.875000 4.012563
v -0.687500 6.750000 4.012499
v -0.687500 6.750000 4.012499
v -0.687500 5.875000 4.012499
v -0.687500 5.875000 4.012499
v 0.737500 6.750000 4.012499
v 0.737500 6.750000 4.012499
v 0.737500 5.875000 4.012499
v 0.737500 5.875000 4.012499
v 1.441942 6.750000 0.694543
v 0.734835 6.750000 -0.012564
v 1.441942 5.875000 0.694543
v 0.734835 5.875000 -0.012564
v 0.734835 6.750000 1.401650
v -0.679379 6.750000 -0.012564
v 0.734835 5.875000 1.401650
v -0.679379 5.875000 -0.012564
v -0.687500 6.750000 -0.012501
v -0.687500 6.750000 -0.012501
v -0.687500 5.875000 -0.012500
v -0.687500 5.875000 -0.012500
v 0.737500 6.750000 -0.012501
v 0.737500 6.750000 -0.012501
v 0.737500 5.875000 -0.012500
v 0.737500 5.875000 -0.012500
v 2.558058 6.750000 3.305456
v 3.265165 6.750000 4.012563
v 2.558058 5.875000 3.305456
v 3.265165 5.875000 4.012563
v 3.265165 6.750000 2.598349
v 4.679379 6.750000 4.012563
v 3.265165 5.875000 2.598349
v 4.679379 5.875000 4.012563
v 4.687500 6.750000 4.012499
v 4.687500 6.750000 4.012499
v 4.687500 5.875000 4.012499
v 4.687500 5.875000 4.012499
v 3.262500 6.750000 4.012499
v 3.262500 6.750000 4.012499
v 3.262500 5.875000 4.012499
v 3.262500 5.875000 4.012499
v 3.937500 6.812500 5.750000
v 3.937500 6.812500 6.000000
v 3.937500 6.312500 5.750000
v 3.937500 6.312500 6.000000
v 3.187500 6.812500 5.750000
v 3.187500 6.812500 6.000000
v 3.187500 6.312500 5.750000
v 3.187500 6.312500 6.000000
v 3.937500 6.312500 5.750000
v 3.937500 6.312500 6.000000
v 3.937500 5.562500 5.750000
v 3.937500 5.562500 6.000000
v 3.187500 6.312500 5.750000
v 3.187500 6.312500 6.000000
v 3.812500 5.562500 5.750000
v 3.812500 5.562500 6.000000
v 6.062500 6.812500 5.750000
v 6.062500 6.812500 6.000000
v 6.062500 5.562500 5.750000
v 6.062500 5.562500 6.000000
v 3.937500 6.812500 5.750000
v 3.937500 6.812500 6.000000
v 3.937500 5.562500 5.750000
v 3.937500 5.562500 6.000000
v 6.062500 6.812500 5.750000
v 6.062500 6.812500 6.000000
v 6.062500 6.312500 5.750000
v 6.062500 6.312500 6.000000
v 6.812500 6.812500 5.750000
v 6.812500 6.812500 6.000000
v 6.812500 6.312500 5.750000
v 6.812500 6.312500 6.000000
v 6.062500 6.312500 5.750000
v 6.062500 6.312500 6.000000
v 6.062500 5.562500 5.750000
v 6.062500 5.562500 6.000000
v 6.812500 6.312500 5.750000
v 6.812500 6.312500 6.000000
v 6.187500 5.562500 5.750000
v 6.187500 5.562500 6.000000
v 3.937500 6.812500 4.000000
v 3.937500 6.812500 4.250000
v 3.937500 6.312500 4.000000
v 3.937500 6.312500 4.250000
v 3.187500 6.812500 4.000000
v 3.187500 6.812500 4.250000
v 3.187500 6.312500 4.000000
v 3.187500 6.312500 4.250000
v 3.937500 6.312500 4.000000
v 3.937500 6.312500 4.250000
v 3.937500 5.562500 4.000000
v 3.937500 5.562500 4.250000
v 3.187500 6.312500 4.000000
v 3.187500 6.312500 4.250000
v 3.812500 5.562500 4.000000
v 3.812500 5.562500 4.250000
v 6.062500 6.812500 4.000000
v 6.062500 6.812500 4.250000
v 6.062500 5.562500 4.000000
v 6.062500 5.562500 4.250000
v 3.937500 6.812500 4.000000
v 3.937500 6.812500 4.250000
v 3.937500 5.562500 4.000000
v 3.937500 5.562500 4.250000
v 6.062500 6.812500 4.000000
v 6.062500 6.812500 4.250000
v 6.062500 6.312500 4.000000
v 6.062500 6.312500 4.250000
v 6.812500 6.812500 4.000000
v 6.812500 6.812500 4.250000
v 6.812500 6.312500 4.000000
v 6.812500 6.312500 4.250000
v 6.062500 6.312500 4.000000
v 6.062500 6.312500 4.250000
v 6.062500 5.562500 4.000000
v 6.062500 5.562500 4.250000
v 6.812500 6.312500 4.000000
v 6.812500 6.312500 4.250000
v 6.187500 5.562500 4.000000
v 6.187500 5.562500 4.250000
v 5.500000 6.812500 4.500000
v 5.500000 6.812500 5.500000
v 5.500000 6.312500 4.500000
v 5.500000 6.312500 5.500000
v 6.812500 6.812500 4.500000
v 6.812500 6.812500 5.500000
v 6.812500 6.312500 4.500000
v 6.812500 6.312500 5.500000
v 5.500000 6.312500 4.500000
v 5.500000 6.312500 5.500000
v 5.500000 5.562500 4.500000
v 5.500000 5.562500 5.500000
v 6.812500 6.312500 4.500000
v 6.812500 6.312500 5.500000
v 6.187500 5.562500 4.500000
v 6.187500 5.562500 5.500000
v 4.500000 6.812500 4.500000
v 4.500000 6.812500 5.500000
v 4.500000 6.312500 4.500000
v 4.500000 6.312500 5.500000
v 3.187500 6.812500 4.500000
v 3.187500 6.812500 5.500000
v 3.187500 6.312500 4.500000
v 3.187500 6.312500 5.500000
v 4.500000 6.312500 4.500000
v 4.500000 6.312500 5.500000
v 4.500000 5.562500 4.500000
v 4.500000 5.562500 5.500000
v 3.187500 6.312500 4.500000
v 3.187500 6.312500 5.500000
v 3.812500 5.562500 4.500000
v 3.812500 5.562500 5.500000
v 2.558058 6.750000 0.694543
v 3.265165 6.750000 -0.012564
v 2.558058 5.875000 0.694543
v 3.265165 5.875000 -0.012564
v 3.265165 6.750000 1.401650
v 4.679379 6.750000 -0.012564
v 3.265165 5.875000 1.401650
v 4.679379 5.875000 -0.012564
v 4.687500 6.750000 -0.012501
v 4.687500 6.750000 -0.012501
v 4.687500 5.875000 -0.012500
v 4.687500 5.875000 -0.012500
v 3.262500 6.750000 -0.012501
v 3.262500 6.750000 -0.012501
v 3.262500 5.875000 -0.012500
v 3.262500 5.875000 -0.012500
v 3.937500 6.812500 -1.750000
v 3.937500 6.812500 -2.000000
v 3.937500 6.312500 -1.750000
v 3.937500 6.312500 -2.000000
v 3.187500 6.812500 -1.750000
v 3.187500 6.812500 -2.000000
v 3.187500 6.312500 -1.750000
v 3.187500 6.312500 -2.000000
v 3.937500 6.312500 -1.750000
v 3.937500 6.312500 -2.000000
v 3.937500 5.562500 -1.750000
v 3.937500 5.562500 -2.000000
v 3.187500 6.312500 -1.750000
v 3.187500 6.312500 -2.000000
v 3.812500 5.562500 -1.750000
v 3.812500 5.562500 -2.000000
v 6.062500 6.812500 -1.750000
v 6.062500 6.812500 -2.000000
v 6.062500 5.562500 -1.750000
v 6.062500 5.562500 -2.000000
v 3.937500 6.812500 -1.750000
v 3.937500 6.812500 -2.000000
v 3.937500 5.562500 -1.750000
v 3.937500 5.562500 -2.000000
v 6.062500 6.812500 -1.750000
v 6.062500 6.812500 -2.000000
v 6.062500 6.312500 -1.750000
v 6.062500 6.312500 -2.000000
v 6.812500 6.812500 -1.750000
v 6.812500 6.812500 -2.000000
v 6.812500 6.312500 -1.750000
v 6.812500 6.312500 -2.000000
v 6.062500 6.312500 -1.750000
v 6.062500 6.312500 -2.000000
v 6.062500 5.562500 -1.750000
v 6.062500 5.562500 -2.000000
v 6.812500 6.312500 -1.750000
v 6.812500 6.312500 -2.000000
v 6.187500 5.562500 -1.750000
v 6.187500 5.562500 -2.000000
v 3.937500 6.812500 -0.000001
v 3.937500 6.812500 -0.250001
v 3.937500 6.312500 -0.000000
v 3.937500 6.312500 -0.250000
v 3.187500 6.812500 -0.000001
v 3.187500 6.812500 -0.250001
v 3.187500 6.312500 -0.000000
v 3.187500 6.312500 -0.250000
v 3.937500 6.312500 -0.000000
v 3.937500 6.312500 -0.250000
v 3.937500 5.562500 -0.000000
v 3.937500 5.562500 -0.250000
v 3.187500 6.312500 -0.000000
v 3.187500 6.312500 -0.250000
v 3.812500 5.562500 -0.000000
v 3.812500 5.562500 -0.250000
v 6.062500 6.812500 -0.000001
v 6.062500 6.812500 -0.250001
v 6.062500 5.562500 -0.000000
v 6.062500 5.562500 -0.250000
v 3.937500 6.812500 -0.000001
v 3.937500 6.812500 -0.250001
v 3.937500 5.562500 -0.000000
v 3.937500 5.562500 -0.250000
v 6.062500 6.812500 -0.000001
v 6.062500 6.812500 -0.250001
v 6.062500 6.312500 -0.000000
v 6.062500 6.312500 -0.250000
v 6.812500 6.812500 -0.000001
v 6.812500 6.812500 -0.250001
v 6.812500 6.312500 -0.000000
v 6.812500 6.312500 -0.250000
v 6.062500 6.312500 -0.000000
v 6.062500 6.312500 -0.250000
v 6.062500 5.562500 -0.000000
v 6.062500 5.562500 -0.250000
v 6.812500 6.312500 -0.000000
v 6.812500 6.312500 -0.250000
v 6.187500 5.562500 -0.000000
v 6.187500 5.562500 -0.250000
v 5.500000 6.812500 -0.500001
v 5.500000 6.812500 -1.500000
v 5.500000 6.312500 -0.500000
v 5.500000 6.312500 -1.500000
v 6.812500 6.812500 -0.500001
v 6.812500 6.812500 -1.500000
v 6.812500 6.312500 -0.500000
v 6.812500 6.312500 -1.500000
v 5.500000 6.312500 -0.500000
v 5.500000 6.312500 -1.500000
v 5.500000 5.562500 -0.500000
v 5.500000 5.562500 -1.500000
v 6.812500 6.312500 -0.500000
v 6.812500 6.312500 -1.500000
v 6.187500 5.562500 -0.500000
v 6.187500 5.562500 -1.500000
v 4.500000 6.812500 -0.500001
v 4.500000 6.812500 -1.500000
v 4.500000 6.312500 -0.500000
v 4.500000 6.312500 -1.500000
v 3.187500 6.812500 -0.500001
v 3.187500 6.812500 -1.500000
v 3.187500 6.312500 -0.500000
v 3.187500 6.312500 -1.500000
v 4.500000 6.312500 -0.500000
v 4.500000 6.312500 -1.500000
v 4.500000 5.562500 -0.500000
v 4.500000 5.562500 -1.500000
v 3.187500 6.312500 -0.500000
v 3.187500 6.312500 -1.500000
v 3.812500 5.562500 -0.500000
v 3.812500 5.562500 -1.500000
vn 1.0000 -0.0000 -0.0000
vn -0.0000 1.0000 -0.0000
vn -0.0000 -0.0000 1.0000
vn -0.0000 -0.0000 -1.0000
vn -1.0000 -0.0000 -0.0000
vn 0.7682 -0.6402 -0.0000
vn -0.0000 -1.0000 -0.0000
vn -0.7682 -0.6402 -0.0000
vn 0.7071 -0.0000 0.7071
vn -0.7071 -0.0000 -0.7071
vn 0.7071 -0.0000 -0.7071
vn -0.7071 -0.0000 0.7071
vt 0.660156 0.265625
vt 0.660156 0.281250
vt 0.628906 0.281250
vt 0.628906 0.265625
vt 0.613281 0.281250
vt 0.613281 0.265625
vt 0.660156 0.261719
vt 0.613281 0.261719
vt 0.613281 0.230469
vt 0.660156 0.230469
vt 0.575825 0.602117
vt 0.560098 0.602117
vt 0.560098 0.554934
vt 0.575825 0.554934
vt 0.496094 0.265625
vt 0.496094 0.281250
vt 0.433594 0.281250
vt 0.433594 0.265625
vt 0.652344 0.281250
vt 0.652344 0.265625
vt 0.613281 0.183594
vt 0.621094 0.183594
vt 0.484375 0.281250
vt 0.617188 0.281250
vt 0.617188 0.265625
vt 0.484375 0.265625
vt 0.500000 0.281250
vt 0.632812 0.281250
vt 0.632812 0.265625
vt 0.500000 0.265625
vt 0.480469 0.261719
vt 0.480469 0.183594
vt 0.582031 0.621094
vt 0.582031 0.652344
vt 0.644531 0.652344
vt 0.644531 0.621094
vt 0.582031 0.683594
vt 0.582031 0.746094
vt 0.664062 0.746094
vt 0.664062 0.683594
vt 0.480469 0.230469
vt 0.398438 0.261719
vt 0.398438 0.230469
vt 0.582031 0.558594
vt 0.582031 0.605469
vt 0.644531 0.605469
vt 0.644531 0.558594
vt 0.582031 0.460938
vt 0.582031 0.523438
vt 0.644531 0.523438
vt 0.644531 0.460938
vt 0.582031 0.609375
vt 0.644531 0.609375
vt 0.437500 0.183594
vt 0.718750 0.558594
vt 0.757812 0.558594
vt 0.757812 0.589844
vt 0.718750 0.589844
vt 0.574219 0.535156
vt 0.492188 0.535156
vt 0.492188 0.496094
vt 0.574219 0.496094
vt 0.718750 0.636719
vt 0.718750 0.597656
vt 0.757812 0.597656
vt 0.757812 0.679688
vt 0.253906 0.570312
vt 0.292969 0.570312
vt 0.292969 0.531250
vt 0.253906 0.531250
vt 0.582031 0.738281
vt 0.589844 0.746094
vt 0.636719 0.558594
vt 0.636719 0.648438
vt 0.582031 0.648438
s 0
usemtl default
f 7/1/1 6/2/1 8/3/1 9/4/1
f 7/2/2 3/5/2 2/6/2 6/1/2
f 6/7/3 2/8/3 4/9/3 8/10/3
f 3/8/4 7/7/4 9/10/4 5/9/4
f 10/11/5 11/12/5 13/13/5 12/14/5
f 15/15/6 14/16/6 16/17/6 17/18/6
f 16/2/7 12/19/7 13/20/7 17/1/7
f 14/10/3 10/9/3 12/21/3 16/22/3
f 11/9/4 15/10/4 17/22/4 13/21/4
f 23/23/2 19/24/2 18/25/2 22/26/2
f 24/27/7 20/28/7 21/29/7 25/30/7
f 22/8/3 18/31/3 20/32/3 24/21/3
f 19/31/4 23/8/4 25/21/4 21/32/4
f 32/3/5 30/2/5 31/1/5 33/4/5
f 26/6/2 27/5/2 31/2/2 30/1/2
f 28/9/3 26/8/3 30/7/3 32/10/3
f 33/10/4 31/7/4 27/8/4 29/9/4
f 37/13/1 35/12/1 34/11/1 36/14/1
f 40/17/8 38/16/8 39/15/8 41/18/8
f 37/20/7 36/19/7 40/2/7 41/1/7
f 36/21/3 34/9/3 38/10/3 40/22/3
f 41/22/4 39/10/4 35/9/4 37/21/4
f 47/1/1 46/2/1 48/3/1 49/4/1
f 47/2/2 43/5/2 42/6/2 46/1/2
f 46/7/3 42/8/3 44/9/3 48/10/3
f 43/8/4 47/7/4 49/10/4 45/9/4
f 50/11/5 51/12/5 53/13/5 52/14/5
f 55/15/6 54/16/6 56/17/6 57/18/6
f 56/2/7 52/19/7 53/20/7 57/1/7
f 54/10/3 50/9/3 52/21/3 56/22/3
f 51/9/4 55/10/4 57/22/4 53/21/4
f 63/23/2 59/24/2 58/25/2 62/26/2
f 64/27/7 60/28/7 61/29/7 65/30/7
f 62/8/3 58/31/3 60/32/3 64/21/3
f 59/31/4 63/8/4 65/21/4 61/32/4
f 72/3/5 70/2/5 71/1/5 73/4/5
f 66/6/2 67/5/2 71/2/2 70/1/2
f 68/9/3 66/8/3 70/7/3 72/10/3
f 73/10/4 71/7/4 67/8/4 69/9/4
f 77/13/1 75/12/1 74/11/1 76/14/1
f 80/17/8 78/16/8 79/15/8 81/18/8
f 77/20/7 76/19/7 80/2/7 81/1/7
f 76/21/3 74/9/3 78/10/3 80/22/3
f 81/22/4 79/10/4 75/9/4 77/21/4
f 85/33/1 83/34/1 82/35/1 84/36/1
f 88/33/5 86/34/5 87/35/5 89/36/5
f 82/37/2 83/38/2 87/39/2 86/40/2
f 84/41/3 82/31/3 86/42/3 88/43/3
f 89/43/4 87/42/4 83/31/4 85/41/4
f 93/44/1 91/45/1 90/46/1 92/47/1
f 96/48/8 94/49/8 95/50/8 97/51/8
f 93/52/7 92/53/7 96/35/7 97/34/7
f 92/32/3 90/41/3 94/43/3 96/54/3
f 97/54/4 95/43/4 91/41/4 93/32/4
f 98/35/5 99/34/5 101/33/5 100/36/5
f 103/35/1 102/34/1 104/33/1 105/36/1
f 103/39/2 99/38/2 98/37/2 102/40/2
f 102/42/3 98/31/3 100/41/3 104/43/3
f 99/31/4 103/42/4 105/43/4 101/41/4
f 106/46/5 107/45/5 109/44/5 108/47/5
f 111/36/6 110/33/6 112/44/6 113/47/6
f 112/35/7 108/53/7 109/52/7 113/34/7
f 110/43/3 106/41/3 108/32/3 112/54/3
f 107/41/4 111/43/4 113/54/4 109/32/4
f 120/3/1 118/2/1 119/1/1 121/4/1
f 114/6/2 115/5/2 119/2/2 118/1/2
f 116/9/4 114/8/4 118/7/4 120/10/4
f 121/10/3 119/7/3 115/8/3 117/9/3
f 124/13/5 122/12/5 1/11/5 123/14/5
f 127/17/6 125/16/6 126/15/6 128/18/6
f 124/20/7 123/19/7 127/2/7 128/1/7
f 123/21/4 1/9/4 125/10/4 127/22/4
f 128/22/3 126/10/3 122/9/3 124/21/3
f 129/25/2 130/24/2 134/23/2 133/26/2
f 132/29/7 131/28/7 135/27/7 136/30/7
f 131/32/4 129/31/4 133/8/4 135/21/4
f 136/21/3 134/8/3 130/31/3 132/32/3
f 142/1/5 141/2/5 143/3/5 144/4/5
f 142/2/2 138/5/2 137/6/2 141/1/2
f 141/7/4 137/8/4 139/9/4 143/10/4
f 138/8/3 142/7/3 144/10/3 140/9/3
f 145/11/1 146/12/1 148/13/1 147/14/1
f 150/15/8 149/16/8 151/17/8 152/18/8
f 151/2/7 147/19/7 148/20/7 152/1/7
f 149/10/4 145/9/4 147/21/4 151/22/4
f 146/9/3 150/10/3 152/22/3 148/21/3
f 159/3/1 157/2/1 158/1/1 160/4/1
f 153/6/2 154/5/2 158/2/2 157/1/2
f 155/9/4 153/8/4 157/7/4 159/10/4
f 160/10/3 158/7/3 154/8/3 156/9/3
f 164/13/5 162/12/5 161/11/5 163/14/5
f 167/17/6 165/16/6 166/15/6 168/18/6
f 164/20/7 163/19/7 167/2/7 168/1/7
f 163/21/4 161/9/4 165/10/4 167/22/4
f 168/22/3 166/10/3 162/9/3 164/21/3
f 169/25/2 170/24/2 174/23/2 173/26/2
f 172/29/7 171/28/7 175/27/7 176/30/7
f 171/32/4 169/31/4 173/8/4 175/21/4
f 176/21/3 174/8/3 170/31/3 172/32/3
f 182/1/5 181/2/5 183/3/5 184/4/5
f 182/2/2 178/5/2 177/6/2 181/1/2
f 181/7/4 177/8/4 179/9/4 183/10/4
f 178/8/3 182/7/3 184/10/3 180/9/3
f 185/11/1 186/12/1 188/13/1 187/14/1
f 190/15/8 189/16/8 191/17/8 192/18/8
f 191/2/7 187/19/7 188/20/7 192/1/7
f 189/10/4 185/9/4 187/21/4 191/22/4
f 186/9/3 190/10/3 192/22/3 188/21/3
f 193/35/1 194/34/1 196/33/1 195/36/1
f 198/35/5 197/34/5 199/33/5 200/36/5
f 198/39/2 194/38/2 193/37/2 197/40/2
f 197/42/4 193/31/4 195/41/4 199/43/4
f 194/31/3 198/42/3 200/43/3 196/41/3
f 201/46/1 202/45/1 204/44/1 203/47/1
f 206/50/8 205/49/8 207/48/8 208/51/8
f 207/35/7 203/53/7 204/52/7 208/34/7
f 205/43/4 201/41/4 203/32/4 207/54/4
f 202/41/3 206/43/3 208/54/3 204/32/3
f 212/33/5 210/34/5 209/35/5 211/36/5
f 215/33/1 213/34/1 214/35/1 216/36/1
f 209/37/2 210/38/2 214/39/2 213/40/2
f 211/41/4 209/31/4 213/42/4 215/43/4
f 216/43/3 214/42/3 210/31/3 212/41/3
f 220/44/5 218/45/5 217/46/5 219/47/5
f 223/44/6 221/33/6 222/36/6 224/47/6
f 220/52/7 219/53/7 223/35/7 224/34/7
f 219/32/4 217/41/4 221/43/4 223/54/4
f 224/54/3 222/43/3 218/41/3 220/32/3
f 227/55/9 225/56/9 226/57/9 228/58/9
f 230/59/10 229/60/10 231/61/10 232/62/10
f 226/63/2 225/64/2 229/65/2 230/66/2
f 231/65/7 227/64/7 228/63/7 232/66/7
f 229/67/11 225/68/11 227/69/11 231/70/11
f 234/38/3 233/38/3 236/71/3 235/71/3
f 237/38/3 238/38/3 239/71/3 240/71/3
f 234/72/3 238/38/3 233/72/3 237/38/3
f 235/72/3 239/38/3 236/72/3 240/38/3
f 240/44/3 238/73/3 234/74/3 236/75/3
f 242/58/11 241/55/11 243/56/11 244/57/11
f 247/61/12 245/60/12 246/59/12 248/62/12
f 245/65/2 241/64/2 242/63/2 246/66/2
f 244/63/7 243/64/7 247/65/7 248/66/7
f 243/69/9 241/68/9 245/67/9 247/70/9
f 249/38/3 250/38/3 252/71/3 251/71/3
f 254/38/3 253/38/3 255/71/3 256/71/3
f 254/38/3 250/72/3 249/72/3 253/38/3
f 255/38/3 251/72/3 252/72/3 256/38/3
f 250/74/4 254/73/4 256/44/4 252/75/4
f 258/57/12 257/56/12 259/55/12 260/58/12
f 263/61/11 261/60/11 262/59/11 264/62/11
f 261/65/2 257/64/2 258/63/2 262/66/2
f 260/63/7 259/64/7 263/65/7 264/66/7
f 259/69/10 257/68/10 261/67/10 263/70/10
f 265/38/3 266/38/3 268/71/3 267/71/3
f 270/38/3 269/38/3 271/71/3 272/71/3
f 270/38/3 266/72/3 265/72/3 269/38/3
f 271/38/3 267/72/3 268/72/3 272/38/3
f 266/74/3 270/73/3 272/44/3 268/75/3
f 278/1/5 277/2/5 279/3/5 280/4/5
f 278/2/2 274/5/2 273/6/2 277/1/2
f 277/7/4 273/8/4 275/9/4 279/10/4
f 274/8/3 278/7/3 280/10/3 276/9/3
f 281/11/1 282/12/1 284/13/1 283/14/1
f 286/15/8 285/16/8 287/17/8 288/18/8
f 287/2/7 283/19/7 284/20/7 288/1/7
f 285/10/4 281/9/4 283/21/4 287/22/4
f 282/9/3 286/10/3 288/22/3 284/21/3
f 294/23/2 290/24/2 289/25/2 293/26/2
f 295/27/7 291/28/7 292/29/7 296/30/7
f 293/8/4 289/31/4 291/32/4 295/21/4
f 290/31/3 294/8/3 296/21/3 292/32/3
f 303/3/1 301/2/1 302/1/1 304/4/1
f 297/6/2 298/5/2 302/2/2 301/1/2
f 299/9/4 297/8/4 301/7/4 303/10/4
f 304/10/3 302/7/3 298/8/3 300/9/3
f 308/13/5 306/12/5 305/11/5 307/14/5
f 311/17/6 309/16/6 310/15/6 312/18/6
f 308/20/7 307/19/7 311/2/7 312/1/7
f 307/21/4 305/9/4 309/10/4 311/22/4
f 312/22/3 310/10/3 306/9/3 308/21/3
f 318/1/5 317/2/5 319/3/5 320/4/5
f 318/2/2 314/5/2 313/6/2 317/1/2
f 317/7/4 313/8/4 315/9/4 319/10/4
f 314/8/3 318/7/3 320/10/3 316/9/3
f 321/11/1 322/12/1 324/13/1 323/14/1
f 326/15/8 325/16/8 327/17/8 328/18/8
f 327/2/7 323/19/7 324/20/7 328/1/7
f 325/10/4 321/9/4 323/21/4 327/22/4
f 322/9/3 326/10/3 328/22/3 324/21/3
f 334/23/2 330/24/2 329/25/2 333/26/2
f 335/27/7 331/28/7 332/29/7 336/30/7
f 333/8/4 329/31/4 331/32/4 335/21/4
f 330/31/3 334/8/3 336/21/3 332/32/3
f 343/3/1 341/2/1 342/1/1 344/4/1
f 337/6/2 338/5/2 342/2/2 341/1/2
f 339/9/4 337/8/4 341/7/4 343/10/4
f 344/10/3 342/7/3 338/8/3 340/9/3
f 348/13/5 346/12/5 345/11/5 347/14/5
f 351/17/6 349/16/6 350/15/6 352/18/6
f 348/20/7 347/19/7 351/2/7 352/1/7
f 347/21/4 345/9/4 349/10/4 351/22/4
f 352/22/3 350/10/3 346/9/3 348/21/3
f 356/33/5 354/34/5 353/35/5 355/36/5
f 359/33/1 357/34/1 358/35/1 360/36/1
f 353/37/2 354/38/2 358/39/2 357/40/2
f 355/41/4 353/31/4 357/42/4 359/43/4
f 360/43/3 358/42/3 354/31/3 356/41/3
f 364/44/5 362/45/5 361/46/5 363/47/5
f 367/48/6 365/49/6 366/50/6 368/51/6
f 364/52/7 363/53/7 367/35/7 368/34/7
f 363/32/4 361/41/4 365/43/4 367/54/4
f 368/54/3 366/43/3 362/41/3 364/32/3
f 369/35/1 370/34/1 372/33/1 371/36/1
f 374/35/5 373/34/5 375/33/5 376/36/5
f 374/39/2 370/38/2 369/37/2 373/40/2
f 373/42/4 369/31/4 371/41/4 375/43/4
f 370/31/3 374/42/3 376/43/3 372/41/3
f 377/46/1 378/45/1 380/44/1 379/47/1
f 382/36/8 381/33/8 383/44/8 384/47/8
f 383/35/7 379/53/7 380/52/7 384/34/7
f 381/43/4 377/41/4 379/32/4 383/54/4
f 378/41/3 382/43/3 384/54/3 380/32/3
f 387/57/10 385/58/10 386/55/10 388/56/10
f 390/59/9 389/60/9 391/61/9 392/62/9
f 386/63/2 385/64/2 389/65/2 390/66/2
f 391/65/7 387/64/7 388/63/7 392/66/7
f 389/67/12 385/68/12 387/69/12 391/70/12
f 394/38/3 393/38/3 396/71/3 395/71/3
f 397/38/3 398/38/3 399/71/3 400/71/3
f 394/72/3 398/38/3 393/72/3 397/38/3
f 395/72/3 399/38/3 396/72/3 400/38/3
f 400/44/4 398/73/4 394/74/4 396/75/4
f 407/3/5 405/2/5 406/1/5 408/4/5
f 401/6/2 402/5/2 406/2/2 405/1/2
f 403/9/3 401/8/3 405/7/3 407/10/3
f 408/10/4 406/7/4 402/8/4 404/9/4
f 412/13/1 410/12/1 409/11/1 411/14/1
f 415/17/8 413/16/8 414/15/8 416/18/8
f 412/20/7 411/19/7 415/2/7 416/1/7
f 411/21/3 409/9/3 413/10/3 415/22/3
f 416/22/4 414/10/4 410/9/4 412/21/4
f 417/25/2 418/24/2 422/23/2 421/26/2
f 420/29/7 419/28/7 423/27/7 424/30/7
f 419/32/3 417/31/3 421/8/3 423/21/3
f 424/21/4 422/8/4 418/31/4 420/32/4
f 430/1/1 429/2/1 431/3/1 432/4/1
f 430/2/2 426/5/2 425/6/2 429/1/2
f 429/7/3 425/8/3 427/9/3 431/10/3
f 426/8/4 430/7/4 432/10/4 428/9/4
f 433/11/5 434/12/5 436/13/5 435/14/5
f 438/15/6 437/16/6 439/17/6 440/18/6
f 439/2/7 435/19/7 436/20/7 440/1/7
f 437/10/3 433/9/3 435/21/3 439/22/3
f 434/9/4 438/10/4 440/22/4 436/21/4
f 447/3/5 445/2/5 446/1/5 448/4/5
f 441/6/2 442/5/2 446/2/2 445/1/2
f 443/9/3 441/8/3 445/7/3 447/10/3
f 448/10/4 446/7/4 442/8/4 444/9/4
f 452/13/1 450/12/1 449/11/1 451/14/1
f 455/17/8 453/16/8 454/15/8 456/18/8
f 452/20/7 451/19/7 455/2/7 456/1/7
f 451/21/3 449/9/3 453/10/3 455/22/3
f 456/22/4 454/10/4 450/9/4 452/21/4
f 457/25/2 458/24/2 462/23/2 461/26/2
f 460/29/7 459/28/7 463/27/7 464/30/7
f 459/32/3 457/31/3 461/8/3 463/21/3
f 464/21/4 462/8/4 458/31/4 460/32/4
f 470/1/1 469/2/1 471/3/1 472/4/1
f 470/2/2 466/5/2 465/6/2 469/1/2
f 469/7/3 465/8/3 467/9/3 471/10/3
f 466/8/4 470/7/4 472/10/4 468/9/4
f 473/11/5 474/12/5 476/13/5 475/14/5
f 478/15/6 477/16/6 479/17/6 480/18/6
f 479/2/7 475/19/7 476/20/7 480/1/7
f 477/10/3 473/9/3 475/21/3 479/22/3
f 474/9/4 478/10/4 480/22/4 476/21/4
f 481/35/5 482/34/5 484/33/5 483/36/5
f 486/35/1 485/34/1 487/33/1 488/36/1
f 486/39/2 482/38/2 481/37/2 485/40/2
f 485/42/3 481/31/3 483/41/3 487/43/3
f 482/31/4 486/42/4 488/43/4 484/41/4
f 489/46/5 490/45/5 492/44/5 491/47/5
f 494/50/6 493/49/6 495/48/6 496/51/6
f 495/35/7 491/53/7 492/52/7 496/34/7
f 493/43/3 489/41/3 491/32/3 495/54/3
f 490/41/4 494/43/4 496/54/4 492/32/4
f 500/33/1 498/34/1 497/35/1 499/36/1
f 503/33/5 501/34/5 502/35/5 504/36/5
f 497/37/2 498/38/2 502/39/2 501/40/2
f 499/41/3 497/31/3 501/42/3 503/43/3
f 504/43/4 502/42/4 498/31/4 500/41/4
f 508/44/1 506/45/1 505/46/1 507/47/1
f 511/44/8 509/33/8 510/36/8 512/47/8
f 508/52/7 507/53/7 511/35/7 512/34/7
f 507/32/3 505/41/3 509/43/3 511/54/3
f 512/54/4 510/43/4 506/41/4 508/32/4
