# Blender 4.2.3 LTS
# www.blender.org
mtllib coredrill.mtl
o cylinder
v 0.000000 -1.000000 0.000000
v 0.000000 0.000000 0.000000
v 0.621320 -1.000000 1.500000
v 0.621320 0.000000 1.500000
v 1.500000 -1.000000 0.621320
v 1.500000 0.000000 0.621320
v 1.500000 -1.000000 -0.621320
v 1.500000 -0.000000 -0.621321
v 0.621320 -1.000000 -1.500000
v 0.621320 -0.000000 -1.500000
v -0.621320 -1.000000 -1.500000
v -0.621320 -0.000000 -1.500000
v -1.500000 -1.000000 -0.621320
v -1.500000 -0.000000 -0.621321
v -1.500000 -1.000000 0.621320
v -1.500000 0.000000 0.621320
v -0.621320 -1.000000 1.500000
v -0.621320 0.000000 1.500000
v 0.000000 -5.000000 0.000000
v 0.144607 -5.000000 0.250000
v 0.207107 -4.000000 0.562500
v 0.250000 -5.000000 0.144607
v 0.562500 -4.000000 0.207107
v 0.250000 -5.000000 -0.144607
v 0.562500 -4.000000 -0.207107
v 0.144607 -5.000000 -0.250000
v 0.207107 -4.000000 -0.562500
v -0.144607 -5.000000 -0.250000
v -0.207107 -4.000000 -0.562500
v -0.250000 -5.000000 -0.144607
v -0.562500 -4.000000 -0.207107
v -0.250000 -5.000000 0.144607
v -0.562500 -4.000000 0.207107
v -0.144607 -5.000000 0.250000
v -0.207107 -4.000000 0.562500
v 0.000000 -4.000000 0.000000
v 0.207107 -4.000000 0.687500
v 0.269607 -3.000000 0.875000
v 0.687500 -4.000000 0.207107
v 0.875000 -3.000000 0.269607
v 0.687500 -4.000000 -0.207107
v 0.875000 -3.000000 -0.269607
v 0.207107 -4.000000 -0.687500
v 0.269607 -3.000000 -0.875000
v -0.207107 -4.000000 -0.687500
v -0.269607 -3.000000 -0.875000
v -0.687500 -4.000000 -0.207107
v -0.875000 -3.000000 -0.269607
v -0.687500 -4.000000 0.207107
v -0.875000 -3.000000 0.269607
v -0.207107 -4.000000 0.687500
v -0.269607 -3.000000 0.875000
v 0.000000 -3.000000 0.000000
v 0.269607 -3.000000 0.937500
v 0.332107 -2.000000 1.062500
v 0.937500 -3.000000 0.269607
v 1.062500 -2.000000 0.332107
v 0.937500 -3.000000 -0.269607
v 1.062500 -2.000000 -0.332107
v 0.269607 -3.000000 -0.937500
v 0.332107 -2.000000 -1.062500
v -0.269607 -3.000000 -0.937500
v -0.332107 -2.000000 -1.062500
v -0.937500 -3.000000 -0.269607
v -1.062500 -2.000000 -0.332107
v -0.937500 -3.000000 0.269607
v -1.062500 -2.000000 0.332107
v -0.269607 -3.000000 0.937500
v -0.332107 -2.000000 1.062500
v 0.000000 -2.000000 0.000000
v 0.332107 -2.000000 1.187500
v 0.332107 -1.000000 1.312500
v 1.187500 -2.000000 0.332107
v 1.312500 -1.000000 0.332107
v 1.187500 -2.000000 -0.332107
v 1.312500 -1.000000 -0.332107
v 0.332107 -2.000000 -1.187500
v 0.332107 -1.000000 -1.312500
v -0.332107 -2.000000 -1.187500
v -0.332107 -1.000000 -1.312500
v -1.187500 -2.000000 -0.332107
v -1.312500 -1.000000 -0.332107
v -1.187500 -2.000000 0.332107
v -1.312500 -1.000000 0.332107
v -0.332107 -2.000000 1.187500
v -0.332107 -1.000000 1.312500
vn -0.0000 -1.0000 -0.0000
vn 0.7071 -0.0000 0.7071
vn -0.0000 1.0000 -0.0000
vn 1.0000 -0.0000 -0.0000
vn 0.7071 -0.0000 -0.7071
vn -0.0000 -0.0000 -1.0000
vn -0.7071 -0.0000 -0.7071
vn -1.0000 -0.0000 -0.0000
vn -0.7071 -0.0000 0.7071
vn -0.0000 -0.0000 1.0000
vn 0.6835 -0.2563 0.6835
vn 0.9545 -0.2983 -0.0000
vn 0.6835 -0.2563 -0.6835
vn -0.0000 -0.2983 -0.9545
vn -0.6835 -0.2563 -0.6835
vn -0.9545 -0.2983 -0.0000
vn -0.6835 -0.2563 0.6835
vn -0.0000 -0.2983 0.9545
vn 0.6963 -0.1741 0.6963
vn 0.9829 -0.1843 -0.0000
vn 0.6963 -0.1741 -0.6963
vn -0.0000 -0.1843 -0.9829
vn -0.6963 -0.1741 -0.6963
vn -0.9829 -0.1843 -0.0000
vn -0.6963 -0.1741 0.6963
vn -0.0000 -0.1843 0.9829
vn 0.7010 -0.1314 0.7010
vn 0.9923 -0.1240 -0.0000
vn 0.7010 -0.1314 -0.7010
vn -0.0000 -0.1240 -0.9923
vn -0.7010 -0.1314 -0.7010
vn -0.9923 -0.1240 -0.0000
vn -0.7010 -0.1314 0.7010
vn -0.0000 -0.1240 0.9923
vn 0.7044 -0.0880 0.7044
vn 0.7044 -0.0880 -0.7044
vn -0.7044 -0.0880 -0.7044
vn -0.7044 -0.0880 0.7044
vt 0.378906 0.375000
vt 0.378906 0.445312
vt 0.281250 0.410156
vt 0.667969 0.492188
vt 0.750000 0.492188
vt 0.750000 0.554688
vt 0.667969 0.554688
vt 0.253906 0.316406
vt 0.320312 0.316406
vt 0.281250 0.414062
vt 0.285156 0.414062
vt 0.320312 0.503906
vt 0.250000 0.503906
vt 0.285156 0.406250
vt 0.253906 0.503906
vt 0.191406 0.445312
vt 0.191406 0.375000
vt 0.289062 0.410156
vt 0.250000 0.316406
vt 0.187500 0.292969
vt 0.179688 0.300781
vt 0.171875 0.285156
vt 0.171875 0.199219
vt 0.179688 0.199219
vt 0.191406 0.261719
vt 0.160156 0.261719
vt 0.187500 0.277344
vt 0.191406 0.199219
vt 0.210938 0.199219
vt 0.214844 0.261719
vt 0.187500 0.261719
vt 0.179688 0.269531
vt 0.164062 0.269531
vt 0.187500 0.199219
vt 0.207031 0.199219
vt 0.210938 0.261719
vt 0.183594 0.261719
vt 0.156250 0.277344
vt 0.156250 0.292969
vt 0.164062 0.300781
vt 0.214844 0.199219
vt 0.222656 0.199219
vt 0.234375 0.261719
vt 0.203125 0.261719
vt 0.484375 0.445312
vt 0.453125 0.476562
vt 0.441406 0.433594
vt 0.453125 0.308594
vt 0.496094 0.308594
vt 0.500000 0.371094
vt 0.445312 0.371094
vt 0.484375 0.421875
vt 0.476562 0.308594
vt 0.480469 0.371094
vt 0.449219 0.371094
vt 0.453125 0.390625
vt 0.449219 0.308594
vt 0.492188 0.308594
vt 0.429688 0.390625
vt 0.472656 0.308594
vt 0.476562 0.371094
vt 0.398438 0.421875
vt 0.398438 0.445312
vt 0.460938 0.308594
vt 0.484375 0.308594
vt 0.488281 0.371094
vt 0.457031 0.371094
vt 0.429688 0.476562
vt 0.445312 0.308594
vt 0.488281 0.308594
vt 0.492188 0.371094
vt 0.437500 0.371094
vt 0.500000 0.449219
vt 0.457031 0.492188
vt 0.437500 0.308594
vt 0.433594 0.371094
vt 0.500000 0.417969
vt 0.386719 0.308594
vt 0.421875 0.308594
vt 0.425781 0.371094
vt 0.382812 0.371094
vt 0.457031 0.375000
vt 0.425781 0.375000
vt 0.382812 0.417969
vt 0.382812 0.449219
vt 0.425781 0.492188
vt 0.144531 0.355469
vt 0.093750 0.410156
vt 0.074219 0.335938
vt 0.054688 0.199219
vt 0.125000 0.199219
vt 0.132812 0.261719
vt 0.050781 0.261719
vt 0.144531 0.320312
vt 0.003906 0.199219
vt 0.042969 0.199219
vt 0.042969 0.261719
vt 0.003906 0.261719
vt 0.093750 0.265625
vt 0.128906 0.261719
vt 0.046875 0.261719
vt 0.054688 0.265625
vt 0.003906 0.320312
vt 0.003906 0.355469
vt 0.054688 0.410156
s 0
usemtl default
f 5/1/1 3/2/1 1/3/1
f 3/4/2 5/5/2 6/6/2 4/7/2
f 4/8/3 6/9/3 2/10/3
f 7/1/1 5/2/1 1/3/1
f 5/4/4 7/5/4 8/6/4 6/7/4
f 6/8/3 8/9/3 2/11/3
f 9/8/1 7/9/1 1/11/1
f 7/4/5 9/5/5 10/6/5 8/7/5
f 8/8/3 10/9/3 2/10/3
f 11/8/1 9/9/1 1/11/1
f 9/4/6 11/5/6 12/6/6 10/7/6
f 10/12/3 12/13/3 2/14/3
f 13/12/1 11/15/1 1/14/1
f 11/4/7 13/5/7 14/6/7 12/7/7
f 12/16/3 14/17/3 2/18/3
f 15/16/1 13/17/1 1/18/1
f 13/4/8 15/5/8 16/6/8 14/7/8
f 14/1/3 16/2/3 2/3/3
f 17/16/1 15/17/1 1/18/1
f 15/4/9 17/5/9 18/6/9 16/7/9
f 16/12/3 18/15/3 2/14/3
f 3/12/1 17/15/1 1/14/1
f 17/4/10 3/5/10 4/6/10 18/7/10
f 18/19/3 4/9/3 2/11/3
f 22/20/1 20/21/1 19/22/1
f 20/23/11 22/24/11 23/25/11 21/26/11
f 24/27/1 22/20/1 19/22/1
f 22/28/12 24/29/12 25/30/12 23/31/12
f 26/32/1 24/27/1 19/22/1
f 24/23/13 26/24/13 27/25/13 25/26/13
f 28/33/1 26/32/1 19/22/1
f 26/34/14 28/35/14 29/36/14 27/37/14
f 30/38/1 28/33/1 19/22/1
f 28/23/15 30/24/15 31/25/15 29/26/15
f 32/39/1 30/38/1 19/22/1
f 30/34/16 32/35/16 33/36/16 31/37/16
f 34/40/1 32/39/1 19/22/1
f 32/41/17 34/42/17 35/43/17 33/44/17
f 20/21/1 34/40/1 19/22/1
f 34/34/18 20/35/18 21/36/18 35/37/18
f 39/45/1 37/46/1 36/47/1
f 37/48/19 39/49/19 40/50/19 38/51/19
f 41/52/1 39/45/1 36/47/1
f 39/48/20 41/53/20 42/54/20 40/55/20
f 43/56/1 41/52/1 36/47/1
f 41/57/21 43/58/21 44/50/21 42/51/21
f 45/59/1 43/56/1 36/47/1
f 43/57/22 45/60/22 46/61/22 44/51/22
f 47/62/1 45/59/1 36/47/1
f 45/48/23 47/49/23 48/50/23 46/51/23
f 49/63/1 47/62/1 36/47/1
f 47/64/24 49/65/24 50/66/24 48/67/24
f 51/68/1 49/63/1 36/47/1
f 49/69/25 51/70/25 52/71/25 50/72/25
f 37/46/1 51/68/1 36/47/1
f 51/48/26 37/53/26 38/54/26 52/55/26
f 56/73/1 54/74/1 53/47/1
f 54/75/27 56/49/27 57/50/27 55/76/27
f 58/77/1 56/73/1 53/47/1
f 56/78/28 58/79/28 59/80/28 57/81/28
f 60/82/1 58/77/1 53/47/1
f 58/75/29 60/49/29 61/50/29 59/76/29
f 62/83/1 60/82/1 53/47/1
f 60/78/30 62/79/30 63/80/30 61/81/30
f 64/84/1 62/83/1 53/47/1
f 62/75/31 64/49/31 65/50/31 63/76/31
f 66/85/1 64/84/1 53/47/1
f 64/78/32 66/79/32 67/80/32 65/81/32
f 68/86/1 66/85/1 53/47/1
f 66/75/33 68/49/33 69/50/33 67/76/33
f 54/74/1 68/86/1 53/47/1
f 68/78/34 54/79/34 55/80/34 69/81/34
f 73/87/1 71/88/1 70/89/1
f 71/90/35 73/91/35 74/92/35 72/93/35
f 75/94/1 73/87/1 70/89/1
f 73/95/28 75/96/28 76/97/28 74/98/28
f 77/99/1 75/94/1 70/89/1
f 75/90/36 77/91/36 78/100/36 76/101/36
f 79/102/1 77/99/1 70/89/1
f 77/95/30 79/96/30 80/97/30 78/98/30
f 81/103/1 79/102/1 70/89/1
f 79/90/37 81/91/37 82/92/37 80/93/37
f 83/104/1 81/103/1 70/89/1
f 81/95/32 83/96/32 84/97/32 82/98/32
f 85/105/1 83/104/1 70/89/1
f 83/90/38 85/91/38 86/100/38 84/93/38
f 71/88/1 85/105/1 70/89/1
f 85/95/34 71/96/34 72/97/34 86/98/34
