# Blender 4.2.3 LTS
# www.blender.org
mtllib chemical_reactor_mirrored.mtl
o cube.037
v 0.874999 3.500002 -2.125002
v -0.875001 3.500001 -2.125002
v 0.874999 1.000002 -2.125002
v -0.875000 1.000002 -2.125002
v 0.874999 3.500002 -3.875002
v -0.875001 3.500001 -3.875002
v 0.874999 1.000002 -3.875002
v -0.875000 1.000002 -3.875002
v 0.687830 3.500002 -2.312467
v -0.687198 3.500001 -2.312359
v 0.687831 1.000002 -2.312467
v -0.687197 1.000002 -2.312359
v 0.687213 3.500002 -3.687250
v -0.688309 3.500001 -3.687178
v 0.687213 1.000002 -3.687250
v -0.688309 1.000002 -3.687178
v 0.249999 0.750002 -1.250002
v 0.249999 0.750002 -1.750002
v 0.250000 0.250002 -1.250002
v 0.249999 0.250002 -1.750002
v 0.749999 0.750002 -1.250002
v 0.749999 0.750002 -1.625002
v 0.750000 0.250002 -1.250002
v 0.749999 0.250002 -1.625002
v -1.000000 1.000002 -4.000001
v 0.999999 1.000002 -4.000001
v -1.000000 0.000002 -4.000001
v 0.999999 0.000002 -4.000001
v -1.000000 1.000002 -2.000002
v 0.999999 1.000002 -2.000002
v -1.000000 0.000002 -2.000002
v 0.999999 0.000002 -2.000002
v -0.000001 1.000002 -4.000001
v -0.000001 0.000002 -4.000001
v -0.000001 0.000002 -2.000002
v -0.000001 1.000002 -2.000002
v -1.000000 1.000002 -3.000002
v -0.000001 1.000002 -3.000002
v 0.999999 1.000002 -3.000002
v 0.999999 0.000002 -3.000002
v -0.000001 0.000002 -3.000002
v -1.000000 0.000002 -3.000002
v 1.124999 0.875002 -3.000002
v 1.874999 0.875002 -3.000002
v 1.124999 0.125002 -3.000002
v 1.875000 0.125002 -3.000002
v 1.124999 0.875002 -2.875002
v 1.874999 0.875002 -2.875002
v 1.124999 0.125002 -2.875002
v 1.875000 0.125002 -2.875002
v 1.249999 0.750002 -2.875002
v 1.749999 0.750002 -2.875002
v 1.249999 0.250002 -2.875002
v 1.750000 0.250002 -2.875002
v 1.249999 0.750002 -2.750002
v 1.749999 0.750002 -2.750002
v 1.249999 0.250002 -2.750002
v 1.750000 0.250002 -2.750002
v 1.249999 0.750002 -2.250002
v 1.624999 0.750002 -2.250002
v 1.249999 0.250002 -2.250002
v 1.625000 0.250002 -2.250002
v 1.124999 0.750002 -2.250002
v 1.124999 0.750002 -2.750002
v 1.124999 0.250002 -2.250002
v 1.124999 0.250002 -2.750002
v 0.999999 0.875002 -2.125002
v 0.999999 0.875002 -2.875002
v 0.999999 0.125002 -2.125002
v 0.999999 0.125002 -2.875002
v 1.124999 0.875002 -2.125002
v 1.124999 0.125002 -2.125002
v 1.999999 1.000002 -4.000001
v 2.000000 0.000002 -4.000001
v 2.000000 1.000002 -3.000002
v 2.000000 0.000002 -3.000002
v -1.000001 4.000000 -4.000001
v 0.999999 4.000000 -4.000001
v -1.000001 3.500001 -4.000001
v 0.999999 3.500002 -4.000001
v -1.000001 4.000001 -2.000002
v 0.999999 4.000001 -2.000002
v -1.000000 3.500001 -2.000002
v 0.999999 3.500002 -2.000002
v -0.875001 4.000000 -3.875002
v -0.125001 4.000000 -3.875002
v -0.875001 4.000001 -3.125002
v -0.125001 4.000001 -3.125002
v -0.875001 4.125000 -3.875002
v -0.125001 4.125000 -3.875002
v -0.875001 4.125002 -3.125002
v -0.125001 4.125002 -3.125002
v -0.750001 5.125000 -3.750002
v -0.250001 5.125000 -3.750002
v -0.750001 5.125000 -3.250002
v -0.250001 5.125000 -3.250002
v -0.750001 5.250000 -3.750002
v -0.250001 5.250000 -3.750002
v -0.750001 5.250000 -3.250002
v -0.250001 5.250000 -3.250002
v -0.750001 4.125000 -3.750002
v -0.250001 4.125000 -3.750002
v -0.750001 4.125000 -3.250002
v -0.250001 4.125000 -3.250002
v -0.250001 0.750002 -1.250002
v -0.250000 0.250002 -1.750002
v -0.250001 0.250002 -1.250002
v -0.750000 0.750002 -1.750002
v -0.750000 0.750002 -1.375002
v -0.750000 0.250002 -1.750002
v -0.750000 0.250002 -1.375002
v -0.250001 0.750002 -1.750002
v -0.250001 0.750002 -1.875002
v -0.750000 0.750002 -1.875002
v -0.250001 0.250002 -1.875002
v -0.750000 0.250002 -1.875002
v 1.999999 5.125002 1.124998
v 1.999999 5.125002 1.874998
v 1.999999 5.875002 1.124997
v 1.999999 5.875002 1.874997
v 2.124999 5.125002 1.124998
v 2.124999 5.125002 1.874998
v 2.124999 5.875002 1.124997
v 2.124999 5.875002 1.874997
v 0.249999 0.750002 -1.125002
v 0.749999 0.750002 -1.125002
v 0.250000 0.250002 -1.125002
v 0.750000 0.250002 -1.125002
v 1.249999 5.750002 -1.250003
v 1.749999 5.750002 -1.250003
v 1.249999 5.250002 -1.250002
v 1.749999 5.250002 -1.250002
v 1.249999 5.750002 -1.125003
v 1.749999 5.750002 -1.125003
v 1.249999 5.250002 -1.125002
v 1.749999 5.250002 -1.125002
v -0.750001 5.750000 -3.250002
v -0.250001 5.750000 -3.250002
v -0.750001 5.750002 -3.125002
v -0.250001 5.750002 -3.125002
v -0.750001 5.250002 -3.125002
v -0.250001 5.250002 -3.125002
v -0.250001 5.750002 -1.750003
v -0.250001 5.750002 -1.250003
v -0.250001 5.250002 -1.750002
v -0.250001 5.250002 -1.250002
v -0.750001 5.750002 -1.750003
v -0.750001 5.750002 -1.375003
v -0.750001 5.250002 -1.750002
v -0.750001 5.250002 -1.375002
v 1.249999 5.750002 -1.750003
v 1.249999 5.250002 -1.750002
v 1.749999 5.750002 -1.625003
v 1.749999 5.250002 -1.625002
v -0.750001 5.750000 -3.625002
v -0.250001 5.750000 -3.625002
v 0.249999 5.750002 -1.250003
v 0.249999 5.750002 -1.750003
v 0.249999 5.250002 -1.250002
v 0.249999 5.250002 -1.750002
v -0.750001 5.750002 -2.125002
v -0.250001 5.750002 -2.125002
v -0.750001 5.250002 -2.125002
v -0.250001 5.250002 -2.125002
v 0.125000 0.125002 -1.000002
v 0.875000 0.125002 -1.000002
v 0.124999 0.875002 -1.000002
v 0.874999 0.875002 -1.000002
v 0.125000 0.125002 -1.125002
v 0.875000 0.125002 -1.125002
v 0.124999 0.875002 -1.125002
v 0.874999 0.875002 -1.125002
v -0.875000 0.125002 -2.000002
v -0.125001 0.125002 -2.000002
v -0.875000 0.875002 -2.000002
v -0.125001 0.875002 -2.000002
v -0.875000 0.125002 -1.875002
v -0.125001 0.125002 -1.875002
v -0.875000 0.875002 -1.875002
v -0.125001 0.875002 -1.875002
v 2.250000 0.750002 0.249998
v 2.750000 0.750002 0.249998
v 2.250000 0.250002 0.249998
v 2.750000 0.250002 0.249998
v 2.250000 0.750002 0.749998
v 2.625000 0.750002 0.749998
v 2.250000 0.250002 0.749998
v 2.625000 0.250002 0.749998
v 4.000000 0.875002 1.124998
v 4.000000 0.875002 1.874998
v 4.000000 0.125002 1.124998
v 4.000000 0.125002 1.874998
v 3.875000 0.875002 1.124998
v 3.875000 0.875002 1.874998
v 3.875000 0.125002 1.124998
v 3.875000 0.125002 1.874998
v 3.875000 0.750002 1.249998
v 3.875000 0.750002 1.749998
v 3.875000 0.250002 1.249998
v 3.875000 0.250002 1.749998
v 3.750000 0.750002 1.249998
v 3.750000 0.750002 1.749998
v 3.750000 0.250002 1.249998
v 3.750000 0.250002 1.749998
v 3.250000 0.750002 1.249998
v 3.250000 0.750002 1.624998
v 3.250000 0.250002 1.249998
v 3.250000 0.250002 1.624998
v 3.250000 0.750002 1.124998
v 3.750000 0.750002 1.124998
v 3.250000 0.250002 1.124998
v 3.750000 0.250002 1.124998
v 3.125000 0.875002 0.999998
v 3.875000 0.875002 0.999998
v 3.125000 0.125002 0.999998
v 3.875000 0.125002 0.999998
v 3.125000 0.875002 1.124998
v 3.125000 0.125002 1.124998
v 5.000000 1.000002 0.999998
v 5.000000 1.000002 1.999998
v 5.000000 0.000002 0.999998
v 5.000000 0.000002 1.999998
v 4.000000 1.000002 0.999998
v 4.000000 1.000002 1.999998
v 4.000000 0.000002 0.999998
v 4.000000 0.000002 1.999998
v 5.000000 1.000002 -1.000002
v 5.000000 0.000002 -1.000002
v 3.000000 1.000002 -1.000002
v 3.000000 1.000002 0.999998
v 3.000000 0.000002 -1.000002
v 3.000000 0.000002 0.999998
v 5.000000 1.000002 -0.000002
v 5.000000 0.000002 -0.000002
v 3.000000 0.000002 -0.000002
v 3.000000 1.000002 -0.000002
v 4.000000 1.000002 -1.000002
v 4.000000 1.000002 -0.000002
v 4.000000 0.000002 -0.000002
v 4.000000 0.000002 -1.000002
v 5.000000 4.000002 -1.000002
v 5.000000 4.000002 0.999998
v 5.000000 3.500002 -1.000002
v 5.000000 3.500002 0.999998
v 2.999999 4.000001 -1.000002
v 3.000000 4.000001 0.999998
v 2.999999 3.500002 -1.000002
v 3.000000 3.500002 0.999998
v 4.874999 4.000002 -0.875002
v 4.874999 4.000002 -0.125002
v 4.125000 4.000001 -0.875002
v 4.125000 4.000001 -0.125002
v 4.874999 4.125002 -0.875002
v 4.874999 4.125002 -0.125002
v 4.125000 4.125002 -0.875002
v 4.125000 4.125002 -0.125002
v 4.749999 5.125002 -0.750002
v 4.749999 5.125002 -0.250002
v 4.249999 5.125002 -0.750002
v 4.249999 5.125002 -0.250002
v 4.749999 5.250002 -0.750002
v 4.749999 5.250002 -0.250002
v 4.249999 5.250002 -0.750002
v 4.249999 5.250002 -0.250002
v 4.749999 4.125002 -0.750002
v 4.749999 4.125002 -0.250002
v 4.250000 4.125002 -0.750002
v 4.250000 4.125002 -0.250002
v 2.750000 0.750002 -0.250002
v 2.250000 0.750002 -0.250002
v 2.750000 0.250002 -0.250002
v 2.250000 0.250002 -0.250002
v 2.750000 0.750002 -0.750002
v 2.375000 0.750002 -0.750002
v 2.750000 0.250002 -0.750002
v 2.375000 0.250002 -0.750002
v 2.875000 0.750002 -0.250002
v 2.875000 0.750002 -0.750002
v 2.875000 0.250002 -0.250002
v 2.875000 0.250002 -0.750002
v 1.124999 5.125002 -1.000002
v 1.874999 5.125002 -1.000002
v 1.124999 5.875002 -1.000003
v 1.874999 5.875002 -1.000003
v 1.124999 5.125002 -1.125002
v 1.874999 5.125002 -1.125002
v 1.124999 5.875002 -1.125003
v 1.874999 5.875002 -1.125003
v 2.125000 0.750002 0.249998
v 2.125000 0.750002 0.749998
v 2.125000 0.250002 0.249998
v 2.125000 0.250002 0.749998
v 2.249999 5.750002 1.249997
v 2.249999 5.750002 1.749997
v 2.249999 5.250002 1.249998
v 2.249999 5.250002 1.749998
v 2.124999 5.750002 1.249997
v 2.124999 5.750002 1.749997
v 2.124999 5.250002 1.249998
v 2.124999 5.250002 1.749998
v 4.249999 5.750002 -0.750002
v 4.249999 5.750002 -0.250002
v 4.124999 5.750002 -0.750002
v 4.124999 5.750002 -0.250002
v 4.124999 5.250002 -0.750002
v 4.124999 5.250002 -0.250002
v 2.749999 5.750002 -0.250002
v 2.249999 5.750002 -0.250002
v 2.749999 5.250002 -0.250002
v 2.249999 5.250002 -0.250002
v 2.749999 5.750002 -0.750002
v 2.374999 5.750002 -0.750002
v 2.749999 5.250002 -0.750002
v 2.374999 5.250002 -0.750002
v 2.749999 5.750002 1.249997
v 2.749999 5.250002 1.249998
v 2.624999 5.750002 1.749997
v 2.624999 5.250002 1.749998
v 4.624999 5.750002 -0.750002
v 4.624999 5.750002 -0.250002
v 2.249999 5.750002 0.249998
v 2.749999 5.750002 0.249998
v 2.249999 5.250002 0.249998
v 2.749999 5.250002 0.249998
v 3.124999 5.750002 -0.750002
v 3.124999 5.750002 -0.250002
v 3.124999 5.250002 -0.750002
v 3.124999 5.250002 -0.250002
v 2.000000 0.125002 0.124998
v 2.000000 0.125002 0.874998
v 2.000000 0.875002 0.124998
v 2.000000 0.875002 0.874998
v 2.125000 0.125002 0.124998
v 2.125000 0.125002 0.874998
v 2.125000 0.875002 0.124998
v 2.125000 0.875002 0.874998
v 3.000000 0.125002 -0.875002
v 3.000000 0.125002 -0.125002
v 3.000000 0.875002 -0.875002
v 3.000000 0.875002 -0.125002
v 2.875000 0.125002 -0.875002
v 2.875000 0.125002 -0.125002
v 2.875000 0.875002 -0.875002
v 2.875000 0.875002 -0.125002
v 2.000000 1.000002 4.999999
v 0.000000 1.000002 4.999999
v 2.000000 0.000002 4.999999
v 0.000000 0.000002 4.999999
v 2.000000 1.000002 2.999998
v 0.000000 1.000002 2.999998
v 2.000000 0.000002 2.999998
v 0.000000 0.000002 2.999998
v 1.000000 1.000002 4.999999
v 1.000000 0.000002 4.999999
v 1.000000 0.000002 2.999998
v 1.000000 1.000002 2.999998
v 2.000000 1.000002 3.999998
v 1.000000 1.000002 3.999998
v 0.000000 1.000002 3.999998
v 0.000000 0.000002 3.999998
v 1.000000 0.000002 3.999998
v 2.000000 0.000002 3.999998
v 1.875000 0.875002 2.999998
v 1.125000 0.875002 2.999998
v 1.875000 0.125002 2.999998
v 1.125000 0.125002 2.999998
v 1.875000 0.875002 2.874998
v 1.125000 0.875002 2.874998
v 1.875000 0.125002 2.874998
v 1.125000 0.125002 2.874998
v 1.750000 0.750002 2.874998
v 1.250000 0.750002 2.874998
v 1.750000 0.250002 2.874998
v 1.250000 0.250002 2.874998
v 1.750000 0.750002 2.062498
v 1.250000 0.750002 2.062498
v 1.750000 0.250002 2.062498
v 1.250000 0.250002 2.062498
v 1.875000 0.875002 1.999998
v 1.125000 0.875002 1.999998
v 1.875000 0.125002 1.999998
v 1.125000 0.125002 1.999998
v 1.875000 0.875002 2.124998
v 1.125000 0.875002 2.124998
v 1.875000 0.125002 2.124998
v 1.125000 0.125002 2.124998
v 0.875000 0.875002 1.999998
v 0.125000 0.875002 1.999998
v 0.875000 0.125002 1.999998
v 0.125000 0.125002 1.999998
v 0.875000 0.875002 2.124998
v 0.125000 0.875002 2.124998
v 0.875000 0.125002 2.124998
v 0.125000 0.125002 2.124998
v 0.875000 0.875002 2.999998
v 0.125000 0.875002 2.999998
v 0.875000 0.125002 2.999998
v 0.125000 0.125002 2.999998
v 0.875000 0.875002 2.874998
v 0.125000 0.875002 2.874998
v 0.875000 0.125002 2.874998
v 0.125000 0.125002 2.874998
v 0.750000 0.750002 2.874998
v 0.250000 0.750002 2.874998
v 0.750000 0.250002 2.874998
v 0.250000 0.250002 2.874998
v 0.750000 0.750002 2.062498
v 0.250000 0.750002 2.062498
v 0.750000 0.250002 2.062498
v 0.250000 0.250002 2.062498
v -0.250000 0.750002 3.874998
v -0.750000 0.750002 3.874998
v -0.250000 0.250002 3.874998
v -0.750000 0.250002 3.874998
v -0.250000 0.750002 3.749998
v -0.750000 0.750002 3.749998
v -0.250000 0.250002 3.749998
v -0.750000 0.250002 3.749998
v 0.000000 0.875002 3.124998
v 0.000000 0.875002 3.874998
v 0.000000 0.125002 3.124998
v 0.000000 0.125002 3.874998
v -0.125000 0.875002 3.124998
v -0.125000 0.875002 3.874998
v -0.125000 0.125002 3.124998
v -0.125000 0.125002 3.874998
v -0.125000 0.750002 3.249998
v -0.125000 0.750002 3.749998
v -0.125000 0.250002 3.249998
v -0.125000 0.250002 3.749998
v -0.250000 0.750002 3.249998
v -0.250000 0.250002 3.249998
v -0.625000 0.750002 3.249998
v -0.625000 0.250002 3.249998
v -0.125000 0.875002 3.999998
v -0.875000 0.875002 3.999998
v -0.125000 0.125002 3.999998
v -0.875000 0.125002 3.999998
v -0.875000 0.875002 3.874998
v -0.875000 0.125002 3.874998
v -1.000000 1.000002 4.999999
v -1.000000 0.000002 4.999999
v -1.000000 1.000002 3.999998
v -1.000000 0.000002 3.999998
v 1.875000 1.000002 4.874999
v 0.125000 1.000002 4.874999
v 1.875000 3.500002 3.124998
v 0.124999 3.500002 3.124998
v 1.875000 1.000002 3.124998
v 0.125000 1.000002 3.124998
v 1.687546 3.500002 4.687619
v 0.312536 3.500002 4.687270
v 1.687547 1.000002 4.687619
v 0.312536 1.000002 4.687270
v 1.687487 3.500481 3.312562
v 0.312324 3.500002 3.312198
v 1.687487 1.000481 3.312562
v 0.312324 1.000002 3.312198
v 2.000000 4.000001 4.999999
v -0.000001 4.000001 4.999999
v 2.000000 3.500002 4.999999
v 0.000000 3.500002 4.999999
v 2.000000 4.000001 2.999998
v -0.000001 4.000001 2.999998
v 2.000000 3.500002 2.999998
v -0.000001 3.500002 2.999998
v -1.000001 5.125002 -0.125002
v -1.000001 5.125002 -0.875002
v -1.000001 5.875002 -0.125002
v -1.000001 5.875002 -0.875002
v -1.125001 5.125002 -0.125002
v -1.125001 5.125002 -0.875002
v -1.125001 5.875002 -0.125002
v -1.125001 5.875002 -0.875002
v 0.749999 5.250002 3.249998
v 0.749999 5.250002 3.749998
v 0.249999 5.250002 3.249998
v 0.249999 5.250002 3.749998
v 0.749999 5.750002 3.249998
v 0.749999 5.750002 3.624998
v 0.249999 5.750002 3.249998
v 0.249999 5.750002 3.624998
v 0.749999 5.750002 3.124998
v 0.249999 5.750002 3.124998
v 0.749999 5.250002 3.124998
v 0.249999 5.250002 3.124998
v 0.749999 5.125002 3.749998
v 0.249999 5.125002 3.749998
v 0.749999 5.125002 3.249998
v 0.249999 5.125002 3.249998
v 0.749999 5.750002 2.124998
v 0.249999 5.750002 2.124998
v 0.749999 5.250002 2.124998
v 0.249999 5.250002 2.124998
v 0.749999 4.125002 3.749998
v 0.249999 4.125002 3.749998
v 0.749999 4.125002 3.249998
v 0.249999 4.125002 3.249998
v 0.874999 5.125002 1.999998
v 0.124999 5.125002 1.999998
v 0.874999 5.875002 1.999997
v 0.124999 5.875002 1.999997
v 0.874999 5.125002 2.124998
v 0.124999 5.125002 2.124998
v 0.874999 5.875002 2.124998
v 0.124999 5.875002 2.124998
v 0.874999 4.000001 3.874998
v 0.124999 4.000001 3.874998
v 0.874999 4.000001 3.124998
v 0.124999 4.000001 3.124998
v 0.874999 4.125002 3.874998
v 0.124999 4.125002 3.874998
v 0.874999 4.125002 3.124998
v 0.124999 4.125002 3.124998
v 2.000000 1.000002 1.999998
v -1.000000 1.000002 1.999998
v 2.000000 0.000002 1.999998
v -1.000000 0.000002 1.999998
v 2.000000 1.000002 -1.000002
v -1.000000 1.000002 -1.000002
v 2.000000 0.000002 -1.000002
v -1.000000 0.000002 -1.000002
v -1.000000 2.000001 1.999998
v -2.000000 0.000001 1.999998
v -1.000000 0.000002 2.374998
v -1.000000 2.000001 2.374998
v 0.000000 2.000001 2.999998
v -1.000000 2.000001 2.999998
v -1.000000 0.000002 2.999998
v -0.000001 2.000001 1.999998
v 0.000000 0.000002 1.999998
v -1.000000 1.000002 2.999998
v 0.000000 1.000002 1.999998
v 1.999999 6.000002 1.999997
v -1.000001 6.000002 1.999997
v 1.999999 5.000002 1.999998
v -1.000000 5.000002 1.999998
v 1.999999 6.000002 -1.000003
v -1.000001 6.000002 -1.000003
v 1.999999 5.000002 -1.000002
v -1.000001 5.000002 -1.000002
v -1.000000 0.125002 0.874998
v -1.000000 0.125002 0.124998
v -1.000000 0.875001 0.874998
v -1.000000 0.875001 0.124998
v -1.125000 0.125001 0.874998
v -1.125000 0.125001 0.124998
v -1.125000 0.875001 0.874998
v -1.125000 0.875001 0.124998
v -3.000000 0.875001 -0.125001
v -3.000000 0.875001 -0.875001
v -3.000000 0.125001 -0.125001
v -3.000000 0.125001 -0.875001
v -2.875000 0.875001 -0.125001
v -2.875000 0.875001 -0.875001
v -2.875000 0.125001 -0.125001
v -2.875000 0.125001 -0.875001
v -2.875000 0.750001 -0.250001
v -2.875000 0.750001 -0.750001
v -2.875000 0.250001 -0.250001
v -2.875000 0.250001 -0.750001
v -2.750000 0.750001 -0.250001
v -2.750000 0.750001 -0.750001
v -2.750000 0.250001 -0.250001
v -2.750000 0.250001 -0.750001
v -2.250000 0.750001 -0.250001
v -2.250000 0.750001 -0.625002
v -2.250000 0.250001 -0.250001
v -2.250000 0.250001 -0.625002
v -2.250000 0.750001 -0.125001
v -2.750000 0.750001 -0.125001
v -2.250000 0.250001 -0.125001
v -2.750000 0.250001 -0.125001
v -2.125000 0.875001 -0.000002
v -2.875000 0.875001 -0.000001
v -2.125000 0.125001 -0.000002
v -2.875000 0.125001 -0.000001
v -2.125000 0.875001 -0.125002
v -2.125000 0.125001 -0.125002
v -4.000001 1.000001 -0.000001
v -4.000001 1.000001 -1.000001
v -4.000001 0.000001 -0.000001
v -4.000001 0.000001 -1.000001
v -3.000000 1.000001 -0.000001
v -3.000000 1.000001 -1.000002
v -3.000000 0.000001 -0.000001
v -3.000000 0.000001 -1.000002
v -4.000001 1.000001 1.999999
v -4.000001 0.000001 1.999999
v -2.000000 1.000001 1.999998
v -2.000000 1.000001 -0.000002
v -2.000000 0.000001 -0.000002
v -4.000001 1.000001 0.999999
v -4.000001 0.000001 0.999999
v -2.000000 0.000001 0.999998
v -2.000000 1.000001 0.999998
v -3.000000 1.000001 1.999998
v -3.000000 1.000001 0.999999
v -3.000000 0.000001 0.999999
v -3.000000 0.000001 1.999998
v -4.000001 4.000001 1.999999
v -4.000001 4.000001 -0.000001
v -4.000001 3.500001 1.999999
v -4.000001 3.500001 -0.000001
v -2.000000 4.000001 1.999998
v -2.000000 4.000001 -0.000002
v -2.000000 3.500001 1.999998
v -2.000000 3.500001 -0.000002
v -1.250000 0.750001 1.249998
v -1.750000 0.750001 1.249998
v -1.250000 0.250001 1.249998
v -1.750000 0.250001 1.249998
v -1.250000 0.750001 0.749998
v -1.750000 0.750001 0.749998
v -1.250000 0.250001 0.749998
v -1.750000 0.250001 0.749998
v -1.750000 0.750001 1.749998
v -1.750000 0.250001 1.749998
v -1.875000 0.750001 1.249998
v -1.875000 0.750001 1.749998
v -1.875000 0.250001 1.249998
v -1.875000 0.250001 1.749998
v -1.375000 0.750001 1.749998
v -1.375000 0.250001 1.749998
v -1.250000 0.750001 0.249998
v -1.250000 0.250001 0.249998
v -1.125000 0.750001 0.749998
v -1.125000 0.750001 0.249998
v -1.125000 0.250002 0.749998
v -1.125000 0.250002 0.249998
v -1.625000 0.750001 0.249998
v -1.625000 0.250001 0.249998
v 1.874999 5.000002 1.874998
v -0.875000 5.000002 1.874998
v 1.875000 1.000002 1.874998
v -0.875000 1.000002 1.874998
v 1.874999 5.000002 -0.875002
v -0.875001 5.000002 -0.875002
v 1.875000 1.000002 -0.875002
v -0.875000 1.000002 -0.875002
v -2.000000 0.125001 1.874998
v -2.000000 0.125001 1.124998
v -2.000000 0.875001 1.874998
v -2.000000 0.875001 1.124998
v -1.875000 0.125001 1.874998
v -1.875000 0.125001 1.124998
v -1.875000 0.875001 1.874998
v -1.875000 0.875001 1.124998
v -1.750001 5.750002 1.249997
v -1.250001 5.750002 1.249997
v -1.750000 5.250002 1.249998
v -1.250000 5.250002 1.249998
v -1.750000 5.750002 1.749997
v -1.375000 5.750002 1.749997
v -1.750000 5.250002 1.749998
v -1.375000 5.250002 1.749998
v -1.250001 5.750002 0.749998
v -1.750001 5.750002 0.749998
v -1.250001 5.250002 0.749998
v -1.750001 5.250002 0.749998
v -2.125000 5.750002 1.749997
v -2.125001 5.750002 1.249997
v -2.125000 5.250002 1.749998
v -2.125000 5.250002 1.249998
v -1.250001 5.750002 -0.250002
v -1.750001 5.750002 -0.250002
v -1.250001 5.250002 -0.250002
v -1.750001 5.250002 -0.250002
v -1.250001 5.750002 -0.750002
v -1.250001 5.250002 -0.750002
v -1.125001 5.750002 -0.250002
v -1.125001 5.750002 -0.750002
v -1.125001 5.250002 -0.250002
v -1.125001 5.250002 -0.750002
v -1.625001 5.750002 -0.750002
v -1.625001 5.250002 -0.750002
v -3.875001 4.000001 1.874999
v -3.875001 4.000001 1.124999
v -3.125000 4.000001 1.874999
v -3.125001 4.000001 1.124999
v -3.875001 4.125001 1.874999
v -3.875001 4.125001 1.124999
v -3.125000 4.125001 1.874999
v -3.125001 4.125001 1.124999
v -3.750001 5.125001 1.749999
v -3.750001 5.125001 1.249999
v -3.250001 5.125001 1.749999
v -3.250001 5.125001 1.249999
v -3.750001 5.250001 1.749999
v -3.750001 5.250001 1.249999
v -3.250001 5.250001 1.749999
v -3.250001 5.250001 1.249999
v -3.750001 4.125001 1.749999
v -3.750001 4.125001 1.249999
v -3.250000 4.125001 1.749999
v -3.250001 4.125001 1.249999
v -3.250001 5.750001 1.749999
v -3.250001 5.750001 1.249999
v -3.125001 5.750001 1.749999
v -3.125001 5.750001 1.249999
v -3.125001 5.250001 1.749999
v -3.125001 5.250001 1.249999
v -3.625001 5.750001 1.749999
v -3.625001 5.750001 1.249999
v -2.125000 3.500002 1.874998
v -3.875001 3.500001 1.874999
v -2.125000 1.000002 1.874998
v -3.875001 1.000002 1.874999
v -2.125000 3.500002 0.124998
v -3.875001 3.500001 0.124999
v -2.125000 1.000002 0.124998
v -3.875001 1.000002 0.124999
v -2.310266 3.500002 1.686765
v -3.687894 3.500002 1.687980
v -2.312035 1.000002 1.686765
v -3.687894 1.000002 1.687980
v -2.310266 3.500002 0.312096
v -3.687411 3.500002 0.311778
v -2.312035 1.000002 0.312096
v -3.687410 1.000002 0.311778
v 4.874999 3.500002 0.874998
v 3.125000 3.500002 0.874998
v 4.875000 1.000002 0.874998
v 3.125000 1.000002 0.874998
v 4.874999 3.500002 -0.875002
v 3.125000 3.500002 -0.875002
v 4.875000 1.000002 -0.875002
v 3.125000 1.000002 -0.875002
v 4.687936 3.500002 0.688698
v 3.311128 3.500002 0.688289
v 4.687936 1.000002 0.688698
v 3.311128 1.000002 0.688289
v 4.687212 3.500002 -0.687803
v 3.312011 3.500002 -0.686605
v 4.687212 1.000002 -0.687803
v 3.312011 1.000002 -0.686605
v 1.062497 3.000001 4.874999
v 0.937498 3.000001 4.874999
v 1.062497 1.375003 4.874999
v 0.937498 1.375003 4.874999
v 0.937498 3.000000 3.124998
v 1.062497 3.000000 3.124998
v 1.062497 1.375003 3.124998
v 0.937498 1.375003 3.124998
v 1.062497 1.375003 4.687460
v 0.937498 1.375003 4.687429
v 1.062497 3.000000 4.687460
v 0.937498 3.000000 4.687429
v 1.062497 1.375003 3.312397
v 0.937498 1.375003 3.312363
v 0.937498 3.000000 3.312363
v 1.062497 3.000000 3.312396
v -2.937503 3.000002 1.874998
v -3.062502 3.000002 1.874998
v -2.937503 1.375004 1.874998
v -3.062502 1.375004 1.874998
v -3.062502 3.000001 0.124998
v -2.937503 3.000001 0.124998
v -2.937503 1.375004 0.124998
v -3.062502 1.375004 0.124998
v -2.937503 1.375004 1.687317
v -3.062502 1.375004 1.687428
v -2.937503 3.000002 1.687318
v -3.062502 3.000002 1.687428
v -2.937503 1.375004 0.311951
v -3.062502 1.375004 0.311922
v -3.062502 3.000001 0.311922
v -2.937503 3.000001 0.311951
v 0.062501 3.000002 -2.125002
v -0.062498 3.000002 -2.125002
v 0.062501 1.375005 -2.125002
v -0.062498 1.375005 -2.125002
v -0.062498 3.000002 -3.875002
v 0.062501 3.000002 -3.875002
v 0.062501 1.375005 -3.875002
v -0.062498 1.375005 -3.875002
v 0.062501 1.375005 -2.312418
v -0.062498 1.375005 -2.312408
v 0.062501 3.000002 -2.312418
v -0.062498 3.000002 -2.312408
v 0.062501 1.375005 -3.687217
v -0.062498 1.375005 -3.687211
v -0.062498 3.000002 -3.687211
v 0.062501 3.000002 -3.687217
v 4.062501 3.000002 0.874998
v 3.937503 3.000002 0.874998
v 4.062501 1.375005 0.874998
v 3.937503 1.375005 0.874998
v 3.937503 3.000002 -0.875002
v 4.062501 3.000002 -0.875002
v 4.062501 1.375005 -0.875002
v 3.937503 1.375005 -0.875002
v 4.062501 1.375005 0.688512
v 3.937503 1.375005 0.688475
v 4.062501 3.000002 0.688512
v 3.937503 3.000002 0.688475
v 4.062501 1.375005 -0.687259
v 3.937503 1.375005 -0.687150
v 3.937503 3.000002 -0.687150
v 4.062501 3.000002 -0.687259
v 1.875000 3.000003 3.937501
v 1.875000 3.000003 4.062500
v 1.875000 1.375006 3.937501
v 1.875000 1.375006 4.062500
v 0.125000 3.000003 3.937501
v 0.125000 3.000003 4.062500
v 0.125000 1.375006 3.937501
v 0.125000 1.375006 4.062500
v 1.687514 1.375006 3.937501
v 1.687520 1.375006 4.062500
v 1.687514 3.000003 3.937501
v 1.687519 3.000003 4.062500
v 0.312420 1.375006 3.937501
v 0.312440 1.375006 4.062500
v 0.312420 3.000003 3.937501
v 0.312440 3.000003 4.062500
v 4.874999 3.000002 -0.062500
v 4.874999 3.000002 0.062499
v 4.875000 1.375005 -0.062500
v 4.875000 1.375005 0.062499
v 3.125000 3.000002 -0.062500
v 3.125000 3.000002 0.062499
v 3.125000 1.375005 -0.062500
v 3.125000 1.375005 0.062499
v 4.687541 1.375005 -0.062500
v 4.687607 1.375005 0.062499
v 4.687541 3.000002 -0.062500
v 4.687607 3.000002 0.062499
v 3.311610 1.375005 -0.062500
v 3.311530 1.375005 0.062499
v 3.311610 3.000002 -0.062500
v 3.311530 3.000002 0.062499
v 0.874999 3.000002 -3.062500
v 0.874999 3.000002 -2.937501
v 0.874999 1.375005 -3.062500
v 0.874999 1.375005 -2.937501
v -0.875001 3.000002 -3.062500
v -0.875001 3.000002 -2.937501
v -0.875000 1.375005 -3.062500
v -0.875000 1.375005 -2.937501
v 0.687494 1.375005 -3.062500
v 0.687550 1.375005 -2.937501
v 0.687494 3.000002 -3.062500
v 0.687550 3.000002 -2.937501
v -0.687804 1.375005 -3.062500
v -0.687703 1.375005 -2.937501
v -0.687804 3.000002 -3.062500
v -0.687703 3.000002 -2.937501
v -2.125000 3.000001 0.937497
v -2.125000 3.000001 1.062496
v -2.125000 1.375004 0.937498
v -2.125000 1.375004 1.062496
v -3.875001 3.000001 0.937497
v -3.875001 3.000001 1.062496
v -3.875001 1.375004 0.937498
v -3.875001 1.375004 1.062496
v -2.311770 1.375004 0.937498
v -2.311770 1.375004 1.062496
v -2.310620 3.000001 0.937497
v -2.310620 3.000001 1.062496
v -3.687630 1.375004 0.937498
v -3.687674 1.375004 1.062496
v -3.687630 3.000001 0.937497
v -3.687674 3.000001 1.062496
v 0.125000 3.500002 4.874999
v 1.875000 3.500002 4.874999
v 1.687487 3.500481 3.312562
v 1.687487 3.500481 3.312562
v 0.999905 3.500242 3.312380
v 1.687517 3.500242 4.000090
v 1.000041 3.500002 4.687444
v 0.312430 3.500002 3.999734
v 0.312536 1.000002 4.687270
v -0.999999 2.000001 2.999998
v -0.999999 0.000002 2.999998
v -2.000000 1.000002 1.999998
v -2.000000 0.000002 1.999998
v -2.000000 0.000002 2.999998
v -2.000000 1.000002 2.999998
v -1.250000 1.750002 2.249998
v -1.250000 1.750002 2.749998
v -1.750000 1.750002 2.249998
v -1.750000 1.750002 2.749998
v -1.000000 1.750002 1.999998
v -1.000000 1.750002 2.999998
v -2.000000 1.750002 1.999998
v -2.000000 1.750002 2.999998
v -1.250000 2.000001 2.249998
v -1.250000 2.000001 2.749998
v -1.750000 2.000001 2.249998
v -1.750000 2.000001 2.749998
vn -0.0000 -0.0000 1.0000
vn -0.0000 -0.0000 -1.0000
vn 1.0000 -0.0000 -0.0000
vn -1.0000 -0.0000 -0.0000
vn -0.0001 -0.0000 -1.0000
vn 0.0001 -0.0000 1.0000
vn -1.0000 -0.0000 0.0004
vn 1.0000 -0.0000 -0.0008
vn -0.0000 -1.0000 -0.0000
vn -0.0000 1.0000 -0.0000
vn -0.2425 -0.0000 0.9701
vn 0.2425 -0.0000 -0.9701
vn -0.0000 0.2425 -0.9701
vn 0.9701 -0.0000 0.2425
vn -0.9701 -0.0000 -0.2425
vn 0.9701 0.2425 -0.0000
vn -0.0002 -0.0000 1.0000
vn 1.0000 -0.0000 -0.0002
vn 0.0003 -1.0000 0.0029
vn -0.0003 1.0000 -0.0029
vn 0.0003 -1.0000 -0.0003
vn 0.0029 1.0000 0.0003
vn -0.0000 0.2425 0.9701
vn -0.9701 0.2425 -0.0000
vn -0.0009 -0.0000 -1.0000
vn -1.0000 0.0007 -0.0000
vn 1.0000 -0.0000 0.0004
vn 0.0003 -0.0000 -1.0000
vn 0.0009 -0.0000 1.0000
vn -1.0000 -0.0000 0.0005
vn 1.0000 -0.0000 0.0006
vn -0.0003 -0.0000 1.0000
vn -0.0003 1.0000 0.0003
vn -0.0000 1.0000 -0.0013
vn -0.0026 -1.0000 -0.0000
vn 0.0013 1.0000 -0.0000
vn -0.0000 -0.0000 -0.0000
vn -1.0000 -0.0000 -0.0012
vn -1.0000 -0.0012 -0.0000
vt 0.171875 0.583333
vt 0.250000 0.645833
vt 0.239583 0.645833
vt 0.250000 0.916667
vt 0.317708 1.000000
vt 0.171875 1.000000
vt 0.239583 0.916667
vt 0.317708 0.583333
vt 0.177083 0.593750
vt 0.177083 0.989583
vt 0.312500 0.989583
vt 0.088542 0.000000
vt 0.088542 0.083333
vt 0.130208 0.062500
vt 0.130208 0.000000
vt 0.255208 0.406250
vt 0.255208 0.572917
vt 0.171875 0.572917
vt 0.171875 0.406250
vt 0.083333 1.000000
vt 0.083333 0.833333
vt 0.166667 0.833333
vt 0.166667 1.000000
vt 0.083333 0.437500
vt 0.083333 0.270833
vt 0.166667 0.270833
vt 0.166667 0.437500
vt 0.083333 0.604167
vt 0.166667 0.604167
vt 0.338542 0.406250
vt 0.338542 0.572917
vt 0.000000 1.000000
vt 0.000000 0.833333
vt 0.000000 0.437500
vt 0.000000 0.270833
vt 0.000000 0.604167
vt 0.072917 0.125000
vt 0.083333 0.125000
vt 0.083333 0.000000
vt 0.072917 0.000000
vt 0.916667 0.833333
vt 1.000000 0.833333
vt 1.000000 1.000000
vt 0.916667 1.000000
vt 0.083333 0.114583
vt 0.083333 0.135417
vt 0.041667 0.135417
vt 0.041667 0.114583
vt 0.000000 0.041667
vt 0.041667 0.041667
vt 0.041667 0.125000
vt 0.000000 0.125000
vt 0.333333 0.385417
vt 0.250000 0.385417
vt 0.250000 0.218750
vt 0.333333 0.218750
vt 0.239583 0.145833
vt 0.177083 0.145833
vt 0.177083 0.020833
vt 0.239583 0.020833
vt 1.000000 0.479167
vt 0.916667 0.479167
vt 0.916667 0.312500
vt 1.000000 0.312500
vt 0.166667 0.250000
vt 0.000000 0.250000
vt 0.000000 0.166667
vt 0.166667 0.166667
vt 0.041667 0.000000
vt 0.041667 0.166667
vt 0.000000 0.000000
vt 0.083333 0.041667
vt 0.083333 0.104167
vt 0.041667 0.104167
vt 0.083454 0.028926
vt 0.083454 0.114824
vt 0.041787 0.114824
vt 0.041787 0.028926
vt 0.250000 0.229167
vt 0.250000 0.395833
vt 0.166667 0.395833
vt 0.166667 0.229167
vt 0.083333 0.812500
vt 0.083333 0.645833
vt 0.166667 0.645833
vt 0.166667 0.812500
vt 0.916667 0.656250
vt 0.916667 0.489583
vt 1.000000 0.489583
vt 1.000000 0.656250
vt 0.000000 0.812500
vt 0.000000 0.645833
vt 0.041667 0.020833
vt 0.041667 0.156250
vt 0.000000 0.156250
vt 0.000000 0.020833
vt 0.406250 1.000000
vt 0.322917 1.000000
vt 0.322917 0.833333
vt 0.406250 0.833333
vt 0.312500 0.593750
vt 0.244792 0.989583
vt 0.244791 0.989583
vt 0.661458 1.000000
vt 0.411458 1.000000
vt 0.411458 0.833333
vt 0.661458 0.833333
vt 0.666667 0.645833
vt 0.416667 0.645833
vt 0.416667 0.145833
vt 0.666667 0.145833
vt 0.916667 0.135417
vt 1.000000 0.135417
vt 1.000000 0.302083
vt 0.916667 0.302083
vt 0.411458 0.656250
vt 0.411458 0.822917
vt 0.661458 0.822917
vt 0.661458 0.656250
vt 0.916667 0.666667
vt 1.000000 0.666667
vt 0.333333 0.177083
vt 0.333333 0.000000
vt 0.416667 0.000000
vt 0.416667 0.177083
vt 0.666667 0.322917
vt 0.916667 0.322917
vt 0.916667 0.156250
vt 0.666667 0.156250
vt 0.906250 1.000000
vt 0.677083 1.000000
vt 0.677083 0.333333
vt 0.906250 0.333333
vt 0.406250 0.614583
vt 0.406250 0.645833
vt 0.395833 0.645833
vt 0.395833 0.614583
vt 0.395833 0.375000
vt 0.411458 0.375000
vt 0.411458 0.645833
vt 0.411458 0.625000
vt 0.395833 0.625000
vt 0.244791 1.000000
vt 0.244792 1.000000
vt 0.416667 0.291667
vt 0.333333 0.291667
vt 0.322917 0.729167
vt 0.322917 0.645833
vt 0.343750 0.645833
vt 0.343750 0.729167
vt 0.979167 0.614583
vt 0.979167 0.531250
vt 0.937500 0.531250
vt 0.937500 0.614583
vt 0.322917 0.822917
vt 0.322917 0.739583
vt 0.364583 0.739583
vt 0.364583 0.822917
s 0
usemtl reactor_mat
f 3/1/1 771/3/1 772/2/1
f 770/4/1 1/6/1 2/5/1
f 773/7/2 5/5/2 774/4/2
f 7/8/2 8/1/2 776/3/2
f 833/7/3 1/5/3 834/4/3
f 835/3/3 836/2/3 3/8/3
f 4/1/4 840/3/4 839/2/4
f 837/4/4 2/6/4 6/5/4
f 779/7/5 10/5/5 9/6/5
f 12/8/5 778/2/5 777/3/5
f 15/8/1 781/2/1 782/3/1
f 783/7/6 13/5/6 14/6/6
f 844/4/7 13/6/7 843/7/7
f 15/1/7 11/8/7 842/2/7
f 16/8/8 845/2/8 846/3/8
f 848/7/8 14/5/8 10/6/8
f 3/8/9 4/1/9 12/9/9
f 1/5/10 9/11/10 10/10/10
f 8/8/9 7/1/9 15/9/9
f 6/5/10 14/11/10 13/10/10
f 7/8/9 3/1/9 11/9/9
f 5/5/10 13/11/10 9/10/10
f 4/8/9 8/1/9 16/9/9
f 2/5/10 10/11/10 14/10/10
f 55/12/10 59/15/10 60/14/10 56/13/10
f 708/1/4 706/6/4 854/7/4 856/3/4
f 34/16/2 27/19/2 25/18/2 33/17/2
f 36/20/1 29/23/1 31/22/1 35/21/1
f 38/24/10 33/27/10 25/26/10 37/25/10
f 42/28/9 27/29/9 34/27/9 41/24/9
f 37/20/4 25/23/4 27/22/4 42/21/4
f 33/17/2 26/31/2 28/30/2 34/16/2
f 41/24/9 34/27/9 28/26/9 40/25/9
f 35/21/1 32/33/1 30/32/1 36/20/1
f 39/28/10 26/29/10 33/27/10 38/24/10
f 37/25/10 29/35/10 36/34/10 38/24/10
f 38/24/10 36/34/10 30/36/10 39/28/10
f 39/20/3 30/23/3 32/22/3 40/21/3
f 40/25/9 32/35/9 35/34/9 41/24/9
f 41/24/9 35/34/9 31/36/9 42/28/9
f 42/21/4 31/33/4 29/32/4 37/20/4
f 44/37/10 43/40/10 47/39/10 48/38/10
f 533/41/3 530/44/3 527/43/3 350/42/3
f 45/37/9 46/40/9 50/39/9 49/38/9
f 43/37/4 45/40/4 49/39/4 47/38/4
f 48/38/3 50/39/3 46/40/3 44/37/3
f 52/45/10 51/48/10 55/47/10 56/46/10
f 53/45/9 54/48/9 58/47/9 57/46/9
f 51/45/4 53/48/4 57/47/4 55/46/4
f 56/45/3 58/48/3 54/47/3 52/46/3
f 64/45/10 63/48/10 59/47/10 55/46/10
f 107/49/1 19/52/1 17/51/1 105/50/1
f 143/12/10 147/15/10 148/14/10 144/13/10
f 181/12/10 185/15/10 186/14/10 182/13/10
f 73/53/2 74/56/2 28/55/2 26/54/2
f 65/45/9 66/48/9 57/47/9 61/46/9
f 63/45/1 65/48/1 61/47/1 59/46/1
f 55/45/2 57/48/2 66/47/2 64/46/2
f 71/57/3 72/60/3 49/59/3 47/58/3
f 68/37/10 67/40/10 71/39/10 47/38/10
f 69/37/9 70/40/9 49/39/9 72/38/9
f 67/37/1 69/40/1 72/39/1 71/38/1
f 47/38/2 49/39/2 70/40/2 68/37/2
f 39/61/1 40/64/1 76/63/1 75/62/1
f 73/61/10 26/64/10 39/63/10 75/62/10
f 28/61/9 74/64/9 76/63/9 40/62/9
f 78/36/10 77/35/10 81/26/10 82/29/10
f 79/29/9 80/26/9 84/35/9 83/36/9
f 18/50/2 20/49/2 106/52/2 112/51/2
f 82/65/3 84/68/3 80/67/3 78/66/3
f 241/35/10 245/26/10 246/29/10 242/36/10
f 464/65/4 466/68/4 462/67/4 460/66/4
f 89/57/10 91/60/10 92/59/10 90/58/10
f 86/37/2 85/40/2 89/39/2 90/38/2
f 87/37/1 88/40/1 92/39/1 91/38/1
f 85/37/4 87/40/4 91/39/4 89/38/4
f 90/38/3 92/39/3 88/40/3 86/37/3
f 94/45/2 93/48/2 97/47/2 98/46/2
f 95/45/1 96/48/1 100/47/1 99/46/1
f 93/45/4 95/48/4 99/47/4 97/46/4
f 98/45/3 100/48/3 96/47/3 94/46/3
f 102/69/2 101/71/2 93/67/2 94/70/2
f 103/69/1 104/71/1 96/67/1 95/70/1
f 101/69/4 103/71/4 95/67/4 93/70/4
f 94/69/3 96/71/3 104/67/3 102/70/3
f 108/72/4 110/50/4 111/74/4 109/73/4
f 109/75/11 111/78/11 107/77/11 105/76/11
f 106/12/9 107/13/9 111/14/9 110/15/9
f 19/12/9 20/13/9 24/14/9 23/15/9
f 108/45/10 112/48/10 113/47/10 114/46/10
f 114/45/4 116/48/4 110/47/4 108/46/4
f 613/45/1 615/48/1 629/47/1 627/46/1
f 542/37/1 544/40/1 548/39/1 546/38/1
f 121/57/3 123/60/3 124/59/3 122/58/3
f 118/37/9 117/40/9 121/39/9 122/38/9
f 119/37/10 120/40/10 124/39/10 123/38/10
f 117/37/2 119/40/2 123/39/2 121/38/2
f 122/38/1 124/39/1 120/40/1 118/37/1
f 21/45/10 17/48/10 125/47/10 126/46/10
f 19/45/9 23/48/9 128/47/9 127/46/9
f 17/45/4 19/48/4 127/47/4 125/46/4
f 126/45/3 128/48/3 23/47/3 21/46/3
f 130/45/10 129/48/10 133/47/10 134/46/10
f 131/45/9 132/48/9 136/47/9 135/46/9
f 129/45/4 131/48/4 135/47/4 133/46/4
f 134/45/3 136/48/3 132/47/3 130/46/3
f 138/45/10 137/48/10 139/47/10 140/46/10
f 99/45/9 100/48/9 142/47/9 141/46/9
f 137/45/4 99/48/4 141/47/4 139/46/4
f 140/45/3 142/48/3 100/47/3 138/46/3
f 147/72/4 149/50/4 150/74/4 148/73/4
f 148/75/11 150/78/11 146/77/11 144/76/11
f 145/12/9 146/13/9 150/14/9 149/15/9
f 129/12/10 130/15/10 153/14/10 151/13/10
f 130/72/3 132/50/3 154/74/3 153/73/3
f 153/75/12 154/78/12 152/77/12 151/76/12
f 131/12/9 152/13/9 154/14/9 132/15/9
f 99/12/4 137/15/4 155/14/4 97/13/4
f 137/72/10 138/50/10 156/74/10 155/73/10
f 155/75/13 156/78/13 98/77/13 97/76/13
f 100/12/3 98/13/3 156/14/3 138/15/3
f 201/12/10 205/15/10 206/14/10 202/13/10
f 112/50/10 105/49/10 17/52/10 18/51/10
f 143/72/10 144/50/10 157/51/10 158/38/10
f 110/48/9 116/47/9 115/46/9 106/45/9
f 695/69/3 696/71/3 688/67/3 687/70/3
f 462/68/1 461/67/1 459/66/1 460/65/1
f 146/72/9 145/50/9 160/51/9 159/38/9
f 144/72/1 146/50/1 159/51/1 157/38/1
f 158/72/2 160/50/2 145/51/2 143/38/2
f 158/69/10 157/71/10 129/67/10 151/70/10
f 159/69/9 160/71/9 152/67/9 131/70/9
f 157/69/1 159/71/1 131/67/1 129/70/1
f 151/69/2 152/71/2 160/67/2 158/70/2
f 162/72/10 161/50/10 147/74/10 143/73/10
f 163/72/9 164/50/9 145/74/9 149/73/9
f 161/72/4 163/50/4 149/74/4 147/73/4
f 143/72/3 145/50/3 164/74/3 162/73/3
f 140/69/10 139/71/10 161/67/10 162/70/10
f 141/69/9 142/71/9 164/67/9 163/70/9
f 139/69/4 141/71/4 163/67/4 161/70/4
f 162/69/3 164/71/3 142/67/3 140/70/3
f 166/37/9 165/40/9 169/39/9 170/38/9
f 574/40/10 578/39/10 554/38/10 575/37/10
f 167/37/10 168/40/10 172/39/10 171/38/10
f 165/37/4 167/40/4 171/39/4 169/38/4
f 170/38/3 172/39/3 168/40/3 166/37/3
f 177/57/1 178/58/1 180/59/1 179/60/1
f 174/37/9 178/38/9 177/39/9 173/40/9
f 175/37/10 179/38/10 180/39/10 176/40/10
f 173/37/4 177/38/4 179/39/4 175/40/4
f 178/38/3 174/37/3 176/40/3 180/39/3
f 185/72/1 187/50/1 188/74/1 186/73/1
f 186/75/14 188/78/14 184/77/14 182/76/14
f 183/12/9 184/13/9 188/14/9 187/15/9
f 613/12/10 625/15/10 631/14/10 614/13/10
f 193/57/4 195/60/4 196/59/4 194/58/4
f 190/37/10 189/40/10 193/39/10 194/38/10
f 191/37/9 192/40/9 196/39/9 195/38/9
f 189/37/2 191/40/2 195/39/2 193/38/2
f 194/38/1 196/39/1 192/40/1 190/37/1
f 198/45/10 197/48/10 201/47/10 202/46/10
f 199/45/9 200/48/9 204/47/9 203/46/9
f 197/45/2 199/48/2 203/47/2 201/46/2
f 202/45/1 204/48/1 200/47/1 198/46/1
f 205/72/4 207/50/4 208/74/4 206/73/4
f 206/75/11 208/78/11 204/77/11 202/76/11
f 203/12/9 204/13/9 208/14/9 207/15/9
f 269/12/10 273/15/10 274/14/10 270/13/10
f 210/45/10 209/48/10 205/47/10 201/46/10
f 211/45/9 212/48/9 203/47/9 207/46/9
f 209/45/4 211/48/4 207/47/4 205/46/4
f 201/45/3 203/48/3 212/47/3 210/46/3
f 217/57/1 218/60/1 195/59/1 193/58/1
f 214/37/10 213/40/10 217/39/10 193/38/10
f 215/37/9 216/40/9 195/39/9 218/38/9
f 213/37/4 215/40/4 218/39/4 217/38/4
f 193/38/3 195/39/3 216/40/3 214/37/3
f 220/53/3 222/56/3 221/55/3 219/54/3
f 223/61/4 225/64/4 226/63/4 224/62/4
f 220/61/10 219/64/10 223/63/10 224/62/10
f 221/61/9 222/64/9 226/63/9 225/62/9
f 224/61/1 226/64/1 222/63/1 220/62/1
f 234/16/3 228/19/3 227/18/3 233/17/3
f 236/20/4 229/23/4 231/22/4 235/21/4
f 238/24/10 233/27/10 227/26/10 237/25/10
f 240/28/9 228/29/9 234/27/9 239/24/9
f 237/20/2 227/23/2 228/22/2 240/21/2
f 233/17/3 219/31/3 221/30/3 234/16/3
f 239/24/9 234/27/9 221/26/9 225/25/9
f 235/21/4 232/33/4 230/32/4 236/20/4
f 223/28/10 219/29/10 233/27/10 238/24/10
f 237/25/10 229/35/10 236/34/10 238/24/10
f 238/24/10 236/34/10 230/36/10 223/28/10
f 223/20/1 230/23/1 232/22/1 225/21/1
f 225/25/9 232/35/9 235/34/9 239/24/9
f 239/24/9 235/34/9 231/36/9 240/28/9
f 240/21/2 231/33/2 229/32/2 237/20/2
f 242/65/3 244/68/3 243/67/3 241/66/3
f 245/65/4 247/68/4 248/67/4 246/66/4
f 253/57/10 255/60/10 256/59/10 254/58/10
f 243/29/9 244/26/9 248/35/9 247/36/9
f 243/68/2 247/67/2 245/66/2 241/65/2
f 246/65/1 248/68/1 244/67/1 242/66/1
f 462/26/9 466/35/9 465/36/9 461/29/9
f 250/37/3 249/40/3 253/39/3 254/38/3
f 251/37/4 252/40/4 256/39/4 255/38/4
f 258/45/3 257/48/3 261/47/3 262/46/3
f 256/39/1 252/40/1 250/37/1 254/38/1
f 681/57/10 683/60/10 684/59/10 682/58/10
f 259/45/4 260/48/4 264/47/4 263/46/4
f 257/45/2 259/48/2 263/47/2 261/46/2
f 262/45/1 264/48/1 260/47/1 258/46/1
f 266/69/3 265/71/3 257/67/3 258/70/3
f 267/69/4 268/71/4 260/67/4 259/70/4
f 273/72/2 275/50/2 276/74/2 274/73/2
f 258/69/1 260/71/1 268/67/1 266/70/1
f 274/75/15 276/78/15 272/77/15 270/76/15
f 271/12/9 272/13/9 276/14/9 275/15/9
f 307/12/10 311/15/10 312/14/10 308/13/10
f 273/45/10 269/48/10 277/47/10 278/46/10
f 271/45/9 275/48/9 280/47/9 279/46/9
f 269/45/1 271/48/1 279/47/1 277/46/1
f 278/45/2 280/48/2 275/47/2 273/46/2
f 285/57/2 287/60/2 288/59/2 286/58/2
f 282/37/9 281/40/9 285/39/9 286/38/9
f 283/37/10 284/40/10 288/39/10 287/38/10
f 281/37/4 283/40/4 287/39/4 285/38/4
f 286/38/3 288/39/3 284/40/3 282/37/3
f 185/45/10 181/48/10 289/47/10 290/46/10
f 183/45/9 187/48/9 292/47/9 291/46/9
f 181/45/2 183/48/2 291/47/2 289/46/2
f 290/45/1 292/48/1 187/47/1 185/46/1
f 294/45/10 293/48/10 297/47/10 298/46/10
f 295/45/9 296/48/9 300/47/9 299/46/9
f 293/45/2 295/48/2 299/47/2 297/46/2
f 298/45/1 300/48/1 296/47/1 294/46/1
f 302/45/10 301/48/10 303/47/10 304/46/10
f 263/45/9 264/48/9 306/47/9 305/46/9
f 301/45/2 263/48/2 305/47/2 303/46/2
f 304/45/1 306/48/1 264/47/1 302/46/1
f 311/72/2 313/50/2 314/74/2 312/73/2
f 312/75/15 314/78/15 310/77/15 308/76/15
f 309/12/9 310/13/9 314/14/9 313/15/9
f 293/12/10 294/15/10 317/14/10 315/13/10
f 294/72/1 296/50/1 318/74/1 317/73/1
f 317/75/14 318/78/14 316/77/14 315/76/14
f 295/12/9 316/13/9 318/14/9 296/15/9
f 263/12/2 301/15/2 319/14/2 261/13/2
f 301/72/10 302/50/10 320/74/10 319/73/10
f 319/75/16 320/78/16 262/77/16 261/76/16
f 264/12/1 262/13/1 320/14/1 302/15/1
f 415/12/10 431/15/10 433/14/10 416/13/10
f 269/50/10 270/49/10 181/52/10 182/51/10
f 272/50/9 271/49/9 184/52/9 183/51/9
f 270/50/4 272/49/4 183/52/4 181/51/4
f 182/50/3 184/49/3 271/52/3 269/51/3
f 307/72/10 308/50/10 321/51/10 322/38/10
f 310/72/9 309/50/9 324/51/9 323/38/9
f 308/72/4 310/50/4 323/51/4 321/38/4
f 322/72/3 324/50/3 309/51/3 307/38/3
f 322/69/10 321/71/10 293/67/10 315/70/10
f 323/69/9 324/71/9 316/67/9 295/70/9
f 321/69/4 323/71/4 295/67/4 293/70/4
f 315/69/3 316/71/3 324/67/3 322/70/3
f 326/72/10 325/50/10 311/74/10 307/73/10
f 327/72/9 328/50/9 309/74/9 313/73/9
f 325/72/2 327/50/2 313/74/2 311/73/2
f 307/72/1 309/50/1 328/74/1 326/73/1
f 304/69/10 303/71/10 325/67/10 326/70/10
f 305/69/9 306/71/9 328/67/9 327/70/9
f 303/69/2 305/71/2 327/67/2 325/70/2
f 326/69/1 328/71/1 306/67/1 304/70/1
f 333/57/3 335/60/3 336/59/3 334/58/3
f 330/37/9 329/40/9 333/39/9 334/38/9
f 331/37/10 332/40/10 336/39/10 335/38/10
f 329/37/2 331/40/2 335/39/2 333/38/2
f 334/38/1 336/39/1 332/40/1 330/37/1
f 341/57/4 342/58/4 344/59/4 343/60/4
f 338/37/9 342/38/9 341/39/9 337/40/9
f 339/37/10 343/38/10 344/39/10 340/40/10
f 337/37/2 341/38/2 343/39/2 339/40/2
f 342/38/1 338/37/1 340/40/1 344/39/1
f 354/79/1 347/82/1 345/81/1 353/80/1
f 356/20/2 349/23/2 351/22/2 355/21/2
f 358/24/10 353/27/10 345/26/10 357/25/10
f 362/28/9 347/29/9 354/27/9 361/24/9
f 357/83/3 345/86/3 347/85/3 362/84/3
f 353/87/1 346/90/1 348/89/1 354/88/1
f 361/24/9 354/27/9 348/26/9 360/25/9
f 355/21/2 352/33/2 350/32/2 356/20/2
f 359/28/10 346/29/10 353/27/10 358/24/10
f 357/25/10 349/35/10 356/34/10 358/24/10
f 358/24/10 356/34/10 350/36/10 359/28/10
f 359/20/4 350/23/4 352/22/4 360/21/4
f 360/25/9 352/35/9 355/34/9 361/24/9
f 361/24/9 355/34/9 351/36/9 362/28/9
f 362/84/3 351/92/3 349/91/3 357/83/3
f 367/57/2 369/60/2 370/59/2 368/58/2
f 364/37/10 363/40/10 367/39/10 368/38/10
f 365/37/9 366/40/9 370/39/9 369/38/9
f 363/37/3 365/40/3 369/39/3 367/38/3
f 368/38/4 370/39/4 366/40/4 364/37/4
f 372/93/10 371/96/10 375/95/10 376/94/10
f 373/93/9 374/96/9 378/95/9 377/94/9
f 371/93/3 373/96/3 377/95/3 375/94/3
f 376/94/4 378/95/4 374/96/4 372/93/4
f 383/57/1 384/58/1 386/59/1 385/60/1
f 380/37/10 384/38/10 383/39/10 379/40/10
f 381/37/9 385/38/9 386/39/9 382/40/9
f 379/37/3 383/38/3 385/39/3 381/40/3
f 384/38/4 380/37/4 382/40/4 386/39/4
f 391/57/1 392/58/1 394/59/1 393/60/1
f 388/37/10 392/38/10 391/39/10 387/40/10
f 389/37/9 393/38/9 394/39/9 390/40/9
f 387/37/3 391/38/3 393/39/3 389/40/3
f 392/38/4 388/37/4 390/40/4 394/39/4
f 399/57/2 401/60/2 402/59/2 400/58/2
f 396/37/10 395/40/10 399/39/10 400/38/10
f 397/37/9 398/40/9 402/39/9 401/38/9
f 395/37/3 397/40/3 401/39/3 399/38/3
f 400/38/4 402/39/4 398/40/4 396/37/4
f 404/93/10 403/96/10 407/95/10 408/94/10
f 405/93/9 406/96/9 410/95/9 409/94/9
f 403/93/3 405/96/3 409/95/3 407/94/3
f 408/94/4 410/95/4 406/96/4 404/93/4
f 412/45/10 411/48/10 415/47/10 416/46/10
f 413/45/9 414/48/9 418/47/9 417/46/9
f 411/45/3 413/48/3 417/47/3 415/46/3
f 416/45/4 418/48/4 414/47/4 412/46/4
f 423/57/4 425/60/4 426/59/4 424/58/4
f 420/37/10 419/40/10 423/39/10 424/38/10
f 421/37/9 422/40/9 426/39/9 425/38/9
f 419/37/2 421/40/2 425/39/2 423/38/2
f 424/38/1 426/39/1 422/40/1 420/37/1
f 428/45/10 427/48/10 431/47/10 415/46/10
f 429/45/9 430/48/9 417/47/9 432/46/9
f 427/45/2 429/48/2 432/47/2 431/46/2
f 415/45/1 417/48/1 430/47/1 428/46/1
f 431/72/2 432/50/2 434/74/2 433/73/2
f 433/75/15 434/78/15 418/77/15 416/76/15
f 417/12/9 418/13/9 434/14/9 432/15/9
f 475/12/3 479/15/3 480/14/3 476/13/3
f 424/57/2 426/60/2 440/59/2 439/58/2
f 436/37/10 435/40/10 424/39/10 439/38/10
f 437/37/9 438/40/9 440/39/9 426/38/9
f 435/37/3 437/40/3 426/39/3 424/38/3
f 439/38/4 440/39/4 438/40/4 436/37/4
f 441/97/1 442/100/1 348/99/1 346/98/1
f 359/61/2 360/64/2 444/63/2 443/62/2
f 441/61/10 346/64/10 359/63/10 443/62/10
f 348/61/9 442/64/9 444/63/9 360/62/9
f 443/61/4 444/64/4 442/63/4 441/62/4
f 463/65/2 465/68/2 466/67/2 464/66/2
f 739/3/1 740/2/1 446/8/1
f 3/1/1 1/6/1 769/7/1 771/3/1
f 737/7/1 739/3/1 445/1/1 866/6/1
f 450/1/2 744/3/2 743/2/2
f 723/8/3 820/2/3 818/4/3 721/5/3
f 803/3/3 804/2/3 445/8/3
f 446/1/4 808/3/4 807/2/4
f 724/8/1 788/2/1 786/4/1 722/5/1
f 11/8/7 9/5/7 844/4/7 842/2/7
f 873/8/1 453/1/1 454/8/1
f 12/1/8 846/3/8 848/7/8 10/6/8
f 720/1/17 766/3/17 767/7/17 718/6/17
f 453/8/4 810/2/4 809/3/4
f 813/2/18 814/3/18 454/1/18
f 15/1/7 841/3/7 843/7/7 13/6/7
f 446/1/9 454/9/9 453/101/9
f 865/6/10 871/102/10 452/10/10
f 449/1/19 457/9/19 458/101/19
f 447/6/20 869/102/20 868/10/20
f 445/1/21 453/9/21 457/101/21
f 447/5/22 455/11/22 870/102/22
f 450/1/9 458/9/9 454/101/9
f 448/6/10 872/103/10 456/10/10
f 700/69/10 699/71/10 661/67/10 662/70/10
f 460/36/10 459/35/10 463/26/10 464/29/10
f 459/65/3 461/68/3 465/67/3 463/66/3
f 267/71/2 259/67/2 257/70/2 265/69/2
f 471/57/4 473/60/4 474/59/4 472/58/4
f 61/50/1 62/74/1 60/73/1 59/72/1
f 468/37/9 467/40/9 471/39/9 472/38/9
f 469/37/10 470/40/10 474/39/10 473/38/10
f 467/37/1 469/40/1 473/39/1 471/38/1
f 472/38/2 474/39/2 470/40/2 468/37/2
f 479/72/10 481/50/10 482/74/10 480/73/10
f 480/75/23 482/78/23 478/77/23 476/76/23
f 477/12/4 478/13/4 482/14/4 481/15/4
f 610/12/10 617/15/10 623/14/10 609/13/10
f 481/45/10 479/48/10 483/47/10 484/46/10
f 475/45/9 477/48/9 486/47/9 485/46/9
f 479/45/3 475/48/3 485/47/3 483/46/3
f 484/45/4 486/48/4 477/47/4 481/46/4
f 488/45/1 487/48/1 476/47/1 478/46/1
f 489/45/2 490/48/2 477/47/2 475/46/2
f 487/45/3 489/48/3 475/47/3 476/46/3
f 478/45/4 477/48/4 490/47/4 488/46/4
f 484/69/10 483/71/10 491/67/10 492/70/10
f 485/69/9 486/71/9 494/67/9 493/70/9
f 483/69/3 485/71/3 493/67/3 491/70/3
f 492/69/4 494/71/4 486/67/4 484/70/4
f 496/69/1 495/71/1 487/67/1 488/70/1
f 497/69/2 498/71/2 490/67/2 489/70/2
f 495/69/3 497/71/3 489/67/3 487/70/3
f 488/69/4 490/71/4 498/67/4 496/70/4
f 503/57/1 505/60/1 506/59/1 504/58/1
f 500/37/9 499/40/9 503/39/9 504/38/9
f 501/37/10 502/40/10 506/39/10 505/38/10
f 499/37/3 501/40/3 505/39/3 503/38/3
f 504/38/4 506/39/4 502/40/4 500/37/4
f 511/57/10 513/60/10 514/59/10 512/58/10
f 508/37/1 507/40/1 511/39/1 512/38/1
f 509/37/2 510/40/2 514/39/2 513/38/2
f 507/37/3 509/40/3 513/39/3 511/38/3
f 512/38/4 514/39/4 510/40/4 508/37/4
f 516/104/1 518/107/1 517/106/1 515/105/1
f 519/104/2 521/107/2 522/106/2 520/105/2
f 516/108/10 515/111/10 519/110/10 520/109/10
f 517/108/9 518/111/9 522/110/9 521/109/9
f 515/104/3 517/107/3 521/106/3 519/105/3
f 520/104/4 522/107/4 518/106/4 516/105/4
f 581/61/10 580/64/10 584/63/10 585/62/10
f 249/37/2 251/40/2 255/39/2 253/38/2
f 699/69/1 701/71/1 663/67/1 661/70/1
f 516/41/2 523/44/2 530/43/2 533/42/2
f 651/50/9 660/51/9 659/38/9 652/72/9
f 350/112/1 527/115/1 528/114/1 532/113/1
f 352/90/9 529/89/9 518/88/9 531/87/9
f 528/90/10 527/89/10 530/88/10 523/87/10
f 537/116/1 536/119/1 534/118/1 535/117/1
f 532/41/4 528/44/4 523/43/4 516/42/4
f 75/61/3 76/64/3 74/63/3 73/62/3
f 532/90/1 529/89/1 352/88/1 350/87/1
f 350/42/3 352/121/3 531/120/3 533/41/3
f 533/42/2 531/121/2 518/120/2 516/41/2
f 532/122/1 879/125/1 878/124/1 529/123/1
f 538/104/2 540/107/2 541/106/2 539/105/2
f 693/69/1 695/71/1 687/67/1 685/70/1
f 535/108/10 534/111/10 538/110/10 539/109/10
f 534/126/3 536/129/3 540/128/3 538/127/3
f 637/130/2 639/133/2 640/132/2 638/131/2
f 546/57/4 548/60/4 549/59/4 547/58/4
f 543/37/9 542/40/9 546/39/9 547/38/9
f 544/37/10 545/40/10 549/39/10 548/38/10
f 554/57/3 556/60/3 557/59/3 555/58/3
f 549/39/2 545/40/2 543/37/2 547/38/2
f 812/134/9 811/137/9 801/136/9 802/135/9
f 551/37/10 550/40/10 554/39/10 555/38/10
f 552/37/9 553/40/9 557/39/9 556/38/9
f 550/37/1 552/40/1 556/39/1 554/38/1
f 555/38/2 557/39/2 553/40/2 551/37/2
f 559/45/10 558/48/10 562/47/10 563/46/10
f 560/45/9 561/48/9 565/47/9 564/46/9
f 558/45/1 560/48/1 564/47/1 562/46/1
f 563/45/2 565/48/2 561/47/2 559/46/2
f 566/72/3 568/50/3 569/74/3 567/73/3
f 567/75/12 569/78/12 565/77/12 563/76/12
f 564/12/9 565/13/9 569/14/9 568/15/9
f 17/12/10 21/15/10 22/14/10 18/13/10
f 571/45/10 570/48/10 566/47/10 562/46/10
f 572/45/9 573/48/9 564/47/9 568/46/9
f 570/45/3 572/48/3 568/47/3 566/46/3
f 562/45/4 564/48/4 573/47/4 571/46/4
f 578/57/2 579/60/2 556/59/2 554/58/2
f 574/37/3 576/40/3 579/39/3 578/38/3
f 576/37/9 577/40/9 556/39/9 579/38/9
f 650/72/3 652/50/3 659/51/3 657/38/3
f 554/38/4 556/39/4 577/40/4 575/37/4
f 581/53/4 583/56/4 582/55/4 580/54/4
f 584/61/3 586/64/3 587/63/3 585/62/3
f 585/61/2 587/64/2 583/63/2 581/62/2
f 583/64/9 587/63/9 586/62/9 582/61/9
f 593/27/10 588/26/10 597/25/10 598/24/10
f 594/16/4 589/19/4 588/18/4 593/17/4
f 596/20/3 590/23/3 524/22/3 595/21/3
f 597/20/1 588/23/1 589/22/1 600/21/1
f 600/28/9 589/29/9 594/27/9 599/24/9
f 590/35/10 596/34/10 598/24/10 597/25/10
f 593/17/4 580/31/4 582/30/4 594/16/4
f 599/24/9 594/27/9 582/26/9 586/25/9
f 595/21/3 592/33/3 591/32/3 596/20/3
f 584/28/10 580/29/10 593/27/10 598/24/10
f 584/20/2 591/23/2 592/22/2 586/21/2
f 599/24/9 595/34/9 524/36/9 600/28/9
f 586/25/9 592/35/9 595/34/9 599/24/9
f 600/21/1 524/33/1 590/32/1 597/20/1
f 702/71/9 664/67/9 663/70/9 701/69/9
f 602/36/10 601/35/10 605/26/10 606/29/10
f 602/65/4 604/68/4 603/67/4 601/66/4
f 605/65/3 607/68/3 608/67/3 606/66/3
f 601/65/1 603/68/1 607/67/1 605/66/1
f 604/26/9 608/35/9 607/36/9 603/29/9
f 539/104/4 541/107/4 537/106/4 535/105/4
f 606/65/2 608/68/2 604/67/2 602/66/2
f 610/50/10 609/49/10 613/52/10 614/51/10
f 611/50/9 612/49/9 616/52/9 615/51/9
f 609/50/3 611/49/3 615/52/3 613/51/3
f 614/50/4 616/49/4 612/52/4 610/51/4
f 617/45/10 610/48/10 619/47/10 620/46/10
f 612/45/9 618/48/9 622/47/9 621/46/9
f 610/45/2 612/48/2 621/47/2 619/46/2
f 620/45/1 622/48/1 618/47/1 617/46/1
f 617/72/1 618/50/1 624/74/1 623/73/1
f 623/75/14 624/78/14 611/77/14 609/76/14
f 612/12/9 611/13/9 624/14/9 618/15/9
f 651/12/9 652/13/9 656/14/9 655/15/9
f 625/45/10 613/48/10 627/47/10 628/46/10
f 615/45/9 626/48/9 630/47/9 629/46/9
f 625/72/2 626/50/2 632/74/2 631/73/2
f 630/48/2 626/47/2 625/46/2 628/45/2
f 112/45/3 106/48/3 115/47/3 113/46/3
f 631/75/15 632/78/15 616/77/15 614/76/15
f 615/12/9 616/13/9 632/14/9 626/15/9
f 649/12/10 653/15/10 654/14/10 650/13/10
f 633/130/3 635/133/3 639/132/3 637/131/3
f 809/136/1 803/140/1 801/139/1 811/138/1
f 753/139/4 763/138/4 761/136/4 755/140/4
f 645/57/3 646/58/3 648/59/3 647/60/3
f 78/65/2 80/68/2 79/67/2 77/66/2
f 642/37/9 646/38/9 645/39/9 641/40/9
f 643/37/10 647/38/10 648/39/10 644/40/10
f 641/37/1 645/38/1 647/39/1 643/40/1
f 646/38/2 642/37/2 644/40/2 648/39/2
f 653/72/1 655/50/1 656/74/1 654/73/1
f 649/72/10 650/50/10 657/51/10 658/38/10
f 112/12/10 108/15/10 109/14/10 105/13/10
f 665/12/10 669/15/10 675/14/10 666/13/10
f 21/72/3 23/50/3 24/74/3 22/73/3
f 663/72/9 664/50/9 651/74/9 655/73/9
f 661/50/10 653/74/10 649/73/10 662/72/10
f 658/72/4 660/50/4 651/51/4 649/38/4
f 656/78/14 652/77/14 650/76/14 654/75/14
f 649/72/2 651/50/2 664/74/2 662/73/2
f 661/72/1 663/50/1 655/74/1 653/73/1
f 658/69/10 657/71/10 665/67/10 666/70/10
f 107/50/9 106/49/9 20/52/9 19/51/9
f 659/69/9 660/71/9 668/67/9 667/70/9
f 657/69/3 659/71/3 667/67/3 665/70/3
f 666/69/4 668/71/4 660/67/4 658/70/4
f 669/45/10 665/48/10 671/47/10 672/46/10
f 667/45/9 670/48/9 674/47/9 673/46/9
f 665/45/1 667/48/1 673/47/1 671/46/1
f 672/45/2 674/48/2 670/47/2 669/46/2
f 669/72/2 670/50/2 676/74/2 675/73/2
f 675/75/15 676/78/15 668/77/15 666/76/15
f 667/12/9 668/13/9 676/14/9 670/15/9
f 691/12/1 697/15/1 703/14/1 689/13/1
f 678/37/4 677/40/4 681/39/4 682/38/4
f 49/60/1 50/59/1 48/58/1 47/57/1
f 679/37/3 680/40/3 684/39/3 683/38/3
f 677/37/1 679/40/1 683/39/1 681/38/1
f 682/38/2 684/39/2 680/40/2 678/37/2
f 686/45/4 685/48/4 689/47/4 690/46/4
f 687/45/3 688/48/3 692/47/3 691/46/3
f 685/45/1 687/48/1 691/47/1 689/46/1
f 690/45/2 692/48/2 688/47/2 686/46/2
f 694/69/4 693/71/4 685/67/4 686/70/4
f 686/69/2 688/71/2 696/67/2 694/70/2
f 169/57/2 171/60/2 172/59/2 170/58/2
f 62/78/14 58/77/14 56/76/14 60/75/14
f 698/45/10 697/48/10 699/47/10 700/46/10
f 691/45/9 692/48/9 702/47/9 701/46/9
f 697/45/1 691/48/1 701/47/1 699/46/1
f 700/45/2 702/48/2 692/47/2 698/46/2
f 697/72/10 698/50/10 704/74/10 703/73/10
f 703/75/24 704/78/24 690/77/24 689/76/24
f 692/12/2 690/13/2 704/14/2 698/15/2
f 57/12/9 58/13/9 62/14/9 61/15/9
f 737/139/4 747/138/4 745/136/4 739/140/4
f 596/34/10 591/36/10 584/28/10 598/24/10
f 77/65/4 79/68/4 83/67/4 81/66/4
f 662/69/2 664/71/2 702/67/2 700/70/2
f 83/68/1 84/67/1 82/66/1 81/65/1
f 755/3/1 756/2/1 708/8/1
f 753/7/1 706/5/1 754/4/1
f 758/4/2 710/6/2 709/5/2
f 712/1/2 760/3/2 759/2/2
f 705/5/3 850/4/3 709/6/3
f 711/1/3 851/3/3 852/2/3
f 712/8/4 708/1/4 856/3/4
f 854/7/4 710/5/4 853/4/4
f 763/7/25 714/5/25 713/6/25
f 716/8/25 762/2/25 761/3/25
f 765/2/17 766/3/17 720/1/17
f 768/4/17 718/6/17 767/7/17
f 717/6/26 859/7/26 713/5/26
f 715/8/26 858/2/26 857/3/26
f 861/2/27 862/3/27 716/1/27
f 863/4/27 714/6/27 864/7/27
f 707/8/9 708/1/9 716/9/9
f 705/5/10 713/11/10 714/10/10
f 711/1/9 719/9/9 720/101/9
f 709/6/10 710/5/10 718/11/10
f 711/8/9 707/1/9 715/9/9
f 709/5/10 717/11/10 713/10/10
f 712/1/9 720/9/9 716/101/9
f 710/6/10 706/5/10 714/11/10
f 723/1/1 787/3/1 788/2/1
f 786/4/1 721/6/1 722/5/1
f 789/7/2 725/5/2 790/4/2
f 727/8/2 728/1/2 792/3/2
f 817/7/3 721/5/3 818/4/3
f 819/3/3 820/2/3 723/8/3
f 724/1/4 824/3/4 823/2/4
f 821/4/4 722/6/4 726/5/4
f 796/4/28 729/6/28 795/7/28
f 731/1/28 732/8/28 794/2/28
f 735/8/29 797/2/29 798/3/29
f 799/7/29 733/5/29 734/6/29
f 828/4/30 733/6/30 827/7/30
f 735/1/30 731/8/30 826/2/30
f 736/8/31 829/2/31 830/3/31
f 832/7/31 734/5/31 730/6/31
f 724/1/9 732/9/9 731/101/9
f 722/6/10 721/5/10 729/11/10
f 728/8/9 727/1/9 735/9/9
f 726/5/10 734/11/10 733/10/10
f 727/8/9 723/1/9 731/9/9
f 725/5/10 733/11/10 729/10/10
f 724/8/9 728/1/9 736/9/9
f 722/5/10 730/11/10 734/10/10
f 750/139/3 744/138/3 741/136/3 751/140/3
f 738/138/3 740/136/3 746/140/3 748/139/3
f 769/139/4 779/138/4 777/136/4 771/140/4
f 759/139/4 765/138/4 768/136/4 758/140/4
f 738/141/9 748/142/9 747/136/9 737/140/9
f 742/141/9 752/142/9 751/136/9 741/140/9
f 743/134/10 744/137/10 750/136/10 749/135/10
f 788/134/10 787/137/10 793/136/10 794/135/10
f 754/138/3 756/136/3 762/140/3 764/139/3
f 806/139/2 816/138/2 814/136/2 808/140/2
f 818/138/2 820/136/2 826/140/2 828/139/2
f 636/133/1 635/132/1 633/131/1 634/130/1
f 562/12/10 566/15/10 567/14/10 563/13/10
f 740/134/10 739/137/10 745/136/10 746/135/10
f 755/137/10 761/136/10 762/135/10 756/134/10
f 759/134/10 760/137/10 766/136/10 765/135/10
f 775/139/4 781/138/4 784/136/4 774/140/4
f 770/138/3 772/136/3 778/140/3 780/139/3
f 776/138/3 773/136/3 783/140/3 782/139/3
f 785/139/4 795/138/4 793/136/4 787/140/4
f 780/142/9 779/136/9 769/140/9 770/141/9
f 784/142/9 783/136/9 773/140/9 774/141/9
f 808/137/10 814/136/10 813/135/10 807/134/10
f 771/137/10 777/136/10 778/135/10 772/134/10
f 791/139/4 797/138/4 800/136/4 790/140/4
f 786/138/3 788/136/3 794/140/3 796/139/3
f 792/138/3 789/136/3 799/140/3 798/139/3
f 822/139/2 832/138/2 830/136/2 824/140/2
f 786/141/9 796/142/9 795/136/9 785/140/9
f 800/142/9 799/136/9 789/140/9 790/141/9
f 853/135/9 863/134/9 864/137/9 854/136/9
f 764/142/9 763/136/9 753/140/9 754/141/9
f 834/138/2 836/136/2 842/140/2 844/139/2
f 815/139/1 805/138/1 807/136/1 813/140/1
f 537/111/9 541/110/9 540/109/9 536/108/9
f 758/141/9 768/142/9 767/136/9 757/140/9
f 803/137/10 809/136/10 810/135/10 804/134/10
f 815/134/9 816/137/9 806/136/9 805/135/9
f 776/137/10 782/136/10 781/135/10 775/134/10
f 821/138/1 823/136/1 829/140/1 831/139/1
f 817/139/1 827/138/1 825/136/1 819/140/1
f 854/139/2 864/138/2 862/136/2 856/140/2
f 853/138/1 855/136/1 861/140/1 863/139/1
f 830/136/10 829/135/10 823/134/10 824/137/10
f 819/137/10 825/136/10 826/135/10 820/134/10
f 852/139/2 858/138/2 860/136/2 850/140/2
f 821/135/9 831/134/9 832/137/9 822/136/9
f 638/130/4 640/133/4 636/132/4 634/131/4
f 833/139/1 843/138/1 841/136/1 835/140/1
f 838/139/2 848/138/2 846/136/2 840/140/2
f 802/138/2 804/136/2 810/140/2 812/139/2
f 792/137/10 798/136/10 797/135/10 791/134/10
f 835/137/10 841/136/10 842/135/10 836/134/10
f 847/134/9 848/137/9 838/136/9 837/135/9
f 828/134/9 827/137/9 817/136/9 818/135/9
f 859/138/1 857/136/1 851/140/1 849/139/1
f 849/135/9 850/134/9 860/137/9 859/136/9
f 840/137/10 846/136/10 845/135/10 839/134/10
f 837/138/1 839/136/1 845/140/1 847/139/1
f 852/134/10 851/137/10 857/136/10 858/135/10
f 862/136/10 861/135/10 855/134/10 856/137/10
f 752/136/4 742/140/4 743/139/4 749/138/4
f 844/134/9 843/137/9 833/136/9 834/135/9
f 737/7/1 866/6/1 865/5/1
f 707/1/1 705/6/1 753/7/1 755/3/1
f 801/7/3 447/6/3 866/5/3
f 742/4/2 447/5/2 449/8/2 743/2/2
f 805/4/4 806/7/4 865/6/4
f 738/4/1 865/5/1 446/8/1 740/2/1
f 760/138/3 757/136/3 767/140/3 766/139/3
f 448/6/2 447/5/2 742/4/2
f 802/4/3 866/5/3 445/8/3 804/2/3
f 867/6/4 811/7/4 870/143/4
f 457/8/32 455/5/32 752/4/32 749/2/32
f 451/6/28 747/7/28 871/143/28
f 748/4/1 873/8/1 454/8/1
f 452/6/18 816/7/18 872/144/18
f 735/1/30 825/3/30 827/7/30 733/6/30
f 456/6/32 751/7/32 869/143/32
f 747/7/28 451/6/28 453/1/28 745/3/28
f 749/2/32 750/3/32 458/1/32
f 751/7/32 752/4/32 869/143/32
f 752/4/32 868/5/32 869/143/32
f 811/7/4 812/4/4 870/143/4
f 812/4/4 451/5/4 870/143/4
f 747/7/28 748/4/28 871/143/28
f 816/7/18 815/4/18 872/144/18
f 815/4/18 456/5/18 872/144/18
f 873/8/28 748/4/28 746/2/28
f 452/5/28 871/143/28 748/4/28
f 3/1/1 772/2/1 4/8/1
f 8/1/2 6/6/2 773/7/2 776/3/2
f 7/8/2 775/2/2 774/4/2 5/5/2
f 1/6/1 770/4/1 769/7/1
f 723/1/1 721/6/1 785/7/1 787/3/1
f 801/7/3 803/3/3 449/1/3 447/6/3
f 6/6/2 5/5/2 773/7/2
f 7/8/2 776/3/2 775/2/2
f 741/7/2 744/3/2 450/1/2 448/6/2
f 708/8/1 756/2/1 754/4/1 706/5/1
f 5/6/3 1/5/3 833/7/3
f 835/3/3 3/8/3 7/1/3
f 4/1/4 839/2/4 8/8/4
f 805/4/4 448/5/4 450/8/4 807/2/4
f 711/1/3 709/6/3 849/7/3 851/3/3
f 2/6/4 837/4/4 838/7/4
f 815/4/18 813/2/18 458/8/18 456/5/18
f 16/8/8 14/5/8 847/4/8 845/2/8
f 10/5/5 779/7/5 780/4/5
f 12/8/5 777/3/5 11/1/5
f 15/8/6 782/3/6 16/1/6
f 732/1/31 830/3/31 832/7/31 730/6/31
f 735/8/29 733/5/29 800/4/29 797/2/29
f 13/5/1 783/7/1 784/4/1
f 15/8/6 13/5/6 784/4/6 781/2/6
f 811/7/4 455/6/4 457/1/4 809/3/4
f 9/5/7 13/6/7 844/4/7
f 15/1/7 842/2/7 841/3/7
f 16/8/8 846/3/8 12/1/8
f 812/4/4 810/2/4 453/8/4 451/5/4
f 715/8/26 713/5/26 860/4/26 858/2/26
f 14/5/8 848/7/8 847/4/8
f 3/8/9 12/9/9 11/101/9
f 1/5/10 10/10/10 2/6/10
f 8/8/9 15/9/9 16/101/9
f 6/5/10 13/10/10 5/6/10
f 7/8/9 11/9/9 15/101/9
f 5/5/10 9/10/10 1/6/10
f 4/8/9 16/9/9 12/101/9
f 2/5/10 14/10/10 6/6/10
f 739/3/1 446/8/1 445/1/1
f 450/1/2 743/2/2 449/8/2
f 803/3/3 445/8/3 449/1/3
f 446/1/4 807/2/4 450/8/4
f 453/1/28 873/8/28 745/3/28
f 745/3/28 873/8/28 746/2/28
f 455/6/1 811/7/1 867/6/1
f 453/8/4 809/3/4 457/1/4
f 813/2/18 454/1/18 458/8/18
f 446/1/9 453/101/9 445/8/9
f 451/11/10 871/102/10 866/5/10
f 866/5/10 871/102/10 865/6/10
f 449/1/9 458/101/9 450/8/9
f 456/11/33 869/102/33 448/5/33
f 448/5/34 869/102/34 447/6/34
f 447/6/1 868/10/1 455/10/1
f 445/1/35 457/101/35 449/8/35
f 447/5/36 870/102/36 866/6/36
f 866/6/33 870/102/33 451/10/33
f 870/102/37 455/11/37 867/11/37
f 450/1/9 454/101/9 446/8/9
f 452/11/10 872/103/10 865/5/10
f 865/5/10 872/103/10 448/6/10
f 755/3/1 708/8/1 707/1/1
f 712/1/2 710/6/2 757/7/2 760/3/2
f 711/8/2 759/2/2 758/4/2 709/5/2
f 705/6/1 706/5/1 753/7/1
f 8/8/4 839/2/4 837/4/4 6/5/4
f 4/1/4 2/6/4 838/7/4 840/3/4
f 710/6/2 758/4/2 757/7/2
f 712/1/2 759/2/2 711/8/2
f 727/1/3 725/6/3 817/7/3 819/3/3
f 712/8/4 855/2/4 853/4/4 710/5/4
f 709/6/3 850/4/3 849/7/3
f 711/1/3 852/2/3 707/8/3
f 712/8/4 856/3/4 855/2/4
f 724/1/4 722/6/4 822/7/4 824/3/4
f 4/8/1 772/2/1 770/4/1 2/5/1
f 706/6/4 710/5/4 854/7/4
f 732/8/28 730/5/28 796/4/28 794/2/28
f 11/1/5 777/3/5 779/7/5 9/6/5
f 714/5/25 763/7/25 764/4/25
f 716/8/25 761/3/25 715/1/25
f 765/2/17 720/1/17 719/8/17
f 816/7/18 452/6/18 454/1/18 814/3/18
f 715/1/25 761/3/25 763/7/25 713/6/25
f 717/5/17 718/6/17 768/4/17
f 716/8/25 714/5/25 764/4/25 762/2/25
f 736/8/31 734/5/31 831/4/31 829/2/31
f 713/5/26 859/7/26 860/4/26
f 715/8/26 857/3/26 719/1/26
f 861/2/27 716/1/27 720/8/27
f 731/1/28 793/3/28 795/7/28 729/6/28
f 736/1/29 798/3/29 799/7/29 734/6/29
f 718/5/27 714/6/27 863/4/27
f 707/8/9 716/9/9 715/101/9
f 705/5/10 714/10/10 706/6/10
f 711/1/9 720/101/9 712/8/9
f 709/6/10 718/11/10 717/10/10
f 711/8/9 715/9/9 719/101/9
f 709/5/10 713/10/10 705/6/10
f 712/1/9 716/101/9 708/8/9
f 710/6/10 714/11/10 718/10/10
f 723/1/1 788/2/1 724/8/1
f 728/1/2 726/6/2 789/7/2 792/3/2
f 727/8/2 791/2/2 790/4/2 725/5/2
f 721/6/1 786/4/1 785/7/1
f 719/8/17 717/5/17 768/4/17 765/2/17
f 728/8/4 823/2/4 821/4/4 726/5/4
f 726/6/2 725/5/2 789/7/2
f 727/8/2 792/3/2 791/2/2
f 446/1/4 865/6/4 806/7/4 808/3/4
f 7/1/3 5/6/3 833/7/3 835/3/3
f 725/6/3 721/5/3 817/7/3
f 819/3/3 723/8/3 727/1/3
f 724/1/4 823/2/4 728/8/4
f 707/8/3 852/2/3 850/4/3 705/5/3
f 3/8/3 836/2/3 834/4/3 1/5/3
f 722/6/4 821/4/4 822/7/4
f 719/1/26 857/3/26 859/7/26 717/6/26
f 731/8/30 729/5/30 828/4/30 826/2/30
f 730/5/28 729/6/28 796/4/28
f 731/1/28 794/2/28 793/3/28
f 735/8/29 798/3/29 736/1/29
f 716/1/27 862/3/27 864/7/27 714/6/27
f 12/8/5 10/5/5 780/4/5 778/2/5
f 733/5/29 799/7/29 800/4/29
f 751/7/32 456/6/32 458/1/32 750/3/32
f 16/1/6 782/3/6 783/7/6 14/6/6
f 729/5/30 733/6/30 828/4/30
f 735/1/30 826/2/30 825/3/30
f 736/8/31 830/3/31 732/1/31
f 720/8/27 718/5/27 863/4/27 861/2/27
f 734/5/31 832/7/31 831/4/31
f 724/1/9 731/101/9 723/8/9
f 722/6/10 729/11/10 730/10/10
f 728/8/9 735/9/9 736/101/9
f 726/5/10 733/10/10 725/6/10
f 727/8/9 731/9/9 735/101/9
f 725/5/10 729/10/10 721/6/10
f 724/8/9 736/9/9 732/101/9
f 722/5/10 734/10/10 726/6/10
f 737/7/1 865/5/1 738/4/1
f 801/7/3 866/5/3 802/4/3
f 805/4/4 865/6/4 448/5/4
f 448/6/2 742/4/2 741/7/2
f 748/4/28 454/8/28 452/5/28
f 752/4/1 455/5/1 868/5/1
f 749/2/32 458/1/32 457/8/32
f 22/75/12 24/78/12 20/77/12 18/76/12
f 739/3/1 737/7/1 738/4/1 740/2/1
f 787/3/2 788/2/2 786/4/2 785/7/2
f 755/3/1 753/7/1 754/4/1 756/2/1
f 771/3/1 769/7/1 770/4/1 772/2/1
f 803/3/3 801/7/3 802/4/3 804/2/3
f 819/3/4 820/2/4 818/4/4 817/7/4
f 835/3/3 833/7/3 834/4/3 836/2/3
f 851/3/4 852/2/4 850/4/4 849/7/4
f 744/3/2 741/7/2 742/4/2 743/2/2
f 808/3/38 806/7/39 805/4/38 807/2/39
f 856/3/4 854/7/4 853/4/4 855/2/4
f 840/3/3 839/2/3 837/4/3 838/7/3
f 760/3/2 757/7/2 758/4/2 759/2/2
f 776/3/1 775/2/1 774/4/1 773/7/1
f 792/3/2 789/7/2 790/4/2 791/2/2
f 824/3/4 822/7/4 821/4/4 823/2/4
f 876/125/4 877/124/4 878/123/4 879/122/4
f 518/124/2 877/123/2 876/122/2 516/125/2
f 876/122/2 886/146/2 884/145/2 516/125/2
f 529/88/9 878/87/9 877/90/9 518/89/9
f 881/147/1 889/150/1 891/149/1 883/148/1
f 879/122/4 887/146/4 886/145/4 876/125/4
f 532/122/1 885/146/1 887/145/1 879/125/1
f 516/42/3 884/42/3 885/41/3 532/41/3
f 881/151/10 885/90/10 884/89/10 880/152/10
f 882/153/10 886/88/10 887/87/10 883/154/10
f 883/154/10 887/87/10 885/90/10 881/151/10
f 880/152/10 884/89/10 886/88/10 882/153/10
f 888/155/10 890/158/10 891/157/10 889/156/10
f 880/147/3 888/150/3 889/149/3 881/148/3
f 882/147/2 890/150/2 888/149/2 880/148/2
f 883/147/4 891/150/4 890/149/4 882/148/4
l 518 525
l 523 526
l 525 875
l 526 874
