# Blender 4.2.2 LTS
# www.blender.org
mtllib trommel.mtl
o trommel
v -7.000000 1.000000 -0.000000
v 2.000000 1.000000 -0.000000
v 1.000000 1.000000 -0.000000
v -7.000000 1.750000 2.000000
v -7.000000 1.000000 1.000000
v -7.000000 1.500000 1.000000
v 2.000000 1.000000 -0.000000
v 2.000000 1.750000 -1.000000
v 2.000000 1.500000 -0.000000
v 2.000000 1.750000 2.000000
v 2.000000 1.000000 1.000000
v 2.000000 1.500000 1.000000
v 2.000000 1.000000 1.000000
v 1.000000 1.000000 1.000000
v -7.000000 1.500000 -0.000000
v -7.000000 1.750000 -1.000000
v 2.000000 3.250000 2.000000
v 2.000000 4.000000 1.000000
v 2.000000 3.500000 1.000000
v 2.000000 4.000000 -0.000000
v 2.000000 3.500000 -0.000000
v 2.000000 3.250000 -1.000000
v -7.000000 4.000000 -0.000000
v -7.000000 3.250000 -1.000000
v -7.000000 3.500000 -0.000000
v -7.000000 3.250000 2.000000
v -7.000000 3.500000 1.000000
v -7.000000 4.000000 1.000000
v -4.000000 0.125000 -2.000000
v -4.000000 -0.000000 -2.000000
v -4.000000 -0.000000 -1.000000
v -4.000000 0.700000 -1.000000
v -5.000000 -0.000000 -1.000000
v -5.000000 -0.000000 -2.000000
v -5.000000 0.125000 -2.000000
v -5.000000 0.700000 -1.000000
v -3.000000 -0.000000 -2.000000
v -3.000000 -0.000000 -1.000000
v -3.000000 0.700000 -1.000000
v -3.000000 0.125000 -2.000000
v -7.000000 1.500000 -0.000000
v -7.000000 3.500000 -0.000000
v 2.000000 1.500000 1.000000
v -7.000000 1.500000 1.000000
v 2.000000 3.500000 1.000000
v -7.000000 3.500000 1.000000
v 1.000000 0.000000 1.000000
v 1.000000 0.000000 0.000000
v 0.000000 -0.000000 -1.000000
v 0.000000 -0.000000 -2.000000
v 0.000000 2.000000 -2.000000
v 0.000000 2.000000 -1.000000
v -1.000000 -0.000000 -2.000000
v -1.000000 -0.000000 -1.000000
v -1.000000 2.000000 -1.000000
v -1.000000 2.000000 -2.000000
v 0.000000 0.000000 3.000000
v 0.000000 0.000000 2.000000
v 0.000000 2.000000 2.000000
v 0.000000 2.000000 3.000000
v -1.000000 0.000000 2.000000
v -1.000000 0.000000 3.000000
v -1.000000 2.000000 3.000000
v -1.000000 2.000000 2.000000
v 2.000000 -0.000000 -1.000000
v 2.000000 -0.000000 -2.000000
v 2.000000 4.000000 -2.000000
v 2.000000 4.000000 -1.000000
v 1.000000 -0.000000 -2.000000
v 1.000000 -0.000000 -1.000000
v 1.000000 4.000000 -1.000000
v 1.000000 4.000000 -2.000000
v 2.000000 0.000000 3.000000
v 2.000000 0.000000 2.000000
v 2.000000 4.000000 2.000000
v 2.000000 4.000000 3.000000
v 1.000000 0.000000 2.000000
v 1.000000 0.000000 3.000000
v 1.000000 4.000000 3.000000
v 1.000000 4.000000 2.000000
v 2.000000 0.000000 1.000000
v 2.000000 0.000000 0.000000
v -6.000000 -0.000000 -1.000000
v -6.000000 -0.000000 -2.000000
v -6.000000 4.000000 -2.000000
v -6.000000 4.000000 -1.000000
v -7.000000 -0.000000 -2.000000
v -7.000000 -0.000000 -1.000000
v -7.000000 4.000000 -1.000000
v -7.000000 4.000000 -2.000000
v -6.000000 0.000000 3.000000
v -6.000000 0.000000 2.000000
v -6.000000 4.000000 2.000000
v -6.000000 4.000000 3.000000
v -7.000000 0.000000 2.000000
v -7.000000 0.000000 3.000000
v -7.000000 4.000000 3.000000
v -7.000000 4.000000 2.000000
v -6.000000 0.125000 3.000000
v -5.000000 0.125000 3.000000
v -5.000000 0.700000 2.000000
v -6.000000 0.700000 2.000000
v -6.000000 0.000000 2.000000
v -6.000000 0.000000 3.000000
v -3.000000 0.125000 3.000000
v -3.000000 0.000000 3.000000
v -3.000000 0.000000 2.000000
v -3.000000 0.700000 2.000000
v -5.000000 0.000000 2.000000
v -5.000000 0.000000 3.000000
v -4.000000 0.125000 3.000000
v -4.000000 0.700000 2.000000
v -4.000000 0.000000 2.000000
v -4.000000 0.000000 3.000000
v -6.000000 0.700000 -1.000000
v -6.000000 0.125000 -2.000000
v -6.000000 -0.000000 -2.000000
v -6.000000 -0.000000 -1.000000
v 2.000000 1.500000 -0.000000
v 2.000000 3.500000 -0.000000
v -6.006917 0.700000 1.994753
v -5.993082 0.700000 -1.005247
v -5.993082 -0.000000 -1.005247
v -6.006917 0.000000 1.994753
v 0.993082 0.700000 2.005247
v 0.993082 0.000000 2.005247
v 1.006918 0.700000 -0.994753
v 1.006918 -0.000000 -0.994753
vn -0.0000 -0.0000 1.0000
vn -1.0000 -0.0000 -0.0000
vn 1.0000 -0.0000 -0.0000
vn -0.0000 -1.0000 -0.0000
vn -0.0000 -0.0000 -1.0000
vn -0.0000 -0.8000 0.6000
vn -0.0000 -0.8000 -0.6000
vn -0.0000 1.0000 -0.0000
vn -0.0000 0.8669 0.4985
vn -0.0000 0.8669 -0.4985
vn -0.0000 0.8000 0.6000
vn -0.0000 0.8000 -0.6000
vn -1.0000 -0.0000 -0.0046
vn -0.0015 -0.0000 1.0000
vn 1.0000 -0.0000 0.0046
vn 0.0015 -0.0000 -1.0000
vt 0.000000 1.000000
vt 0.281250 1.000000
vt 0.250000 1.000000
vt 0.174414 0.621094
vt 0.186914 0.591406
vt 0.174414 0.582031
vt 0.478516 0.871094
vt 0.509766 0.894531
vt 0.478516 0.886719
vt 0.000000 0.628906
vt 0.031250 0.605469
vt 0.031250 0.621094
vt 0.478516 0.845703
vt 0.478516 0.861328
vt 0.447266 0.869141
vt 0.550195 0.525391
vt 0.537695 0.555078
vt 0.550195 0.564453
vt 0.404297 0.531250
vt 0.404297 0.515625
vt 0.435547 0.507812
vt 0.492188 0.791016
vt 0.460938 0.767578
vt 0.492188 0.775391
vt 0.476562 0.806641
vt 0.515625 0.806641
vt 0.506250 0.794141
vt 0.343750 0.909766
vt 0.343750 0.906250
vt 0.375000 0.906250
vt 0.375000 0.927734
vt 0.523438 0.636719
vt 0.554688 0.636719
vt 0.554688 0.640234
vt 0.523438 0.658203
vt 0.480469 0.921875
vt 0.511719 0.921875
vt 0.511719 0.953125
vt 0.480469 0.953125
vt 0.523438 0.613281
vt 0.554688 0.613281
vt 0.554688 0.634766
vt 0.523438 0.634766
vt 0.000000 0.775391
vt 0.031250 0.775391
vt 0.031250 0.779297
vt 0.000000 0.779297
vt 0.097656 0.857422
vt 0.378906 0.857422
vt 0.378906 0.904297
vt 0.097656 0.904297
vt 0.095703 0.628906
vt 0.126953 0.621094
vt 0.126953 0.683594
vt 0.095703 0.675781
vt 0.158203 0.621094
vt 0.189453 0.628906
vt 0.189453 0.675781
vt 0.158203 0.683594
vt 0.097656 0.808594
vt 0.378906 0.808594
vt 0.378906 0.855469
vt 0.097656 0.855469
vt 0.447266 0.871094
vt 0.447266 0.886719
vt 0.509766 0.845703
vt 0.509766 0.861328
vt 0.378906 0.767578
vt 0.097656 0.767578
vt 0.097656 0.806641
vt 0.378906 0.806641
vt 0.283203 0.693359
vt 0.564453 0.693359
vt 0.564453 0.724609
vt 0.283203 0.724609
vt 0.281250 0.726562
vt 0.281250 0.765625
vt 0.000000 0.765625
vt 0.000000 0.726562
vt 0.373047 0.515625
vt 0.373047 0.531250
vt 0.523438 0.775391
vt 0.523438 0.791016
vt 0.283203 0.660156
vt 0.564453 0.660156
vt 0.564453 0.691406
vt 0.283203 0.691406
vt 0.404297 0.511719
vt 0.373047 0.511719
vt 0.373047 0.480469
vt 0.404297 0.480469
vt 0.521484 0.626953
vt 0.521484 0.658203
vt 0.490234 0.658203
vt 0.490234 0.626953
vt 0.207031 0.494141
vt 0.238281 0.494141
vt 0.238281 0.556641
vt 0.207031 0.556641
vt 0.447266 0.890625
vt 0.478516 0.890625
vt 0.478516 0.953125
vt 0.447266 0.953125
vt 0.490234 0.593750
vt 0.521484 0.593750
vt 0.521484 0.625000
vt 0.490234 0.625000
vt 0.490234 0.560547
vt 0.521484 0.560547
vt 0.521484 0.591797
vt 0.490234 0.591797
vt 0.457031 0.595703
vt 0.488281 0.595703
vt 0.488281 0.658203
vt 0.457031 0.658203
vt 0.457031 0.531250
vt 0.488281 0.531250
vt 0.488281 0.593750
vt 0.457031 0.593750
vt 0.240234 0.468750
vt 0.271484 0.468750
vt 0.271484 0.531250
vt 0.240234 0.531250
vt 0.273438 0.468750
vt 0.304688 0.468750
vt 0.304688 0.531250
vt 0.273438 0.531250
vt 0.503906 0.527344
vt 0.535156 0.527344
vt 0.535156 0.558594
vt 0.503906 0.558594
vt 0.503906 0.494141
vt 0.535156 0.494141
vt 0.535156 0.525391
vt 0.503906 0.525391
vt 0.306641 0.468750
vt 0.337891 0.468750
vt 0.337891 0.531250
vt 0.306641 0.531250
vt 0.339844 0.468750
vt 0.371094 0.468750
vt 0.371094 0.531250
vt 0.339844 0.531250
vt 0.191406 0.558594
vt 0.222656 0.558594
vt 0.222656 0.683594
vt 0.191406 0.683594
vt 0.224609 0.558594
vt 0.255859 0.558594
vt 0.255859 0.683594
vt 0.224609 0.683594
vt 0.068359 0.462891
vt 0.099609 0.462891
vt 0.099609 0.494141
vt 0.068359 0.494141
vt 0.101562 0.460938
vt 0.132812 0.460938
vt 0.132812 0.492188
vt 0.101562 0.492188
vt 0.257812 0.533203
vt 0.289062 0.533203
vt 0.289062 0.658203
vt 0.257812 0.658203
vt 0.291016 0.533203
vt 0.322266 0.533203
vt 0.322266 0.658203
vt 0.291016 0.658203
vt 0.324219 0.533203
vt 0.355469 0.533203
vt 0.355469 0.658203
vt 0.324219 0.658203
vt 0.357422 0.533203
vt 0.388672 0.533203
vt 0.388672 0.658203
vt 0.357422 0.658203
vt 0.134766 0.460938
vt 0.166016 0.460938
vt 0.166016 0.492188
vt 0.134766 0.492188
vt 0.207031 0.460938
vt 0.238281 0.460938
vt 0.238281 0.492188
vt 0.207031 0.492188
vt 0.074219 0.496094
vt 0.105469 0.496094
vt 0.105469 0.621094
vt 0.074219 0.621094
vt 0.380859 0.828125
vt 0.412109 0.828125
vt 0.412109 0.953125
vt 0.380859 0.953125
vt 0.406250 0.460938
vt 0.437500 0.460938
vt 0.437500 0.492188
vt 0.406250 0.492188
vt 0.439453 0.460938
vt 0.470703 0.460938
vt 0.470703 0.492188
vt 0.439453 0.492188
vt 0.472656 0.460938
vt 0.503906 0.460938
vt 0.503906 0.492188
vt 0.472656 0.492188
vt 0.505859 0.460938
vt 0.537109 0.460938
vt 0.537109 0.492188
vt 0.505859 0.492188
vt 0.107422 0.494141
vt 0.138672 0.494141
vt 0.138672 0.619141
vt 0.107422 0.619141
vt 0.140625 0.494141
vt 0.171875 0.494141
vt 0.171875 0.619141
vt 0.140625 0.619141
vt 0.033203 0.458984
vt 0.064453 0.458984
vt 0.064453 0.490234
vt 0.033203 0.490234
vt 0.509766 0.812500
vt 0.541016 0.812500
vt 0.541016 0.843750
vt 0.509766 0.843750
vt 0.035156 0.492188
vt 0.066406 0.492188
vt 0.066406 0.617188
vt 0.035156 0.617188
vt 0.390625 0.533203
vt 0.421875 0.533203
vt 0.421875 0.658203
vt 0.390625 0.658203
vt 0.000000 0.478516
vt 0.031250 0.478516
vt 0.031250 0.603516
vt 0.000000 0.603516
vt 0.414062 0.828125
vt 0.445312 0.828125
vt 0.445312 0.953125
vt 0.414062 0.953125
vt 0.511719 0.888672
vt 0.542969 0.888672
vt 0.542969 0.919922
vt 0.511719 0.919922
vt 0.511719 0.855469
vt 0.542969 0.855469
vt 0.542969 0.886719
vt 0.511719 0.886719
vt 0.423828 0.533203
vt 0.455078 0.533203
vt 0.455078 0.658203
vt 0.423828 0.658203
vt 0.173828 0.431641
vt 0.205078 0.431641
vt 0.205078 0.556641
vt 0.173828 0.556641
vt 0.320312 0.917969
vt 0.351562 0.917969
vt 0.351562 0.953125
vt 0.320312 0.953125
vt 0.523438 0.589844
vt 0.554688 0.589844
vt 0.554688 0.593359
vt 0.523438 0.611328
vt 0.519531 0.796484
vt 0.519531 0.792969
vt 0.550781 0.792969
vt 0.550781 0.814453
vt 0.513672 0.921875
vt 0.544922 0.921875
vt 0.544922 0.953125
vt 0.513672 0.953125
vt 0.033203 0.775391
vt 0.064453 0.775391
vt 0.064453 0.779297
vt 0.033203 0.779297
vt 0.523438 0.566406
vt 0.554688 0.566406
vt 0.554688 0.587891
vt 0.523438 0.587891
vt 0.437500 0.494141
vt 0.468750 0.494141
vt 0.468750 0.529297
vt 0.437500 0.529297
vt 0.525391 0.769531
vt 0.556641 0.769531
vt 0.556641 0.773047
vt 0.525391 0.791016
vt 0.240234 0.445312
vt 0.271484 0.445312
vt 0.271484 0.448828
vt 0.240234 0.466797
vt 0.373047 0.447266
vt 0.404297 0.447266
vt 0.404297 0.478516
vt 0.373047 0.478516
vt 0.000000 0.769531
vt 0.031250 0.769531
vt 0.031250 0.773438
vt 0.000000 0.773438
vt 0.273438 0.445312
vt 0.304688 0.445312
vt 0.304688 0.466797
vt 0.273438 0.466797
vt 0.501953 0.529297
vt 0.470703 0.529297
vt 0.470703 0.494141
vt 0.501953 0.494141
vt 0.529297 0.452734
vt 0.529297 0.449219
vt 0.560547 0.449219
vt 0.560547 0.470703
vt 0.000000 0.445312
vt 0.031250 0.445312
vt 0.031250 0.476562
vt 0.000000 0.476562
vt 0.306641 0.445312
vt 0.337891 0.445312
vt 0.337891 0.466797
vt 0.306641 0.466797
vt 0.033203 0.769531
vt 0.064453 0.769531
vt 0.064453 0.773438
vt 0.033203 0.773438
vt 0.281250 0.685547
vt 0.000000 0.685547
vt 0.000000 0.724609
vt 0.281250 0.724609
vt 0.564453 0.726562
vt 0.564453 0.765625
vt 0.283203 0.765625
vt 0.283203 0.726562
vt 0.062500 0.621094
vt 0.093750 0.628906
vt 0.093750 0.675781
vt 0.062500 0.683594
vt 0.031250 0.683594
vt 0.339844 0.448828
vt 0.339844 0.445312
vt 0.371094 0.445312
vt 0.371094 0.466797
vt 0.474609 0.826172
vt 0.380859 0.826172
vt 0.380859 0.804688
vt 0.474609 0.804688
vt 0.539062 0.976562
vt 0.320312 0.976562
vt 0.320312 0.955078
vt 0.539062 0.955078
vt 0.474609 0.802734
vt 0.380859 0.802734
vt 0.380859 0.781250
vt 0.474609 0.781250
vt 0.539062 1.000000
vt 0.320312 1.000000
vt 0.320312 0.978516
vt 0.539062 0.978516
vt 0.094387 1.000000
vt 0.000636 1.000000
vt 0.001316 0.781250
vt 0.095067 0.781250
vt 0.098779 0.906250
vt 0.317529 0.906250
vt 0.317237 1.000000
vt 0.098487 1.000000
vt 0.000000 0.675781
vt 0.507812 0.843750
vt 0.476562 0.843750
vt 0.476562 0.808594
vt 0.507812 0.808594
s 0
usemtl m_56c818b3-8d5f-5aa6-1656-24ad8058d5ac
f 1/1/1 2/2/1 3/3/1
f 4/4/2 6/5/2 5/6/2
f 7/7/3 8/8/3 9/9/3
f 10/10/3 11/11/3 12/12/3
f 5/1/1 13/2/1 14/3/1
f 1/13/2 15/14/2 16/15/2
f 17/16/3 19/17/3 18/18/3
f 20/19/3 21/20/3 22/21/3
f 23/22/2 24/23/2 25/24/2
f 26/25/2 28/26/2 27/27/2
f 29/28/2 30/29/2 31/30/2 32/31/2
f 33/32/3 34/33/3 35/34/3 36/35/3
f 30/36/4 37/37/4 38/38/4 31/39/4
f 31/40/1 38/41/1 39/42/1 32/43/1
f 37/44/5 30/45/5 29/46/5 40/47/5
f 4/48/1 10/49/1 17/50/1 26/51/1
f 16/52/2 41/53/2 42/54/2 24/55/2
f 6/56/2 4/57/2 26/58/2 27/59/2
f 1/1/1 7/2/1 2/2/1
f 8/60/5 16/61/5 24/62/5 22/63/5
f 11/64/3 7/7/3 9/9/3 43/65/3
f 1/13/2 5/66/2 44/67/2 15/14/2
f 5/68/6 11/69/6 10/70/6 4/71/6
f 1/72/4 7/73/4 11/74/4 5/75/4
f 1/76/7 16/77/7 8/78/7 7/79/7
f 45/80/3 21/20/3 20/19/3 18/81/3
f 25/24/2 46/82/2 28/83/2 23/22/2
f 28/84/8 18/85/8 20/86/8 23/87/8
f 2/88/8 3/89/8 14/90/8 13/91/8
f 47/92/2 14/93/2 3/94/2 48/95/2
f 49/96/3 50/97/3 51/98/3 52/99/3
f 53/100/2 54/101/2 55/102/2 56/103/2
f 55/104/8 52/105/8 51/106/8 56/107/8
f 53/108/4 50/109/4 49/110/4 54/111/4
f 54/112/1 49/113/1 52/114/1 55/115/1
f 50/116/5 53/117/5 56/118/5 51/119/5
f 57/120/3 58/121/3 59/122/3 60/123/3
f 61/124/2 62/125/2 63/126/2 64/127/2
f 63/128/8 60/129/8 59/130/8 64/131/8
f 61/132/4 58/133/4 57/134/4 62/135/4
f 62/136/1 57/137/1 60/138/1 63/139/1
f 58/140/5 61/141/5 64/142/5 59/143/5
f 65/144/3 66/145/3 67/146/3 68/147/3
f 69/148/2 70/149/2 71/150/2 72/151/2
f 71/152/8 68/153/8 67/154/8 72/155/8
f 69/156/4 66/157/4 65/158/4 70/159/4
f 70/160/1 65/161/1 68/162/1 71/163/1
f 66/164/5 69/165/5 72/166/5 67/167/5
f 73/168/3 74/169/3 75/170/3 76/171/3
f 77/172/2 78/173/2 79/174/2 80/175/2
f 79/176/8 76/177/8 75/178/8 80/179/8
f 77/180/4 74/181/4 73/182/4 78/183/4
f 78/184/1 73/185/1 76/186/1 79/187/1
f 74/188/5 77/189/5 80/190/5 75/191/5
f 81/192/3 82/193/3 2/194/3 13/195/3
f 48/196/4 82/197/4 81/198/4 47/199/4
f 47/200/1 81/201/1 13/202/1 14/203/1
f 82/204/5 48/205/5 3/206/5 2/207/5
f 83/208/3 84/209/3 85/210/3 86/211/3
f 87/212/2 88/213/2 89/214/2 90/215/2
f 89/216/8 86/217/8 85/218/8 90/219/8
f 87/220/4 84/221/4 83/222/4 88/223/4
f 88/224/1 83/225/1 86/226/1 89/227/1
f 84/228/5 87/229/5 90/230/5 85/231/5
f 91/232/3 92/233/3 93/234/3 94/235/3
f 95/236/2 96/237/2 97/238/2 98/239/2
f 97/240/8 94/241/8 93/242/8 98/243/8
f 95/244/4 92/245/4 91/246/4 96/247/4
f 96/248/1 91/249/1 94/250/1 97/251/1
f 92/252/5 95/253/5 98/254/5 93/255/5
f 99/256/9 100/257/9 101/258/9 102/259/9
f 103/260/2 104/261/2 99/262/2 102/263/2
f 105/264/3 106/265/3 107/266/3 108/267/3
f 103/268/4 109/269/4 110/270/4 104/271/4
f 104/272/1 110/273/1 100/274/1 99/275/1
f 109/276/5 103/277/5 102/278/5 101/279/5
f 111/280/9 105/281/9 108/282/9 112/283/9
f 113/284/2 114/285/2 111/286/2 112/287/2
f 38/288/3 37/289/3 40/290/3 39/291/3
f 113/292/4 107/293/4 106/294/4 114/295/4
f 114/296/1 106/297/1 105/298/1 111/299/1
f 107/300/5 113/301/5 112/302/5 108/303/5
f 115/304/10 36/305/10 35/306/10 116/307/10
f 116/308/2 117/309/2 118/310/2 115/311/2
f 117/312/4 34/313/4 33/314/4 118/315/4
f 118/316/1 33/317/1 36/318/1 115/319/1
f 34/320/5 117/321/5 116/322/5 35/323/5
f 26/324/11 17/325/11 18/326/11 28/327/11
f 24/328/12 23/329/12 20/330/12 22/331/12
f 41/53/2 6/56/2 27/59/2 42/54/2
f 5/1/1 11/2/1 13/2/1
f 119/332/3 8/333/3 22/334/3 120/335/3
f 12/12/3 119/332/3 120/335/3 19/336/3
f 100/337/3 110/338/3 109/339/3 101/340/3
f 121/341/13 122/342/13 123/343/13 124/344/13
f 125/345/14 121/346/14 124/347/14 126/348/14
f 127/349/15 125/350/15 126/351/15 128/352/15
f 122/353/16 127/354/16 128/355/16 123/356/16
f 122/357/8 121/358/8 125/359/8 127/360/8
f 123/361/4 128/362/4 126/363/4 124/364/4
f 10/10/3 12/12/3 19/336/3 17/365/3
f 32/366/10 39/367/10 40/368/10 29/369/10
