# Blender 4.2.3 LTS
# www.blender.org
mtllib crystallizer.mtl
o crystallizer
v 0.001368 2.500000 -0.001368
v 1.001368 2.500000 -0.000684
v 1.002009 2.250000 -0.938184
v 0.002009 2.250000 -0.938867
v 1.000043 2.250000 1.936816
v 1.937543 2.250000 1.937457
v 1.000684 2.500000 0.999316
v -0.936816 2.250000 0.997991
v -0.937457 2.250000 1.935491
v 0.000684 2.500000 0.998632
v 1.938184 2.250000 0.999957
v 0.250043 1.250000 1.936303
v 0.250000 1.250000 1.998803
v 0.250000 1.750000 1.998803
v 0.250043 1.750000 1.936303
v 0.750043 1.250000 1.936645
v 0.750043 1.750000 1.936645
v 0.750000 1.750000 1.999145
v 0.750000 1.250000 1.999145
v -0.936131 2.250000 -0.002009
v 0.000043 2.250000 1.936132
v 1.938868 2.250000 -0.000043
v 0.125770 2.500000 0.873718
v 0.126283 2.500000 0.123718
v 0.876282 2.500000 0.124231
v 0.875770 2.500000 0.874231
v 0.125770 2.750000 0.873718
v 0.126283 2.750000 0.123718
v 0.875770 2.750000 0.874230
v 0.876282 2.750000 0.124231
v 0.250855 2.750000 0.748803
v 0.750855 2.750000 0.749145
v 0.750855 2.999500 0.749145
v 0.250855 2.999500 0.748803
v 0.251197 2.750000 0.248803
v 0.751197 2.750000 0.249145
v 0.751197 2.999500 0.249145
v 0.251197 2.999500 0.248803
v 1.939509 2.250000 -0.937542
v -0.935490 2.250000 -0.939508
v 1.002052 0.500000 -1.000683
v 2.002052 0.500000 -0.999999
v 2.002052 0.000000 -0.999999
v 1.002052 -0.000000 -1.000683
v 2.001368 0.000000 0.000000
v 2.001368 0.500000 -0.000000
v 0.000000 0.000000 1.998632
v 0.000000 0.500000 1.998632
v -0.999499 0.500000 1.997949
v -0.999499 0.000000 1.997949
v 0.251197 0.625000 0.248804
v 0.751197 0.625000 0.249146
v 0.751197 0.500000 0.249146
v 0.251197 0.500000 0.248804
v 0.750855 0.625000 0.749145
v 0.250855 0.625000 0.748803
v 0.250855 0.500000 0.748803
v 0.750855 0.500000 0.749145
v 1.000000 0.500000 1.999316
v 2.000000 0.500000 2.000000
v 1.937543 0.500000 1.937457
v 1.000043 0.500000 1.936816
v 0.000043 0.500000 1.936132
v -0.937457 0.500000 1.935491
v 0.002009 0.500000 -0.938867
v 0.002052 0.500000 -1.001367
v -0.997448 0.500000 -1.002051
v -0.935490 0.500000 -0.939508
v -0.936816 0.500000 0.997991
v -0.937286 0.500000 1.685491
v -0.687286 0.500000 1.685662
v -0.686816 0.500000 0.998162
v 1.938868 0.500000 -0.000042
v 1.939338 0.500000 -0.687542
v 1.689338 0.500000 -0.687713
v 1.688868 0.500000 -0.000213
v 0.000043 1.000000 1.936132
v 1.000043 1.000000 1.936816
v 0.375043 1.750000 1.936388
v 0.375000 1.750000 1.998888
v 0.625043 1.750000 1.936559
v 0.625000 1.750000 1.999059
v 0.375000 2.000000 1.998888
v 0.375043 2.000000 1.936388
v 0.625043 2.000000 1.936559
v 0.625000 2.000000 1.999059
v 1.937543 1.000000 1.937457
v 1.938184 1.000000 0.999957
v 1.002009 2.000000 -0.938184
v 1.002009 1.000000 -0.938183
v 1.002052 1.000000 -1.000183
v 1.002052 2.000000 -1.000184
v 0.002052 2.000000 -1.000867
v 0.002052 1.000000 -1.000867
v 0.002009 2.000000 -0.938867
v 0.002009 1.000000 -0.938867
v 1.687543 0.500000 1.937286
v 1.687714 0.500000 1.687286
v 1.000214 0.500000 1.686816
v -0.998816 0.000000 0.997949
v -0.998816 0.500000 0.997949
v 0.000214 1.000000 1.686132
v 1.000214 1.000000 1.686816
v 1.687714 1.000000 1.687286
v 1.687543 1.000000 1.937286
v -0.685661 1.000000 -0.689337
v -0.686131 1.000000 -0.001837
v -0.687286 1.000000 1.685662
v -0.686816 1.000000 0.998162
v 0.001838 1.000000 -0.688867
v 1.937714 1.000000 1.687457
v 1.937714 0.500000 1.687457
v 1.939509 0.500000 -0.937542
v 1.939509 1.000000 -0.937542
v 1.939338 1.000000 -0.687542
v 1.689338 1.000000 -0.687713
v 1.689509 1.000000 -0.937713
v 1.689509 0.500000 -0.937713
v -0.935661 0.500000 -0.689508
v -0.685661 0.500000 -0.689337
v -0.935661 1.000000 -0.689508
v -0.935490 1.000000 -0.939508
v -0.685490 0.500000 -0.939337
v -0.685490 1.000000 -0.939337
v -0.687457 1.000000 1.935662
v -0.687457 0.500000 1.935662
v -0.937286 1.000000 1.685491
v -0.937457 1.000000 1.935491
v 1.938184 2.062500 0.999957
v 1.938868 2.062500 -0.000043
v 1.938868 1.000000 -0.000042
v -0.936816 1.000000 0.997991
v -0.936131 1.000000 -0.002009
v 1.001838 1.000000 -0.688183
v 1.688184 1.000000 0.999786
v 1.688868 1.000000 -0.000213
v 2.000000 0.000000 2.000000
v 1.000000 0.000000 1.999316
v 0.000214 0.500000 1.686132
v -0.936131 0.500000 -0.002008
v -0.686131 0.500000 -0.001837
v 1.002009 0.500000 -0.938183
v 0.002052 -0.000000 -1.001367
v -0.997448 -0.000000 -1.002051
v 1.938184 0.500000 0.999957
v 1.688184 0.500000 0.999786
v 2.000684 0.000000 1.000000
v 2.000684 0.500000 1.000000
v -0.998132 0.500000 -0.002051
v -0.998132 0.000000 -0.002051
v 1.001838 0.500000 -0.688183
v 0.001838 0.500000 -0.688867
v 1.001368 0.000000 -0.000683
v 1.000684 0.000000 0.999316
v 0.001368 0.000000 -0.001367
v 0.000684 0.000000 0.998633
v 1.938868 1.187500 -0.000042
v 1.938184 1.187500 0.999957
v 1.938740 2.062500 0.187457
v 1.938740 1.187500 0.187458
v 1.938312 1.187500 0.812457
v 1.938312 2.062500 0.812457
v 2.001240 2.062500 0.187500
v 2.001240 1.187500 0.187500
v 2.000812 2.062500 0.812500
v 2.000812 1.187500 0.812500
v -0.936773 2.062500 0.935491
v -0.936773 1.187500 0.935491
v -0.936174 1.187500 0.060491
v -0.936174 2.062500 0.060491
v -0.998773 2.062500 0.935449
v -0.998174 2.062500 0.060449
v -0.998174 1.187500 0.060449
v -0.998773 1.187500 0.935449
vn 0.0002 0.9662 -0.2577
vn 0.0005 0.6932 -0.7208
vn 0.0005 0.7722 -0.6354
vn -0.0005 0.6396 0.7687
vn 0.5067 0.8532 0.1238
vn 0.0928 0.9878 0.1254
vn -0.6770 0.7360 -0.0006
vn -0.8934 0.4492 -0.0006
vn -0.2577 0.9662 -0.0002
vn 0.5544 0.8323 0.0004
vn -1.0000 -0.0000 -0.0007
vn 0.7071 -0.7071 0.0005
vn 1.0000 -0.0000 0.0007
vn 0.5770 0.5773 0.5778
vn 0.4656 -0.6805 0.5658
vn -0.6409 0.7676 -0.0004
vn -0.0134 0.9966 0.0808
vn -0.1013 0.9949 -0.0001
vn -0.9732 0.2301 -0.0007
vn -0.0004 0.8264 0.5630
vn -0.0005 0.7805 0.6252
vn 0.2577 0.9662 0.0002
vn 0.0567 0.9984 -0.0000
vn -0.0380 0.9416 0.3346
vn -0.2321 0.9616 -0.1465
vn 0.3491 0.8894 -0.2951
vn 0.6448 0.5927 0.4826
vn 0.4879 0.6872 0.5382
vn -0.0001 0.9985 0.0545
vn 0.5016 0.8651 -0.0034
vn 0.0001 0.9782 -0.2077
vn -0.0007 -0.0000 1.0000
vn -0.0004 0.7658 0.6431
vn -0.3824 0.4357 0.8148
vn -0.0004 1.0000 -0.0000
vn -0.0911 0.9958 -0.0001
vn -0.0000 1.0000 -0.0000
vn -0.5777 0.5774 0.5770
vn 0.3013 0.9045 0.3017
vn -0.3633 0.9317 -0.0001
vn 0.8744 -0.0000 -0.4852
vn -0.3013 0.9045 -0.3018
vn 0.0007 -0.0000 -1.0000
vn 0.9365 -0.0000 -0.3507
vn -0.3456 -0.0002 0.9384
vn -0.5974 -0.7779 0.1951
vn 0.0008 -0.0000 -1.0000
vn -0.7623 -0.0000 -0.6472
vn 0.7522 -0.6589 0.0005
vn 0.8733 -0.4871 0.0006
vn 0.0005 0.6560 -0.7548
vn 0.6147 0.3787 0.6919
vn -0.0943 0.8588 0.5036
vn -0.0004 -0.8364 0.5481
vn -0.0007 -0.1832 0.9831
vn -0.6064 0.7951 -0.0005
vn -0.7424 0.6699 -0.0005
vn -0.0000 -1.0000 -0.0000
vn -0.0005 -0.4660 0.8848
vn -0.0875 0.6596 0.7465
vn -0.9147 0.4042 -0.0006
vn 0.7071 0.7071 0.0007
vn 0.3691 0.6162 0.6957
vn 0.6757 -0.0000 0.7372
vn 0.7071 0.7071 0.0005
vn 0.3692 0.6161 0.6958
vn 0.5067 0.8532 0.1239
vn 0.7599 0.2905 -0.5815
vn 0.6812 0.7321 0.0005
vn 0.0007 -0.5430 -0.8398
vn -0.5622 -0.5498 -0.6178
vn 0.0003 0.8596 -0.5110
vn -0.9774 -0.2114 -0.0007
vn -0.8284 -0.5601 -0.0006
vn -0.8492 0.5281 -0.0006
vn -0.6856 -0.7280 -0.0005
vn -0.3205 -0.9472 -0.0004
vn -0.1153 -0.9831 -0.1423
vn -0.1637 -0.9615 -0.2209
vn -0.1663 -0.9861 -0.0001
vn 0.2063 -0.8114 -0.5468
vn -0.3714 -0.9285 -0.0003
vn -0.1151 -0.9566 0.2677
vn 0.0003 -0.9285 -0.3713
vn 0.4998 -0.0001 0.8661
vn 0.6130 -0.0000 0.7901
vn 0.9946 -0.0000 -0.1042
vn 0.1099 -0.0000 -0.9939
vn 0.7405 -0.0000 -0.6721
vn 0.3531 -0.6299 0.6918
vn 0.3004 -0.7688 0.5645
vn -0.3684 -0.0000 -0.9297
vn -0.7302 0.0975 -0.6762
vn 0.8187 -0.0000 0.5742
vn 0.9066 0.0002 0.4220
vn -0.7066 -0.0000 -0.7076
vn 0.5777 0.5774 -0.5770
vn 0.6451 -0.0812 0.7598
vn 0.4599 0.0004 0.8880
vn 0.4809 -0.0000 -0.8768
vn -0.9569 -0.0000 -0.2904
vn -0.2675 -0.6848 -0.6778
vn 0.6454 -0.0810 0.7596
vn -0.4439 -0.0000 0.8961
vn -0.5651 -0.0000 0.8250
vn 0.4599 -0.0000 0.8880
vn -0.7071 -0.7071 -0.0004
vn -0.9732 0.2300 -0.0007
vn -0.0004 -0.8365 0.5480
vn 0.0001 -0.9926 -0.1216
vn -0.6738 -0.7389 -0.0005
vn -0.5440 -0.8391 -0.0004
vn -0.5439 -0.8391 -0.0003
vn 0.0003 -0.9285 -0.3714
vn 0.2272 -0.9738 0.0002
vn 0.0985 -0.9951 0.0001
vn 0.0421 -0.9991 -0.0000
vn 0.3714 -0.9285 0.0003
vn -0.0001 -0.9847 0.1742
vn -0.0003 -0.9285 0.3714
vn -0.0005 -0.7122 0.7020
vn -0.0001 -0.9828 0.1844
vn 0.0003 0.9083 -0.4183
vn 0.0005 -0.6239 -0.7815
vn -0.5132 -0.6910 -0.5091
vn 0.0004 -0.8307 -0.5568
vn 0.1077 -0.9942 0.0001
vn 0.0864 -0.9963 -0.0000
vn 0.4781 0.8783 0.0003
vn 0.1308 0.9914 0.0001
vn 0.8104 0.5858 0.0005
vn 0.9089 0.4171 0.0006
vn -0.9788 0.2047 -0.0007
vn -0.5654 -0.8248 -0.0004
vn -0.5770 0.5774 -0.5777
vn 0.7071 0.7071 0.0004
vn 0.0006 -0.5182 -0.8553
vn 0.0007 0.4996 -0.8663
vn 0.6729 0.6728 -0.3074
vn 0.7076 -0.0000 -0.7066
vn 0.6608 0.0921 0.7449
vn 0.7060 -0.0000 0.7082
vn -0.7076 -0.0000 0.7066
vn -0.5071 0.3002 -0.8079
vn -0.4607 -0.3863 -0.7991
vn -0.8150 -0.4101 0.4095
vn 0.0005 0.7075 -0.7067
vn 0.0006 -0.6485 -0.7612
vt 0.117188 0.718750
vt 0.242188 0.718750
vt 0.242188 0.843750
vt 0.117188 0.843750
vt -0.000000 0.843750
vt 0.539062 0.867188
vt 0.531250 0.867188
vt 0.531250 0.929688
vt 0.539062 0.929688
vt 0.460938 0.867188
vt 0.460938 0.929688
vt 0.468750 0.929688
vt 0.468750 0.867188
vt 0.132812 0.703125
vt 0.226562 0.703125
vt 0.265625 0.968750
vt 0.265625 0.875000
vt 0.296875 0.875000
vt 0.296875 0.968750
vt 0.312500 0.953125
vt 0.312500 0.890625
vt 0.343750 0.890625
vt 0.343750 0.953125
vt 0.406250 0.953125
vt 0.406250 0.890625
vt 0.125000 0.695312
vt -0.000000 0.695312
vt -0.000000 0.632812
vt 0.125000 0.632812
vt 0.250000 0.632812
vt 0.375000 0.632812
vt 0.375000 0.695312
vt 0.250000 0.695312
vt 0.328125 0.875000
vt 0.265625 0.859375
vt 0.328125 0.859375
vt 0.257812 0.968750
vt 0.257812 0.843750
vt 0.265625 0.851562
vt 0.250000 0.843750
vt 0.250000 0.968750
vt 0.242188 0.968750
vt 0.242188 0.851562
vt 0.335938 1.000000
vt 0.250000 1.000000
vt 0.335938 0.968750
vt 0.242188 1.000000
vt 0.117188 1.000000
vt 0.476562 0.937500
vt 0.460938 0.937500
vt 0.476562 0.929688
vt 0.531250 0.859375
vt 0.468750 0.859375
vt 0.539062 0.937500
vt 0.523438 0.937500
vt 0.523438 0.929688
vt 0.484375 0.929688
vt 0.484375 0.960938
vt 0.476562 0.960938
vt 0.515625 0.968750
vt 0.484375 0.968750
vt 0.515625 0.960938
vt 0.515625 0.929688
vt 0.523438 0.960938
vt -0.000000 1.000000
vt 0.382812 0.687500
vt 0.382812 0.562500
vt 0.390625 0.562500
vt 0.390625 0.687500
vt 0.515625 0.687500
vt 0.515625 0.562500
vt 0.515625 0.695312
vt 0.390625 0.695312
vt 0.390625 0.554688
vt 0.515625 0.554688
vt 0.523438 0.562500
vt 0.523438 0.687500
vt 0.117188 0.968750
vt 0.460938 1.000000
vt 0.546875 1.000000
vt 0.546875 0.968750
vt 0.460938 0.968750
vt 0.453125 0.695312
vt 0.328125 0.695312
vt 0.328125 0.726562
vt 0.453125 0.726562
vt 0.539062 0.726562
vt 0.539062 0.695312
vt 0.421875 0.851562
vt 0.242188 0.726562
vt 0.359375 0.851562
vt 0.000000 0.757812
vt 0.031250 0.695312
vt 0.031250 0.757812
vt 0.062500 0.695312
vt 0.062500 0.757812
vt 0.242188 0.976562
vt 0.117188 0.976562
vt 0.242188 0.695312
vt 0.539062 0.914062
vt 0.656250 0.882812
vt 0.539062 1.000000
vt 0.539062 0.789062
vt 0.656250 0.820312
vt 0.539062 0.703125
vt 0.625000 0.703125
vt 0.718750 0.820312
vt 0.750000 0.703125
vt 0.835938 0.703125
vt 0.835938 0.789062
vt 0.835938 1.000000
vt 0.718750 0.882812
vt 0.835938 0.914062
vt 0.750000 1.000000
vt 0.625000 1.000000
vt 0.914062 0.328125
vt 0.914062 0.453125
vt 0.789062 0.453125
vt 0.789062 0.328125
vt 0.914062 0.578125
vt 0.789062 0.578125
vt 0.789062 0.703125
vt 0.914062 0.703125
vt 0.664062 0.453125
vt 0.664062 0.328125
vt 0.539062 0.453125
vt 0.539062 0.328125
vt 0.664062 0.578125
vt 0.539062 0.578125
vt 0.664062 0.703125
vt 0.117188 0.867188
vt 0.242188 0.867188
vt 0.218750 0.976562
vt 0.218750 0.867188
vt 0.140625 0.867188
vt 0.140625 0.976562
vt 0.093750 0.515625
vt 0.093750 0.625000
vt 0.085938 0.625000
vt 0.085938 0.515625
vt 0.007812 0.625000
vt 0.007812 0.515625
vt 0.007812 0.507812
vt 0.085938 0.507812
vt 0.085938 0.632812
vt 0.007812 0.632812
vt 0.000000 0.625000
vt 0.000000 0.515625
vt 0.210938 0.921875
vt 0.210938 0.882812
vt 0.148438 0.882812
vt 0.148438 0.921875
vt 0.210938 0.625000
vt 0.101562 0.625000
vt 0.101562 0.515625
vt 0.210938 0.515625
vt 0.101562 0.507812
vt 0.210938 0.507812
vt 0.218750 0.515625
vt 0.218750 0.625000
vt 0.210938 0.632812
vt 0.101562 0.632812
vt 0.125000 0.976562
vt 0.234375 0.976562
vt 0.234375 0.867188
vt 0.125000 0.867188
s 1
usemtl crystallizerMaterial
f 1/1/1 2/2/1 3/3/2 4/4/3
f 5/4/4 6/5/5 7/1/6
f 8/4/7 9/5/8 10/1/9
f 6/5/5 11/4/10 7/1/6
f 12/6/11 13/7/11 14/8/11 15/9/11
f 16/10/12 17/11/13 18/12/14 19/13/15
f 8/4/16 10/1/17 1/2/18 20/3/19
f 9/5/20 21/4/21 10/1/17
f 7/1/6 11/4/10 22/3/22 2/2/23
f 23/14/24 24/15/25 1/2/18 10/1/17
f 25/15/26 26/14/27 7/1/6 2/2/23
f 26/14/27 23/15/24 10/2/17 7/1/6
f 24/14/25 25/15/26 2/2/23 1/1/18
f 24/16/25 23/17/24 27/18/11 28/19/11
f 23/16/24 26/17/27 29/18/28 27/19/29
f 26/16/27 25/17/26 30/18/30 29/19/28
f 25/16/26 24/17/25 28/18/31 30/19/30
f 31/20/32 32/21/32 33/22/33 34/23/34
f 31/21/35 35/20/36 28/19/37 27/18/38
f 36/21/37 32/20/39 29/19/28 30/18/30
f 32/21/37 31/20/37 27/19/29 29/18/28
f 35/21/37 36/20/37 30/19/30 28/18/31
f 34/24/34 33/23/33 37/22/37 38/25/40
f 35/20/36 31/21/35 34/22/34 38/23/40
f 36/20/41 35/21/42 38/22/43 37/23/44
f 32/20/13 36/21/41 37/22/44 33/23/14
f 22/4/22 39/5/22 2/1/22
f 3/4/2 2/1/1 39/5/1
f 4/4/3 40/5/1 1/1/1
f 20/4/9 1/1/9 40/5/9
f 41/26/43 42/27/43 43/28/43 44/29/43
f 45/30/13 43/31/13 42/32/13 46/33/13
f 47/29/32 48/26/32 49/27/45 50/28/46
f 51/34/47 52/17/43 53/35/43 54/36/48
f 55/17/32 56/34/32 57/36/32 58/35/32
f 58/36/13 53/35/13 52/17/49 55/34/50
f 56/34/11 51/17/47 54/35/48 57/36/11
f 59/37/37 60/38/37 61/39/37 62/16/37
f 49/40/37 48/41/37 63/42/37 64/43/37
f 65/16/37 66/37/51 67/38/37 68/39/37
f 69/44/37 70/45/37 71/41/37 72/46/37
f 73/44/37 74/45/52 75/41/53 76/46/37
f 77/4/54 78/3/55 5/47/4 21/48/21
f 79/49/56 15/50/37 14/11/37 80/51/57
f 12/52/58 16/53/12 19/13/15 13/7/59
f 10/2/17 21/3/21 5/4/4 7/1/6
f 17/54/37 81/55/37 82/56/37 18/9/37
f 79/51/56 80/57/57 83/58/60 84/59/61
f 85/60/62 84/61/61 83/58/60 86/62/63
f 80/57/57 82/63/64 86/62/63 83/58/60
f 82/63/64 81/56/65 85/64/13 86/62/66
f 6/65/67 87/5/13 88/4/13 11/48/10
f 89/66/68 90/67/13 91/68/13 92/69/69
f 93/70/43 92/69/43 91/68/70 94/71/71
f 95/72/72 89/73/68 92/69/69 93/70/37
f 90/74/58 96/75/73 94/71/71 91/68/70
f 96/76/73 95/77/11 93/70/11 94/71/71
f 4/47/3 3/48/2 89/78/68 95/42/72
f 62/79/37 97/80/37 98/81/37 99/82/37
f 100/30/74 50/31/46 49/32/45 101/33/75
f 78/83/55 77/84/54 102/85/58 103/86/58
f 103/86/58 104/87/76 105/88/77 78/83/58
f 106/87/78 51/89/79 107/86/80
f 108/90/81 109/85/82 56/91/83
f 106/87/78 110/86/84 51/89/79
f 105/92/32 97/27/32 61/93/85 87/94/86
f 98/93/11 97/95/11 105/96/77 104/94/76
f 98/95/43 104/96/43 111/94/43 112/93/87
f 87/92/86 61/27/85 112/93/87 111/94/43
f 74/27/52 113/93/88 114/94/89 115/92/90
f 75/93/53 74/95/52 115/96/90 116/94/91
f 75/95/53 116/96/11 117/94/92 118/93/93
f 118/93/93 117/94/92 114/92/89 113/27/88
f 119/93/32 120/95/94 106/96/95 121/94/32
f 68/27/11 119/93/11 121/94/11 122/92/96
f 123/95/97 124/96/13 106/94/95 120/93/94
f 123/27/43 68/93/43 122/94/43 124/92/43
f 108/96/81 125/94/98 126/93/99 71/95/100
f 70/95/101 127/96/102 108/94/81 71/93/100
f 125/94/103 128/92/104 64/27/105 126/93/106
f 70/27/101 64/93/105 128/94/104 127/92/102
f 3/48/43 39/65/43 114/5/43 90/4/43
f 22/48/13 11/47/13 129/97/13 130/98/13
f 22/48/13 131/4/13 114/5/13 39/65/13
f 40/65/43 4/48/43 96/4/43 122/5/43
f 9/65/8 8/48/7 132/4/107 128/5/11
f 20/48/108 40/65/11 122/5/11 133/4/11
f 9/65/20 128/5/32 77/4/109 21/48/21
f 5/48/4 78/4/55 87/5/32 6/65/32
f 56/91/82 109/85/82 107/86/80 51/89/79
f 134/85/110 90/84/58 117/99/58 116/90/58
f 90/84/58 134/85/110 110/86/84 96/83/58
f 106/87/58 124/88/58 96/83/58 110/86/58
f 106/87/78 107/86/80 133/83/111 121/88/58
f 132/84/112 133/83/111 107/86/80 109/85/58
f 108/90/81 127/99/102 132/84/113 109/85/58
f 116/90/114 52/91/114 134/85/114
f 52/91/114 51/89/79 110/86/84 134/85/110
f 135/86/115 88/83/58 111/88/58 104/87/116
f 88/83/58 135/86/58 136/85/117 131/84/58
f 116/90/91 115/99/90 131/84/58 136/85/117
f 104/87/116 55/89/118 135/86/115
f 116/90/91 136/85/117 52/91/118
f 55/89/50 52/91/49 136/85/118 135/86/118
f 108/90/81 102/85/119 77/84/58 125/99/98
f 108/90/81 56/91/83 102/85/119
f 104/87/120 103/86/120 55/89/120
f 55/89/120 103/86/120 102/85/119 56/91/83
f 13/13/59 19/7/15 18/8/32 14/12/32
f 137/31/32 60/32/32 59/33/32 138/30/121
f 138/30/121 59/33/32 48/26/32 47/29/122
f 126/45/37 63/44/37 139/46/37 71/41/37
f 63/44/37 62/79/37 99/82/37 139/46/37
f 119/80/37 140/79/37 141/82/37 120/81/37
f 140/79/37 69/44/37 72/46/37 141/82/37
f 113/43/37 42/40/37 41/41/123 142/42/37
f 142/38/37 41/40/123 66/41/51 65/37/37
f 67/32/43 66/33/51 143/30/124 144/31/125
f 66/33/51 41/26/123 44/29/126 143/30/124
f 112/80/37 145/79/37 146/82/37 98/81/37
f 145/79/37 73/44/37 76/46/37 146/82/37
f 137/28/127 147/29/128 148/26/129 60/27/130
f 147/29/13 45/30/13 46/33/131 148/26/132
f 101/33/75 149/26/133 150/29/11 100/30/74
f 144/28/125 150/29/134 149/26/11 67/27/135
f 149/41/133 101/40/75 69/38/37 140/37/37
f 140/42/37 68/43/37 67/40/37 149/41/37
f 64/39/37 69/16/37 101/37/75 49/38/37
f 141/100/37 54/101/37 120/102/37
f 54/101/37 141/100/37 72/103/37 57/104/37
f 71/105/37 57/104/37 72/103/37
f 71/105/37 139/106/37 57/104/37
f 59/37/37 62/41/37 63/40/37 48/38/37
f 58/107/37 57/104/37 139/106/37 99/108/37
f 98/109/37 58/107/37 99/108/37
f 98/109/37 146/110/37 58/107/37
f 148/41/129 145/42/37 61/43/37 60/40/130
f 73/16/37 46/37/136 42/38/37 113/39/37
f 148/38/132 46/37/131 73/41/37 145/40/37
f 75/111/53 53/112/37 76/113/37
f 58/107/37 146/110/37 76/113/37 53/112/37
f 151/114/37 53/112/37 75/111/53
f 53/112/37 151/114/37 152/115/37 54/101/37
f 120/102/37 54/101/37 152/115/37
f 123/45/37 120/41/37 152/46/37 65/44/37
f 152/46/37 151/82/37 142/79/37 65/44/37
f 151/82/37 75/81/53 118/80/93 142/79/37
f 43/116/58 45/117/58 153/118/58 44/119/126
f 45/117/58 147/120/128 154/121/58 153/118/58
f 138/122/121 154/121/58 147/120/128 137/123/127
f 44/119/126 153/118/58 155/124/58 143/125/124
f 143/125/124 155/124/58 150/126/134 144/127/125
f 150/126/134 155/124/58 156/128/58 100/129/74
f 155/124/58 153/118/58 154/121/58 156/128/58
f 100/129/74 156/128/58 47/130/122 50/105/46
f 138/122/121 47/130/122 156/128/58 154/121/58
f 131/4/13 157/131/13 158/132/13 88/3/13
f 159/133/13 160/134/13 157/132/13 130/97/13
f 129/98/13 158/131/13 161/135/13 162/136/13
f 160/137/137 159/138/138 163/139/139 164/140/140
f 165/141/141 166/142/142 164/140/140 163/139/139
f 161/143/58 160/144/137 164/140/140 166/142/58
f 159/145/138 162/146/37 165/141/141 163/139/139
f 162/147/32 161/148/32 166/142/142 165/141/141
f 167/149/13 168/150/13 169/151/13 170/152/13
f 171/153/143 172/154/144 173/155/145 174/156/146
f 170/138/147 169/137/148 173/155/145 172/154/144
f 169/157/148 168/158/58 174/156/146 173/155/145
f 168/159/32 167/160/32 171/153/143 174/156/146
f 167/161/37 170/162/147 172/154/144 171/153/37
f 8/47/16 20/48/19 170/163/11 167/164/11
f 132/3/112 8/47/11 167/164/11 168/165/11
f 133/4/111 132/3/112 168/165/11 169/166/11
f 20/48/19 133/4/11 169/166/11 170/163/11
