# Blender 4.2.3 LTS
# www.blender.org
mtllib crystallizer_mirrored.mtl
o cube
v 0.750000 3.413043 -0.375628
v 0.750000 3.279424 -0.857443
v 0.750000 3.051682 -0.275413
v 0.750000 2.918063 -0.757229
v 0.250000 3.413043 -0.375628
v 0.250000 3.279424 -0.857443
v 0.250000 3.051682 -0.275413
v 0.250000 2.918063 -0.757229
v 0.812500 3.068384 1.215187
v 0.812500 2.901360 1.817456
v 0.812500 2.887704 1.165080
v 0.812500 2.720680 1.767349
v 0.187500 3.068384 1.215187
v 0.187500 2.901360 1.817456
v 0.187500 2.887704 1.165080
v 0.187500 2.720680 1.767349
v 1.215187 3.068384 0.187500
v 1.817456 2.901360 0.187500
v 1.165079 2.887704 0.187500
v 1.767349 2.720680 0.187500
v 1.215187 3.068384 0.812500
v 1.817456 2.901360 0.812500
v 1.165079 2.887704 0.812500
v 1.767349 2.720680 0.812500
v -0.215187 3.068384 0.187500
v -0.817456 2.901360 0.187500
v -0.165079 2.887704 0.187500
v -0.767349 2.720680 0.187500
v -0.215187 3.068384 0.812500
v -0.817456 2.901360 0.812500
v -0.165079 2.887704 0.812500
v -0.767349 2.720680 0.812500
v 0.937500 3.375000 0.062500
v 0.937500 3.375000 0.937500
v 0.937500 3.000000 0.062500
v 0.937500 3.000000 0.937500
v 0.062500 3.375000 0.062500
v 0.062500 3.375000 0.937500
v 0.062500 3.000000 0.062500
v 0.062500 3.000000 0.937500
v 0.750000 3.413043 1.375628
v 0.750000 3.279424 1.857443
v 0.750000 3.051682 1.275414
v 0.750000 2.918063 1.757229
v 0.250000 3.413043 1.375628
v 0.250000 3.279424 1.857443
v 0.250000 3.051682 1.275414
v 0.250000 2.918063 1.757229
v -0.250000 1.687500 -0.937500
v -0.250000 1.687500 -1.000000
v -0.250000 1.312500 -0.937500
v -0.250000 1.312500 -1.000000
v -0.625000 1.687500 -0.937500
v -0.625000 1.687500 -1.000000
v -0.625000 1.312500 -0.937500
v -0.625000 1.312500 -1.000000
v -0.375628 3.413043 0.250000
v -0.857443 3.279424 0.250000
v -0.275414 3.051682 0.250000
v -0.757229 2.918063 0.250000
v -0.375628 3.413043 0.750000
v -0.857443 3.279424 0.750000
v -0.275414 3.051682 0.750000
v -0.757229 2.918063 0.750000
v 1.375628 3.413043 0.250000
v 1.857443 3.279424 0.250001
v 1.275414 3.051682 0.250000
v 1.757229 2.918063 0.250000
v 1.375628 3.413043 0.750000
v 1.857443 3.279424 0.750001
v 1.275414 3.051682 0.750000
v 1.757229 2.918063 0.750000
v -0.062500 1.562500 2.006250
v -0.687500 1.562500 2.006250
v -0.062500 1.562500 1.818750
v -0.687500 1.562500 1.818750
v -0.062500 2.187500 2.006250
v -0.687500 2.187500 2.006250
v -0.062500 2.187500 1.818750
v -0.687500 2.187500 1.818750
v 1.687500 1.812500 2.006250
v 1.062500 1.812500 2.006250
v 1.687500 1.812500 1.818750
v 1.062500 1.812500 1.818750
v 1.687500 2.437500 2.006250
v 1.062500 2.437500 2.006250
v 1.687500 2.437500 1.818750
v 1.062500 2.437500 1.818750
v 1.687500 1.625000 -1.006249
v 1.062500 1.625000 -1.006250
v 1.687500 1.625000 -0.818750
v 1.062500 1.625000 -0.818750
v 1.687500 2.250000 -1.006249
v 1.062500 2.250000 -1.006250
v 1.687500 2.250000 -0.818750
v 1.062500 2.250000 -0.818750
v 1.000000 1.000000 -0.000000
v 1.000000 1.000000 1.000000
v 1.000000 0.000000 0.000000
v 1.000000 0.000000 1.000000
v 2.000001 1.000000 -0.000000
v 2.000001 1.000000 1.000000
v 2.000001 0.000000 0.000000
v 2.000001 0.000000 1.000000
v 0.000000 1.000000 -0.000000
v 0.000000 1.000000 1.000000
v 0.000000 0.000000 0.000000
v 0.000000 0.000000 1.000000
v -1.000000 1.000000 -0.000000
v -1.000000 1.000000 1.000000
v -1.000000 0.000000 0.000000
v -1.000000 0.000000 1.000000
v -0.937500 2.375000 0.125000
v -1.000000 2.375000 0.125000
v -0.937500 1.375000 0.125000
v -1.000000 1.375000 0.125000
v -0.937500 2.375000 0.875000
v -1.000000 2.375000 0.875000
v -0.937500 1.375000 0.875000
v -1.000000 1.375000 0.875000
v 0.625000 2.125000 1.937500
v 0.625000 2.125000 2.000000
v 0.625000 1.937500 1.937500
v 0.625000 1.937500 2.000000
v 0.375000 2.125000 1.937500
v 0.375000 2.125000 2.000000
v 0.375000 1.937500 1.937500
v 0.375000 1.937500 2.000000
v 0.937500 1.937500 1.937500
v 0.937500 1.937500 2.000000
v 0.937500 1.062500 1.937500
v 0.937500 1.062500 2.000000
v 0.062500 1.937500 1.937500
v 0.062500 1.937500 2.000000
v 0.062500 1.062500 1.937500
v 0.062500 1.062500 2.000000
v 1.812500 1.000000 1.562500
v 1.812500 1.000000 1.812500
v 1.812500 0.500000 1.562500
v 1.812500 0.500000 1.812500
v 1.562500 1.000000 1.562500
v 1.562500 1.000000 1.812500
v 1.562500 0.500000 1.562500
v 1.562500 0.500000 1.812500
v 1.937500 0.937500 -0.937500
v 1.937500 0.937500 1.937500
v -0.937500 0.937500 -0.937500
v -0.937500 0.937500 1.937500
v 1.000000 0.687500 -0.000000
v 1.000000 0.687500 1.000000
v 0.000000 0.687500 1.000000
v 0.000000 0.687500 -0.000000
v 1.812500 1.000000 -0.812500
v 1.812500 1.000000 -0.562500
v 1.812500 0.500000 -0.812500
v 1.812500 0.500000 -0.562500
v 1.562500 1.000000 -0.812500
v 1.562500 1.000000 -0.562500
v 1.562500 0.500000 -0.812500
v 1.562500 0.500000 -0.562500
v -0.562500 1.000000 -0.812500
v -0.562500 1.000000 -0.562500
v -0.562500 0.500000 -0.812500
v -0.562500 0.500000 -0.562500
v -0.812500 1.000000 -0.812500
v -0.812500 1.000000 -0.562500
v -0.812500 0.500000 -0.812500
v -0.812500 0.500000 -0.562500
v -0.562500 1.000000 1.562500
v -0.562500 1.000000 1.812500
v -0.562500 0.500000 1.562500
v -0.562500 0.500000 1.812500
v -0.812500 1.000000 1.562500
v -0.812500 1.000000 1.812500
v -0.812500 0.500000 1.562500
v -0.812500 0.500000 1.812500
v 1.937500 2.750000 -0.937500
v 1.937500 2.750000 1.937500
v 1.937500 0.937500 -0.937500
v 1.937500 0.937500 1.937500
v -0.937500 2.750000 -0.937500
v -0.937500 2.750000 1.937500
v -0.937500 0.937500 -0.937500
v -0.937500 0.937500 1.937500
v 1.937500 2.750000 -0.937500
v 1.937500 2.750000 1.937500
v -0.937500 2.750000 -0.937500
v -0.937500 2.750000 1.937500
v 1.000000 3.000000 -0.000000
v 1.000000 3.000000 1.000000
v 0.000000 3.000000 1.000000
v 0.000000 3.000000 -0.000000
v 1.000000 0.687500 -0.000000
v 1.000000 0.687500 1.000000
v 1.000000 0.500000 -0.000000
v 1.000000 0.500000 1.000000
v 0.000000 0.687500 -0.000000
v 0.000000 0.687500 1.000000
v 0.000000 0.500000 -0.000000
v 0.000000 0.500000 1.000000
v 1.937500 2.125000 -0.562500
v 2.000001 2.125000 -0.562500
v 1.937500 1.500000 -0.562500
v 2.000001 1.500000 -0.562500
v 1.937500 2.125000 0.312500
v 2.000001 2.125000 0.312500
v 1.937500 1.500000 0.312500
v 2.000001 1.500000 0.312500
v 2.000001 0.500000 -1.000000
v 2.000001 0.500000 2.000000
v 2.000001 -0.000000 -1.000000
v 2.000001 0.000000 2.000000
v -1.000000 0.500000 -1.000000
v -1.000000 0.500000 2.000000
v -1.000000 -0.000000 -1.000000
v -1.000000 0.000000 2.000000
v -1.000000 0.000000 1.000000
v -1.000000 0.500000 1.000000
v -1.000000 0.000000 0.000000
v -1.000000 0.500000 -0.000000
v 2.000001 0.000000 0.000000
v 2.000001 0.500000 -0.000000
v 2.000001 0.000000 1.000000
v 2.000001 0.500000 1.000000
v 0.625000 2.125000 -0.937500
v 0.625000 2.125000 -1.000000
v 0.625000 1.937500 -0.937500
v 0.625000 1.937500 -1.000000
v 0.375000 2.125000 -0.937500
v 0.375000 2.125000 -1.000000
v 0.375000 1.937500 -0.937500
v 0.375000 1.937500 -1.000000
v 0.937500 1.937500 -0.937500
v 0.937500 1.937500 -1.000000
v 0.937500 1.062500 -0.937500
v 0.937500 1.062500 -1.000000
v 0.062500 1.937500 -0.937500
v 0.062500 1.937500 -1.000000
v 0.062500 1.062500 -0.937500
v 0.062500 1.062500 -1.000000
v 0.812500 3.068384 -0.215186
v 0.812500 2.901360 -0.817455
v 0.812500 2.887704 -0.165079
v 0.812500 2.720680 -0.767348
v 0.187500 3.068384 -0.215186
v 0.187500 2.901360 -0.817455
v 0.187500 2.887704 -0.165079
v 0.187500 2.720680 -0.767348
v 1.937500 2.312500 0.625000
v 2.000001 2.312500 0.625000
v 1.937500 1.187500 0.625000
v 2.000001 1.187500 0.625000
v 1.937500 2.312500 1.500000
v 2.000001 2.312500 1.500000
v 1.937500 1.187500 1.500000
v 2.000001 1.187500 1.500000
v 0.625000 1.000000 1.562500
v 0.625000 1.000000 1.812500
v 0.625000 0.500000 1.562500
v 0.625000 0.500000 1.812500
v 0.375000 1.000000 1.562500
v 0.375000 1.000000 1.812500
v 0.375000 0.500000 1.562500
v 0.375000 0.500000 1.812500
v 0.625000 1.000000 -0.812500
v 0.625000 1.000000 -0.562500
v 0.625000 0.500000 -0.812500
v 0.625000 0.500000 -0.562500
v 0.375000 1.000000 -0.812500
v 0.375000 1.000000 -0.562500
v 0.375000 0.500000 -0.812500
v 0.375000 0.500000 -0.562500
v -0.937500 2.000000 -0.687500
v -1.000000 2.000000 -0.687500
v -0.937500 1.500000 -0.687500
v -1.000000 1.500000 -0.687500
v -0.937500 2.000000 -0.125000
v -1.000000 2.000000 -0.125000
v -0.937500 1.500000 -0.125000
v -1.000000 1.500000 -0.125000
v -0.937500 1.750000 1.125000
v -1.000000 1.750000 1.125000
v -0.937500 1.375000 1.125000
v -1.000000 1.375000 1.125000
v -0.937500 1.750000 1.500000
v -1.000000 1.750000 1.500000
v -0.937500 1.375000 1.500000
v -1.000000 1.375000 1.500000
v -0.937500 2.250000 1.375000
v -1.000000 2.250000 1.375000
v -0.937500 1.875000 1.375000
v -1.000000 1.875000 1.375000
v -0.937500 2.250000 1.750000
v -1.000000 2.250000 1.750000
v -0.937500 1.875000 1.750000
v -1.000000 1.875000 1.750000
vn 1.0000 -0.0000 -0.0000
vn -1.0000 -0.0000 -0.0000
vn -0.0000 0.9636 -0.2672
vn -0.0000 -0.9636 0.2672
vn -0.0000 0.2672 0.9636
vn -0.0000 -0.2672 -0.9636
vn -0.0000 0.9636 0.2672
vn -0.0000 -0.9636 -0.2672
vn -0.0000 0.2672 -0.9636
vn -0.0000 -0.2672 0.9636
vn -0.0000 -0.0000 -1.0000
vn -0.0000 -0.0000 1.0000
vn 0.2672 0.9636 -0.0000
vn -0.2672 -0.9636 -0.0000
vn -0.9636 0.2672 -0.0000
vn 0.9636 -0.2672 -0.0000
vn -0.2672 0.9636 -0.0000
vn 0.2672 -0.9636 -0.0000
vn 0.9636 0.2672 -0.0000
vn -0.9636 -0.2672 -0.0000
vn -0.0000 1.0000 -0.0000
vn -0.0000 -1.0000 -0.0000
vn -0.2577 0.9662 -0.0000
vn -0.0000 0.9662 -0.2577
vn 0.2577 0.9662 -0.0000
vn -0.0000 0.9662 0.2577
vt 0.178571 0.142857
vt 0.178571 0.089286
vt 0.250000 0.089286
vt 0.250000 0.142857
vt 0.035714 0.107143
vt 0.035714 0.035714
vt 0.107143 0.035714
vt 0.107143 0.107143
vt 0.401786 0.535714
vt 0.312500 0.535714
vt 0.312500 0.562500
vt 0.401786 0.562500
vt 0.401786 0.437500
vt 0.312500 0.437500
vt 0.312500 0.526786
vt 0.401786 0.526786
vt 0.839286 0.080357
vt 0.714286 0.080357
vt 0.714286 0.133929
vt 0.839286 0.133929
vt 0.705357 0.008929
vt 0.580357 0.008929
vt 0.580357 0.133929
vt 0.705357 0.133929
vt 0.044643 0.232143
vt 0.044643 0.178571
vt 0.035714 0.178571
vt 0.035714 0.232143
vt 0.089286 0.232143
vt 0.089286 0.178571
vt 0.080357 0.178571
vt 0.080357 0.232143
vt 0.089286 0.223214
vt 0.035714 0.223214
vt 0.089286 0.187500
vt 0.035714 0.187500
vt 0.098214 0.267857
vt 0.008929 0.267857
vt 0.008929 0.294643
vt 0.098214 0.294643
vt 0.276786 0.160714
vt 0.187500 0.160714
vt 0.187500 0.250000
vt 0.276786 0.250000
vt 0.857143 0.285714
vt 0.857143 0.142857
vt 0.714286 0.142857
vt 0.714286 0.285714
vt 0.571429 0.285714
vt 0.571429 0.142857
vt 0.428571 0.142857
vt 0.428571 0.285714
vt 0.857143 0.428571
vt 0.714286 0.428571
vt 0.982143 0.142857
vt 0.982143 0.000000
vt 0.973214 0.000000
vt 0.973214 0.142857
vt 0.883929 0.142857
vt 0.883929 0.000000
vt 0.875000 0.000000
vt 0.875000 0.142857
vt 0.875000 0.133929
vt 0.982143 0.133929
vt 0.875000 0.008929
vt 0.982143 0.008929
vt 0.491071 0.562500
vt 0.482143 0.562500
vt 0.482143 0.589286
vt 0.491071 0.589286
vt 0.517857 0.562500
vt 0.508929 0.562500
vt 0.508929 0.589286
vt 0.517857 0.589286
vt 0.482143 0.580357
vt 0.517857 0.580357
vt 0.446429 0.437500
vt 0.437500 0.437500
vt 0.437500 0.562500
vt 0.446429 0.562500
vt 0.562500 0.437500
vt 0.553571 0.437500
vt 0.553571 0.562500
vt 0.562500 0.562500
vt 0.562500 0.553571
vt 0.437500 0.553571
vt 0.437500 0.446429
vt 0.562500 0.446429
vt 0.169643 0.491071
vt 0.133929 0.491071
vt 0.133929 0.562500
vt 0.169643 0.562500
vt 0.008929 0.419643
vt 0.419643 0.419643
vt 0.285714 0.285714
vt 0.142857 0.285714
vt 0.848214 0.651786
vt 0.437500 0.651786
vt 0.437500 0.910714
vt 0.848214 0.910714
vt 0.142857 0.281034
vt 0.285714 0.281034
vt 0.714286 0.625000
vt 0.857143 0.625000
vt 0.857143 0.482143
vt 0.714286 0.482143
vt 0.169643 0.446429
vt 0.026786 0.446429
vt 0.026786 0.473214
vt 0.169643 0.473214
vt 0.142857 0.857143
vt 0.000000 0.857143
vt 0.000000 1.000000
vt 0.142857 1.000000
vt 0.446429 0.312500
vt 0.437500 0.312500
vt 0.437500 0.401786
vt 0.446429 0.401786
vt 0.562500 0.312500
vt 0.553571 0.312500
vt 0.553571 0.401786
vt 0.562500 0.401786
vt 0.562500 0.392857
vt 0.437500 0.392857
vt 0.437500 0.321429
vt 0.562500 0.321429
vt 0.000000 0.571429
vt 0.428571 1.000000
vt 0.428571 0.571429
vt 0.857143 0.928571
vt 0.428571 0.928571
vt 0.857143 1.000000
vt 0.562500 0.633929
vt 0.705357 0.633929
vt 0.705357 0.562500
vt 0.517857 0.633929
vt 0.517857 0.607143
vt 0.482143 0.607143
vt 0.482143 0.633929
vt 0.589286 0.312500
vt 0.580357 0.312500
vt 0.580357 0.473214
vt 0.589286 0.473214
vt 0.705357 0.312500
vt 0.696429 0.312500
vt 0.696429 0.473214
vt 0.705357 0.473214
vt 0.580357 0.464286
vt 0.705357 0.464286
vt 0.705357 0.321429
vt 0.580357 0.321429
vt 0.321429 0.250000
vt 0.321429 0.178571
vt 0.312500 0.178571
vt 0.312500 0.250000
vt 0.392857 0.250000
vt 0.392857 0.178571
vt 0.383929 0.178571
vt 0.383929 0.250000
vt 0.392857 0.241071
vt 0.312500 0.241071
vt 0.392857 0.187500
vt 0.312500 0.187500
vt 0.125000 0.232143
vt 0.125000 0.178571
vt 0.116071 0.178571
vt 0.116071 0.232143
vt 0.169643 0.232143
vt 0.169643 0.178571
vt 0.160714 0.178571
vt 0.160714 0.232143
vt 0.169643 0.223214
vt 0.116071 0.223214
vt 0.169643 0.187500
vt 0.116071 0.187500
s 0
usemtl crystallizerMaterial
f 1/1/1 3/2/1 4/3/1 2/4/1
f 6/1/2 8/2/2 7/3/2 5/4/2
f 6/5/3 5/6/3 1/7/3 2/8/3
f 7/5/4 8/6/4 4/7/4 3/8/4
f 5/1/5 7/2/5 3/3/5 1/4/5
f 2/1/6 4/2/6 8/3/6 6/4/6
f 12/9/1 11/10/1 9/11/1 10/12/1
f 15/9/2 16/10/2 14/11/2 13/12/2
f 9/13/7 13/14/7 14/15/7 10/16/7
f 12/13/8 16/14/8 15/15/8 11/16/8
f 11/9/9 15/10/9 13/11/9 9/12/9
f 16/9/10 12/10/10 10/11/10 14/12/10
f 20/9/11 19/10/11 17/11/11 18/12/11
f 23/9/12 24/10/12 22/11/12 21/12/12
f 17/13/13 21/14/13 22/15/13 18/16/13
f 20/13/14 24/14/14 23/15/14 19/16/14
f 19/9/15 23/10/15 21/11/15 17/12/15
f 24/9/16 20/10/16 18/11/16 22/12/16
f 25/11/11 27/10/11 28/9/11 26/12/11
f 30/11/12 32/10/12 31/9/12 29/12/12
f 30/15/17 29/14/17 25/13/17 26/16/17
f 31/15/18 32/14/18 28/13/18 27/16/18
f 29/11/19 31/10/19 27/9/19 25/12/19
f 26/11/20 28/10/20 32/9/20 30/12/20
f 36/17/1 35/18/1 33/19/1 34/20/1
f 39/17/2 40/18/2 38/19/2 37/20/2
f 33/21/21 37/22/21 38/23/21 34/24/21
f 36/21/22 40/22/22 39/23/22 35/24/22
f 35/17/11 39/18/11 37/19/11 33/20/11
f 40/17/12 36/18/12 34/19/12 38/20/12
f 44/3/1 43/2/1 41/1/1 42/4/1
f 47/3/2 48/2/2 46/1/2 45/4/2
f 41/7/7 45/6/7 46/5/7 42/8/7
f 44/7/8 48/6/8 47/5/8 43/8/8
f 43/3/9 47/2/9 45/1/9 41/4/9
f 48/3/10 44/2/10 42/1/10 46/4/10
f 49/25/1 51/26/1 52/27/1 50/28/1
f 54/29/2 56/30/2 55/31/2 53/32/2
f 54/29/21 53/33/21 49/34/21 50/28/21
f 55/35/22 56/30/22 52/27/22 51/36/22
f 50/29/11 52/30/11 56/27/11 54/28/11
f 57/1/11 59/2/11 60/3/11 58/4/11
f 62/1/12 64/2/12 63/3/12 61/4/12
f 62/5/17 61/6/17 57/7/17 58/8/17
f 63/5/18 64/6/18 60/7/18 59/8/18
f 61/1/19 63/2/19 59/3/19 57/4/19
f 58/1/20 60/2/20 64/3/20 62/4/20
f 68/3/11 67/2/11 65/1/11 66/4/11
f 71/3/12 72/2/12 70/1/12 69/4/12
f 65/7/13 69/6/13 70/5/13 66/8/13
f 68/7/14 72/6/14 71/5/14 67/8/14
f 67/3/15 71/2/15 69/1/15 65/4/15
f 72/3/16 68/2/16 66/1/16 70/4/16
f 76/37/22 75/38/22 73/39/22 74/40/22
f 79/37/21 80/38/21 78/39/21 77/40/21
f 73/41/12 77/42/12 78/43/12 74/44/12
f 75/37/1 79/38/1 77/39/1 73/40/1
f 80/37/2 76/38/2 74/39/2 78/40/2
f 84/37/22 83/38/22 81/39/22 82/40/22
f 87/37/21 88/38/21 86/39/21 85/40/21
f 81/41/12 85/42/12 86/43/12 82/44/12
f 83/37/1 87/38/1 85/39/1 81/40/1
f 88/37/2 84/38/2 82/39/2 86/40/2
f 89/39/22 91/38/22 92/37/22 90/40/22
f 94/39/21 96/38/21 95/37/21 93/40/21
f 94/43/11 93/42/11 89/41/11 90/44/11
f 93/39/1 95/38/1 91/37/1 89/40/1
f 90/39/2 92/38/2 96/37/2 94/40/2
f 102/45/1 104/46/1 103/47/1 101/48/1
f 102/49/21 101/50/21 97/51/21 98/52/21
f 101/49/11 103/50/11 99/51/11 97/52/11
f 98/49/12 100/50/12 104/51/12 102/52/12
f 111/48/2 112/45/2 110/53/2 109/54/2
f 105/51/21 109/50/21 110/49/21 106/52/21
f 107/51/11 111/50/11 109/49/11 105/52/11
f 112/51/12 108/50/12 106/49/12 110/52/12
f 113/55/11 115/56/11 116/57/11 114/58/11
f 118/59/12 120/60/12 119/61/12 117/62/12
f 118/62/21 117/63/21 113/64/21 114/55/21
f 119/65/22 120/61/22 116/56/22 115/66/22
f 114/55/2 116/56/2 120/61/2 118/62/2
f 124/67/1 123/68/1 121/69/1 122/70/1
f 127/71/2 128/72/2 126/73/2 125/74/2
f 121/75/21 125/76/21 126/74/21 122/69/21
f 128/71/12 124/68/12 122/69/12 126/74/12
f 132/77/1 131/78/1 129/79/1 130/80/1
f 135/81/2 136/82/2 134/83/2 133/84/2
f 129/85/21 133/86/21 134/79/21 130/84/21
f 132/81/22 136/78/22 135/87/22 131/88/22
f 136/81/12 132/78/12 130/79/12 134/84/12
f 140/89/1 139/90/1 137/91/1 138/92/1
f 143/89/2 144/90/2 142/91/2 141/92/2
f 139/89/11 143/90/11 141/91/11 137/92/11
f 144/89/12 140/90/12 138/91/12 142/92/12
f 146/93/23 145/94/23 149/95/23 150/96/23
f 148/94/24 146/93/24 150/96/24 151/95/24
f 147/93/25 148/94/25 151/95/25 152/96/25
f 149/95/26 145/94/26 147/93/26 152/96/26
f 156/89/1 155/90/1 153/91/1 154/92/1
f 159/89/2 160/90/2 158/91/2 157/92/2
f 155/89/11 159/90/11 157/91/11 153/92/11
f 160/89/12 156/90/12 154/91/12 158/92/12
f 164/89/1 163/90/1 161/91/1 162/92/1
f 167/89/2 168/90/2 166/91/2 165/92/2
f 163/89/11 167/90/11 165/91/11 161/92/11
f 168/89/12 164/90/12 162/91/12 166/92/12
f 172/89/1 171/90/1 169/91/1 170/92/1
f 175/89/2 176/90/2 174/91/2 173/92/2
f 171/89/11 175/90/11 173/91/11 169/92/11
f 176/89/12 172/90/12 170/91/12 174/92/12
f 180/97/1 179/98/1 177/99/1 178/100/1
f 183/97/2 184/98/2 182/99/2 181/100/2
f 179/97/11 183/98/11 181/99/11 177/100/11
f 184/97/12 180/98/12 178/99/12 182/100/12
f 189/101/25 190/102/25 186/94/25 185/93/25
f 190/101/26 191/102/26 188/94/26 186/93/26
f 191/101/23 192/102/23 187/94/23 188/93/23
f 187/93/24 192/101/24 189/102/24 185/94/24
f 191/103/21 190/104/21 189/105/21 192/106/21
f 196/107/1 195/108/1 193/109/1 194/110/1
f 199/107/2 200/108/2 198/109/2 197/110/2
f 193/111/21 197/112/21 198/113/21 194/114/21
f 196/111/22 200/112/22 199/113/22 195/114/22
f 195/107/11 199/108/11 197/109/11 193/110/11
f 200/107/12 196/108/12 194/109/12 198/110/12
f 204/115/11 203/116/11 201/117/11 202/118/11
f 207/119/12 208/120/12 206/121/12 205/122/12
f 201/123/21 205/124/21 206/117/21 202/122/21
f 204/119/22 208/116/22 207/125/22 203/126/22
f 208/116/1 204/119/1 202/122/1 206/117/1
f 209/127/21 213/113/21 214/128/21 210/129/21
f 212/127/22 216/113/22 215/128/22 211/129/22
f 211/130/11 215/131/11 213/128/11 209/132/11
f 216/130/12 212/131/12 210/128/12 214/132/12
f 214/133/2 218/134/2 217/135/2 216/84/2
f 219/84/2 220/133/2 213/134/2 215/135/2
f 209/133/1 222/134/1 221/135/1 211/84/1
f 223/84/1 224/133/1 210/134/1 212/135/1
f 225/74/1 227/71/1 228/72/1 226/73/1
f 230/70/2 232/67/2 231/68/2 229/69/2
f 230/69/21 229/75/21 225/76/21 226/74/21
f 226/136/11 228/137/11 232/138/11 230/139/11
f 233/79/1 235/78/1 236/77/1 234/80/1
f 238/83/2 240/82/2 239/81/2 237/84/2
f 238/84/21 237/85/21 233/86/21 234/79/21
f 239/87/22 240/78/22 236/81/22 235/88/22
f 234/84/11 236/81/11 240/78/11 238/79/11
f 241/11/1 243/10/1 244/9/1 242/12/1
f 246/11/2 248/10/2 247/9/2 245/12/2
f 246/15/3 245/14/3 241/13/3 242/16/3
f 247/15/4 248/14/4 244/13/4 243/16/4
f 245/11/5 247/10/5 243/9/5 241/12/5
f 242/11/6 244/10/6 248/9/6 246/12/6
f 252/140/11 251/141/11 249/142/11 250/143/11
f 255/144/12 256/145/12 254/146/12 253/147/12
f 249/148/21 253/149/21 254/147/21 250/142/21
f 252/141/22 256/144/22 255/150/22 251/151/22
f 256/144/1 252/141/1 250/142/1 254/147/1
f 260/89/1 259/90/1 257/91/1 258/92/1
f 263/89/2 264/90/2 262/91/2 261/92/2
f 259/89/11 263/90/11 261/91/11 257/92/11
f 264/89/12 260/90/12 258/91/12 262/92/12
f 268/89/1 267/90/1 265/91/1 266/92/1
f 271/89/2 272/90/2 270/91/2 269/92/2
f 267/89/11 271/90/11 269/91/11 265/92/11
f 272/89/12 268/90/12 266/91/12 270/92/12
f 273/152/11 275/153/11 276/154/11 274/155/11
f 278/156/12 280/157/12 279/158/12 277/159/12
f 278/156/21 277/160/21 273/161/21 274/155/21
f 279/162/22 280/157/22 276/154/22 275/163/22
f 274/156/2 276/157/2 280/154/2 278/155/2
f 281/25/11 283/26/11 284/27/11 282/28/11
f 286/29/12 288/30/12 287/31/12 285/32/12
f 286/29/21 285/33/21 281/34/21 282/28/21
f 287/35/22 288/30/22 284/27/22 283/36/22
f 282/29/2 284/30/2 288/27/2 286/28/2
f 289/164/11 291/165/11 292/166/11 290/167/11
f 294/168/12 296/169/12 295/170/12 293/171/12
f 294/168/21 293/172/21 289/173/21 290/167/21
f 295/174/22 296/169/22 292/166/22 291/175/22
f 290/168/2 292/169/2 296/166/2 294/167/2
