# Blender 4.2.3 LTS
# www.blender.org
mtllib pelletizer_dish.mtl
o plate
v 0.562500 -0.080727 1.374999
v 0.562500 -0.080727 1.374999
v 1.375000 -0.080727 0.562499
v 1.375000 -0.080727 0.562499
v 1.375000 -0.080727 -0.562501
v 1.375000 -0.080727 -0.562501
v 0.562500 -0.080727 -1.375001
v 0.562500 -0.080727 -1.375001
v -0.562500 -0.080727 -1.375001
v -0.562500 -0.080727 -1.375001
v -1.375000 -0.080727 -0.562501
v -1.375000 -0.080727 -0.562501
v -1.375000 -0.080727 0.562499
v -1.375000 -0.080727 0.562499
v -0.562500 -0.080727 1.374999
v -0.562500 -0.080727 1.374999
v 0.562500 -0.080727 -1.250001
v 1.250000 -0.080727 -0.562501
v 1.250000 -0.080727 0.562499
v 0.562500 -0.080727 1.249999
v -1.250000 -0.080727 0.562499
v -1.250000 -0.080727 -0.562501
v -0.562500 -0.080727 -1.250001
v -0.562500 -0.080727 1.249999
v 0.562500 -0.080727 1.249999
v -0.562500 -0.080727 1.249999
v -0.562500 -0.080727 -1.250001
v 0.562500 -0.080727 -1.250001
v 0.562500 0.356773 -1.250001
v 1.250000 0.356773 -0.562501
v 0.562500 0.356773 -1.375001
v 1.375000 0.356773 -0.562501
v 1.250000 0.356773 0.562499
v 1.375000 0.356773 0.562499
v 0.562500 0.356773 1.249999
v 0.562500 0.356773 1.374999
v -1.250000 0.356773 0.562499
v -1.250000 0.356773 -0.562501
v -1.375000 0.356773 0.562499
v -1.375000 0.356773 -0.562501
v -0.562500 0.356773 -1.250001
v -0.562500 0.356773 -1.375001
v -0.562500 0.356773 1.249999
v -0.562500 0.356773 1.374999
v 0.562500 0.356773 1.249999
v -0.562500 0.356773 1.249999
v -0.562500 0.356773 -1.250001
v 0.562500 0.356773 -1.250001
v 1.375000 -0.143227 0.562499
v 0.562500 -0.143227 1.374999
v 1.375000 -0.143227 -0.562501
v 0.562500 -0.143227 -1.375001
v -0.562500 -0.143227 -1.375001
v -0.562500 -0.143227 1.374999
v -1.375000 -0.143227 0.562499
v -1.375000 -0.143227 -0.562501
v 0.562500 -0.080727 -0.562501
v 0.562500 -0.080727 -0.562501
v -0.562500 -0.080727 -0.562501
v 1.250000 -0.080727 -0.562501
v 1.250000 -0.080727 -0.562501
v 0.562500 -0.080727 -1.250001
v 0.562500 -0.080727 -1.250001
v -0.562500 -0.080727 -1.250001
v -0.562500 -0.080727 -0.562501
v -0.562500 -0.080727 -1.250001
v -1.250000 -0.080727 -0.562501
v -0.562500 -0.080727 0.562499
v -0.562500 -0.080727 0.562499
v 0.562500 -0.080727 0.562499
v 0.562500 -0.080727 0.562499
v 1.250000 -0.080727 0.562499
v -1.250000 -0.080727 -0.562501
v -1.250000 -0.080727 0.562499
v -0.562500 -0.080727 1.249999
v -1.250000 -0.080727 0.562499
v -0.562500 -0.080727 1.249999
v 0.562500 -0.080727 1.249999
v 0.562500 -0.080727 1.249999
v 1.250000 -0.080727 0.562499
v 0.187500 -0.018227 0.187499
v 0.187500 -0.018227 -0.187501
v 0.187500 -0.080727 0.187499
v 0.187500 -0.080727 -0.187501
v -0.187500 -0.018227 0.187499
v -0.187500 -0.018227 -0.187501
v -0.187500 -0.080727 0.187499
v -0.187500 -0.080727 -0.187501
v 0.187500 -0.143227 0.187499
v 0.187500 -0.143227 -0.187501
v 0.187500 -0.205727 0.187499
v 0.187500 -0.205727 -0.187501
v -0.187500 -0.143227 0.187499
v -0.187500 -0.143227 -0.187501
v -0.187500 -0.205727 0.187499
v -0.187500 -0.205727 -0.187501
vn -0.0000 -1.0000 -0.0000
vn -0.0000 1.0000 -0.0000
vn -1.0000 -0.0000 -0.0000
vn -0.7071 -0.0000 0.7071
vn 0.7071 -0.0000 -0.7071
vn 1.0000 -0.0000 -0.0000
vn -0.7071 -0.0000 -0.7071
vn 0.7071 -0.0000 0.7071
vn -0.0000 -0.0000 -1.0000
vn -0.0000 -0.0000 1.0000
vt 0.101562 0.687500
vt 0.000000 0.585938
vt 0.000000 0.445312
vt 0.101562 0.343750
vt 0.343750 0.445312
vt 0.343750 0.585938
vt 0.242188 0.687500
vt 0.242188 0.343750
vt 0.343750 0.546875
vt 0.359375 0.557692
vt 0.359375 0.676683
vt 0.343750 0.687500
vt 0.328125 0.585938
vt 0.328125 0.445312
vt 0.015625 0.445312
vt 0.015625 0.585938
vt 0.242188 0.359375
vt 0.101562 0.359375
vt 0.101562 0.671875
vt 0.242188 0.671875
vt 0.301706 1.000000
vt 0.286056 1.000000
vt 0.286056 0.945312
vt 0.301706 0.945312
vt 0.648438 0.445312
vt 0.531250 0.445312
vt 0.531250 0.390625
vt 0.648438 0.390625
vt 0.671875 0.500000
vt 0.531250 0.500000
vt 0.671875 0.445312
vt 0.301706 0.976562
vt 0.286056 0.976562
vt 0.286056 0.921875
vt 0.301706 0.921875
vt 0.340769 1.000000
vt 0.325119 1.000000
vt 0.325119 0.945312
vt 0.340769 0.945312
vt 0.348581 0.976562
vt 0.332931 0.976562
vt 0.332931 0.921875
vt 0.348581 0.921875
vt 0.371994 1.000000
vt 0.356369 1.000000
vt 0.356369 0.945312
vt 0.371994 0.945312
vt 0.301681 1.000000
vt 0.301681 0.945312
vt 0.460938 0.679688
vt 0.460938 0.539062
vt 0.468750 0.539062
vt 0.468750 0.679688
vt 0.328125 0.914062
vt 0.242188 1.000000
vt 0.242188 0.914062
vt 0.101562 0.914062
vt 0.101562 1.000000
vt 0.015625 0.914062
vt 0.101562 0.773438
vt 0.242188 0.773438
vt 0.328125 0.773438
vt 0.015625 0.773438
vt 0.546875 0.835938
vt 0.554688 0.835938
vt 0.554688 0.789062
vt 0.546875 0.789062
vt 0.507812 0.789062
vt 0.515625 0.789062
vt 0.515625 0.835938
vt 0.507812 0.835938
vt 0.554688 0.796875
vt 0.507812 0.796875
vt 0.507812 0.828125
vt 0.554688 0.828125
vt 0.632812 0.960938
vt 0.632812 0.914062
vt 0.679688 0.914062
vt 0.679688 0.960938
vt 0.671875 0.789062
vt 0.679688 0.789062
vt 0.679688 0.835938
vt 0.671875 0.835938
vt 0.632812 0.835938
vt 0.640625 0.835938
vt 0.640625 0.789062
vt 0.632812 0.789062
vt 0.679688 0.828125
vt 0.632812 0.828125
vt 0.632812 0.796875
vt 0.679688 0.796875
s 0
usemtl m_cf6d6d3a-91e2-34f7-1c6e-fb941afaafef
f 54/1/1 55/2/1 56/3/1 53/4/1
f 51/5/1 49/6/1 50/7/1 52/8/1
f 53/4/1 52/8/1 50/7/1 54/1/1
f 31/9/2 29/10/2 30/11/2 32/12/2
f 32/6/2 30/13/2 33/14/2 34/5/2
f 34/9/2 33/10/2 35/11/2 36/12/2
f 39/3/2 37/15/2 38/16/2 40/2/2
f 40/9/2 38/10/2 41/11/2 42/12/2
f 44/9/2 43/10/2 37/11/2 39/12/2
f 36/8/2 45/17/2 46/18/2 44/4/2
f 42/1/2 47/19/2 48/20/2 31/7/2
f 29/21/3 31/22/3 8/23/3 17/24/3
f 30/25/4 29/26/4 17/27/4 18/28/4
f 31/29/5 32/30/5 6/26/5 8/31/5
f 33/29/3 30/30/3 18/26/3 19/31/3
f 32/29/6 34/30/6 4/26/6 6/31/6
f 35/25/7 33/26/7 19/27/7 20/28/7
f 36/32/3 35/33/3 20/34/3 2/35/3
f 34/29/8 36/30/8 2/26/8 4/31/8
f 38/29/6 37/30/6 21/26/6 22/31/6
f 39/29/3 40/30/3 12/26/3 14/31/3
f 41/25/8 38/26/8 22/27/8 23/28/8
f 42/36/6 41/37/6 23/38/6 10/39/6
f 40/29/7 42/30/7 10/26/7 12/31/7
f 43/40/6 44/41/6 16/42/6 24/43/6
f 37/25/5 43/26/5 24/27/5 21/28/5
f 44/29/4 39/30/4 14/26/4 16/31/4
f 45/44/6 36/45/6 2/46/6 25/47/6
f 46/29/9 45/30/9 25/26/9 26/31/9
f 44/48/3 46/22/3 26/23/3 16/49/3
f 36/29/10 44/30/10 16/26/10 2/31/10
f 47/48/3 42/22/3 10/23/3 27/49/3
f 48/29/10 47/30/10 27/26/10 28/31/10
f 31/44/6 48/45/6 28/46/6 8/47/6
f 42/29/9 31/30/9 8/26/9 10/31/9
f 49/50/6 51/51/6 5/52/6 3/53/6
f 50/50/8 49/51/8 3/52/8 1/53/8
f 51/50/5 52/51/5 7/52/5 5/53/5
f 52/50/9 53/51/9 9/52/9 7/53/9
f 54/50/10 50/51/10 1/52/10 15/53/10
f 55/50/4 54/51/4 15/52/4 13/53/4
f 56/50/3 55/51/3 13/52/3 11/53/3
f 53/50/7 56/51/7 11/52/7 9/53/7
f 61/54/2 62/55/2 57/56/2
f 59/57/2 58/56/2 63/55/2 64/58/2
f 66/58/2 67/59/2 65/57/2
f 58/56/2 59/57/2 69/60/2 70/61/2
f 60/54/2 57/56/2 71/61/2 72/62/2
f 74/63/2 68/60/2 65/57/2 73/59/2
f 76/63/2 75/1/2 68/60/2
f 70/61/2 69/60/2 77/1/2 78/7/2
f 79/7/2 80/62/2 71/61/2
f 84/64/6 82/65/6 81/66/6 83/67/6
f 87/68/3 85/69/3 86/70/3 88/71/3
f 83/66/10 81/72/10 85/73/10 87/68/10
f 88/74/9 86/71/9 82/65/9 84/75/9
f 86/76/2 85/77/2 81/78/2 82/79/2
f 92/80/6 90/81/6 89/82/6 91/83/6
f 95/84/3 93/85/3 94/86/3 96/87/3
f 91/88/10 89/82/10 93/84/10 95/89/10
f 96/87/9 94/90/9 90/91/9 92/81/9
