# Blender 4.2.3 LTS
# www.blender.org
mtllib pelletizer_mirrored.mtl
o mainpart
v 1.687500 1.125000 1.937809
v 1.687500 1.125000 2.000309
v 1.687500 0.750000 1.937810
v 1.687500 0.750000 2.000310
v 1.312500 1.125000 1.937809
v 1.312500 1.125000 2.000309
v 1.312500 0.750000 1.937810
v 1.312500 0.750000 2.000310
v 2.000000 2.000000 2.000310
v 2.000000 2.000000 3.000309
v 2.000000 -0.000000 3.000310
v 1.000000 2.000000 2.000310
v 1.000000 2.000000 3.000309
v 1.000000 -0.000000 3.000310
v 1.000000 1.000000 3.000310
v 2.000000 1.000000 3.000310
v 2.000000 1.000000 2.000309
v 1.000000 1.000000 2.000309
v 1.000000 0.500000 3.000310
v 2.000000 0.500000 3.000310
v 2.000000 0.500000 2.000310
v 1.000000 0.500000 2.000310
v 0.000000 1.000000 2.000309
v 0.000000 1.000000 3.000310
v 0.000000 0.500000 3.000310
v 2.000000 0.500000 -0.999690
v 2.000000 0.000000 -0.999691
v -1.000000 0.500000 3.000310
v -1.000000 -0.000000 3.000310
v 2.000000 0.500000 1.000309
v -1.000000 0.500000 1.000309
v -1.000000 0.000000 1.000309
v 2.000000 0.000000 1.000309
v 0.500000 0.500000 1.000309
v 0.500000 0.000000 1.000309
v 2.000000 0.000000 2.000309
v 0.500000 0.000000 2.000309
v 0.500000 0.500000 2.000310
v -1.000000 0.500000 2.000310
v -1.000000 0.000000 2.000309
v 1.000000 0.500000 -0.999690
v 1.500000 0.500000 -0.999690
v 1.500000 0.500000 0.000310
v -0.500000 0.500000 3.000310
v -0.500000 0.500000 2.000310
v -1.000000 0.500000 1.500310
v 0.500000 0.500000 1.500310
v 2.000000 0.500000 1.500310
v -0.125000 0.500000 2.000310
v -0.125000 0.500000 1.500310
v 0.000000 0.500000 2.000310
v 0.000000 0.500000 1.500310
v -0.125000 0.500000 1.875310
v 0.000000 0.500000 1.875310
v -0.062500 0.500000 2.000310
v -0.062500 0.500000 1.875310
v -0.125000 0.500000 1.937810
v -0.062500 0.500000 1.937810
v 1.500000 0.500000 1.000309
v 0.000000 0.500000 1.000309
v 0.000000 0.500000 0.000310
v -0.500000 0.500000 0.000310
v -0.500000 0.500000 1.000309
v -0.125000 0.500000 1.000309
v 1.125000 0.500000 1.000309
v 1.125000 0.500000 1.500310
v -0.125000 0.500000 1.062809
v 0.000000 0.500000 1.062809
v -0.062500 0.500000 1.062809
v -0.062500 0.500000 1.000309
v 1.000000 0.500000 1.500310
v 1.125000 0.500000 1.125309
v 1.000000 0.500000 1.125309
v 1.000000 0.500000 1.062809
v 1.125000 0.500000 1.062809
v 1.062500 0.500000 1.000309
v 1.062500 0.500000 1.062809
v 0.500000 -0.000000 3.000310
v 0.500000 0.000000 0.000310
v 2.000000 0.000000 0.000310
v 2.000000 0.500000 0.000310
v 0.500000 0.000000 -0.999691
v 1.000000 1.000000 -0.999690
v -1.000000 1.000000 -0.999690
v 0.000000 1.000000 0.000310
v 1.000000 0.500000 0.000310
v -1.000000 0.500000 0.000310
v 1.000000 1.000000 0.000310
v 1.000000 1.000000 1.000310
v 0.000000 1.000000 1.000310
v 1.000000 0.500000 1.000309
v 1.625000 1.062500 1.875309
v 1.625000 1.062500 1.937809
v 1.625000 0.812500 1.875309
v 1.625000 0.812500 1.937809
v 1.375000 1.062500 1.875309
v 1.375000 1.062500 1.937809
v 1.375000 0.812500 1.875309
v 1.375000 0.812500 1.937809
v 1.625000 1.062500 1.687809
v 1.375000 1.062500 1.687809
v 1.625000 0.812500 1.625309
v 1.375000 0.812500 1.625309
v 1.625000 0.750000 1.625310
v 1.375000 0.750000 1.625310
v 1.375000 0.750000 1.875310
v 1.625000 0.750000 1.875310
v 1.625000 0.500000 1.625310
v 1.375000 0.500000 1.625310
v 1.375000 0.562500 1.875310
v 1.625000 0.562500 1.875310
v 1.375000 0.500000 0.625310
v 1.625000 0.500000 0.625310
v 1.625000 0.750000 0.625310
v 1.375000 0.750000 0.625310
v 1.375000 0.500000 0.375310
v 1.625000 0.500000 0.375310
v 1.625000 0.750000 0.375310
v 1.375000 0.750000 0.375310
v 1.375000 0.500000 0.125310
v 1.625000 0.500000 0.187810
v 1.625000 0.750000 0.187810
v 1.375000 0.750000 0.125310
v 1.250000 0.500000 0.125310
v 1.250000 0.750000 0.125310
v 1.250000 0.750000 0.375310
v 1.250000 0.500000 0.375310
v 1.062500 0.500000 0.125310
v 1.000000 0.750000 0.125310
v 1.000000 0.750000 0.375310
v 1.062500 0.500000 0.375310
v 1.000000 1.437500 0.375310
v 1.000000 1.437500 0.125310
v 1.250000 1.437500 0.125310
v 1.250000 1.437500 0.375310
v 1.000000 1.687500 0.375310
v 1.000000 1.687500 0.125310
v 1.250000 1.625000 0.125310
v 1.250000 1.625000 0.375310
v 0.937500 1.687500 0.125310
v 0.937500 1.687500 0.375310
v 0.937500 1.437500 0.375310
v 0.937500 1.437500 0.125310
v 0.937500 1.750000 0.437810
v 0.875000 1.750000 0.437810
v 0.937500 1.375000 0.437810
v 0.875000 1.375000 0.437810
v 0.937500 1.750000 0.062810
v 0.875000 1.750000 0.062810
v 0.937500 1.375000 0.062810
v 0.875000 1.375000 0.062810
v 0.875000 1.937500 0.000310
v 0.875000 1.312500 0.000310
v 0.875000 1.312500 0.937810
v 0.125000 1.937500 0.000310
v 0.125000 1.312500 0.000310
v 0.125000 1.312500 0.937810
v 0.875000 1.937500 0.187810
v 0.125000 1.937500 0.187810
v 0.125000 1.500000 0.937810
v 0.875000 1.500000 0.937810
v 0.125000 1.500000 0.187810
v 0.875000 1.500000 0.187810
v 0.125000 1.937500 0.125310
v 0.875000 1.937500 0.125310
v 0.875000 1.437500 0.937810
v 0.125000 1.437500 0.937810
v 0.625000 1.500000 -0.624690
v 0.625000 1.500000 -0.374690
v 0.625000 1.062500 -0.624690
v 0.625000 1.062500 -0.374690
v 0.375000 1.500000 -0.624690
v 0.375000 1.500000 -0.374690
v 0.375000 1.062500 -0.624690
v 0.375000 1.062500 -0.374690
v 0.625000 1.750000 -0.374690
v 0.375000 1.750000 -0.374690
v 0.375000 1.687500 -0.624690
v 0.625000 1.687500 -0.624690
v 0.375000 1.750000 -0.062190
v 0.625000 1.750000 -0.062190
v 0.625000 1.500000 -0.062190
v 0.375000 1.500000 -0.062190
v 0.687500 1.812500 -0.062190
v 0.687500 1.812500 0.000310
v 0.687500 1.437500 -0.062190
v 0.687500 1.437500 0.000310
v 0.312500 1.812500 -0.062190
v 0.312500 1.812500 0.000310
v 0.312500 1.437500 -0.062190
v 0.312500 1.437500 0.000310
v 0.750000 1.062500 -0.749690
v 0.750000 1.062500 -0.249690
v 0.750000 1.000000 -0.749690
v 0.750000 1.000000 -0.249690
v 0.250000 1.062500 -0.749690
v 0.250000 1.062500 -0.249690
v 0.250000 1.000000 -0.749690
v 0.250000 1.000000 -0.249690
v 0.687500 1.312500 0.312810
v 0.687500 1.312500 0.687810
v 0.687500 1.000000 0.312810
v 0.687500 1.000000 0.687810
v 0.312500 1.312500 0.312810
v 0.312500 1.312500 0.687810
v 0.312500 1.000000 0.312810
v 0.312500 1.000000 0.687810
v 0.687500 1.125000 0.687810
v 0.687500 1.125000 0.312810
v 0.312500 1.125000 0.312810
v 0.312500 1.125000 0.687810
v 0.000000 1.000000 -0.999690
v 1.000000 0.000000 -0.999691
v 0.875000 0.875000 -0.999690
v 0.125000 0.875000 -0.999690
v 0.125000 0.125000 -0.999690
v 0.875000 0.125000 -0.999690
v 0.125000 0.875000 -0.937190
v 0.875000 0.875000 -0.937190
v 0.125000 0.125000 -0.937190
v 0.875000 0.125000 -0.937190
v 0.750000 0.250000 -0.937190
v 0.250000 0.250000 -0.937190
v 0.250000 0.750000 -0.937190
v 0.750000 0.750000 -0.937190
v 0.750000 0.250000 -0.999690
v 0.250000 0.250000 -0.999690
v 0.250000 0.750000 -0.999690
v 0.750000 0.750000 -0.999690
v 0.375000 0.875000 -0.937190
v 0.375000 0.750000 -0.937190
v 0.625000 0.875000 -0.937190
v 0.625000 0.750000 -0.937190
v 0.625000 0.875000 -0.999690
v 0.625000 0.750000 -0.999690
v 0.375000 0.875000 -0.999690
v 0.375000 0.750000 -0.999690
v 0.000000 -0.000000 3.000310
v 0.875000 0.875000 3.000310
v 0.125000 0.875000 3.000310
v 0.125000 0.125000 3.000310
v 0.875000 0.125000 3.000310
v 0.125000 0.875000 2.937810
v 0.875000 0.875000 2.937810
v 0.125000 0.125000 2.937810
v 0.875000 0.125000 2.937810
v 0.750000 0.250000 2.937810
v 0.250000 0.250000 2.937810
v 0.250000 0.750000 2.937810
v 0.750000 0.750000 2.937810
v 0.750000 0.250000 3.000310
v 0.250000 0.250000 3.000310
v 0.250000 0.750000 3.000310
v 0.750000 0.750000 3.000310
v 0.375000 0.875000 2.937810
v 0.375000 0.750000 2.937810
v 0.625000 0.750000 2.937810
v 0.625000 0.875000 2.937810
v 0.625000 0.875000 3.000310
v 0.625000 0.750000 3.000310
v 0.375000 0.875000 3.000310
v 0.375000 0.750000 3.000310
v 0.000000 0.000000 -0.999691
v -1.000000 0.000000 -0.999691
v -1.000000 1.000000 0.000310
v -1.000000 0.000000 0.000310
vn 1.0000 -0.0000 -0.0000
vn -1.0000 -0.0000 -0.0000
vn -0.0000 1.0000 -0.0000
vn -0.0000 -1.0000 -0.0000
vn -0.0000 -0.0000 -1.0000
vn -0.0000 -0.0000 1.0000
vn -0.0000 0.2425 -0.9701
vn -0.0000 -0.9701 0.2425
vn 0.2425 -0.0000 -0.9701
vn -0.9701 -0.2425 -0.0000
vn 0.2425 0.9701 -0.0000
vn -0.0000 0.8638 0.5039
vn -0.0000 0.9701 -0.2425
vn 0.4472 0.8944 -0.0000
vn -0.4472 -0.8944 -0.0000
vt 0.429688 0.789062
vt 0.421875 0.789062
vt 0.421875 0.835938
vt 0.429688 0.835938
vt 0.390625 0.789062
vt 0.382812 0.789062
vt 0.382812 0.835938
vt 0.390625 0.835938
vt 0.429688 0.828125
vt 0.382812 0.828125
vt 0.382812 0.796875
vt 0.429688 0.796875
vt 0.593750 0.750000
vt 0.468750 0.750000
vt 0.468750 0.625000
vt 0.593750 0.625000
vt 0.718750 0.875000
vt 0.843750 0.875000
vt 0.843750 0.750000
vt 0.718750 0.750000
vt 0.343750 0.750000
vt 0.343750 0.875000
vt 0.468750 0.875000
vt 0.718750 0.687500
vt 0.593750 0.687500
vt 0.593750 0.562500
vt 0.718750 0.562500
vt 0.343750 0.625000
vt 0.343750 0.562500
vt 0.468750 0.562500
vt 0.593750 0.500000
vt 0.718750 0.500000
vt 0.343750 0.500000
vt 0.468750 0.500000
vt 0.843750 0.687500
vt 0.593750 0.875000
vt 0.000000 0.031250
vt 0.000000 0.093750
vt 0.250000 0.093750
vt 0.250000 0.031250
vt 0.375000 0.093750
vt 0.375000 0.031250
vt 0.500000 0.140625
vt 0.500000 0.265625
vt 0.687500 0.265625
vt 0.687500 0.140625
vt 0.875000 0.265625
vt 0.875000 0.140625
vt 0.500000 0.031250
vt 0.500000 0.093750
vt 0.000000 0.281250
vt 0.125000 0.281250
vt 0.125000 0.343750
vt 0.000000 0.343750
vt 0.125000 0.218750
vt 0.000000 0.218750
vt 0.000000 0.156250
vt 0.125000 0.156250
vt 0.125000 0.093750
vt 0.500000 0.343750
vt 0.500000 0.281250
vt 0.312500 0.281250
vt 0.312500 0.343750
vt 0.125000 0.203125
vt 0.187500 0.203125
vt 0.187500 0.093750
vt 0.250000 0.281250
vt 0.250000 0.343750
vt 0.140625 0.203125
vt 0.140625 0.218750
vt 0.187500 0.218750
vt 0.140625 0.210938
vt 0.125000 0.210938
vt 0.132812 0.210938
vt 0.132812 0.203125
vt 0.250000 0.218750
vt 0.250000 0.156250
vt 0.375000 0.156250
vt 0.375000 0.218750
vt 0.250000 0.203125
vt 0.390625 0.218750
vt 0.500000 0.218750
vt 0.390625 0.281250
vt 0.312500 0.218750
vt 0.242188 0.218750
vt 0.242188 0.203125
vt 0.242188 0.210938
vt 0.250000 0.210938
vt 0.375000 0.281250
vt 0.390625 0.234375
vt 0.375000 0.234375
vt 0.390625 0.226562
vt 0.375000 0.226562
vt 0.382812 0.218750
vt 0.382812 0.226562
vt 0.500000 0.390625
vt 0.687500 0.390625
vt 0.875000 0.390625
vt 0.125000 0.031250
vt 0.687500 0.015625
vt 0.500000 0.015625
vt 0.875000 0.015625
vt 0.718750 0.812500
vt 0.593750 0.812500
vt 0.343750 1.000000
vt 0.468750 1.000000
vt 0.875000 0.976562
vt 0.875000 0.968750
vt 0.843750 0.968750
vt 0.843750 0.976562
vt 0.843750 0.984375
vt 0.843750 0.992188
vt 0.875000 0.992188
vt 0.875000 0.984375
vt 0.843750 1.000000
vt 0.875000 1.000000
vt 0.851562 0.875000
vt 0.875000 0.875000
vt 0.875000 0.843750
vt 0.843750 0.843750
vt 0.843750 0.867188
vt 0.875000 0.967788
vt 0.843750 0.967788
vt 0.875000 0.945312
vt 0.875000 0.929688
vt 0.843750 0.929688
vt 0.843750 0.945312
vt 0.875000 0.914062
vt 0.843750 0.914062
vt 0.875000 0.937500
vt 0.843750 0.937500
vt 0.437500 0.382812
vt 0.343750 0.382812
vt 0.437500 0.500000
vt 0.812500 0.453125
vt 0.718750 0.453125
vt 0.718750 0.531250
vt 0.812500 0.531250
vt 0.531250 0.390625
vt 0.437500 0.390625
vt 0.531250 0.500000
vt 0.812500 0.554688
vt 0.835938 0.531250
vt 0.718750 0.554688
vt 0.812500 0.609375
vt 0.835938 0.609375
vt 0.718750 0.609375
vt 0.812500 0.632812
vt 0.718750 0.632812
vt 0.835938 0.687500
vt 0.812500 0.687500
vt 0.687500 0.757812
vt 0.687500 0.750000
vt 0.593750 0.757812
vt 0.468750 0.765625
vt 0.562500 0.765625
vt 0.562500 0.750000
vt 0.703125 0.875000
vt 0.703125 0.867188
vt 0.609375 0.867188
vt 0.609375 0.875000
vt 0.875000 0.757812
vt 0.843750 0.757812
vt 0.843750 0.812500
vt 0.875000 0.812500
vt 0.875000 0.765625
vt 0.875000 0.734375
vt 0.843750 0.734375
vt 0.843750 0.765625
vt 0.875000 0.726562
vt 0.875000 0.703125
vt 0.843750 0.703125
vt 0.875000 0.773438
vt 0.843750 0.773438
vt 0.843750 0.804688
vt 0.875000 0.804688
vt 0.554688 0.789062
vt 0.507812 0.789062
vt 0.507812 0.835938
vt 0.554688 0.835938
vt 0.562500 0.843750
vt 0.562500 0.781250
vt 0.554688 0.781250
vt 0.554688 0.843750
vt 0.500000 0.781250
vt 0.500000 0.843750
vt 0.507812 0.843750
vt 0.507812 0.781250
vt 0.546875 0.781250
vt 0.484375 0.781250
vt 0.484375 0.789062
vt 0.546875 0.789062
vt 0.500000 0.835938
vt 0.562500 0.835938
vt 0.671875 0.484375
vt 0.718750 0.484375
vt 0.718750 0.460938
vt 0.671875 0.460938
vt 0.671875 0.500000
vt 0.578125 0.859375
vt 0.578125 0.765625
vt 0.484375 0.859375
vt 0.484375 0.765625
vt 0.484375 0.625000
vt 0.484375 0.718750
vt 0.476562 0.718750
vt 0.476562 0.625000
vt 0.476562 0.726562
vt 0.476562 0.632812
vt 0.484375 0.632812
vt 0.484375 0.726562
vt 0.476562 0.539062
vt 0.484375 0.539062
vt 0.476562 0.664062
vt 0.476562 0.570312
vt 0.484375 0.570312
vt 0.484375 0.664062
vt 0.687500 0.968750
vt 0.625000 0.968750
vt 0.625000 0.906250
vt 0.687500 0.906250
vt 0.500000 0.789062
vt 0.562500 0.789062
vt 0.515625 0.843750
vt 0.546875 0.859375
vt 0.546875 0.843750
vt 0.671875 0.984375
vt 0.640625 0.968750
vt 0.671875 0.968750
vt 0.640625 0.984375
vt 0.515625 0.859375
vt 0.523438 0.843750
vt 0.523438 0.859375
vt 0.093750 0.910373
vt 0.085938 0.910373
vt 0.085938 0.945312
vt 0.093750 0.945312
vt 0.093750 0.914062
vt 0.085938 0.914062
vt 0.539062 0.859375
vt 0.539062 0.843750
vt 0.085938 0.937500
vt 0.085938 0.906250
vt 0.093750 0.906250
vt 0.093750 0.937500
vt 0.593750 1.000000
vt 0.718750 1.000000
s 0
usemtl m_cf6d6d3a-91e2-34f7-1c6e-fb941afaafef
f 4/1/1 3/2/1 1/3/1 2/4/1
f 7/5/2 8/6/2 6/7/2 5/8/2
f 1/9/3 5/10/3 6/7/3 2/4/3
f 4/1/4 8/6/4 7/11/4 3/12/4
f 3/1/5 7/6/5 5/7/5 1/4/5
f 9/13/1 10/14/1 16/15/1 17/16/1
f 13/17/2 12/18/2 18/19/2 15/20/2
f 9/14/3 12/21/3 13/22/3 10/23/3
f 12/24/5 9/25/5 17/26/5 18/27/5
f 10/14/6 13/21/6 15/28/6 16/15/6
f 16/15/6 15/28/6 19/29/6 20/30/6
f 17/16/1 16/15/1 20/30/1 21/26/1
f 18/27/5 17/26/5 21/31/5 22/32/5
f 14/33/6 11/34/6 20/30/6 19/29/6
f 11/34/1 36/31/1 21/26/1 20/30/1
f 24/20/2 23/19/2 51/35/2 25/24/2
f 18/20/3 23/13/3 24/36/3 15/17/3
f 23/20/5 18/19/5 22/35/5 51/24/5
f 29/37/2 28/38/2 31/39/2 32/40/2
f 21/41/1 36/42/1 33/40/1 30/39/1
f 33/43/4 36/44/4 37/45/4 35/46/4
f 37/45/4 40/47/4 32/48/4 35/46/4
f 29/49/6 238/42/6 25/41/6 28/50/6
f 87/41/2 266/42/2 32/40/2 31/39/2
f 27/49/5 213/42/5 41/41/5 26/50/5
f 42/51/3 43/52/3 81/53/3 26/54/3
f 86/55/3 43/52/3 42/51/3 41/56/3
f 44/57/3 45/58/3 39/59/3 28/38/3
f 51/55/3 45/58/3 44/57/3 25/56/3
f 21/60/3 48/61/3 47/62/3 38/63/3
f 49/64/3 50/65/3 46/66/3 39/59/3
f 52/67/3 51/68/3 38/63/3 47/62/3
f 50/65/3 53/69/3 54/70/3 52/71/3
f 56/72/4 54/70/4 51/55/4 55/73/4
f 55/73/3 58/74/3 57/75/3 49/64/3
f 57/75/3 58/74/3 56/72/3 53/69/3
f 43/52/3 59/67/3 30/68/3 81/53/3
f 86/55/3 91/76/3 59/67/3 43/52/3
f 31/39/3 63/77/3 62/78/3 87/41/3
f 62/78/3 63/77/3 60/76/3 61/79/3
f 46/66/3 50/65/3 64/80/3 31/39/3
f 65/81/4 30/82/4 48/61/4 66/83/4
f 60/76/3 52/67/3 47/62/3 34/84/3
f 52/71/3 68/85/3 67/86/3 50/65/3
f 69/87/3 70/88/3 64/80/3 67/86/3
f 70/88/3 69/87/3 68/85/3 60/76/3
f 71/89/3 91/79/3 34/84/3 47/62/3
f 66/83/3 72/90/3 73/91/3 71/89/3
f 72/90/3 75/92/3 74/93/3 73/91/3
f 76/94/3 77/95/3 75/92/3 65/81/3
f 74/93/3 77/95/3 76/94/3 91/79/3
f 37/45/4 36/44/4 11/96/4 78/97/4
f 40/47/4 37/45/4 78/97/4 29/98/4
f 266/48/4 79/46/4 35/45/4 32/47/4
f 80/99/1 81/59/1 30/39/1 33/40/1
f 26/38/1 81/59/1 80/99/1 27/37/1
f 79/46/4 80/43/4 33/44/4 35/45/4
f 80/43/4 79/46/4 82/100/4 27/101/4
f 79/46/4 266/48/4 264/102/4 82/100/4
f 84/13/3 265/36/3 85/17/3 212/20/3
f 88/17/3 83/20/3 212/13/3 85/36/3
f 83/20/1 88/19/1 86/35/1 41/24/1
f 85/36/6 265/17/6 87/103/6 61/104/6
f 88/13/1 89/20/1 91/24/1 86/25/1
f 90/13/2 85/20/2 61/24/2 60/25/2
f 88/23/3 85/22/3 90/105/3 89/106/3
f 89/13/6 90/20/6 60/24/6 91/25/6
f 95/107/1 94/108/1 92/109/1 93/110/1
f 98/111/2 99/112/2 97/113/2 96/114/2
f 92/113/3 96/112/3 97/115/3 93/116/3
f 95/113/4 99/112/4 98/115/4 94/116/4
f 102/108/7 103/109/7 101/115/7 100/116/7
f 100/117/1 92/118/1 94/119/1 102/120/1
f 101/109/3 96/112/3 92/113/3 100/108/3
f 103/120/2 98/119/2 96/118/2 101/117/2
f 108/109/8 111/115/8 110/116/8 109/108/8
f 105/112/5 103/115/5 102/116/5 104/113/5
f 106/111/2 98/112/2 103/113/2 105/114/2
f 107/110/6 94/111/6 98/114/6 106/107/6
f 104/111/1 102/112/1 94/113/1 107/114/1
f 120/115/9 123/116/9 122/108/9 121/109/9
f 110/121/2 106/120/2 105/119/2 109/118/2
f 111/109/6 107/112/6 106/113/6 110/108/6
f 108/118/1 104/119/1 107/120/1 111/121/1
f 114/116/1 104/118/1 108/18/1 113/115/1
f 115/115/3 105/18/3 104/118/3 114/116/3
f 112/115/2 109/18/2 105/118/2 115/116/2
f 122/116/1 118/107/1 117/110/1 121/115/1
f 123/118/3 119/119/3 118/120/3 122/121/3
f 128/122/10 131/123/10 130/115/10 129/116/10
f 125/124/5 123/125/5 120/126/5 124/127/5
f 126/124/3 119/125/3 123/126/3 125/127/3
f 127/109/6 116/111/6 119/114/6 126/108/6
f 129/120/5 125/119/5 124/118/5 128/117/5
f 136/116/11 139/108/11 138/109/11 137/115/11
f 131/117/6 127/118/6 126/119/6 130/120/6
f 133/116/2 129/128/2 130/129/2 132/115/2
f 134/116/5 125/128/5 129/129/5 133/115/5
f 135/116/1 126/128/1 125/129/1 134/115/1
f 132/116/6 130/128/6 126/129/6 135/115/6
f 138/121/5 134/120/5 133/119/5 137/118/5
f 139/113/1 135/108/1 134/109/1 138/112/1
f 136/118/6 132/119/6 135/120/6 139/121/6
f 141/112/3 136/115/3 137/116/3 140/113/3
f 142/116/6 132/113/6 136/112/6 141/115/6
f 143/112/4 133/115/4 132/116/4 142/113/4
f 140/112/5 137/115/5 133/116/5 143/113/5
f 112/109/2 115/108/2 119/130/2 116/131/2
f 117/131/1 118/130/1 114/108/1 113/109/1
f 114/108/3 118/130/3 119/131/3 115/109/3
f 147/1/6 146/2/6 144/3/6 145/4/6
f 150/5/5 151/6/5 149/7/5 148/8/5
f 144/9/3 148/10/3 149/7/3 145/4/3
f 147/1/4 151/6/4 150/11/4 146/12/4
f 146/1/1 150/6/1 148/7/1 144/4/1
f 154/132/4 157/133/4 156/33/4 153/134/4
f 153/135/5 156/136/5 155/137/5 152/138/5
f 160/139/12 161/140/12 158/134/12 159/141/12
f 162/142/2 156/143/2 157/137/2 160/144/2
f 159/145/2 155/146/2 156/143/2 162/142/2
f 159/145/2 162/142/2 160/144/2
f 154/147/1 153/146/1 163/148/1 161/149/1
f 153/146/1 152/150/1 158/151/1 163/148/1
f 161/149/1 163/148/1 158/151/1
f 158/152/3 165/153/3 164/13/3 159/154/3
f 164/155/3 165/156/3 152/157/3 155/14/3
f 160/158/6 167/159/6 166/160/6 161/161/6
f 166/155/6 167/156/6 157/157/6 154/14/6
f 171/162/1 170/163/1 168/164/1 169/165/1
f 174/162/2 175/163/2 173/164/2 172/165/2
f 170/162/5 174/163/5 172/164/5 168/165/5
f 175/162/6 171/163/6 169/164/6 173/165/6
f 176/166/13 179/167/13 178/168/13 177/169/13
f 180/119/6 183/165/6 182/164/6 181/120/6
f 178/170/2 172/171/2 173/172/2 177/168/2
f 179/119/5 168/165/5 172/164/5 178/120/5
f 176/168/1 169/172/1 168/171/1 179/170/1
f 181/165/3 176/173/3 177/174/3 180/164/3
f 182/169/1 169/175/1 176/176/1 181/166/1
f 183/169/4 173/175/4 169/176/4 182/166/4
f 180/165/2 177/173/2 173/174/2 183/164/2
f 187/1/1 186/2/1 184/3/1 185/4/1
f 190/5/2 191/6/2 189/7/2 188/8/2
f 184/9/3 188/10/3 189/7/3 185/4/3
f 187/1/4 191/6/4 190/11/4 186/12/4
f 186/177/5 190/178/5 188/179/5 184/180/5
f 195/181/1 194/182/1 192/183/1 193/184/1
f 198/185/2 199/186/2 197/187/2 196/188/2
f 192/182/3 196/185/3 197/186/3 193/181/3
f 194/189/5 198/190/5 196/191/5 192/192/5
f 199/193/6 195/194/6 193/181/6 197/186/6
f 200/195/1 201/196/1 208/197/1 209/198/1
f 205/195/2 204/196/2 210/197/2 211/198/2
f 204/196/5 200/195/5 209/198/5 210/197/5
f 201/196/6 205/195/6 211/198/6 208/197/6
f 203/196/1 202/195/1 209/199/1 208/32/1
f 202/196/5 206/195/5 210/199/5 209/32/5
f 206/196/2 207/195/2 211/199/2 210/32/2
f 207/196/6 203/195/6 208/199/6 211/32/6
f 215/200/5 216/201/5 263/13/5 212/36/5
f 214/202/5 215/200/5 212/36/5 83/23/5
f 213/14/5 217/203/5 214/202/5 83/23/5
f 216/201/5 217/203/5 213/14/5 263/13/5
f 216/204/1 215/205/1 218/206/1 220/207/1
f 215/208/4 214/209/4 219/210/4 218/211/4
f 214/209/2 217/212/2 221/213/2 219/210/2
f 217/214/3 216/215/3 220/216/3 221/217/3
f 218/200/5 224/181/5 223/182/5 220/201/5
f 222/185/5 225/186/5 219/202/5 221/203/5
f 220/201/5 223/182/5 222/185/5 221/203/5
f 228/218/5 229/219/5 226/220/5 227/221/5
f 222/222/4 223/223/4 227/182/4 226/185/4
f 223/182/2 224/181/2 228/184/2 227/183/2
f 224/194/3 225/193/3 229/186/3 228/181/3
f 225/186/1 222/185/1 226/188/1 229/187/1
f 225/186/5 233/224/5 219/202/5
f 230/225/5 231/226/5 224/181/5 218/200/5
f 236/227/5 235/228/5 237/229/5
f 235/228/5 236/227/5 234/230/5
f 232/231/5 219/202/5 233/224/5
f 232/231/1 233/224/1 235/232/1 234/233/1
f 233/234/14 235/235/14 236/236/14 230/237/14
f 230/238/3 232/237/3 234/236/3 236/239/3
f 231/226/2 230/225/2 236/240/2 237/241/2
f 233/242/4 231/243/4 237/244/4 235/245/4
f 238/13/6 241/201/6 240/200/6 24/36/6
f 24/36/6 240/200/6 239/202/6 15/23/6
f 239/202/6 242/203/6 14/14/6 15/23/6
f 14/14/6 242/203/6 241/201/6 238/13/6
f 243/206/1 240/205/1 241/204/1 245/207/1
f 244/210/4 239/209/4 240/208/4 243/211/4
f 246/213/2 242/212/2 239/209/2 244/210/2
f 245/216/3 241/215/3 242/214/3 246/217/3
f 248/182/6 249/181/6 243/200/6 245/201/6
f 244/202/6 250/186/6 247/185/6 246/203/6
f 247/185/6 248/182/6 245/201/6 246/203/6
f 251/185/6 254/186/6 253/181/6 252/182/6
f 252/182/4 248/223/4 247/222/4 251/185/4
f 253/184/2 249/181/2 248/182/2 252/183/2
f 254/186/3 250/193/3 249/194/3 253/181/3
f 251/188/1 247/185/1 250/186/1 254/187/1
f 244/202/6 257/224/6 250/186/6
f 249/181/6 256/226/6 255/225/6 243/200/6
f 262/226/6 260/224/6 261/225/6
f 259/231/6 261/225/6 260/224/6
f 257/224/6 244/202/6 258/231/6
f 260/232/1 257/224/1 258/231/1 259/233/1
f 261/236/15 255/237/15 257/234/15 260/235/15
f 259/236/3 258/237/3 255/238/3 261/239/3
f 261/240/2 255/225/2 256/226/2 262/241/2
f 262/244/4 256/243/4 257/242/4 260/245/4
f 263/23/5 264/36/5 84/246/5 212/106/5
f 264/18/2 266/17/2 265/247/2 84/115/2
