# Made in Blockbench 4.11.1
mtllib pelletizer_item.mtl

o mainpart
v 1.1875 1.125 -0.4375
v 1.1875 1.125 -0.5
v 1.1875 0.75 -0.4375
v 1.1875 0.75 -0.5
v 0.8125 1.125 -0.4375
v 0.8125 1.125 -0.5
v 0.8125 0.75 -0.4375
v 0.8125 0.75 -0.5
v 1.5 2 -0.5
v 1.5 2 -1.5
v 1.5 0 -0.5
v 1.5 0 -1.5
v 0.5 2 -0.5
v 0.5 2 -1.5
v 0.5 0 -1.5
v 0.5 1 -1.5
v 1.5 1 -1.5
v 1.5 1 -0.5
v 0.5 1 -0.5
v 0.5 0.5 -1.5
v 1.5 0.5 -1.5
v 1.5 0.5 -0.5
v 0.5 0.5 -0.5
v 0.5 1 -0.5
v 0.5 1 -1.5
v -0.5 1 -0.5
v -0.5 1 -1.5
v -0.5 0.5 -0.5
v -0.5 0.5 -1.5
v 0.5 0.5 -0.5
v 1.5 0.5 2.5
v 1.5 0 2.5
v -1.5 0.5 -1.5
v -1.5 0 -1.5
v 1.5 0.5 0.5
v -1.5 0.5 0.5
v -1.5 0 0.5
v 1.5 0 0.5
v 0 0.5 0.5
v 0 0 0.5
v 1.5 0.5 -0.5
v 1.5 0 -0.5
v 0 0.5 -0.5
v 1.5 0.5 -0.5
v 0 0 -0.5
v 1.5 0 -0.5
v 0 0.5 -0.5
v -1.5 0.5 -0.5
v 0 0 -0.5
v -1.5 0 -0.5
v -0.5 0.5 -0.5
v -0.5 0.5 -1.5
v -0.5 0.5 -1.5
v -0.5 0 -1.5
v 1.5 0.5 1.5
v 0.5 0.5 2.5
v 0.5 0.5 1.5
v -1.5 0.5 1.5
v -1.5 0 1.5
v 0.5 0.5 2.5
v 0.5 0 2.5
v 1 0.5 2.5
v 1 0.5 1.5
v -1 0.5 -1.5
v -1 0.5 -0.5
v -1.5 0.5 0
v 0 0.5 0
v 0 0.5 0
v 1.5 0.5 0
v -0.625 0.5 -0.5
v -0.625 0.5 0
v -0.5 0.5 -0.5
v -0.5 0.5 0
v -0.625 0.5 -0.375
v -0.5 0.5 -0.375
v -0.5625 0.5 -0.5
v -0.5625 0.5 -0.375
v -0.625 0.5 -0.4375
v -0.5625 0.5 -0.4375
v 1.5 0.5 1.5
v 1 0.5 1.5
v 1 0.5 0.5
v 0.5 0.5 1.5
v 0.5 0.5 0.5
v -1.5 0.5 1.5
v -0.5 0.5 0.5
v -0.5 0.5 1.5
v -1 0.5 1.5
v -1 0.5 0.5
v -0.625 0.5 0.5
v -0.625 0.5 0
v 0.625 0.5 0.5
v 0.625 0.5 0
v -0.5 0.5 0.5
v -0.5 0.5 0
v -0.625 0.5 0.4375
v -0.5 0.5 0.4375
v -0.5625 0.5 0.4375
v -0.5625 0.5 0.5
v 0.5 0.5 0
v 0.5 0.5 0.5
v 0.625 0.5 0.375
v 0.5 0.5 0.375
v 0.5 0.5 0.4375
v 0.625 0.5 0.4375
v 0.5625 0.5 0.5
v 0.5625 0.5 0.4375
v 0 0 -1.5
v 1.5 0 -1.5
v -1.5 0 -1.5
v 0 0 -1.5
v 0 0 1.5
v 1.5 0 1.5
v 1.5 0.5 1.5
v 1.5 0 2.5
v 0 0 2.5
v -1.5 0 2.5
v 0.5 1 2.5
v 0.5 1 1.5
v -1.5 1 2.5
v -1.5 1 1.5
v -0.5 1 2.5
v -0.5 1 1.5
v 0.5 0.5 2.5
v 0.5 0.5 1.5
v -0.5 0.5 1.5
v -1.5 0.5 1.5
v 0.5 1 1.5
v 0.5 1 0.5
v -0.5 1 1.5
v -0.5 1 0.5
v -0.5 0.5 1.5
v -0.5 0.5 0.5
v 0.5 0.5 0.5
v 0.5 0.5 1.5
v 1.125 1.0625 -0.375
v 1.125 1.0625 -0.4375
v 1.125 0.8125 -0.375
v 1.125 0.8125 -0.4375
v 0.875 1.0625 -0.375
v 0.875 1.0625 -0.4375
v 0.875 0.8125 -0.375
v 0.875 0.8125 -0.4375
v 1.125 1.0625 -0.1875
v 0.875 1.0625 -0.1875
v 1.125 0.8125 -0.125
v 0.875 0.8125 -0.125
v 1.125 0.75 -0.125
v 0.875 0.75 -0.125
v 0.875 0.75 -0.375
v 1.125 0.75 -0.375
v 1.125 0.5 -0.125
v 0.875 0.5 -0.125
v 0.875 0.5625 -0.375
v 1.125 0.5625 -0.375
v 0.875 0.5 0.875
v 1.125 0.5 0.875
v 1.125 0.75 0.875
v 0.875 0.75 0.875
v 0.875 0.5 1.125
v 1.125 0.5 1.125
v 1.125 0.75 1.125
v 0.875 0.75 1.125
v 0.875 0.5 1.375
v 1.125 0.5 1.3125
v 1.125 0.75 1.3125
v 0.875 0.75 1.375
v 0.75 0.5 1.375
v 0.75 0.75 1.375
v 0.75 0.75 1.125
v 0.75 0.5 1.125
v 0.5625 0.5 1.375
v 0.5 0.75 1.375
v 0.5 0.75 1.125
v 0.5625 0.5 1.125
v 0.5 1.4375 1.125
v 0.5 1.4375 1.375
v 0.75 1.4375 1.375
v 0.75 1.4375 1.125
v 0.5 1.6875 1.125
v 0.5 1.6875 1.375
v 0.75 1.625 1.375
v 0.75 1.625 1.125
v 0.4375 1.6875 1.375
v 0.4375 1.6875 1.125
v 0.4375 1.4375 1.125
v 0.4375 1.4375 1.375
v 0.4375 1.75 1.0625
v 0.375 1.75 1.0625
v 0.4375 1.375 1.0625
v 0.375 1.375 1.0625
v 0.4375 1.75 1.4375
v 0.375 1.75 1.4375
v 0.4375 1.375 1.4375
v 0.375 1.375 1.4375
v 0.375 1.9375 1.5
v 0.375 1.3125 1.5
v 0.375 1.3125 0.5625
v -0.375 1.9375 1.5
v -0.375 1.3125 1.5
v -0.375 1.3125 0.5625
v 0.375 1.9375 1.3125
v -0.375 1.9375 1.3125
v -0.375 1.5 0.5625
v 0.375 1.5 0.5625
v -0.375 1.5 1.3125
v 0.375 1.5 1.3125
v -0.375 1.9375 1.375
v 0.375 1.9375 1.375
v 0.375 1.4375 0.5625
v -0.375 1.4375 0.5625
v 0.125 1.5 2.125
v 0.125 1.5 1.875
v 0.125 1.0625 2.125
v 0.125 1.0625 1.875
v -0.125 1.5 2.125
v -0.125 1.5 1.875
v -0.125 1.0625 2.125
v -0.125 1.0625 1.875
v 0.125 1.75 1.875
v -0.125 1.75 1.875
v -0.125 1.6875 2.125
v 0.125 1.6875 2.125
v -0.125 1.75 1.5625
v 0.125 1.75 1.5625
v 0.125 1.5 1.5625
v -0.125 1.5 1.5625
v 0.1875 1.8125 1.5625
v 0.1875 1.8125 1.5
v 0.1875 1.4375 1.5625
v 0.1875 1.4375 1.5
v -0.1875 1.8125 1.5625
v -0.1875 1.8125 1.5
v -0.1875 1.4375 1.5625
v -0.1875 1.4375 1.5
v 0.25 1.0625 2.25
v 0.25 1.0625 1.75
v 0.25 1 2.25
v 0.25 1 1.75
v -0.25 1.0625 2.25
v -0.25 1.0625 1.75
v -0.25 1 2.25
v -0.25 1 1.75
v 0.1875 1.3125 1.1875
v 0.1875 1.3125 0.8125
v 0.1875 1 1.1875
v 0.1875 1 0.8125
v -0.1875 1.3125 1.1875
v -0.1875 1.3125 0.8125
v -0.1875 1 1.1875
v -0.1875 1 0.8125
v 0.1875 1.125 0.8125
v 0.1875 1.125 1.1875
v -0.1875 1.125 1.1875
v -0.1875 1.125 0.8125
v 0.5 1 2.5
v -0.5 1 2.5
v 0.5 0 2.5
v -0.5 0 2.5
v 0.375 0.875 2.5
v -0.375 0.875 2.5
v -0.375 0.125 2.5
v 0.375 0.125 2.5
v -0.375 0.875 2.4375
v 0.375 0.875 2.4375
v -0.375 0.125 2.4375
v 0.375 0.125 2.4375
v 0.25 0.25 2.4375
v -0.25 0.25 2.4375
v -0.25 0.75 2.4375
v 0.25 0.75 2.4375
v 0.25 0.25 2.5
v -0.25 0.25 2.5
v -0.25 0.75 2.5
v 0.25 0.75 2.5
v 0.125 0.875 2.4375
v -0.125 0.875 2.4375
v -0.125 0.75 2.4375
v 0.125 0.75 2.4375
v 0.125 0.875 2.4375
v 0.125 0.875 2.4375
v 0.125 0.75 2.4375
v 0.125 0.875 2.5
v 0.125 0.75 2.5
v -0.125 0.875 2.5
v -0.125 0.75 2.5
v 0.125 0.75 2.5
v 0.5 1 -1.5
v -0.5 1 -1.5
v 0.5 0 -1.5
v -0.5 0 -1.5
v 0.375 0.875 -1.5
v -0.375 0.875 -1.5
v -0.375 0.125 -1.5
v 0.375 0.125 -1.5
v -0.375 0.875 -1.4375
v 0.375 0.875 -1.4375
v -0.375 0.125 -1.4375
v 0.375 0.125 -1.4375
v 0.25 0.25 -1.4375
v -0.25 0.25 -1.4375
v -0.25 0.75 -1.4375
v 0.25 0.75 -1.4375
v 0.25 0.25 -1.5
v -0.25 0.25 -1.5
v -0.25 0.75 -1.5
v 0.25 0.75 -1.5
v 0.125 0.875 -1.4375
v -0.125 0.875 -1.4375
v -0.125 0.75 -1.4375
v 0.125 0.75 -1.4375
v 0.125 0.875 -1.4375
v 0.125 0.875 -1.4375
v 0.125 0.75 -1.4375
v 0.125 0.875 -1.5
v 0.125 0.75 -1.5
v -0.125 0.875 -1.5
v -0.125 0.75 -1.5
v 0.125 0.75 -1.5
v -0.5 1 2.5
v -0.5 0 2.5
v -1.5 1 2.5
v -1.5 0 2.5
v -1.5 1 2.5
v -1.5 0 2.5
v -1.5 1 1.5
v -1.5 0 1.5
vt 0.4296875 0.7890625
vt 0.4296875 0.8359375
vt 0.421875 0.8359375
vt 0.421875 0.7890625
vt 0.390625 0.7890625
vt 0.390625 0.8359375
vt 0.3828125 0.8359375
vt 0.3828125 0.7890625
vt 0.4296875 0.828125
vt 0.4296875 0.8359375
vt 0.3828125 0.8359375
vt 0.3828125 0.828125
vt 0.4296875 0.7890625
vt 0.4296875 0.796875
vt 0.3828125 0.796875
vt 0.3828125 0.7890625
vt 0.4296875 0.7890625
vt 0.4296875 0.8359375
vt 0.3828125 0.8359375
vt 0.3828125 0.7890625
vt 0.59375 0.75
vt 0.59375 0.625
vt 0.46875 0.625
vt 0.46875 0.75
vt 0.71875 0.875
vt 0.71875 0.75
vt 0.84375 0.75
vt 0.84375 0.875
vt 0.46875 0.75
vt 0.46875 0.875
vt 0.34375 0.875
vt 0.34375 0.75
vt 0.71875 0.6875
vt 0.71875 0.5625
vt 0.59375 0.5625
vt 0.59375 0.6875
vt 0.46875 0.75
vt 0.46875 0.625
vt 0.34375 0.625
vt 0.34375 0.75
vt 0.46875 0.625
vt 0.46875 0.5625
vt 0.34375 0.5625
vt 0.34375 0.625
vt 0.59375 0.625
vt 0.59375 0.5625
vt 0.46875 0.5625
vt 0.46875 0.625
vt 0.71875 0.5625
vt 0.71875 0.5
vt 0.59375 0.5
vt 0.59375 0.5625
vt 0.34375 0.5
vt 0.34375 0.5625
vt 0.46875 0.5625
vt 0.46875 0.5
vt 0.46875 0.5
vt 0.46875 0.5625
vt 0.59375 0.5625
vt 0.59375 0.5
vt 0.71875 0.75
vt 0.71875 0.6875
vt 0.84375 0.6875
vt 0.84375 0.75
vt 0.71875 0.75
vt 0.71875 0.875
vt 0.59375 0.875
vt 0.59375 0.75
vt 0.71875 0.75
vt 0.71875 0.6875
vt 0.84375 0.6875
vt 0.84375 0.75
vt 0 0.03125
vt 0.25 0.03125
vt 0.25 0.09375
vt 0 0.09375
vt 0.375 0.09375
vt 0.25 0.09375
vt 0.25 0.03125
vt 0.375 0.03125
vt 0.5 0.140625
vt 0.6875 0.140625
vt 0.6875 0.265625
vt 0.5 0.265625
vt 0.6875 0.265625
vt 0.6875 0.140625
vt 0.875 0.140625
vt 0.875 0.265625
vt 0.5 0.03125
vt 0.5 0.09375
vt 0.375 0.09375
vt 0.375 0.03125
vt 0.375 0.09375
vt 0.25 0.09375
vt 0.25 0.03125
vt 0.375 0.03125
vt 0.5 0.03125
vt 0.5 0.09375
vt 0.375 0.09375
vt 0.375 0.03125
vt 0 0.28125
vt 0 0.34375
vt 0.125 0.34375
vt 0.125 0.28125
vt 0.125 0.21875
vt 0 0.21875
vt 0 0.28125
vt 0.125 0.28125
vt 0 0.15625
vt 0 0.09375
vt 0.125 0.09375
vt 0.125 0.15625
vt 0.125 0.21875
vt 0 0.21875
vt 0 0.15625
vt 0.125 0.15625
vt 0.5 0.34375
vt 0.3125 0.34375
vt 0.3125 0.28125
vt 0.5 0.28125
vt 0.125 0.203125
vt 0.125 0.09375
vt 0.1875 0.09375
vt 0.1875 0.203125
vt 0.25 0.28125
vt 0.3125 0.28125
vt 0.3125 0.34375
vt 0.25 0.34375
vt 0.1875 0.203125
vt 0.1875 0.21875
vt 0.140625 0.21875
vt 0.140625 0.203125
vt 0.140625 0.2109375
vt 0.140625 0.21875
vt 0.125 0.21875
vt 0.125 0.2109375
vt 0.125 0.2109375
vt 0.125 0.203125
vt 0.1328125 0.203125
vt 0.1328125 0.2109375
vt 0.1328125 0.203125
vt 0.140625 0.203125
vt 0.140625 0.2109375
vt 0.1328125 0.2109375
vt 0.125 0.28125
vt 0.125 0.34375
vt 0.25 0.34375
vt 0.25 0.28125
vt 0.125 0.21875
vt 0.125 0.28125
vt 0.25 0.28125
vt 0.25 0.21875
vt 0.25 0.09375
vt 0.375 0.09375
vt 0.375 0.15625
vt 0.25 0.15625
vt 0.375 0.15625
vt 0.375 0.21875
vt 0.25 0.21875
vt 0.25 0.15625
vt 0.1875 0.09375
vt 0.25 0.09375
vt 0.25 0.203125
vt 0.1875 0.203125
vt 0.390625 0.21875
vt 0.5 0.21875
vt 0.5 0.28125
vt 0.390625 0.28125
vt 0.25 0.21875
vt 0.3125 0.21875
vt 0.3125 0.28125
vt 0.25 0.28125
vt 0.1875 0.21875
vt 0.1875 0.203125
vt 0.2421875 0.203125
vt 0.2421875 0.21875
vt 0.2421875 0.2109375
vt 0.2421875 0.203125
vt 0.25 0.203125
vt 0.25 0.2109375
vt 0.25 0.2109375
vt 0.25 0.21875
vt 0.2421875 0.21875
vt 0.2421875 0.2109375
vt 0.375 0.28125
vt 0.3125 0.28125
vt 0.3125 0.21875
vt 0.375 0.21875
vt 0.390625 0.28125
vt 0.375 0.28125
vt 0.375 0.234375
vt 0.390625 0.234375
vt 0.390625 0.234375
vt 0.375 0.234375
vt 0.375 0.2265625
vt 0.390625 0.2265625
vt 0.3828125 0.21875
vt 0.390625 0.21875
vt 0.390625 0.2265625
vt 0.3828125 0.2265625
vt 0.375 0.2265625
vt 0.375 0.21875
vt 0.3828125 0.21875
vt 0.3828125 0.2265625
vt 0.6875 0.265625
vt 0.6875 0.390625
vt 0.5 0.390625
vt 0.5 0.265625
vt 0.875 0.265625
vt 0.875 0.390625
vt 0.6875 0.390625
vt 0.6875 0.265625
vt 0.875 0.140625
vt 0.875 0.265625
vt 0.6875 0.265625
vt 0.6875 0.140625
vt 0.125 0.03125
vt 0.25 0.03125
vt 0.25 0.09375
vt 0.125 0.09375
vt 0 0.09375
vt 0 0.03125
vt 0.125 0.03125
vt 0.125 0.09375
vt 0.6875 0.140625
vt 0.6875 0.265625
vt 0.5 0.265625
vt 0.5 0.140625
vt 0.5 0.140625
vt 0.5 0.015625
vt 0.6875 0.015625
vt 0.6875 0.140625
vt 0.6875 0.140625
vt 0.6875 0.015625
vt 0.875 0.015625
vt 0.875 0.140625
vt 0.59375 0.75
vt 0.71875 0.75
vt 0.71875 0.875
vt 0.59375 0.875
vt 0.71875 0.875
vt 0.59375 0.875
vt 0.59375 0.75
vt 0.71875 0.75
vt 0.71875 0.75
vt 0.71875 0.6875
vt 0.84375 0.6875
vt 0.84375 0.75
vt 0.59375 0.875
vt 0.59375 0.8125
vt 0.71875 0.8125
vt 0.71875 0.875
vt 0.59375 0.75
vt 0.59375 0.6875
vt 0.71875 0.6875
vt 0.71875 0.75
vt 0.59375 0.75
vt 0.59375 0.6875
vt 0.71875 0.6875
vt 0.71875 0.75
vt 0.46875 0.875
vt 0.46875 1
vt 0.34375 1
vt 0.34375 0.875
vt 0.59375 0.75
vt 0.59375 0.6875
vt 0.71875 0.6875
vt 0.71875 0.75
vt 0.875 0.9765625
vt 0.84375 0.9765625
vt 0.84375 0.96875
vt 0.875 0.96875
vt 0.84375 0.984375
vt 0.875 0.984375
vt 0.875 0.9921875
vt 0.84375 0.9921875
vt 0.875 0.9921875
vt 0.875 1
vt 0.84375 1
vt 0.84375 0.9921875
vt 0.875 0.9921875
vt 0.875 1
vt 0.84375 1
vt 0.84375 0.9921875
vt 0.875 0.96875
vt 0.875 1
vt 0.84375 1
vt 0.84375 0.96875
vt 0.8515625 0.875
vt 0.84375 0.84375
vt 0.875 0.84375
vt 0.875 0.875
vt 0.84375 0.96875
vt 0.875 0.96875
vt 0.875 0.9921875
vt 0.84375 0.9921875
vt 0.84375 0.84375
vt 0.8515625 0.875
vt 0.875 0.875
vt 0.875 0.84375
vt 0.84375 0.96875
vt 0.875 0.96875
vt 0.875 1
vt 0.84375 1
vt 0.84375 0.9921875
vt 0.875 0.9921875
vt 0.875 1
vt 0.84375 1
vt 0.84375 0.984375
vt 0.875 0.984375
vt 0.875 0.9921875
vt 0.84375 0.9921875
vt 0.84375 0.9765625
vt 0.875 0.9765625
vt 0.875 0.984375
vt 0.84375 0.984375
vt 0.84375 0.984375
vt 0.875 0.984375
vt 0.875 0.9921875
vt 0.84375 0.9921875
vt 0.84375 1
vt 0.84375 0.96875
vt 0.875 0.96875
vt 0.875 1
vt 0.84375 0.8671875
vt 0.875 0.875
vt 0.875 0.84375
vt 0.84375 0.84375
vt 0.84375 0.96875
vt 0.875 0.96875
vt 0.875 0.9921875
vt 0.84375 0.9921875
vt 0.875 0.875
vt 0.84375 0.8671875
vt 0.84375 0.84375
vt 0.875 0.84375
vt 0.875 1
vt 0.84375 1
vt 0.84375 0.875
vt 0.875 0.875
vt 0.84375 1
vt 0.875 1
vt 0.875 0.875
vt 0.84375 0.875
vt 0.84375 1
vt 0.875 1
vt 0.875 0.875
vt 0.84375 0.875
vt 0.875 1
vt 0.84375 1
vt 0.84375 0.9765625
vt 0.875 0.9765625
vt 0.875 0.875
vt 0.84375 0.8671875
vt 0.84375 0.84375
vt 0.875 0.84375
vt 0.875 0.96778828125
vt 0.875 1
vt 0.84375 1
vt 0.84375 0.96778828125
vt 0.875 0.9453125
vt 0.84375 0.9453125
vt 0.84375 0.9296875
vt 0.875 0.9296875
vt 0.875 0.9453125
vt 0.84375 0.9453125
vt 0.84375 0.9296875
vt 0.875 0.9296875
vt 0.84375 0.96875
vt 0.875 0.96875
vt 0.875 0.984375
vt 0.84375 0.984375
vt 0.84375 0.84375
vt 0.8515625 0.875
vt 0.875 0.875
vt 0.875 0.84375
vt 0.875 1
vt 0.84375 1
vt 0.84375 0.96875
vt 0.875 0.96875
vt 0.8515625 0.875
vt 0.84375 0.84375
vt 0.875 0.84375
vt 0.875 0.875
vt 0.875 1
vt 0.84375 1
vt 0.84375 0.9140625
vt 0.875 0.9140625
vt 0.875 1
vt 0.84375 1
vt 0.84375 0.9140625
vt 0.875 0.9140625
vt 0.875 1
vt 0.84375 1
vt 0.84375 0.9140625
vt 0.875 0.9140625
vt 0.875 1
vt 0.84375 1
vt 0.84375 0.9140625
vt 0.875 0.9140625
vt 0.84375 0.8671875
vt 0.875 0.875
vt 0.875 0.84375
vt 0.84375 0.84375
vt 0.875 0.9921875
vt 0.84375 0.9921875
vt 0.84375 0.96875
vt 0.875 0.96875
vt 0.875 0.875
vt 0.84375 0.8671875
vt 0.84375 0.84375
vt 0.875 0.84375
vt 0.84375 0.9921875
vt 0.875 0.9921875
vt 0.875 1
vt 0.84375 1
vt 0.875 1
vt 0.84375 1
vt 0.84375 0.9921875
vt 0.875 0.9921875
vt 0.84375 0.9921875
vt 0.875 0.9921875
vt 0.875 1
vt 0.84375 1
vt 0.84375 0.9921875
vt 0.875 0.9921875
vt 0.875 1
vt 0.84375 1
vt 0.84375 0.96875
vt 0.84375 0.9375
vt 0.875 0.9375
vt 0.875 0.96875
vt 0.84375 0.9375
vt 0.84375 0.96875
vt 0.875 0.96875
vt 0.875 0.9375
vt 0.875 0.96875
vt 0.84375 0.96875
vt 0.84375 0.9375
vt 0.875 0.9375
vt 0.4296875 0.7890625
vt 0.4296875 0.8359375
vt 0.421875 0.8359375
vt 0.421875 0.7890625
vt 0.390625 0.7890625
vt 0.390625 0.8359375
vt 0.3828125 0.8359375
vt 0.3828125 0.7890625
vt 0.4296875 0.828125
vt 0.4296875 0.8359375
vt 0.3828125 0.8359375
vt 0.3828125 0.828125
vt 0.4296875 0.7890625
vt 0.4296875 0.796875
vt 0.3828125 0.796875
vt 0.3828125 0.7890625
vt 0.4296875 0.7890625
vt 0.4296875 0.8359375
vt 0.3828125 0.8359375
vt 0.3828125 0.7890625
vt 0.4375 0.3828125
vt 0.4375 0.5
vt 0.34375 0.5
vt 0.34375 0.3828125
vt 0.8125 0.453125
vt 0.8125 0.53125
vt 0.71875 0.53125
vt 0.71875 0.453125
vt 0.53125 0.390625
vt 0.53125 0.5
vt 0.4375 0.5
vt 0.4375 0.390625
vt 0.8125 0.5546875
vt 0.71875 0.5546875
vt 0.71875 0.53125
vt 0.8359375 0.53125
vt 0.8125 0.609375
vt 0.8125 0.5546875
vt 0.8359375 0.53125
vt 0.8359375 0.609375
vt 0.8125 0.609375
vt 0.71875 0.5546875
vt 0.8125 0.5546875
vt 0.71875 0.609375
vt 0.71875 0.6328125
vt 0.8125 0.6328125
vt 0.8359375 0.609375
vt 0.8359375 0.609375
vt 0.8125 0.6328125
vt 0.8125 0.6875
vt 0.8359375 0.6875
vt 0.71875 0.6328125
vt 0.8125 0.6875
vt 0.8125 0.6328125
vt 0.6875 0.7578125
vt 0.59375 0.7578125
vt 0.59375 0.75
vt 0.6875 0.75
vt 0.46875 0.765625
vt 0.46875 0.75
vt 0.5625 0.75
vt 0.5625 0.765625
vt 0.703125 0.875
vt 0.609375 0.875
vt 0.609375 0.8671875
vt 0.703125 0.8671875
vt 0.46875 0.765625
vt 0.46875 0.75
vt 0.5625 0.75
vt 0.5625 0.765625
vt 0.875 0.7578125
vt 0.875 0.8125
vt 0.84375 0.8125
vt 0.84375 0.7578125
vt 0.875 0.7578125
vt 0.875 0.8125
vt 0.84375 0.8125
vt 0.84375 0.7578125
vt 0.875 0.7578125
vt 0.875 0.8125
vt 0.84375 0.8125
vt 0.84375 0.7578125
vt 0.875 0.7578125
vt 0.875 0.8125
vt 0.84375 0.8125
vt 0.84375 0.7578125
vt 0.875 0.765625
vt 0.84375 0.765625
vt 0.84375 0.734375
vt 0.875 0.734375
vt 0.875 0.84375
vt 0.84375 0.84375
vt 0.84375 0.8125
vt 0.875 0.8125
vt 0.875 0.7265625
vt 0.84375 0.734375
vt 0.84375 0.703125
vt 0.875 0.703125
vt 0.875 0.84375
vt 0.84375 0.84375
vt 0.84375 0.8125
vt 0.875 0.8125
vt 0.84375 0.734375
vt 0.875 0.7265625
vt 0.875 0.703125
vt 0.84375 0.703125
vt 0.875 0.8125
vt 0.84375 0.8125
vt 0.84375 0.7734375
vt 0.875 0.7734375
vt 0.84375 0.765625
vt 0.875 0.765625
vt 0.875 0.8046875
vt 0.84375 0.8046875
vt 0.84375 0.765625
vt 0.875 0.765625
vt 0.875 0.8046875
vt 0.84375 0.8046875
vt 0.875 0.8125
vt 0.84375 0.8125
vt 0.84375 0.7734375
vt 0.875 0.7734375
vt 0.4296875 0.7890625
vt 0.4296875 0.8359375
vt 0.421875 0.8359375
vt 0.421875 0.7890625
vt 0.390625 0.7890625
vt 0.390625 0.8359375
vt 0.3828125 0.8359375
vt 0.3828125 0.7890625
vt 0.4296875 0.828125
vt 0.4296875 0.8359375
vt 0.3828125 0.8359375
vt 0.3828125 0.828125
vt 0.4296875 0.7890625
vt 0.4296875 0.796875
vt 0.3828125 0.796875
vt 0.3828125 0.7890625
vt 0.5546875 0.7890625
vt 0.5546875 0.8359375
vt 0.5078125 0.8359375
vt 0.5078125 0.7890625
vt 0.5625 0.84375
vt 0.5546875 0.84375
vt 0.5546875 0.78125
vt 0.5625 0.78125
vt 0.5 0.78125
vt 0.5078125 0.78125
vt 0.5078125 0.84375
vt 0.5 0.84375
vt 0.5625 0.78125
vt 0.5625 0.84375
vt 0.5 0.84375
vt 0.5 0.78125
vt 0.546875 0.78125
vt 0.546875 0.7890625
vt 0.484375 0.7890625
vt 0.484375 0.78125
vt 0.5 0.8359375
vt 0.5 0.84375
vt 0.5625 0.84375
vt 0.5625 0.8359375
vt 0.671875 0.484375
vt 0.671875 0.4609375
vt 0.71875 0.4609375
vt 0.71875 0.484375
vt 0.671875 0.484375
vt 0.671875 0.4609375
vt 0.71875 0.4609375
vt 0.71875 0.484375
vt 0.71875 0.484375
vt 0.71875 0.4609375
vt 0.671875 0.4609375
vt 0.671875 0.484375
vt 0.71875 0.484375
vt 0.71875 0.4609375
vt 0.671875 0.4609375
vt 0.671875 0.484375
vt 0.71875 0.484375
vt 0.71875 0.5
vt 0.671875 0.5
vt 0.671875 0.484375
vt 0.71875 0.484375
vt 0.71875 0.5
vt 0.671875 0.5
vt 0.671875 0.484375
vt 0.71875 0.484375
vt 0.71875 0.5
vt 0.671875 0.5
vt 0.671875 0.484375
vt 0.71875 0.484375
vt 0.71875 0.5
vt 0.671875 0.5
vt 0.671875 0.484375
vt 0.578125 0.859375
vt 0.59375 0.875
vt 0.59375 0.75
vt 0.578125 0.765625
vt 0.484375 0.859375
vt 0.46875 0.875
vt 0.59375 0.875
vt 0.578125 0.859375
vt 0.46875 0.75
vt 0.46875 0.875
vt 0.484375 0.859375
vt 0.484375 0.765625
vt 0.578125 0.765625
vt 0.59375 0.75
vt 0.46875 0.75
vt 0.484375 0.765625
vt 0.484375 0.625
vt 0.4765625 0.625
vt 0.4765625 0.71875
vt 0.484375 0.71875
vt 0.4765625 0.7265625
vt 0.484375 0.7265625
vt 0.484375 0.6328125
vt 0.4765625 0.6328125
vt 0.4765625 0.6328125
vt 0.484375 0.6328125
vt 0.484375 0.5390625
vt 0.4765625 0.5390625
vt 0.4765625 0.6640625
vt 0.484375 0.6640625
vt 0.484375 0.5703125
vt 0.4765625 0.5703125
vt 0.578125 0.859375
vt 0.578125 0.765625
vt 0.5625 0.78125
vt 0.5625 0.84375
vt 0.5 0.78125
vt 0.484375 0.765625
vt 0.484375 0.859375
vt 0.5 0.84375
vt 0.578125 0.765625
vt 0.484375 0.765625
vt 0.5 0.78125
vt 0.5625 0.78125
vt 0.6875 0.96875
vt 0.6875 0.90625
vt 0.625 0.90625
vt 0.625 0.96875
vt 0.5 0.7890625
vt 0.5 0.78125
vt 0.5625 0.78125
vt 0.5625 0.7890625
vt 0.5625 0.78125
vt 0.5546875 0.78125
vt 0.5546875 0.84375
vt 0.5625 0.84375
vt 0.5625 0.8359375
vt 0.5625 0.84375
vt 0.5 0.84375
vt 0.5 0.8359375
vt 0.5 0.84375
vt 0.5078125 0.84375
vt 0.5078125 0.78125
vt 0.5 0.78125
vt 0.5 0.84375
vt 0.484375 0.859375
vt 0.515625 0.84375
vt 0.546875 0.859375
vt 0.578125 0.859375
vt 0.5625 0.84375
vt 0.546875 0.84375
vt 0.671875 0.984375
vt 0.671875 0.96875
vt 0.640625 0.96875
vt 0.640625 0.96875
vt 0.640625 0.984375
vt 0.671875 0.984375
vt 0.515625 0.859375
vt 0.515625 0.84375
vt 0.484375 0.859375
vt 0.515625 0.859375
vt 0.5234375 0.859375
vt 0.5234375 0.84375
vt 0.515625 0.84375
vt 0.09375 0.9103734375
vt 0.0859375 0.9103734375
vt 0.0859375 0.9453125
vt 0.09375 0.9453125
vt 0.09375 0.9140625
vt 0.0859375 0.9140625
vt 0.0859375 0.9453125
vt 0.09375 0.9453125
vt 0.546875 0.84375
vt 0.5390625 0.84375
vt 0.5390625 0.859375
vt 0.546875 0.859375
vt 0.0859375 0.9453125
vt 0.09375 0.9453125
vt 0.09375 0.9103734375
vt 0.0859375 0.9103734375
vt 0.0859375 0.9375
vt 0.09375 0.9375
vt 0.09375 0.90625
vt 0.0859375 0.90625
vt 0.59375 0.75
vt 0.59375 0.875
vt 0.578125 0.859375
vt 0.578125 0.765625
vt 0.59375 0.875
vt 0.46875 0.875
vt 0.484375 0.859375
vt 0.578125 0.859375
vt 0.484375 0.859375
vt 0.46875 0.875
vt 0.46875 0.75
vt 0.484375 0.765625
vt 0.46875 0.75
vt 0.59375 0.75
vt 0.578125 0.765625
vt 0.484375 0.765625
vt 0.4765625 0.71875
vt 0.4765625 0.625
vt 0.484375 0.625
vt 0.484375 0.71875
vt 0.484375 0.6328125
vt 0.484375 0.7265625
vt 0.4765625 0.7265625
vt 0.4765625 0.6328125
vt 0.484375 0.5390625
vt 0.484375 0.6328125
vt 0.4765625 0.6328125
vt 0.4765625 0.5390625
vt 0.484375 0.5703125
vt 0.484375 0.6640625
vt 0.4765625 0.6640625
vt 0.4765625 0.5703125
vt 0.5625 0.78125
vt 0.578125 0.765625
vt 0.578125 0.859375
vt 0.5625 0.84375
vt 0.484375 0.859375
vt 0.484375 0.765625
vt 0.5 0.78125
vt 0.5 0.84375
vt 0.5 0.78125
vt 0.484375 0.765625
vt 0.578125 0.765625
vt 0.5625 0.78125
vt 0.5 0.78125
vt 0.5625 0.78125
vt 0.5625 0.84375
vt 0.5 0.84375
vt 0.5625 0.78125
vt 0.5 0.78125
vt 0.5 0.7890625
vt 0.5625 0.7890625
vt 0.5546875 0.84375
vt 0.5546875 0.78125
vt 0.5625 0.78125
vt 0.5625 0.84375
vt 0.5 0.84375
vt 0.5625 0.84375
vt 0.5625 0.8359375
vt 0.5 0.8359375
vt 0.5078125 0.78125
vt 0.5078125 0.84375
vt 0.5 0.84375
vt 0.5 0.78125
vt 0.484375 0.859375
vt 0.5 0.84375
vt 0.515625 0.84375
vt 0.5625 0.84375
vt 0.578125 0.859375
vt 0.546875 0.859375
vt 0.546875 0.84375
vt 0.546875 0.84375
vt 0.546875 0.859375
vt 0.515625 0.84375
vt 0.515625 0.859375
vt 0.515625 0.84375
vt 0.546875 0.859375
vt 0.515625 0.84375
vt 0.515625 0.859375
vt 0.484375 0.859375
vt 0.5234375 0.84375
vt 0.5234375 0.859375
vt 0.515625 0.859375
vt 0.515625 0.84375
vt 0.0859375 0.9453125
vt 0.0859375 0.9103734375
vt 0.09375 0.9103734375
vt 0.09375 0.9453125
vt 0.0859375 0.9453125
vt 0.0859375 0.9140625
vt 0.09375 0.9140625
vt 0.09375 0.9453125
vt 0.5390625 0.859375
vt 0.5390625 0.84375
vt 0.546875 0.84375
vt 0.546875 0.859375
vt 0.09375 0.9103734375
vt 0.09375 0.9453125
vt 0.0859375 0.9453125
vt 0.0859375 0.9103734375
vt 0.09375 0.90625
vt 0.09375 0.9375
vt 0.0859375 0.9375
vt 0.0859375 0.90625
vt 0.59375 0.875
vt 0.59375 1
vt 0.46875 1
vt 0.46875 0.875
vt 0.84375 0.875
vt 0.84375 1
vt 0.71875 1
vt 0.71875 0.875
vn 1 0 0
vn -1 0 0
vn 0 1 0
vn 0 -1 0
vn 0 0 1
vn 1 0 0
vn -1 0 0
vn 0 1 0
vn 0 0 1
vn 0 0 -1
vn 0 0 -1
vn 1 0 0
vn 0 0 1
vn 0 0 -1
vn 1 0 0
vn -1 0 0
vn 0 1 0
vn 0 0 1
vn -1 0 0
vn 1 0 0
vn 0 -1 0
vn 0 -1 0
vn 0 0 -1
vn -1 0 0
vn 0 0 1
vn 0 1 0
vn 0 1 0
vn 0 1 0
vn 0 1 0
vn 0 1 0
vn 0 1 0
vn 0 1 0
vn 0 1 0
vn 0 1 0
vn 0 1 0
vn 0 1 0
vn 0 1 0
vn 0 1 0
vn 0 1 0
vn 0 1 0
vn 0 1 0
vn 0 1 0
vn 0 1 0
vn 0 1 0
vn 0 1 0
vn 0 1 0
vn 0 1 0
vn 0 1 0
vn 0 1 0
vn 0 1 0
vn 0 1 0
vn 0 -1 0
vn 0 -1 0
vn 0 -1 0
vn 1 0 0
vn 1 0 0
vn 0 -1 0
vn 0 -1 0
vn 0 -1 0
vn 0 1 0
vn 0 1 0
vn 1 0 0
vn 0 0 -1
vn 1 0 0
vn -1 0 0
vn 0 1 0
vn 0 0 -1
vn 1 0 0
vn -1 0 0
vn 0 1 0
vn 0 -1 0
vn 0 0.24253562503633297 0.9701425001453319
vn 1 0 0
vn 0 1 0
vn -1 0 0
vn 0 -0.9701425001453319 -0.24253562503633297
vn 0 0 1
vn -1 0 0
vn 0 0 -1
vn 1 0 0
vn 0.24253562503633297 0 0.9701425001453319
vn -1 0 0
vn 0 0 -1
vn 1 0 0
vn 1 0 0
vn 0 1 0
vn -1 0 0
vn 1 0 0
vn 0 1 0
vn -0.9701425001453319 -0.24253562503633297 0
vn 0 0 1
vn 0 1 0
vn 0 0 -1
vn 0 0 1
vn 0.24253562503633297 0.9701425001453319 0
vn 0 0 -1
vn -1 0 0
vn 0 0 1
vn 1 0 0
vn 0 0 -1
vn 0 0 1
vn 1 0 0
vn 0 0 -1
vn 0 1 0
vn 0 0 -1
vn 0 -1 0
vn 0 0 1
vn -1 0 0
vn 1 0 0
vn 0 1 0
vn 0 0 -1
vn 0 0 1
vn 0 1 0
vn 0 -1 0
vn 1 0 0
vn 0 -1 0
vn 0 0 1
vn 0 0.8637789008984335 -0.5038710255240861
vn -1 0 0
vn -1 0 0
vn -1 0 0
vn 1 0 0
vn 1 0 0
vn 1 0 0
vn 0 1 0
vn 0 1 0
vn 0 0 -1
vn 0 0 -1
vn 1 0 0
vn -1 0 0
vn 0 0 1
vn 0 0 -1
vn 0 0.9701425001453319 0.24253562503633297
vn 0 0 -1
vn -1 0 0
vn 0 0 1
vn 1 0 0
vn 0 1 0
vn 1 0 0
vn 0 -1 0
vn -1 0 0
vn 1 0 0
vn -1 0 0
vn 0 1 0
vn 0 -1 0
vn 0 0 1
vn 1 0 0
vn -1 0 0
vn 0 1 0
vn 0 0 1
vn 0 0 -1
vn 1 0 0
vn -1 0 0
vn 0 0 1
vn 0 0 -1
vn 1 0 0
vn 0 0 1
vn -1 0 0
vn 0 0 -1
vn 0 0 1
vn 0 0 1
vn 0 0 1
vn 0 0 1
vn 1 0 0
vn 0 -1 0
vn -1 0 0
vn 0 1 0
vn 0 0 1
vn 0 0 1
vn 0 0 1
vn 0 0 1
vn 0 -1 0
vn -1 0 0
vn 0 1 0
vn 1 0 0
vn 0 0 1
vn 0 0 1
vn 0 0 1
vn 0 0 1
vn 0 0 1
vn 1 0 0
vn -0.44721359549995804 -0.8944271909999161 0
vn 0 1 0
vn -1 0 0
vn 0.44721359549995804 0.8944271909999161 0
vn 0 -1 0
vn 0 0 -1
vn 0 0 -1
vn 0 0 -1
vn 0 0 -1
vn 1 0 0
vn 0 -1 0
vn -1 0 0
vn 0 1 0
vn 0 0 -1
vn 0 0 -1
vn 0 0 -1
vn 0 0 -1
vn 0 -1 0
vn -1 0 0
vn 0 1 0
vn 1 0 0
vn 0 0 -1
vn 0 0 -1
vn 0 0 -1
vn 0 0 -1
vn 0 0 -1
vn 1 0 0
vn -0.44721359549995804 -0.8944271909999161 0
vn 0 1 0
vn -1 0 0
vn 0.44721359549995804 0.8944271909999161 0
vn 0 -1 0
vn 0 0 1
vn -1 0 0
usemtl m_cf6d6d3a-91e2-34f7-1c6e-fb941afaafef
f 4/1/1 2/2/1 1/3/1 3/4/1
f 7/5/2 5/6/2 6/7/2 8/8/2
f 1/9/3 2/10/3 6/11/3 5/12/3
f 4/13/4 3/14/4 7/15/4 8/16/4
f 3/17/5 1/18/5 5/19/5 7/20/5
f 9/21/6 18/22/6 17/23/6 10/24/6
f 14/25/7 16/26/7 19/27/7 13/28/7
f 9/29/8 10/30/8 14/31/8 13/32/8
f 13/33/9 19/34/9 18/35/9 9/36/9
f 10/37/10 17/38/10 16/39/10 14/40/10
f 17/41/11 21/42/11 20/43/11 16/44/11
f 18/45/12 22/46/12 21/47/12 17/48/12
f 19/49/13 23/50/13 22/51/13 18/52/13
f 15/53/14 20/54/14 21/55/14 12/56/14
f 12/57/15 21/58/15 22/59/15 11/60/15
f 27/61/16 29/62/16 28/63/16 26/64/16
f 24/65/17 25/66/17 27/67/17 26/68/17
f 26/69/18 28/70/18 30/71/18 24/72/18
f 34/73/19 37/74/19 36/75/19 33/76/19
f 41/77/20 35/78/20 38/79/20 42/80/20
f 38/81/21 40/82/21 45/83/21 46/84/21
f 49/85/22 40/86/22 37/87/22 50/88/22
f 34/89/23 33/90/23 53/91/23 54/92/23
f 58/93/24 36/94/24 37/95/24 59/96/24
f 32/97/25 31/98/25 60/99/25 61/100/25
f 62/101/26 31/102/26 55/103/26 63/104/26
f 57/105/27 56/106/27 62/107/27 63/108/27
f 64/109/28 33/110/28 48/111/28 65/112/28
f 51/113/29 52/114/29 64/115/29 65/116/29
f 44/117/30 43/118/30 68/119/30 69/120/30
f 70/121/31 48/122/31 66/123/31 71/124/31
f 73/125/32 67/126/32 47/127/32 72/128/32
f 71/129/33 73/130/33 75/131/33 74/132/33
f 77/133/34 75/134/34 72/135/34 76/136/34
f 76/137/35 70/138/35 78/139/35 79/140/35
f 78/141/36 74/142/36 77/143/36 79/144/36
f 81/145/37 80/146/37 35/147/37 82/148/37
f 83/149/38 81/150/38 82/151/38 84/152/38
f 36/153/39 85/154/39 88/155/39 89/156/39
f 88/157/40 87/158/40 86/159/40 89/160/40
f 66/161/41 36/162/41 90/163/41 91/164/41
f 92/165/42 35/166/42 69/167/42 93/168/42
f 94/169/43 39/170/43 67/171/43 95/172/43
f 95/173/44 91/174/44 96/175/44 97/176/44
f 98/177/45 96/178/45 90/179/45 99/180/45
f 99/181/46 94/182/46 97/183/46 98/184/46
f 100/185/47 68/186/47 39/187/47 101/188/47
f 93/189/48 100/190/48 103/191/48 102/192/48
f 102/193/49 103/194/49 104/195/49 105/196/49
f 106/197/50 92/198/50 105/199/50 107/200/50
f 104/201/51 101/202/51 106/203/51 107/204/51
f 45/205/52 108/206/52 109/207/52 46/208/52
f 50/209/53 110/210/53 111/211/53 49/212/53
f 59/213/54 37/214/54 40/215/54 112/216/54
f 113/217/55 38/218/55 35/219/55 114/220/55
f 31/221/56 32/222/56 113/223/56 114/224/56
f 112/225/57 40/226/57 38/227/57 113/228/57
f 113/229/58 115/230/58 116/231/58 112/232/58
f 112/233/59 116/234/59 117/235/59 59/236/59
f 120/237/60 122/238/60 123/239/60 121/240/60
f 119/241/61 123/242/61 122/243/61 118/244/61
f 118/245/62 124/246/62 125/247/62 119/248/62
f 123/249/63 126/250/63 127/251/63 121/252/63
f 128/253/64 135/254/64 134/255/64 129/256/64
f 131/257/65 133/258/65 132/259/65 130/260/65
f 128/261/66 129/262/66 131/263/66 130/264/66
f 129/265/67 134/266/67 133/267/67 131/268/67
f 139/269/68 137/270/68 136/271/68 138/272/68
f 142/273/69 140/274/69 141/275/69 143/276/69
f 136/277/70 137/278/70 141/279/70 140/280/70
f 139/281/71 138/282/71 142/283/71 143/284/71
f 146/285/72 144/286/72 145/287/72 147/288/72
f 144/289/73 146/290/73 138/291/73 136/292/73
f 145/293/74 144/294/74 136/295/74 140/296/74
f 147/297/75 145/298/75 140/299/75 142/300/75
f 152/301/76 153/302/76 154/303/76 155/304/76
f 149/305/77 148/306/77 146/307/77 147/308/77
f 150/309/78 149/310/78 147/311/78 142/312/78
f 151/313/79 150/314/79 142/315/79 138/316/79
f 148/317/80 151/318/80 138/319/80 146/320/80
f 164/321/81 165/322/81 166/323/81 167/324/81
f 154/325/82 153/326/82 149/327/82 150/328/82
f 155/329/83 154/330/83 150/331/83 151/332/83
f 152/333/84 155/334/84 151/335/84 148/336/84
f 158/337/85 157/338/85 152/339/85 148/340/85
f 159/341/86 158/342/86 148/343/86 149/344/86
f 156/345/87 159/346/87 149/347/87 153/348/87
f 166/349/88 165/350/88 161/351/88 162/352/88
f 167/353/89 166/354/89 162/355/89 163/356/89
f 172/357/90 173/358/90 174/359/90 175/360/90
f 169/361/91 168/362/91 164/363/91 167/364/91
f 170/365/92 169/366/92 167/367/92 163/368/92
f 171/369/93 170/370/93 163/371/93 160/372/93
f 173/373/94 172/374/94 168/375/94 169/376/94
f 180/377/95 181/378/95 182/379/95 183/380/95
f 175/381/96 174/382/96 170/383/96 171/384/96
f 177/385/97 176/386/97 174/387/97 173/388/97
f 178/389/98 177/390/98 173/391/98 169/392/98
f 179/393/99 178/394/99 169/395/99 170/396/99
f 176/397/100 179/398/100 170/399/100 174/400/100
f 182/401/101 181/402/101 177/403/101 178/404/101
f 183/405/102 182/406/102 178/407/102 179/408/102
f 180/409/103 183/410/103 179/411/103 176/412/103
f 185/413/104 184/414/104 181/415/104 180/416/104
f 186/417/105 185/418/105 180/419/105 176/420/105
f 187/421/106 186/422/106 176/423/106 177/424/106
f 184/425/107 187/426/107 177/427/107 181/428/107
f 156/429/108 160/430/108 163/431/108 159/432/108
f 161/433/109 157/434/109 158/435/109 162/436/109
f 158/437/110 159/438/110 163/439/110 162/440/110
f 191/441/111 189/442/111 188/443/111 190/444/111
f 194/445/112 192/446/112 193/447/112 195/448/112
f 188/449/113 189/450/113 193/451/113 192/452/113
f 191/453/114 190/454/114 194/455/114 195/456/114
f 190/457/115 188/458/115 192/459/115 194/460/115
f 198/461/116 197/462/116 200/463/116 201/464/116
f 197/465/117 196/466/117 199/467/117 200/468/117
f 204/469/118 203/470/118 202/471/118 205/472/118
f 206/473/119 204/474/119 201/475/119 200/476/119
f 203/477/120 206/478/120 200/479/120 199/480/120
f 203/481/121 204/482/121 206/483/121
f 198/484/122 205/485/122 207/486/122 197/487/122
f 197/488/123 207/489/123 202/490/123 196/491/123
f 205/492/124 202/493/124 207/494/124
f 202/495/125 203/496/125 208/497/125 209/498/125
f 208/499/126 199/500/126 196/501/126 209/502/126
f 204/503/127 205/504/127 210/505/127 211/506/127
f 210/507/128 198/508/128 201/509/128 211/510/128
f 215/511/129 213/512/129 212/513/129 214/514/129
f 218/515/130 216/516/130 217/517/130 219/518/130
f 214/519/131 212/520/131 216/521/131 218/522/131
f 219/523/132 217/524/132 213/525/132 215/526/132
f 220/527/133 221/528/133 222/529/133 223/530/133
f 224/531/134 225/532/134 226/533/134 227/534/134
f 222/535/135 221/536/135 217/537/135 216/538/135
f 223/539/136 222/540/136 216/541/136 212/542/136
f 220/543/137 223/544/137 212/545/137 213/546/137
f 225/547/138 224/548/138 221/549/138 220/550/138
f 226/551/139 225/552/139 220/553/139 213/554/139
f 227/555/140 226/556/140 213/557/140 217/558/140
f 224/559/141 227/560/141 217/561/141 221/562/141
f 231/563/142 229/564/142 228/565/142 230/566/142
f 234/567/143 232/568/143 233/569/143 235/570/143
f 228/571/144 229/572/144 233/573/144 232/574/144
f 231/575/145 230/576/145 234/577/145 235/578/145
f 230/579/146 228/580/146 232/581/146 234/582/146
f 239/583/147 237/584/147 236/585/147 238/586/147
f 242/587/148 240/588/148 241/589/148 243/590/148
f 236/591/149 237/592/149 241/593/149 240/594/149
f 238/595/150 236/596/150 240/597/150 242/598/150
f 243/599/151 241/600/151 237/601/151 239/602/151
f 244/603/152 253/604/152 252/605/152 245/606/152
f 249/607/153 255/608/153 254/609/153 248/610/153
f 248/611/154 254/612/154 253/613/154 244/614/154
f 245/615/155 252/616/155 255/617/155 249/618/155
f 247/619/156 252/620/156 253/621/156 246/622/156
f 246/623/157 253/624/157 254/625/157 250/626/157
f 250/627/158 254/628/158 255/629/158 251/630/158
f 251/631/159 255/632/159 252/633/159 247/634/159
f 261/635/160 257/636/160 259/637/160 262/638/160
f 260/639/161 256/640/161 257/641/161 261/642/161
f 258/643/162 256/644/162 260/645/162 263/646/162
f 262/647/163 259/648/163 258/649/163 263/650/163
f 262/651/164 266/652/164 264/653/164 261/654/164
f 261/655/165 264/656/165 265/657/165 260/658/165
f 260/659/166 265/660/166 267/661/166 263/662/166
f 263/663/167 267/664/167 266/665/167 262/666/167
f 264/667/168 266/668/168 269/669/168 270/670/168
f 268/671/169 267/672/169 265/673/169 271/674/169
f 266/675/170 267/676/170 268/677/170 269/678/170
f 274/679/171 273/680/171 272/681/171 275/682/171
f 268/683/172 272/684/172 273/685/172 269/686/172
f 269/687/173 273/688/173 274/689/173 270/690/173
f 270/691/174 274/692/174 275/693/174 271/694/174
f 271/695/175 275/696/175 272/697/175 268/698/175
f 271/699/176 265/700/176 279/701/176
f 277/702/177 264/703/177 270/704/177 278/705/177
f 285/706/178 286/707/178 287/708/178
f 284/709/179 283/710/179 285/711/179
f 281/712/180 282/713/180 265/714/180
f 281/715/181 283/716/181 284/717/181 282/718/181
f 282/719/182 284/720/182 285/721/182 277/722/182
f 277/723/183 285/724/183 283/725/183 281/726/183
f 278/727/184 286/728/184 285/729/184 277/730/184
f 277/731/185 285/732/185 287/733/185 279/734/185
f 279/735/186 287/736/186 286/737/186 278/738/186
f 291/739/187 289/740/187 293/741/187 294/742/187
f 289/743/188 288/744/188 292/745/188 293/746/188
f 292/747/189 288/748/189 290/749/189 295/750/189
f 290/751/190 291/752/190 294/753/190 295/754/190
f 296/755/191 298/756/191 294/757/191 293/758/191
f 297/759/192 296/760/192 293/761/192 292/762/192
f 299/763/193 297/764/193 292/765/193 295/766/193
f 298/767/194 299/768/194 295/769/194 294/770/194
f 301/771/195 298/772/195 296/773/195 302/774/195
f 297/775/196 299/776/196 300/777/196 303/778/196
f 300/779/197 299/780/197 298/781/197 301/782/197
f 304/783/198 305/784/198 306/785/198 307/786/198
f 305/787/199 304/788/199 300/789/199 301/790/199
f 306/791/200 305/792/200 301/793/200 302/794/200
f 307/795/201 306/796/201 302/797/201 303/798/201
f 304/799/202 307/800/202 303/801/202 300/802/202
f 297/803/203 303/804/203 311/805/203
f 302/806/204 296/807/204 309/808/204 310/809/204
f 318/810/205 317/811/205 319/812/205
f 315/813/206 316/814/206 317/815/206
f 314/816/207 313/817/207 297/818/207
f 316/819/208 315/820/208 313/821/208 314/822/208
f 317/823/209 316/824/209 314/825/209 309/826/209
f 315/827/210 317/828/210 309/829/210 313/830/210
f 317/831/211 318/832/211 310/833/211 309/834/211
f 319/835/212 317/836/212 309/837/212 311/838/212
f 318/839/213 319/840/213 311/841/213 310/842/213
f 321/843/214 320/844/214 322/845/214 323/846/214
f 325/847/215 324/848/215 326/849/215 327/850/215
o plate
v 0.5625 2.5457530172351266 2.123797742703603
v 0.5625 2.5457530172351266 2.123797742703603
v 1.375 2.1395030172351266 1.4201521021287467
v 1.375 2.1395030172351266 1.4201521021287467
v 1.375 1.5770030172351266 0.44587352287125326
v 1.375 1.5770030172351266 0.44587352287125326
v 0.5625 1.1707530172351266 -0.2577721177036033
v 0.5625 1.1707530172351266 -0.2577721177036033
v -0.5625 1.1707530172351266 -0.2577721177036033
v -0.5625 1.1707530172351266 -0.2577721177036033
v -1.375 1.5770030172351266 0.44587352287125326
v -1.375 1.5770030172351266 0.44587352287125326
v -1.375 2.1395030172351266 1.4201521021287467
v -1.375 2.1395030172351266 1.4201521021287467
v -0.5625 2.5457530172351266 2.123797742703603
v -0.5625 2.5457530172351266 2.123797742703603
v 0.5625 1.2332530172351266 -0.1495189422305484
v 1.25 1.5770030172351266 0.44587352287125326
v 1.25 2.1395030172351266 1.4201521021287467
v 0.5625 2.4832530172351266 2.0155445672305485
v -1.25 2.1395030172351266 1.4201521021287467
v -1.25 1.5770030172351266 0.44587352287125326
v -0.5625 1.2332530172351266 -0.1495189422305484
v -0.5625 2.4832530172351266 2.0155445672305485
v 0.5625 2.4832530172351266 2.0155445672305485
v -0.5625 2.4832530172351266 2.0155445672305485
v -0.5625 1.2332530172351266 -0.1495189422305484
v 0.5625 1.2332530172351266 -0.1495189422305484
v 0.5625 1.6121391313908187 -0.3682689422305484
v 1.25 1.9558891313908187 0.22712352287125326
v 0.5625 1.5496391313908187 -0.4765221177036033
v 1.375 1.9558891313908187 0.22712352287125326
v 1.25 2.518389131390818 1.2014021021287467
v 1.375 2.518389131390818 1.2014021021287467
v 0.5625 2.862139131390818 1.7967945672305485
v 0.5625 2.924639131390818 1.9050477427036032
v -1.25 2.518389131390818 1.2014021021287467
v -1.25 1.9558891313908187 0.22712352287125326
v -1.375 2.518389131390818 1.2014021021287467
v -1.375 1.9558891313908187 0.22712352287125326
v -0.5625 1.6121391313908187 -0.3682689422305484
v -0.5625 1.5496391313908187 -0.4765221177036033
v -0.5625 2.862139131390818 1.7967945672305485
v -0.5625 2.924639131390818 1.9050477427036032
v 0.5625 2.862139131390818 1.7967945672305485
v -0.5625 2.862139131390818 1.7967945672305485
v -0.5625 1.6121391313908187 -0.3682689422305484
v 0.5625 1.6121391313908187 -0.3682689422305484
v 1.375 2.085376429498599 1.4514021021287467
v 0.5625 2.491626429498599 2.155047742703603
v 1.375 1.5228764294985992 0.47712352287125326
v 0.5625 1.1166264294985992 -0.2265221177036033
v -0.5625 1.1166264294985992 -0.2265221177036033
v -0.5625 2.491626429498599 2.155047742703603
v -1.375 2.085376429498599 1.4514021021287467
v -1.375 1.5228764294985992 0.47712352287125326
v 0.5625 1.5770030172351266 0.44587352287125326
v 0.5625 1.5770030172351266 0.44587352287125326
v -0.5625 1.5770030172351266 0.44587352287125326
v 1.25 1.5770030172351266 0.44587352287125326
v 1.25 1.5770030172351266 0.44587352287125326
v 0.5625 1.2332530172351266 -0.1495189422305484
v 0.5625 1.2332530172351266 -0.1495189422305484
v -0.5625 1.2332530172351266 -0.1495189422305484
v -0.5625 1.5770030172351266 0.44587352287125326
v -0.5625 1.2332530172351266 -0.1495189422305484
v -1.25 1.5770030172351266 0.44587352287125326
v -0.5625 2.1395030172351266 1.4201521021287467
v -0.5625 2.1395030172351266 1.4201521021287467
v 0.5625 2.1395030172351266 1.4201521021287467
v 0.5625 2.1395030172351266 1.4201521021287467
v 1.25 2.1395030172351266 1.4201521021287467
v -1.25 1.5770030172351266 0.44587352287125326
v -1.25 2.1395030172351266 1.4201521021287467
v -0.5625 2.4832530172351266 2.0155445672305485
v -1.25 2.1395030172351266 1.4201521021287467
v -0.5625 2.4832530172351266 2.0155445672305485
v 0.5625 2.4832530172351266 2.0155445672305485
v 0.5625 2.4832530172351266 2.0155445672305485
v 1.25 2.1395030172351266 1.4201521021287467
v 0.1875 2.006129604971654 1.0641425757095822
v 0.1875 1.818629604971654 0.7393830492904178
v 0.1875 1.9520030172351266 1.0953925757095822
v 0.1875 1.7645030172351266 0.7706330492904178
v -0.1875 2.006129604971654 1.0641425757095822
v -0.1875 1.818629604971654 0.7393830492904178
v -0.1875 1.9520030172351266 1.0953925757095822
v -0.1875 1.7645030172351266 0.7706330492904178
v 0.1875 1.8978764294985992 1.1266425757095822
v 0.1875 1.7103764294985992 0.8018830492904178
v 0.1875 1.8437498417620717 1.1578925757095822
v 0.1875 1.6562498417620717 0.8331330492904178
v -0.1875 1.8978764294985992 1.1266425757095822
v -0.1875 1.7103764294985992 0.8018830492904178
v -0.1875 1.8437498417620717 1.1578925757095822
v -0.1875 1.6562498417620717 0.8331330492904178
vt 0.1015625 0.6875
vt 0 0.5859375
vt 0 0.4453125
vt 0.1015625 0.34375
vt 0.34375 0.4453125
vt 0.34375 0.5859375
vt 0.2421875 0.6875
vt 0.2421875 0.34375
vt 0.1015625 0.34375
vt 0.2421875 0.34375
vt 0.2421875 0.6875
vt 0.1015625 0.6875
vt 0.34375 0.546875
vt 0.359375 0.55769234375
vt 0.359375 0.67668265625
vt 0.34375 0.6875
vt 0.34375 0.5859375
vt 0.328125 0.5859375
vt 0.328125 0.4453125
vt 0.34375 0.4453125
vt 0.34375 0.546875
vt 0.359375 0.55769234375
vt 0.359375 0.67668265625
vt 0.34375 0.6875
vt 0 0.4453125
vt 0.015625 0.4453125
vt 0.015625 0.5859375
vt 0 0.5859375
vt 0.34375 0.546875
vt 0.359375 0.55769234375
vt 0.359375 0.67668265625
vt 0.34375 0.6875
vt 0.34375 0.546875
vt 0.359375 0.55769234375
vt 0.359375 0.67668265625
vt 0.34375 0.6875
vt 0.2421875 0.34375
vt 0.2421875 0.359375
vt 0.1015625 0.359375
vt 0.1015625 0.34375
vt 0.1015625 0.6875
vt 0.1015625 0.671875
vt 0.2421875 0.671875
vt 0.2421875 0.6875
vt 0.30170625 1
vt 0.28605625 1
vt 0.28605625 0.9453125
vt 0.30170625 0.9453125
vt 0.6484375 0.4453125
vt 0.53125 0.4453125
vt 0.53125 0.390625
vt 0.6484375 0.390625
vt 0.671875 0.5
vt 0.53125 0.5
vt 0.53125 0.4453125
vt 0.671875 0.4453125
vt 0.671875 0.5
vt 0.53125 0.5
vt 0.53125 0.4453125
vt 0.671875 0.4453125
vt 0.671875 0.5
vt 0.53125 0.5
vt 0.53125 0.4453125
vt 0.671875 0.4453125
vt 0.6484375 0.4453125
vt 0.53125 0.4453125
vt 0.53125 0.390625
vt 0.6484375 0.390625
vt 0.30170625 0.9765625
vt 0.28605625 0.9765625
vt 0.28605625 0.921875
vt 0.30170625 0.921875
vt 0.671875 0.5
vt 0.53125 0.5
vt 0.53125 0.4453125
vt 0.671875 0.4453125
vt 0.671875 0.5
vt 0.53125 0.5
vt 0.53125 0.4453125
vt 0.671875 0.4453125
vt 0.671875 0.5
vt 0.53125 0.5
vt 0.53125 0.4453125
vt 0.671875 0.4453125
vt 0.6484375 0.4453125
vt 0.53125 0.4453125
vt 0.53125 0.390625
vt 0.6484375 0.390625
vt 0.34076875 1
vt 0.32511875 1
vt 0.32511875 0.9453125
vt 0.34076875 0.9453125
vt 0.671875 0.5
vt 0.53125 0.5
vt 0.53125 0.4453125
vt 0.671875 0.4453125
vt 0.34858125 0.9765625
vt 0.33293125 0.9765625
vt 0.33293125 0.921875
vt 0.34858125 0.921875
vt 0.6484375 0.4453125
vt 0.53125 0.4453125
vt 0.53125 0.390625
vt 0.6484375 0.390625
vt 0.671875 0.5
vt 0.53125 0.5
vt 0.53125 0.4453125
vt 0.671875 0.4453125
vt 0.37199375 1
vt 0.35636875 1
vt 0.35636875 0.9453125
vt 0.37199375 0.9453125
vt 0.671875 0.5
vt 0.53125 0.5
vt 0.53125 0.4453125
vt 0.671875 0.4453125
vt 0.30168125 1
vt 0.28605625 1
vt 0.28605625 0.9453125
vt 0.30168125 0.9453125
vt 0.671875 0.5
vt 0.53125 0.5
vt 0.53125 0.4453125
vt 0.671875 0.4453125
vt 0.30168125 1
vt 0.28605625 1
vt 0.28605625 0.9453125
vt 0.30168125 0.9453125
vt 0.671875 0.5
vt 0.53125 0.5
vt 0.53125 0.4453125
vt 0.671875 0.4453125
vt 0.37199375 1
vt 0.35636875 1
vt 0.35636875 0.9453125
vt 0.37199375 0.9453125
vt 0.671875 0.5
vt 0.53125 0.5
vt 0.53125 0.4453125
vt 0.671875 0.4453125
vt 0.4609375 0.6796875
vt 0.4609375 0.5390625
vt 0.46875 0.5390625
vt 0.46875 0.6796875
vt 0.4609375 0.6796875
vt 0.4609375 0.5390625
vt 0.46875 0.5390625
vt 0.46875 0.6796875
vt 0.4609375 0.6796875
vt 0.4609375 0.5390625
vt 0.46875 0.5390625
vt 0.46875 0.6796875
vt 0.4609375 0.6796875
vt 0.4609375 0.5390625
vt 0.46875 0.5390625
vt 0.46875 0.6796875
vt 0.4609375 0.6796875
vt 0.4609375 0.5390625
vt 0.46875 0.5390625
vt 0.46875 0.6796875
vt 0.4609375 0.6796875
vt 0.4609375 0.5390625
vt 0.46875 0.5390625
vt 0.46875 0.6796875
vt 0.4609375 0.6796875
vt 0.4609375 0.5390625
vt 0.46875 0.5390625
vt 0.46875 0.6796875
vt 0.4609375 0.6796875
vt 0.4609375 0.5390625
vt 0.46875 0.5390625
vt 0.46875 0.6796875
vt 0.328125 0.9140625
vt 0.2421875 1
vt 0.2421875 0.9140625
vt 0.1015625 0.9140625
vt 0.2421875 0.9140625
vt 0.2421875 1
vt 0.1015625 1
vt 0.1015625 1
vt 0.015625 0.9140625
vt 0.1015625 0.9140625
vt 0.2421875 0.9140625
vt 0.1015625 0.9140625
vt 0.1015625 0.7734375
vt 0.2421875 0.7734375
vt 0.328125 0.9140625
vt 0.2421875 0.9140625
vt 0.2421875 0.7734375
vt 0.328125 0.7734375
vt 0.015625 0.7734375
vt 0.1015625 0.7734375
vt 0.1015625 0.9140625
vt 0.015625 0.9140625
vt 0.015625 0.7734375
vt 0.1015625 0.6875
vt 0.1015625 0.7734375
vt 0.2421875 0.7734375
vt 0.1015625 0.7734375
vt 0.1015625 0.6875
vt 0.2421875 0.6875
vt 0.2421875 0.6875
vt 0.328125 0.7734375
vt 0.2421875 0.7734375
vt 0.546875 0.8359375
vt 0.5546875 0.8359375
vt 0.5546875 0.7890625
vt 0.546875 0.7890625
vt 0.5078125 0.7890625
vt 0.515625 0.7890625
vt 0.515625 0.8359375
vt 0.5078125 0.8359375
vt 0.5546875 0.7890625
vt 0.5546875 0.796875
vt 0.5078125 0.796875
vt 0.5078125 0.7890625
vt 0.5078125 0.828125
vt 0.5078125 0.8359375
vt 0.5546875 0.8359375
vt 0.5546875 0.828125
vt 0.6328125 0.9609375
vt 0.6328125 0.9140625
vt 0.6796875 0.9140625
vt 0.6796875 0.9609375
vt 0.671875 0.7890625
vt 0.6796875 0.7890625
vt 0.6796875 0.8359375
vt 0.671875 0.8359375
vt 0.6328125 0.8359375
vt 0.640625 0.8359375
vt 0.640625 0.7890625
vt 0.6328125 0.7890625
vt 0.6796875 0.828125
vt 0.6796875 0.8359375
vt 0.6328125 0.8359375
vt 0.6328125 0.828125
vt 0.6328125 0.7890625
vt 0.6328125 0.796875
vt 0.6796875 0.796875
vt 0.6796875 0.7890625
vn 0 -0.8660254037844387 0.49999999999999994
vn 0 -0.8660254037844387 0.49999999999999994
vn 0 -0.8660254037844387 0.49999999999999994
vn 0 0.8660254037844387 -0.49999999999999994
vn 0 0.8660254037844387 -0.49999999999999994
vn 0 0.8660254037844387 -0.49999999999999994
vn 0 0.8660254037844387 -0.49999999999999994
vn 0 0.8660254037844387 -0.49999999999999994
vn 0 0.8660254037844387 -0.49999999999999994
vn 0 0.8660254037844387 -0.49999999999999994
vn 0 0.8660254037844387 -0.49999999999999994
vn -1 0 0
vn -0.7071067811865476 0.35355339059327373 0.6123724356957946
vn 0.7071067811865476 -0.35355339059327373 -0.6123724356957946
vn -1 0 0
vn 1 0 0
vn -0.7071067811865476 -0.35355339059327373 -0.6123724356957946
vn -1 0 0
vn 0.7071067811865476 0.35355339059327373 0.6123724356957946
vn 1 0 0
vn -1 0 0
vn 0.7071067811865476 0.35355339059327373 0.6123724356957946
vn 1 0 0
vn -0.7071067811865476 -0.35355339059327373 -0.6123724356957946
vn 1 0 0
vn 0.7071067811865476 -0.35355339059327373 -0.6123724356957946
vn -0.7071067811865476 0.35355339059327373 0.6123724356957946
vn 1 0 0
vn 0 -0.49999999999999994 -0.8660254037844387
vn -1 0 0
vn 0 0.49999999999999994 0.8660254037844387
vn -1 0 0
vn 0 0.49999999999999994 0.8660254037844387
vn 1 0 0
vn 0 -0.49999999999999994 -0.8660254037844387
vn 1 0 0
vn 0.7071067811865476 0.35355339059327373 0.6123724356957946
vn 0.7071067811865476 -0.35355339059327373 -0.6123724356957946
vn 0 -0.49999999999999994 -0.8660254037844387
vn 0 0.49999999999999994 0.8660254037844387
vn -0.7071067811865476 0.35355339059327373 0.6123724356957946
vn -1 0 0
vn -0.7071067811865476 -0.35355339059327373 -0.6123724356957946
vn 0 0.8660254037844387 -0.49999999999999994
vn 0 0.8660254037844387 -0.49999999999999994
vn 0 0.8660254037844387 -0.49999999999999994
vn 0 0.8660254037844387 -0.49999999999999994
vn 0 0.8660254037844387 -0.49999999999999994
vn 0 0.8660254037844387 -0.49999999999999994
vn 0 0.8660254037844387 -0.49999999999999994
vn 0 0.8660254037844387 -0.49999999999999994
vn 0 0.8660254037844387 -0.49999999999999994
vn 1 0 0
vn -1 0 0
vn 0 0.49999999999999994 0.8660254037844387
vn 0 -0.49999999999999994 -0.8660254037844387
vn 0 0.8660254037844387 -0.49999999999999994
vn 1 0 0
vn -1 0 0
vn 0 0.49999999999999994 0.8660254037844387
vn 0 -0.49999999999999994 -0.8660254037844387
usemtl m_cf6d6d3a-91e2-34f7-1c6e-fb941afaafef
f 381/851/216 382/852/216 383/853/216 380/854/216
f 378/855/217 376/856/217 377/857/217 379/858/217
f 380/859/218 379/860/218 377/861/218 381/862/218
f 358/863/219 356/864/219 357/865/219 359/866/219
f 359/867/220 357/868/220 360/869/220 361/870/220
f 361/871/221 360/872/221 362/873/221 363/874/221
f 366/875/222 364/876/222 365/877/222 367/878/222
f 367/879/223 365/880/223 368/881/223 369/882/223
f 371/883/224 370/884/224 364/885/224 366/886/224
f 363/887/225 372/888/225 373/889/225 371/890/225
f 369/891/226 374/892/226 375/893/226 358/894/226
f 356/895/227 358/896/227 335/897/227 344/898/227
f 357/899/228 356/900/228 344/901/228 345/902/228
f 358/903/229 359/904/229 333/905/229 335/906/229
f 360/907/230 357/908/230 345/909/230 346/910/230
f 359/911/231 361/912/231 331/913/231 333/914/231
f 362/915/232 360/916/232 346/917/232 347/918/232
f 363/919/233 362/920/233 347/921/233 329/922/233
f 361/923/234 363/924/234 329/925/234 331/926/234
f 365/927/235 364/928/235 348/929/235 349/930/235
f 366/931/236 367/932/236 339/933/236 341/934/236
f 368/935/237 365/936/237 349/937/237 350/938/237
f 369/939/238 368/940/238 350/941/238 337/942/238
f 367/943/239 369/944/239 337/945/239 339/946/239
f 370/947/240 371/948/240 343/949/240 351/950/240
f 364/951/241 370/952/241 351/953/241 348/954/241
f 371/955/242 366/956/242 341/957/242 343/958/242
f 372/959/243 363/960/243 329/961/243 352/962/243
f 373/963/244 372/964/244 352/965/244 353/966/244
f 371/967/245 373/968/245 353/969/245 343/970/245
f 363/971/246 371/972/246 343/973/246 329/974/246
f 374/975/247 369/976/247 337/977/247 354/978/247
f 375/979/248 374/980/248 354/981/248 355/982/248
f 358/983/249 375/984/249 355/985/249 335/986/249
f 369/987/250 358/988/250 335/989/250 337/990/250
f 376/991/251 378/992/251 332/993/251 330/994/251
f 377/995/252 376/996/252 330/997/252 328/998/252
f 378/999/253 379/1000/253 334/1001/253 332/1002/253
f 379/1003/254 380/1004/254 336/1005/254 334/1006/254
f 381/1007/255 377/1008/255 328/1009/255 342/1010/255
f 382/1011/256 381/1012/256 342/1013/256 340/1014/256
f 383/1015/257 382/1016/257 340/1017/257 338/1018/257
f 380/1019/258 383/1020/258 338/1021/258 336/1022/258
f 388/1023/259 389/1024/259 384/1025/259
f 386/1026/260 385/1027/260 390/1028/260 391/1029/260
f 393/1030/261 394/1031/261 392/1032/261
f 385/1033/262 386/1034/262 396/1035/262 397/1036/262
f 387/1037/263 384/1038/263 398/1039/263 399/1040/263
f 401/1041/264 395/1042/264 392/1043/264 400/1044/264
f 403/1045/265 402/1046/265 395/1047/265
f 397/1048/266 396/1049/266 404/1050/266 405/1051/266
f 406/1052/267 407/1053/267 398/1054/267
f 411/1055/268 409/1056/268 408/1057/268 410/1058/268
f 414/1059/269 412/1060/269 413/1061/269 415/1062/269
f 410/1063/270 408/1064/270 412/1065/270 414/1066/270
f 415/1067/271 413/1068/271 409/1069/271 411/1070/271
f 413/1071/272 412/1072/272 408/1073/272 409/1074/272
f 419/1075/273 417/1076/273 416/1077/273 418/1078/273
f 422/1079/274 420/1080/274 421/1081/274 423/1082/274
f 418/1083/275 416/1084/275 420/1085/275 422/1086/275
f 423/1087/276 421/1088/276 417/1089/276 419/1090/276