# Blender v2.93.5 OBJ File: ''
# www.blender.org
mtllib hydrojet.mtl
o Base_Cube.003
v 0.937500 1.999962 0.937494
v 0.937500 1.999962 0.062500
v 0.062500 1.999962 0.062500
v 0.062500 1.999962 0.937494
v 1.000000 -0.000000 1.999987
v 2.000000 -0.000000 1.999987
v 2.000000 -0.000000 3.000000
v 1.000000 -0.000000 3.000000
v 1.000000 1.999961 3.000000
v 1.000000 1.999962 1.999987
v 0.000000 1.999962 1.999987
v 0.000000 1.999961 3.000000
v 1.000000 0.000000 0.000000
v 2.000000 0.000000 0.000000
v 2.000000 -0.000000 0.999994
v 1.000000 -0.000000 0.999994
v 0.000000 0.500000 1.999987
v 0.000000 0.500000 3.000000
v 2.000000 0.500000 0.000000
v 2.000000 0.500000 0.999994
v 0.000000 -0.000000 0.999994
v 0.000000 0.000000 0.000000
v 2.000000 0.500000 3.000000
v 1.000000 0.500000 3.000000
v 2.000000 0.500000 1.999987
v 1.000000 0.500000 0.000000
v 0.000000 -0.000000 3.000000
v 0.000000 -0.000000 1.999987
v 1.000000 0.875000 3.000000
v 2.000000 0.875000 3.000000
v 2.000000 1.000000 3.000000
v 1.000000 1.000000 3.000000
v 2.000000 1.000000 1.999987
v 2.000000 0.875000 1.999987
v 2.000000 0.500000 1.874987
v 2.000000 0.875000 1.874987
v 2.000000 0.875000 2.062487
v 2.000000 0.500000 2.062487
v 2.000000 1.000000 0.999994
v 2.000000 0.875000 0.999994
v 2.000000 0.875000 0.000000
v 2.000000 0.875000 0.187500
v 2.000000 0.500000 0.187500
v 2.000000 0.500000 2.812500
v 2.000000 0.875000 2.812500
v 2.000000 0.500000 0.937494
v 2.000000 0.875000 0.937494
v 2.000000 1.000000 0.000000
v 1.812500 0.875000 3.000000
v 1.812500 0.500000 3.000000
v 1.000000 0.875000 0.000000
v 1.187500 0.875000 0.000000
v 1.187500 0.500000 0.000000
v 1.812500 0.500000 0.000000
v 1.812500 0.875000 0.000000
v 1.187500 0.875000 3.000000
v 1.187500 0.500000 3.000000
v 1.000000 1.000000 0.000000
v 1.187500 0.500000 0.062500
v 1.187500 0.875000 0.062500
v 1.812500 0.875000 0.062500
v 1.812500 0.500000 0.062500
v 1.937500 0.500000 2.062487
v 1.937500 0.875000 2.062487
v 1.937500 0.875000 2.812500
v 1.937500 0.500000 2.812500
v 1.812500 0.500000 2.937500
v 1.812500 0.875000 2.937500
v 1.187500 0.875000 2.937500
v 1.187500 0.500000 2.937500
v 1.937500 0.500000 0.187500
v 1.937500 0.875000 0.187500
v 1.937500 0.875000 0.937494
v 1.937500 0.500000 0.937494
v 2.000000 0.875000 1.124994
v 2.000000 0.500000 1.124994
v 0.000000 0.500000 0.999994
v 1.000000 0.500000 1.999987
v 1.000000 0.500000 0.999994
v 1.000000 0.937500 1.999987
v 1.000000 1.000000 1.999987
v 1.000000 1.000000 0.999994
v 1.000000 0.937500 0.999994
v 1.000000 0.812500 1.999987
v 0.875000 0.937500 1.999987
v 0.875000 0.812500 1.999987
v 1.000000 0.812500 0.999994
v 0.875000 0.937500 0.999994
v 0.875000 0.812500 0.999994
v 2.000000 -0.000000 1.874989
v 2.000000 -0.000000 1.124991
v 0.937500 0.500000 0.062500
v 0.062500 0.500000 0.062500
v 0.000000 0.500000 0.749995
v 0.062500 0.500000 0.999994
v 0.062500 0.500000 0.749995
v 0.062500 0.500000 0.937494
v 0.937500 0.500000 0.999994
v 0.937500 0.500000 0.937494
v 0.937500 0.500000 0.000000
v 0.062500 0.500000 0.000000
v 0.000000 0.500000 0.000000
v 0.000000 0.500000 0.249999
v 0.062500 0.500000 0.249999
v 0.000000 0.750000 0.249999
v 0.062500 0.750000 0.249999
v 0.000000 0.750000 0.624996
v 0.000000 0.750000 0.749995
v 0.062500 0.750000 0.749995
v 0.062500 0.750000 0.624996
v 0.000000 0.750000 0.374998
v 0.062500 0.750000 0.374998
v 0.062500 0.937500 0.624996
v 0.000000 0.937500 0.624996
v 0.000000 0.937500 0.374998
v 0.062500 0.937500 0.374998
vt 0.718750 0.625000
vt 0.718750 0.843750
vt 0.500000 0.843750
vt 0.500000 0.625000
vt 0.250000 0.734375
vt 0.250000 0.984375
vt 0.000000 0.984375
vt 0.000000 0.734375
vt 0.500000 0.375000
vt 0.250000 0.375000
vt 0.250000 0.125000
vt 0.500000 0.125000
vt 0.000000 0.734375
vt 0.000000 0.984375
vt 0.250000 0.984375
vt 0.250000 0.734375
vt 0.953125 0.468750
vt 0.703125 0.468750
vt 0.703125 0.843750
vt 0.953125 0.843750
vt 0.750000 0.000000
vt 0.750000 0.125000
vt 0.500000 0.125000
vt 0.500000 0.000000
vt 0.000000 0.953125
vt 0.250000 0.953125
vt 0.250000 0.703125
vt 0.000000 0.703125
vt -0.000000 0.125000
vt -0.000000 -0.000000
vt 0.250000 -0.000000
vt 0.250000 0.125000
vt 0.250000 -0.000000
vt 0.250000 0.125000
vt -0.000000 0.125000
vt -0.000000 -0.000000
vt 0.250000 0.000000
vt 0.250000 0.125000
vt 0.000000 0.125000
vt 0.000000 0.000000
vt 0.250000 0.953125
vt 0.000000 0.953125
vt 0.000000 0.703125
vt 0.250000 0.703125
vt 0.234375 0.953125
vt 0.031250 0.953125
vt 0.031250 0.984375
vt 0.234375 0.984375
vt 0.234375 0.953125
vt 0.031250 0.953125
vt 0.031250 0.984375
vt 0.234375 0.984375
vt 0.156250 0.531250
vt 0.156250 0.500000
vt 0.031250 0.500000
vt 0.031250 0.531250
vt 0.218750 0.531250
vt 0.062500 0.531250
vt 0.062500 0.546875
vt 0.218750 0.546875
vt 0.281250 0.953125
vt 0.484375 0.953125
vt 0.484375 0.984375
vt 0.281250 0.984375
vt 0.125000 0.546875
vt 0.031250 0.546875
vt 0.031250 0.500000
vt 0.125000 0.500000
vt 0.125000 0.500000
vt 0.125000 0.546875
vt 0.031250 0.546875
vt 0.031250 0.500000
vt 0.218750 0.531250
vt 0.218750 0.531250
vt 0.062500 0.531250
vt 0.062500 0.531250
vt 0.515625 0.953125
vt 0.515625 0.984375
vt 0.718750 0.984375
vt 0.718750 0.953125
vt 0.125000 0.546875
vt 0.031250 0.546875
vt 0.031250 0.500000
vt 0.125000 0.500000
vt 0.125000 0.546875
vt 0.031250 0.546875
vt 0.031250 0.500000
vt 0.125000 0.500000
vt 0.140625 0.500000
vt 0.140625 0.546875
vt 0.031250 0.546875
vt 0.031250 0.500000
vt 0.031250 0.500000
vt 0.031250 0.546875
vt 0.125000 0.546875
vt 0.125000 0.500000
vt 0.515625 0.984375
vt 0.515625 0.953125
vt 0.250000 0.375000
vt 0.250000 0.468750
vt 0.421875 0.468750
vt 0.421875 0.375000
vt 0.250000 0.453125
vt 0.265625 0.453125
vt 0.265625 0.375000
vt 0.250000 0.375000
vt 0.187500 0.953125
vt 0.031250 0.953125
vt 0.031250 0.937500
vt 0.187500 0.937500
vt 0.250000 0.375000
vt 0.265625 0.375000
vt 0.265625 0.453125
vt 0.250000 0.453125
vt 0.250000 0.359375
vt 0.406250 0.375000
vt 0.406250 0.359375
vt 0.250000 0.375000
vt 0.250000 0.468750
vt 0.437500 0.468750
vt 0.437500 0.375000
vt 0.250000 0.375000
vt 0.265625 0.375000
vt 0.265625 0.453125
vt 0.250000 0.453125
vt 0.046875 0.953125
vt 0.250000 0.953125
vt 0.250000 0.953125
vt 0.046875 0.953125
vt 0.250000 0.453125
vt 0.265625 0.453125
vt 0.265625 0.375000
vt 0.250000 0.375000
vt 0.437500 0.359375
vt 0.437500 0.375000
vt 0.250000 0.375000
vt 0.250000 0.359375
vt 0.250000 0.375000
vt 0.250000 0.468750
vt 0.406250 0.468750
vt 0.406250 0.375000
vt 0.265625 0.453125
vt 0.250000 0.453125
vt 0.265625 0.375000
vt 0.187500 0.953125
vt 0.187500 0.937500
vt 0.031250 0.937500
vt 0.031250 0.953125
vt 0.265625 0.375000
vt 0.250000 0.375000
vt 0.250000 0.453125
vt 0.265625 0.453125
vt 0.406250 0.359375
vt 0.406250 0.375000
vt 0.250000 0.359375
vt 0.437500 0.375000
vt 0.437500 0.468750
vt 0.250000 0.468750
vt 0.250000 0.375000
vt 0.265625 0.375000
vt 0.250000 0.375000
vt 0.250000 0.453125
vt 0.265625 0.453125
vt 0.218750 0.968750
vt 0.218750 0.937500
vt 0.031250 0.937500
vt 0.031250 0.968750
vt 0.250000 0.453125
vt 0.265625 0.453125
vt 0.265625 0.375000
vt 0.250000 0.375000
vt 0.437500 0.375000
vt 0.437500 0.359375
vt 0.250000 0.359375
vt 0.250000 0.375000
vt 0.125000 0.515625
vt 0.031250 0.515625
vt 0.031250 0.546875
vt 0.125000 0.546875
vt 0.250000 0.000000
vt 0.250000 0.125000
vt 0.000000 0.125000
vt 0.000000 0.000000
vt 0.750000 0.000000
vt 0.750000 0.125000
vt 0.500000 0.125000
vt 0.500000 0.000000
vt 0.265625 0.718750
vt 0.015625 0.718750
vt 0.015625 0.968750
vt 0.265625 0.968750
vt 0.500000 0.953125
vt 0.500000 0.703125
vt 0.000000 0.125000
vt 0.250000 0.500000
vt 0.000000 0.500000
vt 0.500000 0.125000
vt 0.500000 -0.000000
vt 0.750000 -0.000000
vt 0.750000 0.125000
vt 0.000000 0.125000
vt 0.250000 0.125000
vt 0.250000 0.500000
vt 0.000000 0.500000
vt 0.000000 0.484375
vt 0.250000 0.484375
vt 0.250000 0.500000
vt 0.000000 0.500000
vt 0.015625 0.015625
vt 0.015625 0.015625
vt 0.015625 0.015625
vt 0.015625 0.015625
vt 0.250000 0.500000
vt 0.250000 0.421875
vt 0.000000 0.421875
vt 0.000000 0.500000
vt 0.750000 0.875000
vt 0.750000 0.906250
vt 0.500000 0.906250
vt 0.500000 0.875000
vt 0.750000 0.937500
vt 0.500000 0.937500
vt 0.015625 0.015625
vt 0.015625 0.015625
vt 0.015625 0.015625
vt 0.015625 0.015625
vt 0.500000 0.890625
vt 0.750000 0.890625
vt 0.750000 0.921875
vt 0.500000 0.921875
vt 0.718750 0.250000
vt 0.906250 0.250000
vt 0.906250 0.468750
vt 0.718750 0.468750
vt 0.281250 -0.000000
vt 0.281250 0.125000
vt 0.468750 0.125000
vt 0.468750 0.000000
vt 0.500000 0.734375
vt 0.500000 0.984375
vt 0.718750 0.250000
vt 0.500000 0.250000
vt 0.500000 0.625000
vt 0.718750 0.625000
vt 0.515625 0.609375
vt 0.578125 0.609375
vt 0.578125 0.625000
vt 0.515625 0.625000
vt 0.718750 0.250000
vt 0.718750 0.625000
vt 0.531250 0.921875
vt 0.531250 0.906250
vt 0.750000 0.906250
vt 0.750000 0.921875
vt 0.718750 0.625000
vt 0.500000 0.625000
vt 0.500000 0.250000
vt 0.718750 0.250000
vt 0.531250 0.921875
vt 0.750000 0.921875
vt 0.750000 0.937500
vt 0.531250 0.937500
vt 0.250000 0.546875
vt 0.000000 0.546875
vt 0.000000 0.671875
vt 0.250000 0.671875
vt 0.718750 0.625000
vt 0.500000 0.625000
vt 0.500000 0.250000
vt 0.718750 0.250000
vt 0.515625 0.000000
vt 0.765625 0.000000
vt 0.765625 0.125000
vt 0.515625 0.125000
vt 0.703125 0.625000
vt 0.640625 0.625000
vt 0.640625 0.609375
vt 0.703125 0.609375
vt 0.578125 0.625000
vt 0.578125 0.609375
vt 0.671875 0.593750
vt 0.703125 0.593750
vt 0.703125 0.609375
vt 0.671875 0.609375
vt 0.187500 0.578125
vt 0.250000 0.578125
vt 0.250000 0.562500
vt 0.187500 0.562500
vt 0.812500 0.187500
vt 0.812500 0.125000
vt 0.937500 0.125000
vt 0.937500 0.187500
vt 0.515625 0.296875
vt 0.515625 0.328125
vt 0.500000 0.328125
vt 0.500000 0.296875
vt 0.625000 0.609375
vt 0.625000 0.593750
vt 0.562500 0.593750
vt 0.562500 0.609375
vt 0.843750 0.187500
vt 0.906250 0.187500
vt 0.906250 0.234375
vt 0.843750 0.234375
vt 0.515625 0.609375
vt 0.515625 0.593750
vt 0.515625 0.921875
vt 0.515625 0.906250
vt 0.765625 0.906250
vt 0.765625 0.921875
vt 1.000000 -0.000029
vt 0.750000 -0.000029
vt 0.750000 0.124971
vt 1.000029 0.125000
vt 0.281250 0.968750
vt 0.031250 0.968750
vt 0.031250 0.718750
vt 0.281250 0.718750
vt 0.281250 0.968750
vt 0.031250 0.968750
vt 0.031250 0.718750
vt 0.281250 0.718750
vt 0.031250 0.968750
vt 0.031250 0.718750
vt 0.296875 0.718750
vt 0.296875 0.968750
vn 0.0000 1.0000 0.0000
vn 0.0000 -1.0000 -0.0000
vn -1.0000 0.0000 0.0000
vn 1.0000 0.0000 0.0000
vn 0.0000 0.0000 1.0000
vn 0.0000 0.0000 -1.0000
g Base_Cube.003_Base_Cube.003_Material.001
usemtl Material.001
s 1
f 1/1/1 2/2/1 3/3/1 4/4/1
f 5/5/2 6/6/2 7/7/2 8/8/2
f 9/9/1 10/10/1 11/11/1 12/12/1
f 13/13/2 14/14/2 15/15/2 16/16/2
f 17/17/3 18/18/3 12/19/3 11/20/3
f 14/21/4 19/22/4 20/23/4 15/24/4
f 13/25/2 16/26/2 21/27/2 22/28/2
f 7/29/5 23/30/5 24/31/5 8/32/5
f 6/33/4 25/34/4 23/35/4 7/36/4
f 13/37/6 26/38/6 19/39/6 14/40/6
f 5/41/2 8/42/2 27/43/2 28/44/2
f 29/45/5 30/46/5 31/47/5 32/48/5
f 33/49/4 31/50/4 30/51/4 34/52/4
f 25/53/4 35/54/4 36/55/4 34/56/4
f 25/57/4 34/58/4 37/59/4 38/60/4
f 39/61/4 33/62/4 34/63/4 40/64/4
f 19/65/4 41/66/4 42/67/4 43/68/4
f 23/69/4 44/70/4 45/71/4 30/72/4
f 20/73/4 46/74/4 47/75/4 40/76/4
f 39/77/4 40/78/4 41/79/4 48/80/4
f 23/81/5 30/82/5 49/83/5 50/84/5
f 26/85/6 51/86/6 52/87/6 53/88/6
f 19/89/6 54/90/6 55/91/6 41/92/6
f 56/93/5 29/94/5 24/95/5 57/96/5
f 48/80/6 41/79/6 51/97/6 58/98/6
f 59/99/6 60/100/6 61/101/6 62/102/6
f 52/103/4 60/104/4 59/105/4 53/106/4
f 55/107/2 61/108/2 60/109/2 52/110/2
f 54/111/3 62/112/3 61/113/3 55/114/3
f 53/115/1 59/99/1 62/116/1 54/117/1
f 63/118/4 64/119/4 65/120/4 66/121/4
f 37/122/5 64/123/5 63/124/5 38/125/5
f 45/126/2 65/127/2 64/128/2 37/129/2
f 44/130/6 66/131/6 65/132/6 45/133/6
f 38/134/1 63/135/1 66/136/1 44/137/1
f 67/138/5 68/139/5 69/140/5 70/141/5
f 49/142/3 68/143/3 67/138/3 50/144/3
f 56/145/2 69/146/2 68/147/2 49/148/2
f 57/149/4 70/150/4 69/151/4 56/152/4
f 50/153/1 67/154/1 70/150/1 57/155/1
f 71/156/4 72/157/4 73/158/4 74/159/4
f 42/160/5 72/161/5 71/162/5 43/163/5
f 47/164/2 73/165/2 72/166/2 42/167/2
f 46/168/6 74/169/6 73/170/6 47/171/6
f 43/172/1 71/173/1 74/174/1 46/175/1
f 20/176/4 40/177/4 75/178/4 76/179/4
f 28/180/3 17/181/3 77/182/3 21/183/3
f 27/184/3 18/185/3 17/186/3 28/187/3
f 77/188/1 17/189/1 78/190/1 79/191/1
f 16/192/2 5/41/2 28/44/2 21/193/2
f 78/194/6 17/181/6 11/195/6 10/196/6
f 8/197/5 24/198/5 18/199/5 27/200/5
f 18/201/5 24/202/5 9/203/5 12/204/5
f 24/202/4 78/194/4 10/196/4 9/203/4
f 80/205/3 81/206/3 82/207/3 83/208/3
f 84/209/5 80/210/5 85/211/5 86/212/5
f 78/213/3 84/214/3 87/215/3 79/216/3
f 86/217/3 85/218/3 88/219/3 89/220/3
f 80/221/1 83/222/1 88/219/1 85/218/1
f 83/223/6 87/224/6 89/225/6 88/226/6
f 87/227/2 84/228/2 86/229/2 89/230/2
f 90/231/4 91/232/4 75/233/4 36/234/4
f 6/33/4 90/235/4 35/236/4 25/34/4
f 15/24/4 20/23/4 76/237/4 91/238/4
f 16/239/2 15/240/2 6/6/2 5/5/2
f 92/241/6 93/242/6 3/243/6 2/244/6
f 94/245/1 77/246/1 95/247/1 96/248/1
f 93/242/3 97/249/3 4/250/3 3/243/3
f 98/251/1 99/252/1 97/253/1 95/254/1
f 99/255/4 92/256/4 2/257/4 1/258/4
f 93/259/1 92/260/1 100/261/1 101/262/1
f 82/263/3 58/264/3 26/265/3 79/266/3
f 97/267/5 99/268/5 1/269/5 4/270/5
f 13/271/6 22/272/6 102/273/6 26/274/6
f 102/275/1 103/276/1 104/277/1 101/278/1
f 104/277/6 103/276/6 105/279/6 106/280/6
f 107/281/1 108/282/1 109/283/1 110/284/1
f 94/285/5 96/286/5 109/287/5 108/288/5
f 105/289/3 103/290/3 94/291/3 108/292/3
f 105/293/1 111/294/1 112/295/1 106/296/1
f 107/281/5 110/284/5 113/297/5 114/298/5
f 115/299/1 114/298/1 113/297/1 116/300/1
f 111/301/3 107/302/3 114/303/3 115/304/3
f 112/305/6 111/306/6 115/299/6 116/300/6
f 26/307/1 100/308/1 98/309/1 79/310/1
f 22/311/3 21/312/3 77/313/3 102/314/3
f 31/315/1 33/316/1 81/317/1 32/318/1
f 39/319/1 48/320/1 58/321/1 82/322/1
f 39/323/1 82/324/1 81/325/1 33/326/1
l 79 95
l 77 98
l 110 112
l 100 102
l 32 58
l 101 26
l 31 48
l 96 104
o Conveyer_Cube.006
v 1.937500 1.062500 1.000000
v 1.062500 1.062500 1.000000
v 1.062500 1.062500 2.000000
v 1.937500 1.062500 2.000000
v 1.062500 1.062500 3.000000
v 1.937500 1.062500 3.000000
v 1.062500 1.000000 0.000000
v 1.062500 1.062500 0.000000
v 1.937500 1.062500 0.000000
v 1.937500 1.000000 0.000000
v 1.937500 1.125000 3.000000
v 1.937500 1.125000 2.000000
v 1.937500 1.000000 3.000000
v 1.062500 1.000000 3.000000
v 1.062500 1.125000 2.000000
v 1.000000 1.125000 2.000000
v 1.000000 1.125000 3.000000
v 1.062500 1.125000 3.000000
v 1.000000 1.000000 2.000000
v 1.000000 1.125000 1.000000
v 1.000000 1.000000 1.000000
v 2.000000 1.000000 1.000000
v 2.000000 1.125000 1.000000
v 2.000000 1.125000 2.000000
v 2.000000 1.000000 2.000000
v 1.062500 1.125000 1.000000
v 2.000000 1.125000 3.000000
v 2.000000 1.000000 3.000000
v 1.937500 1.125000 1.000000
v 1.937500 1.125000 0.000000
v 2.000000 1.125000 0.000000
v 2.000000 1.000000 0.000000
v 1.000000 1.000000 0.000000
v 1.000000 1.125000 0.000000
v 1.062500 1.125000 0.000000
v 1.000000 1.000000 3.000000
vt 0.000000 0.929688
vt 1.000000 0.929688
vt 1.000000 1.000000
vt 0.000000 1.000000
vt 1.000000 0.937500
vt 0.000000 0.937500
vt -0.000000 0.804688
vt 0.000000 0.800781
vt 1.000000 0.800781
vt 1.000000 0.804688
vt 1.000000 1.000000
vt 0.000000 1.000000
vt 0.000000 0.937500
vt 1.000000 0.937500
vt 0.000000 0.871094
vt 0.000000 0.867188
vt 1.000000 0.867188
vt 1.000000 0.871094
vt 0.687500 0.750000
vt 0.687500 0.750000
vt 0.687500 0.750000
vt 0.687500 0.750000
vt 1.000000 1.000000
vt 0.937500 1.000000
vt 0.937500 0.000000
vt 1.000000 0.000000
vt 0.062500 0.000000
vt 0.062500 1.000000
vt -0.000000 1.000000
vt 0.000000 -0.000000
vt 0.000000 0.000000
vt 0.062500 0.000000
vt 0.062500 1.000000
vt -0.000000 1.000000
vt 1.000000 0.000000
vt 0.937500 0.000000
vt -0.000000 0.000000
vt 0.062500 0.000000
vt 0.062500 1.000000
vt -0.000000 1.000000
vt 0.937500 1.000000
vt 1.000000 1.000000
vt 1.000000 0.000000
vt 0.937500 0.000000
vt 0.000000 -0.000000
vt 0.062500 -0.000000
vt 0.062500 1.000000
vt 0.000000 1.000000
vt 0.062500 1.000000
vt 0.000000 1.000000
vt 0.000000 -0.000000
vt 0.062500 0.000000
vt 0.937500 0.125000
vt 1.000000 0.125000
vt 1.000000 0.000000
vt 0.937500 0.000000
vt -0.000000 0.125000
vt 0.062500 0.125000
vt 0.062500 0.000000
vt 0.000000 -0.000000
vt 0.000000 1.000000
vt 0.062500 1.000000
vt 1.000000 1.000000
vt 0.937500 1.000000
vt 0.062500 1.000000
vt -0.000000 1.000000
vt 0.000000 0.000000
vt 0.062500 0.000000
vt 0.062500 1.000000
vt 0.000000 1.000000
vt -0.000000 0.875000
vt 0.062500 0.875000
vt 0.937500 0.875000
vt 0.937500 1.000000
vt 1.000000 1.000000
vt 1.000000 0.875000
vt 0.062500 0.000000
vt -0.000000 0.000000
vt 0.937500 0.000000
vt 0.937500 1.000000
vt 0.000025 0.000025
vt 0.062522 0.000025
vt 0.062522 0.999975
vt 0.000025 0.999975
vt 0.062500 1.000000
vt 0.000000 0.000000
vt -0.000000 1.000000
vt 0.062500 0.000000
vt 0.062500 1.000000
vt 0.000000 1.000000
vn 0.0000 1.0000 0.0000
vn 0.0000 0.0000 -1.0000
vn 0.0000 0.0000 1.0000
vn -1.0000 0.0000 0.0000
vn 1.0000 0.0000 0.0000
g Conveyer_Cube.006_Conveyer_Cube.006_Material.002
usemtl Material.002
s 1
f 117/327/7 118/328/7 119/329/7 120/330/7
f 120/330/7 119/329/7 121/331/7 122/332/7
f 123/333/8 124/334/8 125/335/8 126/336/8
f 118/337/7 117/338/7 125/339/7 124/340/7
f 129/341/9 122/342/9 121/343/9 130/344/9
g Conveyer_Cube.006_Conveyer_Cube.006_Material.003
usemtl Material.003
f 127/345/10 128/346/10 120/347/10 122/348/10
f 131/349/7 132/350/7 133/351/7 134/352/7
f 135/353/10 132/354/10 136/355/10 137/356/10
f 138/357/11 139/358/11 140/359/11 141/360/11
f 142/361/7 136/362/7 132/350/7 131/349/7
f 141/363/11 140/364/11 143/365/11 144/366/11
f 118/367/11 142/368/11 131/369/11 119/370/11
f 139/371/7 145/372/7 128/373/7 140/374/7
f 120/375/10 128/376/10 145/377/10 117/378/10
f 126/379/8 146/380/8 147/381/8 148/382/8
f 123/383/8 149/384/8 150/385/8 151/386/8
f 139/358/11 138/357/11 148/387/11 147/388/11
f 136/362/7 142/361/7 151/389/7 150/390/7
f 145/391/7 139/392/7 147/393/7 146/394/7
f 127/395/9 129/396/9 144/397/9 143/398/9
f 134/399/9 133/400/9 152/401/9 130/402/9
f 140/374/7 128/373/7 127/403/7 143/404/7
f 131/349/11 134/352/11 121/405/11 119/406/11
f 142/407/11 118/408/11 124/409/11 151/410/11
f 117/411/10 145/372/10 146/412/10 125/413/10
f 136/414/10 150/415/10 149/416/10 137/356/10
