# Blender 3.2.0
# www.blender.org
mtllib hydrojet.mtl
o Base_Cube.003
v 1.000000 -0.000000 3.000000
v 1.000000 1.000000 3.000000
v 1.000000 0.000000 0.000000
v 1.000000 1.000000 0.000000
v 2.000000 -0.000000 3.000000
v 2.000000 1.000000 3.000000
v 2.000000 0.000000 0.000000
v 2.000000 1.000000 0.000000
v 1.000000 0.000000 1.999987
v 1.000000 1.000000 1.999987
v 2.000000 0.000000 1.999987
v 2.000000 1.000000 1.999987
v 1.000000 1.000000 0.999994
v 2.000000 0.000000 0.999994
v 1.000000 0.000000 0.999994
v 2.000000 1.000000 0.999994
v 1.000000 0.500000 3.000000
v 1.000000 0.500000 0.000000
v 2.000000 0.500000 0.000000
v 2.000000 0.500000 3.000000
v 2.000000 0.500000 1.999987
v 1.000000 0.500000 1.999987
v 2.000000 0.500000 0.999994
v 1.000000 0.500000 0.999994
v 1.187500 0.500000 0.000000
v 1.187500 0.875000 0.000000
v 1.812500 0.875000 0.000000
v 1.812500 0.500000 0.000000
v 2.000000 0.500000 2.062487
v 2.000000 0.875000 2.062487
v 2.000000 0.875000 2.812500
v 2.000000 0.500000 2.812500
v 1.812500 0.500000 3.000000
v 1.812500 0.875000 3.000000
v 1.187500 0.875000 3.000000
v 1.187500 0.500000 3.000000
v 2.000000 0.500000 1.124994
v 2.000000 0.875000 1.124994
v 2.000000 0.875000 1.874987
v 2.000000 0.500000 1.874987
v 2.000000 0.500000 0.187500
v 2.000000 0.875000 0.187500
v 2.000000 0.875000 0.937494
v 2.000000 0.500000 0.937494
v 1.187500 0.500000 0.062500
v 1.187500 0.875000 0.062500
v 1.812500 0.875000 0.062500
v 1.812500 0.500000 0.062500
v 1.937500 0.500000 2.062487
v 1.937500 0.875000 2.062487
v 1.937500 0.875000 2.812500
v 1.937500 0.500000 2.812500
v 1.812500 0.500000 2.937500
v 1.812500 0.875000 2.937500
v 1.187500 0.875000 2.937500
v 1.187500 0.500000 2.937500
v 1.937500 0.500000 0.187500
v 1.937500 0.875000 0.187500
v 1.937500 0.875000 0.937494
v 1.937500 0.500000 0.937494
v 1.000000 0.875000 3.000000
v 1.000000 0.875000 0.000000
v 2.000000 0.875000 0.000000
v 2.000000 0.875000 3.000000
v 2.000000 0.875000 1.999987
v 2.000000 0.875000 0.999994
v 0.000000 0.000000 1.999987
v 0.000000 -0.000000 3.000000
v 0.000000 0.500000 0.000000
v 0.000000 0.000000 0.000000
v 0.000000 0.000000 0.999994
v 0.000000 0.500000 1.999987
v 0.000000 0.500000 0.999994
v 0.000000 0.500000 3.000000
v 1.000000 1.999962 3.000000
v 1.000000 1.999962 1.999987
v 0.937500 1.999962 0.937494
v 0.937500 1.999962 0.062500
v 0.000000 1.999962 3.000000
v 0.000000 1.999962 1.999987
v 0.062500 1.999962 0.937494
v 0.062500 1.999962 0.062500
v 1.000000 0.937500 1.999987
v 1.000000 0.937500 0.999994
v 1.000000 0.812500 1.999987
v 1.000000 0.812500 0.999994
v 0.875000 0.937500 1.999987
v 0.875000 0.812500 1.999987
v 0.875000 0.937500 0.999994
v 0.875000 0.812500 0.999994
v 2.000000 0.000000 1.124991
v 2.000000 0.000000 1.874989
v 0.937500 0.500000 0.062500
v 0.062500 0.500000 0.062500
v 0.062500 0.500000 0.937494
v 0.937500 0.500000 0.937494
v 0.062500 0.500000 0.000000
v 0.062500 0.500000 0.999994
v 0.000000 0.500000 0.749995
v 0.000000 0.500000 0.249999
v 0.062500 0.500000 0.749995
v 0.062500 0.500000 0.249999
v 0.000000 0.750000 0.749995
v 0.000000 0.750000 0.249999
v 0.062500 0.750000 0.749995
v 0.062500 0.750000 0.249999
v 0.000000 0.750000 0.624996
v 0.000000 0.750000 0.374998
v 0.062500 0.750000 0.624996
v 0.062500 0.750000 0.374998
v 0.000000 0.937500 0.624996
v 0.000000 0.937500 0.374998
v 0.062500 0.937500 0.624996
v 0.062500 0.937500 0.374998
v 0.937500 0.500000 0.000000
v 0.937500 0.500000 0.999994
vn -0.0000 1.0000 -0.0000
vn -0.0000 -1.0000 -0.0000
vn -1.0000 -0.0000 -0.0000
vn 1.0000 -0.0000 -0.0000
vn -0.0000 -0.0000 1.0000
vn -0.0000 -0.0000 -1.0000
vt 0.000000 0.734375
vt 0.250000 0.125000
vt 0.000000 0.953125
vt 0.500000 0.125000
vt 0.234375 0.984375
vt 0.000000 0.734375
vt 0.000000 0.953125
vt 0.250000 0.000000
vt 0.515625 0.000000
vt 0.515625 0.953125
vt 0.000000 0.546875
vt 0.000000 0.984375
vt -0.000000 0.125000
vt -0.000000 -0.000000
vt 0.031250 0.984375
vt 0.031250 0.953125
vt 0.000000 0.984375
vt 0.750000 0.000000
vt 0.000000 0.000000
vt 0.718750 0.953125
vt 0.250000 0.953125
vt 0.250000 0.734375
vt 0.250000 0.484375
vt 0.250000 -0.000000
vt 0.250000 0.984375
vt 0.234375 0.953125
vt 0.484375 0.953125
vt 0.250000 0.500000
vt 0.250000 0.546875
vt 0.250000 0.984375
vt 0.500000 0.000000
vt 0.500000 0.984375
vt 0.250000 0.734375
vt 0.250000 0.953125
vt 0.500000 0.953125
vt 0.500000 0.734375
vt 0.281250 0.953125
vt 0.515625 0.953125
vt 0.250000 -0.000000
vt 0.125000 0.546875
vt 0.500000 -0.000000
vt 0.250000 0.125000
vt 0.250000 0.125000
vt 0.125000 0.546875
vt 0.000000 0.671875
vt 0.515625 0.125000
vt 0.515625 0.921875
vt 0.750000 0.125000
vt 0.000000 0.125000
vt 0.125000 0.546875
vt 0.140625 0.500000
vt -0.000000 -0.000000
vt -0.000000 0.125000
vt 0.125000 0.500000
vt 0.125000 0.546875
vt 0.156250 0.531250
vt 0.218750 0.531250
vt 0.250000 0.125000
vt 0.015625 0.968750
vt 0.000000 0.125000
vt 0.250000 0.500000
vt 0.218750 0.531250
vt 0.125000 0.515625
vt 0.500000 0.125000
vt 0.265625 0.968750
vt 0.000000 0.500000
vt 0.250000 0.671875
vt 0.765625 0.921875
vt 0.125000 0.500000
vt 0.250000 0.375000
vt 0.250000 0.359375
vt 0.031250 0.500000
vt 0.250000 0.453125
vt 0.187500 0.937500
vt 0.031250 0.546875
vt 0.187500 0.953125
vt 0.250000 0.453125
vt 0.140625 0.546875
vt 0.250000 0.375000
vt 0.406250 0.359375
vt 0.218750 0.546875
vt 0.250000 0.453125
vt 0.437500 0.359375
vt 0.062500 0.546875
vt 0.250000 0.375000
vt 0.046875 0.953125
vt 0.031250 0.546875
vt 0.046875 0.953125
vt 0.250000 0.375000
vt 0.125000 0.546875
vt 0.250000 0.453125
vt 0.250000 0.359375
vt 0.125000 0.500000
vt 0.265625 0.375000
vt 0.406250 0.359375
vt 0.031250 0.500000
vt 0.265625 0.453125
vt 0.031250 0.953125
vt 0.031250 0.500000
vt 0.187500 0.953125
vt 0.265625 0.453125
vt 0.125000 0.500000
vt 0.265625 0.375000
vt 0.250000 0.359375
vt 0.125000 0.546875
vt 0.468750 0.125000
vt 0.031250 0.546875
vt 0.906250 0.468750
vt 0.031250 0.500000
vt 0.718750 0.468750
vt 0.156250 0.500000
vt 0.281250 0.125000
vt 0.125000 0.500000
vt 0.265625 0.453125
vt 0.437500 0.375000
vt 0.031250 0.500000
vt 0.265625 0.375000
vt 0.031250 0.968750
vt 0.062500 0.531250
vt 0.218750 0.968750
vt 0.250000 0.375000
vt 0.218750 0.531250
vt 0.250000 0.453125
vt 0.250000 0.375000
vt 0.265625 0.375000
vt 0.250000 0.375000
vt 0.250000 0.468750
vt 0.265625 0.453125
vt 0.031250 0.937500
vt 0.421875 0.468750
vt 0.031250 0.953125
vt 0.265625 0.453125
vt 0.421875 0.375000
vt 0.265625 0.375000
vt 0.406250 0.375000
vt 0.250000 0.375000
vt 0.265625 0.453125
vt 0.437500 0.375000
vt 0.250000 0.468750
vt 0.265625 0.375000
vt 0.250000 0.953125
vt 0.437500 0.468750
vt 0.250000 0.953125
vt 0.265625 0.375000
vt 0.437500 0.375000
vt 0.265625 0.453125
vt 0.250000 0.375000
vt 0.250000 0.375000
vt 0.406250 0.375000
vt 0.250000 0.468750
vt 0.250000 0.453125
vt 0.031250 0.937500
vt 0.406250 0.468750
vt 0.187500 0.937500
vt 0.250000 0.453125
vt 0.406250 0.375000
vt 0.250000 0.375000
vt 0.437500 0.375000
vt 0.250000 0.453125
vt 0.437500 0.359375
vt 0.437500 0.468750
vt 0.250000 0.375000
vt 0.031250 0.937500
vt 0.250000 0.468750
vt 0.218750 0.937500
vt 0.265625 0.375000
vt 0.250000 0.375000
vt 0.265625 0.453125
vt 0.250000 0.359375
vt 0.234375 0.953125
vt 0.031250 0.546875
vt 0.031250 0.546875
vt 0.515625 0.984375
vt 0.031250 0.546875
vt 0.031250 0.500000
vt 0.718750 0.984375
vt 0.031250 0.953125
vt 0.031250 0.984375
vt 0.031250 0.500000
vt 0.031250 0.546875
vt 0.234375 0.984375
vt 0.031250 0.531250
vt 0.062500 0.531250
vt 0.484375 0.984375
vt 0.281250 0.984375
vt 0.062500 0.531250
vt 0.515625 0.984375
vt 0.031250 0.515625
vt 0.250000 0.000000
vt 0.500000 0.000000
vt 0.250000 0.703125
vt 0.000000 0.703125
vt 0.750000 0.000000
vt 0.750000 0.125000
vt 0.750000 0.125000
vt 0.765625 0.125000
vt 0.703125 0.625000
vt 0.000000 0.703125
vt 0.750000 0.000000
vt 0.765625 0.000000
vt 0.250000 0.703125
vt 0.000000 0.000000
vt 1.000000 0.000000
vt 0.500000 0.703125
vt 0.953125 0.468750
vt 0.500000 0.125000
vt 0.015625 0.718750
vt 0.250000 0.125000
vt 0.000000 0.125000
vt 1.000000 0.125000
vt 0.265625 0.718750
vt 0.578125 0.609375
vt 0.703125 0.468750
vt 0.750000 0.125000
vt 0.750000 -0.000000
vt 0.000000 0.125000
vt 0.500000 0.375000
vt 0.250000 0.500000
vt 0.250000 0.375000
vt 0.000000 0.500000
vt 0.718750 0.625000
vt 0.718750 0.250000
vt 0.500000 0.250000
vt 0.718750 0.843750
vt 0.718750 0.625000
vt 0.500000 0.250000
vt 0.500000 0.125000
vt 0.703125 0.843750
vt 0.000000 0.500000
vt 0.250000 0.125000
vt 0.953125 0.843750
vt 0.250000 0.500000
vt 0.500000 0.625000
vt 0.718750 0.625000
vt 0.718750 0.250000
vt 0.500000 0.843750
vt 0.500000 0.625000
vt 0.000000 0.484375
vt 0.015625 0.015625
vt 0.750000 0.937500
vt 0.000000 0.500000
vt 0.500000 0.937500
vt 0.015625 0.015625
vt 0.015625 0.015625
vt 0.250000 0.421875
vt 0.750000 0.890625
vt 0.000000 0.421875
vt 0.015625 0.015625
vt 0.500000 0.890625
vt 0.015625 0.015625
vt 0.750000 0.906250
vt 0.015625 0.015625
vt 0.750000 0.875000
vt 0.750000 0.921875
vt 0.500000 0.906250
vt 0.015625 0.015625
vt 0.500000 0.875000
vt 0.015625 0.015625
vt 0.500000 0.921875
vt 0.906250 0.250000
vt 0.468750 0.000000
vt 0.718750 0.250000
vt 0.281250 -0.000000
vt 0.718750 0.250000
vt 0.500000 0.625000
vt 0.750000 0.921875
vt 0.500000 0.250000
vt 0.531250 0.921875
vt 0.718750 0.250000
vt 0.750000 0.906250
vt 0.718750 0.625000
vt 0.531250 0.906250
vt 0.718750 0.625000
vt 0.500000 0.625000
vt 0.531250 0.937500
vt 0.703125 0.609375
vt 0.578125 0.625000
vt 0.750000 0.921875
vt 0.515625 0.609375
vt 0.187500 0.562500
vt 0.937500 0.125000
vt 0.640625 0.625000
vt 0.812500 0.125000
vt 0.515625 0.625000
vt 0.250000 0.562500
vt 0.640625 0.609375
vt 0.703125 0.593750
vt 0.187500 0.562500
vt 0.937500 0.187500
vt 0.578125 0.625000
vt 0.812500 0.187500
vt 0.515625 0.296875
vt 0.703125 0.609375
vt 0.250000 0.562500
vt 0.578125 0.609375
vt 0.500000 0.296875
vt 0.671875 0.593750
vt 0.906250 0.187500
vt 0.484375 0.328125
vt 0.843750 0.187500
vt 0.515625 0.593750
vt 0.671875 0.609375
vt 0.484375 0.328125
vt 0.515625 0.609375
vt 0.625000 0.593750
vt 0.906250 0.234375
vt 0.843750 0.234375
vt 0.562500 0.593750
vt 0.625000 0.609375
vt 0.562500 0.609375
vt 0.750000 0.937500
vt 0.515625 0.906250
vt 0.531250 0.921875
vt 0.765625 0.906250
s 0
usemtl Material.001
f 77/221/1 78/224/1 82/236/1 81/233/1
f 9/22/2 11/25/2 5/12/2 1/1/2
f 75/217/1 76/219/1 80/230/1 79/227/1
f 3/6/2 7/17/2 14/30/2 15/33/2
f 72/205/3 74/213/3 79/228/3 80/231/3
f 7/18/4 19/48/4 23/64/4 14/31/4
f 3/7/2 15/34/2 71/201/2 70/198/2
f 5/13/5 20/52/5 17/39/5 1/2/5
f 11/24/4 21/58/4 20/53/4 5/14/4
f 3/8/6 18/43/6 19/49/6 7/19/6
f 9/21/2 1/3/2 68/192/2 67/191/2
f 61/170/5 64/177/5 6/15/5 2/5/5
f 12/26/4 6/16/4 64/178/4 65/181/4
f 21/56/4 40/111/4 39/109/4 65/182/4
f 21/57/4 65/183/4 30/84/4 29/81/4
f 16/37/4 12/27/4 65/184/4 66/185/4
f 19/50/4 63/174/4 42/116/4 41/113/4
f 20/54/4 32/90/4 31/87/4 64/179/4
f 23/62/4 44/122/4 43/119/4 66/186/4
f 16/38/4 66/187/4 63/176/4 8/20/4
f 20/55/5 64/180/5 34/96/5 33/93/5
f 18/44/6 62/172/6 26/72/6 25/69/6
f 19/51/6 28/78/6 27/75/6 63/175/6
f 35/99/5 61/171/5 17/40/5 36/102/5
f 8/20/6 63/176/6 62/173/6 4/10/6
f 45/126/6 46/127/6 47/130/6 48/133/6
f 26/73/4 46/128/4 45/125/4 25/70/4
f 27/76/2 47/131/2 46/129/2 26/74/2
f 28/79/3 48/134/3 47/132/3 27/77/3
f 25/71/1 45/126/1 48/135/1 28/80/1
f 49/136/4 50/139/4 51/142/4 52/145/4
f 30/85/5 50/140/5 49/137/5 29/82/5
f 31/88/2 51/143/2 50/141/2 30/86/2
f 32/91/6 52/146/6 51/144/6 31/89/6
f 29/83/1 49/138/1 52/147/1 32/92/1
f 53/148/5 54/150/5 55/153/5 56/156/5
f 34/97/3 54/151/3 53/148/3 33/94/3
f 35/100/2 55/154/2 54/152/2 34/98/2
f 36/103/4 56/157/4 55/155/4 35/101/4
f 33/95/1 53/149/1 56/157/1 36/104/1
f 57/158/4 58/161/4 59/164/4 60/167/4
f 42/117/5 58/162/5 57/159/5 41/114/5
f 43/120/2 59/165/2 58/163/2 42/118/2
f 44/123/6 60/168/6 59/166/6 43/121/6
f 41/115/1 57/160/1 60/169/1 44/124/1
f 23/63/4 66/188/4 38/107/4 37/105/4
f 67/189/3 72/208/3 73/209/3 71/202/3
f 68/193/3 74/214/3 72/206/3 67/190/3
f 71/203/3 73/210/3 99/281/3 100/283/3 69/195/3 70/199/3
f 73/211/1 72/207/1 22/59/1 24/65/1
f 15/35/2 9/21/2 67/191/2 71/204/2
f 22/60/6 72/208/6 80/232/6 76/220/6
f 1/4/5 17/41/5 74/215/5 68/194/5
f 74/216/5 17/42/5 75/218/5 79/229/5
f 17/42/4 22/60/4 76/220/4 75/218/4
f 83/238/3 10/23/3 13/28/3 84/241/3
f 85/244/5 83/239/5 87/250/5 88/252/5
f 22/61/3 85/245/3 86/247/3 24/66/3
f 88/253/3 87/251/3 89/255/3 90/257/3
f 83/240/1 84/242/1 89/255/1 87/251/1
f 84/243/6 86/248/6 90/258/6 89/256/6
f 86/249/2 85/246/2 88/254/2 90/259/2
f 92/262/4 91/260/4 38/108/4 39/110/4
f 11/24/4 92/263/4 40/112/4 21/58/4
f 14/31/4 23/64/4 37/106/4 91/261/4
f 15/36/2 14/32/2 11/25/2 9/22/2
f 93/264/6 94/267/6 82/237/6 78/225/6
f 99/279/1 73/212/1 98/277/1 101/284/1
f 94/267/3 95/269/3 81/234/3 82/237/3
f 116/313/1 96/272/1 95/270/1 98/278/1
f 96/273/4 93/265/4 78/226/4 77/222/4
f 94/268/1 93/266/1 115/311/1 97/275/1
f 13/29/3 4/11/3 18/45/3 24/67/3
f 95/271/5 96/274/5 77/223/5 81/235/5
f 3/9/6 70/200/6 69/196/6 18/46/6
f 69/197/1 100/282/1 102/286/1 97/276/1
f 102/286/6 100/282/6 104/290/6 106/295/6
f 107/297/1 103/287/1 105/293/1 109/302/1
f 99/280/5 101/285/5 105/294/5 103/288/5
f 100/283/3 99/281/3 103/289/3 107/298/3 108/300/3 104/291/3
f 104/292/1 108/299/1 110/303/1 106/296/1
f 107/297/5 109/302/5 113/309/5 111/305/5
f 112/308/1 111/305/1 113/309/1 114/310/1
f 108/300/3 107/298/3 111/306/3 112/307/3
f 110/304/6 108/301/6 112/308/6 114/310/6
f 18/47/1 115/312/1 116/314/1 24/68/1
l 101 102
l 109 110
l 73 116
l 24 98
l 97 18
l 115 69
