# Blender v2.92.0 OBJ File: 'stonecutter.blend'
# www.blender.org
mtllib stonecutter_conv.mtl
o Conveyer_Cube.006
v -0.500000 1.000000 0.000000
v -0.500000 1.000000 -1.000000
v 0.500000 1.000000 0.000000
v 0.500000 1.000000 -1.000000
v -0.437500 1.062500 -1.000000
v -0.437500 1.062500 0.000000
v 0.437500 1.062500 -1.000000
v 0.437500 1.062500 0.000000
v -0.437500 1.125000 -1.000000
v -0.500000 1.125000 -1.000000
v -0.500000 1.125000 0.000000
v -0.437500 1.125000 0.000000
v 0.500000 1.125000 -1.000000
v 0.437500 1.125000 -1.000000
v 0.437500 1.125000 0.000000
v 0.500000 1.125000 0.000000
v -0.437500 1.000000 -2.000000
v -0.500000 1.000000 -2.000000
v 0.437500 1.000000 -2.000000
v 0.437500 1.125000 -2.000000
v -0.437500 1.125000 -2.000000
v -0.437500 1.062500 -2.000000
v 0.437500 1.062500 -2.000000
v 0.500000 1.000000 -2.000000
v -0.500000 1.125000 -2.000000
v 0.500000 1.125000 -2.000000
v 0.437500 1.000000 1.000000
v 0.437500 1.125000 1.000000
v -0.437500 1.000000 1.000000
v -0.437500 1.125000 1.000000
v 0.500000 1.000000 1.000000
v -0.500000 1.000000 1.000000
v 0.437500 1.062500 1.000000
v -0.437500 1.062500 1.000000
v -0.500000 1.125000 1.000000
v 0.500000 1.125000 1.000000
vt 0.000000 0.867188
vt 1.000000 0.867188
vt 1.000000 0.937500
vt -0.000000 0.937500
vt -0.000000 1.000000
vt 1.000000 1.000000
vt 1.000000 0.937500
vt 0.000000 0.937500
vt -0.000000 0.804688
vt 0.000000 0.800781
vt 1.000000 0.800781
vt 1.000000 0.804688
vt 0.687500 0.750000
vt 0.687500 0.750000
vt 0.687500 0.750000
vt 0.687500 0.750000
vt -0.000000 0.804688
vt 1.000000 0.804688
vt 0.000000 0.871094
vt 0.000000 0.867188
vt 1.000000 0.867188
vt 1.000000 0.871094
vt 1.000000 1.000000
vt 0.937500 1.000000
vt 0.937500 0.000000
vt 1.000000 0.000000
vt 0.062500 0.000000
vt 0.062500 1.000000
vt -0.000000 1.000000
vt 0.000000 -0.000000
vt 0.000000 0.000000
vt 0.062500 0.000000
vt 0.062500 1.000000
vt -0.000000 1.000000
vt 1.000000 0.000000
vt 0.937500 0.000000
vt -0.000000 0.000000
vt 0.062500 0.000000
vt 0.062500 1.000000
vt -0.000000 1.000000
vt 0.937500 1.000000
vt 1.000000 1.000000
vt 1.000000 0.000000
vt 0.937500 0.000000
vt 0.000000 -0.000000
vt 0.062500 -0.000000
vt 0.062500 1.000000
vt 0.000000 1.000000
vt 0.062500 1.000000
vt 0.000000 1.000000
vt 0.000000 -0.000000
vt 0.062500 0.000000
vt 0.312500 0.500000
vt 0.687500 0.500000
vt 0.625000 0.500000
vt 0.375000 0.500000
vt 0.250000 0.500000
vt 0.125000 0.500000
vt 0.875000 0.500000
vt 0.750000 0.500000
vt 0.000000 1.000000
vt 0.062500 1.000000
vt 1.000000 1.000000
vt 0.937500 1.000000
vt 0.062500 1.000000
vt -0.000000 1.000000
vt 0.000000 0.000000
vt 0.062500 0.000000
vt 0.062500 1.000000
vt 0.000000 1.000000
vt -0.000000 0.875000
vt 0.062500 0.875000
vt 1.000000 1.000000
vt 1.000000 0.875000
vt 0.937500 0.875000
vt 0.937500 1.000000
vt 0.062500 0.000000
vt -0.000000 0.000000
vt 0.937500 0.000000
vt 0.937500 1.000000
vt 0.937500 0.000000
vt 1.000000 1.000000
vt 1.000000 0.000000
vt 0.062500 1.000000
vt 0.000000 0.000000
vt -0.000000 1.000000
vn 0.0000 1.0000 0.0000
vn 0.0000 0.0000 -1.0000
vn -1.0000 0.0000 0.0000
vn 0.0000 0.0000 1.0000
vn 1.0000 0.0000 0.0000
usemtl Material.002
s off
f 7/1/1 5/2/1 6/3/1 8/4/1
f 8/5/1 6/6/1 34/7/1 33/8/1
f 17/9/2 22/10/2 23/11/2 19/12/2
f 28/13/3 15/14/3 8/15/3 33/16/3
f 5/2/1 7/1/1 23/17/1 22/18/1
f 27/19/4 33/20/4 34/21/4 29/22/4
usemtl Material.003
f 12/23/1 11/24/1 35/25/1 30/26/1
f 1/27/3 11/28/3 10/29/3 2/30/3
f 4/31/5 13/32/5 16/33/5 3/34/5
f 9/35/1 10/36/1 11/24/1 12/23/1
f 3/37/5 16/38/5 36/39/5 31/40/5
f 5/41/5 9/42/5 12/43/5 6/44/5
f 13/45/1 14/46/1 15/47/1 16/48/1
f 8/49/3 15/50/3 14/51/3 7/52/3
f 19/53/2 20/54/2 26/55/2 24/56/2
f 17/57/2 18/58/2 25/59/2 21/60/2
f 13/32/5 4/31/5 24/61/5 26/62/5
f 10/36/1 9/35/1 21/63/1 25/64/1
f 14/65/1 13/66/1 26/67/1 20/68/1
f 28/69/4 27/70/4 31/71/4 36/72/4
f 30/73/4 35/74/4 32/75/4 29/76/4
f 16/48/1 15/47/1 28/77/1 36/78/1
f 12/23/5 30/26/5 34/79/5 6/80/5
f 9/81/5 5/41/5 22/82/5 21/83/5
f 7/84/3 14/46/3 20/85/3 23/86/3
f 10/36/3 25/64/3 18/58/3 2/30/3
