# Blender v2.92.0 OBJ File: 'stonecutter.blend'
# www.blender.org
mtllib stonecutter_arm.mtl
o Arm_Cube.005
v -0.749900 1.625000 -0.406053
v -0.749900 1.625000 -0.218553
v -0.621840 1.500000 -0.218553
v -0.621840 1.500000 -0.406053
v -0.621840 1.625000 -0.406053
v -0.621840 1.625000 -0.218553
v -0.749900 0.750000 -0.218553
v -0.749900 0.750000 -0.406053
v -0.621840 0.750000 -0.218553
v -0.621840 0.750000 -0.406053
v -0.621840 1.000000 -0.218553
v -0.621840 1.000000 -0.406053
v -0.621840 0.937500 -0.218553
v -0.621840 0.937500 -0.406053
v -0.621840 0.812500 -0.218553
v -0.621840 0.812500 -0.406053
v -0.496840 0.750000 -0.218553
v -0.496840 0.750000 -0.406053
v -0.496840 0.937500 -0.218553
v -0.496840 1.000000 -0.218553
v -0.496840 0.937500 -0.406053
v -0.496840 1.000000 -0.406053
v -0.496840 0.812500 -0.218553
v -0.496840 0.812500 -0.406053
v 0.500000 1.625000 -0.406053
v 0.500000 1.500000 -0.406053
v 0.500000 1.625000 -0.218553
v 0.500000 1.500000 -0.218553
v 0.375000 1.500000 -0.406053
v 0.375000 1.500000 -0.218553
v 0.500000 1.125000 -0.406053
v 0.500000 1.125000 -0.218553
v 0.438305 1.125000 -0.406053
v 0.438305 1.125000 -0.218553
v 0.375000 1.125000 -0.218553
v 0.375000 1.125000 -0.406053
v 0.438305 1.062500 -0.218553
v 0.375000 1.062500 -0.218553
v 0.375000 1.062500 -0.406053
v 0.438305 1.062500 -0.406053
v -0.687400 1.625000 -0.218553
v -0.687400 1.625000 -0.406053
v -0.624900 1.625000 -0.343553
v -0.624900 1.625000 -0.281053
v -0.687400 1.625000 -0.281053
v -0.687400 1.625000 -0.343553
v -0.624900 1.812500 -0.281053
v -0.624900 1.812500 -0.343553
v -0.687400 1.812500 -0.343553
v -0.687400 1.812500 -0.281053
v -0.624900 1.750000 -0.343553
v -0.624900 1.750000 -0.281053
v 0.000100 1.812500 -0.343553
v 0.000100 1.812500 -0.281053
v 0.000100 1.750000 -0.343553
v 0.000100 1.750000 -0.281053
vt 0.593750 0.937500
vt 0.593750 0.890625
vt 0.500000 0.890625
vt 0.500000 0.937500
vt 0.500000 0.906250
vt 0.718750 0.906250
vt 0.718750 0.875000
vt 0.500000 0.875000
vt 0.781250 0.890625
vt 0.500000 0.890625
vt 0.500000 0.937500
vt 0.781250 0.937500
vt 0.781250 0.906250
vt 0.500000 0.906250
vt 0.500000 0.875000
vt 0.781250 0.875000
vt 0.781250 0.906250
vt 0.500000 0.906250
vt 0.500000 0.875000
vt 0.781250 0.875000
vt 0.500000 0.937500
vt 0.500000 0.890625
vt 0.781250 0.890625
vt 0.781250 0.937500
vt 0.578125 0.906250
vt 0.531250 0.906250
vt 0.531250 0.875000
vt 0.578125 0.875000
vt 0.578125 0.906250
vt 0.625000 0.906250
vt 0.625000 0.875000
vt 0.578125 0.875000
vt 0.500000 0.843750
vt 0.718750 0.843750
vt 0.718750 0.890625
vt 0.500000 0.890625
vt 0.500000 0.937500
vt 0.500000 0.890625
vt 0.625000 0.890625
vt 0.625000 0.937500
vt 0.500000 0.906250
vt 0.500000 0.890625
vt 0.531250 0.890625
vt 0.531250 0.906250
vt 0.500000 0.875000
vt 0.500000 0.906250
vt 0.718750 0.906250
vt 0.718750 0.875000
vt 0.515625 0.875000
vt 0.562500 0.875000
vt 0.562500 0.906250
vt 0.515625 0.906250
vt 0.546875 0.937500
vt 0.546875 0.921875
vt 0.515625 0.921875
vt 0.515625 0.937500
vt 0.531250 0.875000
vt 0.531250 0.890625
vt 0.562500 0.890625
vt 0.562500 0.875000
vt 0.531250 0.937500
vt 0.531250 0.921875
vt 0.500000 0.921875
vt 0.500000 0.937500
vt 0.609375 0.906250
vt 0.609375 0.875000
vt 0.500000 0.875000
vt 0.500000 0.906250
vt 0.625000 0.937500
vt 0.625000 0.890625
vt 0.609375 0.906250
vt 0.609375 0.875000
vt 0.500000 0.875000
vt 0.500000 0.906250
vt 0.515625 0.890625
vt 0.531250 0.890625
vt 0.531250 0.875000
vt 0.515625 0.875000
vt 0.500000 0.890625
vt 0.515625 0.890625
vt 0.515625 0.875000
vt 0.500000 0.875000
vt 0.578125 0.890625
vt 0.546875 0.890625
vt 0.546875 0.906250
vt 0.578125 0.906250
vt 0.546875 0.890625
vt 0.531250 0.890625
vt 0.531250 0.843750
vt 0.546875 0.843750
vt 0.515625 0.890625
vt 0.515625 0.906250
vt 0.531250 0.906250
vt 0.500000 0.875000
vt 0.515625 0.890625
vt 0.515625 0.875000
vt 0.625000 0.859375
vt 0.625000 0.875000
vt 0.640625 0.875000
vt 0.640625 0.859375
vt 0.671875 0.859375
vt 0.671875 0.875000
vt 0.515625 0.875000
vt 0.515625 0.859375
vt 0.671875 0.875000
vt 0.671875 0.859375
vt 0.625000 0.875000
vt 0.671875 0.875000
vt 0.671875 0.859375
vt 0.625000 0.859375
vt 0.671875 0.859375
vt 0.640625 0.859375
vt 0.640625 0.875000
vt 0.671875 0.875000
vt 0.671875 0.859375
vt 0.671875 0.875000
vt 0.515625 0.875000
vt 0.515625 0.859375
vt 0.671875 0.875000
vt 0.515625 0.875000
vt 0.671875 0.859375
vt 0.515625 0.859375
vn -1.0000 0.0000 0.0000
vn 0.0000 0.0000 -1.0000
vn 0.0000 1.0000 0.0000
vn 0.0000 0.0000 1.0000
vn 0.0000 -1.0000 0.0000
vn 1.0000 0.0000 0.0000
usemtl Material.001
s off
f 30/1/1 29/2/1 36/3/1 35/4/1
f 5/5/2 10/6/2 8/7/2 1/8/2
f 25/9/3 5/10/3 6/11/3 27/12/3
f 26/13/2 4/14/2 5/15/2 25/16/2
f 27/17/4 6/18/4 3/19/4 28/20/4
f 26/21/5 28/22/5 3/23/5 4/24/5
f 10/25/5 9/26/5 7/27/5 8/28/5
f 9/29/5 10/30/5 18/31/5 17/32/5
f 1/33/1 8/34/1 7/35/1 2/36/1
f 4/37/6 3/38/6 11/39/6 12/40/6
f 15/41/4 9/42/4 17/43/4 23/44/4
f 7/45/4 9/46/4 6/47/4 2/48/4
f 12/49/3 11/50/3 20/51/3 22/52/3
f 14/53/2 12/54/2 22/55/2 21/56/2
f 10/57/2 16/58/2 24/59/2 18/60/2
f 11/61/4 13/62/4 19/63/4 20/64/4
f 35/65/4 32/66/4 28/67/4 30/68/4
f 27/12/6 32/69/6 31/70/6 25/9/6
f 29/71/2 26/72/2 31/73/2 36/74/2
f 36/75/2 33/76/2 40/77/2 39/78/2
f 34/79/4 35/80/4 38/81/4 37/82/4
f 35/83/1 36/84/1 39/85/1 38/86/1
f 2/87/3 41/88/3 42/89/3 1/90/3
f 6/91/3 44/92/3 45/93/3 41/88/3
f 43/94/3 5/10/3 42/95/3 46/96/3
f 47/97/3 48/98/3 49/99/3 50/100/3
f 48/101/3 47/102/3 54/103/3 53/104/3
f 45/105/4 44/106/4 47/97/4 50/107/4
f 43/108/2 46/109/2 49/110/2 48/98/2
f 43/111/6 51/112/6 52/113/6 44/114/6
f 47/115/4 52/116/4 56/117/4 54/118/4
f 51/119/2 48/101/2 53/104/2 55/120/2
f 52/116/5 51/121/5 55/122/5 56/117/5
f 45/105/1 50/107/1 49/110/1 46/109/1
l 16 14
l 33 31
l 32 34
