# Blender v2.93.4 OBJ File: 'rotary_kiln.blend'
# www.blender.org
mtllib rotarykiln.mtl
o Base_Cube.003
v -7.000000 -0.500000 1.500000
v -7.000000 0.000000 1.500000
v -7.000000 -0.500000 -1.500000
v -7.000000 0.000000 -1.500000
v 1.000000 -0.500000 1.500000
v 1.000000 0.000000 1.500000
v 1.000000 -0.500000 -1.500000
v 1.000000 0.000000 -1.500000
v -6.000000 0.000000 -1.500000
v -5.000000 0.000000 -1.500000
v -4.000000 0.000000 -1.500000
v -3.000000 0.000000 -1.500000
v -2.000000 0.000000 -1.500000
v -1.000000 0.000000 -1.500000
v 0.000000 0.000000 -1.500000
v 0.000000 0.000000 1.500000
v -1.000000 0.000000 1.500000
v -2.000000 0.000000 1.500000
v -3.000000 0.000000 1.500000
v -4.000000 0.000000 1.500000
v -5.000000 0.000000 1.500000
v -6.000000 0.000000 1.500000
v -4.000000 0.500000 -1.500000
v -3.000000 0.500000 -1.500000
v -2.000000 0.500000 -1.500000
v -1.000000 0.500000 -1.500000
v -1.000000 0.500000 1.500000
v -2.000000 0.500000 1.500000
v -3.000000 0.500000 1.500000
v -4.000000 0.500000 1.500000
v -1.000000 0.500000 -0.562500
v -1.000000 0.500000 1.000000
v -2.000000 0.500000 -0.562500
v -2.000000 0.500000 1.000000
v -3.000000 0.500000 -0.562500
v -3.000000 0.500000 0.500000
v -4.000000 0.500000 -0.562500
v -4.000000 0.500000 0.500000
v -4.000000 1.500000 -1.500000
v -3.000000 1.500000 -1.500000
v -3.000000 1.500000 -0.562500
v -4.000000 1.500000 -0.562500
v -1.000000 1.500000 1.500000
v -2.000000 1.500000 1.500000
v -1.000000 1.500000 1.000000
v -2.000000 1.500000 1.000000
v -2.000000 1.000000 -1.000000
v -1.000000 1.000000 -1.000000
v -1.000000 1.500000 -0.562500
v -2.000000 1.500000 -0.562500
v -1.000000 1.500000 -1.000000
v -2.000000 1.500000 -1.000000
v -2.000000 1.000000 -1.500000
v -1.000000 1.000000 -1.500000
v -3.000000 1.000000 1.000000
v -4.000000 1.000000 1.000000
v -3.000000 1.500000 0.562500
v -4.000000 1.500000 0.562500
v -3.000000 1.500000 1.000000
v -4.000000 1.500000 1.000000
v -4.000000 1.000000 1.500000
v -3.000000 1.000000 1.500000
v 0.000000 -0.500000 -1.500000
v -1.000000 -0.500000 -1.500000
v -2.000000 -0.500000 -1.500000
v -3.000000 -0.500000 -1.500000
v -4.000000 -0.500000 -1.500000
v -5.000000 -0.500000 -1.500000
v -6.000000 -0.500000 -1.500000
v -6.000000 -0.500000 1.500000
v -5.000000 -0.500000 1.500000
v -4.000000 -0.500000 1.500000
v -3.000000 -0.500000 1.500000
v -2.000000 -0.500000 1.500000
v -1.000000 -0.500000 1.500000
v 0.000000 -0.500000 1.500000
v -1.000000 -0.500000 -0.500000
v -1.000000 -0.500000 0.500000
v 0.000000 -0.500000 -0.500000
v 0.000000 -0.500000 0.500000
v -3.000000 -0.500000 -0.500000
v -3.000000 -0.500000 0.500000
v -2.000000 -0.500000 -0.500000
v -2.000000 -0.500000 0.500000
v 0.000000 0.000000 -0.500000
v 0.000000 0.000000 0.500000
v -1.000000 0.000000 -0.500000
v -1.000000 0.000000 0.500000
v -2.000000 0.000000 -0.500000
v -2.000000 0.000000 0.500000
v -3.000000 0.000000 -0.500000
v -3.000000 0.000000 0.500000
v -4.000000 0.000000 -0.500000
v -4.000000 0.000000 0.500000
v -5.000000 0.000000 -0.500000
v -5.000000 0.000000 0.500000
v -5.000000 -0.500000 -0.500000
v -5.000000 -0.500000 0.500000
v -4.000000 -0.500000 -0.500000
v -4.000000 -0.500000 0.500000
v -7.000000 2.500000 -1.500000
v -5.000000 2.500000 -1.500000
v -5.000000 2.500000 1.500000
v -7.000000 2.500000 1.500000
v -5.000000 2.500000 0.500000
v -5.000000 2.500000 -0.500000
v -7.000000 1.500000 -1.500000
v -7.000000 1.500000 1.500000
v -4.000000 0.500000 0.562500
v -3.000000 0.500000 0.562500
v -4.000000 1.000000 0.562500
v -3.000000 1.000000 0.562500
v -1.000000 0.500000 0.500000
v -2.000000 0.500000 0.500000
v -1.000000 0.500000 -0.500000
v -2.000000 0.500000 -0.500000
v -3.000000 0.500000 -0.500000
v -4.000000 0.500000 -0.500000
v -7.000000 0.000000 0.500000
v -7.000000 0.000000 -0.500000
v -6.000000 0.000000 -0.500000
v -6.000000 0.000000 0.500000
v -7.000000 2.500000 -0.500000
v -7.000000 2.500000 0.500000
v -7.000000 1.500000 0.500000
v -7.000000 1.500000 -0.500000
v -6.000000 2.500000 -1.500000
v -6.000000 2.500000 1.500000
v -6.000000 2.500000 -0.500000
v -6.000000 2.500000 0.500000
v -5.000000 0.500000 -1.500000
v -5.000000 0.500000 -0.500000
v -5.000000 0.500000 0.500000
v -5.000000 0.500000 1.500000
v -6.000000 0.500000 -1.500000
v -6.000000 0.500000 1.500000
v -6.000000 0.500000 -0.500000
v -6.000000 0.500000 0.500000
v -5.000000 1.500000 0.500000
v -6.000000 1.500000 -1.500000
v -6.000000 1.500000 1.500000
v -5.000000 1.500000 -1.500000
v -5.000000 1.500000 -0.500000
v -5.000000 1.500000 1.500000
v 1.000000 0.000000 -1.000000
v 1.000000 0.000000 1.000000
v 0.000000 0.000000 -1.000000
v 0.000000 0.000000 1.000000
v 1.000000 1.500000 -1.000000
v 1.000000 1.500000 1.000000
v 0.000000 1.500000 -1.000000
v 0.000000 1.500000 1.000000
v 1.000000 1.000000 1.000000
v 0.000000 1.000000 1.000000
v 0.000000 1.000000 -1.000000
v 1.000000 1.000000 -1.000000
v 0.000000 0.000000 0.000000
v 0.000000 1.000000 0.000000
v 1.000000 0.000000 0.000000
v 1.000000 1.000000 0.000000
v 1.000000 2.000000 -0.500000
v 1.000000 2.000000 0.500000
v 0.000000 2.000000 -0.500000
v 0.000000 1.000000 -0.500000
v 0.000000 2.000000 0.500000
v 0.000000 1.000000 0.500000
v 1.000000 -0.500000 1.000000
v 1.000000 -0.500000 -1.000000
v 1.000000 -0.500000 0.000000
v 0.000000 -0.500000 0.500000
v 0.000000 -0.500000 -0.500000
v 1.000000 -0.500000 0.500000
v 1.000000 -0.500000 -0.500000
v -7.000000 -0.500000 -0.500000
v -7.000000 -0.500000 0.500000
v -6.000000 -0.500000 -0.500000
v -6.000000 -0.500000 0.500000
v -1.000000 1.000000 -0.562500
v -2.000000 1.000000 -0.562500
v 1.000000 1.000000 0.500000
v 1.000000 1.000000 -0.500000
vt 0.125000 1.000000
vt 0.250000 1.000000
vt 0.250000 0.937500
vt 0.125000 0.937500
vt 0.625000 1.000000
vt 0.500000 1.000000
vt 0.500000 0.937500
vt 0.625000 0.937500
vt 0.125000 0.875000
vt 0.125000 1.000000
vt 0.250000 1.000000
vt 0.250000 0.875000
vt 0.250000 0.937500
vt 0.250000 1.000000
vt 0.125000 1.000000
vt 0.125000 0.937500
vt 0.500000 0.875000
vt 0.500000 1.000000
vt 0.375000 1.000000
vt 0.375000 0.875000
vt 0.625000 0.687500
vt 0.625000 0.750000
vt 0.750000 0.750000
vt 0.750000 0.687500
vt 0.500000 0.875000
vt 0.500000 1.000000
vt 0.375000 1.000000
vt 0.375000 0.875000
vt 0.500000 0.625000
vt 0.625000 0.625000
vt 0.625000 0.687500
vt 0.500000 0.687500
vt 0.500000 0.875000
vt 0.500000 1.000000
vt 0.375000 1.000000
vt 0.375000 0.875000
vt 0.875000 0.875000
vt 1.000000 0.875000
vt 1.000000 1.000000
vt 0.875000 1.000000
vt 0.375000 0.937500
vt 0.375000 1.000000
vt 0.250000 1.000000
vt 0.250000 0.937500
vt 0.250000 0.968750
vt 0.250000 0.906250
vt 0.375000 0.906250
vt 0.375000 0.968750
vt 0.625000 0.875000
vt 0.500000 0.875000
vt 0.500000 0.812500
vt 0.625000 0.812500
vt 0.375000 0.937500
vt 0.250000 0.937500
vt 0.250000 0.875000
vt 0.375000 0.906250
vt 0.250000 0.906250
vt 0.250000 0.968750
vt 0.375000 0.968750
vt 0.500000 0.875000
vt 0.500000 0.812500
vt 0.625000 0.812500
vt 0.625000 0.875000
vt 0.625000 0.125000
vt 0.742188 0.125000
vt 0.742188 0.250000
vt 0.625000 0.250000
vt 0.250000 0.875000
vt 0.250000 0.750000
vt 0.375000 0.750000
vt 0.375000 0.875000
vt 0.250000 0.875000
vt 0.125000 0.875000
vt 0.125000 0.757812
vt 0.250000 0.757812
vt 0.625000 0.125000
vt 0.750000 0.125000
vt 0.750000 0.250000
vt 0.625000 0.250000
vt 0.632812 0.125000
vt 0.750000 0.125000
vt 0.750000 0.250000
vt 0.632812 0.250000
vt 0.250000 1.000000
vt 0.250000 0.875000
vt 0.375000 0.875000
vt 0.375000 1.000000
vt 0.312500 0.875000
vt 0.312500 1.000000
vt 0.250000 1.000000
vt 0.250000 0.875000
vt 0.312500 0.875000
vt 0.250000 0.875000
vt 0.250000 0.875000
vt 0.375000 0.875000
vt 0.375000 1.000000
vt 0.250000 1.000000
vt 0.250000 0.875000
vt 0.312500 0.875000
vt 0.312500 1.000000
vt 0.250000 1.000000
vt 0.250000 1.000000
vt 0.125000 1.000000
vt 0.125000 0.945312
vt 0.250000 0.945312
vt 0.250000 0.500000
vt 0.195312 0.500000
vt 0.195312 0.437500
vt 0.250000 0.437500
vt 0.250000 0.492188
vt 0.195312 0.492188
vt 0.195312 0.429688
vt 0.250000 0.429688
vt 0.375000 0.968750
vt 0.250000 0.968750
vt 0.250000 0.906250
vt 0.375000 0.906250
vt 0.250000 0.937500
vt 0.375000 0.937500
vt 0.375000 1.000000
vt 0.250000 0.906250
vt 0.375000 0.906250
vt 0.375000 1.000000
vt 0.250000 1.000000
vt 0.250000 0.937500
vt 0.375000 0.937500
vt 0.250000 0.906250
vt 0.375000 0.906250
vt 0.375000 0.968750
vt 0.250000 0.968750
vt 0.250000 0.992188
vt 0.125000 0.992188
vt 0.125000 0.937500
vt 0.250000 0.937500
vt 0.250000 0.906250
vt 0.375000 0.906250
vt 0.375000 0.968750
vt 0.250000 0.968750
vt 0.625000 0.312500
vt 0.750000 0.312500
vt 0.750000 0.250000
vt 0.625000 0.250000
vt 0.500000 1.000000
vt 0.375000 1.000000
vt 0.375000 0.875000
vt 0.500000 0.875000
vt 0.375000 0.937500
vt 0.250000 0.937500
vt 0.250000 0.875000
vt 0.375000 0.875000
vt 0.375000 0.875000
vt 0.500000 0.875000
vt 0.500000 1.000000
vt 0.375000 1.000000
vt 0.000000 0.875000
vt 0.000000 0.750000
vt 0.125000 0.750000
vt 0.125000 0.875000
vt 0.500000 1.000000
vt 0.375000 1.000000
vt 0.375000 0.875000
vt 0.500000 0.875000
vt 0.500000 1.000000
vt 0.375000 1.000000
vt 0.375000 0.875000
vt 0.500000 0.875000
vt 0.375000 0.875000
vt 0.500000 0.875000
vt 0.500000 1.000000
vt 0.375000 1.000000
vt 0.375000 1.000000
vt 0.375000 0.875000
vt 0.500000 0.875000
vt 0.500000 1.000000
vt 0.500000 0.750000
vt 0.625000 0.750000
vt 0.375000 1.000000
vt 0.375000 0.875000
vt 0.500000 0.875000
vt 0.500000 1.000000
vt 0.625000 1.000000
vt 0.625000 0.937500
vt 0.750000 0.937500
vt 0.750000 1.000000
vt 0.375000 1.000000
vt 0.375000 0.875000
vt 0.500000 0.875000
vt 0.500000 1.000000
vt 0.625000 0.812500
vt 0.625000 0.750000
vt 0.500000 0.750000
vt 0.500000 0.812500
vt 0.500000 1.000000
vt 0.375000 1.000000
vt 0.375000 0.875000
vt 0.500000 0.875000
vt 0.625000 1.000000
vt 0.500000 1.000000
vt 0.500000 0.937500
vt 0.625000 0.937500
vt 0.500000 0.937500
vt 0.625000 0.937500
vt 0.625000 1.000000
vt 0.500000 1.000000
vt 0.500000 0.937500
vt 0.625000 0.937500
vt 0.625000 1.000000
vt 0.500000 1.000000
vt 0.750000 0.937500
vt 0.750000 1.000000
vt 0.625000 1.000000
vt 0.625000 0.937500
vt 0.625000 0.937500
vt 0.625000 1.000000
vt 0.500000 1.000000
vt 0.500000 0.937500
vt 0.500000 0.750000
vt 0.625000 0.750000
vt 0.375000 0.875000
vt 0.250000 0.875000
vt 0.250000 0.937500
vt 0.375000 0.937500
vt 0.250000 0.875000
vt 0.250000 0.937500
vt 0.125000 0.937500
vt 0.125000 0.875000
vt 0.375000 0.875000
vt 0.375000 0.937500
vt 0.250000 0.937500
vt 0.250000 0.875000
vt 0.625000 1.000000
vt 0.500000 1.000000
vt 0.500000 0.937500
vt 0.625000 0.937500
vt 0.625000 0.687500
vt 0.750000 0.687500
vt 0.750000 0.750000
vt 0.625000 0.750000
vt 0.625000 1.000000
vt 0.500000 1.000000
vt 0.500000 0.937500
vt 0.625000 0.937500
vt 0.750000 0.312500
vt 0.625000 0.312500
vt 0.625000 0.250000
vt 0.750000 0.250000
vt 0.625000 0.937500
vt 0.625000 1.000000
vt 0.500000 1.000000
vt 0.500000 0.937500
vt 0.625000 1.000000
vt 0.500000 1.000000
vt 0.500000 0.937500
vt 0.625000 0.937500
vt 0.625000 1.000000
vt 0.500000 1.000000
vt 0.500000 0.937500
vt 0.625000 0.937500
vt 0.625000 1.000000
vt 0.500000 1.000000
vt 0.500000 0.937500
vt 0.625000 0.937500
vt 0.250000 0.937500
vt 0.250000 1.000000
vt 0.125000 1.000000
vt 0.125000 0.937500
vt 0.250000 0.875000
vt 0.375000 0.875000
vt 0.250000 0.937500
vt 0.375000 0.937500
vt 0.375000 0.875000
vt 0.250000 0.875000
vt 0.125000 0.000000
vt 0.125000 0.125000
vt 0.000000 0.125000
vt 0.000000 0.000000
vt 0.875000 0.625000
vt 0.875000 0.750000
vt 0.750000 0.750000
vt 0.750000 0.625000
vt 0.875000 0.375000
vt 0.875000 0.500000
vt 0.750000 0.500000
vt 0.750000 0.375000
vt 1.000000 0.875000
vt 0.875000 0.875000
vt 0.875000 1.000000
vt 1.000000 1.000000
vt 0.375000 1.000000
vt 0.500000 0.875000
vt 0.500000 1.000000
vt 0.375000 0.875000
vt 0.375000 1.000000
vt 0.367188 1.000000
vt 0.367188 0.875000
vt 0.375000 0.937500
vt 0.375000 0.875000
vt 0.500000 0.875000
vt 0.500000 0.937500
vt 0.375000 1.000000
vt 0.500000 1.000000
vt 0.375000 1.000000
vt 0.257812 1.000000
vt 0.257812 0.937500
vt 0.250000 0.437500
vt 0.250000 0.500000
vt 0.195312 0.500000
vt 0.195312 0.437500
vt 0.195312 0.437500
vt 0.250000 0.437500
vt 0.250000 0.500000
vt 0.195312 0.500000
vt 0.250000 0.937500
vt 0.367188 0.937500
vt 0.367188 1.000000
vt 0.250000 1.000000
vt 0.562500 0.750000
vt 0.625000 0.875000
vt 0.562500 0.875000
vt 0.625000 0.875000
vt 0.500000 0.875000
vt 0.500000 0.750000
vt 0.625000 0.750000
vt 0.312500 0.875000
vt 0.375000 0.875000
vt 0.375000 1.000000
vt 0.312500 1.000000
vt 0.625000 0.750000
vt 0.625000 0.757812
vt 0.500000 0.757812
vt 0.500000 0.750000
vt 0.500000 0.687500
vt 0.625000 0.687500
vt 0.625000 0.625000
vt 0.500000 0.625000
vt 0.625000 0.812500
vt 0.500000 0.812500
vt 0.500000 0.875000
vt 0.625000 0.875000
vt 0.500000 0.687500
vt 0.500000 0.625000
vt 0.625000 0.625000
vt 0.625000 0.687500
vt 0.625000 0.812500
vt 0.500000 0.875000
vt 0.500000 0.812500
vt 0.375000 0.875000
vt 0.375000 0.882812
vt 0.250000 0.882812
vt 0.625000 0.312500
vt 0.625000 0.250000
vt 0.750000 0.250000
vt 0.750000 0.312500
vt 0.750000 0.562500
vt 0.625000 0.562500
vt 0.625000 0.500000
vt 0.750000 0.500000
vt 0.250000 0.125000
vt 0.250000 0.250000
vt 0.125000 0.250000
vt 0.125000 0.125000
vt 0.125000 0.375000
vt 0.000000 0.375000
vt 0.000000 0.250000
vt 0.125000 0.250000
vt 0.250000 0.375000
vt 0.250000 0.250000
vt 0.250000 0.000000
vt 0.250000 0.125000
vt 0.750000 0.812500
vt 0.625000 0.812500
vt 0.625000 0.875000
vt 0.750000 0.875000
vt 0.750000 0.312500
vt 0.625000 0.312500
vt 0.625000 0.375000
vt 0.750000 0.375000
vt 0.750000 0.562500
vt 0.625000 0.562500
vt 0.625000 0.625000
vt 0.750000 0.625000
vt 0.750000 0.437500
vt 0.625000 0.437500
vt 0.625000 0.500000
vt 0.750000 0.500000
vt 0.625000 0.312500
vt 0.750000 0.312500
vt 0.750000 0.375000
vt 0.625000 0.375000
vt 0.250000 0.625000
vt 0.250000 0.500000
vt 0.429688 0.500000
vt 0.429688 0.625000
vt 0.250000 0.375000
vt 0.250000 0.250000
vt 0.429688 0.250000
vt 0.429688 0.375000
vt 0.500000 1.000000
vt 0.375000 1.000000
vt 0.375000 0.875000
vt 0.500000 0.875000
vt 0.750000 0.625000
vt 0.750000 0.750000
vt 0.625000 0.750000
vt 0.625000 0.625000
vt 0.500000 0.875000
vt 0.625000 0.875000
vt 0.500000 0.750000
vt 0.500000 0.625000
vt 0.625000 0.625000
vt 0.625000 0.750000
vt 0.554688 0.375000
vt 0.554688 0.250000
vt 0.554688 0.500000
vt 0.554688 0.625000
vt 1.000000 0.500000
vt 1.000000 0.625000
vt 1.000000 0.750000
vt 0.875000 0.750000
vt 1.000000 0.375000
vt 0.875000 0.750000
vt 1.000000 0.750000
vt 0.750000 1.000000
vt 0.750000 0.875000
vt 0.750000 1.000000
vt 0.750000 0.875000
vt 0.625000 0.375000
vt 0.750000 0.375000
vt 0.750000 0.312500
vt 0.625000 0.312500
vt 0.625000 0.250000
vt 0.750000 0.250000
vt 0.500000 0.875000
vt 0.500000 1.000000
vt 0.375000 1.000000
vt 0.375000 0.875000
vt 0.250000 0.750000
vt 0.375000 0.750000
vt 0.375000 0.875000
vt 0.250000 0.875000
vt 0.625000 0.750000
vt 0.500000 0.750000
vt 0.625000 0.875000
vt 0.500000 0.625000
vt 0.500000 0.750000
vt 0.625000 0.750000
vt 0.625000 0.625000
vt 0.625000 0.750000
vt 0.750000 0.750000
vt 0.750000 0.625000
vt 0.625000 0.625000
vt 0.250000 1.000000
vt 0.250000 0.937500
vt 0.125000 0.937500
vt 0.125000 1.000000
vt 0.187500 0.375000
vt 0.187500 0.500000
vt 0.125000 0.500000
vt 0.125000 0.375000
vt 0.125000 0.500000
vt 0.218750 0.500000
vt 0.218750 0.625000
vt 0.125000 0.625000
vt 0.125000 0.500000
vt 0.125000 0.375000
vt 0.187500 0.375000
vt 0.187500 0.500000
vt -0.000000 0.500000
vt -0.000000 0.375000
vt 0.250000 0.125000
vt 0.250000 0.000000
vt 0.375000 0.000000
vt 0.375000 0.062500
vt 0.375000 0.125000
vt 0.250000 0.625000
vt 0.250000 0.750000
vt 0.375000 0.750000
vt 0.375000 0.687500
vt 0.375000 0.625000
vt 0.000000 0.500000
vt 0.000000 0.375000
vt 0.125000 0.375000
vt 0.125000 0.500000
vt 0.375000 0.625000
vt 0.375000 0.750000
vt 0.500000 0.750000
vt 0.500000 0.687500
vt 0.500000 0.625000
vt 0.250000 0.250000
vt 0.375000 0.187500
vt 0.375000 0.250000
vt 0.125000 0.500000
vt 0.218750 0.500000
vt 0.218750 0.625000
vt 0.125000 0.625000
vt 0.437500 -0.000000
vt 0.500000 0.062500
vt 0.437500 0.000000
vt 0.375000 0.000000
vt 0.375000 0.062500
vt 0.500000 0.062500
vt 0.757812 0.875000
vt 0.632812 0.875000
vt 0.632812 0.937500
vt 0.695312 0.937500
vt 0.375000 0.187500
vt 0.500000 0.187500
vt -0.000000 0.500000
vt -0.000000 0.625000
vt 0.500000 0.187500
vt 0.125000 1.000000
vt 0.125000 0.875000
vt 0.250000 0.875000
vt 0.250000 1.000000
vt 0.250000 0.750000
vt 0.375000 0.750000
vt 0.375000 0.875000
vt 0.250000 0.437500
vt 0.187500 0.437500
vt 0.187500 0.375000
vt 0.250000 0.375000
vt 0.250000 0.375000
vt 0.250000 0.437500
vt 0.187500 0.437500
vt 0.187500 0.375000
vt 0.625000 0.937500
vt 0.500000 0.937500
vt 0.500000 0.875000
vt 0.625000 0.875000
vt 0.750000 0.937500
vt 0.625000 1.000000
vt 0.750000 1.000000
vt 0.625000 0.750000
vt 0.625000 0.687500
vt 0.500000 0.687500
vt 0.500000 0.750000
vt 0.625000 0.687500
vt 0.625000 0.750000
vt 0.750000 0.750000
vt 0.750000 0.687500
vt 0.125000 0.750000
vt 0.000000 0.750000
vt 0.000000 0.687500
vt 0.125000 0.687500
vt 0.000000 0.625000
vt 0.125000 0.625000
vt 0.250000 0.875000
vt 0.250000 1.000000
vt 0.367188 0.937500
vt 0.250000 0.937500
vt 0.250000 1.000000
vt 0.367188 1.000000
vt 0.250000 0.937500
vt 0.367188 0.937500
vt 0.367188 1.000000
vt 0.250000 1.000000
vt 0.375000 0.812500
vt 0.500000 0.812500
vt 0.375000 0.875000
vt 0.375000 0.812500
vt 0.500000 0.812500
vt 0.500000 0.875000
vt 0.500000 0.937500
vt 0.500000 1.000000
vt 0.625000 1.000000
vt 0.625000 0.937500
vt 0.375000 1.000000
vt 0.375000 0.875000
vt 0.500000 0.875000
vt 0.500000 1.000000
vt 0.375000 1.000000
vt 0.375000 0.875000
vt 0.500000 0.875000
vt 0.500000 1.000000
vt 0.500000 1.000000
vt 0.500000 0.937500
vt 0.625000 0.937500
vt 0.625000 1.000000
vt 0.375000 1.000000
vt 0.625000 1.000000
vt 0.625000 0.937500
vt 0.500000 0.937500
vt 0.500000 1.000000
vt 0.437500 0.250000
vn 0.0000 0.0000 -1.0000
vn 0.0000 -1.0000 0.0000
vn 0.0000 1.0000 0.0000
vn 1.0000 0.0000 0.0000
vn 0.0000 0.0000 1.0000
vn -1.0000 0.0000 0.0000
vn -0.7071 -0.7071 0.0000
vn 0.0000 0.7071 0.7071
vn 0.0000 0.7071 -0.7071
usemtl Material
s off
f 15/1/1 8/2/1 7/3/1 63/4/1
f 14/5/1 15/6/1 63/7/1 64/8/1
f 171/9/2 63/10/2 7/11/2 173/12/2
f 148/13/3 16/14/3 6/15/3 146/16/3
f 86/17/3 88/18/3 17/19/3 16/20/3
f 88/21/4 113/22/4 27/23/4 17/24/4
f 90/25/3 92/26/3 19/27/3 18/28/3
f 19/29/4 92/30/4 36/31/4 29/32/4
f 94/33/3 96/34/3 21/35/3 20/36/3
f 141/37/5 144/38/5 103/39/5 128/40/5
f 17/41/5 27/42/5 28/43/5 18/44/5
f 61/45/5 30/46/5 29/47/5 62/48/5
f 38/49/6 118/50/6 93/51/6 94/52/6
f 20/36/6 30/53/6 38/54/6 94/55/6
f 14/56/1 13/57/1 25/58/1 26/59/1
f 36/60/4 92/61/4 91/62/4 117/63/4
f 23/64/6 37/65/6 42/66/6 39/67/6
f 117/68/3 118/69/3 38/70/3 36/71/3
f 40/72/3 39/73/3 42/74/3 41/75/3
f 24/76/1 23/77/1 39/78/1 40/79/1
f 35/80/4 24/81/4 40/82/4 41/83/4
f 37/84/5 35/85/5 41/86/5 42/87/5
f 45/88/3 46/89/3 44/90/3 43/91/3
f 34/92/6 28/93/6 44/90/6 46/89/6
f 32/94/1 34/95/1 46/96/1 45/97/1
f 27/98/4 32/99/4 45/100/4 43/101/4
f 51/102/3 52/103/3 50/104/3 49/105/3
f 51/106/4 49/107/4 178/108/4 48/109/4
f 50/110/6 52/111/6 47/112/6 179/113/6
f 54/114/3 53/115/3 47/116/3 48/117/3
f 48/118/1 47/119/1 52/120/1 51/102/1
f 26/59/1 25/58/1 53/121/1 54/122/1
f 59/123/5 60/124/5 56/125/5 55/126/5
f 61/127/3 62/128/3 55/129/3 56/130/3
f 57/131/3 58/132/3 60/133/3 59/134/3
f 20/135/5 19/136/5 29/137/5 30/138/5
f 21/139/5 22/140/5 70/141/5 71/142/5
f 98/143/2 100/144/2 72/145/2 71/146/2
f 19/147/5 20/148/5 72/149/5 73/150/5
f 82/151/2 84/152/2 74/153/2 73/154/2
f 44/155/5 28/156/5 27/157/5 43/158/5
f 78/159/2 80/160/2 76/161/2 75/162/2
f 64/163/2 63/164/2 79/165/2 77/166/2
f 66/167/2 65/168/2 83/169/2 81/170/2
f 15/171/3 14/172/3 87/173/3 85/174/3
f 94/52/6 93/51/6 99/175/6 100/176/6
f 13/177/3 12/178/3 91/179/3 89/180/3
f 95/181/5 97/182/5 99/183/5 93/184/5
f 11/185/3 10/186/3 95/187/3 93/188/3
f 96/189/4 98/190/4 97/191/4 95/192/4
f 68/193/2 67/194/2 99/195/2 97/196/2
f 96/197/1 94/198/1 100/199/1 98/200/1
f 84/201/1 82/202/1 92/203/1 90/204/1
f 80/205/1 78/206/1 88/207/1 86/208/1
f 79/209/5 85/210/5 87/211/5 77/212/5
f 83/213/5 89/214/5 91/215/5 81/216/5
f 82/217/4 81/218/4 91/62/4 92/61/4
f 78/219/4 77/220/4 87/221/4 88/222/4
f 80/223/6 86/224/6 85/225/6 79/226/6
f 84/227/6 90/228/6 89/229/6 83/230/6
f 12/231/1 13/232/1 65/233/1 66/234/1
f 90/235/6 18/236/6 28/237/6 114/238/6
f 10/239/1 11/240/1 67/241/1 68/242/1
f 9/243/1 10/244/1 68/245/1 69/246/1
f 70/247/5 22/248/5 2/249/5 1/250/5
f 20/251/5 21/252/5 71/253/5 72/254/5
f 18/255/5 19/256/5 73/257/5 74/258/5
f 16/259/5 17/260/5 75/261/5 76/262/5
f 5/263/5 6/264/5 16/265/5 76/266/5
f 74/267/5 75/268/5 17/41/5 18/44/5
f 13/269/1 14/270/1 64/271/1 65/272/1
f 127/273/3 129/274/3 106/275/3 102/276/3
f 143/277/4 142/278/4 102/279/4 106/280/4
f 144/281/4 139/282/4 105/283/4 103/284/4
f 142/285/1 140/286/1 127/287/1 102/288/1
f 139/282/4 143/277/4 106/280/4 105/283/4
f 82/289/2 73/150/2 72/290/2 100/291/2
f 38/292/2 36/293/2 110/294/2 109/295/2
f 112/296/1 110/297/1 109/298/1 111/299/1
f 57/300/1 112/296/1 111/299/1 58/301/1
f 30/53/6 61/302/6 111/303/6 109/304/6
f 56/305/6 60/306/6 58/307/6 111/308/6
f 55/309/4 112/310/4 57/311/4 59/312/4
f 29/313/4 110/314/4 112/315/4 62/316/4
f 32/317/3 113/22/3 114/318/3 34/319/3
f 116/320/3 114/321/3 113/322/3 115/323/3
f 179/324/5 33/325/5 31/326/5 178/327/5
f 33/328/3 116/329/3 115/330/3 31/331/3
f 26/332/4 115/333/4 87/334/4 14/335/4
f 88/336/4 87/337/4 115/338/4 113/339/4
f 25/340/6 13/341/6 89/342/6 116/343/6
f 90/344/6 114/318/6 116/345/6 89/346/6
f 35/85/3 37/347/3 118/348/3 117/349/3
f 23/350/6 11/351/6 93/352/6 118/353/6
f 24/354/4 117/355/4 91/356/4 12/357/4
f 130/358/3 129/359/3 123/360/3 124/361/3
f 128/362/3 103/363/3 105/364/3 130/365/3
f 104/366/3 128/362/3 130/365/3 124/367/3
f 105/364/3 106/275/3 129/274/3 130/365/3
f 101/368/3 123/369/3 129/274/3 127/273/3
f 96/370/4 95/371/4 132/372/4 133/373/4
f 10/374/1 9/375/1 135/376/1 131/377/1
f 21/378/4 96/379/4 133/380/4 134/381/4
f 95/382/4 10/383/4 131/384/4 132/385/4
f 22/386/5 21/387/5 134/388/5 136/389/5
f 135/390/7 137/391/7 126/392/7 107/393/7
f 138/394/7 136/395/7 108/396/7 125/397/7
f 125/397/7 126/392/7 137/391/7 138/394/7
f 22/398/3 122/399/3 119/400/3 2/401/3
f 71/402/2 70/403/2 177/404/2 98/405/2
f 176/406/2 97/191/2 98/190/2 177/407/2
f 69/408/2 68/409/2 97/410/2 176/411/2
f 124/412/6 125/397/6 108/396/6 104/413/6
f 123/414/6 126/392/6 125/397/6 124/412/6
f 101/415/6 107/393/6 126/392/6 123/414/6
f 133/416/4 132/417/4 143/277/4 139/282/4
f 131/418/1 135/419/1 140/286/1 142/285/1
f 134/420/4 133/416/4 139/282/4 144/281/4
f 132/417/4 131/418/4 142/278/4 143/277/4
f 136/421/5 134/422/5 144/38/5 141/37/5
f 128/40/5 104/423/5 108/424/5 141/37/5
f 101/425/1 127/287/1 140/286/1 107/426/1
f 135/419/1 107/426/1 140/286/1
f 136/421/5 141/37/5 108/424/5
f 23/427/1 24/428/1 12/429/1 11/430/1
f 67/431/1 11/430/1 12/429/1 66/432/1
f 99/433/2 67/434/2 66/435/2 81/436/2
f 81/437/2 82/438/2 100/439/2 99/440/2
f 84/441/2 83/442/2 77/166/2 78/443/2
f 65/444/2 64/445/2 77/446/2 83/447/2
f 78/448/2 75/449/2 74/450/2 84/451/2
f 15/452/3 147/453/3 145/454/3 8/455/3
f 154/456/5 153/457/5 150/458/5 152/459/5
f 165/460/8 152/461/8 150/462/8 162/463/8
f 156/464/1 155/465/1 151/466/1 149/467/1
f 145/468/1 147/469/1 155/465/1 156/464/1
f 159/470/4 145/471/4 156/472/4 181/473/4 160/474/4
f 157/475/6 148/476/6 154/477/6 166/478/6 158/479/6
f 148/480/5 146/481/5 153/482/5 154/483/5
f 147/484/6 157/485/6 158/486/6 164/487/6 155/488/6
f 146/489/4 159/470/4 160/474/4 180/490/4 153/491/4
f 151/492/9 163/493/9 161/494/9 149/495/9
f 156/472/4 149/496/4 161/497/4 181/473/4
f 151/498/6 155/499/6 164/500/6 163/501/6
f 165/502/6 166/503/6 154/504/6 152/505/6
f 163/501/6 164/500/6 166/506/6 165/507/6
f 163/508/3 165/460/3 162/463/3 161/509/3
f 161/497/4 162/510/4 180/490/4 181/473/4
f 76/511/2 170/512/2 172/513/2 5/514/2
f 170/515/2 171/516/2 173/517/2 172/513/2
f 146/518/4 6/519/4 5/520/4 167/521/4
f 7/522/4 8/523/4 145/524/4 168/525/4
f 159/526/4 146/527/4 167/528/4 169/529/4
f 145/530/4 159/526/4 169/531/4 168/532/4
f 138/533/6 122/534/6 22/535/6 136/536/6
f 121/537/6 137/538/6 135/539/6 9/540/6
f 138/541/6 137/542/6 121/543/6 122/544/6
f 122/544/6 121/543/6 176/545/6 177/546/6
f 50/547/5 179/324/5 178/327/5 49/548/5
f 31/549/4 26/550/4 54/551/4 178/552/4
f 25/553/6 33/554/6 179/555/6 53/556/6
f 2/401/6 119/400/6 175/557/6 1/558/6
f 4/559/6 3/560/6 174/561/6 120/562/6
f 176/563/5 121/564/5 120/565/5 174/566/5
f 177/567/2 70/568/2 1/569/2 175/570/2
f 69/571/2 176/572/2 174/573/2 3/574/2
f 122/575/1 177/576/1 175/577/1 119/578/1
f 121/564/3 9/579/3 4/559/3 120/562/3
f 9/580/1 69/581/1 3/582/1 4/583/1
f 150/584/4 153/491/4 180/490/4 162/510/4
