# Blender v2.93.5 OBJ File: ''
# www.blender.org
mtllib rotarykiln.mtl

o Base_Cube.003
v 6.000762 0.500000 -1.000193
v 7.000762 0.500000 -1.000193
v 7.000762 0.000001 -1.000193
v 6.000762 0.000001 -1.000193
v 5.000762 0.500000 -1.000193
v 5.000762 0.000001 -1.000193
v 6.000762 0.000001 -0.000193
v 7.000762 0.000001 -0.000193
v 6.000762 0.500000 1.499807
v 6.000762 0.500000 1.999807
v 7.000762 0.500000 1.999807
v 7.000762 0.500000 1.499807
v 6.000762 0.500000 0.999807
v 5.000762 0.500000 0.999807
v 5.000762 0.500000 1.999807
v 5.000762 1.000000 0.999808
v 5.000762 1.000000 1.999807
v 4.000762 0.500000 0.999808
v 3.000762 0.500000 0.999808
v 3.000762 0.500000 1.999807
v 4.000762 0.500000 1.999807
v 3.000762 1.000000 0.999808
v 3.000762 1.000000 1.999807
v 2.000762 0.500000 0.999807
v 1.000762 0.500000 0.999807
v 1.000762 0.500000 1.999808
v 2.000762 0.500000 1.999808
v 0.000762 2.000000 1.999808
v 1.000762 2.000000 1.999808
v 1.000762 3.000000 1.999808
v 0.000762 3.000000 1.999808
v 4.000762 1.000000 1.999807
v 2.000762 1.500000 1.999808
v 2.000762 1.000000 1.999808
v 3.000762 1.500000 1.999807
v 2.000762 1.000000 0.999807
v 2.000762 1.000000 -0.000192
v 2.000762 0.500000 -0.000192
v 4.000762 0.500000 -1.000193
v 4.000762 1.000000 -1.000193
v 5.000762 1.000000 -1.000193
v 3.000762 0.500000 -0.000192
v 3.000762 1.000000 -0.000192
v 2.000762 1.000000 -1.000192
v 2.000762 1.000000 -0.062692
v 2.000762 2.000000 -0.062692
v 2.000762 2.000000 -1.000192
v 3.000762 2.000000 -1.000193
v 3.000762 2.000000 -0.062692
v 3.000762 1.000000 -1.000193
v 3.000762 1.000000 -0.062692
v 5.000762 2.000000 1.499808
v 4.000762 2.000000 1.499808
v 4.000762 2.000000 1.999807
v 5.000762 2.000000 1.999807
v 4.000762 1.000000 1.499808
v 5.000762 1.000000 1.499808
v 5.000762 2.000000 -0.500193
v 4.000762 2.000000 -0.500193
v 4.000762 2.000000 -0.062692
v 5.000762 2.000000 -0.062693
v 5.000762 1.500000 -0.062693
v 5.000762 1.500000 -0.500193
v 4.000762 1.500000 -0.500193
v 4.000762 1.500000 -0.062692
v 5.000762 1.500000 -1.000193
v 4.000762 1.500000 -1.000193
v 3.000762 2.000000 1.499807
v 2.000762 2.000000 1.499808
v 2.000762 1.500000 1.499808
v 3.000762 1.500000 1.499807
v 3.000762 2.000000 1.062307
v 2.000762 2.000000 1.062308
v 0.000762 0.500000 1.999808
v 0.000762 0.000001 1.999808
v 1.000762 0.000001 1.999808
v 1.000762 0.000001 0.999807
v 2.000762 0.000001 0.999807
v 2.000762 0.000001 1.999808
v 3.000762 0.000001 1.999807
v 3.000762 0.000001 0.999808
v 4.000762 0.000001 0.999808
v 4.000762 0.000001 1.999807
v 5.000762 0.000001 0.999807
v 6.000762 0.000001 0.999807
v 6.000762 0.000001 1.999807
v 5.000762 0.000001 1.999807
v 5.000762 0.000001 -0.000193
v 3.000762 0.000001 -1.000193
v 4.000762 0.000001 -1.000193
v 4.000762 0.000001 -0.000192
v 3.000762 0.000001 -0.000192
v 5.000762 0.500000 -0.000193
v 6.000762 0.500000 -0.000193
v 2.000762 0.000001 -0.000192
v 3.000762 0.500000 -1.000193
v 4.000762 0.500000 -0.000192
v 1.000762 0.500000 -0.000193
v 1.000762 0.000001 -0.000193
v 2.000762 0.500000 -1.000192
v 1.000762 0.500000 -1.000193
v 1.000762 0.000001 -1.000193
v 2.000762 0.000001 -1.000192
v 4.000762 1.000000 0.999808
v 0.000762 0.500000 -1.000192
v 0.000762 0.000001 -1.000192
v -0.999238 0.500000 1.999807
v -0.999238 0.000001 1.999807
v 7.000762 0.000001 1.999807
v 0.000762 3.000000 -1.000192
v 0.000762 3.000000 -0.000193
v 1.000762 3.000000 -0.000193
v 1.000762 3.000000 -1.000193
v 1.000762 2.000000 -0.000193
v 1.000762 2.000000 -1.000193
v 1.000762 2.000000 0.999807
v 1.000762 3.000000 0.999807
v 0.000762 2.000000 -1.000192
v 2.000762 1.000000 1.062308
v 3.000762 1.000000 1.062307
v 3.000762 1.500000 1.062307
v 2.000762 1.500000 1.062308
v 4.000762 1.000000 -0.000192
v 5.000762 1.000000 -0.000193
v 4.000762 1.000000 -0.062692
v 5.000762 1.000000 -0.062693
v 0.000762 3.000000 0.999807
v -0.999238 3.000000 -0.000192
v -0.999238 3.000000 0.999807
v -0.999238 3.000000 1.999807
v -0.999238 3.000000 -1.000193
v 1.000762 1.000000 -0.000193
v 1.000762 1.000000 0.999807
v 0.000762 1.000000 -1.000192
v 1.000762 1.000000 -1.000193
v 1.000762 1.000000 1.999808
v 0.000762 1.000000 1.999808
v 0.000762 1.000000 -0.000193
v -0.999238 2.000000 -0.000192
v -0.999238 2.000000 -1.000193
v 0.000762 1.000000 0.999807
v -0.999238 2.000000 1.999807
v -0.999238 2.000000 0.999807
v 0.000762 0.500000 0.999807
v -0.999238 0.500000 0.999807
v 0.000762 0.000001 0.999807
v 0.000762 0.000001 -0.000193
v 6.000762 0.500000 -0.500193
v 7.000762 0.500000 -0.500193
v 6.000762 1.500000 1.499807
v 7.000762 1.500000 1.499807
v 7.000762 2.000000 1.499807
v 6.000762 2.000000 1.499807
v 6.000762 2.500000 0.999807
v 7.000762 2.500000 0.999807
v 7.000762 1.500000 -0.500193
v 6.000762 1.500000 -0.500193
v 6.000762 2.000000 -0.500193
v 7.000762 2.000000 -0.500193
v 7.000762 0.500000 0.499807
v 7.000762 1.500000 0.499807
v 6.000762 0.500000 0.499807
v 6.000762 1.500000 0.499807
v 6.000762 2.500000 -0.000193
v 7.000762 2.500000 -0.000193
v 7.000762 1.500000 -0.000193
v 6.000762 1.500000 -0.000193
v 6.000762 1.500000 0.999807
v 7.000762 1.500000 0.999807
v 7.000762 0.000001 0.999807
v 7.000762 0.000001 1.499807
v 7.000762 0.000001 -0.500193
v 7.000762 0.000001 0.499807
v 0.000762 0.500000 -0.000193
v -0.999238 0.000001 0.999807
v -0.999238 0.500000 -1.000193
v -0.999238 0.000001 -1.000193
v -0.999238 0.000001 -0.000192
v -0.999238 0.500000 -0.000192
vt 0.125000 1.000000
vt 0.250000 1.000000
vt 0.250000 0.937500
vt 0.125000 0.937500
vt 0.625000 1.000000
vt 0.500000 1.000000
vt 0.500000 0.937500
vt 0.625000 0.937500
vt 0.125000 0.875000
vt 0.250000 0.875000
vt 0.500000 0.875000
vt 0.375000 1.000000
vt 0.375000 0.875000
vt 0.625000 0.687500
vt 0.625000 0.750000
vt 0.750000 0.750000
vt 0.750000 0.687500
vt 0.500000 0.625000
vt 0.625000 0.625000
vt 0.500000 0.687500
vt 0.875000 0.875000
vt 1.000000 0.875000
vt 1.000000 1.000000
vt 0.875000 1.000000
vt 0.375000 0.937500
vt 0.250000 0.968750
vt 0.250000 0.906250
vt 0.375000 0.906250
vt 0.375000 0.968750
vt 0.625000 0.875000
vt 0.500000 0.812500
vt 0.625000 0.812500
vt 0.625000 0.125000
vt 0.742188 0.125000
vt 0.742188 0.250000
vt 0.625000 0.250000
vt 0.250000 0.750000
vt 0.375000 0.750000
vt 0.125000 0.757812
vt 0.250000 0.757812
vt 0.750000 0.125000
vt 0.750000 0.250000
vt 0.632812 0.125000
vt 0.632812 0.250000
vt 0.312500 0.875000
vt 0.312500 1.000000
vt 0.125000 0.945312
vt 0.250000 0.945312
vt 0.250000 0.500000
vt 0.195312 0.500000
vt 0.195312 0.437500
vt 0.250000 0.437500
vt 0.250000 0.492188
vt 0.195312 0.492188
vt 0.195312 0.429688
vt 0.250000 0.429688
vt 0.250000 0.992188
vt 0.125000 0.992188
vt 0.625000 0.312500
vt 0.750000 0.312500
vt 0.000000 0.875000
vt 0.000000 0.750000
vt 0.125000 0.750000
vt 0.500000 0.750000
vt 0.750000 0.937500
vt 0.750000 1.000000
vt 0.125000 0.000000
vt 0.125000 0.125000
vt 0.000000 0.125000
vt 0.000000 0.000000
vt 0.875000 0.625000
vt 0.875000 0.750000
vt 0.750000 0.625000
vt 0.875000 0.375000
vt 0.875000 0.500000
vt 0.750000 0.500000
vt 0.750000 0.375000
vt 0.367188 0.875000
vt 0.367188 1.000000
vt 0.257812 1.000000
vt 0.257812 0.937500
vt 0.367188 0.937500
vt 0.562500 0.750000
vt 0.562500 0.875000
vt 0.625000 0.757812
vt 0.500000 0.757812
vt 0.375000 0.882812
vt 0.250000 0.882812
vt 0.750000 0.562500
vt 0.625000 0.562500
vt 0.625000 0.500000
vt 0.250000 0.125000
vt 0.250000 0.250000
vt 0.125000 0.250000
vt 0.125000 0.375000
vt 0.000000 0.375000
vt 0.000000 0.250000
vt 0.250000 0.375000
vt 0.250000 0.000000
vt 0.750000 0.812500
vt 0.750000 0.875000
vt 0.625000 0.375000
vt 0.750000 0.437500
vt 0.625000 0.437500
vt 0.250000 0.625000
vt 0.429688 0.500000
vt 0.429688 0.625000
vt 0.429688 0.250000
vt 0.429688 0.375000
vt 0.554688 0.375000
vt 0.554688 0.250000
vt 0.554688 0.500000
vt 0.554688 0.625000
vt 1.000000 0.500000
vt 1.000000 0.625000
vt 1.000000 0.750000
vt 1.000000 0.375000
vt 0.187500 0.375000
vt 0.187500 0.500000
vt 0.125000 0.500000
vt 0.218750 0.500000
vt 0.218750 0.625000
vt 0.125000 0.625000
vt -0.000000 0.500000
vt -0.000000 0.375000
vt 0.375000 0.125000
vt 0.375000 0.250000
vt 0.375000 0.625000
vt 0.000000 0.500000
vt 0.375000 0.000000
vt 0.437500 -0.000000
vt 0.500000 0.062500
vt 0.375000 0.062500
vt 0.437500 0.000000
vt 0.687500 0.937500
vt 0.375000 0.187500
vt 0.500000 0.187500
vt -0.000000 0.625000
vt 0.187500 0.437500
vt 0.000000 0.687500
vt 0.125000 0.687500
vt 0.000000 0.625000
vt 0.375000 0.812500
vt 0.437500 0.250000
vn 0.0000 0.0000 -1.0000
vn 0.0000 -1.0000 -0.0000
vn 0.0000 1.0000 0.0000
vn 1.0000 -0.0000 0.0000
vn -0.0000 -0.0000 1.0000
vn -1.0000 0.0000 0.0000
vn -0.7071 -0.7071 -0.0000
vn 0.0000 0.7071 0.7071
vn 0.0000 0.7071 -0.7071
usemtl Material.001
f 1/1/1 2/2/1 3/3/1 4/4/1
f 5/5/1 1/6/1 4/7/1 6/8/1
f 7/9/2 4/1/2 3/2/2 8/10/2
f 9/3/3 10/2/3 11/1/3 12/4/3
f 13/11/3 14/6/3 15/12/3 10/13/3
f 14/14/4 16/15/4 17/16/4 15/17/4
f 18/11/3 19/6/3 20/12/3 21/13/3
f 20/18/4 19/19/4 22/14/4 23/20/4
f 24/11/3 25/6/3 26/12/3 27/13/3
f 28/21/5 29/22/5 30/23/5 31/24/5
f 15/25/5 17/12/5 32/2/5 21/3/5
f 33/26/5 34/27/5 23/28/5 35/29/5
f 36/30/6 37/11/6 38/31/6 24/32/6
f 27/13/6 34/25/6 36/3/6 24/10/6
f 5/28/1 39/27/1 40/26/1 41/29/1
f 22/11/4 19/31/4 42/32/4 43/30/4
f 44/33/6 45/34/6 46/35/6 47/36/6
f 43/10/3 37/37/3 36/38/3 22/13/3
f 48/10/3 47/9/3 46/39/3 49/40/3
f 50/33/1 44/41/1 47/42/1 48/36/1
f 51/43/4 50/41/4 48/42/4 49/44/4
f 45/2/5 51/10/5 49/13/5 46/12/5
f 52/45/3 53/46/3 54/2/3 55/10/3
f 56/45/6 32/10/6 54/2/6 53/46/6
f 57/10/1 56/13/1 53/12/1 52/2/1
f 17/10/4 57/45/4 52/46/4 55/2/4
f 58/2/3 59/1/3 60/47/3 61/48/3
f 58/49/4 61/50/4 62/51/4 63/52/4
f 60/53/6 59/54/6 64/55/6 65/56/6
f 66/29/3 67/26/3 64/27/3 63/28/3
f 63/3/1 64/25/1 59/12/1 58/2/1
f 41/29/1 40/26/1 67/27/1 66/28/1
f 68/12/5 69/2/5 70/3/5 71/25/5
f 33/27/3 35/28/3 71/29/3 70/26/3
f 72/57/3 73/58/3 69/4/3 68/3/3
f 27/27/5 20/28/5 23/29/5 34/26/5
f 26/59/5 74/60/5 75/42/5 76/36/5
f 77/6/2 78/12/2 79/13/2 76/11/2
f 20/25/5 27/3/5 79/10/5 80/13/5
f 81/13/2 82/11/2 83/6/2 80/12/2
f 54/61/5 32/62/5 17/63/5 55/9/5
f 84/6/2 85/12/2 86/13/2 87/11/2
f 6/6/2 4/12/2 7/13/2 88/11/2
f 89/13/2 90/11/2 91/6/2 92/12/2
f 1/12/3 5/13/3 93/11/3 94/6/3
f 24/32/6 38/31/6 95/64/6 78/15/6
f 39/12/3 96/13/3 42/11/3 97/6/3
f 98/5/5 99/8/5 95/65/5 38/66/5
f 100/12/3 101/13/3 98/11/3 38/6/3
f 25/32/4 77/15/4 99/64/4 98/31/4
f 102/6/2 103/12/2 95/13/2 99/11/2
f 25/5/1 24/6/1 78/7/1 77/8/1
f 82/7/1 81/8/1 19/5/1 18/6/1
f 85/7/1 84/8/1 14/5/1 13/6/1
f 7/65/5 94/66/5 93/5/5 88/8/5
f 91/8/5 97/5/5 42/6/5 92/7/5
f 81/64/4 92/15/4 42/32/4 19/31/4
f 84/13/4 88/10/4 93/3/4 14/25/4
f 85/10/6 13/3/6 94/4/6 7/9/6
f 82/13/6 18/25/6 97/3/6 91/10/6
f 96/5/1 39/6/1 90/7/1 89/8/1
f 18/14/6 21/17/6 32/16/6 104/15/6
f 101/5/1 100/6/1 103/7/1 102/8/1
f 105/60/1 101/59/1 102/36/1 106/42/1
f 75/8/5 74/5/5 107/6/5 108/7/5
f 27/5/5 26/6/5 76/7/5 79/8/5
f 21/5/5 20/6/5 80/7/5 83/8/5
f 10/5/5 15/6/5 87/7/5 86/8/5
f 109/3/5 11/2/5 10/1/5 86/4/5
f 83/10/5 87/13/5 15/25/5 21/3/5
f 39/3/1 5/25/1 6/13/1 90/10/1
f 110/67/3 111/68/3 112/69/3 113/70/3
f 114/71/4 115/72/4 113/16/4 112/73/4
f 29/74/4 116/75/4 117/76/4 30/77/4
f 115/22/1 118/21/1 110/24/1 113/23/1
f 116/75/4 114/71/4 112/73/4 117/76/4
f 81/12/2 80/13/2 79/11/2 78/6/2
f 36/13/3 119/78/3 120/79/3 22/12/3
f 121/25/1 120/13/1 119/11/1 122/7/1
f 72/12/1 121/25/1 122/7/1 73/6/1
f 34/25/6 33/12/6 122/80/6 119/81/6
f 70/52/6 69/49/6 73/50/6 122/51/6
f 71/51/4 121/52/4 72/49/4 68/50/4
f 23/3/4 120/82/4 121/79/4 35/2/4
f 57/83/3 16/15/3 104/30/3 56/84/3
f 123/30/3 104/11/3 16/64/3 124/15/3
f 65/45/5 125/13/5 126/12/5 62/46/5
f 125/15/3 123/85/3 124/86/3 126/64/3
f 41/20/4 124/14/4 93/19/4 5/18/4
f 14/32/4 93/31/4 124/11/4 16/30/4
f 40/20/6 39/18/6 97/19/6 123/14/6
f 18/32/6 104/30/6 123/11/6 97/31/6
f 51/10/3 45/13/3 37/87/3 43/88/3
f 44/59/6 100/36/6 38/42/6 37/60/6
f 50/89/4 43/90/4 42/91/4 96/76/4
f 127/92/3 111/93/3 128/94/3 129/68/3
f 31/95/3 30/96/3 117/97/3 127/94/3
f 130/98/3 31/95/3 127/94/3 129/93/3
f 117/97/3 112/69/3 111/68/3 127/94/3
f 131/99/3 128/92/3 111/68/3 110/67/3
f 25/100/4 98/32/4 132/30/4 133/101/4
f 101/60/1 105/59/1 134/102/1 135/77/1
f 26/89/4 25/90/4 133/19/4 136/73/4
f 98/103/4 101/104/4 135/91/4 132/76/4
f 74/59/5 26/60/5 136/77/5 137/102/5
f 134/105/7 138/49/7 139/106/7 140/107/7
f 141/98/7 137/93/7 142/108/7 143/109/7
f 143/109/7 139/106/7 138/49/7 141/98/7
f 74/6/3 144/12/3 145/13/3 107/11/3
f 76/73/2 75/16/2 146/15/2 77/19/2
f 147/11/2 99/64/2 77/15/2 146/30/2
f 106/64/2 102/18/2 99/19/2 147/15/2
f 129/110/6 143/109/6 142/108/6 130/111/6
f 128/112/6 139/106/6 143/109/6 129/110/6
f 131/113/6 140/107/6 139/106/6 128/112/6
f 133/114/4 132/115/4 114/71/4 116/75/4
f 135/116/1 134/72/1 118/21/1 115/22/1
f 136/117/4 133/114/4 116/75/4 29/74/4
f 132/115/4 135/116/4 115/72/4 114/71/4
f 137/72/5 136/116/5 29/22/5 28/21/5
f 31/24/5 130/66/5 142/101/5 28/21/5
f 131/66/1 110/24/1 118/21/1 140/101/1
f 134/72/1 140/101/1 118/21/1
f 137/72/5 28/21/5 142/101/5
f 44/102/1 50/77/1 96/60/1 100/59/1
f 103/36/1 100/59/1 96/60/1 89/42/1
f 95/11/2 103/6/2 89/12/2 92/13/2
f 92/37/2 81/38/2 78/13/2 95/10/2
f 82/15/2 91/64/2 88/11/2 84/30/2
f 90/18/2 6/64/2 88/15/2 91/19/2
f 84/15/2 87/16/2 83/73/2 82/19/2
f 1/2/3 148/3/3 149/4/3 2/1/3
f 150/118/5 151/119/5 152/120/5 153/95/5
f 154/120/8 153/121/8 152/122/8 155/123/8
f 156/120/1 157/95/1 158/118/1 159/119/1
f 149/124/1 148/125/1 157/95/1 156/120/1
f 160/92/4 161/126/4 151/127/4 12/93/4
f 162/105/6 9/37/6 150/38/6 163/128/6
f 9/129/5 12/96/5 151/95/5 150/120/5
f 157/18/6 148/128/6 162/38/6 163/64/6
f 156/130/4 161/126/4 160/92/4 149/99/4
f 158/120/9 164/121/9 165/122/9 159/123/9
f 156/130/4 159/131/4 165/132/4 166/133/4
f 158/134/6 157/130/6 167/133/6 164/132/6
f 154/101/6 168/30/6 150/8/6 153/135/6
f 164/132/6 167/133/6 168/136/6 154/137/6
f 164/124/3 154/120/3 155/123/3 165/138/3
f 165/132/4 155/137/4 169/136/4 166/133/4
f 86/1/2 85/9/2 170/10/2 109/2/2
f 85/37/2 7/38/2 8/13/2 170/10/2
f 12/52/4 11/139/4 109/118/4 171/98/4
f 3/98/4 2/52/4 149/139/4 172/118/4
f 160/8/4 12/7/4 171/11/4 173/30/4
f 149/65/4 160/8/4 173/5/4 172/66/4
f 141/15/6 144/14/6 74/20/6 137/64/6
f 174/14/6 138/15/6 134/16/6 105/17/6
f 141/63/6 138/62/6 174/140/6 144/141/6
f 144/141/6 174/140/6 147/142/6 146/123/6
f 60/10/5 65/45/5 62/46/5 61/2/5
f 126/82/4 41/3/4 66/2/4 62/79/4
f 40/3/6 125/82/6 65/79/6 67/2/6
f 107/11/6 145/13/6 175/143/6 108/31/6
f 176/13/6 177/143/6 178/31/6 179/11/6
f 147/7/5 174/6/5 179/5/5 178/8/5
f 146/12/2 75/13/2 108/11/2 175/6/2
f 106/12/2 147/13/2 178/11/2 177/6/2
f 144/6/1 146/7/1 175/8/1 145/5/1
f 174/6/3 105/12/3 176/13/3 179/11/3
f 105/5/1 106/8/1 177/7/1 176/6/1
f 152/144/4 151/127/4 169/136/4 155/137/4

o Tube_Cube.002
v 6.000762 2.004311 -0.062693
v 6.000762 2.316811 0.249807
v 6.000762 1.754311 0.499807
v 6.000762 1.504311 -0.062693
v 6.000762 1.191811 0.249807
v 6.000762 1.191811 0.749807
v 6.000762 1.504311 1.062307
v 6.000762 2.316811 0.749807
v 6.000762 2.004311 1.062307
v 1.000762 2.504311 -0.062693
v 1.000762 2.254311 0.499807
v 1.000762 2.816811 0.249807
v 1.000762 2.004311 -0.062693
v 1.000762 1.691811 0.249807
v 1.000762 1.691811 0.749807
v 1.000762 2.004311 1.062307
v 1.000762 2.816811 0.749807
v 1.000762 2.504311 1.062307
v 1.875762 1.604311 0.749807
v 1.875762 1.916811 1.062308
v 1.875762 2.729311 0.249808
v 1.875762 2.416811 -0.062693
v 1.875762 1.604311 0.249808
v 1.875762 2.729311 0.749807
v 1.875762 1.916811 -0.062693
v 1.875762 2.416811 1.062308
v 5.000762 2.416811 0.249807
v 5.000762 2.416811 0.749807
v 5.023845 2.667303 0.843000
v 5.023844 2.667303 0.156615
v 5.000762 2.104311 -0.062693
v 5.000762 1.604311 -0.062693
v 4.000762 1.704311 -0.062692
v 4.000762 2.204311 -0.062692
v 3.000762 1.804311 -0.062692
v 3.000762 2.304311 -0.062692
v 2.000762 1.904311 -0.062693
v 2.000762 2.404311 -0.062693
v 5.125762 1.279311 0.749807
v 5.125762 1.591811 1.062307
v 5.115695 1.491137 1.310581
v 5.102679 1.028819 0.843000
v 5.000762 1.604311 1.062307
v 5.000762 2.104311 1.062307
v 4.000762 2.204311 1.062308
v 4.000762 1.704311 1.062308
v 3.000762 2.304311 1.062308
v 3.000762 1.804311 1.062308
v 2.000762 2.404311 1.062308
v 2.000762 1.904311 1.062308
v 1.885829 2.517485 1.310581
v 1.898845 2.979803 0.843000
v 4.000762 2.516811 0.749808
v 3.000762 2.616811 0.749808
v 2.000762 2.716811 0.749807
v 2.000762 1.591811 0.249808
v 1.977679 1.341319 0.156615
v 1.990694 1.803637 -0.310966
v 5.000762 1.291811 0.249807
v 4.000762 1.391811 0.249808
v 3.000762 1.491811 0.249807
v 5.000762 1.291811 0.749807
v 4.977854 1.043075 0.847278
v 4.991728 1.513973 1.314902
v 4.000762 2.516811 0.249808
v 3.000762 2.616811 0.249807
v 2.000762 2.716811 0.249808
v 1.866728 1.826473 1.314902
v 4.000762 1.391811 0.749808
v 3.000762 1.491811 0.749808
v 2.000762 1.591811 0.749807
v 2.009795 2.494648 -0.315287
v 2.023669 2.965547 0.152337
v 5.010829 2.204985 -0.310966
v 4.991728 1.513973 -0.315287
v 1.885829 2.517485 -0.310966
v 1.866728 1.826473 -0.315287
v 4.977854 1.043075 0.152337
v 2.023669 2.965547 0.847278
v 2.009796 2.494648 1.314902
v 1.977679 1.341319 0.843000
v 5.125762 2.091811 -0.062693
v 5.125762 1.591811 -0.062693
v 5.115695 1.491137 -0.310966
v 5.134796 2.182149 -0.315287
v 5.125762 2.091811 1.062307
v 5.134796 2.182148 1.314902
v 5.010829 2.204985 1.310581
v 5.125762 2.404311 0.249807
v 5.125762 1.279311 0.249807
v 5.125762 2.404311 0.749807
v 5.148669 2.653047 0.847278
v 5.102679 1.028819 0.156615
v 5.148669 2.653047 0.152337
v 1.990694 1.803637 1.310581
v 1.852854 1.355575 0.152337
v 1.898845 2.979803 0.156615
v 1.852854 1.355575 0.847278
vt 0.812500 0.632812
vt 0.773438 0.593750
vt 0.843750 0.562500
vt 0.875000 0.632812
vt 0.914062 0.593750
vt 0.914062 0.531250
vt 0.875000 0.492188
vt 0.773438 0.531250
vt 0.812500 0.492188
vt 0.984375 0.062500
vt 0.984375 0.117188
vt 0.875000 0.125000
vt 0.875000 0.070312
vt 0.984375 0.234375
vt 0.984375 0.179688
vt 0.875000 0.187500
vt 0.875000 0.242188
vt 0.984375 0.000000
vt 0.875000 0.007812
vt 0.984375 0.296875
vt 0.875000 0.304688
vt 0.796875 0.070312
vt 0.796875 0.007812
vt 0.828125 0.000000
vt 0.828125 0.085938
vt 1.000000 0.179688
vt 1.000000 0.117188
vt 0.796875 0.156250
vt 0.796875 0.101562
vt 0.828125 0.093750
vt 0.828125 0.171875
vt 1.000000 0.234375
vt 1.000000 0.062500
vt 0.875000 0.101562
vt 0.875000 0.156250
vt 0.843750 0.171875
vt 0.843750 0.093750
vt 1.000000 0.296875
vt 1.000000 0.000000
vt 0.843750 0.000000
vt 0.843750 0.085938
vt 0.875000 0.062500
vt 0.875000 0.117188
vt 0.984375 0.125000
vt 0.984375 0.070312
vt 0.875000 0.234375
vt 0.875000 0.179688
vt 0.984375 0.187500
vt 0.984375 0.242188
vt 0.875000 0.000000
vt 0.984375 0.007812
vt 0.875000 0.296875
vt 0.984375 0.304688
vn 1.0000 -0.0000 0.0000
vn -1.0000 0.0000 0.0000
vn -0.0705 -0.7053 0.7053
vn 0.0705 0.7053 -0.7053
vn -0.0995 -0.9950 -0.0000
vn 0.0995 0.9950 0.0000
vn -0.0705 -0.7053 -0.7053
vn 0.0705 0.7053 0.7053
vn -0.0000 0.0000 1.0000
vn 0.0000 0.0000 -1.0000
vn -0.9958 0.0918 0.0000
vn 0.9977 -0.0561 0.0391
vn -0.9977 0.0561 0.0391
vn 0.9977 -0.0561 -0.0391
vn -0.9978 0.0551 -0.0376
vn -0.9999 0.0160 0.0017
vn 0.9978 -0.0551 0.0376
vn -0.9999 0.0160 -0.0017
vn -0.9978 0.0551 0.0376
vn 0.9978 -0.0551 -0.0376
vn -0.9977 0.0561 -0.0391
vn 0.9958 -0.0918 0.0000
vn 0.9999 -0.0160 -0.0017
vn 0.9999 -0.0160 0.0017
vn 0.0806 0.7044 0.7052
vn -0.0806 -0.7044 -0.7052
vn 0.1135 0.9935 -0.0000
vn -0.1135 -0.9935 -0.0000
vn 0.0806 0.7044 -0.7052
vn -0.0806 -0.7044 0.7052
vn -0.9958 0.0917 0.0000
vn 0.9958 -0.0917 0.0000
usemtl Material.001
f 180/145/10 181/146/10 182/147/10
f 183/148/10 180/145/10 182/147/10
f 184/149/10 183/148/10 182/147/10
f 185/150/10 184/149/10 182/147/10
f 185/150/10 182/147/10 186/151/10
f 187/152/10 182/147/10 181/146/10
f 188/153/10 182/147/10 187/152/10
f 188/153/10 186/151/10 182/147/10
f 189/150/11 190/147/11 191/151/11
f 192/149/11 190/147/11 189/150/11
f 193/148/11 190/147/11 192/149/11
f 194/145/11 190/147/11 193/148/11
f 194/145/11 195/146/11 190/147/11
f 196/153/11 191/151/11 190/147/11
f 197/152/11 196/153/11 190/147/11
f 197/152/11 190/147/11 195/146/11
f 198/154/12 199/155/12 195/156/12 194/157/12
f 200/158/13 201/159/13 189/160/13 191/161/13
f 202/154/14 198/162/14 194/163/14 193/157/14
f 203/158/15 200/164/15 191/165/15 196/161/15
f 204/155/16 202/154/16 193/157/16 192/156/16
f 205/159/17 203/158/17 196/161/17 197/160/17
f 199/155/18 205/159/18 197/160/18 195/156/18
f 201/159/19 204/155/19 192/156/19 189/160/19
f 206/166/20 207/167/20 208/168/20 209/169/20
f 210/170/19 211/171/19 212/156/19 213/160/19
f 213/170/19 212/171/19 214/156/19 215/160/19
f 215/170/19 214/171/19 216/156/19 217/160/19
f 218/172/21 219/173/21 220/174/21 221/175/21
f 222/171/18 223/170/18 224/160/18 225/156/18
f 225/171/18 224/170/18 226/160/18 227/156/18
f 227/171/18 226/170/18 228/160/18 229/156/18
f 203/172/22 205/173/22 230/174/22 231/175/22
f 223/170/17 207/176/17 232/161/17 224/160/17
f 224/170/17 232/176/17 233/161/17 226/160/17
f 226/170/17 233/176/17 234/161/17 228/160/17
f 216/172/23 235/173/23 236/174/23 237/175/23
f 211/171/16 238/177/16 239/157/16 212/156/16
f 212/171/16 239/177/16 240/157/16 214/156/16
f 214/171/16 240/177/16 235/157/16 216/156/16
f 222/178/24 241/179/24 242/180/24 243/181/24
f 207/176/15 206/182/15 244/165/15 232/161/15
f 232/176/15 244/182/15 245/165/15 233/161/15
f 233/176/15 245/182/15 246/165/15 234/161/15
f 205/167/25 199/166/25 247/169/25 230/168/25
f 238/177/14 241/183/14 248/163/14 239/157/14
f 239/177/14 248/183/14 249/163/14 240/157/14
f 240/177/14 249/183/14 250/163/14 235/157/14
f 246/179/26 217/178/26 251/181/26 252/180/26
f 206/176/13 210/170/13 213/160/13 244/161/13
f 244/176/13 213/170/13 215/160/13 245/161/13
f 245/176/13 215/170/13 217/160/13 246/161/13
f 211/166/27 210/167/27 253/168/27 254/169/27
f 241/177/12 222/171/12 225/156/12 248/157/12
f 248/177/12 225/171/12 227/156/12 249/157/12
f 249/177/12 227/171/12 229/156/12 250/157/12
f 204/157/27 201/163/27 255/184/27 256/185/27
f 238/178/28 211/179/28 254/180/28 257/181/28
f 228/178/29 234/179/29 258/180/29 259/181/29
f 210/172/30 206/173/30 209/174/30 253/175/30
f 235/166/31 250/167/31 260/168/31 236/169/31
f 261/163/32 262/157/32 263/185/32 264/184/32
f 219/163/33 265/157/33 266/185/33 220/184/33
f 207/172/22 223/173/22 267/174/22 208/175/22
f 185/186/12 186/187/12 219/188/12 218/189/12
f 181/190/13 180/191/13 261/192/13 268/193/13
f 184/186/14 185/194/14 218/195/14 269/189/14
f 187/190/15 181/196/15 268/197/15 270/193/15
f 183/187/16 184/186/16 269/189/16 262/188/16
f 188/191/17 187/190/17 270/193/17 265/192/17
f 186/187/18 188/191/18 265/192/18 219/188/18
f 180/191/19 183/187/19 262/188/19 261/192/19
f 264/184/19 263/185/19 254/169/19 253/168/19
f 220/184/18 266/185/18 267/169/18 243/168/18
f 266/181/34 271/180/34 208/175/34 267/174/34
f 263/175/35 272/174/35 257/181/35 254/180/35
f 271/184/36 273/185/36 209/169/36 208/168/36
f 272/169/37 221/168/37 242/184/37 257/185/37
f 273/181/38 264/180/38 253/175/38 209/174/38
f 221/175/39 220/174/39 243/181/39 242/180/39
f 251/168/19 237/169/19 256/185/19 255/184/19
f 274/185/18 259/184/18 230/168/18 247/169/18
f 259/181/34 258/180/34 231/175/34 230/174/34
f 237/175/35 236/174/35 275/181/35 256/180/35
f 258/184/36 252/185/36 276/169/36 231/168/36
f 236/169/37 260/168/37 277/184/37 275/185/37
f 252/180/38 251/181/38 255/174/38 276/175/38
f 260/174/39 274/175/39 247/180/39 277/181/39
f 202/179/28 204/178/28 256/181/28 275/180/28
f 217/167/32 216/166/32 237/169/32 251/168/32
f 268/178/26 261/179/26 264/180/26 273/181/26
f 200/166/20 203/167/20 231/168/20 276/169/20
f 223/166/25 222/167/25 243/168/25 267/169/25
f 250/173/21 229/172/21 274/175/21 260/174/21
f 269/166/31 218/167/31 221/168/31 272/169/31
f 198/163/40 202/157/40 275/185/40 277/184/40
f 270/163/41 268/157/41 273/185/41 271/184/41
f 234/163/41 246/157/41 252/185/41 258/184/41
f 201/173/30 200/172/30 276/175/30 255/174/30
f 262/172/23 269/173/23 272/174/23 263/175/23
f 241/163/40 238/157/40 257/185/40 242/184/40
f 199/179/24 198/178/24 277/181/24 247/180/24
f 229/157/33 228/163/33 259/184/33 274/185/33
f 265/178/29 270/179/29 271/180/29 266/181/29
