# Blender v2.93.4 OBJ File: 'rotary_kiln.blend'
# www.blender.org
mtllib rotarykiln.mtl
o Tube_Cube.002
v 0.000000 1.812500 -0.250000
v 0.000000 1.812500 0.250000
v 0.000000 1.500000 -0.562500
v 0.000000 1.000000 -0.562500
v 0.000000 0.687500 0.250000
v 0.000000 0.687500 -0.250000
v 0.000000 1.500000 0.562500
v 0.000000 1.000000 0.562500
v 0.000000 1.250000 0.000000
v -5.000000 2.312500 -0.250000
v -5.000000 2.312500 0.250000
v -5.000000 2.000000 -0.562500
v -5.000000 1.500000 -0.562500
v -5.000000 1.187500 0.250000
v -5.000000 1.187500 -0.250000
v -5.000000 2.000000 0.562500
v -5.000000 1.500000 0.562500
v -5.000000 1.750000 0.000000
v -1.000000 1.100000 0.562500
v -2.000000 1.200000 0.562500
v -3.000000 1.300000 0.562500
v -4.000000 1.400000 0.562500
v -4.000000 1.087500 0.250000
v -3.000000 0.987500 0.250000
v -2.000000 0.887500 0.250000
v -1.000000 0.787500 0.250000
v -1.000000 1.600000 -0.562500
v -2.000000 1.700000 -0.562500
v -3.000000 1.800000 -0.562500
v -4.000000 1.900000 -0.562500
v -4.000000 2.212500 -0.250000
v -3.000000 2.112500 -0.250000
v -2.000000 2.012500 -0.250000
v -1.000000 1.912500 -0.250000
v -4.000000 1.087500 -0.250000
v -3.000000 0.987500 -0.250000
v -2.000000 0.887500 -0.250000
v -1.000000 0.787500 -0.250000
v -4.000000 2.212500 0.250000
v -3.000000 2.112500 0.250000
v -2.000000 2.012500 0.250000
v -1.000000 1.912500 0.250000
v -4.000000 1.400000 -0.562500
v -3.000000 1.300000 -0.562500
v -2.000000 1.200000 -0.562500
v -1.000000 1.100000 -0.562500
v -4.000000 1.900000 0.562500
v -3.000000 1.800000 0.562500
v -2.000000 1.700000 0.562500
v -1.000000 1.600000 0.562500
v -4.125000 1.412500 0.562500
v -4.125000 1.912500 -0.562500
v -4.125000 1.100000 0.250000
v -4.125000 2.225000 -0.250000
v -4.125000 1.100000 -0.250000
v -4.125000 2.225000 0.250000
v -4.125000 1.412500 -0.562500
v -4.125000 1.912500 0.562500
v -0.875000 0.775000 0.250000
v -0.875000 1.900000 -0.250000
v -0.875000 0.775000 -0.250000
v -0.875000 1.900000 0.250000
v -0.875000 1.087500 -0.562500
v -0.875000 1.587500 0.562500
v -0.875000 1.087500 0.562500
v -0.875000 1.587500 -0.562500
v -0.885067 0.986826 0.810774
v -1.009034 1.009662 0.815094
v -4.147907 0.851264 0.347471
v -4.023083 0.837008 0.343192
v -0.865966 1.677838 -0.815094
v -0.989933 1.700674 -0.810774
v -4.101917 2.475492 -0.343192
v -3.977093 2.461236 -0.347471
v -4.147907 0.851264 -0.347471
v -4.023083 0.837008 -0.343192
v -4.101917 2.475492 0.343192
v -3.977093 2.461236 0.347471
v -4.134034 1.322162 -0.815094
v -4.010067 1.299326 -0.810774
v -4.114933 2.013174 0.810774
v -3.990966 1.990338 0.815094
v -1.009034 1.009662 -0.815094
v -3.990966 1.990338 -0.815094
v -0.989933 1.700674 0.810774
v -4.010067 1.299326 0.810774
v -0.976917 2.162992 0.343192
v -1.022907 0.538764 -0.347471
v -0.976917 2.162992 -0.343192
v -1.022907 0.538764 0.347471
v -4.134034 1.322162 0.815094
v -4.114933 2.013174 -0.810774
v -0.898083 0.524508 0.343192
v -0.852093 2.148736 -0.347471
v -0.898083 0.524508 -0.343192
v -0.852093 2.148736 0.347471
v -0.885067 0.986826 -0.810774
v -0.865966 1.677838 0.815094
vt 0.812500 0.632812
vt 0.773438 0.593750
vt 0.843750 0.562500
vt 0.875000 0.632812
vt 0.914062 0.593750
vt 0.914062 0.531250
vt 0.875000 0.492188
vt 0.773438 0.531250
vt 0.812500 0.492188
vt 0.914062 0.531250
vt 0.843750 0.562500
vt 0.875000 0.492188
vt 0.914062 0.593750
vt 0.875000 0.632812
vt 0.812500 0.632812
vt 0.773438 0.593750
vt 0.812500 0.492188
vt 0.773438 0.531250
vt 0.984375 0.062500
vt 0.984375 0.117188
vt 0.875000 0.125000
vt 0.875000 0.070312
vt 0.984375 0.234375
vt 0.984375 0.179688
vt 0.875000 0.187500
vt 0.875000 0.242188
vt 0.984375 0.062500
vt 0.984375 0.000000
vt 0.875000 0.007812
vt 0.875000 0.070312
vt 0.984375 0.234375
vt 0.984375 0.296875
vt 0.875000 0.304688
vt 0.875000 0.242188
vt 0.984375 0.117188
vt 0.875000 0.125000
vt 0.984375 0.179688
vt 0.875000 0.187500
vt 0.796875 0.070312
vt 0.796875 0.007812
vt 0.828125 0.000000
vt 0.828125 0.085938
vt 1.000000 0.179688
vt 1.000000 0.117188
vt 0.875000 0.125000
vt 0.875000 0.187500
vt 1.000000 0.179688
vt 1.000000 0.117188
vt 0.875000 0.125000
vt 0.875000 0.187500
vt 1.000000 0.179688
vt 1.000000 0.117188
vt 0.875000 0.125000
vt 0.875000 0.187500
vt 0.796875 0.156250
vt 0.796875 0.101562
vt 0.828125 0.093750
vt 0.828125 0.171875
vt 1.000000 0.117188
vt 1.000000 0.179688
vt 0.875000 0.187500
vt 0.875000 0.125000
vt 1.000000 0.117188
vt 1.000000 0.179688
vt 0.875000 0.187500
vt 0.875000 0.125000
vt 1.000000 0.117188
vt 1.000000 0.179688
vt 0.875000 0.187500
vt 0.875000 0.125000
vt 0.796875 0.156250
vt 0.796875 0.101562
vt 0.828125 0.093750
vt 0.828125 0.171875
vt 1.000000 0.234375
vt 0.875000 0.242188
vt 1.000000 0.234375
vt 0.875000 0.242188
vt 1.000000 0.234375
vt 0.875000 0.242188
vt 0.796875 0.156250
vt 0.796875 0.101562
vt 0.828125 0.093750
vt 0.828125 0.171875
vt 1.000000 0.062500
vt 0.875000 0.070312
vt 1.000000 0.062500
vt 0.875000 0.070312
vt 1.000000 0.062500
vt 0.875000 0.070312
vt 0.875000 0.101562
vt 0.875000 0.156250
vt 0.843750 0.171875
vt 0.843750 0.093750
vt 1.000000 0.296875
vt 0.875000 0.304688
vt 1.000000 0.296875
vt 0.875000 0.304688
vt 1.000000 0.296875
vt 0.875000 0.304688
vt 0.796875 0.007812
vt 0.796875 0.070312
vt 0.828125 0.085938
vt 0.828125 0.000000
vt 1.000000 0.000000
vt 0.875000 0.007812
vt 1.000000 0.000000
vt 0.875000 0.007812
vt 1.000000 0.000000
vt 0.875000 0.007812
vt 0.875000 0.156250
vt 0.875000 0.101562
vt 0.843750 0.093750
vt 0.843750 0.171875
vt 1.000000 0.234375
vt 0.875000 0.242188
vt 1.000000 0.234375
vt 0.875000 0.242188
vt 1.000000 0.234375
vt 0.875000 0.242188
vt 0.796875 0.070312
vt 0.796875 0.007812
vt 0.828125 0.000000
vt 0.828125 0.085938
vt 1.000000 0.062500
vt 0.875000 0.070312
vt 1.000000 0.062500
vt 0.875000 0.070312
vt 1.000000 0.062500
vt 0.875000 0.070312
vt 0.875000 0.070312
vt 0.875000 0.007812
vt 0.843750 0.000000
vt 0.843750 0.085938
vt 0.875000 0.101562
vt 0.875000 0.156250
vt 0.843750 0.171875
vt 0.843750 0.093750
vt 0.875000 0.101562
vt 0.875000 0.156250
vt 0.843750 0.171875
vt 0.843750 0.093750
vt 0.796875 0.156250
vt 0.796875 0.101562
vt 0.828125 0.093750
vt 0.828125 0.171875
vt 0.796875 0.070312
vt 0.796875 0.007812
vt 0.828125 0.000000
vt 0.828125 0.085938
vt 0.875000 0.007812
vt 0.875000 0.070312
vt 0.843750 0.085938
vt 0.843750 0.000000
vt 0.875000 0.007812
vt 0.875000 0.070312
vt 0.843750 0.085938
vt 0.843750 0.000000
vt 0.796875 0.156250
vt 0.796875 0.101562
vt 0.828125 0.093750
vt 0.828125 0.171875
vt 0.875000 0.062500
vt 0.875000 0.117188
vt 0.984375 0.125000
vt 0.984375 0.070312
vt 0.875000 0.234375
vt 0.875000 0.179688
vt 0.984375 0.187500
vt 0.984375 0.242188
vt 0.875000 0.062500
vt 0.875000 0.000000
vt 0.984375 0.007812
vt 0.984375 0.070312
vt 0.875000 0.234375
vt 0.875000 0.296875
vt 0.984375 0.304688
vt 0.984375 0.242188
vt 0.875000 0.117188
vt 0.984375 0.125000
vt 0.875000 0.179688
vt 0.984375 0.187500
vt 0.828125 0.085938
vt 0.828125 0.000000
vt 0.843750 0.093750
vt 0.843750 0.171875
vt 0.828125 0.171875
vt 0.828125 0.093750
vt 0.843750 0.000000
vt 0.843750 0.085938
vt 0.828125 0.085938
vt 0.828125 0.000000
vt 0.843750 0.000000
vt 0.843750 0.085938
vt 0.843750 0.093750
vt 0.843750 0.171875
vt 0.828125 0.000000
vt 0.828125 0.085938
vt 0.843750 0.085938
vt 0.843750 0.000000
vt 0.843750 0.093750
vt 0.843750 0.171875
vt 0.843750 0.000000
vt 0.843750 0.085938
vt 0.828125 0.085938
vt 0.828125 0.000000
vt 0.843750 0.000000
vt 0.843750 0.085938
vt 0.828125 0.093750
vt 0.828125 0.171875
vt 0.828125 0.093750
vt 0.828125 0.171875
vt 0.843750 0.171875
vt 0.843750 0.093750
vt 0.875000 0.156250
vt 0.875000 0.101562
vt 0.843750 0.093750
vt 0.843750 0.171875
vt 0.796875 0.007812
vt 0.796875 0.070312
vt 0.875000 0.101562
vt 0.875000 0.156250
vt 0.796875 0.070312
vt 0.796875 0.007812
vt 0.796875 0.070312
vt 0.796875 0.007812
vt 0.796875 0.101562
vt 0.796875 0.156250
vt 0.796875 0.070312
vt 0.796875 0.007812
vt 0.875000 0.007812
vt 0.875000 0.070312
vt 0.875000 0.007812
vt 0.875000 0.070312
vt 0.875000 0.007812
vt 0.875000 0.070312
vt 0.796875 0.101562
vt 0.796875 0.156250
vt 0.796875 0.156250
vt 0.796875 0.101562
vt 0.875000 0.007812
vt 0.875000 0.070312
vt 0.875000 0.156250
vt 0.875000 0.101562
vt 0.875000 0.070312
vt 0.875000 0.007812
vt 0.875000 0.101562
vt 0.875000 0.156250
vn 1.0000 0.0000 0.0000
vn -1.0000 0.0000 0.0000
vn -0.0705 -0.7053 0.7053
vn 0.0705 0.7053 -0.7053
vn -0.0995 -0.9950 0.0000
vn 0.0995 0.9950 0.0000
vn -0.0705 -0.7053 -0.7053
vn 0.0705 0.7053 0.7053
vn 0.0000 0.0000 1.0000
vn 0.0000 0.0000 -1.0000
vn -0.9958 0.0918 0.0000
vn 0.9977 -0.0561 0.0391
vn -0.9977 0.0561 0.0391
vn 0.9977 -0.0561 -0.0391
vn -0.9978 0.0551 -0.0376
vn -0.9999 0.0160 0.0017
vn 0.9978 -0.0551 0.0376
vn -0.9999 0.0160 -0.0017
vn -0.9978 0.0551 0.0376
vn 0.9978 -0.0551 -0.0376
vn -0.9977 0.0561 -0.0391
vn 0.9958 -0.0918 0.0000
vn 0.9999 -0.0160 -0.0017
vn 0.9999 -0.0160 0.0017
vn 0.0806 0.7044 0.7052
vn -0.0806 -0.7044 -0.7052
vn 0.1135 0.9935 0.0000
vn -0.1135 -0.9935 0.0000
vn 0.0806 0.7044 -0.7052
vn -0.0806 -0.7044 0.7052
vn -0.9958 0.0917 0.0000
vn 0.9958 -0.0917 0.0000
usemtl Material
s off
f 3/1/1 1/2/1 9/3/1
f 4/4/1 3/1/1 9/3/1
f 6/5/1 4/4/1 9/3/1
f 5/6/1 6/5/1 9/3/1
f 5/6/1 9/3/1 8/7/1
f 2/8/1 9/3/1 1/2/1
f 7/9/1 9/3/1 2/8/1
f 7/9/1 8/7/1 9/3/1
f 12/10/2 18/11/2 10/12/2
f 13/13/2 18/11/2 12/10/2
f 15/14/2 18/11/2 13/13/2
f 14/15/2 18/11/2 15/14/2
f 14/15/2 17/16/2 18/11/2
f 11/17/2 10/12/2 18/11/2
f 16/18/2 11/17/2 18/11/2
f 16/18/2 18/11/2 17/16/2
f 53/19/3 51/20/3 17/21/3 14/22/3
f 54/23/4 52/24/4 12/25/4 10/26/4
f 55/27/5 53/28/5 14/29/5 15/30/5
f 56/31/6 54/32/6 10/33/6 11/34/6
f 57/35/7 55/27/7 15/30/7 13/36/7
f 58/37/8 56/31/8 11/34/8 16/38/8
f 51/20/9 58/37/9 16/38/9 17/21/9
f 52/24/10 57/35/10 13/36/10 12/25/10
f 34/39/11 42/40/11 87/41/11 89/42/11
f 27/43/10 46/44/10 45/45/10 28/46/10
f 28/47/10 45/48/10 44/49/10 29/50/10
f 29/51/10 44/52/10 43/53/10 30/54/10
f 59/55/12 65/56/12 67/57/12 93/58/12
f 19/59/9 50/60/9 49/61/9 20/62/9
f 20/63/9 49/64/9 48/65/9 21/66/9
f 21/67/9 48/68/9 47/69/9 22/70/9
f 56/71/13 58/72/13 81/73/13 77/74/13
f 50/60/8 42/75/8 41/76/8 49/61/8
f 49/64/8 41/77/8 40/78/8 48/65/8
f 48/68/8 40/79/8 39/80/8 47/69/8
f 43/81/14 35/82/14 76/83/14 80/84/14
f 46/44/7 38/85/7 37/86/7 45/45/7
f 45/48/7 37/87/7 36/88/7 44/49/7
f 44/52/7 36/89/7 35/90/7 43/53/7
f 19/91/15 26/92/15 90/93/15 68/94/15
f 42/75/6 34/95/6 33/96/6 41/76/6
f 41/77/6 33/97/6 32/98/6 40/78/6
f 40/79/6 32/99/6 31/100/6 39/80/6
f 58/101/16 51/102/16 91/103/16 81/104/16
f 38/85/5 26/105/5 25/106/5 37/86/5
f 37/87/5 25/107/5 24/108/5 36/88/5
f 36/89/5 24/109/5 23/110/5 35/90/5
f 31/111/17 30/112/17 84/113/17 74/114/17
f 34/115/4 27/43/4 28/46/4 33/116/4
f 33/117/4 28/47/4 29/50/4 32/118/4
f 32/119/4 29/51/4 30/54/4 31/120/4
f 46/121/18 27/122/18 72/123/18 83/124/18
f 26/125/3 19/59/3 20/62/3 25/126/3
f 25/127/3 20/63/3 21/66/3 24/128/3
f 24/129/3 21/67/3 22/70/3 23/130/3
f 57/131/18 52/132/18 92/133/18 79/134/18
f 38/135/19 46/136/19 83/137/19 88/138/19
f 47/139/20 39/140/20 78/141/20 82/142/20
f 27/143/21 34/144/21 89/145/21 72/146/21
f 35/147/22 23/148/22 70/149/22 76/150/22
f 66/151/23 63/152/23 97/153/23 71/154/23
f 65/155/24 64/156/24 98/157/24 67/158/24
f 42/159/13 50/160/13 85/161/13 87/162/13
f 5/163/3 8/164/3 65/165/3 59/166/3
f 1/167/4 3/168/4 66/169/4 60/170/4
f 6/171/5 5/172/5 59/173/5 61/174/5
f 2/175/6 1/176/6 60/177/6 62/178/6
f 4/179/7 6/171/7 61/174/7 63/180/7
f 7/181/8 2/175/8 62/178/8 64/182/8
f 8/164/9 7/181/9 64/182/9 65/165/9
f 3/168/10 4/179/10 63/180/10 66/169/10
f 71/154/10 97/153/10 83/124/10 72/123/10
f 67/158/9 98/157/9 85/183/9 68/184/9
f 98/185/25 96/186/25 87/162/25 85/161/25
f 97/187/26 95/188/26 88/138/26 83/137/26
f 96/189/27 94/190/27 89/42/27 87/41/27
f 95/191/28 93/192/28 90/193/28 88/194/28
f 94/195/29 71/196/29 72/146/29 89/145/29
f 93/58/30 67/57/30 68/94/30 90/93/30
f 84/197/10 80/198/10 79/134/10 92/133/10
f 86/199/9 82/200/9 81/104/9 91/103/9
f 82/142/25 78/141/25 77/74/25 81/73/25
f 80/84/26 76/83/26 75/201/26 79/202/26
f 78/203/27 74/204/27 73/205/27 77/206/27
f 76/150/28 70/149/28 69/207/28 75/208/28
f 74/114/29 84/113/29 92/209/29 73/210/29
f 70/211/30 86/212/30 91/213/30 69/214/30
f 55/215/19 57/216/19 79/217/19 75/218/19
f 30/219/23 43/220/23 80/198/23 84/197/23
f 60/221/17 66/222/17 71/196/17 94/195/17
f 54/223/11 56/224/11 77/206/11 73/205/11
f 50/225/16 19/226/16 68/184/16 85/183/16
f 23/227/12 22/228/12 86/212/12 70/211/12
f 61/229/22 59/230/22 93/192/22 95/191/22
f 53/231/31 55/232/31 75/208/31 69/207/31
f 62/233/32 60/234/32 94/190/32 96/189/32
f 39/235/32 31/236/32 74/204/32 78/203/32
f 52/237/21 54/238/21 73/210/21 92/209/21
f 63/239/14 61/240/14 95/188/14 97/187/14
f 26/241/31 38/242/31 88/194/31 90/193/31
f 51/243/15 53/244/15 69/214/15 91/213/15
f 22/245/24 47/246/24 82/200/24 86/199/24
f 64/247/20 62/248/20 96/186/20 98/185/20
